G75*
%MOIN*%
%OFA0B0*%
%FSLAX24Y24*%
%IPPOS*%
%LPD*%
%AMOC8*
5,1,8,0,0,1.08239X$1,22.5*
%
%ADD10C,0.0768*%
%ADD11C,0.0740*%
%ADD12C,0.0650*%
%ADD13R,0.0740X0.0740*%
%ADD14C,0.0120*%
%ADD15C,0.0376*%
%ADD16C,0.0240*%
D10*
X012021Y027660D03*
X013202Y029550D03*
X014304Y027660D03*
D11*
X014414Y024160D03*
X014914Y023160D03*
X014914Y022160D03*
X014914Y021160D03*
X014914Y020160D03*
X014914Y019160D03*
X014914Y018160D03*
X014914Y017160D03*
X014914Y016160D03*
X014914Y015160D03*
X014914Y014160D03*
X014914Y013160D03*
X014914Y012160D03*
X013789Y014598D03*
X013789Y015598D03*
X013789Y018723D03*
X013789Y019723D03*
X013414Y024160D03*
X012414Y024160D03*
X011414Y024160D03*
X010414Y024160D03*
X009414Y024160D03*
X008914Y023160D03*
X008914Y022160D03*
X008914Y021160D03*
X008914Y020160D03*
X008914Y019160D03*
X008914Y018160D03*
X008914Y017160D03*
X008914Y016160D03*
X008914Y015160D03*
X008914Y014160D03*
X008914Y013160D03*
X008914Y012160D03*
X008914Y009160D03*
X008914Y008160D03*
X008914Y007160D03*
X008914Y006160D03*
X008914Y005160D03*
X008914Y004160D03*
X008914Y003160D03*
X008914Y002160D03*
X008914Y001160D03*
X014914Y002160D03*
X014914Y003160D03*
X014914Y004160D03*
X014914Y005160D03*
X014914Y006160D03*
X014914Y007160D03*
X014914Y008160D03*
X010164Y027160D03*
X010164Y028160D03*
X009164Y028160D03*
X009164Y027160D03*
D12*
X006723Y026190D03*
X006723Y025111D03*
X006723Y024032D03*
X006723Y022953D03*
X006723Y021875D03*
X006723Y020796D03*
X006723Y019717D03*
X006723Y018638D03*
X005605Y019178D03*
X005605Y020256D03*
X005605Y021335D03*
X005605Y022414D03*
X005605Y023493D03*
X005605Y024571D03*
X005605Y025674D03*
D13*
X014914Y001160D03*
D14*
X002624Y001446D02*
X002624Y008874D01*
X002733Y008765D01*
X003013Y008649D01*
X003316Y008649D01*
X003596Y008765D01*
X003810Y008979D01*
X003926Y009259D01*
X003926Y009561D01*
X003810Y009841D01*
X003596Y010055D01*
X003316Y010171D01*
X003013Y010171D01*
X002733Y010055D01*
X002624Y009946D01*
X002624Y029950D01*
X012833Y029950D01*
X012787Y029904D01*
X012737Y029835D01*
X012698Y029759D01*
X012671Y029677D01*
X012661Y029610D01*
X013142Y029610D01*
X013142Y029490D01*
X012661Y029490D01*
X012671Y029422D01*
X012698Y029341D01*
X012737Y029265D01*
X012787Y029195D01*
X012847Y029135D01*
X012917Y029085D01*
X012993Y029046D01*
X013074Y029019D01*
X013142Y029009D01*
X013142Y029490D01*
X013262Y029490D01*
X013262Y029610D01*
X013743Y029610D01*
X013732Y029677D01*
X013706Y029759D01*
X013667Y029835D01*
X013617Y029904D01*
X013571Y029950D01*
X017204Y029950D01*
X017204Y025446D01*
X017096Y025555D01*
X016816Y025671D01*
X016513Y025671D01*
X016233Y025555D01*
X016019Y025341D01*
X015903Y025061D01*
X015903Y024759D01*
X016019Y024479D01*
X016233Y024265D01*
X016513Y024149D01*
X016816Y024149D01*
X017096Y024265D01*
X017204Y024374D01*
X017204Y015909D01*
X016818Y016296D01*
X016750Y016363D01*
X016662Y016400D01*
X015410Y016400D01*
X015381Y016472D01*
X015232Y016620D01*
X016134Y016620D01*
X016206Y016548D01*
X016341Y016492D01*
X016488Y016492D01*
X016623Y016548D01*
X016726Y016651D01*
X016782Y016787D01*
X016782Y016933D01*
X016726Y017069D01*
X016623Y017172D01*
X016488Y017228D01*
X016341Y017228D01*
X016206Y017172D01*
X016134Y017100D01*
X015464Y017100D01*
X015464Y017269D01*
X015381Y017472D01*
X015226Y017626D01*
X015144Y017660D01*
X015226Y017694D01*
X015381Y017848D01*
X015464Y018051D01*
X015464Y018269D01*
X015464Y018271D01*
X015674Y018061D01*
X015674Y017841D01*
X015602Y017769D01*
X015546Y017633D01*
X015546Y017487D01*
X015602Y017351D01*
X015706Y017248D01*
X015841Y017192D01*
X015988Y017192D01*
X016123Y017248D01*
X016226Y017351D01*
X016282Y017487D01*
X016282Y017633D01*
X016226Y017769D01*
X016154Y017841D01*
X016154Y018208D01*
X016118Y018296D01*
X015435Y018979D01*
X015464Y019051D01*
X015464Y019269D01*
X015381Y019472D01*
X015226Y019626D01*
X015144Y019660D01*
X015226Y019694D01*
X015381Y019848D01*
X015464Y020051D01*
X015464Y020269D01*
X015381Y020472D01*
X015226Y020626D01*
X015144Y020660D01*
X015226Y020694D01*
X015381Y020848D01*
X015464Y021051D01*
X015464Y021269D01*
X015381Y021472D01*
X015226Y021626D01*
X015120Y021670D01*
X015192Y021707D01*
X015260Y021756D01*
X015319Y021815D01*
X015368Y021882D01*
X015406Y021957D01*
X015431Y022036D01*
X015444Y022118D01*
X015444Y022120D01*
X014954Y022120D01*
X014954Y022200D01*
X015444Y022200D01*
X015444Y022202D01*
X015431Y022284D01*
X015406Y022363D01*
X015368Y022438D01*
X015319Y022505D01*
X015260Y022564D01*
X015192Y022613D01*
X015120Y022650D01*
X015226Y022694D01*
X015381Y022848D01*
X015464Y023051D01*
X015464Y025470D01*
X015419Y025580D01*
X015334Y025664D01*
X015224Y025710D01*
X010464Y025710D01*
X010464Y026689D01*
X010476Y026694D01*
X010631Y026848D01*
X010714Y027051D01*
X010714Y027269D01*
X010631Y027472D01*
X010476Y027626D01*
X010394Y027660D01*
X010476Y027694D01*
X010631Y027848D01*
X010635Y027860D01*
X011396Y027860D01*
X011465Y027792D01*
X011457Y027772D01*
X011457Y027548D01*
X011543Y027341D01*
X011701Y027182D01*
X011909Y027096D01*
X012133Y027096D01*
X012340Y027182D01*
X012499Y027341D01*
X012585Y027548D01*
X012585Y027772D01*
X012499Y027979D01*
X012340Y028138D01*
X012133Y028224D01*
X011909Y028224D01*
X011889Y028216D01*
X011775Y028330D01*
X011691Y028414D01*
X011580Y028460D01*
X010635Y028460D01*
X010631Y028472D01*
X010476Y028626D01*
X010274Y028710D01*
X010055Y028710D01*
X009853Y028626D01*
X009698Y028472D01*
X009664Y028390D01*
X009631Y028472D01*
X009476Y028626D01*
X009274Y028710D01*
X009055Y028710D01*
X008853Y028626D01*
X008698Y028472D01*
X008614Y028269D01*
X008614Y028051D01*
X008698Y027848D01*
X008853Y027694D01*
X008934Y027660D01*
X008853Y027626D01*
X008698Y027472D01*
X008614Y027269D01*
X008614Y027051D01*
X008698Y026848D01*
X008853Y026694D01*
X009055Y026610D01*
X009274Y026610D01*
X009476Y026694D01*
X009631Y026848D01*
X009664Y026930D01*
X009698Y026848D01*
X009853Y026694D01*
X009864Y026689D01*
X009864Y025350D01*
X009910Y025240D01*
X009994Y025156D01*
X010105Y025110D01*
X014864Y025110D01*
X014864Y024488D01*
X014726Y024626D01*
X014524Y024710D01*
X014305Y024710D01*
X014103Y024626D01*
X013948Y024472D01*
X013914Y024390D01*
X013881Y024472D01*
X013726Y024626D01*
X013524Y024710D01*
X013305Y024710D01*
X013103Y024626D01*
X012948Y024472D01*
X012914Y024390D01*
X012881Y024472D01*
X012726Y024626D01*
X012524Y024710D01*
X012305Y024710D01*
X012103Y024626D01*
X011948Y024472D01*
X011914Y024390D01*
X011881Y024472D01*
X011726Y024626D01*
X011524Y024710D01*
X011305Y024710D01*
X011103Y024626D01*
X010948Y024472D01*
X010914Y024390D01*
X010881Y024472D01*
X010726Y024626D01*
X010524Y024710D01*
X010305Y024710D01*
X010103Y024626D01*
X009948Y024472D01*
X009914Y024390D01*
X009881Y024472D01*
X009726Y024626D01*
X009524Y024710D01*
X009305Y024710D01*
X009103Y024626D01*
X008948Y024472D01*
X008864Y024269D01*
X008864Y024051D01*
X008948Y023848D01*
X009103Y023694D01*
X009305Y023610D01*
X009524Y023610D01*
X009726Y023694D01*
X009881Y023848D01*
X009914Y023930D01*
X009948Y023848D01*
X010103Y023694D01*
X010305Y023610D01*
X010524Y023610D01*
X010726Y023694D01*
X010881Y023848D01*
X010914Y023930D01*
X010948Y023848D01*
X011103Y023694D01*
X011305Y023610D01*
X011524Y023610D01*
X011726Y023694D01*
X011881Y023848D01*
X011914Y023930D01*
X011948Y023848D01*
X012103Y023694D01*
X012305Y023610D01*
X012524Y023610D01*
X012726Y023694D01*
X012881Y023848D01*
X012914Y023930D01*
X012948Y023848D01*
X013103Y023694D01*
X013305Y023610D01*
X013524Y023610D01*
X013726Y023694D01*
X013881Y023848D01*
X013914Y023930D01*
X013948Y023848D01*
X014103Y023694D01*
X014305Y023610D01*
X014524Y023610D01*
X014726Y023694D01*
X014864Y023832D01*
X014864Y023710D01*
X014805Y023710D01*
X014603Y023626D01*
X014448Y023472D01*
X014364Y023269D01*
X014364Y023051D01*
X014448Y022848D01*
X014603Y022694D01*
X014709Y022650D01*
X014637Y022613D01*
X014569Y022564D01*
X014510Y022505D01*
X014461Y022438D01*
X014423Y022363D01*
X014397Y022284D01*
X014384Y022202D01*
X014384Y022200D01*
X014874Y022200D01*
X014874Y022120D01*
X014384Y022120D01*
X014384Y022118D01*
X014397Y022036D01*
X014423Y021957D01*
X014461Y021882D01*
X014510Y021815D01*
X014569Y021756D01*
X014637Y021707D01*
X014709Y021670D01*
X014603Y021626D01*
X014448Y021472D01*
X014364Y021269D01*
X014364Y021051D01*
X014448Y020848D01*
X014603Y020694D01*
X014684Y020660D01*
X014603Y020626D01*
X014448Y020472D01*
X014364Y020269D01*
X014364Y020051D01*
X014448Y019848D01*
X014603Y019694D01*
X014684Y019660D01*
X014603Y019626D01*
X014448Y019472D01*
X014364Y019269D01*
X014364Y019051D01*
X014448Y018848D01*
X014603Y018694D01*
X014684Y018660D01*
X014603Y018626D01*
X014448Y018472D01*
X014364Y018269D01*
X014364Y018051D01*
X014448Y017848D01*
X014603Y017694D01*
X014684Y017660D01*
X014603Y017626D01*
X014448Y017472D01*
X014364Y017269D01*
X014364Y017051D01*
X014448Y016848D01*
X014603Y016694D01*
X014684Y016660D01*
X014603Y016626D01*
X014448Y016472D01*
X014364Y016269D01*
X014364Y016051D01*
X014448Y015848D01*
X014603Y015694D01*
X014684Y015660D01*
X014603Y015626D01*
X014448Y015472D01*
X014391Y015335D01*
X014310Y015417D01*
X014339Y015488D01*
X014339Y015707D01*
X014256Y015909D01*
X014101Y016064D01*
X013899Y016147D01*
X013680Y016147D01*
X013478Y016064D01*
X013454Y016040D01*
X013454Y018280D01*
X013478Y018256D01*
X013680Y018173D01*
X013899Y018173D01*
X014101Y018256D01*
X014256Y018411D01*
X014339Y018613D01*
X014339Y018832D01*
X014256Y019034D01*
X014101Y019189D01*
X014019Y019223D01*
X014101Y019256D01*
X014256Y019411D01*
X014339Y019613D01*
X014339Y019832D01*
X014256Y020034D01*
X014101Y020189D01*
X013899Y020272D01*
X013680Y020272D01*
X013478Y020189D01*
X013323Y020034D01*
X013239Y019832D01*
X013239Y019613D01*
X013269Y019542D01*
X013011Y019283D01*
X012974Y019195D01*
X012974Y017892D01*
X012888Y017928D01*
X012741Y017928D01*
X012606Y017872D01*
X012502Y017769D01*
X012446Y017633D01*
X012446Y017487D01*
X012502Y017351D01*
X012574Y017279D01*
X012574Y013712D01*
X012611Y013624D01*
X012678Y013557D01*
X013374Y012861D01*
X013374Y006412D01*
X013411Y006324D01*
X013478Y006257D01*
X014394Y005341D01*
X014364Y005269D01*
X014364Y005051D01*
X014448Y004848D01*
X014603Y004694D01*
X014684Y004660D01*
X014603Y004626D01*
X014448Y004472D01*
X014364Y004269D01*
X014364Y004051D01*
X014448Y003848D01*
X014603Y003694D01*
X014684Y003660D01*
X014603Y003626D01*
X014448Y003472D01*
X014364Y003269D01*
X014364Y003051D01*
X014448Y002848D01*
X014603Y002694D01*
X014684Y002660D01*
X014603Y002626D01*
X014448Y002472D01*
X014364Y002269D01*
X014364Y002051D01*
X014448Y001848D01*
X014587Y001710D01*
X014470Y001710D01*
X014364Y001605D01*
X014364Y000715D01*
X014470Y000610D01*
X015359Y000610D01*
X015464Y000715D01*
X015464Y000920D01*
X015662Y000920D01*
X015750Y000957D01*
X015818Y001024D01*
X015937Y001143D01*
X015903Y001061D01*
X015903Y000759D01*
X016019Y000479D01*
X016128Y000370D01*
X003701Y000370D01*
X003810Y000479D01*
X003926Y000759D01*
X003926Y001061D01*
X003810Y001341D01*
X003596Y001555D01*
X003316Y001671D01*
X003013Y001671D01*
X002733Y001555D01*
X002624Y001446D01*
X002624Y001464D02*
X002641Y001464D01*
X002624Y001582D02*
X002798Y001582D01*
X002624Y001701D02*
X008596Y001701D01*
X008603Y001694D02*
X008448Y001848D01*
X008364Y002051D01*
X008364Y002269D01*
X008448Y002472D01*
X008603Y002626D01*
X008684Y002660D01*
X008603Y002694D01*
X008448Y002848D01*
X008364Y003051D01*
X008364Y003269D01*
X008448Y003472D01*
X008603Y003626D01*
X008684Y003660D01*
X008603Y003694D01*
X008448Y003848D01*
X008364Y004051D01*
X008364Y004269D01*
X008448Y004472D01*
X008603Y004626D01*
X008684Y004660D01*
X008603Y004694D01*
X008448Y004848D01*
X008364Y005051D01*
X008364Y005269D01*
X008448Y005472D01*
X008603Y005626D01*
X008684Y005660D01*
X008603Y005694D01*
X008448Y005848D01*
X008364Y006051D01*
X008364Y006269D01*
X008448Y006472D01*
X008603Y006626D01*
X008684Y006660D01*
X008603Y006694D01*
X008448Y006848D01*
X008364Y007051D01*
X008364Y007269D01*
X008448Y007472D01*
X008603Y007626D01*
X008709Y007670D01*
X008637Y007707D01*
X008569Y007756D01*
X008510Y007815D01*
X008461Y007882D01*
X008423Y007957D01*
X008397Y008036D01*
X008384Y008118D01*
X008384Y008120D01*
X008874Y008120D01*
X008874Y008200D01*
X008384Y008200D01*
X008384Y008202D01*
X008397Y008284D01*
X008423Y008363D01*
X008461Y008438D01*
X008510Y008505D01*
X008569Y008564D01*
X008637Y008613D01*
X008709Y008650D01*
X008603Y008694D01*
X008448Y008848D01*
X008364Y009051D01*
X008364Y009269D01*
X008448Y009472D01*
X008603Y009626D01*
X008805Y009710D01*
X009024Y009710D01*
X009226Y009626D01*
X009381Y009472D01*
X009464Y009269D01*
X009464Y009051D01*
X009381Y008848D01*
X009226Y008694D01*
X009120Y008650D01*
X009192Y008613D01*
X009260Y008564D01*
X009319Y008505D01*
X009368Y008438D01*
X009406Y008363D01*
X009431Y008284D01*
X009444Y008202D01*
X009444Y008200D01*
X008954Y008200D01*
X008954Y008120D01*
X009444Y008120D01*
X009444Y008118D01*
X009431Y008036D01*
X009406Y007957D01*
X009368Y007882D01*
X009319Y007815D01*
X009260Y007756D01*
X009192Y007707D01*
X009120Y007670D01*
X009226Y007626D01*
X009381Y007472D01*
X009464Y007269D01*
X009464Y007051D01*
X009381Y006848D01*
X009226Y006694D01*
X009144Y006660D01*
X009226Y006626D01*
X009381Y006472D01*
X009464Y006269D01*
X009464Y006051D01*
X009381Y005848D01*
X009226Y005694D01*
X009144Y005660D01*
X009226Y005626D01*
X009381Y005472D01*
X009464Y005269D01*
X009464Y005051D01*
X009381Y004848D01*
X009226Y004694D01*
X009144Y004660D01*
X009226Y004626D01*
X009381Y004472D01*
X009464Y004269D01*
X009464Y004051D01*
X009381Y003848D01*
X009226Y003694D01*
X009144Y003660D01*
X009226Y003626D01*
X009381Y003472D01*
X009464Y003269D01*
X009464Y003051D01*
X009464Y003049D01*
X010974Y004559D01*
X010974Y019761D01*
X009464Y021271D01*
X009464Y021269D01*
X009464Y021051D01*
X009381Y020848D01*
X009226Y020694D01*
X009120Y020650D01*
X009192Y020613D01*
X009260Y020564D01*
X009319Y020505D01*
X009368Y020438D01*
X009406Y020363D01*
X009431Y020284D01*
X009444Y020202D01*
X009444Y020200D01*
X008954Y020200D01*
X008954Y020120D01*
X009444Y020120D01*
X009444Y020118D01*
X009431Y020036D01*
X009406Y019957D01*
X009368Y019882D01*
X009319Y019815D01*
X009260Y019756D01*
X009192Y019707D01*
X009120Y019670D01*
X009226Y019626D01*
X009381Y019472D01*
X009464Y019269D01*
X009464Y019051D01*
X009381Y018848D01*
X009226Y018694D01*
X009144Y018660D01*
X009226Y018626D01*
X009381Y018472D01*
X009464Y018269D01*
X009464Y018051D01*
X009381Y017848D01*
X009226Y017694D01*
X009144Y017660D01*
X009226Y017626D01*
X009381Y017472D01*
X009464Y017269D01*
X009464Y017051D01*
X009381Y016848D01*
X009226Y016694D01*
X009144Y016660D01*
X009226Y016626D01*
X009381Y016472D01*
X009464Y016269D01*
X009464Y016051D01*
X009381Y015848D01*
X009226Y015694D01*
X009144Y015660D01*
X009226Y015626D01*
X009381Y015472D01*
X009464Y015269D01*
X009464Y015051D01*
X009381Y014848D01*
X009226Y014694D01*
X009144Y014660D01*
X009226Y014626D01*
X009381Y014472D01*
X009464Y014269D01*
X009464Y014051D01*
X009381Y013848D01*
X009226Y013694D01*
X009144Y013660D01*
X009226Y013626D01*
X009381Y013472D01*
X009464Y013269D01*
X009464Y013051D01*
X009381Y012848D01*
X009226Y012694D01*
X009144Y012660D01*
X009226Y012626D01*
X009381Y012472D01*
X009464Y012269D01*
X009464Y012051D01*
X009381Y011848D01*
X009226Y011694D01*
X009024Y011610D01*
X008805Y011610D01*
X008603Y011694D01*
X008448Y011848D01*
X008418Y011920D01*
X002967Y011920D01*
X002878Y011957D01*
X002811Y012024D01*
X002774Y012112D01*
X002774Y024619D01*
X002811Y024707D01*
X002878Y024775D01*
X002967Y024811D01*
X005158Y024811D01*
X005177Y024857D01*
X005319Y024999D01*
X005505Y025076D01*
X005706Y025076D01*
X005891Y024999D01*
X006033Y024857D01*
X006110Y024672D01*
X006110Y024471D01*
X006033Y024285D01*
X006028Y024280D01*
X006280Y024280D01*
X006295Y024318D01*
X006437Y024460D01*
X006623Y024537D01*
X006824Y024537D01*
X007009Y024460D01*
X007151Y024318D01*
X007228Y024132D01*
X007228Y023932D01*
X007151Y023746D01*
X007009Y023604D01*
X006824Y023527D01*
X006623Y023527D01*
X006437Y023604D01*
X006295Y023746D01*
X006273Y023800D01*
X005981Y023800D01*
X006020Y023747D01*
X006055Y023679D01*
X006078Y023606D01*
X006089Y023541D01*
X005654Y023541D01*
X005654Y023444D01*
X006089Y023444D01*
X006078Y023379D01*
X006055Y023307D01*
X006020Y023239D01*
X005975Y023177D01*
X005921Y023123D01*
X005859Y023078D01*
X005791Y023043D01*
X005719Y023020D01*
X005654Y023009D01*
X005654Y023444D01*
X005557Y023444D01*
X005557Y023009D01*
X005492Y023020D01*
X005419Y023043D01*
X005351Y023078D01*
X005289Y023123D01*
X005236Y023177D01*
X005191Y023239D01*
X005156Y023307D01*
X005132Y023379D01*
X005122Y023444D01*
X005557Y023444D01*
X005557Y023541D01*
X005122Y023541D01*
X005132Y023606D01*
X005156Y023679D01*
X005191Y023747D01*
X005229Y023800D01*
X003554Y023800D01*
X003554Y013400D01*
X008418Y013400D01*
X008448Y013472D01*
X008603Y013626D01*
X008684Y013660D01*
X008603Y013694D01*
X008448Y013848D01*
X008418Y013920D01*
X008267Y013920D01*
X008178Y013957D01*
X008111Y014024D01*
X008074Y014112D01*
X008074Y021667D01*
X008026Y021551D01*
X007954Y021479D01*
X007954Y018591D01*
X007918Y018502D01*
X007850Y018435D01*
X007762Y018398D01*
X007170Y018398D01*
X007151Y018352D01*
X007009Y018210D01*
X006824Y018134D01*
X006623Y018134D01*
X006437Y018210D01*
X006295Y018352D01*
X006219Y018538D01*
X006219Y018739D01*
X006295Y018924D01*
X006437Y019066D01*
X006623Y019143D01*
X006824Y019143D01*
X007009Y019066D01*
X007151Y018924D01*
X007170Y018878D01*
X007474Y018878D01*
X007474Y021479D01*
X007402Y021551D01*
X007346Y021687D01*
X007346Y021833D01*
X007402Y021969D01*
X007506Y022072D01*
X007641Y022128D01*
X007788Y022128D01*
X007923Y022072D01*
X008026Y021969D01*
X008074Y021853D01*
X008074Y022713D01*
X007170Y022713D01*
X007151Y022667D01*
X007009Y022525D01*
X006824Y022449D01*
X006623Y022449D01*
X006437Y022525D01*
X006295Y022667D01*
X006219Y022853D01*
X006219Y023054D01*
X006295Y023239D01*
X006437Y023381D01*
X006623Y023458D01*
X006824Y023458D01*
X007009Y023381D01*
X007151Y023239D01*
X007170Y023193D01*
X008362Y023193D01*
X008364Y023192D01*
X008364Y023269D01*
X008448Y023472D01*
X008603Y023626D01*
X008805Y023710D01*
X009024Y023710D01*
X009226Y023626D01*
X009381Y023472D01*
X009464Y023269D01*
X009464Y023051D01*
X009435Y022979D01*
X011818Y020596D01*
X011854Y020508D01*
X011854Y003812D01*
X011818Y003724D01*
X011750Y003657D01*
X011750Y003657D01*
X009435Y001341D01*
X009464Y001269D01*
X009464Y001051D01*
X009381Y000848D01*
X009226Y000694D01*
X009024Y000610D01*
X008805Y000610D01*
X008603Y000694D01*
X008448Y000848D01*
X008364Y001051D01*
X008364Y001269D01*
X008448Y001472D01*
X008603Y001626D01*
X008684Y001660D01*
X008603Y001694D01*
X008559Y001582D02*
X003531Y001582D01*
X003687Y001464D02*
X008445Y001464D01*
X008396Y001345D02*
X003806Y001345D01*
X003857Y001227D02*
X008364Y001227D01*
X008364Y001108D02*
X003906Y001108D01*
X003926Y000990D02*
X008390Y000990D01*
X008439Y000871D02*
X003926Y000871D01*
X003923Y000753D02*
X008544Y000753D01*
X008747Y000634D02*
X003874Y000634D01*
X003825Y000516D02*
X016004Y000516D01*
X015955Y000634D02*
X015383Y000634D01*
X015464Y000753D02*
X015906Y000753D01*
X015903Y000871D02*
X015464Y000871D01*
X015614Y001160D02*
X015814Y001360D01*
X015814Y010460D01*
X017014Y011660D01*
X017014Y015760D01*
X016614Y016160D01*
X014914Y016160D01*
X015339Y016513D02*
X016290Y016513D01*
X016414Y016860D02*
X015214Y016860D01*
X014914Y017160D01*
X014547Y016750D02*
X013454Y016750D01*
X013454Y016632D02*
X014616Y016632D01*
X014490Y016513D02*
X013454Y016513D01*
X013454Y016395D02*
X014416Y016395D01*
X014367Y016276D02*
X013454Y016276D01*
X013454Y016158D02*
X014364Y016158D01*
X014369Y016039D02*
X014126Y016039D01*
X014244Y015921D02*
X014418Y015921D01*
X014495Y015802D02*
X014300Y015802D01*
X014339Y015684D02*
X014627Y015684D01*
X014542Y015565D02*
X014339Y015565D01*
X014322Y015447D02*
X014438Y015447D01*
X014414Y014973D02*
X013789Y015598D01*
X013789Y014598D02*
X014214Y014173D01*
X014214Y011560D01*
X014414Y011360D01*
X014414Y007660D01*
X014914Y007160D01*
X014914Y006160D02*
X013914Y007160D01*
X013914Y013160D01*
X013214Y013860D01*
X013214Y019148D01*
X013789Y019723D01*
X013476Y020187D02*
X011854Y020187D01*
X011854Y020305D02*
X014379Y020305D01*
X014364Y020187D02*
X014103Y020187D01*
X014222Y020068D02*
X014364Y020068D01*
X014406Y019950D02*
X014291Y019950D01*
X014339Y019831D02*
X014466Y019831D01*
X014584Y019713D02*
X014339Y019713D01*
X014331Y019594D02*
X014571Y019594D01*
X014452Y019476D02*
X014282Y019476D01*
X014202Y019357D02*
X014401Y019357D01*
X014364Y019239D02*
X014058Y019239D01*
X014170Y019120D02*
X014364Y019120D01*
X014385Y019002D02*
X014269Y019002D01*
X014318Y018883D02*
X014434Y018883D01*
X014339Y018765D02*
X014532Y018765D01*
X014651Y018646D02*
X014339Y018646D01*
X014304Y018528D02*
X014504Y018528D01*
X014422Y018409D02*
X014254Y018409D01*
X014135Y018291D02*
X014373Y018291D01*
X014364Y018172D02*
X013454Y018172D01*
X013454Y018054D02*
X014364Y018054D01*
X014412Y017935D02*
X013454Y017935D01*
X013454Y017817D02*
X014480Y017817D01*
X014599Y017698D02*
X013454Y017698D01*
X013454Y017580D02*
X014556Y017580D01*
X014444Y017461D02*
X013454Y017461D01*
X013454Y017343D02*
X014395Y017343D01*
X014364Y017224D02*
X013454Y017224D01*
X013454Y017106D02*
X014364Y017106D01*
X014391Y016987D02*
X013454Y016987D01*
X013454Y016869D02*
X014440Y016869D01*
X015273Y017580D02*
X015546Y017580D01*
X015557Y017461D02*
X015385Y017461D01*
X015434Y017343D02*
X015611Y017343D01*
X015464Y017224D02*
X015764Y017224D01*
X015464Y017106D02*
X016139Y017106D01*
X016065Y017224D02*
X016331Y017224D01*
X016217Y017343D02*
X017204Y017343D01*
X017204Y017461D02*
X016272Y017461D01*
X016282Y017580D02*
X017204Y017580D01*
X017204Y017698D02*
X016256Y017698D01*
X016178Y017817D02*
X017204Y017817D01*
X017204Y017935D02*
X016154Y017935D01*
X016154Y018054D02*
X017204Y018054D01*
X017204Y018172D02*
X016154Y018172D01*
X016120Y018291D02*
X017204Y018291D01*
X017204Y018409D02*
X016005Y018409D01*
X015886Y018528D02*
X017204Y018528D01*
X017204Y018646D02*
X015768Y018646D01*
X015649Y018765D02*
X017204Y018765D01*
X017204Y018883D02*
X015531Y018883D01*
X015444Y019002D02*
X017204Y019002D01*
X017204Y019120D02*
X015464Y019120D01*
X015464Y019239D02*
X017204Y019239D01*
X017204Y019357D02*
X015428Y019357D01*
X015377Y019476D02*
X017204Y019476D01*
X017204Y019594D02*
X015258Y019594D01*
X015245Y019713D02*
X017204Y019713D01*
X017204Y019831D02*
X015363Y019831D01*
X015423Y019950D02*
X017204Y019950D01*
X017204Y020068D02*
X015464Y020068D01*
X015464Y020187D02*
X017204Y020187D01*
X017204Y020305D02*
X015450Y020305D01*
X015401Y020424D02*
X017204Y020424D01*
X017204Y020542D02*
X015310Y020542D01*
X015146Y020661D02*
X017204Y020661D01*
X017204Y020779D02*
X015311Y020779D01*
X015401Y020898D02*
X017204Y020898D01*
X017204Y021016D02*
X015450Y021016D01*
X015464Y021135D02*
X017204Y021135D01*
X017204Y021253D02*
X015464Y021253D01*
X015422Y021372D02*
X017204Y021372D01*
X017204Y021490D02*
X015362Y021490D01*
X015244Y021609D02*
X017204Y021609D01*
X017204Y021727D02*
X015220Y021727D01*
X015341Y021846D02*
X017204Y021846D01*
X017204Y021964D02*
X015408Y021964D01*
X015439Y022083D02*
X017204Y022083D01*
X017204Y022201D02*
X015444Y022201D01*
X015420Y022320D02*
X017204Y022320D01*
X017204Y022438D02*
X015367Y022438D01*
X015267Y022557D02*
X017204Y022557D01*
X017204Y022675D02*
X015181Y022675D01*
X015326Y022794D02*
X017204Y022794D01*
X017204Y022912D02*
X015407Y022912D01*
X015456Y023031D02*
X017204Y023031D01*
X017204Y023149D02*
X015464Y023149D01*
X015464Y023268D02*
X017204Y023268D01*
X017204Y023386D02*
X015464Y023386D01*
X015464Y023505D02*
X017204Y023505D01*
X017204Y023623D02*
X015464Y023623D01*
X015464Y023742D02*
X017204Y023742D01*
X017204Y023860D02*
X015464Y023860D01*
X015464Y023979D02*
X017204Y023979D01*
X017204Y024097D02*
X015464Y024097D01*
X015464Y024216D02*
X016352Y024216D01*
X016164Y024334D02*
X015464Y024334D01*
X015464Y024453D02*
X016045Y024453D01*
X015981Y024571D02*
X015464Y024571D01*
X015464Y024690D02*
X015932Y024690D01*
X015903Y024808D02*
X015464Y024808D01*
X015464Y024927D02*
X015903Y024927D01*
X015903Y025045D02*
X015464Y025045D01*
X015464Y025164D02*
X015945Y025164D01*
X015995Y025282D02*
X015464Y025282D01*
X015464Y025401D02*
X016078Y025401D01*
X016197Y025519D02*
X015444Y025519D01*
X015361Y025638D02*
X016432Y025638D01*
X016897Y025638D02*
X017204Y025638D01*
X017204Y025756D02*
X010464Y025756D01*
X010464Y025875D02*
X017204Y025875D01*
X017204Y025993D02*
X010464Y025993D01*
X010464Y026112D02*
X017204Y026112D01*
X017204Y026230D02*
X010464Y026230D01*
X010464Y026349D02*
X017204Y026349D01*
X017204Y026467D02*
X010464Y026467D01*
X010464Y026586D02*
X017204Y026586D01*
X017204Y026704D02*
X010486Y026704D01*
X010605Y026823D02*
X017204Y026823D01*
X017204Y026941D02*
X010669Y026941D01*
X010714Y027060D02*
X017204Y027060D01*
X017204Y027178D02*
X014556Y027178D01*
X014589Y027195D02*
X014658Y027245D01*
X014719Y027306D01*
X014769Y027375D01*
X014808Y027451D01*
X014835Y027533D01*
X014845Y027600D01*
X014364Y027600D01*
X014364Y027119D01*
X014431Y027130D01*
X014513Y027156D01*
X014589Y027195D01*
X014710Y027297D02*
X017204Y027297D01*
X017204Y027415D02*
X014790Y027415D01*
X014835Y027534D02*
X017204Y027534D01*
X017204Y027652D02*
X014364Y027652D01*
X014364Y027600D02*
X014364Y027720D01*
X014244Y027720D01*
X014244Y027600D01*
X013763Y027600D01*
X013774Y027533D01*
X013800Y027451D01*
X013839Y027375D01*
X013889Y027306D01*
X013950Y027245D01*
X014019Y027195D01*
X014095Y027156D01*
X014177Y027130D01*
X014244Y027119D01*
X014244Y027600D01*
X014364Y027600D01*
X014364Y027534D02*
X014244Y027534D01*
X014244Y027652D02*
X012585Y027652D01*
X012585Y027771D02*
X013771Y027771D01*
X013774Y027787D02*
X013763Y027720D01*
X014244Y027720D01*
X014244Y028201D01*
X014177Y028190D01*
X014095Y028164D01*
X014019Y028125D01*
X013950Y028075D01*
X013889Y028014D01*
X013839Y027945D01*
X013800Y027869D01*
X013774Y027787D01*
X013810Y027889D02*
X012536Y027889D01*
X012471Y028008D02*
X013884Y028008D01*
X014021Y028126D02*
X012352Y028126D01*
X011860Y028245D02*
X017204Y028245D01*
X017204Y028363D02*
X011742Y028363D01*
X011457Y027771D02*
X010553Y027771D01*
X010414Y027652D02*
X011457Y027652D01*
X011463Y027534D02*
X010569Y027534D01*
X010654Y027415D02*
X011512Y027415D01*
X011587Y027297D02*
X010703Y027297D01*
X010714Y027178D02*
X011711Y027178D01*
X012331Y027178D02*
X014052Y027178D01*
X014244Y027178D02*
X014364Y027178D01*
X014364Y027297D02*
X014244Y027297D01*
X014244Y027415D02*
X014364Y027415D01*
X014364Y027720D02*
X014845Y027720D01*
X014835Y027787D01*
X014808Y027869D01*
X014769Y027945D01*
X014719Y028014D01*
X014658Y028075D01*
X014589Y028125D01*
X014513Y028164D01*
X014431Y028190D01*
X014364Y028201D01*
X014364Y027720D01*
X014364Y027771D02*
X014244Y027771D01*
X014244Y027889D02*
X014364Y027889D01*
X014364Y028008D02*
X014244Y028008D01*
X014244Y028126D02*
X014364Y028126D01*
X014587Y028126D02*
X017204Y028126D01*
X017204Y028008D02*
X014724Y028008D01*
X014798Y027889D02*
X017204Y027889D01*
X017204Y027771D02*
X014837Y027771D01*
X013898Y027297D02*
X012455Y027297D01*
X012530Y027415D02*
X013819Y027415D01*
X013774Y027534D02*
X012579Y027534D01*
X012937Y029074D02*
X007004Y029074D01*
X007004Y029136D02*
X006876Y029445D01*
X006640Y029681D01*
X006331Y029809D01*
X005997Y029809D01*
X005689Y029681D01*
X005452Y029445D01*
X005324Y029136D01*
X005324Y028802D01*
X005452Y028493D01*
X005689Y028257D01*
X005997Y028129D01*
X006331Y028129D01*
X006640Y028257D01*
X006876Y028493D01*
X007004Y028802D01*
X007004Y029136D01*
X006981Y029193D02*
X012790Y029193D01*
X012713Y029311D02*
X006932Y029311D01*
X006883Y029430D02*
X012670Y029430D01*
X012670Y029667D02*
X006655Y029667D01*
X006773Y029548D02*
X013142Y029548D01*
X013142Y029430D02*
X013262Y029430D01*
X013262Y029490D02*
X013262Y029009D01*
X013329Y029019D01*
X013411Y029046D01*
X013487Y029085D01*
X013556Y029135D01*
X013617Y029195D01*
X013667Y029265D01*
X013706Y029341D01*
X013732Y029422D01*
X013743Y029490D01*
X013262Y029490D01*
X013262Y029548D02*
X017204Y029548D01*
X017204Y029430D02*
X013733Y029430D01*
X013691Y029311D02*
X017204Y029311D01*
X017204Y029193D02*
X013614Y029193D01*
X013466Y029074D02*
X017204Y029074D01*
X017204Y028956D02*
X007004Y028956D01*
X007004Y028837D02*
X017204Y028837D01*
X017204Y028719D02*
X006970Y028719D01*
X006921Y028600D02*
X008827Y028600D01*
X008708Y028482D02*
X006865Y028482D01*
X006746Y028363D02*
X008653Y028363D01*
X008614Y028245D02*
X006610Y028245D01*
X006389Y029785D02*
X012711Y029785D01*
X012787Y029904D02*
X002624Y029904D01*
X002624Y029785D02*
X005940Y029785D01*
X005674Y029667D02*
X002624Y029667D01*
X002624Y029548D02*
X005556Y029548D01*
X005446Y029430D02*
X002624Y029430D01*
X002624Y029311D02*
X005397Y029311D01*
X005348Y029193D02*
X002624Y029193D01*
X002624Y029074D02*
X005324Y029074D01*
X005324Y028956D02*
X002624Y028956D01*
X002624Y028837D02*
X005324Y028837D01*
X005359Y028719D02*
X002624Y028719D01*
X002624Y028600D02*
X005408Y028600D01*
X005464Y028482D02*
X002624Y028482D01*
X002624Y028363D02*
X005583Y028363D01*
X005719Y028245D02*
X002624Y028245D01*
X002624Y028126D02*
X008614Y028126D01*
X008632Y028008D02*
X002624Y028008D01*
X002624Y027889D02*
X008681Y027889D01*
X008776Y027771D02*
X002624Y027771D01*
X002624Y027652D02*
X008915Y027652D01*
X008760Y027534D02*
X002624Y027534D01*
X002624Y027415D02*
X008675Y027415D01*
X008626Y027297D02*
X002624Y027297D01*
X002624Y027178D02*
X008614Y027178D01*
X008614Y027060D02*
X002624Y027060D01*
X002624Y026941D02*
X008660Y026941D01*
X008724Y026823D02*
X002624Y026823D01*
X002624Y026704D02*
X008842Y026704D01*
X009486Y026704D02*
X009842Y026704D01*
X009864Y026586D02*
X007041Y026586D01*
X007009Y026617D02*
X006824Y026694D01*
X006623Y026694D01*
X006437Y026617D01*
X006295Y026475D01*
X006219Y026290D01*
X006219Y026089D01*
X006295Y025904D01*
X006437Y025762D01*
X006623Y025685D01*
X006824Y025685D01*
X007009Y025762D01*
X007151Y025904D01*
X007228Y026089D01*
X007228Y026290D01*
X007151Y026475D01*
X007009Y026617D01*
X007155Y026467D02*
X009864Y026467D01*
X009864Y026349D02*
X007204Y026349D01*
X007228Y026230D02*
X009864Y026230D01*
X009864Y026112D02*
X007228Y026112D01*
X007188Y025993D02*
X009864Y025993D01*
X009864Y025875D02*
X007122Y025875D01*
X006996Y025756D02*
X009864Y025756D01*
X009864Y025638D02*
X005654Y025638D01*
X005654Y025626D02*
X005654Y025722D01*
X006089Y025722D01*
X006078Y025787D01*
X006055Y025860D01*
X006020Y025928D01*
X005975Y025990D01*
X005921Y026044D01*
X005859Y026088D01*
X005791Y026123D01*
X005719Y026147D01*
X005654Y026157D01*
X005654Y025722D01*
X005557Y025722D01*
X005557Y025626D01*
X005122Y025626D01*
X005132Y025560D01*
X005156Y025488D01*
X005191Y025420D01*
X005236Y025358D01*
X005289Y025304D01*
X005351Y025259D01*
X005419Y025224D01*
X005492Y025201D01*
X005557Y025191D01*
X005557Y025626D01*
X005654Y025626D01*
X006089Y025626D01*
X006078Y025560D01*
X006055Y025488D01*
X006020Y025420D01*
X005975Y025358D01*
X005921Y025304D01*
X005859Y025259D01*
X005791Y025224D01*
X005719Y025201D01*
X005654Y025191D01*
X005654Y025626D01*
X005557Y025638D02*
X002624Y025638D01*
X002624Y025756D02*
X005128Y025756D01*
X005132Y025787D02*
X005122Y025722D01*
X005557Y025722D01*
X005557Y026157D01*
X005492Y026147D01*
X005419Y026123D01*
X005351Y026088D01*
X005289Y026044D01*
X005236Y025990D01*
X005191Y025928D01*
X005156Y025860D01*
X005132Y025787D01*
X005164Y025875D02*
X002624Y025875D01*
X002624Y025993D02*
X005239Y025993D01*
X005397Y026112D02*
X002624Y026112D01*
X002624Y026230D02*
X006219Y026230D01*
X006219Y026112D02*
X005814Y026112D01*
X005654Y026112D02*
X005557Y026112D01*
X005557Y025993D02*
X005654Y025993D01*
X005654Y025875D02*
X005557Y025875D01*
X005557Y025756D02*
X005654Y025756D01*
X005654Y025519D02*
X005557Y025519D01*
X005557Y025401D02*
X005654Y025401D01*
X005654Y025282D02*
X005557Y025282D01*
X005430Y025045D02*
X002624Y025045D01*
X002624Y024927D02*
X005247Y024927D01*
X005320Y025282D02*
X002624Y025282D01*
X002624Y025164D02*
X006241Y025164D01*
X006240Y025159D02*
X006675Y025159D01*
X006675Y025063D01*
X006240Y025063D01*
X006251Y024997D01*
X006274Y024925D01*
X006309Y024857D01*
X006354Y024795D01*
X006408Y024741D01*
X006469Y024696D01*
X006537Y024662D01*
X006610Y024638D01*
X006675Y024628D01*
X006675Y025063D01*
X006772Y025063D01*
X006772Y025159D01*
X007207Y025159D01*
X007196Y025224D01*
X007173Y025297D01*
X007138Y025365D01*
X007093Y025427D01*
X007039Y025481D01*
X006978Y025525D01*
X006910Y025560D01*
X006837Y025584D01*
X006772Y025594D01*
X006772Y025159D01*
X006675Y025159D01*
X006675Y025594D01*
X006610Y025584D01*
X006537Y025560D01*
X006469Y025525D01*
X006408Y025481D01*
X006354Y025427D01*
X006309Y025365D01*
X006274Y025297D01*
X006251Y025224D01*
X006240Y025159D01*
X006243Y025045D02*
X005781Y025045D01*
X005964Y024927D02*
X006274Y024927D01*
X006344Y024808D02*
X006054Y024808D01*
X006103Y024690D02*
X006482Y024690D01*
X006675Y024690D02*
X006772Y024690D01*
X006772Y024628D02*
X006837Y024638D01*
X006910Y024662D01*
X006978Y024696D01*
X007039Y024741D01*
X007093Y024795D01*
X007138Y024857D01*
X007173Y024925D01*
X007196Y024997D01*
X007207Y025063D01*
X006772Y025063D01*
X006772Y024628D01*
X006772Y024808D02*
X006675Y024808D01*
X006675Y024927D02*
X006772Y024927D01*
X006772Y025045D02*
X006675Y025045D01*
X006675Y025164D02*
X006772Y025164D01*
X006772Y025282D02*
X006675Y025282D01*
X006675Y025401D02*
X006772Y025401D01*
X006772Y025519D02*
X006675Y025519D01*
X006461Y025519D02*
X006065Y025519D01*
X006006Y025401D02*
X006335Y025401D01*
X006269Y025282D02*
X005891Y025282D01*
X006083Y025756D02*
X006451Y025756D01*
X006324Y025875D02*
X006047Y025875D01*
X005972Y025993D02*
X006258Y025993D01*
X006243Y026349D02*
X002624Y026349D01*
X002624Y026467D02*
X006292Y026467D01*
X006406Y026586D02*
X002624Y026586D01*
X002624Y025519D02*
X005146Y025519D01*
X005205Y025401D02*
X002624Y025401D01*
X002624Y024808D02*
X002959Y024808D01*
X002804Y024690D02*
X002624Y024690D01*
X002624Y024571D02*
X002774Y024571D01*
X002774Y024453D02*
X002624Y024453D01*
X002624Y024334D02*
X002774Y024334D01*
X002774Y024216D02*
X002624Y024216D01*
X002624Y024097D02*
X002774Y024097D01*
X002774Y023979D02*
X002624Y023979D01*
X002624Y023860D02*
X002774Y023860D01*
X002774Y023742D02*
X002624Y023742D01*
X002624Y023623D02*
X002774Y023623D01*
X002774Y023505D02*
X002624Y023505D01*
X002624Y023386D02*
X002774Y023386D01*
X002774Y023268D02*
X002624Y023268D01*
X002624Y023149D02*
X002774Y023149D01*
X002774Y023031D02*
X002624Y023031D01*
X002624Y022912D02*
X002774Y022912D01*
X002774Y022794D02*
X002624Y022794D01*
X002624Y022675D02*
X002774Y022675D01*
X002774Y022557D02*
X002624Y022557D01*
X002624Y022438D02*
X002774Y022438D01*
X002774Y022320D02*
X002624Y022320D01*
X002624Y022201D02*
X002774Y022201D01*
X002774Y022083D02*
X002624Y022083D01*
X002624Y021964D02*
X002774Y021964D01*
X002774Y021846D02*
X002624Y021846D01*
X002624Y021727D02*
X002774Y021727D01*
X002774Y021609D02*
X002624Y021609D01*
X002624Y021490D02*
X002774Y021490D01*
X002774Y021372D02*
X002624Y021372D01*
X002624Y021253D02*
X002774Y021253D01*
X002774Y021135D02*
X002624Y021135D01*
X002624Y021016D02*
X002774Y021016D01*
X002774Y020898D02*
X002624Y020898D01*
X002624Y020779D02*
X002774Y020779D01*
X002774Y020661D02*
X002624Y020661D01*
X002624Y020542D02*
X002774Y020542D01*
X002774Y020424D02*
X002624Y020424D01*
X002624Y020305D02*
X002774Y020305D01*
X002774Y020187D02*
X002624Y020187D01*
X002624Y020068D02*
X002774Y020068D01*
X002774Y019950D02*
X002624Y019950D01*
X002624Y019831D02*
X002774Y019831D01*
X002774Y019713D02*
X002624Y019713D01*
X002624Y019594D02*
X002774Y019594D01*
X002774Y019476D02*
X002624Y019476D01*
X002624Y019357D02*
X002774Y019357D01*
X002774Y019239D02*
X002624Y019239D01*
X002624Y019120D02*
X002774Y019120D01*
X002774Y019002D02*
X002624Y019002D01*
X002624Y018883D02*
X002774Y018883D01*
X002774Y018765D02*
X002624Y018765D01*
X002624Y018646D02*
X002774Y018646D01*
X002774Y018528D02*
X002624Y018528D01*
X002624Y018409D02*
X002774Y018409D01*
X002774Y018291D02*
X002624Y018291D01*
X002624Y018172D02*
X002774Y018172D01*
X002774Y018054D02*
X002624Y018054D01*
X002624Y017935D02*
X002774Y017935D01*
X002774Y017817D02*
X002624Y017817D01*
X002624Y017698D02*
X002774Y017698D01*
X002774Y017580D02*
X002624Y017580D01*
X002624Y017461D02*
X002774Y017461D01*
X002774Y017343D02*
X002624Y017343D01*
X002624Y017224D02*
X002774Y017224D01*
X002774Y017106D02*
X002624Y017106D01*
X002624Y016987D02*
X002774Y016987D01*
X002774Y016869D02*
X002624Y016869D01*
X002624Y016750D02*
X002774Y016750D01*
X002774Y016632D02*
X002624Y016632D01*
X002624Y016513D02*
X002774Y016513D01*
X002774Y016395D02*
X002624Y016395D01*
X002624Y016276D02*
X002774Y016276D01*
X002774Y016158D02*
X002624Y016158D01*
X002624Y016039D02*
X002774Y016039D01*
X002774Y015921D02*
X002624Y015921D01*
X002624Y015802D02*
X002774Y015802D01*
X002774Y015684D02*
X002624Y015684D01*
X002624Y015565D02*
X002774Y015565D01*
X002774Y015447D02*
X002624Y015447D01*
X002624Y015328D02*
X002774Y015328D01*
X002774Y015210D02*
X002624Y015210D01*
X002624Y015091D02*
X002774Y015091D01*
X002774Y014973D02*
X002624Y014973D01*
X002624Y014854D02*
X002774Y014854D01*
X002774Y014736D02*
X002624Y014736D01*
X002624Y014617D02*
X002774Y014617D01*
X002774Y014499D02*
X002624Y014499D01*
X002624Y014380D02*
X002774Y014380D01*
X002774Y014262D02*
X002624Y014262D01*
X002624Y014143D02*
X002774Y014143D01*
X002774Y014025D02*
X002624Y014025D01*
X002624Y013906D02*
X002774Y013906D01*
X002774Y013788D02*
X002624Y013788D01*
X002624Y013669D02*
X002774Y013669D01*
X002774Y013551D02*
X002624Y013551D01*
X002624Y013432D02*
X002774Y013432D01*
X002774Y013314D02*
X002624Y013314D01*
X002624Y013195D02*
X002774Y013195D01*
X002774Y013077D02*
X002624Y013077D01*
X002624Y012958D02*
X002774Y012958D01*
X002774Y012840D02*
X002624Y012840D01*
X002624Y012721D02*
X002774Y012721D01*
X002774Y012603D02*
X002624Y012603D01*
X002624Y012484D02*
X002774Y012484D01*
X002774Y012366D02*
X002624Y012366D01*
X002624Y012247D02*
X002774Y012247D01*
X002774Y012129D02*
X002624Y012129D01*
X002624Y012010D02*
X002825Y012010D01*
X002624Y011892D02*
X008430Y011892D01*
X008524Y011773D02*
X002624Y011773D01*
X002624Y011655D02*
X008697Y011655D01*
X008914Y012160D02*
X003014Y012160D01*
X003014Y024571D01*
X005605Y024571D01*
X006053Y024334D02*
X006312Y024334D01*
X006430Y024453D02*
X006102Y024453D01*
X006110Y024571D02*
X009048Y024571D01*
X008940Y024453D02*
X007017Y024453D01*
X007135Y024334D02*
X008891Y024334D01*
X008864Y024216D02*
X007194Y024216D01*
X007228Y024097D02*
X008864Y024097D01*
X008894Y023979D02*
X007228Y023979D01*
X007199Y023860D02*
X008943Y023860D01*
X009055Y023742D02*
X007147Y023742D01*
X007028Y023623D02*
X008600Y023623D01*
X008481Y023505D02*
X005654Y023505D01*
X005557Y023505D02*
X003554Y023505D01*
X003554Y023623D02*
X005138Y023623D01*
X005188Y023742D02*
X003554Y023742D01*
X003554Y023386D02*
X005131Y023386D01*
X005176Y023268D02*
X003554Y023268D01*
X003554Y023149D02*
X005263Y023149D01*
X005459Y023031D02*
X003554Y023031D01*
X003554Y022912D02*
X005489Y022912D01*
X005505Y022919D02*
X005319Y022842D01*
X005177Y022700D01*
X005101Y022514D01*
X005101Y022314D01*
X005177Y022128D01*
X005319Y021986D01*
X005505Y021909D01*
X005706Y021909D01*
X005891Y021986D01*
X006033Y022128D01*
X006110Y022314D01*
X006110Y022514D01*
X006033Y022700D01*
X005891Y022842D01*
X005706Y022919D01*
X005505Y022919D01*
X005557Y023031D02*
X005654Y023031D01*
X005752Y023031D02*
X006219Y023031D01*
X006219Y022912D02*
X005722Y022912D01*
X005654Y023149D02*
X005557Y023149D01*
X005557Y023268D02*
X005654Y023268D01*
X005654Y023386D02*
X005557Y023386D01*
X005947Y023149D02*
X006258Y023149D01*
X006324Y023268D02*
X006035Y023268D01*
X006079Y023386D02*
X006449Y023386D01*
X006419Y023623D02*
X006073Y023623D01*
X006023Y023742D02*
X006300Y023742D01*
X006723Y024032D02*
X006723Y024040D01*
X003314Y024040D01*
X003314Y013160D01*
X008914Y013160D01*
X008527Y013551D02*
X003554Y013551D01*
X003554Y013669D02*
X008662Y013669D01*
X008509Y013788D02*
X003554Y013788D01*
X003554Y013906D02*
X008424Y013906D01*
X008314Y014160D02*
X008914Y014160D01*
X009166Y013669D02*
X010974Y013669D01*
X010974Y013551D02*
X009302Y013551D01*
X009397Y013432D02*
X010974Y013432D01*
X010974Y013314D02*
X009446Y013314D01*
X009464Y013195D02*
X010974Y013195D01*
X010974Y013077D02*
X009464Y013077D01*
X009426Y012958D02*
X010974Y012958D01*
X010974Y012840D02*
X009372Y012840D01*
X009253Y012721D02*
X010974Y012721D01*
X010974Y012603D02*
X009250Y012603D01*
X009368Y012484D02*
X010974Y012484D01*
X010974Y012366D02*
X009425Y012366D01*
X009464Y012247D02*
X010974Y012247D01*
X010974Y012129D02*
X009464Y012129D01*
X009448Y012010D02*
X010974Y012010D01*
X010974Y011892D02*
X009398Y011892D01*
X009305Y011773D02*
X010974Y011773D01*
X010974Y011655D02*
X009131Y011655D01*
X008432Y013432D02*
X003554Y013432D01*
X003554Y014025D02*
X008111Y014025D01*
X008074Y014143D02*
X003554Y014143D01*
X003554Y014262D02*
X008074Y014262D01*
X008074Y014380D02*
X003554Y014380D01*
X003554Y014499D02*
X008074Y014499D01*
X008074Y014617D02*
X003554Y014617D01*
X003554Y014736D02*
X008074Y014736D01*
X008074Y014854D02*
X003554Y014854D01*
X003554Y014973D02*
X008074Y014973D01*
X008074Y015091D02*
X006525Y015091D01*
X006640Y015139D02*
X006331Y015011D01*
X005997Y015011D01*
X005689Y015139D01*
X005452Y015375D01*
X005324Y015684D01*
X005324Y016018D01*
X005452Y016327D01*
X005689Y016563D01*
X005997Y016691D01*
X006331Y016691D01*
X006640Y016563D01*
X006876Y016327D01*
X007004Y016018D01*
X007004Y015684D01*
X006876Y015375D01*
X006640Y015139D01*
X006711Y015210D02*
X008074Y015210D01*
X008074Y015328D02*
X006829Y015328D01*
X006906Y015447D02*
X008074Y015447D01*
X008074Y015565D02*
X006955Y015565D01*
X007004Y015684D02*
X008074Y015684D01*
X008074Y015802D02*
X007004Y015802D01*
X007004Y015921D02*
X008074Y015921D01*
X008074Y016039D02*
X006996Y016039D01*
X006947Y016158D02*
X008074Y016158D01*
X008074Y016276D02*
X006897Y016276D01*
X006809Y016395D02*
X008074Y016395D01*
X008074Y016513D02*
X006690Y016513D01*
X006475Y016632D02*
X008074Y016632D01*
X008074Y016750D02*
X003554Y016750D01*
X003554Y016632D02*
X005854Y016632D01*
X005639Y016513D02*
X003554Y016513D01*
X003554Y016395D02*
X005520Y016395D01*
X005431Y016276D02*
X003554Y016276D01*
X003554Y016158D02*
X005382Y016158D01*
X005333Y016039D02*
X003554Y016039D01*
X003554Y015921D02*
X005324Y015921D01*
X005324Y015802D02*
X003554Y015802D01*
X003554Y015684D02*
X005325Y015684D01*
X005374Y015565D02*
X003554Y015565D01*
X003554Y015447D02*
X005423Y015447D01*
X005499Y015328D02*
X003554Y015328D01*
X003554Y015210D02*
X005618Y015210D01*
X005804Y015091D02*
X003554Y015091D01*
X003554Y016869D02*
X008074Y016869D01*
X008074Y016987D02*
X003554Y016987D01*
X003554Y017106D02*
X008074Y017106D01*
X008074Y017224D02*
X003554Y017224D01*
X003554Y017343D02*
X008074Y017343D01*
X008074Y017461D02*
X003554Y017461D01*
X003554Y017580D02*
X008074Y017580D01*
X008074Y017698D02*
X003554Y017698D01*
X003554Y017817D02*
X008074Y017817D01*
X008074Y017935D02*
X003554Y017935D01*
X003554Y018054D02*
X008074Y018054D01*
X008074Y018172D02*
X006917Y018172D01*
X007090Y018291D02*
X008074Y018291D01*
X008074Y018409D02*
X007788Y018409D01*
X007928Y018528D02*
X008074Y018528D01*
X008074Y018646D02*
X007954Y018646D01*
X007954Y018765D02*
X008074Y018765D01*
X008074Y018883D02*
X007954Y018883D01*
X007954Y019002D02*
X008074Y019002D01*
X008074Y019120D02*
X007954Y019120D01*
X007954Y019239D02*
X008074Y019239D01*
X008074Y019357D02*
X007954Y019357D01*
X007954Y019476D02*
X008074Y019476D01*
X008074Y019594D02*
X007954Y019594D01*
X007954Y019713D02*
X008074Y019713D01*
X008074Y019831D02*
X007954Y019831D01*
X007954Y019950D02*
X008074Y019950D01*
X008074Y020068D02*
X007954Y020068D01*
X007954Y020187D02*
X008074Y020187D01*
X008074Y020305D02*
X007954Y020305D01*
X007954Y020424D02*
X008074Y020424D01*
X008074Y020542D02*
X007954Y020542D01*
X007954Y020661D02*
X008074Y020661D01*
X008074Y020779D02*
X007954Y020779D01*
X007954Y020898D02*
X008074Y020898D01*
X008074Y021016D02*
X007954Y021016D01*
X007954Y021135D02*
X008074Y021135D01*
X008074Y021253D02*
X007954Y021253D01*
X007954Y021372D02*
X008074Y021372D01*
X008074Y021490D02*
X007965Y021490D01*
X008050Y021609D02*
X008074Y021609D01*
X008074Y021964D02*
X008028Y021964D01*
X008074Y022083D02*
X007898Y022083D01*
X008074Y022201D02*
X007111Y022201D01*
X007151Y022161D02*
X007009Y022303D01*
X006824Y022379D01*
X006623Y022379D01*
X006437Y022303D01*
X006295Y022161D01*
X006219Y021975D01*
X006219Y021774D01*
X006295Y021589D01*
X006437Y021447D01*
X006623Y021370D01*
X006824Y021370D01*
X007009Y021447D01*
X007151Y021589D01*
X007228Y021774D01*
X007228Y021975D01*
X007151Y022161D01*
X007184Y022083D02*
X007531Y022083D01*
X007400Y021964D02*
X007228Y021964D01*
X007228Y021846D02*
X007351Y021846D01*
X007346Y021727D02*
X007209Y021727D01*
X007160Y021609D02*
X007379Y021609D01*
X007464Y021490D02*
X007053Y021490D01*
X006828Y021372D02*
X007474Y021372D01*
X007474Y021253D02*
X006885Y021253D01*
X006910Y021245D02*
X006837Y021269D01*
X006772Y021279D01*
X006772Y020844D01*
X007207Y020844D01*
X007196Y020909D01*
X007173Y020982D01*
X007138Y021050D01*
X007093Y021112D01*
X007039Y021166D01*
X006978Y021210D01*
X006910Y021245D01*
X006772Y021253D02*
X006675Y021253D01*
X006675Y021279D02*
X006610Y021269D01*
X006537Y021245D01*
X006469Y021210D01*
X006408Y021166D01*
X006354Y021112D01*
X006309Y021050D01*
X006274Y020982D01*
X006251Y020909D01*
X006240Y020844D01*
X006675Y020844D01*
X006675Y020748D01*
X006240Y020748D01*
X006251Y020682D01*
X006274Y020610D01*
X006309Y020542D01*
X006354Y020480D01*
X006408Y020426D01*
X006469Y020381D01*
X006537Y020347D01*
X006610Y020323D01*
X006675Y020313D01*
X006675Y020748D01*
X006772Y020748D01*
X006772Y020844D01*
X006675Y020844D01*
X006675Y021279D01*
X006619Y021372D02*
X006110Y021372D01*
X006110Y021436D02*
X006110Y021235D01*
X006033Y021049D01*
X005891Y020907D01*
X005706Y020830D01*
X005505Y020830D01*
X005319Y020907D01*
X005177Y021049D01*
X005101Y021235D01*
X005101Y021436D01*
X005177Y021621D01*
X005319Y021763D01*
X005505Y021840D01*
X005706Y021840D01*
X005891Y021763D01*
X006033Y021621D01*
X006110Y021436D01*
X006088Y021490D02*
X006394Y021490D01*
X006287Y021609D02*
X006038Y021609D01*
X005927Y021727D02*
X006238Y021727D01*
X006219Y021846D02*
X003554Y021846D01*
X003554Y021964D02*
X005372Y021964D01*
X005223Y022083D02*
X003554Y022083D01*
X003554Y022201D02*
X005147Y022201D01*
X005101Y022320D02*
X003554Y022320D01*
X003554Y022438D02*
X005101Y022438D01*
X005118Y022557D02*
X003554Y022557D01*
X003554Y022675D02*
X005167Y022675D01*
X005271Y022794D02*
X003554Y022794D01*
X003554Y021727D02*
X005283Y021727D01*
X005172Y021609D02*
X003554Y021609D01*
X003554Y021490D02*
X005123Y021490D01*
X005101Y021372D02*
X003554Y021372D01*
X003554Y021253D02*
X005101Y021253D01*
X005142Y021135D02*
X003554Y021135D01*
X003554Y021016D02*
X005211Y021016D01*
X005343Y020898D02*
X003554Y020898D01*
X003554Y020779D02*
X006675Y020779D01*
X006772Y020779D02*
X007474Y020779D01*
X007474Y020661D02*
X007189Y020661D01*
X007196Y020682D02*
X007207Y020748D01*
X006772Y020748D01*
X006772Y020313D01*
X006837Y020323D01*
X006910Y020347D01*
X006978Y020381D01*
X007039Y020426D01*
X007093Y020480D01*
X007138Y020542D01*
X007474Y020542D01*
X007474Y020424D02*
X007036Y020424D01*
X007138Y020542D02*
X007173Y020610D01*
X007196Y020682D01*
X007198Y020898D02*
X007474Y020898D01*
X007474Y021016D02*
X007155Y021016D01*
X007070Y021135D02*
X007474Y021135D01*
X007714Y021760D02*
X007714Y018638D01*
X006723Y018638D01*
X006530Y018172D02*
X003554Y018172D01*
X003554Y018291D02*
X006357Y018291D01*
X006272Y018409D02*
X003554Y018409D01*
X003554Y018528D02*
X006223Y018528D01*
X006219Y018646D02*
X003554Y018646D01*
X003554Y018765D02*
X005305Y018765D01*
X005319Y018750D02*
X005505Y018673D01*
X005706Y018673D01*
X005891Y018750D01*
X006033Y018892D01*
X006110Y019077D01*
X006110Y019278D01*
X006033Y019464D01*
X005891Y019606D01*
X005706Y019683D01*
X005505Y019683D01*
X005319Y019606D01*
X005177Y019464D01*
X005101Y019278D01*
X005101Y019077D01*
X005177Y018892D01*
X005319Y018750D01*
X005186Y018883D02*
X003554Y018883D01*
X003554Y019002D02*
X005132Y019002D01*
X005101Y019120D02*
X003554Y019120D01*
X003554Y019239D02*
X005101Y019239D01*
X005133Y019357D02*
X003554Y019357D01*
X003554Y019476D02*
X005189Y019476D01*
X005308Y019594D02*
X003554Y019594D01*
X003554Y019713D02*
X006219Y019713D01*
X006219Y019617D02*
X006295Y019431D01*
X006437Y019289D01*
X006623Y019212D01*
X006824Y019212D01*
X007009Y019289D01*
X007151Y019431D01*
X007228Y019617D01*
X007228Y019817D01*
X007151Y020003D01*
X007009Y020145D01*
X006824Y020222D01*
X006623Y020222D01*
X006437Y020145D01*
X006295Y020003D01*
X006219Y019817D01*
X006219Y019617D01*
X006228Y019594D02*
X005903Y019594D01*
X006021Y019476D02*
X006277Y019476D01*
X006370Y019357D02*
X006077Y019357D01*
X006110Y019239D02*
X006560Y019239D01*
X006567Y019120D02*
X006110Y019120D01*
X006079Y019002D02*
X006373Y019002D01*
X006278Y018883D02*
X006025Y018883D01*
X005906Y018765D02*
X006229Y018765D01*
X006224Y019831D02*
X005838Y019831D01*
X005859Y019842D02*
X005921Y019887D01*
X005975Y019941D01*
X006020Y020002D01*
X006055Y020070D01*
X006078Y020143D01*
X006089Y020208D01*
X005654Y020208D01*
X005654Y020305D01*
X005557Y020305D01*
X005557Y020740D01*
X005492Y020729D01*
X005419Y020706D01*
X005351Y020671D01*
X005289Y020626D01*
X005236Y020572D01*
X005191Y020511D01*
X005156Y020443D01*
X005132Y020370D01*
X005122Y020305D01*
X003554Y020305D01*
X003554Y020187D02*
X005126Y020187D01*
X005122Y020208D02*
X005132Y020143D01*
X005156Y020070D01*
X005191Y020002D01*
X005236Y019941D01*
X005289Y019887D01*
X005351Y019842D01*
X005419Y019807D01*
X005492Y019784D01*
X005557Y019773D01*
X005557Y020208D01*
X005654Y020208D01*
X005654Y019773D01*
X005719Y019784D01*
X005791Y019807D01*
X005859Y019842D01*
X005982Y019950D02*
X006273Y019950D01*
X006360Y020068D02*
X006053Y020068D01*
X006085Y020187D02*
X006538Y020187D01*
X006411Y020424D02*
X006061Y020424D01*
X006055Y020443D02*
X006020Y020511D01*
X005975Y020572D01*
X005921Y020626D01*
X005859Y020671D01*
X005791Y020706D01*
X005719Y020729D01*
X005654Y020740D01*
X005654Y020305D01*
X006089Y020305D01*
X006088Y020305D02*
X007474Y020305D01*
X007474Y020187D02*
X006909Y020187D01*
X007086Y020068D02*
X007474Y020068D01*
X007474Y019950D02*
X007174Y019950D01*
X007223Y019831D02*
X007474Y019831D01*
X007474Y019713D02*
X007228Y019713D01*
X007219Y019594D02*
X007474Y019594D01*
X007474Y019476D02*
X007170Y019476D01*
X007077Y019357D02*
X007474Y019357D01*
X007474Y019239D02*
X006887Y019239D01*
X006880Y019120D02*
X007474Y019120D01*
X007474Y019002D02*
X007074Y019002D01*
X007168Y018883D02*
X007474Y018883D01*
X006772Y020424D02*
X006675Y020424D01*
X006675Y020542D02*
X006772Y020542D01*
X006772Y020661D02*
X006675Y020661D01*
X006675Y020898D02*
X006772Y020898D01*
X006772Y021016D02*
X006675Y021016D01*
X006675Y021135D02*
X006772Y021135D01*
X006562Y021253D02*
X006110Y021253D01*
X006069Y021135D02*
X006377Y021135D01*
X006292Y021016D02*
X006000Y021016D01*
X005868Y020898D02*
X006249Y020898D01*
X006258Y020661D02*
X005874Y020661D01*
X005997Y020542D02*
X006309Y020542D01*
X006055Y020443D02*
X006078Y020370D01*
X006089Y020305D01*
X005654Y020305D02*
X005557Y020305D01*
X005557Y020208D01*
X005122Y020208D01*
X005122Y020305D02*
X005557Y020305D01*
X005557Y020187D02*
X005654Y020187D01*
X005654Y020068D02*
X005557Y020068D01*
X005557Y019950D02*
X005654Y019950D01*
X005654Y019831D02*
X005557Y019831D01*
X005372Y019831D02*
X003554Y019831D01*
X003554Y019950D02*
X005229Y019950D01*
X005157Y020068D02*
X003554Y020068D01*
X003554Y020424D02*
X005150Y020424D01*
X005214Y020542D02*
X003554Y020542D01*
X003554Y020661D02*
X005337Y020661D01*
X005557Y020661D02*
X005654Y020661D01*
X005654Y020542D02*
X005557Y020542D01*
X005557Y020424D02*
X005654Y020424D01*
X005838Y021964D02*
X006219Y021964D01*
X006263Y022083D02*
X005988Y022083D01*
X006064Y022201D02*
X006336Y022201D01*
X006479Y022320D02*
X006110Y022320D01*
X006110Y022438D02*
X008074Y022438D01*
X008074Y022320D02*
X006968Y022320D01*
X007041Y022557D02*
X008074Y022557D01*
X008074Y022675D02*
X007155Y022675D01*
X006723Y022953D02*
X008314Y022953D01*
X008314Y014160D01*
X009235Y014617D02*
X010974Y014617D01*
X010974Y014499D02*
X009354Y014499D01*
X009419Y014380D02*
X010974Y014380D01*
X010974Y014262D02*
X009464Y014262D01*
X009464Y014143D02*
X010974Y014143D01*
X010974Y014025D02*
X009454Y014025D01*
X009404Y013906D02*
X010974Y013906D01*
X010974Y013788D02*
X009320Y013788D01*
X009268Y014736D02*
X010974Y014736D01*
X010974Y014854D02*
X009383Y014854D01*
X009432Y014973D02*
X010974Y014973D01*
X010974Y015091D02*
X009464Y015091D01*
X009464Y015210D02*
X010974Y015210D01*
X010974Y015328D02*
X009440Y015328D01*
X009391Y015447D02*
X010974Y015447D01*
X010974Y015565D02*
X009287Y015565D01*
X009201Y015684D02*
X010974Y015684D01*
X010974Y015802D02*
X009334Y015802D01*
X009410Y015921D02*
X010974Y015921D01*
X010974Y016039D02*
X009460Y016039D01*
X009464Y016158D02*
X010974Y016158D01*
X010974Y016276D02*
X009462Y016276D01*
X009413Y016395D02*
X010974Y016395D01*
X010974Y016513D02*
X009339Y016513D01*
X009213Y016632D02*
X010974Y016632D01*
X010974Y016750D02*
X009282Y016750D01*
X009389Y016869D02*
X010974Y016869D01*
X010974Y016987D02*
X009438Y016987D01*
X009464Y017106D02*
X010974Y017106D01*
X010974Y017224D02*
X009464Y017224D01*
X009434Y017343D02*
X010974Y017343D01*
X010974Y017461D02*
X009385Y017461D01*
X009273Y017580D02*
X010974Y017580D01*
X010974Y017698D02*
X009230Y017698D01*
X009349Y017817D02*
X010974Y017817D01*
X010974Y017935D02*
X009417Y017935D01*
X009464Y018054D02*
X010974Y018054D01*
X010974Y018172D02*
X009464Y018172D01*
X009456Y018291D02*
X010974Y018291D01*
X010974Y018409D02*
X009407Y018409D01*
X009325Y018528D02*
X010974Y018528D01*
X010974Y018646D02*
X009178Y018646D01*
X009297Y018765D02*
X010974Y018765D01*
X010974Y018883D02*
X009395Y018883D01*
X009444Y019002D02*
X010974Y019002D01*
X010974Y019120D02*
X009464Y019120D01*
X009464Y019239D02*
X010974Y019239D01*
X010974Y019357D02*
X009428Y019357D01*
X009377Y019476D02*
X010974Y019476D01*
X010974Y019594D02*
X009258Y019594D01*
X009200Y019713D02*
X010974Y019713D01*
X010904Y019831D02*
X009330Y019831D01*
X009402Y019950D02*
X010785Y019950D01*
X010667Y020068D02*
X009436Y020068D01*
X009425Y020305D02*
X010430Y020305D01*
X010548Y020187D02*
X008954Y020187D01*
X009282Y020542D02*
X010193Y020542D01*
X010311Y020424D02*
X009375Y020424D01*
X009146Y020661D02*
X010074Y020661D01*
X009956Y020779D02*
X009311Y020779D01*
X009401Y020898D02*
X009837Y020898D01*
X009719Y021016D02*
X009450Y021016D01*
X009464Y021135D02*
X009600Y021135D01*
X009482Y021253D02*
X009464Y021253D01*
X008914Y022160D02*
X011214Y019860D01*
X011214Y004460D01*
X008914Y002160D01*
X008657Y002649D02*
X002624Y002649D01*
X002624Y002767D02*
X008530Y002767D01*
X008433Y002886D02*
X002624Y002886D01*
X002624Y003004D02*
X008384Y003004D01*
X008364Y003123D02*
X002624Y003123D01*
X002624Y003241D02*
X008364Y003241D01*
X008402Y003360D02*
X002624Y003360D01*
X002624Y003478D02*
X008455Y003478D01*
X008573Y003597D02*
X002624Y003597D01*
X002624Y003715D02*
X008582Y003715D01*
X008463Y003834D02*
X002624Y003834D01*
X002624Y003952D02*
X008405Y003952D01*
X008364Y004071D02*
X002624Y004071D01*
X002624Y004189D02*
X008364Y004189D01*
X008380Y004308D02*
X002624Y004308D01*
X002624Y004426D02*
X008429Y004426D01*
X008521Y004545D02*
X002624Y004545D01*
X002624Y004663D02*
X008677Y004663D01*
X008515Y004782D02*
X002624Y004782D01*
X002624Y004900D02*
X008427Y004900D01*
X008378Y005019D02*
X002624Y005019D01*
X002624Y005137D02*
X008364Y005137D01*
X008364Y005256D02*
X002624Y005256D01*
X002624Y005374D02*
X008408Y005374D01*
X008469Y005493D02*
X002624Y005493D01*
X002624Y005611D02*
X008588Y005611D01*
X008567Y005730D02*
X002624Y005730D01*
X002624Y005848D02*
X008449Y005848D01*
X008399Y005967D02*
X002624Y005967D01*
X002624Y006085D02*
X008364Y006085D01*
X008364Y006204D02*
X002624Y006204D01*
X002624Y006322D02*
X008386Y006322D01*
X008435Y006441D02*
X002624Y006441D01*
X002624Y006559D02*
X008536Y006559D01*
X008642Y006678D02*
X002624Y006678D01*
X002624Y006796D02*
X008501Y006796D01*
X008421Y006915D02*
X002624Y006915D01*
X002624Y007033D02*
X008372Y007033D01*
X008364Y007152D02*
X002624Y007152D01*
X002624Y007270D02*
X008365Y007270D01*
X008414Y007389D02*
X002624Y007389D01*
X002624Y007507D02*
X008484Y007507D01*
X008602Y007626D02*
X002624Y007626D01*
X002624Y007744D02*
X008585Y007744D01*
X008475Y007863D02*
X002624Y007863D01*
X002624Y007981D02*
X008415Y007981D01*
X008387Y008100D02*
X002624Y008100D01*
X002624Y008218D02*
X008387Y008218D01*
X008414Y008337D02*
X002624Y008337D01*
X002624Y008455D02*
X008474Y008455D01*
X008582Y008574D02*
X002624Y008574D01*
X002624Y008692D02*
X002909Y008692D01*
X002687Y008811D02*
X002624Y008811D01*
X002624Y009996D02*
X002673Y009996D01*
X002624Y010114D02*
X002875Y010114D01*
X002624Y010233D02*
X010974Y010233D01*
X010974Y010351D02*
X002624Y010351D01*
X002624Y010470D02*
X010974Y010470D01*
X010974Y010588D02*
X002624Y010588D01*
X002624Y010707D02*
X010974Y010707D01*
X010974Y010825D02*
X002624Y010825D01*
X002624Y010944D02*
X010974Y010944D01*
X010974Y011062D02*
X002624Y011062D01*
X002624Y011181D02*
X010974Y011181D01*
X010974Y011299D02*
X002624Y011299D01*
X002624Y011418D02*
X010974Y011418D01*
X010974Y011536D02*
X002624Y011536D01*
X003454Y010114D02*
X010974Y010114D01*
X010974Y009996D02*
X003655Y009996D01*
X003774Y009877D02*
X010974Y009877D01*
X010974Y009759D02*
X003844Y009759D01*
X003893Y009640D02*
X008636Y009640D01*
X008498Y009522D02*
X003926Y009522D01*
X003926Y009403D02*
X008420Y009403D01*
X008371Y009285D02*
X003926Y009285D01*
X003887Y009166D02*
X008364Y009166D01*
X008366Y009048D02*
X003838Y009048D01*
X003760Y008929D02*
X008415Y008929D01*
X008486Y008811D02*
X003641Y008811D01*
X003420Y008692D02*
X008607Y008692D01*
X009222Y008692D02*
X010974Y008692D01*
X010974Y008574D02*
X009247Y008574D01*
X009355Y008455D02*
X010974Y008455D01*
X010974Y008337D02*
X009414Y008337D01*
X009442Y008218D02*
X010974Y008218D01*
X010974Y008100D02*
X009441Y008100D01*
X009413Y007981D02*
X010974Y007981D01*
X010974Y007863D02*
X009353Y007863D01*
X009244Y007744D02*
X010974Y007744D01*
X010974Y007626D02*
X009227Y007626D01*
X009345Y007507D02*
X010974Y007507D01*
X010974Y007389D02*
X009415Y007389D01*
X009464Y007270D02*
X010974Y007270D01*
X010974Y007152D02*
X009464Y007152D01*
X009457Y007033D02*
X010974Y007033D01*
X010974Y006915D02*
X009408Y006915D01*
X009328Y006796D02*
X010974Y006796D01*
X010974Y006678D02*
X009187Y006678D01*
X009293Y006559D02*
X010974Y006559D01*
X010974Y006441D02*
X009393Y006441D01*
X009443Y006322D02*
X010974Y006322D01*
X010974Y006204D02*
X009464Y006204D01*
X009464Y006085D02*
X010974Y006085D01*
X010974Y005967D02*
X009430Y005967D01*
X009380Y005848D02*
X010974Y005848D01*
X010974Y005730D02*
X009262Y005730D01*
X009241Y005611D02*
X010974Y005611D01*
X010974Y005493D02*
X009360Y005493D01*
X009421Y005374D02*
X010974Y005374D01*
X010974Y005256D02*
X009464Y005256D01*
X009464Y005137D02*
X010974Y005137D01*
X010974Y005019D02*
X009451Y005019D01*
X009402Y004900D02*
X010974Y004900D01*
X010974Y004782D02*
X009314Y004782D01*
X009152Y004663D02*
X010974Y004663D01*
X010959Y004545D02*
X009308Y004545D01*
X009400Y004426D02*
X010841Y004426D01*
X010722Y004308D02*
X009449Y004308D01*
X009464Y004189D02*
X010604Y004189D01*
X010485Y004071D02*
X009464Y004071D01*
X009424Y003952D02*
X010367Y003952D01*
X010248Y003834D02*
X009366Y003834D01*
X009247Y003715D02*
X010130Y003715D01*
X010011Y003597D02*
X009256Y003597D01*
X009374Y003478D02*
X009893Y003478D01*
X009774Y003360D02*
X009427Y003360D01*
X009464Y003241D02*
X009656Y003241D01*
X009537Y003123D02*
X009464Y003123D01*
X010150Y002056D02*
X014364Y002056D01*
X014364Y002175D02*
X010268Y002175D01*
X010387Y002293D02*
X014374Y002293D01*
X014423Y002412D02*
X010505Y002412D01*
X010624Y002530D02*
X014507Y002530D01*
X014657Y002649D02*
X010742Y002649D01*
X010861Y002767D02*
X014530Y002767D01*
X014433Y002886D02*
X010979Y002886D01*
X011098Y003004D02*
X014384Y003004D01*
X014364Y003123D02*
X011216Y003123D01*
X011335Y003241D02*
X014364Y003241D01*
X014402Y003360D02*
X011453Y003360D01*
X011572Y003478D02*
X014455Y003478D01*
X014573Y003597D02*
X011690Y003597D01*
X011809Y003715D02*
X014582Y003715D01*
X014463Y003834D02*
X011854Y003834D01*
X011854Y003952D02*
X014405Y003952D01*
X014364Y004071D02*
X011854Y004071D01*
X011854Y004189D02*
X014364Y004189D01*
X014380Y004308D02*
X011854Y004308D01*
X011854Y004426D02*
X014429Y004426D01*
X014521Y004545D02*
X011854Y004545D01*
X011854Y004663D02*
X014677Y004663D01*
X014515Y004782D02*
X011854Y004782D01*
X011854Y004900D02*
X014427Y004900D01*
X014378Y005019D02*
X011854Y005019D01*
X011854Y005137D02*
X014364Y005137D01*
X014364Y005256D02*
X011854Y005256D01*
X011854Y005374D02*
X014361Y005374D01*
X014242Y005493D02*
X011854Y005493D01*
X011854Y005611D02*
X014124Y005611D01*
X014005Y005730D02*
X011854Y005730D01*
X011854Y005848D02*
X013887Y005848D01*
X013768Y005967D02*
X011854Y005967D01*
X011854Y006085D02*
X013650Y006085D01*
X013531Y006204D02*
X011854Y006204D01*
X011854Y006322D02*
X013413Y006322D01*
X013374Y006441D02*
X011854Y006441D01*
X011854Y006559D02*
X013374Y006559D01*
X013374Y006678D02*
X011854Y006678D01*
X011854Y006796D02*
X013374Y006796D01*
X013374Y006915D02*
X011854Y006915D01*
X011854Y007033D02*
X013374Y007033D01*
X013374Y007152D02*
X011854Y007152D01*
X011854Y007270D02*
X013374Y007270D01*
X013374Y007389D02*
X011854Y007389D01*
X011854Y007507D02*
X013374Y007507D01*
X013374Y007626D02*
X011854Y007626D01*
X011854Y007744D02*
X013374Y007744D01*
X013374Y007863D02*
X011854Y007863D01*
X011854Y007981D02*
X013374Y007981D01*
X013374Y008100D02*
X011854Y008100D01*
X011854Y008218D02*
X013374Y008218D01*
X013374Y008337D02*
X011854Y008337D01*
X011854Y008455D02*
X013374Y008455D01*
X013374Y008574D02*
X011854Y008574D01*
X011854Y008692D02*
X013374Y008692D01*
X013374Y008811D02*
X011854Y008811D01*
X011854Y008929D02*
X013374Y008929D01*
X013374Y009048D02*
X011854Y009048D01*
X011854Y009166D02*
X013374Y009166D01*
X013374Y009285D02*
X011854Y009285D01*
X011854Y009403D02*
X013374Y009403D01*
X013374Y009522D02*
X011854Y009522D01*
X011854Y009640D02*
X013374Y009640D01*
X013374Y009759D02*
X011854Y009759D01*
X011854Y009877D02*
X013374Y009877D01*
X013374Y009996D02*
X011854Y009996D01*
X011854Y010114D02*
X013374Y010114D01*
X013374Y010233D02*
X011854Y010233D01*
X011854Y010351D02*
X013374Y010351D01*
X013374Y010470D02*
X011854Y010470D01*
X011854Y010588D02*
X013374Y010588D01*
X013374Y010707D02*
X011854Y010707D01*
X011854Y010825D02*
X013374Y010825D01*
X013374Y010944D02*
X011854Y010944D01*
X011854Y011062D02*
X013374Y011062D01*
X013374Y011181D02*
X011854Y011181D01*
X011854Y011299D02*
X013374Y011299D01*
X013374Y011418D02*
X011854Y011418D01*
X011854Y011536D02*
X013374Y011536D01*
X013374Y011655D02*
X011854Y011655D01*
X011854Y011773D02*
X013374Y011773D01*
X013374Y011892D02*
X011854Y011892D01*
X011854Y012010D02*
X013374Y012010D01*
X013374Y012129D02*
X011854Y012129D01*
X011854Y012247D02*
X013374Y012247D01*
X013374Y012366D02*
X011854Y012366D01*
X011854Y012484D02*
X013374Y012484D01*
X013374Y012603D02*
X011854Y012603D01*
X011854Y012721D02*
X013374Y012721D01*
X013374Y012840D02*
X011854Y012840D01*
X011854Y012958D02*
X013277Y012958D01*
X013158Y013077D02*
X011854Y013077D01*
X011854Y013195D02*
X013040Y013195D01*
X012921Y013314D02*
X011854Y013314D01*
X011854Y013432D02*
X012803Y013432D01*
X012684Y013551D02*
X011854Y013551D01*
X011854Y013669D02*
X012592Y013669D01*
X012574Y013788D02*
X011854Y013788D01*
X011854Y013906D02*
X012574Y013906D01*
X012574Y014025D02*
X011854Y014025D01*
X011854Y014143D02*
X012574Y014143D01*
X012574Y014262D02*
X011854Y014262D01*
X011854Y014380D02*
X012574Y014380D01*
X012574Y014499D02*
X011854Y014499D01*
X011854Y014617D02*
X012574Y014617D01*
X012574Y014736D02*
X011854Y014736D01*
X011854Y014854D02*
X012574Y014854D01*
X012574Y014973D02*
X011854Y014973D01*
X011854Y015091D02*
X012574Y015091D01*
X012574Y015210D02*
X011854Y015210D01*
X011854Y015328D02*
X012574Y015328D01*
X012574Y015447D02*
X011854Y015447D01*
X011854Y015565D02*
X012574Y015565D01*
X012574Y015684D02*
X011854Y015684D01*
X011854Y015802D02*
X012574Y015802D01*
X012574Y015921D02*
X011854Y015921D01*
X011854Y016039D02*
X012574Y016039D01*
X012574Y016158D02*
X011854Y016158D01*
X011854Y016276D02*
X012574Y016276D01*
X012574Y016395D02*
X011854Y016395D01*
X011854Y016513D02*
X012574Y016513D01*
X012574Y016632D02*
X011854Y016632D01*
X011854Y016750D02*
X012574Y016750D01*
X012574Y016869D02*
X011854Y016869D01*
X011854Y016987D02*
X012574Y016987D01*
X012574Y017106D02*
X011854Y017106D01*
X011854Y017224D02*
X012574Y017224D01*
X012511Y017343D02*
X011854Y017343D01*
X011854Y017461D02*
X012457Y017461D01*
X012446Y017580D02*
X011854Y017580D01*
X011854Y017698D02*
X012473Y017698D01*
X012550Y017817D02*
X011854Y017817D01*
X011854Y017935D02*
X012974Y017935D01*
X012974Y018054D02*
X011854Y018054D01*
X011854Y018172D02*
X012974Y018172D01*
X012974Y018291D02*
X011854Y018291D01*
X011854Y018409D02*
X012974Y018409D01*
X012974Y018528D02*
X011854Y018528D01*
X011854Y018646D02*
X012974Y018646D01*
X012974Y018765D02*
X011854Y018765D01*
X011854Y018883D02*
X012974Y018883D01*
X012974Y019002D02*
X011854Y019002D01*
X011854Y019120D02*
X012974Y019120D01*
X012992Y019239D02*
X011854Y019239D01*
X011854Y019357D02*
X013084Y019357D01*
X013203Y019476D02*
X011854Y019476D01*
X011854Y019594D02*
X013247Y019594D01*
X013239Y019713D02*
X011854Y019713D01*
X011854Y019831D02*
X013239Y019831D01*
X013288Y019950D02*
X011854Y019950D01*
X011854Y020068D02*
X013357Y020068D01*
X014428Y020424D02*
X011854Y020424D01*
X011840Y020542D02*
X014519Y020542D01*
X014683Y020661D02*
X011753Y020661D01*
X011635Y020779D02*
X014518Y020779D01*
X014428Y020898D02*
X011516Y020898D01*
X011398Y021016D02*
X014379Y021016D01*
X014364Y021135D02*
X011279Y021135D01*
X011161Y021253D02*
X014364Y021253D01*
X014407Y021372D02*
X011042Y021372D01*
X010924Y021490D02*
X014467Y021490D01*
X014585Y021609D02*
X010805Y021609D01*
X010687Y021727D02*
X014609Y021727D01*
X014488Y021846D02*
X010568Y021846D01*
X010450Y021964D02*
X014421Y021964D01*
X014390Y022083D02*
X010331Y022083D01*
X010213Y022201D02*
X014384Y022201D01*
X014409Y022320D02*
X010094Y022320D01*
X009976Y022438D02*
X014461Y022438D01*
X014561Y022557D02*
X009857Y022557D01*
X009739Y022675D02*
X014648Y022675D01*
X014503Y022794D02*
X009620Y022794D01*
X009502Y022912D02*
X014422Y022912D01*
X014373Y023031D02*
X009456Y023031D01*
X009464Y023149D02*
X014364Y023149D01*
X014364Y023268D02*
X009464Y023268D01*
X009416Y023386D02*
X014413Y023386D01*
X014481Y023505D02*
X009348Y023505D01*
X009273Y023623D02*
X009229Y023623D01*
X009555Y023623D02*
X010273Y023623D01*
X010055Y023742D02*
X009774Y023742D01*
X009885Y023860D02*
X009943Y023860D01*
X009940Y024453D02*
X009889Y024453D01*
X009781Y024571D02*
X010048Y024571D01*
X010256Y024690D02*
X009573Y024690D01*
X009256Y024690D02*
X006965Y024690D01*
X007103Y024808D02*
X014864Y024808D01*
X014864Y024690D02*
X014573Y024690D01*
X014781Y024571D02*
X014864Y024571D01*
X014864Y024927D02*
X007173Y024927D01*
X007204Y025045D02*
X014864Y025045D01*
X014256Y024690D02*
X013573Y024690D01*
X013781Y024571D02*
X014048Y024571D01*
X013940Y024453D02*
X013889Y024453D01*
X013885Y023860D02*
X013943Y023860D01*
X014055Y023742D02*
X013774Y023742D01*
X013555Y023623D02*
X014273Y023623D01*
X014555Y023623D02*
X014600Y023623D01*
X014774Y023742D02*
X014864Y023742D01*
X013273Y023623D02*
X012555Y023623D01*
X012774Y023742D02*
X013055Y023742D01*
X012943Y023860D02*
X012885Y023860D01*
X012889Y024453D02*
X012940Y024453D01*
X013048Y024571D02*
X012781Y024571D01*
X012573Y024690D02*
X013256Y024690D01*
X012256Y024690D02*
X011573Y024690D01*
X011781Y024571D02*
X012048Y024571D01*
X011940Y024453D02*
X011889Y024453D01*
X011885Y023860D02*
X011943Y023860D01*
X012055Y023742D02*
X011774Y023742D01*
X011555Y023623D02*
X012273Y023623D01*
X011273Y023623D02*
X010555Y023623D01*
X010774Y023742D02*
X011055Y023742D01*
X010943Y023860D02*
X010885Y023860D01*
X010889Y024453D02*
X010940Y024453D01*
X011048Y024571D02*
X010781Y024571D01*
X010573Y024690D02*
X011256Y024690D01*
X009987Y025164D02*
X007206Y025164D01*
X007178Y025282D02*
X009893Y025282D01*
X009864Y025401D02*
X007112Y025401D01*
X006986Y025519D02*
X009864Y025519D01*
X009724Y026823D02*
X009605Y026823D01*
X009621Y028482D02*
X009708Y028482D01*
X009827Y028600D02*
X009502Y028600D01*
X010502Y028600D02*
X017204Y028600D01*
X017204Y028482D02*
X010621Y028482D01*
X013142Y029074D02*
X013262Y029074D01*
X013262Y029193D02*
X013142Y029193D01*
X013142Y029311D02*
X013262Y029311D01*
X013734Y029667D02*
X017204Y029667D01*
X017204Y029785D02*
X013692Y029785D01*
X013617Y029904D02*
X017204Y029904D01*
X017132Y025519D02*
X017204Y025519D01*
X017165Y024334D02*
X017204Y024334D01*
X017204Y024216D02*
X016977Y024216D01*
X014914Y019160D02*
X015914Y018160D01*
X015914Y017560D01*
X015650Y017817D02*
X015349Y017817D01*
X015417Y017935D02*
X015674Y017935D01*
X015674Y018054D02*
X015464Y018054D01*
X015464Y018172D02*
X015563Y018172D01*
X015573Y017698D02*
X015230Y017698D01*
X016497Y017224D02*
X017204Y017224D01*
X017204Y017106D02*
X016689Y017106D01*
X016760Y016987D02*
X017204Y016987D01*
X017204Y016869D02*
X016782Y016869D01*
X016767Y016750D02*
X017204Y016750D01*
X017204Y016632D02*
X016706Y016632D01*
X016539Y016513D02*
X017204Y016513D01*
X017204Y016395D02*
X016675Y016395D01*
X016838Y016276D02*
X017204Y016276D01*
X017204Y016158D02*
X016956Y016158D01*
X017075Y016039D02*
X017204Y016039D01*
X017193Y015921D02*
X017204Y015921D01*
X016414Y015360D02*
X016414Y011760D01*
X015614Y010960D01*
X015614Y002360D01*
X015414Y002160D01*
X014914Y002160D01*
X014411Y001938D02*
X010031Y001938D01*
X009913Y001819D02*
X014478Y001819D01*
X014460Y001701D02*
X009794Y001701D01*
X009676Y001582D02*
X014364Y001582D01*
X014364Y001464D02*
X009557Y001464D01*
X009439Y001345D02*
X014364Y001345D01*
X014364Y001227D02*
X009464Y001227D01*
X009464Y001108D02*
X014364Y001108D01*
X014364Y000990D02*
X009439Y000990D01*
X009390Y000871D02*
X014364Y000871D01*
X014364Y000753D02*
X009285Y000753D01*
X009082Y000634D02*
X014446Y000634D01*
X014914Y001160D02*
X015614Y001160D01*
X015783Y000990D02*
X015903Y000990D01*
X015818Y001024D02*
X015818Y001024D01*
X015902Y001108D02*
X015922Y001108D01*
X016101Y000397D02*
X003728Y000397D01*
X002624Y001819D02*
X008478Y001819D01*
X008411Y001938D02*
X002624Y001938D01*
X002624Y002056D02*
X008364Y002056D01*
X008364Y002175D02*
X002624Y002175D01*
X002624Y002293D02*
X008374Y002293D01*
X008423Y002412D02*
X002624Y002412D01*
X002624Y002530D02*
X008507Y002530D01*
X008914Y001160D02*
X011614Y003860D01*
X011614Y020460D01*
X008914Y023160D01*
X008413Y023386D02*
X006998Y023386D01*
X007123Y023268D02*
X008364Y023268D01*
X006406Y022557D02*
X006093Y022557D01*
X006044Y022675D02*
X006292Y022675D01*
X006243Y022794D02*
X005940Y022794D01*
X012814Y017560D02*
X012814Y013760D01*
X013614Y012960D01*
X013614Y006460D01*
X014914Y005160D01*
X014914Y008160D02*
X014914Y011160D01*
X014414Y011660D01*
X014414Y014973D01*
X010974Y009640D02*
X009193Y009640D01*
X009331Y009522D02*
X010974Y009522D01*
X010974Y009403D02*
X009409Y009403D01*
X009458Y009285D02*
X010974Y009285D01*
X010974Y009166D02*
X009464Y009166D01*
X009463Y009048D02*
X010974Y009048D01*
X010974Y008929D02*
X009414Y008929D01*
X009343Y008811D02*
X010974Y008811D01*
D15*
X012814Y017560D03*
X015914Y017560D03*
X016414Y016860D03*
X016414Y015360D03*
X007714Y021760D03*
D16*
X010164Y025410D02*
X015164Y025410D01*
X015164Y023160D01*
X014914Y023160D01*
X012021Y027660D02*
X011521Y028160D01*
X010164Y028160D01*
X010164Y027160D02*
X010164Y025410D01*
M02*
