G75*
%MOIN*%
%OFA0B0*%
%FSLAX24Y24*%
%IPPOS*%
%LPD*%
%AMOC8*
5,1,8,0,0,1.08239X$1,22.5*
%
%ADD10C,0.0080*%
%ADD11C,0.0090*%
%ADD12C,0.0030*%
%ADD13C,0.0040*%
%ADD14C,0.0060*%
%ADD15C,0.0050*%
D10*
X007414Y001660D02*
X007440Y001658D01*
X007466Y001653D01*
X007491Y001645D01*
X007514Y001633D01*
X007536Y001619D01*
X007555Y001601D01*
X007573Y001582D01*
X007587Y001560D01*
X007599Y001537D01*
X007607Y001512D01*
X007612Y001486D01*
X007614Y001460D01*
X007614Y001060D01*
X007616Y001021D01*
X007621Y000983D01*
X007630Y000946D01*
X007643Y000909D01*
X007659Y000874D01*
X007678Y000840D01*
X007700Y000809D01*
X007725Y000779D01*
X007753Y000752D01*
X007783Y000728D01*
X007816Y000707D01*
X007850Y000689D01*
X007885Y000674D01*
X007922Y000663D01*
X007960Y000655D01*
X007999Y000651D01*
X008037Y000650D01*
X008076Y000653D01*
X008114Y000660D01*
X008414Y000910D02*
X008414Y001410D01*
X008664Y001660D01*
X008414Y001910D01*
X008414Y002410D01*
X008664Y002660D01*
X008414Y002910D01*
X008414Y003410D01*
X008664Y003660D01*
X008414Y003910D01*
X008414Y004410D01*
X008664Y004660D01*
X008414Y004910D01*
X008414Y005410D01*
X008664Y005660D01*
X008414Y005910D01*
X008414Y006410D01*
X008664Y006660D01*
X008414Y006910D01*
X008414Y007410D01*
X008664Y007660D01*
X008414Y007910D01*
X008414Y008410D01*
X008664Y008660D01*
X008414Y008910D01*
X008414Y009410D01*
X008664Y009660D01*
X009164Y009660D01*
X009414Y009410D01*
X009414Y008910D01*
X009164Y008660D01*
X009414Y008410D01*
X009414Y007910D01*
X009164Y007660D01*
X009414Y007410D01*
X009414Y006910D01*
X009164Y006660D01*
X009414Y006410D01*
X009414Y005910D01*
X009164Y005660D01*
X009414Y005410D01*
X009414Y004910D01*
X009164Y004660D01*
X009414Y004410D01*
X009414Y003910D01*
X009164Y003660D01*
X009414Y003410D01*
X009414Y002910D01*
X009164Y002660D01*
X009414Y002410D01*
X009414Y001910D01*
X009164Y001660D01*
X009414Y001410D01*
X009414Y000910D01*
X009164Y000660D01*
X008664Y000660D01*
X008414Y000910D01*
X007614Y001860D02*
X007614Y002160D01*
X007614Y001860D02*
X007612Y001834D01*
X007607Y001808D01*
X007599Y001783D01*
X007587Y001760D01*
X007573Y001738D01*
X007555Y001719D01*
X007536Y001701D01*
X007514Y001687D01*
X007491Y001675D01*
X007466Y001667D01*
X007440Y001662D01*
X007414Y001660D01*
X007614Y002160D02*
X007616Y002204D01*
X007622Y002247D01*
X007631Y002289D01*
X007644Y002331D01*
X007661Y002371D01*
X007681Y002410D01*
X007704Y002447D01*
X007731Y002481D01*
X007760Y002514D01*
X007793Y002543D01*
X007827Y002570D01*
X007864Y002593D01*
X007903Y002613D01*
X007943Y002630D01*
X007985Y002643D01*
X008027Y002652D01*
X008070Y002658D01*
X008114Y002660D01*
X008070Y002662D01*
X008027Y002668D01*
X007985Y002677D01*
X007943Y002690D01*
X007903Y002707D01*
X007864Y002727D01*
X007827Y002750D01*
X007793Y002777D01*
X007760Y002806D01*
X007731Y002839D01*
X007704Y002873D01*
X007681Y002910D01*
X007661Y002949D01*
X007644Y002989D01*
X007631Y003031D01*
X007622Y003073D01*
X007616Y003116D01*
X007614Y003160D01*
X007614Y004460D01*
X007612Y004486D01*
X007607Y004512D01*
X007599Y004537D01*
X007587Y004560D01*
X007573Y004582D01*
X007555Y004601D01*
X007536Y004619D01*
X007514Y004633D01*
X007491Y004645D01*
X007466Y004653D01*
X007440Y004658D01*
X007414Y004660D01*
X007440Y004662D01*
X007466Y004667D01*
X007491Y004675D01*
X007514Y004687D01*
X007536Y004701D01*
X007555Y004719D01*
X007573Y004738D01*
X007587Y004760D01*
X007599Y004783D01*
X007607Y004808D01*
X007612Y004834D01*
X007614Y004860D01*
X007614Y006160D01*
X007616Y006204D01*
X007622Y006247D01*
X007631Y006289D01*
X007644Y006331D01*
X007661Y006371D01*
X007681Y006410D01*
X007704Y006447D01*
X007731Y006481D01*
X007760Y006514D01*
X007793Y006543D01*
X007827Y006570D01*
X007864Y006593D01*
X007903Y006613D01*
X007943Y006630D01*
X007985Y006643D01*
X008027Y006652D01*
X008070Y006658D01*
X008114Y006660D01*
X008414Y011660D02*
X008414Y024660D01*
X015414Y024660D01*
X015414Y011660D01*
X008414Y011660D01*
X007214Y014680D02*
X007214Y029980D01*
X002534Y029980D01*
X002534Y014680D01*
X007214Y014680D01*
X011666Y025888D02*
X011666Y027306D01*
X011666Y028014D02*
X011666Y029432D01*
X012729Y029432D01*
X013674Y029432D02*
X015997Y029432D01*
X015997Y025888D01*
X011666Y025888D01*
X011294Y026320D02*
X011294Y029080D01*
X008174Y029080D01*
X008174Y026320D01*
X009674Y026320D01*
X011294Y026320D01*
X010664Y026910D02*
X010414Y026660D01*
X009914Y026660D01*
X009664Y026910D01*
X009664Y027410D01*
X009914Y027660D01*
X009664Y027910D01*
X009664Y028410D01*
X009674Y028420D01*
X009674Y029080D01*
X009914Y028660D02*
X009674Y028420D01*
X009664Y028410D02*
X009414Y028660D01*
X008914Y028660D01*
X008664Y028410D01*
X008664Y027910D01*
X008914Y027660D01*
X008664Y027410D01*
X008664Y026910D01*
X008914Y026660D01*
X009414Y026660D01*
X009664Y026910D01*
X009674Y026920D02*
X009674Y026320D01*
X009664Y027410D02*
X009414Y027660D01*
X009664Y027910D01*
X009914Y028660D02*
X010414Y028660D01*
X010664Y028410D01*
X010664Y027910D01*
X010414Y027660D01*
X010664Y027410D01*
X010664Y026910D01*
X015974Y025900D02*
X017354Y025900D01*
X017354Y029440D01*
X016034Y029440D01*
X015164Y008660D02*
X014664Y008660D01*
X014414Y008410D01*
X014414Y007910D01*
X014664Y007660D01*
X014414Y007410D01*
X014414Y006910D01*
X014664Y006660D01*
X014414Y006410D01*
X014414Y005910D01*
X014664Y005660D01*
X014414Y005410D01*
X014414Y004910D01*
X014664Y004660D01*
X014414Y004410D01*
X014414Y003910D01*
X014664Y003660D01*
X014414Y003410D01*
X014414Y002910D01*
X014664Y002660D01*
X014414Y002410D01*
X014414Y001910D01*
X014664Y001660D01*
X014414Y001410D01*
X014414Y000910D01*
X014664Y000660D01*
X015164Y000660D01*
X015414Y000910D01*
X015414Y001410D01*
X015164Y001660D01*
X015414Y001910D01*
X015414Y002410D01*
X015164Y002660D01*
X015414Y002910D01*
X015414Y003410D01*
X015164Y003660D01*
X015414Y003910D01*
X015414Y004410D01*
X015164Y004660D01*
X015414Y004910D01*
X015414Y005410D01*
X015164Y005660D01*
X015414Y005910D01*
X015414Y006410D01*
X015164Y006660D01*
X015414Y006910D01*
X015414Y007410D01*
X015164Y007660D01*
X015414Y007910D01*
X015414Y008410D01*
X015164Y008660D01*
X015514Y006660D02*
X015548Y006658D01*
X015581Y006652D01*
X015613Y006643D01*
X015644Y006630D01*
X015674Y006614D01*
X015701Y006595D01*
X015726Y006572D01*
X015749Y006547D01*
X015768Y006520D01*
X015784Y006490D01*
X015797Y006459D01*
X015806Y006427D01*
X015812Y006394D01*
X015814Y006360D01*
X015814Y005760D01*
X015816Y005743D01*
X015820Y005726D01*
X015827Y005710D01*
X015837Y005696D01*
X015850Y005683D01*
X015864Y005673D01*
X015880Y005666D01*
X015897Y005662D01*
X015914Y005660D01*
X015897Y005658D01*
X015880Y005654D01*
X015864Y005647D01*
X015850Y005637D01*
X015837Y005624D01*
X015827Y005610D01*
X015820Y005594D01*
X015816Y005577D01*
X015814Y005560D01*
X015814Y004960D01*
X015812Y004926D01*
X015806Y004893D01*
X015797Y004861D01*
X015784Y004830D01*
X015768Y004800D01*
X015749Y004773D01*
X015726Y004748D01*
X015701Y004725D01*
X015674Y004706D01*
X015644Y004690D01*
X015613Y004677D01*
X015581Y004668D01*
X015548Y004662D01*
X015514Y004660D01*
D11*
X011791Y014205D02*
X011869Y014283D01*
X011869Y014440D01*
X011791Y014519D01*
X011713Y014519D01*
X011634Y014440D01*
X011634Y014362D01*
X011634Y014440D02*
X011556Y014519D01*
X011477Y014519D01*
X011399Y014440D01*
X011399Y014283D01*
X011477Y014205D01*
X011791Y014721D02*
X011791Y014799D01*
X011869Y014799D01*
X011869Y014721D01*
X011791Y014721D01*
X011791Y014978D02*
X011869Y015057D01*
X011869Y015214D01*
X011791Y015292D01*
X011713Y015292D01*
X011634Y015214D01*
X011634Y015135D01*
X011634Y015214D02*
X011556Y015292D01*
X011477Y015292D01*
X011399Y015214D01*
X011399Y015057D01*
X011477Y014978D01*
X011399Y015494D02*
X011713Y015494D01*
X011869Y015651D01*
X011713Y015808D01*
X011399Y015808D01*
X011029Y015744D02*
X011029Y015980D01*
X010716Y015980D01*
X010716Y016182D02*
X010716Y016260D01*
X011029Y016260D01*
X011029Y016182D02*
X011029Y016338D01*
X011029Y016525D02*
X010716Y016525D01*
X010716Y016761D01*
X010794Y016839D01*
X011029Y016839D01*
X010951Y017041D02*
X010794Y017041D01*
X010716Y017119D01*
X010716Y017276D01*
X010794Y017355D01*
X010951Y017355D01*
X011029Y017276D01*
X011029Y017119D01*
X010951Y017041D01*
X011399Y017041D02*
X011556Y017198D01*
X011399Y017355D01*
X011869Y017355D01*
X011869Y017557D02*
X011399Y017557D01*
X011634Y017557D02*
X011634Y017870D01*
X011556Y018072D02*
X011556Y018386D01*
X011869Y018072D01*
X011869Y018386D01*
X011869Y017870D02*
X011399Y017870D01*
X011029Y018072D02*
X010559Y018072D01*
X010559Y018307D01*
X010637Y018386D01*
X010794Y018386D01*
X010873Y018307D01*
X010873Y018072D01*
X010873Y018588D02*
X010716Y018745D01*
X010716Y018823D01*
X010794Y019018D02*
X010716Y019096D01*
X010716Y019253D01*
X010794Y019331D01*
X010951Y019331D01*
X011029Y019253D01*
X011029Y019096D01*
X010951Y019018D01*
X010794Y019018D01*
X010716Y018588D02*
X011029Y018588D01*
X011029Y020049D02*
X010559Y020049D01*
X010716Y020206D01*
X010559Y020363D01*
X011029Y020363D01*
X011029Y020565D02*
X011029Y020721D01*
X011029Y020643D02*
X010716Y020643D01*
X010716Y020565D01*
X010559Y020643D02*
X010481Y020643D01*
X010716Y020908D02*
X010716Y021144D01*
X010794Y021222D01*
X011029Y021222D01*
X011029Y021424D02*
X011029Y021581D01*
X011029Y021502D02*
X010716Y021502D01*
X010716Y021424D01*
X010559Y021502D02*
X010481Y021502D01*
X010716Y020908D02*
X011029Y020908D01*
X011399Y017041D02*
X011869Y017041D01*
X011791Y016839D02*
X011869Y016761D01*
X011869Y016604D01*
X011791Y016525D01*
X011713Y016525D01*
X011634Y016604D01*
X011634Y016761D01*
X011713Y016839D01*
X011791Y016839D01*
X011634Y016761D02*
X011556Y016839D01*
X011477Y016839D01*
X011399Y016761D01*
X011399Y016604D01*
X011477Y016525D01*
X011556Y016525D01*
X011634Y016604D01*
X011029Y015744D02*
X010951Y015666D01*
X010716Y015666D01*
X010716Y015464D02*
X010716Y015229D01*
X010794Y015150D01*
X010951Y015150D01*
X011029Y015229D01*
X011029Y015464D01*
X010559Y015464D01*
X010716Y014956D02*
X010716Y014877D01*
X010873Y014721D01*
X011029Y014721D02*
X010716Y014721D01*
X010716Y014519D02*
X010559Y014362D01*
X010716Y014205D01*
X011029Y014205D01*
X010794Y014205D02*
X010794Y014519D01*
X010716Y014519D02*
X011029Y014519D01*
X010559Y016260D02*
X010481Y016260D01*
X004369Y019205D02*
X004369Y019440D01*
X004291Y019519D01*
X003977Y019519D01*
X003899Y019440D01*
X003899Y019205D01*
X004369Y019205D01*
X004369Y019721D02*
X004369Y019956D01*
X004291Y020034D01*
X004213Y020034D01*
X004134Y019956D01*
X004134Y019721D01*
X004134Y019956D02*
X004056Y020034D01*
X003977Y020034D01*
X003899Y019956D01*
X003899Y019721D01*
X004369Y019721D01*
X004369Y020236D02*
X004369Y020550D01*
X004369Y020393D02*
X003899Y020393D01*
X004056Y020236D01*
X004134Y020752D02*
X003899Y020752D01*
X003899Y021066D01*
X004056Y020987D02*
X004134Y021066D01*
X004291Y021066D01*
X004369Y020987D01*
X004369Y020830D01*
X004291Y020752D01*
X004134Y020752D02*
X004056Y020909D01*
X004056Y020987D01*
X003977Y021783D02*
X003899Y021862D01*
X003899Y022018D01*
X003977Y022097D01*
X004134Y022299D02*
X004056Y022377D01*
X004056Y022534D01*
X004134Y022612D01*
X004291Y022612D01*
X004369Y022534D01*
X004369Y022377D01*
X004291Y022299D01*
X004134Y022299D01*
X004291Y022097D02*
X004369Y022018D01*
X004369Y021862D01*
X004291Y021783D01*
X003977Y021783D01*
X004056Y022814D02*
X004056Y023050D01*
X004134Y023128D01*
X004369Y023128D01*
X004369Y023330D02*
X004056Y023330D01*
X004056Y023565D01*
X004134Y023644D01*
X004369Y023644D01*
X004291Y023846D02*
X004134Y023846D01*
X004056Y023924D01*
X004056Y024081D01*
X004134Y024159D01*
X004213Y024159D01*
X004213Y023846D01*
X004291Y023846D02*
X004369Y023924D01*
X004369Y024081D01*
X004291Y024361D02*
X004369Y024440D01*
X004369Y024675D01*
X004291Y024955D02*
X004369Y025034D01*
X004291Y024955D02*
X003977Y024955D01*
X004056Y024877D02*
X004056Y025034D01*
X004134Y025221D02*
X004056Y025299D01*
X004056Y025456D01*
X004134Y025534D01*
X004291Y025534D01*
X004369Y025456D01*
X004369Y025299D01*
X004291Y025221D01*
X004134Y025221D01*
X004056Y025736D02*
X004369Y025736D01*
X004213Y025736D02*
X004056Y025893D01*
X004056Y025972D01*
X004056Y024675D02*
X004056Y024440D01*
X004134Y024361D01*
X004291Y024361D01*
X004369Y022814D02*
X004056Y022814D01*
D12*
X008349Y027213D02*
X008349Y027278D01*
X008371Y027300D01*
X008393Y027300D01*
X008414Y027278D01*
X008414Y027213D01*
X008479Y027213D02*
X008349Y027213D01*
X008414Y027278D02*
X008436Y027300D01*
X008458Y027300D01*
X008479Y027278D01*
X008479Y027213D01*
X008458Y027360D02*
X008479Y027382D01*
X008479Y027425D01*
X008458Y027447D01*
X008436Y027447D01*
X008414Y027425D01*
X008414Y027382D01*
X008393Y027360D01*
X008371Y027360D01*
X008349Y027382D01*
X008349Y027425D01*
X008371Y027447D01*
X008349Y027655D02*
X008349Y027720D01*
X008371Y027742D01*
X008414Y027742D01*
X008436Y027720D01*
X008436Y027655D01*
X008479Y027655D02*
X008349Y027655D01*
X008349Y027802D02*
X008479Y027802D01*
X008436Y027846D01*
X008479Y027889D01*
X008349Y027889D01*
X008349Y027950D02*
X008349Y028015D01*
X008371Y028036D01*
X008414Y028036D01*
X008436Y028015D01*
X008436Y027950D01*
X008436Y027993D02*
X008479Y028036D01*
X008479Y027950D02*
X008349Y027950D01*
X010809Y027993D02*
X010853Y028036D01*
X010939Y028036D01*
X010939Y028097D02*
X010939Y028184D01*
X010939Y028097D02*
X010809Y028097D01*
X010874Y028036D02*
X010874Y027950D01*
X010853Y027950D02*
X010809Y027993D01*
X010853Y027950D02*
X010939Y027950D01*
X010939Y027889D02*
X010809Y027889D01*
X010809Y027802D02*
X010939Y027889D01*
X010939Y027802D02*
X010809Y027802D01*
X010831Y027742D02*
X010874Y027742D01*
X010896Y027720D01*
X010896Y027655D01*
X010896Y027698D02*
X010939Y027742D01*
X010939Y027655D02*
X010809Y027655D01*
X010809Y027720D01*
X010831Y027742D01*
X010809Y027594D02*
X010809Y027508D01*
X010939Y027508D01*
X010939Y027594D01*
X010874Y027551D02*
X010874Y027508D01*
X010809Y027447D02*
X010809Y027360D01*
X010809Y027404D02*
X010939Y027404D01*
X010939Y027300D02*
X010809Y027213D01*
X010809Y027152D02*
X010809Y027066D01*
X010939Y027066D01*
X010939Y027152D01*
X010939Y027213D02*
X010809Y027300D01*
X010874Y027109D02*
X010874Y027066D01*
X010914Y026811D02*
X010979Y026811D01*
X010914Y026811D02*
X010893Y026789D01*
X010893Y026724D01*
X010979Y026724D01*
X010979Y026669D02*
X010979Y026626D01*
X010979Y026648D02*
X010893Y026648D01*
X010893Y026626D01*
X010849Y026648D02*
X010828Y026648D01*
X010849Y026565D02*
X010936Y026565D01*
X010979Y026522D01*
X010936Y026479D01*
X010849Y026479D01*
X011049Y027434D02*
X011049Y027499D01*
X011071Y027521D01*
X011114Y027521D01*
X011136Y027499D01*
X011136Y027434D01*
X011179Y027434D02*
X011049Y027434D01*
X011049Y027581D02*
X011179Y027581D01*
X011136Y027625D01*
X011179Y027668D01*
X011049Y027668D01*
X011049Y027729D02*
X011049Y027794D01*
X011071Y027815D01*
X011114Y027815D01*
X011136Y027794D01*
X011136Y027729D01*
X011136Y027772D02*
X011179Y027815D01*
X011179Y027729D02*
X011049Y027729D01*
X010936Y028479D02*
X010849Y028479D01*
X010849Y028565D02*
X010936Y028565D01*
X010979Y028522D01*
X010936Y028479D01*
X010893Y028626D02*
X010893Y028648D01*
X010979Y028648D01*
X010979Y028669D02*
X010979Y028626D01*
X010979Y028724D02*
X010893Y028724D01*
X010893Y028789D01*
X010914Y028811D01*
X010979Y028811D01*
X010849Y028648D02*
X010828Y028648D01*
D13*
X003114Y002780D02*
X003114Y002680D01*
X003314Y002680D01*
X003314Y002780D01*
X003281Y002813D01*
X003248Y002813D01*
X003214Y002780D01*
X003214Y002680D01*
X003214Y002780D02*
X003181Y002813D01*
X003148Y002813D01*
X003114Y002780D01*
X003181Y002901D02*
X003314Y002901D01*
X003248Y002901D02*
X003181Y002968D01*
X003181Y003001D01*
X003181Y003085D02*
X003181Y003119D01*
X003314Y003119D01*
X003314Y003152D02*
X003314Y003085D01*
X003281Y003232D02*
X003314Y003266D01*
X003314Y003366D01*
X003348Y003366D02*
X003181Y003366D01*
X003181Y003266D01*
X003214Y003232D01*
X003281Y003232D01*
X003381Y003299D02*
X003381Y003333D01*
X003348Y003366D01*
X003441Y003376D02*
X003474Y003376D01*
X003541Y003376D02*
X003674Y003376D01*
X003674Y003343D02*
X003674Y003410D01*
X003674Y003490D02*
X003674Y003590D01*
X003641Y003624D01*
X003608Y003590D01*
X003608Y003524D01*
X003574Y003490D01*
X003541Y003524D01*
X003541Y003624D01*
X003541Y003711D02*
X003541Y003745D01*
X003674Y003745D01*
X003674Y003778D02*
X003674Y003711D01*
X003641Y003859D02*
X003574Y003859D01*
X003541Y003892D01*
X003541Y003959D01*
X003574Y003992D01*
X003641Y003992D01*
X003674Y003959D01*
X003674Y003892D01*
X003641Y003859D01*
X003474Y003745D02*
X003441Y003745D01*
X003314Y003741D02*
X003281Y003708D01*
X003148Y003708D01*
X003181Y003741D02*
X003181Y003674D01*
X003214Y003587D02*
X003314Y003587D01*
X003214Y003587D02*
X003181Y003554D01*
X003181Y003487D01*
X003214Y003453D01*
X003114Y003453D02*
X003314Y003453D01*
X003541Y003376D02*
X003541Y003343D01*
X003541Y003255D02*
X003674Y003189D01*
X003541Y003122D01*
X003574Y003034D02*
X003608Y003034D01*
X003608Y002901D01*
X003641Y002901D02*
X003574Y002901D01*
X003541Y002934D01*
X003541Y003001D01*
X003574Y003034D01*
X003674Y003001D02*
X003674Y002934D01*
X003641Y002901D01*
X003674Y002813D02*
X003608Y002747D01*
X003608Y002780D02*
X003608Y002680D01*
X003674Y002680D02*
X003474Y002680D01*
X003474Y002780D01*
X003508Y002813D01*
X003574Y002813D01*
X003608Y002780D01*
X003834Y002780D02*
X003834Y002680D01*
X004034Y002680D01*
X004034Y002780D01*
X004001Y002813D01*
X003868Y002813D01*
X003834Y002780D01*
X003934Y002901D02*
X003901Y002934D01*
X003901Y003001D01*
X003934Y003034D01*
X003968Y003034D01*
X003968Y002901D01*
X004001Y002901D02*
X003934Y002901D01*
X004001Y002901D02*
X004034Y002934D01*
X004034Y003001D01*
X004034Y003122D02*
X004034Y003222D01*
X004001Y003255D01*
X003968Y003222D01*
X003968Y003155D01*
X003934Y003122D01*
X003901Y003155D01*
X003901Y003255D01*
X003901Y003343D02*
X003901Y003376D01*
X004034Y003376D01*
X004034Y003343D02*
X004034Y003410D01*
X004001Y003490D02*
X004034Y003524D01*
X004034Y003624D01*
X004068Y003624D02*
X003901Y003624D01*
X003901Y003524D01*
X003934Y003490D01*
X004001Y003490D01*
X004101Y003557D02*
X004101Y003590D01*
X004068Y003624D01*
X004034Y003711D02*
X003901Y003711D01*
X003901Y003811D01*
X003934Y003845D01*
X004034Y003845D01*
X004001Y003932D02*
X003934Y003932D01*
X003901Y003966D01*
X003901Y004032D01*
X003934Y004066D01*
X003968Y004066D01*
X003968Y003932D01*
X004001Y003932D02*
X004034Y003966D01*
X004034Y004032D01*
X004001Y004153D02*
X003934Y004153D01*
X003901Y004187D01*
X003901Y004287D01*
X003834Y004287D02*
X004034Y004287D01*
X004034Y004187D01*
X004001Y004153D01*
X004261Y004106D02*
X004261Y004039D01*
X004294Y004006D01*
X004361Y004006D01*
X004394Y004039D01*
X004394Y004106D01*
X004361Y004139D01*
X004294Y004139D01*
X004261Y004106D01*
X004261Y004227D02*
X004261Y004327D01*
X004294Y004360D01*
X004394Y004360D01*
X004361Y004448D02*
X004294Y004448D01*
X004261Y004481D01*
X004261Y004548D01*
X004294Y004581D01*
X004328Y004581D01*
X004328Y004448D01*
X004361Y004448D02*
X004394Y004481D01*
X004394Y004548D01*
X004394Y004227D02*
X004261Y004227D01*
X004394Y003925D02*
X004394Y003859D01*
X004394Y003892D02*
X004194Y003892D01*
X004194Y003859D01*
X004294Y003771D02*
X004394Y003771D01*
X004394Y003671D01*
X004361Y003638D01*
X004328Y003671D01*
X004328Y003771D01*
X004294Y003771D02*
X004261Y003738D01*
X004261Y003671D01*
X004194Y003550D02*
X004394Y003550D01*
X004394Y003417D02*
X004194Y003417D01*
X004261Y003483D01*
X004194Y003550D01*
X004261Y003115D02*
X004194Y003048D01*
X004261Y003115D02*
X004328Y003115D01*
X004394Y003048D01*
X004394Y002961D02*
X004394Y002861D01*
X004361Y002827D01*
X004294Y002827D01*
X004261Y002861D01*
X004261Y002961D01*
X004194Y002747D02*
X004261Y002680D01*
X004328Y002680D01*
X004394Y002747D01*
X003834Y003376D02*
X003801Y003376D01*
X003314Y003855D02*
X003281Y003822D01*
X003314Y003855D02*
X003314Y003922D01*
X003281Y003955D01*
X003248Y003955D01*
X003214Y003922D01*
X003214Y003855D01*
X003181Y003822D01*
X003148Y003822D01*
X003114Y003855D01*
X003114Y003922D01*
X003148Y003955D01*
X003181Y004043D02*
X003181Y004076D01*
X003314Y004076D01*
X003314Y004043D02*
X003314Y004109D01*
X003281Y004190D02*
X003314Y004223D01*
X003314Y004324D01*
X003348Y004324D02*
X003181Y004324D01*
X003181Y004223D01*
X003214Y004190D01*
X003281Y004190D01*
X003381Y004257D02*
X003381Y004290D01*
X003348Y004324D01*
X003314Y004411D02*
X003181Y004411D01*
X003181Y004511D01*
X003214Y004545D01*
X003314Y004545D01*
X003474Y004588D02*
X003674Y004588D01*
X003674Y004522D02*
X003674Y004655D01*
X003834Y004595D02*
X004034Y004595D01*
X004034Y004695D01*
X004001Y004729D01*
X003934Y004729D01*
X003901Y004695D01*
X003901Y004595D01*
X003901Y004816D02*
X004001Y004816D01*
X004034Y004850D01*
X004034Y004950D01*
X004068Y004950D02*
X004101Y004916D01*
X004101Y004883D01*
X004068Y004950D02*
X003901Y004950D01*
X003901Y005037D02*
X003934Y005037D01*
X003934Y005071D01*
X003901Y005071D01*
X003901Y005037D01*
X004001Y005037D02*
X004034Y005037D01*
X004034Y005071D01*
X004001Y005071D01*
X004001Y005037D01*
X004194Y004990D02*
X004194Y004890D01*
X004394Y004890D01*
X004394Y004990D01*
X004361Y005023D01*
X004228Y005023D01*
X004194Y004990D01*
X004294Y005111D02*
X004261Y005144D01*
X004261Y005211D01*
X004294Y005244D01*
X004328Y005244D01*
X004328Y005111D01*
X004361Y005111D02*
X004294Y005111D01*
X004361Y005111D02*
X004394Y005144D01*
X004394Y005211D01*
X004394Y005332D02*
X004394Y005432D01*
X004361Y005465D01*
X004328Y005432D01*
X004328Y005365D01*
X004294Y005332D01*
X004261Y005365D01*
X004261Y005465D01*
X004261Y005553D02*
X004261Y005586D01*
X004394Y005586D01*
X004394Y005553D02*
X004394Y005620D01*
X004361Y005700D02*
X004394Y005734D01*
X004394Y005834D01*
X004428Y005834D02*
X004261Y005834D01*
X004261Y005734D01*
X004294Y005700D01*
X004361Y005700D01*
X004461Y005767D02*
X004461Y005800D01*
X004428Y005834D01*
X004394Y005921D02*
X004261Y005921D01*
X004261Y006021D01*
X004294Y006055D01*
X004394Y006055D01*
X004394Y006142D02*
X004194Y006276D01*
X004194Y006363D02*
X004194Y006497D01*
X004294Y006430D02*
X004294Y006363D01*
X004394Y006363D02*
X004194Y006363D01*
X004261Y006617D02*
X004261Y006684D01*
X004294Y006718D01*
X004394Y006718D01*
X004394Y006617D01*
X004361Y006584D01*
X004328Y006617D01*
X004328Y006718D01*
X004394Y006805D02*
X004194Y006805D01*
X004261Y006805D02*
X004261Y006905D01*
X004294Y006939D01*
X004361Y006939D01*
X004394Y006905D01*
X004394Y006805D01*
X004394Y007026D02*
X004261Y007026D01*
X004328Y007026D02*
X004261Y007093D01*
X004261Y007126D01*
X004261Y007210D02*
X004261Y007244D01*
X004394Y007244D01*
X004394Y007277D02*
X004394Y007210D01*
X004361Y007358D02*
X004394Y007391D01*
X004394Y007491D01*
X004361Y007579D02*
X004328Y007612D01*
X004328Y007712D01*
X004294Y007712D02*
X004394Y007712D01*
X004394Y007612D01*
X004361Y007579D01*
X004261Y007612D02*
X004261Y007679D01*
X004294Y007712D01*
X004261Y007800D02*
X004261Y007866D01*
X004228Y007833D02*
X004361Y007833D01*
X004394Y007866D01*
X004394Y007947D02*
X004394Y008014D01*
X004394Y007980D02*
X004261Y007980D01*
X004261Y007947D01*
X004194Y007980D02*
X004161Y007980D01*
X004294Y008094D02*
X004361Y008094D01*
X004394Y008128D01*
X004394Y008194D01*
X004361Y008228D01*
X004294Y008228D01*
X004261Y008194D01*
X004261Y008128D01*
X004294Y008094D01*
X004261Y008315D02*
X004261Y008415D01*
X004294Y008449D01*
X004394Y008449D01*
X004394Y008315D02*
X004261Y008315D01*
X004261Y007491D02*
X004261Y007391D01*
X004294Y007358D01*
X004361Y007358D01*
X004194Y007244D02*
X004161Y007244D01*
X004034Y005944D02*
X003834Y005944D01*
X003901Y005877D01*
X003834Y005811D01*
X004034Y005811D01*
X004034Y005723D02*
X003834Y005723D01*
X003901Y005656D01*
X003834Y005590D01*
X004034Y005590D01*
X004001Y005502D02*
X004034Y005469D01*
X004034Y005402D01*
X004001Y005369D01*
X003868Y005369D01*
X003834Y005402D01*
X003834Y005469D01*
X003868Y005502D01*
X004161Y005586D02*
X004194Y005586D01*
X003474Y004588D02*
X003541Y004522D01*
X003574Y004213D02*
X003674Y004213D01*
X003574Y004213D02*
X003541Y004180D01*
X003541Y004080D01*
X003674Y004080D01*
X003281Y004853D02*
X003314Y004886D01*
X003314Y004953D01*
X003281Y004986D01*
X003248Y004986D01*
X003214Y004953D01*
X003214Y004886D01*
X003181Y004853D01*
X003148Y004853D01*
X003114Y004886D01*
X003114Y004953D01*
X003148Y004986D01*
X003181Y005074D02*
X003181Y005107D01*
X003214Y005141D01*
X003181Y005174D01*
X003214Y005207D01*
X003314Y005207D01*
X003314Y005141D02*
X003214Y005141D01*
X003181Y005074D02*
X003314Y005074D01*
X003281Y005295D02*
X003248Y005328D01*
X003248Y005428D01*
X003214Y005428D02*
X003314Y005428D01*
X003314Y005328D01*
X003281Y005295D01*
X003181Y005328D02*
X003181Y005395D01*
X003214Y005428D01*
X003181Y005516D02*
X003314Y005516D01*
X003248Y005516D02*
X003181Y005583D01*
X003181Y005616D01*
X003181Y005700D02*
X003181Y005767D01*
X003148Y005734D02*
X003281Y005734D01*
X003314Y005767D01*
X003314Y006068D02*
X003314Y006135D01*
X003314Y006102D02*
X003114Y006102D01*
X003114Y006135D02*
X003114Y006068D01*
X003181Y006216D02*
X003181Y006316D01*
X003214Y006349D01*
X003314Y006349D01*
X003281Y006470D02*
X003148Y006470D01*
X003181Y006437D02*
X003181Y006504D01*
X003214Y006584D02*
X003181Y006617D01*
X003181Y006684D01*
X003214Y006718D01*
X003248Y006718D01*
X003248Y006584D01*
X003281Y006584D02*
X003214Y006584D01*
X003281Y006584D02*
X003314Y006617D01*
X003314Y006684D01*
X003314Y006805D02*
X003181Y006805D01*
X003248Y006805D02*
X003181Y006872D01*
X003181Y006905D01*
X003214Y006989D02*
X003214Y007056D01*
X003148Y007023D02*
X003114Y007056D01*
X003148Y007023D02*
X003314Y007023D01*
X003281Y007137D02*
X003248Y007170D01*
X003248Y007270D01*
X003214Y007270D02*
X003314Y007270D01*
X003314Y007170D01*
X003281Y007137D01*
X003181Y007170D02*
X003181Y007237D01*
X003214Y007270D01*
X003214Y007358D02*
X003281Y007358D01*
X003314Y007391D01*
X003314Y007491D01*
X003281Y007579D02*
X003214Y007579D01*
X003181Y007612D01*
X003181Y007679D01*
X003214Y007712D01*
X003248Y007712D01*
X003248Y007579D01*
X003281Y007579D02*
X003314Y007612D01*
X003314Y007679D01*
X003181Y007491D02*
X003181Y007391D01*
X003214Y007358D01*
X003314Y006504D02*
X003281Y006470D01*
X003314Y006216D02*
X003181Y006216D01*
X003114Y004076D02*
X003081Y004076D01*
X003081Y003119D02*
X003114Y003119D01*
X016534Y026307D02*
X016634Y026307D01*
X016601Y026373D01*
X016601Y026407D01*
X016634Y026440D01*
X016701Y026440D01*
X016734Y026407D01*
X016734Y026340D01*
X016701Y026307D01*
X016534Y026307D02*
X016534Y026440D01*
X016701Y026528D02*
X016701Y026561D01*
X016734Y026561D01*
X016734Y026528D01*
X016701Y026528D01*
X016701Y026638D02*
X016734Y026672D01*
X016734Y026738D01*
X016701Y026772D01*
X016634Y026772D01*
X016601Y026738D01*
X016601Y026705D01*
X016634Y026638D01*
X016534Y026638D01*
X016534Y026772D01*
X016601Y026859D02*
X016601Y026893D01*
X016634Y026926D01*
X016601Y026959D01*
X016634Y026993D01*
X016734Y026993D01*
X016734Y026926D02*
X016634Y026926D01*
X016601Y026859D02*
X016734Y026859D01*
X016734Y027080D02*
X016601Y027080D01*
X016601Y027114D01*
X016634Y027147D01*
X016601Y027180D01*
X016634Y027214D01*
X016734Y027214D01*
X016734Y027147D02*
X016634Y027147D01*
X016668Y027522D02*
X016668Y027622D01*
X016634Y027656D01*
X016568Y027656D01*
X016534Y027622D01*
X016534Y027522D01*
X016734Y027522D01*
X016734Y027743D02*
X016534Y027743D01*
X016534Y027877D02*
X016734Y027877D01*
X016668Y027810D01*
X016734Y027743D01*
X016734Y027964D02*
X016534Y027964D01*
X016534Y028064D01*
X016568Y028098D01*
X016634Y028098D01*
X016668Y028064D01*
X016668Y027964D01*
X016668Y028031D02*
X016734Y028098D01*
X016701Y028406D02*
X016734Y028439D01*
X016734Y028473D01*
X016701Y028506D01*
X016534Y028506D01*
X016534Y028473D02*
X016534Y028540D01*
X016601Y028660D02*
X016601Y028727D01*
X016634Y028761D01*
X016734Y028761D01*
X016734Y028660D01*
X016701Y028627D01*
X016668Y028660D01*
X016668Y028761D01*
X016701Y028848D02*
X016734Y028881D01*
X016734Y028982D01*
X016734Y029069D02*
X016534Y029069D01*
X016601Y028982D02*
X016601Y028881D01*
X016634Y028848D01*
X016701Y028848D01*
X016668Y029069D02*
X016601Y029169D01*
X016668Y029069D02*
X016734Y029169D01*
D14*
X010494Y009330D02*
X010494Y008990D01*
X010267Y009330D01*
X010267Y008990D01*
X010135Y008990D02*
X010022Y008990D01*
X010078Y008990D02*
X010078Y009330D01*
X010022Y009330D02*
X010135Y009330D01*
X009880Y009330D02*
X009880Y009103D01*
X009767Y008990D01*
X009653Y009103D01*
X009653Y009330D01*
X009649Y008330D02*
X009592Y008274D01*
X009592Y008047D01*
X009649Y007990D01*
X009762Y007990D01*
X009819Y008047D01*
X009819Y008160D01*
X009705Y008160D01*
X009819Y008274D02*
X009762Y008330D01*
X009649Y008330D01*
X009960Y008330D02*
X009960Y007990D01*
X010187Y007990D02*
X009960Y008330D01*
X010187Y008330D02*
X010187Y007990D01*
X010329Y007990D02*
X010329Y008330D01*
X010499Y008330D01*
X010555Y008274D01*
X010555Y008047D01*
X010499Y007990D01*
X010329Y007990D01*
X010322Y007330D02*
X010209Y007330D01*
X010152Y007274D01*
X010266Y007160D02*
X010322Y007160D01*
X010379Y007103D01*
X010379Y007047D01*
X010322Y006990D01*
X010209Y006990D01*
X010152Y007047D01*
X010025Y007047D02*
X010025Y006990D01*
X009968Y006990D01*
X009968Y007047D01*
X010025Y007047D01*
X009827Y007047D02*
X009770Y006990D01*
X009657Y006990D01*
X009600Y007047D01*
X009713Y007160D02*
X009770Y007160D01*
X009827Y007103D01*
X009827Y007047D01*
X009770Y007160D02*
X009827Y007217D01*
X009827Y007274D01*
X009770Y007330D01*
X009657Y007330D01*
X009600Y007274D01*
X009689Y006330D02*
X009576Y006217D01*
X009689Y006330D02*
X009689Y005990D01*
X009576Y005990D02*
X009803Y005990D01*
X009944Y006047D02*
X010001Y005990D01*
X010115Y005990D01*
X010171Y006047D01*
X010171Y006103D01*
X010115Y006160D01*
X010058Y006160D01*
X010115Y006160D02*
X010171Y006217D01*
X010171Y006274D01*
X010115Y006330D01*
X010001Y006330D01*
X009944Y006274D01*
X010001Y005330D02*
X009944Y005274D01*
X010001Y005330D02*
X010115Y005330D01*
X010171Y005274D01*
X010171Y005217D01*
X009944Y004990D01*
X010171Y004990D01*
X009803Y004990D02*
X009576Y004990D01*
X009689Y004990D02*
X009689Y005330D01*
X009576Y005217D01*
X009689Y004330D02*
X009576Y004217D01*
X009689Y004330D02*
X009689Y003990D01*
X009576Y003990D02*
X009803Y003990D01*
X009944Y003990D02*
X010171Y003990D01*
X010058Y003990D02*
X010058Y004330D01*
X009944Y004217D01*
X010001Y003330D02*
X010115Y003330D01*
X010171Y003274D01*
X009944Y003047D01*
X010001Y002990D01*
X010115Y002990D01*
X010171Y003047D01*
X010171Y003274D01*
X010001Y003330D02*
X009944Y003274D01*
X009944Y003047D01*
X009803Y002990D02*
X009576Y002990D01*
X009689Y002990D02*
X009689Y003330D01*
X009576Y003217D01*
X009592Y002330D02*
X009762Y002330D01*
X009819Y002274D01*
X009819Y002160D01*
X009762Y002103D01*
X009592Y002103D01*
X009592Y001990D02*
X009592Y002330D01*
X009705Y002103D02*
X009819Y001990D01*
X009960Y001990D02*
X010187Y002330D01*
X010329Y002217D02*
X010442Y002330D01*
X010442Y001990D01*
X010329Y001990D02*
X010555Y001990D01*
X010187Y001990D02*
X009960Y002330D01*
X009960Y001330D02*
X010187Y000990D01*
X010329Y001047D02*
X010555Y001274D01*
X010555Y001047D01*
X010499Y000990D01*
X010385Y000990D01*
X010329Y001047D01*
X010329Y001274D01*
X010385Y001330D01*
X010499Y001330D01*
X010555Y001274D01*
X010187Y001330D02*
X009960Y000990D01*
X009705Y000990D02*
X009705Y001330D01*
X009592Y001330D02*
X009819Y001330D01*
X007184Y001308D02*
X007184Y001194D01*
X007128Y001138D01*
X007014Y001194D02*
X007014Y001308D01*
X007071Y001364D01*
X007128Y001364D01*
X007184Y001308D01*
X007184Y001506D02*
X007184Y001733D01*
X007184Y001874D02*
X006844Y001874D01*
X006844Y002044D01*
X006901Y002101D01*
X007014Y002101D01*
X007071Y002044D01*
X007071Y001874D01*
X007071Y001988D02*
X007184Y002101D01*
X006844Y001733D02*
X006844Y001506D01*
X007184Y001506D01*
X007014Y001506D02*
X007014Y001619D01*
X006901Y001364D02*
X006844Y001308D01*
X006844Y001194D01*
X006901Y001138D01*
X006958Y001138D01*
X007014Y001194D01*
X006958Y004199D02*
X007014Y004256D01*
X007014Y004369D01*
X007071Y004426D01*
X007128Y004426D01*
X007184Y004369D01*
X007184Y004256D01*
X007128Y004199D01*
X006958Y004199D02*
X006901Y004199D01*
X006844Y004256D01*
X006844Y004369D01*
X006901Y004426D01*
X006844Y004567D02*
X006844Y004737D01*
X006901Y004794D01*
X007014Y004794D01*
X007071Y004737D01*
X007071Y004567D01*
X007184Y004567D02*
X006844Y004567D01*
X006844Y004936D02*
X006844Y005049D01*
X006844Y004992D02*
X007184Y004992D01*
X007184Y004936D02*
X007184Y005049D01*
X010322Y007160D02*
X010379Y007217D01*
X010379Y007274D01*
X010322Y007330D01*
X010521Y007330D02*
X010521Y007103D01*
X010634Y006990D01*
X010747Y007103D01*
X010747Y007330D01*
X013576Y007217D02*
X013576Y006990D01*
X013576Y007160D02*
X013803Y007160D01*
X013803Y007217D02*
X013803Y006990D01*
X013944Y007047D02*
X014001Y006990D01*
X014115Y006990D01*
X014171Y007047D01*
X014171Y007103D01*
X014115Y007160D01*
X013944Y007160D01*
X013944Y007047D01*
X013944Y007160D02*
X014058Y007274D01*
X014171Y007330D01*
X013803Y007217D02*
X013689Y007330D01*
X013576Y007217D01*
X013576Y007990D02*
X013576Y008217D01*
X013689Y008330D01*
X013803Y008217D01*
X013803Y007990D01*
X013944Y007990D02*
X013944Y008047D01*
X014171Y008274D01*
X014171Y008330D01*
X013944Y008330D01*
X013803Y008160D02*
X013576Y008160D01*
X013689Y006330D02*
X013576Y006217D01*
X013576Y005990D01*
X013576Y006160D02*
X013803Y006160D01*
X013803Y006217D02*
X013803Y005990D01*
X013944Y006047D02*
X014001Y005990D01*
X014115Y005990D01*
X014171Y006047D01*
X014171Y006160D01*
X014115Y006217D01*
X014058Y006217D01*
X013944Y006160D01*
X013944Y006330D01*
X014171Y006330D01*
X013803Y006217D02*
X013689Y006330D01*
X013689Y005330D02*
X013576Y005217D01*
X013576Y004990D01*
X013576Y005160D02*
X013803Y005160D01*
X013803Y005217D02*
X013803Y004990D01*
X013944Y005160D02*
X014171Y005160D01*
X014115Y004990D02*
X014115Y005330D01*
X013944Y005160D01*
X013803Y005217D02*
X013689Y005330D01*
X013689Y004330D02*
X013576Y004217D01*
X013576Y003990D01*
X013576Y004160D02*
X013803Y004160D01*
X013803Y004217D02*
X013803Y003990D01*
X013944Y004047D02*
X014001Y003990D01*
X014115Y003990D01*
X014171Y004047D01*
X014171Y004103D01*
X014115Y004160D01*
X014058Y004160D01*
X014115Y004160D02*
X014171Y004217D01*
X014171Y004274D01*
X014115Y004330D01*
X014001Y004330D01*
X013944Y004274D01*
X013803Y004217D02*
X013689Y004330D01*
X013689Y003330D02*
X013576Y003217D01*
X013576Y002990D01*
X013576Y003160D02*
X013803Y003160D01*
X013803Y003217D02*
X013803Y002990D01*
X013944Y002990D02*
X014171Y003217D01*
X014171Y003274D01*
X014115Y003330D01*
X014001Y003330D01*
X013944Y003274D01*
X013803Y003217D02*
X013689Y003330D01*
X013944Y002990D02*
X014171Y002990D01*
X014058Y002330D02*
X013944Y002217D01*
X013803Y002217D02*
X013803Y001990D01*
X013944Y001990D02*
X014171Y001990D01*
X014058Y001990D02*
X014058Y002330D01*
X013803Y002217D02*
X013689Y002330D01*
X013576Y002217D01*
X013576Y001990D01*
X013576Y002160D02*
X013803Y002160D01*
X013689Y001330D02*
X013576Y001217D01*
X013576Y000990D01*
X013576Y001160D02*
X013803Y001160D01*
X013803Y001217D02*
X013803Y000990D01*
X013944Y001047D02*
X014171Y001274D01*
X014171Y001047D01*
X014115Y000990D01*
X014001Y000990D01*
X013944Y001047D01*
X013944Y001274D01*
X014001Y001330D01*
X014115Y001330D01*
X014171Y001274D01*
X013803Y001217D02*
X013689Y001330D01*
X016044Y005199D02*
X016044Y005312D01*
X016044Y005256D02*
X016384Y005256D01*
X016384Y005312D02*
X016384Y005199D01*
X016384Y005444D02*
X016158Y005671D01*
X016101Y005671D01*
X016044Y005615D01*
X016044Y005501D01*
X016101Y005444D01*
X016101Y005813D02*
X016328Y005813D01*
X016384Y005869D01*
X016384Y005983D01*
X016328Y006040D01*
X016384Y005671D02*
X016384Y005444D01*
X016101Y005813D02*
X016044Y005869D01*
X016044Y005983D01*
X016101Y006040D01*
D15*
X015819Y025385D02*
X015586Y025735D01*
X015451Y025619D02*
X015451Y025385D01*
X015586Y025385D02*
X015819Y025735D01*
X015451Y025619D02*
X015334Y025735D01*
X015218Y025619D01*
X015218Y025385D01*
X015083Y025385D02*
X015083Y025735D01*
X014966Y025619D01*
X014849Y025735D01*
X014849Y025385D01*
X015218Y025560D02*
X015451Y025560D01*
X014346Y025443D02*
X014288Y025385D01*
X014171Y025385D01*
X014113Y025443D01*
X014113Y025677D01*
X014171Y025735D01*
X014288Y025735D01*
X014346Y025677D01*
X013978Y025677D02*
X013978Y025443D01*
X013919Y025385D01*
X013744Y025385D01*
X013744Y025735D01*
X013919Y025735D01*
X013978Y025677D01*
X013610Y025735D02*
X013610Y025502D01*
X013493Y025385D01*
X013376Y025502D01*
X013376Y025735D01*
X013241Y025735D02*
X013124Y025677D01*
X013008Y025560D01*
X013183Y025560D01*
X013241Y025502D01*
X013241Y025443D01*
X013183Y025385D01*
X013066Y025385D01*
X013008Y025443D01*
X013008Y025560D01*
X012873Y025385D02*
X012639Y025385D01*
X012756Y025385D02*
X012756Y025735D01*
X012639Y025619D01*
M02*
