%
M48
M72
T01C0.0236
T02C0.0400
T03C0.0433
T04C0.0512
T05C0.1102
T06C0.1260
%
T01
X7714Y21760
X12814Y17560
X15914Y17560
X16414Y16860
X16414Y15360
T02
X14914Y15160
X14914Y14160
X14914Y13160
X14914Y12160
X13789Y14598
X13789Y15598
X14914Y16160
X14914Y17160
X14914Y18160
X14914Y19160
X14914Y20160
X14914Y21160
X14914Y22160
X14914Y23160
X14414Y24160
X13414Y24160
X12414Y24160
X11414Y24160
X10414Y24160
X9414Y24160
X8914Y23160
X8914Y22160
X8914Y21160
X8914Y20160
X8914Y19160
X8914Y18160
X8914Y17160
X8914Y16160
X8914Y15160
X8914Y14160
X8914Y13160
X8914Y12160
X8914Y9160
X8914Y8160
X8914Y7160
X8914Y6160
X8914Y5160
X8914Y4160
X8914Y3160
X8914Y2160
X8914Y1160
X14914Y1160
X14914Y2160
X14914Y3160
X14914Y4160
X14914Y5160
X14914Y6160
X14914Y7160
X14914Y8160
X13789Y18723
X13789Y19723
X10164Y27160
X10164Y28160
X9164Y28160
X9164Y27160
T03
X6723Y26190
X6723Y25111
X6723Y24032
X6723Y22953
X6723Y21875
X6723Y20796
X6723Y19717
X6723Y18638
X5605Y19178
X5605Y20256
X5605Y21335
X5605Y22414
X5605Y23493
X5605Y24571
X5605Y25674
T04
X12021Y27660
X13202Y29550
X14304Y27660
T05
X3164Y910
X3164Y9410
X16664Y9410
X16664Y910
X16664Y24910
T06
X6164Y28969
X6164Y15851
M30
