G75*
%MOIN*%
%OFA0B0*%
%FSLAX24Y24*%
%IPPOS*%
%LPD*%
%AMOC8*
5,1,8,0,0,1.08239X$1,22.5*
%
%ADD10R,0.0740X0.0740*%
%ADD11C,0.0740*%
%ADD12R,0.0709X0.0630*%
%ADD13R,0.0950X0.0950*%
%ADD14C,0.0950*%
%ADD15R,0.0800X0.0800*%
%ADD16C,0.0800*%
%ADD17R,0.1000X0.0200*%
%ADD18C,0.0160*%
%ADD19C,0.0376*%
D10*
X010050Y012680D03*
D11*
X009050Y012680D03*
X008050Y012680D03*
X007050Y012680D03*
X006050Y012680D03*
X005050Y012680D03*
X004050Y012680D03*
X003050Y012680D03*
X003050Y006680D03*
X002050Y006680D03*
X004050Y006680D03*
X005050Y006680D03*
X006050Y006680D03*
X007050Y006680D03*
X008050Y006680D03*
X009050Y006680D03*
X010050Y006680D03*
D12*
X008030Y005131D03*
X006980Y005131D03*
X005880Y005131D03*
X004780Y005131D03*
X004780Y004029D03*
X005880Y004029D03*
X006980Y004029D03*
X008030Y004029D03*
X007880Y014429D03*
X006880Y014429D03*
X005880Y014429D03*
X005880Y015531D03*
X006880Y015531D03*
X007880Y015531D03*
X008880Y015531D03*
X008880Y014429D03*
D13*
X015180Y016180D03*
X019310Y016180D03*
X023460Y016180D03*
X027590Y016180D03*
X031720Y016180D03*
X035850Y016180D03*
X039980Y016180D03*
X044110Y016180D03*
X019820Y001580D03*
X015680Y001580D03*
D14*
X014302Y001580D03*
X012924Y001580D03*
X017064Y001580D03*
X018442Y001580D03*
X017932Y016180D03*
X016554Y016180D03*
X013802Y016180D03*
X012424Y016180D03*
X020704Y016180D03*
X022082Y016180D03*
X024834Y016180D03*
X026212Y016180D03*
X028964Y016180D03*
X030342Y016180D03*
X033094Y016180D03*
X034472Y016180D03*
X037224Y016180D03*
X038602Y016180D03*
X041354Y016180D03*
X042732Y016180D03*
D15*
X043580Y012080D03*
X043580Y009330D03*
X043580Y006580D03*
X043580Y003820D03*
X043580Y001050D03*
D16*
X043580Y002428D03*
X043580Y005198D03*
X043580Y007958D03*
X043580Y010708D03*
X043580Y013458D03*
D17*
X028080Y005780D03*
X028080Y005280D03*
X028080Y004780D03*
X028080Y004280D03*
X028080Y003780D03*
X028080Y003280D03*
X028080Y002780D03*
X028080Y002280D03*
X028080Y001780D03*
X024080Y001780D03*
X024080Y002280D03*
X024080Y002780D03*
X024080Y003280D03*
X024080Y003780D03*
X024080Y004280D03*
X024080Y004780D03*
X024080Y005280D03*
X024080Y005780D03*
D18*
X000410Y007970D02*
X000410Y000410D01*
X001215Y000410D01*
X001138Y000487D01*
X001019Y000775D01*
X001019Y001085D01*
X001138Y001373D01*
X001357Y001592D01*
X001645Y001711D01*
X001955Y001711D01*
X002243Y001592D01*
X002462Y001373D01*
X002581Y001085D01*
X002581Y000775D01*
X002462Y000487D01*
X002385Y000410D01*
X009715Y000410D01*
X009638Y000487D01*
X009519Y000775D01*
X009519Y001085D01*
X009638Y001373D01*
X009857Y001592D01*
X010145Y001711D01*
X010455Y001711D01*
X010743Y001592D01*
X010962Y001373D01*
X011081Y001085D01*
X011081Y000775D01*
X010962Y000487D01*
X010885Y000410D01*
X013698Y000410D01*
X013161Y000947D01*
X013058Y000905D01*
X012790Y000905D01*
X012542Y001008D01*
X012352Y001198D01*
X012249Y001446D01*
X012249Y001714D01*
X012291Y001817D01*
X010359Y003749D01*
X008584Y003749D01*
X008584Y003631D01*
X008467Y003514D01*
X007593Y003514D01*
X007505Y003602D01*
X007417Y003514D01*
X006543Y003514D01*
X006430Y003627D01*
X006317Y003514D01*
X005443Y003514D01*
X005330Y003627D01*
X005217Y003514D01*
X004343Y003514D01*
X004226Y003631D01*
X004226Y003749D01*
X004106Y003749D01*
X003994Y003749D01*
X003891Y003791D01*
X003813Y003870D01*
X003770Y003973D01*
X003770Y006179D01*
X003727Y006197D01*
X003567Y006357D01*
X003538Y006426D01*
X003520Y006392D01*
X003470Y006322D01*
X003408Y006260D01*
X003338Y006210D01*
X003261Y006170D01*
X003179Y006144D01*
X003093Y006130D01*
X003070Y006130D01*
X003070Y006660D01*
X003030Y006660D01*
X003030Y006130D01*
X003007Y006130D01*
X002921Y006144D01*
X002839Y006170D01*
X002762Y006210D01*
X002692Y006260D01*
X002630Y006322D01*
X002580Y006392D01*
X002562Y006426D01*
X002533Y006357D01*
X002373Y006197D01*
X002163Y006110D01*
X001937Y006110D01*
X001727Y006197D01*
X001567Y006357D01*
X001480Y006567D01*
X001480Y006793D01*
X001498Y006836D01*
X000443Y007891D01*
X000410Y007970D01*
X000410Y007947D02*
X000420Y007947D01*
X000410Y007788D02*
X000546Y007788D01*
X000410Y007630D02*
X000705Y007630D01*
X000863Y007471D02*
X000410Y007471D01*
X000410Y007313D02*
X001022Y007313D01*
X001180Y007154D02*
X000410Y007154D01*
X000410Y006996D02*
X001339Y006996D01*
X001497Y006837D02*
X000410Y006837D01*
X000410Y006679D02*
X001480Y006679D01*
X001499Y006520D02*
X000410Y006520D01*
X000410Y006362D02*
X001565Y006362D01*
X001721Y006203D02*
X000410Y006203D01*
X000410Y006045D02*
X003770Y006045D01*
X003770Y005886D02*
X000410Y005886D01*
X000410Y005728D02*
X003770Y005728D01*
X003770Y005569D02*
X000410Y005569D01*
X000410Y005411D02*
X003770Y005411D01*
X003770Y005252D02*
X000410Y005252D01*
X000410Y005094D02*
X003770Y005094D01*
X003770Y004935D02*
X000410Y004935D01*
X000410Y004777D02*
X003770Y004777D01*
X003770Y004618D02*
X000410Y004618D01*
X000410Y004460D02*
X003770Y004460D01*
X003770Y004301D02*
X000410Y004301D01*
X000410Y004143D02*
X003770Y004143D01*
X003770Y003984D02*
X000410Y003984D01*
X000410Y003826D02*
X003857Y003826D01*
X004050Y004029D02*
X004050Y006680D01*
X004050Y008910D01*
X001580Y011380D01*
X001580Y012680D01*
X004431Y015531D01*
X005880Y015531D01*
X006880Y015531D01*
X007880Y015531D01*
X008880Y015531D01*
X009434Y015555D02*
X012170Y015555D01*
X012290Y015505D02*
X012042Y015608D01*
X011852Y015798D01*
X011809Y015900D01*
X009434Y015900D01*
X009434Y015133D01*
X009317Y015016D01*
X008443Y015016D01*
X008380Y015079D01*
X008380Y015079D01*
X008317Y015016D01*
X007443Y015016D01*
X007380Y015079D01*
X007380Y015079D01*
X007317Y015016D01*
X006443Y015016D01*
X006380Y015079D01*
X006380Y015079D01*
X006317Y015016D01*
X005443Y015016D01*
X005326Y015133D01*
X005326Y015251D01*
X004547Y015251D01*
X001860Y012564D01*
X001860Y011496D01*
X004287Y009069D01*
X004330Y008966D01*
X004330Y007181D01*
X004373Y007163D01*
X004533Y007003D01*
X004550Y006962D01*
X004567Y007003D01*
X004727Y007163D01*
X004937Y007250D01*
X005163Y007250D01*
X005373Y007163D01*
X005533Y007003D01*
X005550Y006962D01*
X005567Y007003D01*
X005727Y007163D01*
X005937Y007250D01*
X006163Y007250D01*
X006373Y007163D01*
X006533Y007003D01*
X006550Y006962D01*
X006567Y007003D01*
X006727Y007163D01*
X006937Y007250D01*
X007163Y007250D01*
X007373Y007163D01*
X007533Y007003D01*
X007550Y006962D01*
X007567Y007003D01*
X007727Y007163D01*
X007937Y007250D01*
X008163Y007250D01*
X008373Y007163D01*
X008533Y007003D01*
X008550Y006962D01*
X008567Y007003D01*
X008727Y007163D01*
X008937Y007250D01*
X009163Y007250D01*
X009373Y007163D01*
X009533Y007003D01*
X009550Y006962D01*
X009567Y007003D01*
X009727Y007163D01*
X009937Y007250D01*
X010163Y007250D01*
X010373Y007163D01*
X010533Y007003D01*
X010620Y006793D01*
X010620Y006567D01*
X010533Y006357D01*
X010373Y006197D01*
X010163Y006110D01*
X009937Y006110D01*
X009727Y006197D01*
X009567Y006357D01*
X009550Y006398D01*
X009533Y006357D01*
X009373Y006197D01*
X009163Y006110D01*
X008937Y006110D01*
X008727Y006197D01*
X008567Y006357D01*
X008550Y006398D01*
X008533Y006357D01*
X008373Y006197D01*
X008310Y006171D01*
X008310Y005646D01*
X008467Y005646D01*
X008584Y005529D01*
X008584Y004733D01*
X008467Y004616D01*
X007593Y004616D01*
X007505Y004704D01*
X007417Y004616D01*
X006543Y004616D01*
X006430Y004729D01*
X006317Y004616D01*
X005443Y004616D01*
X005330Y004729D01*
X005217Y004616D01*
X004343Y004616D01*
X004330Y004629D01*
X004330Y004531D01*
X004343Y004544D01*
X005217Y004544D01*
X005330Y004431D01*
X005443Y004544D01*
X006317Y004544D01*
X006430Y004431D01*
X006543Y004544D01*
X007417Y004544D01*
X007505Y004456D01*
X007593Y004544D01*
X008467Y004544D01*
X008584Y004427D01*
X008584Y004309D01*
X010531Y004309D01*
X010634Y004266D01*
X010713Y004187D01*
X010713Y004187D01*
X012687Y002213D01*
X012790Y002255D01*
X013058Y002255D01*
X013306Y002152D01*
X013496Y001962D01*
X013599Y001714D01*
X013599Y001446D01*
X013557Y001343D01*
X014040Y000860D01*
X015948Y000860D01*
X016013Y000925D01*
X015718Y000925D01*
X015718Y001542D01*
X015718Y001618D01*
X015642Y001618D01*
X015642Y001542D01*
X015025Y001542D01*
X015025Y001081D01*
X015037Y001036D01*
X015061Y000994D01*
X015094Y000961D01*
X015136Y000937D01*
X015181Y000925D01*
X015642Y000925D01*
X015642Y001542D01*
X015718Y001542D01*
X016335Y001542D01*
X016335Y001247D01*
X016431Y001343D01*
X016389Y001446D01*
X016389Y001714D01*
X016492Y001962D01*
X016682Y002152D01*
X016930Y002255D01*
X017198Y002255D01*
X017446Y002152D01*
X017636Y001962D01*
X017739Y001714D01*
X017739Y001446D01*
X017697Y001343D01*
X018180Y000860D01*
X020564Y000860D01*
X023221Y003517D01*
X023324Y003560D01*
X023445Y003560D01*
X023436Y003569D01*
X023412Y003611D01*
X023400Y003656D01*
X023400Y003780D01*
X024080Y003780D01*
X024760Y003780D01*
X024760Y003904D01*
X024748Y003949D01*
X024724Y003991D01*
X024691Y004024D01*
X024680Y004030D01*
X024691Y004036D01*
X024724Y004069D01*
X024748Y004111D01*
X024760Y004156D01*
X024760Y004280D01*
X024760Y004404D01*
X024748Y004449D01*
X024724Y004491D01*
X024691Y004524D01*
X024680Y004530D01*
X024691Y004536D01*
X024724Y004569D01*
X024748Y004611D01*
X024760Y004656D01*
X024760Y004780D01*
X024760Y004904D01*
X024748Y004949D01*
X024724Y004991D01*
X024699Y005016D01*
X024780Y005097D01*
X024780Y005463D01*
X024713Y005530D01*
X024780Y005597D01*
X024780Y005963D01*
X024663Y006080D01*
X023497Y006080D01*
X023477Y006060D01*
X017096Y006060D01*
X014217Y008939D01*
X014139Y009017D01*
X014036Y009060D01*
X009066Y009060D01*
X009034Y009092D01*
X009057Y009092D01*
X009200Y009151D01*
X009249Y009200D01*
X011011Y009200D01*
X011060Y009151D01*
X011203Y009092D01*
X011357Y009092D01*
X011500Y009151D01*
X011609Y009260D01*
X011668Y009403D01*
X011668Y009557D01*
X011609Y009700D01*
X011500Y009809D01*
X011357Y009868D01*
X011203Y009868D01*
X011060Y009809D01*
X011011Y009760D01*
X009249Y009760D01*
X009200Y009809D01*
X009057Y009868D01*
X008903Y009868D01*
X008760Y009809D01*
X008651Y009700D01*
X008592Y009557D01*
X008592Y009534D01*
X008112Y010014D01*
X008200Y010051D01*
X008249Y010100D01*
X011011Y010100D01*
X011060Y010051D01*
X011203Y009992D01*
X011357Y009992D01*
X011500Y010051D01*
X011609Y010160D01*
X011668Y010303D01*
X011668Y010457D01*
X011609Y010600D01*
X011500Y010709D01*
X011357Y010768D01*
X011203Y010768D01*
X011060Y010709D01*
X011011Y010660D01*
X008249Y010660D01*
X008200Y010709D01*
X008057Y010768D01*
X007903Y010768D01*
X007760Y010709D01*
X007651Y010600D01*
X007614Y010512D01*
X007134Y010992D01*
X007157Y010992D01*
X007300Y011051D01*
X007349Y011100D01*
X011011Y011100D01*
X011060Y011051D01*
X011203Y010992D01*
X011357Y010992D01*
X011500Y011051D01*
X011609Y011160D01*
X011668Y011303D01*
X011668Y011457D01*
X011609Y011600D01*
X011500Y011709D01*
X011357Y011768D01*
X011203Y011768D01*
X011060Y011709D01*
X011011Y011660D01*
X007349Y011660D01*
X007300Y011709D01*
X007157Y011768D01*
X007003Y011768D01*
X006860Y011709D01*
X006751Y011600D01*
X006692Y011457D01*
X006692Y011434D01*
X006016Y012110D01*
X006163Y012110D01*
X006373Y012197D01*
X006533Y012357D01*
X006550Y012398D01*
X006567Y012357D01*
X006727Y012197D01*
X006937Y012110D01*
X007163Y012110D01*
X007373Y012197D01*
X007533Y012357D01*
X007550Y012398D01*
X007567Y012357D01*
X007727Y012197D01*
X007937Y012110D01*
X008163Y012110D01*
X008373Y012197D01*
X008533Y012357D01*
X008550Y012398D01*
X008567Y012357D01*
X008727Y012197D01*
X008937Y012110D01*
X009163Y012110D01*
X009373Y012197D01*
X009480Y012304D01*
X009480Y012227D01*
X009597Y012110D01*
X010503Y012110D01*
X010620Y012227D01*
X010620Y013133D01*
X010503Y013250D01*
X010006Y013250D01*
X009434Y014104D01*
X009434Y014827D01*
X009317Y014944D01*
X008443Y014944D01*
X008380Y014881D01*
X008317Y014944D01*
X007443Y014944D01*
X007380Y014881D01*
X007317Y014944D01*
X006443Y014944D01*
X006380Y014881D01*
X006317Y014944D01*
X005443Y014944D01*
X005326Y014827D01*
X005326Y014031D01*
X005443Y013914D01*
X005600Y013914D01*
X005600Y013794D01*
X005643Y013691D01*
X006084Y013250D01*
X005937Y013250D01*
X005727Y013163D01*
X005567Y013003D01*
X005550Y012962D01*
X005533Y013003D01*
X005373Y013163D01*
X005163Y013250D01*
X004937Y013250D01*
X004727Y013163D01*
X004567Y013003D01*
X004550Y012962D01*
X004533Y013003D01*
X004373Y013163D01*
X004163Y013250D01*
X003937Y013250D01*
X003727Y013163D01*
X003567Y013003D01*
X003550Y012962D01*
X003533Y013003D01*
X003373Y013163D01*
X003163Y013250D01*
X002937Y013250D01*
X002727Y013163D01*
X002567Y013003D01*
X002480Y012793D01*
X002480Y012567D01*
X002567Y012357D01*
X002727Y012197D01*
X002800Y012167D01*
X002800Y010824D01*
X002843Y010721D01*
X002921Y010643D01*
X006221Y007343D01*
X006324Y007300D01*
X011964Y007300D01*
X014022Y005242D01*
X014022Y002195D01*
X013920Y002152D01*
X013730Y001962D01*
X013627Y001714D01*
X013627Y001446D01*
X013730Y001198D01*
X013920Y001008D01*
X014168Y000905D01*
X014436Y000905D01*
X014684Y001008D01*
X014874Y001198D01*
X014977Y001446D01*
X014977Y001714D01*
X014874Y001962D01*
X014684Y002152D01*
X014582Y002195D01*
X014582Y005044D01*
X017809Y001817D01*
X017767Y001714D01*
X017767Y001446D01*
X017870Y001198D01*
X018060Y001008D01*
X018308Y000905D01*
X018576Y000905D01*
X018824Y001008D01*
X019014Y001198D01*
X019117Y001446D01*
X019117Y001714D01*
X019014Y001962D01*
X018824Y002152D01*
X018576Y002255D01*
X018308Y002255D01*
X018205Y002213D01*
X012318Y008100D01*
X013664Y008100D01*
X016721Y005043D01*
X016824Y005000D01*
X023445Y005000D01*
X023436Y004991D01*
X023412Y004949D01*
X023400Y004904D01*
X023400Y004780D01*
X024080Y004780D01*
X024760Y004780D01*
X024080Y004780D01*
X024080Y004780D01*
X024080Y004280D01*
X024080Y004280D01*
X024760Y004280D01*
X024080Y004280D01*
X024080Y004280D01*
X024080Y004560D01*
X024080Y004780D01*
X024080Y004780D01*
X024080Y004780D01*
X023400Y004780D01*
X023400Y004656D01*
X023412Y004611D01*
X023436Y004569D01*
X023469Y004536D01*
X023480Y004530D01*
X023469Y004524D01*
X023436Y004491D01*
X023412Y004449D01*
X023400Y004404D01*
X023400Y004280D01*
X024080Y004280D01*
X024080Y004280D01*
X024080Y003780D01*
X024080Y003780D01*
X024080Y003780D01*
X024080Y003780D01*
X024760Y003780D01*
X024760Y003656D01*
X024748Y003611D01*
X024724Y003569D01*
X024715Y003560D01*
X024964Y003560D01*
X027421Y006017D01*
X027444Y006027D01*
X027497Y006080D01*
X028663Y006080D01*
X028780Y005963D01*
X028780Y005597D01*
X028743Y005560D01*
X028764Y005560D01*
X029143Y005939D01*
X029221Y006017D01*
X029324Y006060D01*
X029611Y006060D01*
X029660Y006109D01*
X029803Y006168D01*
X029957Y006168D01*
X030100Y006109D01*
X030209Y006000D01*
X030268Y005857D01*
X030268Y005703D01*
X030209Y005560D01*
X030100Y005451D01*
X029957Y005392D01*
X029803Y005392D01*
X029660Y005451D01*
X029611Y005500D01*
X029496Y005500D01*
X029056Y005060D01*
X029964Y005060D01*
X030192Y005288D01*
X030192Y005357D01*
X030251Y005500D01*
X030360Y005609D01*
X030503Y005668D01*
X030657Y005668D01*
X030800Y005609D01*
X030909Y005500D01*
X030968Y005357D01*
X030968Y005203D01*
X030944Y005144D01*
X031003Y005168D01*
X031157Y005168D01*
X031300Y005109D01*
X031409Y005000D01*
X031468Y004857D01*
X031468Y004703D01*
X031412Y004568D01*
X031457Y004568D01*
X031600Y004509D01*
X031709Y004400D01*
X031768Y004257D01*
X031768Y004103D01*
X031709Y003960D01*
X031600Y003851D01*
X031457Y003792D01*
X031388Y003792D01*
X031156Y003560D01*
X031311Y003560D01*
X031360Y003609D01*
X031503Y003668D01*
X031657Y003668D01*
X031800Y003609D01*
X031909Y003500D01*
X031968Y003357D01*
X031968Y003203D01*
X031909Y003060D01*
X031800Y002951D01*
X031657Y002892D01*
X031503Y002892D01*
X031360Y002951D01*
X031311Y003000D01*
X029956Y003000D01*
X030188Y002768D01*
X030257Y002768D01*
X030400Y002709D01*
X030509Y002600D01*
X030568Y002457D01*
X030568Y002303D01*
X030509Y002160D01*
X030400Y002051D01*
X030257Y001992D01*
X030103Y001992D01*
X030044Y002016D01*
X030068Y001957D01*
X030068Y001803D01*
X030009Y001660D01*
X029900Y001551D01*
X029757Y001492D01*
X029664Y001492D01*
X029696Y001460D01*
X029911Y001460D01*
X029960Y001509D01*
X030103Y001568D01*
X030257Y001568D01*
X030400Y001509D01*
X030509Y001400D01*
X030568Y001257D01*
X030568Y001103D01*
X030509Y000960D01*
X030400Y000851D01*
X030257Y000792D01*
X030103Y000792D01*
X029960Y000851D01*
X029911Y000900D01*
X029524Y000900D01*
X029421Y000943D01*
X029343Y001021D01*
X028864Y001500D01*
X028683Y001500D01*
X028663Y001480D01*
X027497Y001480D01*
X027380Y001597D01*
X027380Y001963D01*
X027447Y002030D01*
X027380Y002097D01*
X027380Y002463D01*
X027447Y002530D01*
X027380Y002597D01*
X027380Y002963D01*
X027447Y003030D01*
X027380Y003097D01*
X027380Y003463D01*
X027447Y003530D01*
X027380Y003597D01*
X027380Y003963D01*
X027447Y004030D01*
X027380Y004097D01*
X027380Y004463D01*
X027447Y004530D01*
X027380Y004597D01*
X027380Y004963D01*
X027447Y005030D01*
X027380Y005097D01*
X027380Y005184D01*
X025317Y003121D01*
X025239Y003043D01*
X025136Y003000D01*
X024743Y003000D01*
X024780Y002963D01*
X024780Y002597D01*
X024713Y002530D01*
X024780Y002463D01*
X024780Y002097D01*
X024699Y002016D01*
X024724Y001991D01*
X024748Y001949D01*
X024760Y001904D01*
X024760Y001780D01*
X024080Y001780D01*
X024080Y001780D01*
X024760Y001780D01*
X024760Y001656D01*
X024748Y001611D01*
X024724Y001569D01*
X024691Y001536D01*
X024649Y001512D01*
X024604Y001500D01*
X024080Y001500D01*
X024080Y001780D01*
X024080Y001780D01*
X024080Y001780D01*
X023400Y001780D01*
X023400Y001904D01*
X023412Y001949D01*
X023436Y001991D01*
X023461Y002016D01*
X023380Y002097D01*
X023380Y002463D01*
X023447Y002530D01*
X023380Y002597D01*
X023380Y002884D01*
X020917Y000421D01*
X020906Y000410D01*
X044920Y000410D01*
X044920Y017442D01*
X036323Y017442D01*
X036383Y017417D01*
X036461Y017339D01*
X036987Y016813D01*
X037090Y016855D01*
X037358Y016855D01*
X037461Y016813D01*
X037965Y017317D01*
X038068Y017360D01*
X040510Y017360D01*
X040613Y017317D01*
X040691Y017239D01*
X041117Y016813D01*
X041220Y016855D01*
X041488Y016855D01*
X041736Y016752D01*
X041926Y016562D01*
X042029Y016314D01*
X042029Y016046D01*
X041987Y015943D01*
X043817Y014113D01*
X043860Y014010D01*
X043860Y013991D01*
X043920Y013967D01*
X044089Y013798D01*
X044180Y013577D01*
X044180Y013339D01*
X044089Y013118D01*
X043920Y012949D01*
X043699Y012858D01*
X043461Y012858D01*
X043401Y012883D01*
X043198Y012680D01*
X044063Y012680D01*
X044180Y012563D01*
X044180Y011597D01*
X044063Y011480D01*
X043097Y011480D01*
X042980Y011597D01*
X042980Y012462D01*
X042460Y011942D01*
X042460Y001896D01*
X042980Y001376D01*
X042980Y001533D01*
X043097Y001650D01*
X044063Y001650D01*
X044180Y001533D01*
X044180Y000567D01*
X044063Y000450D01*
X043097Y000450D01*
X042980Y000567D01*
X042980Y000770D01*
X042854Y000770D01*
X042751Y000813D01*
X042021Y001543D01*
X041943Y001621D01*
X041900Y001724D01*
X041900Y012114D01*
X041943Y012217D01*
X043005Y013279D01*
X042980Y013339D01*
X042980Y013577D01*
X043071Y013798D01*
X043206Y013932D01*
X041591Y015547D01*
X041488Y015505D01*
X041220Y015505D01*
X040972Y015608D01*
X040782Y015798D01*
X040679Y016046D01*
X040679Y016314D01*
X040721Y016417D01*
X040635Y016503D01*
X040635Y016218D01*
X040018Y016218D01*
X040018Y016142D01*
X040635Y016142D01*
X040635Y015681D01*
X040623Y015636D01*
X040599Y015594D01*
X040566Y015561D01*
X040524Y015537D01*
X040479Y015525D01*
X040018Y015525D01*
X040018Y016142D01*
X039942Y016142D01*
X039942Y015525D01*
X039481Y015525D01*
X039436Y015537D01*
X039394Y015561D01*
X039361Y015594D01*
X039337Y015636D01*
X039325Y015681D01*
X039325Y016142D01*
X039942Y016142D01*
X039942Y016218D01*
X039325Y016218D01*
X039325Y016679D01*
X039337Y016724D01*
X039361Y016766D01*
X039394Y016799D01*
X039396Y016800D01*
X038869Y016800D01*
X038984Y016752D01*
X039174Y016562D01*
X039277Y016314D01*
X039277Y016046D01*
X039174Y015798D01*
X038984Y015608D01*
X038736Y015505D01*
X038468Y015505D01*
X038220Y015608D01*
X038030Y015798D01*
X037927Y016046D01*
X037927Y016314D01*
X038030Y016562D01*
X038220Y016752D01*
X038335Y016800D01*
X038240Y016800D01*
X037857Y016417D01*
X037899Y016314D01*
X037899Y016046D01*
X037796Y015798D01*
X037606Y015608D01*
X037358Y015505D01*
X037090Y015505D01*
X036842Y015608D01*
X036652Y015798D01*
X036549Y016046D01*
X036549Y016314D01*
X036591Y016417D01*
X036505Y016503D01*
X036505Y016218D01*
X035888Y016218D01*
X035888Y016142D01*
X036505Y016142D01*
X036505Y015681D01*
X036493Y015636D01*
X036469Y015594D01*
X036436Y015561D01*
X036394Y015537D01*
X036349Y015525D01*
X035888Y015525D01*
X035888Y016142D01*
X035812Y016142D01*
X035812Y015525D01*
X035351Y015525D01*
X035306Y015537D01*
X035264Y015561D01*
X035231Y015594D01*
X035207Y015636D01*
X035195Y015681D01*
X035195Y016142D01*
X035812Y016142D01*
X035812Y016218D01*
X035195Y016218D01*
X035195Y016679D01*
X035207Y016724D01*
X035231Y016766D01*
X035264Y016799D01*
X035306Y016823D01*
X035351Y016835D01*
X035812Y016835D01*
X035812Y016218D01*
X035888Y016218D01*
X035888Y016835D01*
X036173Y016835D01*
X036108Y016900D01*
X034210Y016900D01*
X033727Y016417D01*
X033769Y016314D01*
X033769Y016046D01*
X033666Y015798D01*
X033476Y015608D01*
X033228Y015505D01*
X032960Y015505D01*
X032712Y015608D01*
X032522Y015798D01*
X032419Y016046D01*
X032419Y016314D01*
X032461Y016417D01*
X032375Y016503D01*
X032375Y016218D01*
X031758Y016218D01*
X031758Y016142D01*
X032375Y016142D01*
X032375Y015681D01*
X032363Y015636D01*
X032339Y015594D01*
X032306Y015561D01*
X032264Y015537D01*
X032219Y015525D01*
X031758Y015525D01*
X031758Y016142D01*
X031682Y016142D01*
X031682Y015525D01*
X031221Y015525D01*
X031176Y015537D01*
X031134Y015561D01*
X031101Y015594D01*
X031077Y015636D01*
X031065Y015681D01*
X031065Y016142D01*
X031682Y016142D01*
X031682Y016218D01*
X031065Y016218D01*
X031065Y016679D01*
X031077Y016724D01*
X031101Y016766D01*
X031134Y016799D01*
X031176Y016823D01*
X031221Y016835D01*
X031682Y016835D01*
X031682Y016218D01*
X031758Y016218D01*
X031758Y016835D01*
X032043Y016835D01*
X031978Y016900D01*
X030080Y016900D01*
X029597Y016417D01*
X029639Y016314D01*
X029639Y016046D01*
X029536Y015798D01*
X029346Y015608D01*
X029098Y015505D01*
X028830Y015505D01*
X028582Y015608D01*
X028392Y015798D01*
X028289Y016046D01*
X028289Y016314D01*
X028331Y016417D01*
X028245Y016503D01*
X028245Y016218D01*
X027628Y016218D01*
X027628Y016142D01*
X028245Y016142D01*
X028245Y015681D01*
X028233Y015636D01*
X028209Y015594D01*
X028176Y015561D01*
X028134Y015537D01*
X028089Y015525D01*
X027628Y015525D01*
X027628Y016142D01*
X027552Y016142D01*
X027552Y015525D01*
X027091Y015525D01*
X027046Y015537D01*
X027004Y015561D01*
X026971Y015594D01*
X026947Y015636D01*
X026935Y015681D01*
X026935Y016142D01*
X027552Y016142D01*
X027552Y016218D01*
X026935Y016218D01*
X026935Y016679D01*
X026947Y016724D01*
X026971Y016766D01*
X027004Y016799D01*
X027046Y016823D01*
X027091Y016835D01*
X027552Y016835D01*
X027552Y016218D01*
X027628Y016218D01*
X027628Y016835D01*
X027913Y016835D01*
X027848Y016900D01*
X025950Y016900D01*
X025467Y016417D01*
X025509Y016314D01*
X025509Y016046D01*
X025406Y015798D01*
X025216Y015608D01*
X024968Y015505D01*
X024700Y015505D01*
X024452Y015608D01*
X024262Y015798D01*
X024159Y016046D01*
X024159Y016314D01*
X024201Y016417D01*
X024115Y016503D01*
X024115Y016218D01*
X023498Y016218D01*
X023498Y016142D01*
X024115Y016142D01*
X024115Y015681D01*
X024103Y015636D01*
X024079Y015594D01*
X024046Y015561D01*
X024004Y015537D01*
X023959Y015525D01*
X023498Y015525D01*
X023498Y016142D01*
X023422Y016142D01*
X023422Y015525D01*
X022961Y015525D01*
X022916Y015537D01*
X022874Y015561D01*
X022841Y015594D01*
X022817Y015636D01*
X022805Y015681D01*
X022805Y016142D01*
X023422Y016142D01*
X023422Y016218D01*
X022805Y016218D01*
X022805Y016679D01*
X022817Y016724D01*
X022841Y016766D01*
X022874Y016799D01*
X022916Y016823D01*
X022961Y016835D01*
X023422Y016835D01*
X023422Y016218D01*
X023498Y016218D01*
X023498Y016835D01*
X023783Y016835D01*
X023718Y016900D01*
X021820Y016900D01*
X021337Y016417D01*
X021379Y016314D01*
X021379Y016046D01*
X021276Y015798D01*
X021086Y015608D01*
X020838Y015505D01*
X020570Y015505D01*
X020322Y015608D01*
X020132Y015798D01*
X020029Y016046D01*
X020029Y016314D01*
X020071Y016417D01*
X019965Y016523D01*
X019965Y016218D01*
X019348Y016218D01*
X019348Y016142D01*
X019965Y016142D01*
X019965Y015681D01*
X019953Y015636D01*
X019929Y015594D01*
X019896Y015561D01*
X019854Y015537D01*
X019809Y015525D01*
X019348Y015525D01*
X019348Y016142D01*
X019272Y016142D01*
X019272Y015525D01*
X018811Y015525D01*
X018766Y015537D01*
X018724Y015561D01*
X018691Y015594D01*
X018667Y015636D01*
X018655Y015681D01*
X018655Y016142D01*
X019272Y016142D01*
X019272Y016218D01*
X018655Y016218D01*
X018655Y016679D01*
X018667Y016724D01*
X018691Y016766D01*
X018724Y016799D01*
X018766Y016823D01*
X018811Y016835D01*
X019272Y016835D01*
X019272Y016218D01*
X019348Y016218D01*
X019348Y016835D01*
X019653Y016835D01*
X019588Y016900D01*
X017670Y016900D01*
X017187Y016417D01*
X017229Y016314D01*
X017229Y016046D01*
X017126Y015798D01*
X016936Y015608D01*
X016688Y015505D01*
X016420Y015505D01*
X016172Y015608D01*
X015982Y015798D01*
X015879Y016046D01*
X015879Y016314D01*
X015921Y016417D01*
X015835Y016503D01*
X015835Y016218D01*
X015218Y016218D01*
X015218Y016142D01*
X015835Y016142D01*
X015835Y015681D01*
X015823Y015636D01*
X015799Y015594D01*
X015766Y015561D01*
X015724Y015537D01*
X015679Y015525D01*
X015218Y015525D01*
X015218Y016142D01*
X015142Y016142D01*
X015142Y015525D01*
X014681Y015525D01*
X014636Y015537D01*
X014594Y015561D01*
X014561Y015594D01*
X014537Y015636D01*
X014525Y015681D01*
X014525Y016142D01*
X015142Y016142D01*
X015142Y016218D01*
X014525Y016218D01*
X014525Y016679D01*
X014537Y016724D01*
X014561Y016766D01*
X014594Y016799D01*
X014636Y016823D01*
X014681Y016835D01*
X015142Y016835D01*
X015142Y016218D01*
X015218Y016218D01*
X015218Y016835D01*
X015503Y016835D01*
X015438Y016900D01*
X013540Y016900D01*
X013057Y016417D01*
X013099Y016314D01*
X013099Y016046D01*
X012996Y015798D01*
X012806Y015608D01*
X012558Y015505D01*
X012290Y015505D01*
X012678Y015555D02*
X013548Y015555D01*
X013668Y015505D02*
X013420Y015608D01*
X013230Y015798D01*
X013127Y016046D01*
X013127Y016314D01*
X013230Y016562D01*
X013420Y016752D01*
X013668Y016855D01*
X013936Y016855D01*
X014184Y016752D01*
X014374Y016562D01*
X014477Y016314D01*
X014477Y016046D01*
X014374Y015798D01*
X014184Y015608D01*
X013936Y015505D01*
X013668Y015505D01*
X014056Y015555D02*
X014606Y015555D01*
X014525Y015713D02*
X014290Y015713D01*
X014405Y015872D02*
X014525Y015872D01*
X014525Y016030D02*
X014471Y016030D01*
X014477Y016189D02*
X015142Y016189D01*
X015218Y016189D02*
X015879Y016189D01*
X015893Y016347D02*
X015835Y016347D01*
X015218Y016347D02*
X015142Y016347D01*
X015142Y016506D02*
X015218Y016506D01*
X015218Y016664D02*
X015142Y016664D01*
X015142Y016823D02*
X015218Y016823D01*
X014635Y016823D02*
X014015Y016823D01*
X014273Y016664D02*
X014525Y016664D01*
X014525Y016506D02*
X014398Y016506D01*
X014463Y016347D02*
X014525Y016347D01*
X015142Y016030D02*
X015218Y016030D01*
X015218Y015872D02*
X015142Y015872D01*
X015142Y015713D02*
X015218Y015713D01*
X015218Y015555D02*
X015142Y015555D01*
X015754Y015555D02*
X016300Y015555D01*
X016066Y015713D02*
X015835Y015713D01*
X015835Y015872D02*
X015951Y015872D01*
X015886Y016030D02*
X015835Y016030D01*
X016554Y016180D02*
X015554Y017180D01*
X013424Y017180D01*
X012424Y016180D01*
X001280Y016180D01*
X000680Y015580D01*
X000680Y008050D01*
X002050Y006680D01*
X002562Y006934D02*
X002533Y007003D01*
X002373Y007163D01*
X002163Y007250D01*
X001937Y007250D01*
X001894Y007232D01*
X000960Y008166D01*
X000960Y015464D01*
X001396Y015900D01*
X005326Y015900D01*
X005326Y015811D01*
X004375Y015811D01*
X004273Y015769D01*
X004194Y015690D01*
X001343Y012839D01*
X001300Y012736D01*
X001300Y011324D01*
X001343Y011221D01*
X001421Y011143D01*
X003770Y008794D01*
X003770Y007181D01*
X003727Y007163D01*
X003567Y007003D01*
X003538Y006934D01*
X003520Y006968D01*
X003470Y007038D01*
X003408Y007100D01*
X003338Y007150D01*
X003261Y007190D01*
X003179Y007216D01*
X003093Y007230D01*
X003070Y007230D01*
X003070Y006700D01*
X003030Y006700D01*
X003030Y007230D01*
X003007Y007230D01*
X002921Y007216D01*
X002839Y007190D01*
X002762Y007150D01*
X002692Y007100D01*
X002630Y007038D01*
X002580Y006968D01*
X002562Y006934D01*
X002536Y006996D02*
X002599Y006996D01*
X002769Y007154D02*
X002382Y007154D01*
X001813Y007313D02*
X003770Y007313D01*
X003770Y007471D02*
X001655Y007471D01*
X001496Y007630D02*
X003770Y007630D01*
X003770Y007788D02*
X001338Y007788D01*
X001179Y007947D02*
X003770Y007947D01*
X003770Y008105D02*
X001021Y008105D01*
X000960Y008264D02*
X003770Y008264D01*
X003770Y008422D02*
X000960Y008422D01*
X000960Y008581D02*
X003770Y008581D01*
X003770Y008739D02*
X000960Y008739D01*
X000960Y008898D02*
X003667Y008898D01*
X003508Y009056D02*
X000960Y009056D01*
X000960Y009215D02*
X003350Y009215D01*
X003191Y009373D02*
X000960Y009373D01*
X000960Y009532D02*
X003033Y009532D01*
X002874Y009690D02*
X000960Y009690D01*
X000960Y009849D02*
X002716Y009849D01*
X002557Y010007D02*
X000960Y010007D01*
X000960Y010166D02*
X002399Y010166D01*
X002240Y010324D02*
X000960Y010324D01*
X000960Y010483D02*
X002082Y010483D01*
X001923Y010641D02*
X000960Y010641D01*
X000960Y010800D02*
X001765Y010800D01*
X001606Y010958D02*
X000960Y010958D01*
X000960Y011117D02*
X001448Y011117D01*
X001320Y011275D02*
X000960Y011275D01*
X000960Y011434D02*
X001300Y011434D01*
X001300Y011592D02*
X000960Y011592D01*
X000960Y011751D02*
X001300Y011751D01*
X001300Y011909D02*
X000960Y011909D01*
X000960Y012068D02*
X001300Y012068D01*
X001300Y012226D02*
X000960Y012226D01*
X000960Y012385D02*
X001300Y012385D01*
X001300Y012543D02*
X000960Y012543D01*
X000960Y012702D02*
X001300Y012702D01*
X001364Y012860D02*
X000960Y012860D01*
X000960Y013019D02*
X001523Y013019D01*
X001681Y013177D02*
X000960Y013177D01*
X000960Y013336D02*
X001840Y013336D01*
X001998Y013494D02*
X000960Y013494D01*
X000960Y013653D02*
X001636Y013653D01*
X001645Y013649D02*
X001955Y013649D01*
X002243Y013768D01*
X002462Y013987D01*
X002581Y014275D01*
X002581Y014585D01*
X002462Y014873D01*
X002243Y015092D01*
X001955Y015211D01*
X001645Y015211D01*
X001357Y015092D01*
X001138Y014873D01*
X001019Y014585D01*
X001019Y014275D01*
X001138Y013987D01*
X001357Y013768D01*
X001645Y013649D01*
X001964Y013653D02*
X002157Y013653D01*
X002286Y013811D02*
X002315Y013811D01*
X002444Y013970D02*
X002474Y013970D01*
X002520Y014128D02*
X002632Y014128D01*
X002581Y014287D02*
X002791Y014287D01*
X002949Y014445D02*
X002581Y014445D01*
X002574Y014604D02*
X003108Y014604D01*
X003266Y014762D02*
X002508Y014762D01*
X002414Y014921D02*
X003425Y014921D01*
X003583Y015079D02*
X002256Y015079D01*
X001344Y015079D02*
X000960Y015079D01*
X000960Y014921D02*
X001186Y014921D01*
X001092Y014762D02*
X000960Y014762D01*
X000960Y014604D02*
X001026Y014604D01*
X001019Y014445D02*
X000960Y014445D01*
X000960Y014287D02*
X001019Y014287D01*
X000960Y014128D02*
X001080Y014128D01*
X001156Y013970D02*
X000960Y013970D01*
X000960Y013811D02*
X001314Y013811D01*
X002631Y013336D02*
X005998Y013336D01*
X005840Y013494D02*
X002790Y013494D01*
X002949Y013653D02*
X005681Y013653D01*
X005600Y013811D02*
X003107Y013811D01*
X003266Y013970D02*
X005387Y013970D01*
X005326Y014128D02*
X003424Y014128D01*
X003583Y014287D02*
X005326Y014287D01*
X005326Y014445D02*
X003741Y014445D01*
X003900Y014604D02*
X005326Y014604D01*
X005326Y014762D02*
X004058Y014762D01*
X004217Y014921D02*
X005420Y014921D01*
X005380Y015079D02*
X004375Y015079D01*
X004534Y015238D02*
X005326Y015238D01*
X006340Y014921D02*
X006420Y014921D01*
X007340Y014921D02*
X007420Y014921D01*
X008340Y014921D02*
X008420Y014921D01*
X009340Y014921D02*
X009686Y014921D01*
X009638Y014873D02*
X009519Y014585D01*
X009519Y014275D01*
X009638Y013987D01*
X009857Y013768D01*
X010145Y013649D01*
X010455Y013649D01*
X010743Y013768D01*
X010962Y013987D01*
X011081Y014275D01*
X011081Y014585D01*
X010962Y014873D01*
X010743Y015092D01*
X010455Y015211D01*
X010145Y015211D01*
X009857Y015092D01*
X009638Y014873D01*
X009592Y014762D02*
X009434Y014762D01*
X009434Y014604D02*
X009526Y014604D01*
X009519Y014445D02*
X009434Y014445D01*
X009434Y014287D02*
X009519Y014287D01*
X009580Y014128D02*
X009434Y014128D01*
X009524Y013970D02*
X009656Y013970D01*
X009630Y013811D02*
X009814Y013811D01*
X009736Y013653D02*
X010136Y013653D01*
X010464Y013653D02*
X043011Y013653D01*
X042980Y013494D02*
X009842Y013494D01*
X009948Y013336D02*
X042981Y013336D01*
X042903Y013177D02*
X010576Y013177D01*
X010620Y013019D02*
X042745Y013019D01*
X042586Y012860D02*
X010620Y012860D01*
X010620Y012702D02*
X042428Y012702D01*
X042269Y012543D02*
X010620Y012543D01*
X010620Y012385D02*
X042111Y012385D01*
X041952Y012226D02*
X010619Y012226D01*
X010050Y012680D02*
X008880Y014429D01*
X007880Y014429D02*
X007880Y013850D01*
X009050Y012680D01*
X008555Y012385D02*
X008545Y012385D01*
X008402Y012226D02*
X008698Y012226D01*
X009402Y012226D02*
X009481Y012226D01*
X008050Y012680D02*
X006880Y013850D01*
X006880Y014429D01*
X005880Y014429D02*
X005880Y013850D01*
X007050Y012680D01*
X007545Y012385D02*
X007555Y012385D01*
X007698Y012226D02*
X007402Y012226D01*
X006698Y012226D02*
X006402Y012226D01*
X006545Y012385D02*
X006555Y012385D01*
X006058Y012068D02*
X041900Y012068D01*
X041900Y011909D02*
X006217Y011909D01*
X006375Y011751D02*
X006960Y011751D01*
X007200Y011751D02*
X011160Y011751D01*
X011400Y011751D02*
X041900Y011751D01*
X041900Y011592D02*
X011612Y011592D01*
X011668Y011434D02*
X041900Y011434D01*
X041900Y011275D02*
X011657Y011275D01*
X011565Y011117D02*
X041900Y011117D01*
X041900Y010958D02*
X007168Y010958D01*
X007326Y010800D02*
X041900Y010800D01*
X041900Y010641D02*
X011568Y010641D01*
X011658Y010483D02*
X041900Y010483D01*
X041900Y010324D02*
X011668Y010324D01*
X011611Y010166D02*
X041900Y010166D01*
X041900Y010007D02*
X011394Y010007D01*
X011405Y009849D02*
X041900Y009849D01*
X041900Y009690D02*
X011613Y009690D01*
X011668Y009532D02*
X041900Y009532D01*
X041900Y009373D02*
X011656Y009373D01*
X011563Y009215D02*
X041900Y009215D01*
X041900Y009056D02*
X014045Y009056D01*
X014258Y008898D02*
X041900Y008898D01*
X041900Y008739D02*
X014417Y008739D01*
X014575Y008581D02*
X041900Y008581D01*
X041900Y008422D02*
X014734Y008422D01*
X014892Y008264D02*
X041900Y008264D01*
X041900Y008105D02*
X015051Y008105D01*
X015209Y007947D02*
X041900Y007947D01*
X041900Y007788D02*
X015368Y007788D01*
X015526Y007630D02*
X041900Y007630D01*
X041900Y007471D02*
X015685Y007471D01*
X015843Y007313D02*
X041900Y007313D01*
X041900Y007154D02*
X016002Y007154D01*
X016160Y006996D02*
X041900Y006996D01*
X041900Y006837D02*
X016319Y006837D01*
X016477Y006679D02*
X041900Y006679D01*
X041900Y006520D02*
X016636Y006520D01*
X016794Y006362D02*
X041900Y006362D01*
X041900Y006203D02*
X016953Y006203D01*
X016980Y005780D02*
X013980Y008780D01*
X008950Y008780D01*
X005050Y012680D01*
X004582Y013019D02*
X004518Y013019D01*
X004340Y013177D02*
X004760Y013177D01*
X005340Y013177D02*
X005760Y013177D01*
X005582Y013019D02*
X005518Y013019D01*
X004050Y012680D02*
X004050Y011010D01*
X007180Y007880D01*
X012142Y007880D01*
X018442Y001580D01*
X017767Y001607D02*
X017739Y001607D01*
X017739Y001448D02*
X017767Y001448D01*
X017751Y001290D02*
X017832Y001290D01*
X017909Y001131D02*
X017936Y001131D01*
X018068Y000973D02*
X018145Y000973D01*
X018739Y000973D02*
X019223Y000973D01*
X019234Y000961D02*
X019276Y000937D01*
X019321Y000925D01*
X019782Y000925D01*
X019782Y001542D01*
X019165Y001542D01*
X019165Y001081D01*
X019177Y001036D01*
X019201Y000994D01*
X019234Y000961D01*
X019165Y001131D02*
X018948Y001131D01*
X019052Y001290D02*
X019165Y001290D01*
X019165Y001448D02*
X019117Y001448D01*
X019117Y001607D02*
X019782Y001607D01*
X019782Y001618D02*
X019782Y001542D01*
X019858Y001542D01*
X019858Y001618D01*
X019782Y001618D01*
X019165Y001618D01*
X019165Y002079D01*
X019177Y002124D01*
X019201Y002166D01*
X019234Y002199D01*
X019276Y002223D01*
X019321Y002235D01*
X019782Y002235D01*
X019782Y001618D01*
X019858Y001618D02*
X019858Y002235D01*
X020319Y002235D01*
X020364Y002223D01*
X020406Y002199D01*
X020439Y002166D01*
X020463Y002124D01*
X020475Y002079D01*
X020475Y001618D01*
X019858Y001618D01*
X019858Y001607D02*
X021311Y001607D01*
X021469Y001765D02*
X020475Y001765D01*
X020475Y001924D02*
X021628Y001924D01*
X021786Y002082D02*
X020474Y002082D01*
X019858Y002082D02*
X019782Y002082D01*
X019782Y001924D02*
X019858Y001924D01*
X019858Y001765D02*
X019782Y001765D01*
X019858Y001542D02*
X020475Y001542D01*
X020475Y001081D01*
X020463Y001036D01*
X020439Y000994D01*
X020406Y000961D01*
X020364Y000937D01*
X020319Y000925D01*
X019858Y000925D01*
X019858Y001542D01*
X019858Y001448D02*
X019782Y001448D01*
X019782Y001290D02*
X019858Y001290D01*
X019858Y001131D02*
X019782Y001131D01*
X019782Y000973D02*
X019858Y000973D01*
X020417Y000973D02*
X020677Y000973D01*
X020835Y001131D02*
X020475Y001131D01*
X020475Y001290D02*
X020994Y001290D01*
X021152Y001448D02*
X020475Y001448D01*
X021627Y001131D02*
X029233Y001131D01*
X029075Y001290D02*
X021785Y001290D01*
X021944Y001448D02*
X028916Y001448D01*
X028980Y001780D02*
X029580Y001180D01*
X030180Y001180D01*
X030555Y001290D02*
X042275Y001290D01*
X042116Y001448D02*
X030461Y001448D01*
X030052Y001765D02*
X041900Y001765D01*
X041900Y001924D02*
X030068Y001924D01*
X029680Y001880D02*
X029280Y002280D01*
X028080Y002280D01*
X027380Y002241D02*
X024780Y002241D01*
X024780Y002399D02*
X027380Y002399D01*
X027420Y002558D02*
X024740Y002558D01*
X024780Y002716D02*
X027380Y002716D01*
X027380Y002875D02*
X024780Y002875D01*
X025215Y003033D02*
X027444Y003033D01*
X027380Y003192D02*
X025387Y003192D01*
X025546Y003350D02*
X027380Y003350D01*
X027426Y003509D02*
X025704Y003509D01*
X025863Y003667D02*
X027380Y003667D01*
X027380Y003826D02*
X026021Y003826D01*
X026180Y003984D02*
X027401Y003984D01*
X027380Y004143D02*
X026338Y004143D01*
X026497Y004301D02*
X027380Y004301D01*
X027380Y004460D02*
X026655Y004460D01*
X026814Y004618D02*
X027380Y004618D01*
X027380Y004777D02*
X026972Y004777D01*
X027131Y004935D02*
X027380Y004935D01*
X027384Y005094D02*
X027289Y005094D01*
X028080Y005280D02*
X028880Y005280D01*
X029380Y005780D01*
X029880Y005780D01*
X030164Y006045D02*
X041900Y006045D01*
X041900Y005886D02*
X030256Y005886D01*
X030268Y005728D02*
X041900Y005728D01*
X041900Y005569D02*
X030840Y005569D01*
X030946Y005411D02*
X041900Y005411D01*
X041900Y005252D02*
X030968Y005252D01*
X031315Y005094D02*
X041900Y005094D01*
X041900Y004935D02*
X031436Y004935D01*
X031468Y004777D02*
X041900Y004777D01*
X041900Y004618D02*
X031433Y004618D01*
X031649Y004460D02*
X041900Y004460D01*
X041900Y004301D02*
X031750Y004301D01*
X031768Y004143D02*
X041900Y004143D01*
X041900Y003984D02*
X031719Y003984D01*
X031538Y003826D02*
X041900Y003826D01*
X041900Y003667D02*
X031660Y003667D01*
X031500Y003667D02*
X031263Y003667D01*
X030980Y003780D02*
X031380Y004180D01*
X030980Y003780D02*
X028080Y003780D01*
X028080Y004280D02*
X030580Y004280D01*
X031080Y004780D01*
X030580Y005280D02*
X030080Y004780D01*
X028080Y004780D01*
X029089Y005094D02*
X029998Y005094D01*
X030156Y005252D02*
X029248Y005252D01*
X029406Y005411D02*
X029758Y005411D01*
X030002Y005411D02*
X030214Y005411D01*
X030213Y005569D02*
X030320Y005569D01*
X029287Y006045D02*
X028698Y006045D01*
X028780Y005886D02*
X029090Y005886D01*
X028932Y005728D02*
X028780Y005728D01*
X028773Y005569D02*
X028752Y005569D01*
X028080Y005780D02*
X027580Y005780D01*
X025080Y003280D01*
X024080Y003280D01*
X023380Y003280D01*
X020680Y000580D01*
X018064Y000580D01*
X017064Y001580D01*
X016064Y000580D01*
X013924Y000580D01*
X012924Y001580D01*
X010475Y004029D01*
X008030Y004029D01*
X006980Y004029D01*
X005880Y004029D01*
X004780Y004029D01*
X004050Y004029D01*
X004226Y003667D02*
X000410Y003667D01*
X000410Y003509D02*
X010600Y003509D01*
X010441Y003667D02*
X008584Y003667D01*
X008551Y004460D02*
X014022Y004460D01*
X014022Y004618D02*
X011467Y004618D01*
X011509Y004660D02*
X011400Y004551D01*
X011257Y004492D01*
X011103Y004492D01*
X010960Y004551D01*
X010851Y004660D01*
X010792Y004803D01*
X010792Y004957D01*
X010851Y005100D01*
X010900Y005149D01*
X010900Y006411D01*
X010851Y006460D01*
X010792Y006603D01*
X010792Y006757D01*
X010851Y006900D01*
X010960Y007009D01*
X011103Y007068D01*
X011257Y007068D01*
X011400Y007009D01*
X011509Y006900D01*
X011568Y006757D01*
X011568Y006603D01*
X011509Y006460D01*
X011460Y006411D01*
X011460Y005149D01*
X011509Y005100D01*
X011568Y004957D01*
X011568Y004803D01*
X011509Y004660D01*
X011557Y004777D02*
X014022Y004777D01*
X014022Y004935D02*
X011568Y004935D01*
X011512Y005094D02*
X014022Y005094D01*
X014012Y005252D02*
X011460Y005252D01*
X011460Y005411D02*
X013854Y005411D01*
X013695Y005569D02*
X011460Y005569D01*
X011460Y005728D02*
X013537Y005728D01*
X013378Y005886D02*
X011460Y005886D01*
X011460Y006045D02*
X013220Y006045D01*
X013061Y006203D02*
X011460Y006203D01*
X011460Y006362D02*
X012903Y006362D01*
X012744Y006520D02*
X011534Y006520D01*
X011568Y006679D02*
X012586Y006679D01*
X012427Y006837D02*
X011535Y006837D01*
X011413Y006996D02*
X012269Y006996D01*
X012110Y007154D02*
X010382Y007154D01*
X010536Y006996D02*
X010947Y006996D01*
X010825Y006837D02*
X010602Y006837D01*
X010620Y006679D02*
X010792Y006679D01*
X010826Y006520D02*
X010601Y006520D01*
X010535Y006362D02*
X010900Y006362D01*
X010900Y006203D02*
X010379Y006203D01*
X009721Y006203D02*
X009379Y006203D01*
X009535Y006362D02*
X009565Y006362D01*
X008721Y006203D02*
X008379Y006203D01*
X008310Y006045D02*
X010900Y006045D01*
X010900Y005886D02*
X008310Y005886D01*
X008310Y005728D02*
X010900Y005728D01*
X010900Y005569D02*
X008544Y005569D01*
X008584Y005411D02*
X010900Y005411D01*
X010900Y005252D02*
X008584Y005252D01*
X008584Y005094D02*
X010848Y005094D01*
X010792Y004935D02*
X008584Y004935D01*
X008584Y004777D02*
X010803Y004777D01*
X010893Y004618D02*
X008469Y004618D01*
X007591Y004618D02*
X007419Y004618D01*
X007501Y004460D02*
X007509Y004460D01*
X006541Y004618D02*
X006319Y004618D01*
X006401Y004460D02*
X006459Y004460D01*
X005441Y004618D02*
X005219Y004618D01*
X005301Y004460D02*
X005359Y004460D01*
X004341Y004618D02*
X004330Y004618D01*
X004780Y005131D02*
X004780Y006410D01*
X005050Y006680D01*
X005880Y006510D02*
X006050Y006680D01*
X005880Y006510D02*
X005880Y005131D01*
X006980Y005131D02*
X006980Y006610D01*
X007050Y006680D01*
X006564Y006996D02*
X006536Y006996D01*
X006382Y007154D02*
X006718Y007154D01*
X006294Y007313D02*
X004330Y007313D01*
X004330Y007471D02*
X006093Y007471D01*
X005935Y007630D02*
X004330Y007630D01*
X004330Y007788D02*
X005776Y007788D01*
X005618Y007947D02*
X004330Y007947D01*
X004330Y008105D02*
X005459Y008105D01*
X005301Y008264D02*
X004330Y008264D01*
X004330Y008422D02*
X005142Y008422D01*
X004984Y008581D02*
X004330Y008581D01*
X004330Y008739D02*
X004825Y008739D01*
X004667Y008898D02*
X004330Y008898D01*
X004293Y009056D02*
X004508Y009056D01*
X004350Y009215D02*
X004141Y009215D01*
X004191Y009373D02*
X003983Y009373D01*
X004033Y009532D02*
X003824Y009532D01*
X003874Y009690D02*
X003666Y009690D01*
X003716Y009849D02*
X003507Y009849D01*
X003557Y010007D02*
X003349Y010007D01*
X003399Y010166D02*
X003190Y010166D01*
X003240Y010324D02*
X003032Y010324D01*
X003082Y010483D02*
X002873Y010483D01*
X002923Y010641D02*
X002715Y010641D01*
X002810Y010800D02*
X002556Y010800D01*
X002398Y010958D02*
X002800Y010958D01*
X002800Y011117D02*
X002239Y011117D01*
X002081Y011275D02*
X002800Y011275D01*
X002800Y011434D02*
X001922Y011434D01*
X001860Y011592D02*
X002800Y011592D01*
X002800Y011751D02*
X001860Y011751D01*
X001860Y011909D02*
X002800Y011909D01*
X002800Y012068D02*
X001860Y012068D01*
X001860Y012226D02*
X002698Y012226D01*
X002555Y012385D02*
X001860Y012385D01*
X001860Y012543D02*
X002490Y012543D01*
X002480Y012702D02*
X001997Y012702D01*
X002156Y012860D02*
X002508Y012860D01*
X002582Y013019D02*
X002314Y013019D01*
X002473Y013177D02*
X002760Y013177D01*
X003340Y013177D02*
X003760Y013177D01*
X003582Y013019D02*
X003518Y013019D01*
X003080Y012650D02*
X003050Y012680D01*
X003080Y012650D02*
X003080Y010880D01*
X006380Y007580D01*
X012080Y007580D01*
X014302Y005358D01*
X014302Y001580D01*
X013627Y001607D02*
X013599Y001607D01*
X013599Y001448D02*
X013627Y001448D01*
X013611Y001290D02*
X013692Y001290D01*
X013769Y001131D02*
X013796Y001131D01*
X013928Y000973D02*
X014005Y000973D01*
X013294Y000814D02*
X011081Y000814D01*
X011081Y000973D02*
X012627Y000973D01*
X012418Y001131D02*
X011062Y001131D01*
X010997Y001290D02*
X012314Y001290D01*
X012249Y001448D02*
X010887Y001448D01*
X010708Y001607D02*
X012249Y001607D01*
X012270Y001765D02*
X000410Y001765D01*
X000410Y001607D02*
X001392Y001607D01*
X001213Y001448D02*
X000410Y001448D01*
X000410Y001290D02*
X001103Y001290D01*
X001038Y001131D02*
X000410Y001131D01*
X000410Y000973D02*
X001019Y000973D01*
X001019Y000814D02*
X000410Y000814D01*
X000410Y000656D02*
X001068Y000656D01*
X001134Y000497D02*
X000410Y000497D01*
X002466Y000497D02*
X009634Y000497D01*
X009568Y000656D02*
X002532Y000656D01*
X002581Y000814D02*
X009519Y000814D01*
X009519Y000973D02*
X002581Y000973D01*
X002562Y001131D02*
X009538Y001131D01*
X009603Y001290D02*
X002497Y001290D01*
X002387Y001448D02*
X009713Y001448D01*
X009892Y001607D02*
X002208Y001607D01*
X000410Y001924D02*
X012185Y001924D01*
X012026Y002082D02*
X000410Y002082D01*
X000410Y002241D02*
X011868Y002241D01*
X011709Y002399D02*
X000410Y002399D01*
X000410Y002558D02*
X011551Y002558D01*
X011392Y002716D02*
X000410Y002716D01*
X000410Y002875D02*
X011234Y002875D01*
X011075Y003033D02*
X000410Y003033D01*
X000410Y003192D02*
X010917Y003192D01*
X010758Y003350D02*
X000410Y003350D01*
X002379Y006203D02*
X002775Y006203D01*
X002602Y006362D02*
X002535Y006362D01*
X003030Y006362D02*
X003070Y006362D01*
X003070Y006520D02*
X003030Y006520D01*
X003498Y006362D02*
X003565Y006362D01*
X003721Y006203D02*
X003325Y006203D01*
X003070Y006203D02*
X003030Y006203D01*
X003030Y006837D02*
X003070Y006837D01*
X003070Y006996D02*
X003030Y006996D01*
X003030Y007154D02*
X003070Y007154D01*
X003331Y007154D02*
X003718Y007154D01*
X003564Y006996D02*
X003501Y006996D01*
X004382Y007154D02*
X004718Y007154D01*
X004564Y006996D02*
X004536Y006996D01*
X005382Y007154D02*
X005718Y007154D01*
X005564Y006996D02*
X005536Y006996D01*
X007382Y007154D02*
X007718Y007154D01*
X007564Y006996D02*
X007536Y006996D01*
X008030Y006660D02*
X008050Y006680D01*
X008030Y006660D02*
X008030Y005131D01*
X010550Y004301D02*
X014022Y004301D01*
X014022Y004143D02*
X010758Y004143D01*
X010916Y003984D02*
X014022Y003984D01*
X014022Y003826D02*
X011075Y003826D01*
X011233Y003667D02*
X014022Y003667D01*
X014022Y003509D02*
X011392Y003509D01*
X011550Y003350D02*
X014022Y003350D01*
X014022Y003192D02*
X011709Y003192D01*
X011867Y003033D02*
X014022Y003033D01*
X014022Y002875D02*
X012026Y002875D01*
X012184Y002716D02*
X014022Y002716D01*
X014022Y002558D02*
X012343Y002558D01*
X012501Y002399D02*
X014022Y002399D01*
X014022Y002241D02*
X013093Y002241D01*
X013377Y002082D02*
X013849Y002082D01*
X013714Y001924D02*
X013512Y001924D01*
X013578Y001765D02*
X013648Y001765D01*
X014755Y002082D02*
X015026Y002082D01*
X015025Y002079D02*
X015025Y001618D01*
X015642Y001618D01*
X015642Y002235D01*
X015181Y002235D01*
X01513Y00222sD01*
X015094Y002199D01*
X015061Y002166D01"
X015037Y002124D01*
X01u025Y00079D01*
X015025Y001924D02*
X014890Y001920D01*
X014956Y001765D02*
X015025Y001765D01*
X014977Y001607D02*
X015642Y001607D0*:H015798Y001607D02*
X016389Y001607Dp1*
X016#35Y001v18D02*
X016335Y002079D01*
X016323Y002124D01*
X016299Y002166D01*X016266Y00"199D01*
X016224Y002223D01+
X016179Y002235D01*
X015718Y002235D01*
X0!5758Y001618D01*
X016335Y001618D0!*
X01635Y001765E02"
X016410[0017-Ǵ)P"O=憵!Z gR\`~3]K%^9p5[I:;jgWڧSR0L2w"$I`pǯCXw^\YXENedj+qD[R\P
ӧދ虊_^(>1yVE$QBLh,c<¼r#?uN0;wO8 o*ɤ2'ƹ0km%L2Cƴ	pQXعFv8S_%Q*4x	2H3}RM1jdr|<:؉p;=5C|iE9gu8.l
1:'>mwό_H'Xƿ=t\V[B2vDAkfaIf.
u}ʴh|.)°oqK% 6tI? 
[B TVр]sޞ"jrlrs 3SԪs|Vfg,Ӯcx'L.!Ym"F 115K&Yᄰ+O+@NmS"OυV1q%3o*N%HxHǢO=ǥ-d\^\WXG=~UJu
O3TƉFo2_7
̻K5qKULP+sRLaIƢMpWuOiYهJho+ϦDNģXl7$2DLbeA@DQ1 4\834Z|Hqo!?0+9H3PH:E:ouJ/3
=1)/|q؋w&\C%XǤG)P[_]vGMW[r|҃f-	dj&ʴo4(nhsM GX!]#QfTÿ<uţ"֞db{yR/cwBP-hxNO4),tF3\MS_;L,65HU ƌKUR'Nv[m*O#Ibwӑ]|=ɯ^q~f])PX__~V@uXxMړF,7]de
9\pQAn-WxsQf9ĸsI:uHP
ҥڀ#3,ȹ{Wn-ȣL;^`Ohex[՚Fdq9=3%Py)2	!	HqodzJ9(2?Z}JvCfiqG3 ~e 7\/D"$ہvu)J'A M]9ZE8nr2^fT_BoX7s-pthF4/lrZ'nN0 (4+US<ÿ1wߚD"毣q;gyw?T%O_/ƴ`j{'4!Xhn"@	 B[YK'6+9+	6!l8gU;9wN;m(K>!bwGK϶d"~bV]9ZE9b~#BOc@v_WgF0t\WaʠQCi!>KREy qL=r!i1p2jEɣB&yQ-ɥH2D9ke+[֛G~HQ	>6?m*)=}`;87zHpXx68]!JwD;sH.EC6 1(s.},%_#%[vN`j0E9dvFD	"\;Cf$6py¶iu1ܛ3rO&̋GtQv:6g- :]4ߟ~"! .=cGµz#N5;e;n'Cz2x\Qe"HB182ri>h'	\峦h|9rH%dAJ$Kj۔nG8ά\vfD`j2E;`y_C}6uY1WEoYچEZȺ95tT6o&m日Gq;Dc;J>orl5HDSG#Ƣ8n.M(SDJgYИ/~MUW7%V+5b3;=6~Ltbjc~P!;:6J _\sM(1x
	t+ Fx,ro`pM[Φ'[XYBOgl{oDW5	 5|voЈ2)ſet:$'Cp^ \+iVŹ5r-"2cfaA'4l`AEj%.ݢǴ)P#M=ᆵ!_oR\`~:]K [1p5[N*;j&VڧT9L2w"$@esOXu^ZWRMNedj+w@[P\P
ӧލ噊_^(>6wYB$TBLh,c=ðp#?uK0gM0 g+2'Ź0kl%L2D	pQSݹO~8S_%Q!5y
;H3}RM1jdr|>8؉p;<;|K|iD;ft8.l~1*>m}όTB!Rƾ?t]Y[E>vOMkfa Df%
x}ʼa|.)þezN! 6tY? UB(UVـ]sܘ"0U=?Q܆CAZ4 +Ӯl~'N.!Xf&G 115K&^*L(@N`S"OυT:w%3l-C&HxHǦO<ϭ-d\^YSZM?TBu
O3Q̉Gn9ʢ_7ϺK5qKULV+uWEkAƢMpWuKmY߆Jhj.DNĢ	Sl7$2LIioAGvMQ	:3 $3Tx2?Z|Ito!:=-?H3PH:E;gtH/5
=1).qq%݅w&YH&\ǥI)P[W]vBERU2|҃f-dj&ʴn5 nhsM CX)]%RfT¸6uţ"PwHVHTS=]?-k}NO5',tF
x3	T\HS_+I)05HU ƬKTR#Nv[m*I!Icpݖ]|;˥Qqc[)P[__~SKGp[xMړFi3Wde
˺;\pPGh-WxuQ@c:ĹvJ;sHP
ҥ߄#6,ȹ{	Rn,ͣJ0^`IhfxZןFdq9	<#Vy(1}	!	Jt	cm yJ9-><Z}KsO&iqG5~e3\/D"$݀6u)B$ELZ9ZD=gp2^fR^DnX7sqzkF4,lsK"nN0&4+US5<ù5wޘ"aܚZ%:!@aj?`/ƽ`j{'4&Yho A
 B[]J!6,9+	3!n? gU;8uI3k(K>!bqٔFK̶d"~g\X9[D<cz#BOcFt^VE0t^V	aɠQFm->JRFy tI:s!k8p4hEɢ@/ƠyQ-ϥI0ꟇE9kf+[ӞGJW>6?m*)0~`::5~DpXx;8]!	Jq@>rJ.EC6 6*s.,%_#%ZævN`j2E?dsCE
"\;Ec)6py̲iz2ܛ3rJ!	̋GqQv:6g(%:
R4ߚ~"8N0BHdӒ)Gõz"M1;e;l"Ay7x\Qe/GB2g2rl>h ]峦h|9wH3jAJ%HjۗnG=έ_{fD`j2E>fVC}6uZ1W@kYنE]	Ȼ93vU6o&m无Ar;Db;¼J>ori3ODSB$8n+M(LHg\И/~HRW7$V.5b3;80xHwbkc~P+::2uC _\sH.9x	t+ F}&}O`pM['[R[MOgl{/D	S5	 5|	to|Јy6(űjt:$'cFp^!Z+iRƹ5u-"%3h/mф;1P:q>,ۢǴ)P#N0ꆵ ^fR\`{$	]J!]1p0[I:;j&QڧS;L2w"$Hf}ãB]~_XUX@Nedj+qF[	P\P
ӧۊ뙊^^(;1wSK$RBLh,c9ýs#?tN0gN5 k*2'Ź0ki+L3F	pQ>]عD~8S_%T+4y	;H3}RM1jar|;?؉p;87zMpiD>nq8.lz0-]/>m|όXM$Xƾ?tYTSG;wCAkfaEg)
r}˰`|.)iqJ%6tY? _B$VVـ]tؘ"ޖX%AE̍ 	}B l8y*Юo 'N.!\k#G	115K#\㄰*H,@KmS	"OυQ<v%3l M&HxH¥B9ͬ-d\^YS^E;Q@u
O3PǉGk07˺K5qKULS+t^CaIƢMpWuLoYޏJhj(ɤDNĢVl7$2@HlfAFzDQ	;2 $3\x<>Z|Iuo!:1,3H3PH:E?dzO/4
=1,&xq%܂w&YN,YǥN)[o]vBFRUr_|҃f(dj&ʱhR5+nhsM BX"]%WfT¹5uţ"ʀhY]]*x(bSZ(-nSNO54,tF3ULS_+I(00HU ƌ
KTR#Nv[m,C&Icq]|;ǮYq/^)PX__~SJA|\xMړFi4^dg
?\pPAg%WxUVMa=ĹsL:vIP
ҥ#3,ȹ{,	Un,E6^`IonxZԓFdq9:>'Py(7~	!	Html J9-:?Z}KvBOfiqG5~e6\/D"$݆vu)J'AMT9ZD8g2^fR_CfX7sq{hF*4+lsL%nN0"4,US5<ù6wޜ"8+̸[rֈ9lp:/±`jx'4#Xho$E	 B[TI'6.9+	6!j9gU;qN1k(H>!bqߟ&FK϶d"~b\]9ZD8ev#AOcFqZVN0tWWAʠQFk->KREy tN6w!l7p4nEɢG AyQ-ϢM5럇E9ke+[ԓGMX
>6?m*)=z`:=7LpXx>8]!	JqC;rM&EC6 9-s.x&%]#%Z¥vN`j0E?epFE"\;E`,6ptµiuB=ܛ3rJ,̋@t^v:6g)':R4ߚ~"ExvvQͽF66X017216Y016347D02*
X017271Y016347D01*
X017257Y016314D02*
X017257Y016046D01*
X017360Y015798D01*
X017550Y015608D01*
X017798Y015505D01*
X018066Y015505D01*
X018314Y015608D01*
X018504Y015798D01*
X018607Y016046D01*
X018607Y016314D01*
X018504Y016562D01*
X018314Y016752D01*
X018066Y016855D01*
X017798Y016855D01*
X017550Y016752D01*
X017360Y016562D01*
X017257Y016314D01*
X017257Y016189D02*
X017229Y016189D01*
X017223Y016030D02*
X017264Y016030D01*
X017329Y015872D02*
X017157Y015872D01*
X017042Y015713D02*
X017444Y015713D01*
X017678Y015555D02*
X016808Y015555D01*
X018186Y015555D02*
X018736Y015555D01*
X018655Y015713D02*
X018420Y015713D01*
X018535Y015872D02*
X018655Y015872D01*
X018655Y016030D02*
X018601Y016030D01*
X018607Y016189D02*
X019272Y016189D01*
X019348Y016189D02*
X020029Y016189D01*
X020043Y016347D02*
X019965Y016347D01*
X019965Y016506D02*
X019983Y016506D01*
X019348Y016506D02*
X019272Y016506D01*
X019272Y016664D02*
X019348Y016664D01*
X019348Y016823D02*
X019272Y016823D01*
X018765Y016823D02*
X018145Y016823D01*
X018403Y016664D02*
X018655Y016664D01*
X018655Y016506D02*
X018528Y016506D01*
X018593Y016347D02*
X018655Y016347D01*
X019272Y016347D02*
X019348Y016347D01*
X019348Y016030D02*
X019272Y016030D01*
X019272Y015872D02*
X019348Y015872D01*
X019348Y015713D02*
X019272Y015713D01*
X019272Y015555D02*
X019348Y015555D01*
X019884Y015555D02*
X020450Y015555D01*
X020216Y015713D02*
X019965Y015713D01*
X019965Y015872D02*
X020101Y015872D01*
X020036Y016030D02*
X019965Y016030D01*
X020958Y015555D02*
X021828Y015555D01*
X021948Y015505D02*
X022216Y015505D01*
X022464Y015608D01*
X022654Y015798D01*
X022757Y016046D01*
X022757Y016314D01*
X022654Y016562D01*
X022464Y016752D01*
X022216Y016855D01*
X021948Y016855D01*
X021700Y016752D01*
X021510Y016562D01*
X021407Y016314D01*
X021407Y016046D01*
X021510Y015798D01*
X021700Y015608D01*
X021948Y015505D01*
X022336Y015555D02*
X022886Y015555D01*
X022805Y015713D02*
X022570Y015713D01*
X022685Y015872D02*
X022805Y015872D01*
X022805Y016030D02*
X022751Y016030D01*
X022757Y016189D02*
X023422Y016189D01*
X023498Y016189D02*
X024159Y016189D01*
X024173Y016347D02*
X024115Y016347D01*
X024115Y016030D02*
X024166Y016030D01*
X024115Y015872D02*
X024231Y015872D01*
X024115Y015713D02*
X024346Y015713D01*
X024580Y015555D02*
X024034Y015555D01*
X023498Y015555D02*
X023422Y015555D01*
X023422Y015713D02*
X023498Y015713D01*
X023498Y015872D02*
X023422Y015872D01*
X023422Y016030D02*
X023498Y016030D01*
X023498Y016347D02*
X023422Y016347D01*
X023422Y016506D02*
X023498Y016506D01*
X023498Y016664D02*
X023422Y016664D01*
X023422Y016823D02*
X023498Y016823D01*
X022915Y016823D02*
X022295Y016823D01*
X022553Y016664D02*
X022805Y016664D01*
X022805Y016506D02*
X022678Y016506D01*
X022743Y016347D02*
X022805Y016347D01*
X021869Y016823D02*
X021743Y016823D01*
X021611Y016664D02*
X021584Y016664D01*
X021486Y016506D02*
X021426Y016506D01*
X021421Y016347D02*
X021366Y016347D01*
X021379Y016189D02*
X021407Y016189D01*
X021414Y016030D02*
X021373Y016030D01*
X021307Y015872D02*
X021479Y015872D01*
X021594Y015713D02*
X021192Y015713D01*
X017719Y016823D02*
X017593Y016823D01*
X017461Y016664D02*
X017434Y016664D01*
X017336Y016506D02*
X017276Y016506D01*
X013589Y016823D02*
X013463Y016823D01*
X013331Y016664D02*
X013304Y016664D01*
X013206Y016506D02*
X013146Y016506D01*
X013141Y016347D02*
X013086Y016347D01*
X013099Y016189D02*
X013127Y016189D01*
X013134Y016030D02*
X013093Y016030D01*
X013027Y015872D02*
X013199Y015872D01*
X013314Y015713D02*
X012912Y015713D01*
X011936Y015713D02*
X009434Y015713D01*
X009434Y015872D02*
X011821Y015872D01*
X009844Y015079D02*
X009380Y015079D01*
X005326Y015872D02*
X001368Y015872D01*
X001209Y015713D02*
X004217Y015713D01*
X004059Y015555D02*
X001051Y015555D01*
X000960Y015396D02*
X003900Y015396D01*
X003742Y015238D02*
X000960Y015238D01*
X013780Y008380D02*
X016880Y005280D01*
X024080Y005280D01*
X024780Y005252D02*
X026656Y005252D01*
X026498Y005094D02*
X024776Y005094D01*
X024752Y004935D02*
X026339Y004935D01*
X026181Y004777D02*
X024760Y004777D01*
X024750Y004618D02*
X026022Y004618D01*
X025864Y004460D02*
X024742Y004460D01*
X024760Y004301D02*
X025705Y004301D01*
X025547Y004143D02*
X024756Y004143D01*
X024728Y003984D02*
X025388Y003984D01*
X025230Y003826D02*
X024760Y003826D01*
X024760Y003667D02*
X025071Y003667D01*
X024080Y003826D02*
X024080Y003826D01*
X024080Y003984D02*
X024080Y003984D01*
X024080Y004143D02*
X024080Y004143D01*
X024080Y004301D02*
X024080Y004301D01*
X024080Y004460D02*
X024080Y004460D01*
X024080Y004618D02*
X024080Y004618D01*
X024080Y004777D02*
X024080Y004777D01*
X024780Y005411D02*
X026815Y005411D01*
X026973Y005569D02*
X024752Y005569D01*
X024780Y005728D02*
X027132Y005728D01*
X027290Y005886D02*
X024780Y005886D01*
X024698Y006045D02*
X027462Y006045D01*
X024080Y005780D02*
X016980Y005780D01*
X014691Y004935D02*
X014582Y004935D01*
X014582Y004777D02*
X014850Y004777D01*
X015008Y004618D02*
X014582Y004618D01*
X014582Y004460D02*
X015167Y004460D01*
X015325Y004301D02*
X014582Y004301D01*
X014582Y004143D02*
X015484Y004143D01*
X015642Y003984D02*
X014582Y003984D01*
X014582Y003826D02*
X015801Y003826D01*
X015959Y003667D02*
X014582Y003667D01*
X014582Y003509D02*
X016118Y003509D01*
X016276Y003350D02*
X014582Y003350D01*
X014582Y003192D02*
X016435Y003192D01*
X016593Y003033D02*
X014582Y003033D01*
X014582Y002875D02*
X016752Y002875D01*
X016910Y002716D02*
X014582Y002716D01*
X014582Y002558D02*
X017069Y002558D01*
X018178Y002241D02*
X018273Y002241D01*
X016389Y001448D02*
X016335Y001448D01*
X016335Y001290D02*
X016378Y001290D01*
X015718Y001290D02*
X015642Y001290D01*
X015642Y001448D02*
X015718Y001448D01*
X015718Y001765D02*
X015642Y001765D01*
X015642Y001924D02*
X015718Y001924D01*
X015718Y002082D02*
X015642Y002082D01*
X015025Y001448D02*
X014977Y001448D01*
X015025Y001290D02*
X014912Y001290D01*
X014808Y001131D02*
X015025Y001131D01*
X015083Y000973D02*
X014599Y000973D01*
X015642Y000973D02*
X015718Y000973D01*
X015718Y001131D02*
X015642Y001131D01*
X013611Y000497D02*
X010966Y000497D01*
X011032Y000656D02*
X013453Y000656D01*
X012755Y002241D02*
X012660Y002241D01*
X011180Y004880D02*
X011180Y006680D01*
X009718Y007154D02*
X009382Y007154D01*
X009536Y006996D02*
X009564Y006996D01*
X008718Y007154D02*
X008382Y007154D01*
X008536Y006996D02*
X008564Y006996D01*
X008535Y006362D02*
X008565Y006362D01*
X021468Y000973D02*
X029392Y000973D01*
X030049Y000814D02*
X021310Y000814D01*
X021151Y000656D02*
X042980Y000656D01*
X043050Y000497D02*
X020993Y000497D01*
X022102Y001607D02*
X023415Y001607D01*
X023412Y001611D02*
X023436Y001569D01*
X023469Y001536D01*
X023511Y001512D01*
X023556Y001500D01*
X024080Y001500D01*
X024080Y001780D01*
X023400Y001780D01*
X023400Y001656D01*
X023412Y001611D01*
X023400Y001765D02*
X022261Y001765D01*
X022419Y001924D02*
X023405Y001924D01*
X023395Y002082D02*
X022578Y002082D01*
X022736Y002241D02*
X023380Y002241D01*
X023380Y002399D02*
X022895Y002399D01*
X023053Y002558D02*
X023420Y002558D01*
X023380Y002716D02*
X023212Y002716D01*
X023370Y002875D02*
X023380Y002875D01*
X024765Y002082D02*
X027395Y002082D01*
X027380Y001924D02*
X024755Y001924D01*
X024760Y001765D02*
X027380Y001765D01*
X027380Y001607D02*
X024745Y001607D01*
X024080Y001607D02*
X024080Y001607D01*
X024080Y001765D02*
X024080Y001765D01*
X028080Y001780D02*
X028980Y001780D01*
X029955Y001607D02*
X041958Y001607D01*
X042180Y001780D02*
X042180Y012058D01*
X042460Y011275D02*
X043381Y011275D01*
X043461Y011308D02*
X043240Y011217D01*
X043071Y011048D01*
X042980Y010827D01*
X042980Y010589D01*
X043071Y010368D01*
X043240Y010199D01*
X043461Y010108D01*
X043699Y010108D01*
X043920Y010199D01*
X044089Y010368D01*
X044180Y010589D01*
X044180Y010827D01*
X044089Y011048D01*
X043920Y011217D01*
X043699Y011308D01*
X043461Y011308D01*
X043779Y011275D02*
X044920Y011275D01*
X044920Y011117D02*
X044020Y011117D01*
X044126Y010958D02*
X044920Y010958D01*
X044920Y010800D02*
X044180Y010800D01*
X044180Y010641D02*
X044920Y010641D01*
X044920Y010483D02*
X044136Y010483D01*
X044045Y010324D02*
X044920Y010324D01*
X044920Y010166D02*
X043838Y010166D01*
X044063Y009930D02*
X043097Y009930D01*
X042980Y009813D01*
X042980Y008847D01*
X043097Y008730D01*
X044063Y008730D01*
X044180Y008847D01*
X044180Y009813D01*
X044063Y009930D01*
X044144Y009849D02*
X044920Y009849D01*
X044920Y010007D02*
X042460Y010007D01*
X042460Y009849D02*
X043016Y009849D01*
X042980Y009690D02*
X042460Y009690D01*
X042460Y009532D02*
X042980Y009532D01*
X042980Y009373D02*
X042460Y009373D01*
X042460Y009215D02*
X042980Y009215D01*
X042980Y009056D02*
X042460Y009056D01*
X042460Y008898D02*
X042980Y008898D01*
X043088Y008739D02*
X042460Y008739D01*
X042460Y008581D02*
X044920Y008581D01*
X044920Y008739D02*
X044072Y008739D01*
X044180Y008898D02*
X044920Y008898D01*
X044920Y009056D02*
X044180Y009056D01*
X044180Y009215D02*
X044920Y009215D01*
X044920Y009373D02*
X044180Y009373D01*
X044180Y009532D02*
X044920Y009532D01*
X044920Y009690D02*
X044180Y009690D01*
X043322Y010166D02*
X042460Y010166D01*
X042460Y010324D02*
X043115Y010324D01*
X043024Y010483D02*
X042460Y010483D01*
X042460Y010641D02*
X042980Y010641D01*
X042980Y010800D02*
X042460Y010800D01*
X042460Y010958D02*
X043034Y010958D01*
X043140Y011117D02*
X042460Y011117D01*
X042460Y008422D02*
X043196Y008422D01*
X043240Y008467D02*
X043071Y008298D01*
X042980Y008077D01*
X042980Y007839D01*
X043071Y007618D01*
X043240Y007449D01*
X043461Y007358D01*
X043699Y007358D01*
X043920Y007449D01*
X044089Y007618D01*
X044180Y007839D01*
X044180Y008077D01*
X044089Y008298D01*
X043920Y008467D01*
X043699Y008558D01*
X043461Y008558D01*
X043240Y008467D01*
X043057Y008264D02*
X042460Y008264D01*
X042460Y008105D02*
X042991Y008105D01*
X042980Y007947D02*
X042460Y007947D01*
X042460Y007788D02*
X043001Y007788D01*
X043067Y007630D02*
X042460Y007630D01*
X042460Y007471D02*
X043218Y007471D01*
X043097Y007180D02*
X042980Y007063D01*
X042980Y006097D01*
X043097Y005980D01*
X044063Y005980D01*
X044180Y006097D01*
X044180Y007063D01*
X044063Y007180D01*
X043097Y007180D01*
X043071Y007154D02*
X042460Y007154D01*
X042460Y006996D02*
X042980Y006996D01*
X042980Y006837D02*
X042460Y006837D01*
X042460Y006679D02*
X042980Y006679D01*
X042980Y006520D02*
X042460Y006520D01*
X042460Y006362D02*
X042980Y006362D01*
X042980Y006203D02*
X042460Y006203D01*
X042460Y006045D02*
X043033Y006045D01*
X043240Y005707D02*
X043461Y005798D01*
X043699Y005798D01*
X043920Y005707D01*
X044089Y005538D01*
X044180Y005317D01*
X044180Y005079D01*
X044089Y004858D01*
X043920Y004689D01*
X043699Y004598D01*
X043461Y004598D01*
X043240Y004689D01*
X043071Y004858D01*
X042980Y005079D01*
X042980Y005317D01*
X043071Y005538D01*
X043240Y005707D01*
X043291Y005728D02*
X042460Y005728D01*
X042460Y005886D02*
X044920Y005886D01*
X044920Y005728D02*
X043869Y005728D01*
X044057Y005569D02*
X044920Y005569D01*
X044920Y005411D02*
X044141Y005411D01*
X044180Y005252D02*
X044920Y005252D01*
X044920Y005094D02*
X044180Y005094D01*
X044121Y004935D02*
X044920Y004935D01*
X044920Y004777D02*
X044007Y004777D01*
X043748Y004618D02*
X044920Y004618D01*
X044920Y004460D02*
X042460Y004460D01*
X042460Y004618D02*
X043412Y004618D01*
X043153Y004777D02*
X042460Y004777D01*
X042460Y004935D02*
X043039Y004935D01*
X042980Y005094D02*
X042460Y005094D01*
X042460Y005252D02*
X042980Y005252D01*
X043019Y005411D02*
X042460Y005411D01*
X042460Y005569D02*
X043103Y005569D01*
X044127Y006045D02*
X044920Y006045D01*
X044920Y006203D02*
X044180Y006203D01*
X044180Y006362D02*
X044920Y006362D01*
X044920Y006520D02*
X044180Y006520D01*
X044180Y006679D02*
X044920Y006679D01*
X044920Y006837D02*
X044180Y006837D01*
X044180Y006996D02*
X044920Y006996D01*
X044920Y007154D02*
X044089Y007154D01*
X043942Y007471D02*
X044920Y007471D01*
X044920Y007313D02*
X042460Y007313D01*
X044093Y007630D02*
X044920Y007630D01*
X044920Y007788D02*
X044159Y007788D01*
X044180Y007947D02*
X044920Y007947D01*
X044920Y008105D02*
X044169Y008105D01*
X044103Y008264D02*
X044920Y008264D01*
X044920Y008422D02*
X043964Y008422D01*
X044063Y004420D02*
X043097Y004420D01*
X042980Y004303D01*
X042980Y003337D01*
X043097Y003220D01*
X044063Y003220D01*
X044180Y003337D01*
X044180Y004303D01*
X044063Y004420D01*
X044180Y004301D02*
X044920Y004301D01*
X044920Y004143D02*
X044180Y004143D01*
X044180Y003984D02*
X044920Y003984D01*
X044920Y003826D02*
X044180Y003826D01*
X044180Y003667D02*
X044920Y003667D01*
X044920Y003509D02*
X044180Y003509D01*
X044180Y003350D02*
X044920Y003350D01*
X044920Y003192D02*
X042460Y003192D01*
X042460Y003350D02*
X042980Y003350D01*
X042980Y003509D02*
X042460Y003509D01*
X042460Y003667D02*
X042980Y003667D01*
X042980Y003826D02*
X042460Y003826D01*
X042460Y003984D02*
X042980Y003984D01*
X042980Y004143D02*
X042460Y004143D01*
X042460Y004301D02*
X042980Y004301D01*
X041900Y003509D02*
X031900Y003509D01*
X031968Y003350D02*
X041900Y003350D01*
X041900Y003192D02*
X031963Y003192D01*
X031882Y003033D02*
X041900Y003033D01*
X041900Y002875D02*
X030081Y002875D01*
X029780Y002780D02*
X030180Y002380D01*
X030542Y002241D02*
X041900Y002241D01*
X041900Y002399D02*
X030568Y002399D01*
X030527Y002558D02*
X041900Y002558D01*
X041900Y002716D02*
X030383Y002716D01*
X029780Y002780D02*
X028080Y002780D01*
X028080Y003280D02*
X031580Y003280D01*
X030431Y002082D02*
X041900Y002082D01*
X042460Y002082D02*
X043077Y002082D01*
X043071Y002088D02*
X043240Y001919D01*
X043461Y001828D01*
X043699Y001828D01*
X043920Y001919D01*
X044089Y002088D01*
X044180Y002309D01*
X044180Y002547D01*
X044089Y002768D01*
X043920Y002937D01*
X043699Y003028D01*
X043461Y003028D01*
X043240Y002937D01*
X043071Y002768D01*
X042980Y002547D01*
X042980Y002309D01*
X043071Y002088D01*
X043008Y002241D02*
X042460Y002241D01*
X042460Y002399D02*
X042980Y002399D01*
X042984Y002558D02*
X042460Y002558D01*
X042460Y002716D02*
X043050Y002716D01*
X043178Y002875D02*
X042460Y002875D01*
X042460Y003033D02*
X044920Y003033D01*
X044920Y002875D02*
X043982Y002875D01*
X044110Y002716D02*
X044920Y002716D01*
X044920Y002558D02*
X044176Y002558D01*
X044180Y002399D02*
X044920Y002399D01*
X044920Y002241D02*
X044152Y002241D01*
X044083Y002082D02*
X044920Y002082D01*
X044920Y001924D02*
X043924Y001924D01*
X043236Y001924D02*
X042460Y001924D01*
X042591Y001765D02*
X044920Y001765D01*
X044920Y001607D02*
X044106Y001607D01*
X044180Y001448D02*
X044920Y001448D01*
X044920Y001290D02*
X044180Y001290D01*
X044180Y001131D02*
X044920Y001131D01*
X044920Y000973D02*
X044180Y000973D01*
X044180Y000814D02*
X044920Y000814D01*
X044920Y000656D02*
X044180Y000656D01*
X044110Y000497D02*
X044920Y000497D01*
X043580Y001050D02*
X042910Y001050D01*
X042180Y001780D01*
X042749Y001607D02*
X043054Y001607D01*
X042980Y001448D02*
X042908Y001448D01*
X042433Y001131D02*
X030568Y001131D01*
X030514Y000973D02*
X042592Y000973D01*
X042750Y000814D02*
X030311Y000814D01*
X030208Y015505D02*
X030476Y015505D01*
X030724Y015608D01*
X030914Y015798D01*
X031017Y016046D01*
X031017Y016314D01*
X030914Y016562D01*
X030724Y016752D01*
X030476Y016855D01*
X030208Y016855D01*
X029960Y016752D01*
X029770Y016562D01*
X029667Y016314D01*
X029667Y016046D01*
X029770Y015798D01*
X029960Y015608D01*
X030208Y015505D01*
X030088Y015555D02*
X029218Y015555D01*
X029452Y015713D02*
X029854Y015713D01*
X029739Y015872D02*
X029567Y015872D01*
X029633Y016030D02*
X029674Y016030D01*
X029667Y016189D02*
X029639Y016189D01*
X029626Y016347D02*
X029681Y016347D01*
X029686Y016506D02*
X029746Y016506D01*
X029844Y016664D02*
X029871Y016664D01*
X030003Y016823D02*
X030129Y016823D01*
X030555Y016823D02*
X031175Y016823D01*
X031065Y016664D02*
X030813Y016664D01*
X030938Y016506D02*
X031065Y016506D01*
X031065Y016347D02*
X031003Y016347D01*
X031017Y016189D02*
X031682Y016189D01*
X031758Y016189D02*
X032419Y016189D01*
X032433Y016347D02*
X032375Y016347D01*
X031758Y016347D02*
X031682Y016347D01*
X031682Y016506D02*
X031758Y016506D01*
X031758Y016664D02*
X031682Y016664D01*
X031682Y016823D02*
X031758Y016823D01*
X033756Y016347D02*
X033811Y016347D01*
X033797Y016314D02*
X033797Y016046D01*
X033900Y015798D01*
X034090Y015608D01*
X034338Y015505D01*
X034606Y015505D01*
X034854Y015608D01*
X035044Y015798D01*
X035147Y016046D01*
X035147Y016314D01*
X035044Y016562D01*
X034854Y016752D01*
X034606Y016855D01*
X034338Y016855D01*
X034090Y016752D01*
X033900Y016562D01*
X033797Y016314D01*
X033797Y016189D02*
X033769Y016189D01*
X033763Y016030D02*
X033804Y016030D01*
X033869Y015872D02*
X033697Y015872D01*
X033582Y015713D02*
X033984Y015713D01*
X034218Y015555D02*
X033348Y015555D01*
X032840Y015555D02*
X032294Y015555D01*
X032375Y015713D02*
X032606Y015713D01*
X032491Y015872D02*
X032375Y015872D01*
X032375Y016030D02*
X032426Y016030D01*
X031758Y016030D02*
X031682Y016030D01*
X031682Y015872D02*
X031758Y015872D01*
X031758Y015713D02*
X031682Y015713D01*
X031682Y015555D02*
X031758Y015555D01*
X031146Y015555D02*
X030596Y015555D01*
X030830Y015713D02*
X031065Y015713D01*
X031065Y015872D02*
X030945Y015872D01*
X031011Y016030D02*
X031065Y016030D01*
X028710Y015555D02*
X028164Y015555D01*
X028245Y015713D02*
X028476Y015713D01*
X028361Y015872D02*
X028245Y015872D01*
X028245Y016030D02*
X028296Y016030D01*
X028289Y016189D02*
X027628Y016189D01*
X027552Y016189D02*
X026887Y016189D01*
X026887Y016314D02*
X026887Y016046D01*
X026784Y015798D01*
X026594Y015608D01*
X026346Y015505D01*
X026078Y015505D01*
X025830Y015608D01*
X025640Y015798D01*
X025537Y016046D01*
X025537Y016314D01*
X025640Y016562D01*
X025830Y016752D01*
X026078Y016855D01*
X026346Y016855D01*
X026594Y016752D01*
X026784Y016562D01*
X026887Y016314D01*
X026873Y016347D02*
X026935Y016347D01*
X026935Y016506D02*
X026808Y016506D01*
X026683Y016664D02*
X026935Y016664D01*
X027045Y016823D02*
X026425Y016823D01*
X025999Y016823D02*
X025873Y016823D01*
X025741Y016664D02*
X025714Y016664D01*
X025616Y016506D02*
X025556Y016506D01*
X025551Y016347D02*
X025496Y016347D01*
X025509Y016189D02*
X025537Y016189D01*
X025544Y016030D02*
X025503Y016030D01*
X025437Y015872D02*
X025609Y015872D01*
X025724Y015713D02*
X025322Y015713D01*
X025088Y015555D02*
X025958Y015555D01*
X026466Y015555D02*
X027016Y015555D01*
X026935Y015713D02*
X026700Y015713D01*
X026815Y015872D02*
X026935Y015872D01*
X026935Y016030D02*
X026881Y016030D01*
X027552Y016030D02*
X027628Y016030D01*
X027628Y015872D02*
X027552Y015872D01*
X027552Y015713D02*
X027628Y015713D01*
X027628Y015555D02*
X027552Y015555D01*
X027552Y016347D02*
X027628Y016347D01*
X027628Y016506D02*
X027552Y016506D01*
X027552Y016664D02*
X027628Y016664D01*
X027628Y016823D02*
X027552Y016823D01*
X028245Y016347D02*
X028303Y016347D01*
X033816Y016506D02*
X033876Y016506D01*
X033974Y016664D02*
X034001Y016664D01*
X034133Y016823D02*
X034259Y016823D01*
X034685Y016823D02*
X035305Y016823D01*
X035195Y016664D02*
X034943Y016664D01*
X035068Y016506D02*
X035195Y016506D01*
X035195Y016347D02*
X035133Y016347D01*
X035147Y016189D02*
X035812Y016189D01*
X035888Y016189D02*
X036549Y016189D01*
X036563Y016347D02*
X036505Y016347D01*
X035888Y016347D02*
X035812Y016347D01*
X035812Y016506D02*
X035888Y016506D01*
X035888Y016664D02*
X035812Y016664D01*
X035812Y016823D02*
X035888Y016823D01*
X036661Y017140D02*
X037788Y017140D01*
X037946Y017298D02*
X036502Y017298D01*
X036819Y016981D02*
X037629Y016981D01*
X037471Y016823D02*
X037437Y016823D01*
X037011Y016823D02*
X036978Y016823D01*
X037946Y016506D02*
X038006Y016506D01*
X037941Y016347D02*
X037886Y016347D01*
X037899Y016189D02*
X037927Y016189D01*
X037934Y016030D02*
X037893Y016030D01*
X037827Y015872D02*
X037999Y015872D01*
X038114Y015713D02*
X037712Y015713D01*
X037478Y015555D02*
X038348Y015555D01*
X038856Y015555D02*
X039406Y015555D01*
X039325Y015713D02*
X039090Y015713D01*
X039205Y015872D02*
X039325Y015872D01*
X039325Y016030D02*
X039271Y016030D01*
X039277Y016189D02*
X039942Y016189D01*
X040018Y016189D02*
X040679Y016189D01*
X040693Y016347D02*
X040635Y016347D01*
X040635Y016030D02*
X040686Y016030D01*
X040635Y015872D02*
X040751Y015872D01*
X040635Y015713D02*
X040866Y015713D01*
X041100Y015555D02*
X040554Y015555D01*
X040018Y015555D02*
X039942Y015555D01*
X039942Y015713D02*
X040018Y015713D01*
X040018Y015872D02*
X039942Y015872D01*
X039942Y016030D02*
X040018Y016030D01*
X039325Y016347D02*
X039263Y016347D01*
X039325Y016506D02*
X039198Y016506D01*
X039073Y016664D02*
X039325Y016664D01*
X038131Y016664D02*
X038104Y016664D01*
X036556Y016030D02*
X036505Y016030D01*
X036505Y015872D02*
X036621Y015872D01*
X036505Y015713D02*
X036736Y015713D01*
X036970Y015555D02*
X036424Y015555D01*
X035888Y015555D02*
X035812Y015555D01*
X035812Y015713D02*
X035888Y015713D01*
X035888Y015872D02*
X035812Y015872D01*
X035812Y016030D02*
X035888Y016030D01*
X035195Y016030D02*
X035141Y016030D01*
X035195Y015872D02*
X035075Y015872D01*
X034960Y015713D02*
X035195Y015713D01*
X035276Y015555D02*
X034726Y015555D01*
X040632Y017298D02*
X044920Y017298D01*
X044920Y017140D02*
X040791Y017140D01*
X040949Y016981D02*
X044920Y016981D01*
X044920Y016823D02*
X044655Y016823D01*
X044765Y016664D02*
X044920Y016664D01*
X044920Y016506D02*
X044765Y016506D01*
X044765Y016347D02*
X044920Y016347D01*
X044148Y016347D02*
X044072Y016347D01*
X044072Y016506D02*
X044148Y016506D01*
X044148Y016664D02*
X044072Y016664D01*
X044072Y016823D02*
X044148Y016823D01*
X041141Y016823D02*
X041108Y016823D01*
D19*
X029880Y005780D03*
X030580Y005280D03*
X031080Y004780D03*
X031380Y004180D03*
X031580Y003280D03*
X030180Y002380D03*
X029680Y001880D03*
X030180Y001180D03*
X011180Y004880D03*
X011180Y006680D03*
X011280Y009480D03*
X011280Y010380D03*
X011280Y011380D03*
X007980Y010380D03*
X006280Y009780D03*
X008980Y009480D03*
X007080Y011380D03*
M02*
