G75*
%MOIN*%
%OFA0B0*%
%FSLAX24Y24*%
%IPPOS*%
%LPD*%
%AMOC8*
5,1,8,0,0,1.08239X$1,22.5*
%
%ADD10C,0.0080*%
%ADD11C,0.0030*%
%ADD12C,0.0090*%
%ADD13C,0.0060*%
%ADD14C,0.0120*%
%ADD15C,0.0160*%
%ADD16C,0.0050*%
%ADD17C,0.0100*%
%ADD18R,0.0165X0.0015*%
%ADD19R,0.0240X0.0015*%
%ADD20R,0.0285X0.0015*%
%ADD21R,0.0315X0.0015*%
%ADD22R,0.0330X0.0015*%
%ADD23R,0.0360X0.0015*%
%ADD24R,0.0210X0.0015*%
%ADD25R,0.0660X0.0015*%
%ADD26R,0.0270X0.0015*%
%ADD27R,0.0180X0.0015*%
%ADD28R,0.0795X0.0015*%
%ADD29R,0.0300X0.0015*%
%ADD30R,0.0915X0.0015*%
%ADD31R,0.0150X0.0015*%
%ADD32R,0.0975X0.0015*%
%ADD33R,0.0345X0.0015*%
%ADD34R,0.0090X0.0015*%
%ADD35R,0.1035X0.0015*%
%ADD36R,0.0225X0.0015*%
%ADD37R,0.1185X0.0015*%
%ADD38R,0.0120X0.0015*%
%ADD39R,0.0135X0.0015*%
%ADD40R,0.1320X0.0015*%
%ADD41R,0.0195X0.0015*%
%ADD42R,0.0015X0.0015*%
%ADD43R,0.0255X0.0015*%
%ADD44R,0.0465X0.0015*%
%ADD45R,0.0630X0.0015*%
%ADD46R,0.0390X0.0015*%
%ADD47R,0.0615X0.0015*%
%ADD48R,0.0375X0.0015*%
%ADD49R,0.0585X0.0015*%
%ADD50R,0.0570X0.0015*%
%ADD51R,0.0075X0.0015*%
%ADD52R,0.0045X0.0015*%
%ADD53R,0.0105X0.0015*%
%ADD54R,0.0420X0.0015*%
%ADD55R,0.0405X0.0015*%
%ADD56R,0.0450X0.0015*%
%ADD57R,0.0030X0.0015*%
%ADD58R,0.0510X0.0015*%
%ADD59R,0.0990X0.0015*%
%ADD60R,0.1050X0.0015*%
%ADD61R,0.1140X0.0015*%
%ADD62R,0.0435X0.0015*%
%ADD63R,0.0060X0.0015*%
%ADD64R,0.0495X0.0015*%
%ADD65R,0.0525X0.0015*%
%ADD66R,0.0555X0.0015*%
%ADD67R,0.0705X0.0015*%
%ADD68R,0.0675X0.0015*%
%ADD69R,0.0750X0.0015*%
%ADD70R,0.0720X0.0015*%
%ADD71R,0.0780X0.0015*%
%ADD72R,0.0645X0.0015*%
%ADD73R,0.1005X0.0015*%
%ADD74R,0.1080X0.0015*%
%ADD75R,0.0825X0.0015*%
%ADD76R,0.1125X0.0015*%
%ADD77R,0.0735X0.0015*%
%ADD78R,0.0855X0.0015*%
%ADD79R,0.0480X0.0015*%
%ADD80R,0.1215X0.0015*%
%ADD81R,0.0765X0.0015*%
%ADD82R,0.0885X0.0015*%
%ADD83R,0.1290X0.0015*%
%ADD84R,0.1365X0.0015*%
%ADD85R,0.0930X0.0015*%
%ADD86R,0.1425X0.0015*%
%ADD87R,0.0960X0.0015*%
%ADD88R,0.1230X0.0015*%
%ADD89R,0.1020X0.0015*%
%ADD90R,0.1245X0.0015*%
%ADD91R,0.1095X0.0015*%
%ADD92R,0.1110X0.0015*%
%ADD93R,0.1260X0.0015*%
%ADD94R,0.1170X0.0015*%
%ADD95R,0.0540X0.0015*%
%ADD96R,0.1155X0.0015*%
%ADD97R,0.0600X0.0015*%
%ADD98R,0.1335X0.0015*%
%ADD99R,0.1065X0.0015*%
%ADD100R,0.1470X0.0015*%
%ADD101R,0.1545X0.0015*%
%ADD102R,0.0810X0.0015*%
%ADD103R,0.1800X0.0015*%
%ADD104R,0.1455X0.0015*%
%ADD105R,0.2025X0.0015*%
%ADD106R,0.2040X0.0015*%
%ADD107R,0.1935X0.0015*%
%ADD108R,0.0690X0.0015*%
%ADD109R,0.0900X0.0015*%
%ADD110R,0.0840X0.0015*%
%ADD111R,0.0870X0.0015*%
%ADD112R,0.0945X0.0015*%
%ADD113R,0.0460X0.1280*%
%ADD114R,0.0430X0.0230*%
%ADD115R,0.0450X0.1260*%
%ADD116R,0.0490X0.1100*%
%ADD117R,0.0430X0.2070*%
%ADD118R,0.0450X0.1510*%
%ADD119R,0.0440X0.1200*%
%ADD120R,0.0160X0.0460*%
%ADD121R,0.0160X0.0120*%
%ADD122R,0.0150X0.0620*%
%ADD123R,0.0150X0.0530*%
%ADD124R,0.0150X0.0460*%
%ADD125R,0.0150X0.0390*%
%ADD126R,0.0150X0.0570*%
%ADD127R,0.0080X0.0130*%
%ADD128R,0.0060X0.0130*%
%ADD129R,0.0150X0.0650*%
%ADD130R,0.0150X0.0470*%
%ADD131R,0.0160X0.0130*%
%ADD132R,0.0150X0.0490*%
%ADD133R,0.0050X0.0130*%
%ADD134R,0.0170X0.0460*%
%ADD135R,0.0180X0.0120*%
%ADD136R,0.0150X0.0380*%
%ADD137R,0.0420X0.0880*%
%ADD138R,0.1270X0.0250*%
%ADD139R,0.0410X0.0090*%
%ADD140R,0.0150X0.0350*%
%ADD141R,0.0060X0.0770*%
D10*
X004380Y003580D02*
X004380Y005580D01*
X005180Y005580D01*
X005180Y003580D01*
X004380Y003580D01*
X005480Y003580D02*
X005480Y005580D01*
X006280Y005580D01*
X006280Y003580D01*
X005480Y003580D01*
X006580Y003580D02*
X006580Y005580D01*
X007380Y005580D01*
X007380Y003580D01*
X006580Y003580D01*
X007640Y003600D02*
X007640Y005590D01*
X007680Y005580D02*
X008440Y005580D01*
X008440Y003600D01*
X007640Y003600D01*
X007830Y004580D02*
X008240Y004580D01*
X007180Y004580D02*
X006780Y004580D01*
X006080Y004580D02*
X005680Y004580D01*
X004980Y004580D02*
X004580Y004580D01*
X004800Y006180D02*
X005300Y006180D01*
X005550Y006430D01*
X005800Y006180D01*
X006300Y006180D01*
X006550Y006430D01*
X006800Y006180D01*
X007300Y006180D01*
X007550Y006430D01*
X007800Y006180D01*
X008300Y006180D01*
X008550Y006430D01*
X008800Y006180D01*
X009300Y006180D01*
X009550Y006430D01*
X009800Y006180D01*
X010300Y006180D01*
X010550Y006430D01*
X010550Y006930D01*
X010300Y007180D01*
X009800Y007180D01*
X009550Y006930D01*
X009300Y007180D01*
X008800Y007180D01*
X008550Y006930D01*
X008300Y007180D01*
X007800Y007180D01*
X007550Y006930D01*
X007300Y007180D01*
X006800Y007180D01*
X006550Y006930D01*
X006300Y007180D01*
X005800Y007180D01*
X005550Y006930D01*
X005300Y007180D01*
X004800Y007180D01*
X004550Y006930D01*
X004300Y007180D01*
X003800Y007180D01*
X003550Y006930D01*
X003300Y007180D01*
X002800Y007180D01*
X002550Y006930D01*
X002300Y007180D01*
X001800Y007180D01*
X001550Y006930D01*
X001550Y006430D01*
X001800Y006180D01*
X002300Y006180D01*
X002550Y006430D01*
X002800Y006180D01*
X003300Y006180D01*
X003550Y006430D01*
X003800Y006180D01*
X004300Y006180D01*
X004550Y006430D01*
X004800Y006180D01*
X004960Y007499D02*
X004820Y007639D01*
X005240Y007639D01*
X005240Y007499D02*
X005240Y007779D01*
X005170Y007960D02*
X005240Y008030D01*
X005240Y008170D01*
X005170Y008240D01*
X005100Y008240D01*
X005030Y008170D01*
X005030Y008100D01*
X005030Y008170D02*
X004960Y008240D01*
X004890Y008240D01*
X004820Y008170D01*
X004820Y008030D01*
X004890Y007960D01*
X004240Y007939D02*
X004240Y007869D01*
X004170Y007869D01*
X004170Y007939D01*
X004240Y007939D01*
X004170Y008099D02*
X004240Y008169D01*
X004240Y008309D01*
X004170Y008379D01*
X004100Y008379D01*
X004030Y008309D01*
X004030Y008239D01*
X004030Y008309D02*
X003960Y008379D01*
X003890Y008379D01*
X003820Y008309D01*
X003820Y008169D01*
X003890Y008099D01*
X003240Y008179D02*
X002820Y008179D01*
X002820Y008360D02*
X002820Y008570D01*
X002890Y008640D01*
X003170Y008640D01*
X003240Y008570D01*
X003240Y008360D01*
X002820Y008360D01*
X003240Y008179D02*
X002820Y007899D01*
X003240Y007899D01*
X003170Y007719D02*
X003030Y007719D01*
X003030Y007579D01*
X003170Y007719D02*
X003240Y007649D01*
X003240Y007509D01*
X003170Y007439D01*
X002890Y007439D01*
X002820Y007509D01*
X002820Y007649D01*
X002890Y007719D01*
X002240Y007632D02*
X002100Y007492D01*
X001820Y007492D01*
X002100Y007773D02*
X002240Y007632D01*
X002100Y007773D02*
X001820Y007773D01*
X001820Y007953D02*
X001820Y008093D01*
X001820Y008023D02*
X002240Y008023D01*
X002240Y007953D02*
X002240Y008093D01*
X002240Y008260D02*
X001820Y008260D01*
X002240Y008540D01*
X001820Y008540D01*
X003820Y008560D02*
X004100Y008560D01*
X004240Y008700D01*
X004100Y008840D01*
X003820Y008840D01*
X005820Y008170D02*
X005820Y008030D01*
X005890Y007960D01*
X005820Y008170D02*
X005890Y008240D01*
X005960Y008240D01*
X006240Y007960D01*
X006240Y008240D01*
X006820Y008100D02*
X006960Y007960D01*
X006820Y008100D02*
X007240Y008100D01*
X007240Y007960D02*
X007240Y008240D01*
X007820Y008170D02*
X007820Y008030D01*
X007890Y007960D01*
X008170Y007960D01*
X007890Y008240D01*
X008170Y008240D01*
X008240Y008170D01*
X008240Y008030D01*
X008170Y007960D01*
X008240Y007779D02*
X008240Y007499D01*
X008240Y007639D02*
X007820Y007639D01*
X007960Y007499D01*
X007240Y007499D02*
X007240Y007779D01*
X007240Y007639D02*
X006820Y007639D01*
X006960Y007499D01*
X006240Y007499D02*
X006240Y007779D01*
X006240Y007639D02*
X005820Y007639D01*
X005960Y007499D01*
X004240Y007479D02*
X004170Y007409D01*
X004240Y007479D02*
X004240Y007619D01*
X004170Y007689D01*
X004100Y007689D01*
X004030Y007619D01*
X004030Y007549D01*
X004030Y007619D02*
X003960Y007689D01*
X003890Y007689D01*
X003820Y007619D01*
X003820Y007479D01*
X003890Y007409D01*
X007820Y008170D02*
X007890Y008240D01*
X008820Y008179D02*
X009240Y007899D01*
X009240Y007719D02*
X009100Y007579D01*
X009100Y007649D02*
X009100Y007439D01*
X009240Y007439D02*
X008820Y007439D01*
X008820Y007649D01*
X008890Y007719D01*
X009030Y007719D01*
X009100Y007649D01*
X009820Y007719D02*
X009820Y007439D01*
X009820Y007579D02*
X010240Y007579D01*
X010240Y007899D02*
X009820Y008179D01*
X009890Y008360D02*
X009820Y008430D01*
X009820Y008570D01*
X009890Y008640D01*
X010170Y008360D01*
X010240Y008430D01*
X010240Y008570D01*
X010170Y008640D01*
X009890Y008640D01*
X009240Y008640D02*
X009240Y008360D01*
X009240Y008500D02*
X008820Y008500D01*
X008960Y008360D01*
X009240Y008179D02*
X008820Y007899D01*
X009820Y007899D02*
X010240Y008179D01*
X010170Y008360D02*
X009890Y008360D01*
X009960Y011099D02*
X009820Y011239D01*
X009960Y011379D01*
X010240Y011379D01*
X010170Y011560D02*
X009890Y011560D01*
X009820Y011630D01*
X009820Y011770D01*
X009890Y011840D01*
X010170Y011560D01*
X010240Y011630D01*
X010240Y011770D01*
X010170Y011840D01*
X009890Y011840D01*
X009240Y011800D02*
X008820Y011800D01*
X008960Y011660D01*
X008960Y011479D02*
X009240Y011479D01*
X009240Y011660D02*
X009240Y011940D01*
X009300Y012180D02*
X008800Y012180D01*
X008550Y012430D01*
X008300Y012180D01*
X007800Y012180D01*
X007550Y012430D01*
X007300Y012180D01*
X006800Y012180D01*
X006550Y012430D01*
X006300Y012180D01*
X005800Y012180D01*
X005550Y012430D01*
X005300Y012180D01*
X004800Y012180D01*
X004550Y012430D01*
X004300Y012180D01*
X003800Y012180D01*
X003550Y012430D01*
X003300Y012180D01*
X002800Y012180D01*
X002550Y012430D01*
X002550Y012930D01*
X002800Y013180D01*
X003300Y013180D01*
X003550Y012930D01*
X003800Y013180D01*
X004300Y013180D01*
X004550Y012930D01*
X004800Y013180D01*
X005300Y013180D01*
X005550Y012930D01*
X005800Y013180D01*
X006300Y013180D01*
X006550Y012930D01*
X006800Y013180D01*
X007300Y013180D01*
X007550Y012930D01*
X007800Y013180D01*
X008300Y013180D01*
X008550Y012930D01*
X008800Y013180D01*
X009300Y013180D01*
X009550Y012930D01*
X009800Y013180D01*
X010300Y013180D01*
X010550Y012930D01*
X010550Y012430D01*
X010300Y012180D01*
X009800Y012180D01*
X009550Y012430D01*
X009300Y012180D01*
X008240Y011940D02*
X008240Y011660D01*
X007960Y011940D01*
X007890Y011940D01*
X007820Y011870D01*
X007820Y011730D01*
X007890Y011660D01*
X007960Y011479D02*
X008240Y011479D01*
X008030Y011479D02*
X008030Y011199D01*
X007960Y011199D02*
X007820Y011339D01*
X007960Y011479D01*
X007960Y011199D02*
X008240Y011199D01*
X008820Y011339D02*
X008960Y011479D01*
X009030Y011479D02*
X009030Y011199D01*
X008960Y011199D02*
X008820Y011339D01*
X008960Y011199D02*
X009240Y011199D01*
X009960Y011099D02*
X010240Y011099D01*
X010030Y011099D02*
X010030Y011379D01*
X007240Y011479D02*
X006960Y011479D01*
X006820Y011339D01*
X006960Y011199D01*
X007240Y011199D01*
X007030Y011199D02*
X007030Y011479D01*
X007170Y011660D02*
X007240Y011730D01*
X007240Y011870D01*
X007170Y011940D01*
X007100Y011940D01*
X007030Y011870D01*
X007030Y011800D01*
X007030Y011870D02*
X006960Y011940D01*
X006890Y011940D01*
X006820Y011870D01*
X006820Y011730D01*
X006890Y011660D01*
X006240Y011479D02*
X005960Y011479D01*
X005820Y011339D01*
X005960Y011199D01*
X006240Y011199D01*
X006030Y011199D02*
X006030Y011479D01*
X006030Y011660D02*
X006030Y011940D01*
X006240Y011870D02*
X005820Y011870D01*
X006030Y011660D01*
X005240Y011730D02*
X005170Y011660D01*
X005240Y011730D02*
X005240Y011870D01*
X005170Y011940D01*
X005030Y011940D01*
X004960Y011870D01*
X004960Y011800D01*
X005030Y011660D01*
X004820Y011660D01*
X004820Y011940D01*
X004240Y011870D02*
X004240Y011730D01*
X004170Y011660D01*
X004030Y011660D01*
X004030Y011870D01*
X004100Y011940D01*
X004170Y011940D01*
X004240Y011870D01*
X004030Y011660D02*
X003890Y011800D01*
X003820Y011940D01*
X003340Y011660D02*
X003270Y011660D01*
X002990Y011940D01*
X002920Y011940D01*
X002920Y011660D01*
X003060Y011479D02*
X003340Y011479D01*
X003130Y011479D02*
X003130Y011199D01*
X003060Y011199D02*
X002920Y011339D01*
X003060Y011479D01*
X003060Y011199D02*
X003340Y011199D01*
X003820Y011339D02*
X003960Y011479D01*
X004240Y011479D01*
X004030Y011479D02*
X004030Y011199D01*
X003960Y011199D02*
X003820Y011339D01*
X003960Y011199D02*
X004240Y011199D01*
X004820Y011339D02*
X004960Y011479D01*
X005240Y011479D01*
X005030Y011479D02*
X005030Y011199D01*
X004960Y011199D02*
X005240Y011199D01*
X004960Y011199D02*
X004820Y011339D01*
X005480Y013980D02*
X005480Y015980D01*
X006280Y015980D01*
X006280Y013980D01*
X005480Y013980D01*
X006480Y013980D02*
X006480Y015980D01*
X007280Y015980D01*
X007280Y013980D01*
X006480Y013980D01*
X007480Y013980D02*
X007480Y015980D01*
X008280Y015980D01*
X008280Y013980D01*
X007480Y013980D01*
X008480Y013980D02*
X008480Y015980D01*
X009280Y015980D01*
X009280Y013980D01*
X008480Y013980D01*
X008680Y014980D02*
X009080Y014980D01*
X008080Y014980D02*
X007680Y014980D01*
X007080Y014980D02*
X006680Y014980D01*
X006080Y014980D02*
X005680Y014980D01*
X011519Y014841D02*
X011519Y017282D01*
X015649Y017282D01*
X015649Y017597D01*
X016086Y017597D01*
X019799Y017597D01*
X019799Y017282D01*
X019799Y014841D01*
X016086Y014841D01*
X016086Y017282D01*
X019799Y017282D01*
X020216Y017282D01*
X023929Y017282D01*
X023929Y017597D01*
X024366Y017597D01*
X028059Y017597D01*
X028496Y017597D01*
X028496Y017282D01*
X028496Y014841D01*
X028059Y014841D01*
X024366Y014841D01*
X024366Y017282D01*
X028059Y017282D01*
X028496Y017282D01*
X032189Y017282D01*
X032626Y017282D01*
X032626Y014841D01*
X032189Y014841D01*
X028496Y014841D01*
X028059Y014841D02*
X028059Y017282D01*
X028059Y017597D01*
X028496Y017597D02*
X032189Y017597D01*
X032626Y017597D01*
X032626Y017282D01*
X036319Y017282D01*
X036319Y017597D01*
X036756Y017597D01*
X040449Y017597D01*
X040449Y017282D01*
X040449Y014841D01*
X036756Y014841D01*
X036756Y017282D01*
X040449Y017282D01*
X040886Y017282D01*
X045016Y017282D01*
X045016Y014841D01*
X040886Y014841D01*
X040886Y017282D01*
X040886Y017597D01*
X045016Y017597D01*
X045016Y017282D01*
X040886Y017597D02*
X040449Y017597D01*
X036756Y017597D02*
X036756Y017282D01*
X036319Y017282D01*
X036319Y014841D01*
X032626Y014841D01*
X032189Y014841D02*
X032189Y017282D01*
X032189Y017597D01*
X032626Y017597D02*
X036319Y017597D01*
X036319Y014841D02*
X036756Y014841D01*
X036839Y014470D02*
X036839Y014190D01*
X036699Y014330D02*
X036980Y014330D01*
X037160Y014540D02*
X037440Y014540D01*
X037440Y014120D01*
X037939Y014120D02*
X038219Y014120D01*
X038079Y014120D02*
X038079Y014540D01*
X038399Y014470D02*
X038399Y014120D01*
X038680Y014120D02*
X038680Y014470D01*
X038610Y014540D01*
X038469Y014540D01*
X038399Y014470D01*
X038860Y014470D02*
X038860Y014190D01*
X038930Y014120D01*
X039070Y014120D01*
X039140Y014190D01*
X039140Y014470D01*
X039070Y014540D01*
X038930Y014540D01*
X038860Y014470D01*
X039380Y014780D02*
X039380Y013880D01*
X040340Y014120D02*
X040340Y014540D01*
X040060Y014540D01*
X039880Y014330D02*
X039599Y014330D01*
X040449Y014841D02*
X040886Y014841D01*
X042241Y014147D02*
X044682Y014147D01*
X044682Y011397D01*
X044682Y011391D01*
X042241Y011391D01*
X042241Y011397D01*
X042241Y014147D01*
X044682Y014147D02*
X044997Y014147D01*
X044997Y011397D01*
X044997Y011391D01*
X044682Y011391D01*
X044682Y008647D01*
X044682Y008641D01*
X042241Y008641D01*
X042241Y008647D01*
X042241Y011391D01*
X042241Y011397D02*
X044682Y011397D01*
X044997Y011397D01*
X044997Y011391D02*
X044997Y008647D01*
X044997Y008641D01*
X044682Y008641D01*
X044682Y005891D01*
X042241Y005891D01*
X042241Y008641D01*
X042241Y008647D02*
X044682Y008647D01*
X044997Y008647D01*
X044997Y008641D02*
X044997Y005891D01*
X044682Y005891D01*
X044682Y005887D02*
X044682Y003131D01*
X042241Y003131D01*
X042241Y005887D01*
X044682Y005887D01*
X044997Y005887D01*
X044997Y003131D01*
X044682Y003131D01*
X044682Y003117D02*
X044682Y000361D01*
X042241Y000361D01*
X042241Y003117D01*
X044682Y003117D01*
X044997Y003117D01*
X044997Y000361D01*
X044682Y000361D01*
X027580Y001580D02*
X024580Y001580D01*
X024580Y005980D01*
X027580Y005980D01*
X027580Y001580D01*
X026240Y002020D02*
X025820Y002020D01*
X025960Y002160D01*
X025820Y002300D01*
X026240Y002300D01*
X026170Y002480D02*
X026240Y002550D01*
X026240Y002691D01*
X026170Y002761D01*
X026240Y002941D02*
X025820Y002941D01*
X025820Y003151D01*
X025890Y003221D01*
X026030Y003221D01*
X026100Y003151D01*
X026100Y002941D01*
X025890Y002761D02*
X025820Y002691D01*
X025820Y002550D01*
X025890Y002480D01*
X026170Y002480D01*
X026240Y003401D02*
X025960Y003681D01*
X025890Y003681D01*
X025820Y003611D01*
X025820Y003471D01*
X025890Y003401D01*
X026240Y003401D02*
X026240Y003681D01*
X026170Y003862D02*
X026240Y003932D01*
X026240Y004072D01*
X026170Y004142D01*
X026100Y004142D01*
X026030Y004072D01*
X026030Y004002D01*
X026030Y004072D02*
X025960Y004142D01*
X025890Y004142D01*
X025820Y004072D01*
X025820Y003932D01*
X025890Y003862D01*
X025890Y004322D02*
X025820Y004392D01*
X025820Y004532D01*
X025890Y004602D01*
X026170Y004322D01*
X026240Y004392D01*
X026240Y004532D01*
X026170Y004602D01*
X025890Y004602D01*
X025890Y004782D02*
X025820Y004852D01*
X025820Y004993D01*
X025890Y005063D01*
X026170Y004782D01*
X026240Y004852D01*
X026240Y004993D01*
X026170Y005063D01*
X025890Y005063D01*
X025890Y005243D02*
X025820Y005313D01*
X025820Y005453D01*
X025890Y005523D01*
X025960Y005523D01*
X026030Y005453D01*
X026030Y005313D01*
X025960Y005243D01*
X025890Y005243D01*
X026030Y005313D02*
X026100Y005243D01*
X026170Y005243D01*
X026240Y005313D01*
X026240Y005453D01*
X026170Y005523D01*
X026100Y005523D01*
X026030Y005453D01*
X024840Y005640D02*
X024842Y005668D01*
X024848Y005695D01*
X024857Y005721D01*
X024870Y005746D01*
X024887Y005769D01*
X024906Y005789D01*
X024928Y005806D01*
X024952Y005820D01*
X024978Y005830D01*
X025005Y005837D01*
X025033Y005840D01*
X025061Y005839D01*
X025088Y005834D01*
X025115Y005825D01*
X025140Y005813D01*
X025163Y005798D01*
X025184Y005779D01*
X025202Y005758D01*
X025217Y005734D01*
X025228Y005708D01*
X025236Y005682D01*
X025240Y005654D01*
X025240Y005626D01*
X025236Y005598D01*
X025228Y005572D01*
X025217Y005546D01*
X025202Y005522D01*
X025184Y005501D01*
X025163Y005482D01*
X025140Y005467D01*
X025115Y005455D01*
X025088Y005446D01*
X025061Y005441D01*
X025033Y005440D01*
X025005Y005443D01*
X024978Y005450D01*
X024952Y005460D01*
X024928Y005474D01*
X024906Y005491D01*
X024887Y005511D01*
X024870Y005534D01*
X024857Y005559D01*
X024848Y005585D01*
X024842Y005612D01*
X024840Y005640D01*
X025890Y004782D02*
X026170Y004782D01*
X026170Y004322D02*
X025890Y004322D01*
X020726Y002997D02*
X020726Y002682D01*
X016586Y002682D01*
X016586Y000241D01*
X016159Y000241D01*
X012019Y000241D01*
X012019Y002682D01*
X016159Y002682D01*
X016586Y002682D01*
X016586Y002997D01*
X020726Y002997D01*
X020726Y002682D02*
X020726Y000241D01*
X016586Y000241D01*
X016159Y000241D02*
X016159Y002682D01*
X016159Y002997D01*
X012019Y002997D01*
X012019Y002682D01*
X016159Y002997D02*
X016586Y002997D01*
X016930Y013930D02*
X016930Y014840D01*
X016640Y014540D02*
X016360Y014540D01*
X016180Y014330D02*
X015899Y014330D01*
X016039Y014190D02*
X016039Y014470D01*
X016640Y014540D02*
X016640Y014120D01*
X017139Y014120D02*
X017419Y014120D01*
X017279Y014120D02*
X017279Y014540D01*
X017599Y014470D02*
X017599Y014120D01*
X017880Y014120D02*
X017880Y014470D01*
X017810Y014540D01*
X017669Y014540D01*
X017599Y014470D01*
X018060Y014470D02*
X018060Y014190D01*
X018130Y014120D01*
X018270Y014120D01*
X018340Y014190D01*
X018340Y014470D01*
X018270Y014540D01*
X018130Y014540D01*
X018060Y014470D01*
X018580Y014780D02*
X018580Y013880D01*
X018799Y014330D02*
X019080Y014330D01*
X019260Y014540D02*
X019540Y014540D01*
X019540Y014120D01*
X019999Y014330D02*
X020280Y014330D01*
X020139Y014190D02*
X020139Y014470D01*
X020460Y014540D02*
X020740Y014540D01*
X020740Y014120D01*
X021080Y013880D02*
X021080Y014780D01*
X021479Y014540D02*
X021479Y014120D01*
X021619Y014120D02*
X021339Y014120D01*
X021799Y014120D02*
X021799Y014470D01*
X021869Y014540D01*
X022010Y014540D01*
X022080Y014470D01*
X022080Y014120D01*
X022260Y014190D02*
X022330Y014120D01*
X022470Y014120D01*
X022540Y014190D01*
X022540Y014470D01*
X022470Y014540D01*
X022330Y014540D01*
X022260Y014470D01*
X022260Y014190D01*
X022999Y014230D02*
X023280Y014230D01*
X023460Y014440D02*
X023740Y014440D01*
X023740Y014020D01*
X024439Y014190D02*
X024439Y014470D01*
X024299Y014330D02*
X024580Y014330D01*
X024760Y014540D02*
X025040Y014540D01*
X025040Y014120D01*
X025439Y014120D02*
X025719Y014120D01*
X025579Y014120D02*
X025579Y014540D01*
X025899Y014470D02*
X025899Y014120D01*
X026180Y014120D02*
X026180Y014470D01*
X026110Y014540D01*
X025969Y014540D01*
X025899Y014470D01*
X026360Y014470D02*
X026360Y014190D01*
X026430Y014120D01*
X026570Y014120D01*
X026640Y014190D01*
X026640Y014470D01*
X026570Y014540D01*
X026430Y014540D01*
X026360Y014470D01*
X026880Y014780D02*
X026880Y013880D01*
X027740Y014120D02*
X027740Y014540D01*
X027460Y014540D01*
X027280Y014330D02*
X026999Y014330D01*
X028399Y014330D02*
X028680Y014330D01*
X028539Y014190D02*
X028539Y014470D01*
X028860Y014540D02*
X029140Y014540D01*
X029140Y014120D01*
X029639Y014120D02*
X029919Y014120D01*
X029779Y014120D02*
X029779Y014540D01*
X030099Y014470D02*
X030099Y014120D01*
X030380Y014120D02*
X030380Y014470D01*
X030310Y014540D01*
X030169Y014540D01*
X030099Y014470D01*
X030560Y014470D02*
X030560Y014190D01*
X030630Y014120D01*
X030770Y014120D01*
X030840Y014190D01*
X030840Y014470D01*
X030770Y014540D01*
X030630Y014540D01*
X030560Y014470D01*
X031080Y014780D02*
X031080Y013880D01*
X031940Y014120D02*
X031940Y014540D01*
X031660Y014540D01*
X031480Y014330D02*
X031199Y014330D01*
X032499Y014330D02*
X032780Y014330D01*
X032639Y014190D02*
X032639Y014470D01*
X032960Y014540D02*
X033240Y014540D01*
X033240Y014120D01*
X033739Y014120D02*
X034019Y014120D01*
X033879Y014120D02*
X033879Y014540D01*
X034199Y014470D02*
X034199Y014120D01*
X034480Y014120D02*
X034480Y014470D01*
X034410Y014540D01*
X034269Y014540D01*
X034199Y014470D01*
X034660Y014470D02*
X034660Y014190D01*
X034730Y014120D01*
X034870Y014120D01*
X034940Y014190D01*
X034940Y014470D01*
X034870Y014540D01*
X034730Y014540D01*
X034660Y014470D01*
X035180Y014780D02*
X035180Y013880D01*
X036140Y014120D02*
X036140Y014540D01*
X035860Y014540D01*
X035680Y014330D02*
X035399Y014330D01*
X033480Y014780D02*
X033480Y013880D01*
X029380Y013880D02*
X029380Y014780D01*
X025280Y014780D02*
X025280Y013880D01*
X022780Y013880D02*
X022780Y014780D01*
X023929Y014841D02*
X023929Y017282D01*
X024366Y017282D01*
X024366Y017597D01*
X023929Y017597D02*
X020216Y017597D01*
X020216Y017282D01*
X020216Y014841D01*
X023929Y014841D01*
X024366Y014841D01*
X020216Y014841D02*
X019799Y014841D01*
X016086Y014841D02*
X015649Y014841D01*
X015649Y017282D01*
X016086Y017282D01*
X016086Y017597D01*
X015649Y017597D02*
X011519Y017597D01*
X011519Y017282D01*
X011519Y014841D02*
X015649Y014841D01*
X015340Y014540D02*
X015060Y014540D01*
X014880Y014330D02*
X014599Y014330D01*
X014140Y014190D02*
X014140Y014470D01*
X014070Y014540D01*
X013930Y014540D01*
X013860Y014470D01*
X013860Y014190D01*
X013930Y014120D01*
X014070Y014120D01*
X014140Y014190D01*
X013680Y014120D02*
X013680Y014470D01*
X013610Y014540D01*
X013469Y014540D01*
X013399Y014470D01*
X013399Y014120D01*
X013219Y014120D02*
X012939Y014120D01*
X013079Y014120D02*
X013079Y014540D01*
X012680Y014780D02*
X012680Y013880D01*
X012340Y014120D02*
X012340Y014540D01*
X012060Y014540D01*
X011880Y014330D02*
X011599Y014330D01*
X011739Y014190D02*
X011739Y014470D01*
X014380Y014780D02*
X014380Y013880D01*
X015340Y014120D02*
X015340Y014540D01*
X019799Y017597D02*
X020216Y017597D01*
X037680Y014780D02*
X037680Y013880D01*
D11*
X004712Y003335D02*
X004625Y003335D01*
X004668Y003335D02*
X004668Y003465D01*
X004625Y003422D01*
X004772Y003465D02*
X004772Y003335D01*
X004772Y003378D02*
X004837Y003422D01*
X004772Y003378D02*
X004837Y003335D01*
X005725Y003335D02*
X005812Y003335D01*
X005768Y003335D02*
X005768Y003465D01*
X005725Y003422D01*
X005872Y003465D02*
X005872Y003335D01*
X005872Y003378D02*
X005937Y003422D01*
X005872Y003378D02*
X005937Y003335D01*
X006825Y003335D02*
X006912Y003335D01*
X006868Y003335D02*
X006868Y003465D01*
X006825Y003422D01*
X006972Y003465D02*
X006972Y003335D01*
X006972Y003378D02*
X007037Y003422D01*
X006972Y003378D02*
X007037Y003335D01*
X007925Y003335D02*
X008012Y003335D01*
X007968Y003335D02*
X007968Y003465D01*
X007925Y003422D01*
X008072Y003465D02*
X008072Y003335D01*
X008072Y003378D02*
X008137Y003422D01*
X008072Y003378D02*
X008137Y003335D01*
X019431Y009080D02*
X019431Y009115D01*
X019431Y009185D02*
X019431Y009325D01*
X019466Y009325D02*
X019396Y009325D01*
X019319Y009290D02*
X019284Y009255D01*
X019179Y009255D01*
X019179Y009220D02*
X019179Y009325D01*
X019284Y009325D01*
X019319Y009290D01*
X019284Y009185D02*
X019214Y009185D01*
X019179Y009220D01*
X019098Y009325D02*
X019028Y009325D01*
X019063Y009325D02*
X019063Y009115D01*
X019098Y009115D01*
X019431Y009185D02*
X019466Y009185D01*
X019545Y009185D02*
X019580Y009185D01*
X019650Y009255D01*
X019650Y009325D02*
X019650Y009185D01*
X019727Y009185D02*
X019798Y009185D01*
X019762Y009150D02*
X019762Y009290D01*
X019727Y009325D01*
X019878Y009290D02*
X019913Y009255D01*
X019983Y009255D01*
X020018Y009220D01*
X019983Y009185D01*
X019878Y009185D01*
X019878Y009290D02*
X019913Y009325D01*
X020018Y009325D01*
X020099Y009325D02*
X020099Y009185D01*
X020099Y009325D02*
X020204Y009325D01*
X020239Y009290D01*
X020239Y009185D01*
X020320Y009185D02*
X020425Y009185D01*
X020460Y009220D01*
X020460Y009290D01*
X020425Y009325D01*
X020320Y009325D01*
X020320Y009115D01*
X020541Y009220D02*
X020541Y009325D01*
X020541Y009220D02*
X020576Y009185D01*
X020681Y009185D01*
X020681Y009325D01*
X020759Y009325D02*
X020829Y009325D01*
X020794Y009325D02*
X020794Y009115D01*
X020829Y009115D02*
X020759Y009115D01*
X021162Y009115D02*
X021162Y009325D01*
X021197Y009325D02*
X021127Y009325D01*
X021278Y009255D02*
X021418Y009255D01*
X021418Y009290D02*
X021418Y009220D01*
X021383Y009185D01*
X021313Y009185D01*
X021278Y009220D01*
X021278Y009255D01*
X021313Y009325D02*
X021383Y009325D01*
X021418Y009290D01*
X021499Y009325D02*
X021499Y009220D01*
X021534Y009185D01*
X021639Y009185D01*
X021639Y009325D01*
X021720Y009325D02*
X021720Y009220D01*
X021755Y009185D01*
X021860Y009185D01*
X021860Y009325D01*
X021941Y009325D02*
X022046Y009325D01*
X022081Y009290D01*
X022046Y009255D01*
X021941Y009255D01*
X021941Y009220D02*
X021941Y009325D01*
X021941Y009220D02*
X021976Y009185D01*
X022046Y009185D01*
X022162Y009220D02*
X022162Y009325D01*
X022162Y009220D02*
X022197Y009185D01*
X022267Y009185D01*
X022302Y009220D01*
X022302Y009115D02*
X022302Y009325D01*
X022383Y009290D02*
X022418Y009325D01*
X022488Y009325D01*
X022523Y009290D01*
X022523Y009150D01*
X022488Y009115D01*
X022418Y009115D01*
X022383Y009150D01*
X022525Y009440D02*
X022525Y009475D01*
X022525Y009545D02*
X022525Y009685D01*
X022560Y009685D02*
X022490Y009685D01*
X022413Y009650D02*
X022378Y009685D01*
X022272Y009685D01*
X022272Y009720D02*
X022272Y009545D01*
X022378Y009545D01*
X022413Y009580D01*
X022413Y009650D01*
X022342Y009755D02*
X022307Y009755D01*
X022272Y009720D01*
X022267Y009800D02*
X022267Y009835D01*
X022267Y009905D02*
X022267Y010045D01*
X022302Y010045D02*
X022232Y010045D01*
X022155Y010045D02*
X022050Y010045D01*
X022015Y010010D01*
X022050Y009975D01*
X022120Y009975D01*
X022155Y009940D01*
X022120Y009905D01*
X022015Y009905D01*
X021934Y009905D02*
X021899Y009905D01*
X021899Y010045D01*
X021934Y010045D02*
X021864Y010045D01*
X021786Y010010D02*
X021751Y010045D01*
X021681Y010045D01*
X021646Y010010D01*
X021646Y009940D01*
X021681Y009905D01*
X021751Y009905D01*
X021786Y009940D01*
X021786Y010010D01*
X021899Y009835D02*
X021899Y009800D01*
X021900Y009685D02*
X021936Y009650D01*
X021936Y009510D01*
X021971Y009545D02*
X021900Y009545D01*
X021823Y009545D02*
X021788Y009580D01*
X021718Y009580D01*
X021683Y009615D01*
X021683Y009650D01*
X021718Y009685D01*
X021788Y009685D01*
X021823Y009650D01*
X021823Y009545D02*
X021823Y009510D01*
X021788Y009475D01*
X021718Y009475D01*
X021683Y009510D01*
X021602Y009545D02*
X021567Y009545D01*
X021567Y009685D01*
X021602Y009685D02*
X021532Y009685D01*
X021455Y009650D02*
X021420Y009685D01*
X021315Y009685D01*
X021315Y009720D02*
X021315Y009545D01*
X021420Y009545D01*
X021455Y009580D01*
X021455Y009650D01*
X021385Y009755D02*
X021350Y009755D01*
X021315Y009720D01*
X021234Y009685D02*
X021234Y009545D01*
X021129Y009545D01*
X021094Y009580D01*
X021094Y009685D01*
X021053Y009835D02*
X021053Y010045D01*
X021123Y010045D02*
X020983Y010045D01*
X021050Y010195D02*
X021050Y010405D01*
X020945Y010405D01*
X020910Y010370D01*
X020910Y010300D01*
X020945Y010265D01*
X021050Y010265D01*
X020829Y010265D02*
X020829Y010370D01*
X020794Y010405D01*
X020689Y010405D01*
X020689Y010440D02*
X020724Y010475D01*
X020759Y010475D01*
X020689Y010440D02*
X020689Y010265D01*
X020608Y010265D02*
X020608Y010300D01*
X020573Y010300D01*
X020573Y010265D01*
X020608Y010265D01*
X020608Y010370D02*
X020608Y010405D01*
X020573Y010405D01*
X020573Y010370D01*
X020608Y010370D01*
X020650Y010555D02*
X020755Y010555D01*
X020755Y010765D01*
X020650Y010765D01*
X020615Y010730D01*
X020615Y010590D01*
X020650Y010555D01*
X020534Y010660D02*
X020499Y010625D01*
X020429Y010625D01*
X020394Y010660D01*
X020394Y010695D01*
X020534Y010695D01*
X020534Y010730D02*
X020534Y010660D01*
X020534Y010730D02*
X020499Y010765D01*
X020429Y010765D01*
X020313Y010765D02*
X020208Y010765D01*
X020173Y010730D01*
X020208Y010695D01*
X020278Y010695D01*
X020313Y010660D01*
X020278Y010625D01*
X020173Y010625D01*
X020092Y010625D02*
X020057Y010625D01*
X020057Y010765D01*
X020092Y010765D02*
X020022Y010765D01*
X019945Y010730D02*
X019945Y010660D01*
X019910Y010625D01*
X019805Y010625D01*
X019805Y010800D01*
X019840Y010835D01*
X019875Y010835D01*
X019910Y010765D02*
X019805Y010765D01*
X019724Y010765D02*
X019724Y010625D01*
X019619Y010625D01*
X019584Y010660D01*
X019584Y010765D01*
X019503Y010765D02*
X019363Y010555D01*
X019282Y010555D02*
X019142Y010555D01*
X019212Y010660D02*
X019282Y010660D01*
X019282Y010765D02*
X019282Y010555D01*
X019026Y010625D02*
X018956Y010625D01*
X018921Y010660D01*
X018921Y010765D01*
X019026Y010765D01*
X019061Y010730D01*
X019026Y010695D01*
X018921Y010695D01*
X018840Y010765D02*
X018840Y010555D01*
X018840Y010625D02*
X018735Y010625D01*
X018700Y010660D01*
X018700Y010730D01*
X018735Y010765D01*
X018840Y010765D01*
X018619Y010765D02*
X018619Y010625D01*
X018619Y010695D02*
X018549Y010625D01*
X018514Y010625D01*
X018435Y010625D02*
X018400Y010625D01*
X018400Y010765D01*
X018435Y010765D02*
X018365Y010765D01*
X018287Y010730D02*
X018252Y010765D01*
X018147Y010765D01*
X018066Y010730D02*
X018031Y010695D01*
X017926Y010695D01*
X017926Y010660D02*
X017926Y010765D01*
X018031Y010765D01*
X018066Y010730D01*
X018031Y010625D02*
X017961Y010625D01*
X017926Y010660D01*
X017845Y010625D02*
X017775Y010625D01*
X017810Y010590D02*
X017810Y010730D01*
X017775Y010765D01*
X017698Y010765D02*
X017628Y010765D01*
X017663Y010765D02*
X017663Y010625D01*
X017698Y010625D01*
X017663Y010555D02*
X017663Y010520D01*
X017551Y010660D02*
X017551Y010730D01*
X017516Y010765D01*
X017446Y010765D01*
X017411Y010730D01*
X017411Y010660D01*
X017446Y010625D01*
X017516Y010625D01*
X017551Y010660D01*
X017330Y010625D02*
X017225Y010625D01*
X017190Y010660D01*
X017190Y010765D01*
X017330Y010765D02*
X017330Y010625D01*
X018147Y010625D02*
X018252Y010625D01*
X018287Y010660D01*
X018287Y010730D01*
X018400Y010555D02*
X018400Y010520D01*
X019694Y010405D02*
X019694Y010195D01*
X019764Y010265D01*
X019834Y010195D01*
X019834Y010405D01*
X019915Y010405D02*
X019915Y010195D01*
X019985Y010265D01*
X020055Y010195D01*
X020055Y010405D01*
X020136Y010370D02*
X020171Y010405D01*
X020241Y010405D01*
X020276Y010370D01*
X020276Y010230D01*
X020241Y010195D01*
X020171Y010195D01*
X020136Y010230D01*
X020057Y010520D02*
X020057Y010555D01*
X019945Y010730D02*
X019910Y010765D01*
X021057Y010695D02*
X021197Y010695D01*
X021197Y010730D02*
X021197Y010660D01*
X021162Y010625D01*
X021092Y010625D01*
X021057Y010660D01*
X021057Y010695D01*
X021092Y010765D02*
X021162Y010765D01*
X021197Y010730D01*
X021278Y010765D02*
X021278Y010660D01*
X021313Y010625D01*
X021418Y010625D01*
X021418Y010765D01*
X021499Y010730D02*
X021499Y010660D01*
X021534Y010625D01*
X021604Y010625D01*
X021639Y010660D01*
X021639Y010730D01*
X021604Y010765D01*
X021534Y010765D01*
X021499Y010730D01*
X021716Y010765D02*
X021786Y010765D01*
X021751Y010765D02*
X021751Y010555D01*
X021786Y010555D01*
X021867Y010660D02*
X021867Y010765D01*
X021972Y010765D01*
X022007Y010730D01*
X021972Y010695D01*
X021867Y010695D01*
X021867Y010660D02*
X021902Y010625D01*
X021972Y010625D01*
X022088Y010555D02*
X022088Y010765D01*
X022228Y010765D02*
X022228Y010555D01*
X022158Y010625D01*
X022088Y010555D01*
X022085Y010475D02*
X022050Y010475D01*
X022015Y010440D01*
X022015Y010265D01*
X022120Y010265D01*
X022155Y010300D01*
X022155Y010370D01*
X022120Y010405D01*
X022015Y010405D01*
X021934Y010405D02*
X021934Y010265D01*
X021829Y010265D01*
X021794Y010300D01*
X021794Y010405D01*
X021713Y010370D02*
X021713Y010300D01*
X021678Y010265D01*
X021608Y010265D01*
X021573Y010300D01*
X021573Y010335D01*
X021713Y010335D01*
X021713Y010370D02*
X021678Y010405D01*
X021608Y010405D01*
X021492Y010370D02*
X021492Y010300D01*
X021457Y010265D01*
X021352Y010265D01*
X021352Y010195D02*
X021352Y010405D01*
X021457Y010405D01*
X021492Y010370D01*
X021425Y010045D02*
X021425Y009940D01*
X021460Y009905D01*
X021565Y009905D01*
X021565Y010045D01*
X021123Y009905D02*
X021053Y009835D01*
X020792Y009650D02*
X020757Y009685D01*
X020687Y009685D01*
X020652Y009650D01*
X020652Y009615D01*
X020687Y009580D01*
X020757Y009580D01*
X020792Y009545D01*
X020792Y009510D01*
X020757Y009475D01*
X020687Y009475D01*
X020652Y009510D01*
X020571Y009545D02*
X020536Y009545D01*
X020501Y009580D01*
X020466Y009545D01*
X020431Y009580D01*
X020431Y009685D01*
X020501Y009685D02*
X020501Y009580D01*
X020571Y009545D02*
X020571Y009685D01*
X020350Y009650D02*
X020315Y009615D01*
X020210Y009615D01*
X020210Y009580D02*
X020210Y009685D01*
X020315Y009685D01*
X020350Y009650D01*
X020315Y009545D02*
X020245Y009545D01*
X020210Y009580D01*
X020129Y009615D02*
X020059Y009545D01*
X020024Y009545D01*
X019945Y009545D02*
X019875Y009545D01*
X019910Y009510D02*
X019910Y009650D01*
X019875Y009685D01*
X020129Y009685D02*
X020129Y009545D01*
X019577Y009475D02*
X019506Y009475D01*
X019541Y009475D02*
X019541Y009685D01*
X019506Y009685D02*
X019577Y009685D01*
X019429Y009685D02*
X019429Y009545D01*
X019324Y009545D01*
X019289Y009580D01*
X019289Y009685D01*
X019173Y009650D02*
X019138Y009685D01*
X019173Y009650D02*
X019173Y009510D01*
X019208Y009545D02*
X019138Y009545D01*
X019061Y009580D02*
X019026Y009545D01*
X018956Y009545D01*
X018921Y009580D01*
X018921Y009615D01*
X019061Y009615D01*
X019061Y009650D02*
X019061Y009580D01*
X019061Y009650D02*
X019026Y009685D01*
X018956Y009685D01*
X018840Y009685D02*
X018840Y009545D01*
X018840Y009615D02*
X018770Y009545D01*
X018735Y009545D01*
X018656Y009580D02*
X018586Y009580D01*
X018621Y009510D02*
X018586Y009475D01*
X018621Y009510D02*
X018621Y009685D01*
X018508Y009650D02*
X018473Y009615D01*
X018368Y009615D01*
X018368Y009580D02*
X018368Y009685D01*
X018473Y009685D01*
X018508Y009650D01*
X018473Y009545D02*
X018403Y009545D01*
X018368Y009580D01*
X018287Y009580D02*
X018287Y009650D01*
X018252Y009685D01*
X018147Y009685D01*
X018066Y009650D02*
X018066Y009580D01*
X018031Y009545D01*
X017961Y009545D01*
X017926Y009580D01*
X017926Y009615D01*
X018066Y009615D01*
X018066Y009650D02*
X018031Y009685D01*
X017961Y009685D01*
X018147Y009545D02*
X018252Y009545D01*
X018287Y009580D01*
X018287Y009325D02*
X018287Y009185D01*
X018182Y009185D01*
X018147Y009220D01*
X018147Y009325D01*
X018066Y009325D02*
X017961Y009325D01*
X017926Y009290D01*
X017961Y009255D01*
X018031Y009255D01*
X018066Y009220D01*
X018031Y009185D01*
X017926Y009185D01*
X017845Y009220D02*
X017845Y009290D01*
X017810Y009325D01*
X017740Y009325D01*
X017705Y009290D01*
X017705Y009220D01*
X017740Y009185D01*
X017810Y009185D01*
X017845Y009220D01*
X017624Y009255D02*
X017554Y009185D01*
X017519Y009185D01*
X017624Y009185D02*
X017624Y009325D01*
X017219Y009325D02*
X017219Y009115D01*
X017149Y009185D01*
X017079Y009115D01*
X017079Y009325D01*
X016998Y009290D02*
X016963Y009325D01*
X016893Y009325D01*
X016858Y009290D01*
X016858Y009220D01*
X016893Y009185D01*
X016963Y009185D01*
X016998Y009220D01*
X016998Y009290D01*
X016777Y009290D02*
X016777Y009220D01*
X016742Y009185D01*
X016637Y009185D01*
X016637Y009115D02*
X016637Y009325D01*
X016742Y009325D01*
X016777Y009290D01*
X016556Y009290D02*
X016556Y009185D01*
X016556Y009290D02*
X016521Y009325D01*
X016416Y009325D01*
X016416Y009185D01*
X016335Y009115D02*
X016300Y009115D01*
X016300Y009325D01*
X016335Y009325D02*
X016265Y009325D01*
X016188Y009290D02*
X016188Y009220D01*
X016153Y009185D01*
X016083Y009185D01*
X016048Y009220D01*
X016048Y009255D01*
X016188Y009255D01*
X016188Y009290D02*
X016153Y009325D01*
X016083Y009325D01*
X018368Y009255D02*
X018508Y009255D01*
X018508Y009290D02*
X018508Y009220D01*
X018473Y009185D01*
X018403Y009185D01*
X018368Y009220D01*
X018368Y009255D01*
X018403Y009325D02*
X018473Y009325D01*
X018508Y009290D01*
X018589Y009290D02*
X018589Y009255D01*
X018624Y009220D01*
X018694Y009220D01*
X018729Y009185D01*
X018729Y009150D01*
X018694Y009115D01*
X018624Y009115D01*
X018589Y009150D01*
X018589Y009290D02*
X018624Y009325D01*
X018694Y009325D01*
X018729Y009290D01*
X021162Y009115D02*
X021197Y009115D01*
X021567Y009440D02*
X021567Y009475D01*
X022051Y009580D02*
X022051Y009685D01*
X022051Y009580D02*
X022086Y009545D01*
X022157Y009545D01*
X022192Y009580D01*
X022192Y009475D02*
X022192Y009685D01*
X022267Y009905D02*
X022302Y009905D01*
X022383Y009905D02*
X022453Y010045D01*
X022523Y009905D01*
X022604Y009940D02*
X022604Y009975D01*
X022744Y009975D01*
X022744Y010010D02*
X022744Y009940D01*
X022709Y009905D01*
X022639Y009905D01*
X022604Y009940D01*
X022639Y010045D02*
X022709Y010045D01*
X022744Y010010D01*
X022825Y010045D02*
X022895Y009975D01*
X022860Y009975D02*
X022965Y009975D01*
X022965Y010045D02*
X022965Y009835D01*
X022860Y009835D01*
X022825Y009870D01*
X022825Y009940D01*
X022860Y009975D01*
X022860Y009685D02*
X022965Y009685D01*
X022965Y009475D01*
X022860Y009475D01*
X022825Y009510D01*
X022825Y009545D01*
X022860Y009580D01*
X022965Y009580D01*
X022860Y009580D02*
X022825Y009615D01*
X022825Y009650D01*
X022860Y009685D01*
X022744Y009685D02*
X022744Y009545D01*
X022744Y009615D02*
X022674Y009545D01*
X022639Y009545D01*
X022560Y009545D02*
X022525Y009545D01*
X022825Y009290D02*
X022860Y009325D01*
X022930Y009325D01*
X022965Y009290D01*
X022965Y009255D01*
X022930Y009220D01*
X022860Y009220D01*
X022825Y009255D01*
X022825Y009290D01*
X022860Y009220D02*
X022825Y009185D01*
X022825Y009150D01*
X022860Y009115D01*
X022930Y009115D01*
X022965Y009150D01*
X022965Y009185D01*
X022930Y009220D01*
X022267Y010160D02*
X022267Y010195D01*
X022267Y010265D02*
X022267Y010405D01*
X022302Y010405D02*
X022232Y010405D01*
X022267Y010265D02*
X022302Y010265D01*
X022383Y010265D02*
X022488Y010265D01*
X022523Y010300D01*
X022488Y010335D01*
X022418Y010335D01*
X022383Y010370D01*
X022418Y010405D01*
X022523Y010405D01*
X022604Y010335D02*
X022744Y010335D01*
X022744Y010370D02*
X022744Y010300D01*
X022709Y010265D01*
X022639Y010265D01*
X022604Y010300D01*
X022604Y010335D01*
X022639Y010405D02*
X022709Y010405D01*
X022744Y010370D01*
X022825Y010370D02*
X022825Y010230D01*
X022860Y010195D01*
X022965Y010195D01*
X022965Y010405D01*
X022860Y010405D01*
X022825Y010370D01*
X022895Y010555D02*
X022965Y010625D01*
X022965Y010695D01*
X022895Y010765D01*
X022818Y010730D02*
X022783Y010765D01*
X022678Y010765D01*
X022597Y010765D02*
X022527Y010695D01*
X022527Y010625D01*
X022597Y010555D01*
X022678Y010625D02*
X022783Y010625D01*
X022818Y010660D01*
X022818Y010730D01*
X008937Y013735D02*
X008872Y013778D01*
X008937Y013822D01*
X008872Y013865D02*
X008872Y013735D01*
X008812Y013735D02*
X008725Y013735D01*
X008768Y013735D02*
X008768Y013865D01*
X008725Y013822D01*
X007937Y013822D02*
X007872Y013778D01*
X007937Y013735D01*
X007872Y013735D02*
X007872Y013865D01*
X007768Y013865D02*
X007768Y013735D01*
X007725Y013735D02*
X007812Y013735D01*
X007725Y013822D02*
X007768Y013865D01*
X006937Y013822D02*
X006872Y013778D01*
X006937Y013735D01*
X006872Y013735D02*
X006872Y013865D01*
X006768Y013865D02*
X006768Y013735D01*
X006725Y013735D02*
X006812Y013735D01*
X006725Y013822D02*
X006768Y013865D01*
X005937Y013822D02*
X005872Y013778D01*
X005937Y013735D01*
X005872Y013735D02*
X005872Y013865D01*
X005768Y013865D02*
X005768Y013735D01*
X005725Y013735D02*
X005812Y013735D01*
X005725Y013822D02*
X005768Y013865D01*
D12*
X015515Y004513D02*
X015515Y004121D01*
X015750Y004121D01*
X015829Y004200D01*
X015829Y004357D01*
X015750Y004435D01*
X015515Y004435D01*
X015515Y004513D02*
X015593Y004592D01*
X015672Y004592D01*
X016031Y004357D02*
X016031Y004200D01*
X016109Y004121D01*
X016266Y004121D01*
X016344Y004200D01*
X016344Y004357D01*
X016266Y004435D01*
X016109Y004435D01*
X016031Y004357D01*
X016531Y004435D02*
X016688Y004435D01*
X016610Y004435D02*
X016610Y003965D01*
X016688Y003965D01*
X016890Y004200D02*
X016890Y004435D01*
X017125Y004435D01*
X017204Y004357D01*
X017125Y004278D01*
X016890Y004278D01*
X016890Y004200D02*
X016969Y004121D01*
X017125Y004121D01*
X017406Y004200D02*
X017406Y004435D01*
X017406Y004200D02*
X017484Y004121D01*
X017719Y004121D01*
X017719Y004435D01*
X017921Y004435D02*
X017921Y004121D01*
X018078Y003965D01*
X018235Y004121D01*
X018235Y004435D01*
X018235Y004200D02*
X017921Y004200D01*
X014797Y004435D02*
X014641Y004435D01*
X014719Y004435D02*
X014719Y003965D01*
X014797Y003965D02*
X014641Y003965D01*
X014454Y004121D02*
X014218Y004121D01*
X014140Y004200D01*
X014140Y004435D01*
X014454Y004435D02*
X014454Y004121D01*
X040565Y005725D02*
X040878Y005725D01*
X041035Y005882D01*
X040878Y006039D01*
X040565Y006039D01*
X040565Y006241D02*
X040565Y006397D01*
X040565Y006319D02*
X041035Y006319D01*
X041035Y006241D02*
X041035Y006397D01*
X041035Y006584D02*
X040565Y006584D01*
X041035Y006898D01*
X040565Y006898D01*
X040643Y007616D02*
X040957Y007616D01*
X041035Y007694D01*
X041035Y007851D01*
X040957Y007929D01*
X040643Y007929D01*
X040565Y007851D01*
X040565Y007694D01*
X040643Y007616D01*
X040565Y008131D02*
X040957Y008131D01*
X041035Y008210D01*
X041035Y008367D01*
X040957Y008445D01*
X040565Y008445D01*
X040565Y008647D02*
X040565Y008961D01*
X040565Y008804D02*
X041035Y008804D01*
D13*
X041510Y009067D02*
X041566Y009010D01*
X041793Y009010D01*
X041850Y009067D01*
X041850Y009180D01*
X041793Y009237D01*
X041566Y009237D01*
X041510Y009180D01*
X041510Y009067D01*
X041510Y009378D02*
X041680Y009378D01*
X041623Y009492D01*
X041623Y009548D01*
X041680Y009605D01*
X041793Y009605D01*
X041850Y009548D01*
X041850Y009435D01*
X041793Y009378D01*
X041510Y009378D02*
X041510Y009605D01*
X041566Y010510D02*
X041793Y010510D01*
X041850Y010567D01*
X041850Y010680D01*
X041793Y010737D01*
X041566Y010737D01*
X041510Y010680D01*
X041510Y010567D01*
X041566Y010510D01*
X041680Y010878D02*
X041680Y011048D01*
X041737Y011105D01*
X041793Y011105D01*
X041850Y011048D01*
X041850Y010935D01*
X041793Y010878D01*
X041680Y010878D01*
X041566Y010992D01*
X041510Y011105D01*
X041566Y011810D02*
X041793Y011810D01*
X041850Y011867D01*
X041850Y011980D01*
X041793Y012037D01*
X041566Y012037D01*
X041510Y011980D01*
X041510Y011867D01*
X041566Y011810D01*
X041510Y012178D02*
X041510Y012405D01*
X041566Y012405D01*
X041793Y012178D01*
X041850Y012178D01*
X041837Y013110D02*
X041610Y013110D01*
X041837Y013110D02*
X041950Y013223D01*
X041837Y013337D01*
X041610Y013337D01*
X041610Y013478D02*
X041610Y013592D01*
X041610Y013535D02*
X041950Y013535D01*
X041950Y013478D02*
X041950Y013592D01*
X041950Y013724D02*
X041610Y013724D01*
X041950Y013951D01*
X041610Y013951D01*
X041680Y008305D02*
X041680Y008078D01*
X041510Y008248D01*
X041850Y008248D01*
X041793Y007937D02*
X041566Y007937D01*
X041510Y007880D01*
X041510Y007767D01*
X041566Y007710D01*
X041793Y007710D01*
X041850Y007767D01*
X041850Y007880D01*
X041793Y007937D01*
X041793Y006905D02*
X041850Y006848D01*
X041850Y006735D01*
X041793Y006678D01*
X041793Y006537D02*
X041566Y006537D01*
X041510Y006480D01*
X041510Y006367D01*
X041566Y006310D01*
X041793Y006310D01*
X041850Y006367D01*
X041850Y006480D01*
X041793Y006537D01*
X041566Y006678D02*
X041510Y006735D01*
X041510Y006848D01*
X041566Y006905D01*
X041623Y006905D01*
X041680Y006848D01*
X041737Y006905D01*
X041793Y006905D01*
X041680Y006848D02*
X041680Y006792D01*
X041623Y005505D02*
X041566Y005505D01*
X041510Y005448D01*
X041510Y005335D01*
X041566Y005278D01*
X041566Y005137D02*
X041510Y005080D01*
X041510Y004967D01*
X041566Y004910D01*
X041793Y004910D01*
X041850Y004967D01*
X041850Y005080D01*
X041793Y005137D01*
X041566Y005137D01*
X041850Y005278D02*
X041623Y005505D01*
X041850Y005505D02*
X041850Y005278D01*
X041850Y004105D02*
X041850Y003878D01*
X041850Y003992D02*
X041510Y003992D01*
X041623Y003878D01*
X041566Y003737D02*
X041510Y003680D01*
X041510Y003567D01*
X041566Y003510D01*
X041793Y003510D01*
X041850Y003567D01*
X041850Y003680D01*
X041793Y003737D01*
X041566Y003737D01*
X041566Y002705D02*
X041793Y002478D01*
X041850Y002535D01*
X041850Y002648D01*
X041793Y002705D01*
X041566Y002705D01*
X041510Y002648D01*
X041510Y002535D01*
X041566Y002478D01*
X041793Y002478D01*
X041793Y002337D02*
X041566Y002337D01*
X041510Y002280D01*
X041510Y002167D01*
X041566Y002110D01*
X041793Y002110D01*
X041850Y002167D01*
X041850Y002280D01*
X041793Y002337D01*
X041850Y001651D02*
X041510Y001651D01*
X041510Y001424D02*
X041850Y001651D01*
X041850Y001424D02*
X041510Y001424D01*
X041510Y001292D02*
X041510Y001178D01*
X041510Y001235D02*
X041850Y001235D01*
X041850Y001178D02*
X041850Y001292D01*
X041737Y001037D02*
X041510Y001037D01*
X041737Y001037D02*
X041850Y000923D01*
X041737Y000810D01*
X041510Y000810D01*
X020350Y003266D02*
X020293Y003210D01*
X020180Y003210D01*
X020123Y003266D01*
X020123Y003380D02*
X020237Y003380D01*
X020123Y003380D02*
X020123Y003493D01*
X020180Y003550D01*
X020293Y003550D01*
X020350Y003493D01*
X020350Y003266D01*
X019982Y003210D02*
X019755Y003550D01*
X019755Y003210D01*
X019613Y003210D02*
X019443Y003210D01*
X019387Y003266D01*
X019387Y003493D01*
X019443Y003550D01*
X019613Y003550D01*
X019613Y003210D01*
X019982Y003210D02*
X019982Y003550D01*
X018850Y003550D02*
X018850Y003323D01*
X018737Y003210D01*
X018623Y003323D01*
X018623Y003550D01*
X018482Y003493D02*
X018482Y003380D01*
X018312Y003380D01*
X018255Y003437D01*
X018255Y003493D01*
X018312Y003550D01*
X018425Y003550D01*
X018482Y003493D01*
X018482Y003380D02*
X018368Y003266D01*
X018255Y003210D01*
X018623Y003380D02*
X018850Y003380D01*
X017650Y003493D02*
X017593Y003550D01*
X017480Y003550D01*
X017423Y003493D01*
X017423Y003437D01*
X017480Y003380D01*
X017537Y003380D01*
X017480Y003380D02*
X017423Y003323D01*
X017423Y003266D01*
X017480Y003210D01*
X017593Y003210D01*
X017650Y003266D01*
X017282Y003493D02*
X017225Y003493D01*
X017225Y003550D01*
X017282Y003550D01*
X017282Y003493D01*
X017098Y003493D02*
X017041Y003550D01*
X016927Y003550D01*
X016871Y003493D01*
X016871Y003437D01*
X016927Y003380D01*
X016984Y003380D01*
X016927Y003380D02*
X016871Y003323D01*
X016871Y003266D01*
X016927Y003210D01*
X017041Y003210D01*
X017098Y003266D01*
X016729Y003210D02*
X016729Y003437D01*
X016616Y003550D01*
X016502Y003437D01*
X016502Y003210D01*
X016150Y003266D02*
X016150Y003493D01*
X016093Y003550D01*
X015980Y003550D01*
X015923Y003493D01*
X015923Y003380D01*
X016037Y003380D01*
X016150Y003266D02*
X016093Y003210D01*
X015980Y003210D01*
X015923Y003266D01*
X015782Y003210D02*
X015555Y003550D01*
X015555Y003210D01*
X015413Y003210D02*
X015243Y003210D01*
X015187Y003266D01*
X015187Y003493D01*
X015243Y003550D01*
X015413Y003550D01*
X015413Y003210D01*
X015782Y003210D02*
X015782Y003550D01*
X014550Y003550D02*
X014550Y003323D01*
X014437Y003210D01*
X014323Y003323D01*
X014323Y003550D01*
X014182Y003550D02*
X014182Y003493D01*
X013955Y003266D01*
X013955Y003210D01*
X014182Y003210D01*
X014323Y003380D02*
X014550Y003380D01*
X013450Y003493D02*
X013393Y003550D01*
X013280Y003550D01*
X013223Y003493D01*
X013223Y003437D01*
X013280Y003380D01*
X013337Y003380D01*
X013280Y003380D02*
X013223Y003323D01*
X013223Y003266D01*
X013280Y003210D01*
X013393Y003210D01*
X013450Y003266D01*
X013082Y003493D02*
X013025Y003493D01*
X013025Y003550D01*
X013082Y003550D01*
X013082Y003493D01*
X012898Y003493D02*
X012841Y003550D01*
X012727Y003550D01*
X012671Y003493D01*
X012671Y003437D01*
X012727Y003380D01*
X012784Y003380D01*
X012727Y003380D02*
X012671Y003323D01*
X012671Y003266D01*
X012727Y003210D01*
X012841Y003210D01*
X012898Y003266D01*
X012529Y003210D02*
X012529Y003437D01*
X012416Y003550D01*
X012302Y003437D01*
X012302Y003210D01*
D14*
X015680Y013880D02*
X015680Y014780D01*
X019780Y014780D02*
X019780Y013880D01*
X024080Y013880D02*
X024080Y014780D01*
X032280Y014780D02*
X032280Y013880D01*
X036480Y013880D02*
X036480Y014780D01*
D15*
X028180Y014780D02*
X028180Y013880D01*
D16*
X029450Y011588D02*
X029735Y011648D01*
X030026Y011676D01*
X030317Y011669D01*
X030606Y011629D01*
X030888Y011556D01*
X031160Y011450D01*
X031250Y011401D01*
X031332Y011341D01*
X031406Y011269D01*
X031469Y011189D01*
X031520Y011100D01*
X031400Y011060D01*
X031280Y011200D01*
X031214Y011268D01*
X031139Y011326D01*
X031057Y011374D01*
X030970Y011410D01*
X030669Y011496D01*
X030360Y011550D01*
X030108Y011567D01*
X029856Y011555D01*
X029608Y011514D01*
X029365Y011446D01*
X029131Y011351D01*
X028910Y011230D01*
X028770Y011140D01*
X028690Y011250D01*
X028910Y011370D01*
X029174Y011495D01*
X029450Y011588D01*
X029420Y011578D02*
X030803Y011578D01*
X030747Y011547D02*
X030730Y011559D01*
X030711Y011567D01*
X030690Y011570D01*
X030560Y011570D01*
X030558Y011562D01*
X030554Y011556D01*
X030548Y011552D01*
X030540Y011550D01*
X030520Y011550D01*
X030512Y011552D01*
X030506Y011556D01*
X030502Y011562D01*
X030500Y011570D01*
X030390Y011570D01*
X030390Y011550D01*
X030391Y011546D01*
X030393Y011543D01*
X030396Y011541D01*
X030400Y011540D01*
X030400Y011480D01*
X030401Y011471D01*
X030406Y011462D01*
X030412Y011456D01*
X030421Y011451D01*
X030430Y011450D01*
X030520Y011450D01*
X030521Y011459D01*
X030526Y011468D01*
X030532Y011474D01*
X030541Y011479D01*
X030550Y011480D01*
X030590Y011480D01*
X030594Y011481D01*
X030597Y011483D01*
X030599Y011486D01*
X030600Y011490D01*
X030610Y011490D01*
X030622Y011488D01*
X030634Y011482D01*
X030642Y011474D01*
X030648Y011462D01*
X030650Y011450D01*
X030650Y011420D01*
X030649Y011416D01*
X030647Y011413D01*
X030644Y011411D01*
X030640Y011410D01*
X030639Y011401D01*
X030634Y011392D01*
X030628Y011386D01*
X030619Y011381D01*
X030610Y011380D01*
X030560Y011380D01*
X030559Y011384D01*
X030557Y011387D01*
X030554Y011389D01*
X030550Y011390D01*
X030540Y011390D01*
X030530Y011420D01*
X030410Y011420D01*
X030410Y011190D01*
X030412Y011172D01*
X030419Y011155D01*
X030431Y011141D01*
X030445Y011129D01*
X030462Y011122D01*
X030480Y011120D01*
X030650Y011120D01*
X030676Y011123D01*
X030700Y011133D01*
X030721Y011149D01*
X030737Y011170D01*
X030747Y011194D01*
X030750Y011220D01*
X030750Y011250D01*
X030749Y011254D01*
X030747Y011257D01*
X030744Y011259D01*
X030740Y011260D01*
X030640Y011260D01*
X030640Y011240D01*
X030639Y011231D01*
X030634Y011222D01*
X030628Y011216D01*
X030619Y011211D01*
X030610Y011210D01*
X030560Y011210D01*
X030551Y011211D01*
X030542Y011216D01*
X030536Y011222D01*
X030531Y011231D01*
X030530Y011240D01*
X030530Y011280D01*
X030532Y011292D01*
X030538Y011304D01*
X030546Y011312D01*
X030558Y011318D01*
X030570Y011320D01*
X030571Y011324D01*
X030573Y011327D01*
X030576Y011329D01*
X030580Y011330D01*
X030620Y011330D01*
X030621Y011339D01*
X030626Y011348D01*
X030632Y011354D01*
X030641Y011359D01*
X030650Y011360D01*
X030710Y011360D01*
X030726Y011362D01*
X030740Y011368D01*
X030752Y011378D01*
X030762Y011390D01*
X030768Y011404D01*
X030770Y011420D01*
X030770Y011490D01*
X030767Y011511D01*
X030759Y011530D01*
X030747Y011547D01*
X030760Y011529D02*
X030400Y011529D01*
X030400Y011481D02*
X030593Y011481D01*
X030635Y011481D02*
X030770Y011481D01*
X030722Y011481D02*
X031081Y011481D01*
X031153Y011481D02*
X031213Y011481D01*
X031221Y011529D02*
X031161Y011529D01*
X031170Y011578D02*
X031230Y011578D01*
X031230Y011580D02*
X031120Y010950D01*
X031060Y010950D01*
X031170Y011580D01*
X031230Y011580D01*
X031204Y011432D02*
X031144Y011432D01*
X031193Y011432D02*
X030892Y011432D01*
X030956Y011529D02*
X030479Y011529D01*
X030410Y011384D02*
X030559Y011384D01*
X030623Y011384D02*
X030757Y011384D01*
X030770Y011432D02*
X030650Y011432D01*
X030621Y011335D02*
X030410Y011335D01*
X030410Y011287D02*
X030531Y011287D01*
X030530Y011238D02*
X030410Y011238D01*
X030410Y011190D02*
X030745Y011190D01*
X030750Y011238D02*
X030640Y011238D01*
X030710Y011141D02*
X030430Y011141D01*
X030500Y010960D02*
X030070Y010980D01*
X029928Y010977D01*
X029787Y010957D01*
X029650Y010920D01*
X029270Y010800D01*
X029198Y010773D01*
X029131Y010736D01*
X029070Y010690D01*
X028990Y010620D01*
X029180Y010620D01*
X029403Y010733D01*
X029638Y010817D01*
X029882Y010872D01*
X030130Y010896D01*
X030380Y010890D01*
X030502Y010871D01*
X030621Y010836D01*
X030735Y010785D01*
X030840Y010720D01*
X030980Y010620D01*
X031050Y010660D01*
X030981Y010743D01*
X030900Y010814D01*
X030809Y010873D01*
X030711Y010917D01*
X030607Y010946D01*
X030500Y010960D01*
X030602Y010947D02*
X029750Y010947D01*
X029784Y010850D02*
X029429Y010850D01*
X029459Y010753D02*
X029162Y010753D01*
X029089Y010705D02*
X029347Y010705D01*
X029251Y010656D02*
X029031Y010656D01*
X028797Y010511D02*
X028724Y010511D01*
X028780Y010540D02*
X028820Y010470D01*
X028800Y010430D01*
X028440Y010250D01*
X028400Y010340D01*
X028780Y010540D01*
X028816Y010462D02*
X028632Y010462D01*
X028670Y010365D02*
X028448Y010365D01*
X028451Y010365D02*
X027940Y010365D01*
X027938Y010366D02*
X027974Y010353D01*
X028006Y010333D01*
X028033Y010306D01*
X028053Y010274D01*
X028066Y010238D01*
X028070Y010200D01*
X028070Y010150D01*
X028066Y010122D01*
X028055Y010095D01*
X028038Y010072D01*
X028015Y010055D01*
X027988Y010044D01*
X027960Y010040D01*
X027960Y009930D01*
X027963Y009901D01*
X027973Y009874D01*
X027988Y009849D01*
X028009Y009828D01*
X028034Y009813D01*
X028061Y009803D01*
X028090Y009800D01*
X028090Y009640D01*
X028085Y009598D01*
X028071Y009558D01*
X028049Y009522D01*
X028018Y009491D01*
X027982Y009469D01*
X027942Y009455D01*
X027900Y009450D01*
X027849Y009455D01*
X027801Y009470D01*
X027756Y009494D01*
X027716Y009526D01*
X027684Y009566D01*
X027660Y009611D01*
X027645Y009659D01*
X027640Y009710D01*
X027640Y009740D01*
X027650Y009770D01*
X027230Y009770D01*
X027226Y009771D01*
X027223Y009773D01*
X027221Y009776D01*
X027220Y009780D01*
X027220Y009700D01*
X027228Y009604D01*
X027253Y009512D01*
X027294Y009425D01*
X027349Y009346D01*
X027416Y009279D01*
X027495Y009224D01*
X027582Y009183D01*
X027674Y009158D01*
X027770Y009150D01*
X028030Y009150D01*
X028112Y009157D01*
X028191Y009178D01*
X028265Y009213D01*
X028332Y009260D01*
X028390Y009318D01*
X028437Y009385D01*
X028472Y009459D01*
X028493Y009538D01*
X028500Y009620D01*
X028500Y010150D01*
X028492Y010240D01*
X028469Y010328D01*
X028430Y010410D01*
X028378Y010484D01*
X028314Y010548D01*
X028240Y010600D01*
X028158Y010639D01*
X028070Y010662D01*
X027980Y010670D01*
X027790Y010670D01*
X027786Y010671D01*
X027783Y010673D01*
X027781Y010676D01*
X027780Y010680D01*
X027710Y010680D01*
X027639Y010674D01*
X027570Y010655D01*
X027505Y010625D01*
X027446Y010584D01*
X027396Y010534D01*
X027355Y010475D01*
X027325Y010410D01*
X027306Y010341D01*
X027300Y010270D01*
X027640Y010230D01*
X027640Y010240D01*
X027643Y010263D01*
X027652Y010285D01*
X027666Y010304D01*
X027685Y010318D01*
X027707Y010327D01*
X027730Y010330D01*
X027732Y010342D01*
X027738Y010354D01*
X027746Y010362D01*
X027758Y010368D01*
X027770Y010370D01*
X027900Y010370D01*
X027938Y010366D01*
X028022Y010317D02*
X028472Y010317D01*
X028476Y010268D02*
X028432Y010268D01*
X028485Y010268D02*
X028055Y010268D01*
X028068Y010220D02*
X028494Y010220D01*
X028498Y010171D02*
X028070Y010171D01*
X028066Y010123D02*
X028500Y010123D01*
X028500Y010074D02*
X028039Y010074D01*
X027960Y010026D02*
X028500Y010026D01*
X028500Y009977D02*
X027960Y009977D01*
X027960Y009929D02*
X028500Y009929D01*
X028500Y009880D02*
X027971Y009880D01*
X028006Y009832D02*
X028500Y009832D01*
X028500Y009783D02*
X028090Y009783D01*
X028090Y009735D02*
X028500Y009735D01*
X028500Y009686D02*
X028090Y009686D01*
X028090Y009638D02*
X028500Y009638D01*
X028497Y009589D02*
X028082Y009589D01*
X028060Y009541D02*
X028493Y009541D01*
X028480Y009492D02*
X028019Y009492D01*
X027759Y009492D02*
X027262Y009492D01*
X027245Y009541D02*
X027704Y009541D01*
X027671Y009589D02*
X027232Y009589D01*
X027225Y009638D02*
X027652Y009638D01*
X027642Y009686D02*
X027221Y009686D01*
X027220Y009735D02*
X027640Y009735D01*
X027330Y009780D02*
X027250Y009840D01*
X027031Y009803D01*
X026810Y009790D01*
X026780Y009790D01*
X026780Y009730D01*
X026934Y009724D01*
X027088Y009734D01*
X027240Y009760D01*
X027330Y009780D01*
X027326Y009783D02*
X026780Y009783D01*
X026780Y009735D02*
X027089Y009735D01*
X027201Y009832D02*
X027261Y009832D01*
X027317Y010268D02*
X027645Y010268D01*
X027683Y010317D02*
X027304Y010317D01*
X027313Y010365D02*
X027752Y010365D01*
X027631Y010608D02*
X027332Y010608D01*
X027401Y010628D02*
X027080Y010531D01*
X026750Y010470D01*
X026760Y010400D01*
X026860Y010400D01*
X027027Y010410D01*
X027191Y010440D01*
X027350Y010490D01*
X028060Y010787D01*
X028750Y011130D01*
X028680Y011220D01*
X028210Y011000D01*
X027710Y010760D01*
X027401Y010628D01*
X027466Y010656D02*
X027747Y010656D01*
X027694Y010753D02*
X027979Y010753D01*
X028090Y010802D02*
X027797Y010802D01*
X027898Y010850D02*
X028187Y010850D01*
X028285Y010899D02*
X027999Y010899D01*
X028100Y010947D02*
X028382Y010947D01*
X028480Y010996D02*
X028201Y010996D01*
X028304Y011044D02*
X028577Y011044D01*
X028675Y011093D02*
X028408Y011093D01*
X028511Y011141D02*
X028741Y011141D01*
X028769Y011141D02*
X028772Y011141D01*
X028734Y011190D02*
X028847Y011190D01*
X028814Y011226D02*
X028808Y011222D01*
X028800Y011220D01*
X028730Y011220D01*
X028726Y011221D01*
X028723Y011223D01*
X028721Y011226D01*
X028720Y011230D01*
X028720Y011290D01*
X028721Y011299D01*
X028726Y011308D01*
X028732Y011314D01*
X028741Y011319D01*
X028750Y011320D01*
X028820Y011320D01*
X028847Y011323D01*
X028872Y011332D01*
X028895Y011346D01*
X028914Y011365D01*
X028928Y011388D01*
X028937Y011413D01*
X028940Y011440D01*
X028940Y011520D01*
X028938Y011538D01*
X028931Y011555D01*
X028919Y011569D01*
X028905Y011581D01*
X028888Y011588D01*
X028870Y011590D01*
X028770Y011590D01*
X028758Y011588D01*
X028746Y011582D01*
X028738Y011574D01*
X028732Y011562D01*
X028730Y011550D01*
X028730Y011480D01*
X028732Y011488D01*
X028736Y011494D01*
X028742Y011498D01*
X028750Y011500D01*
X028790Y011500D01*
X028802Y011498D01*
X028814Y011492D01*
X028822Y011484D01*
X028828Y011472D01*
X028830Y011460D01*
X028830Y011420D01*
X028828Y011408D01*
X028822Y011396D01*
X028814Y011388D01*
X028802Y011382D01*
X028790Y011380D01*
X028740Y011380D01*
X028709Y011376D01*
X028679Y011366D01*
X028653Y011349D01*
X028631Y011327D01*
X028614Y011301D01*
X028604Y011271D01*
X028600Y011240D01*
X028600Y011210D01*
X028600Y011200D01*
X028601Y011196D01*
X028603Y011193D01*
X028606Y011191D01*
X028610Y011190D01*
X028612Y011172D01*
X028619Y011155D01*
X028631Y011141D01*
X028645Y011129D01*
X028662Y011122D01*
X028680Y011120D01*
X028830Y011120D01*
X028853Y011123D01*
X028875Y011132D01*
X028894Y011146D01*
X028908Y011165D01*
X028917Y011187D01*
X028920Y011210D01*
X028920Y011260D01*
X028820Y011260D01*
X028820Y011240D01*
X028818Y011232D01*
X028814Y011226D01*
X028820Y011238D02*
X028920Y011238D01*
X028925Y011238D02*
X028699Y011238D01*
X028720Y011238D02*
X028600Y011238D01*
X028609Y011287D02*
X028720Y011287D01*
X028757Y011287D02*
X029013Y011287D01*
X029000Y011280D02*
X029130Y011280D01*
X029140Y011260D01*
X029149Y011259D01*
X029158Y011254D01*
X029164Y011248D01*
X029169Y011239D01*
X029170Y011230D01*
X029220Y011230D01*
X029232Y011232D01*
X029244Y011238D01*
X029360Y011238D01*
X029360Y011240D02*
X029360Y011470D01*
X029356Y011498D01*
X029345Y011525D01*
X029328Y011548D01*
X029305Y011565D01*
X029278Y011576D01*
X029250Y011580D01*
X029130Y011580D01*
X029101Y011577D01*
X029074Y011567D01*
X029049Y011552D01*
X029028Y011531D01*
X029013Y011506D01*
X029003Y011479D01*
X029000Y011450D01*
X029000Y011440D01*
X029001Y011436D01*
X029003Y011433D01*
X029006Y011431D01*
X029010Y011430D01*
X029130Y011430D01*
X029130Y011470D01*
X029132Y011478D01*
X029136Y011484D01*
X029142Y011488D01*
X029150Y011490D01*
X029180Y011490D01*
X029201Y011487D01*
X029220Y011479D01*
X029237Y011467D01*
X029249Y011450D01*
X029257Y011431D01*
X029260Y011410D01*
X029260Y011270D01*
X029258Y011258D01*
X029252Y011246D01*
X029244Y011238D01*
X029260Y011287D02*
X029360Y011287D01*
X029360Y011240D02*
X029357Y011213D01*
X029348Y011188D01*
X029334Y011165D01*
X029315Y011146D01*
X029292Y011132D01*
X029267Y011123D01*
X029240Y011120D01*
X029110Y011120D01*
X029082Y011124D01*
X029055Y011135D01*
X029032Y011152D01*
X029015Y011175D01*
X029004Y011202D01*
X029000Y011230D01*
X029000Y011280D01*
X029000Y011238D02*
X029169Y011238D01*
X029102Y011335D02*
X028846Y011335D01*
X028877Y011335D02*
X028638Y011335D01*
X028615Y011190D02*
X028704Y011190D01*
X028630Y011141D02*
X028887Y011141D01*
X028917Y011190D02*
X028610Y011190D01*
X028806Y011384D02*
X028925Y011384D01*
X028939Y011384D02*
X029211Y011384D01*
X029260Y011384D02*
X029360Y011384D01*
X029360Y011432D02*
X029257Y011432D01*
X029217Y011481D02*
X029359Y011481D01*
X029342Y011529D02*
X029027Y011529D01*
X029004Y011481D02*
X029133Y011481D01*
X029144Y011481D02*
X029487Y011481D01*
X029330Y011432D02*
X029041Y011432D01*
X029004Y011432D02*
X029130Y011432D01*
X029108Y011578D02*
X029269Y011578D01*
X029276Y011529D02*
X029698Y011529D01*
X029630Y011626D02*
X030617Y011626D01*
X030170Y011550D02*
X030168Y011558D01*
X030164Y011564D01*
X030158Y011568D01*
X030150Y011570D01*
X030030Y011570D01*
X030009Y011567D01*
X029990Y011559D01*
X029973Y011547D01*
X029961Y011530D01*
X029953Y011511D01*
X029950Y011490D01*
X029950Y011220D01*
X029953Y011197D01*
X029962Y011175D01*
X029976Y011156D01*
X029995Y011142D01*
X030017Y011133D01*
X030040Y011130D01*
X030140Y011130D01*
X030152Y011132D01*
X030164Y011138D01*
X030172Y011146D01*
X030178Y011158D01*
X030180Y011170D01*
X030180Y011210D01*
X030181Y011214D01*
X030183Y011217D01*
X030186Y011219D01*
X030190Y011220D01*
X030200Y011270D01*
X030180Y011270D01*
X030180Y011240D01*
X030178Y011228D01*
X030172Y011216D01*
X030164Y011208D01*
X030152Y011202D01*
X030140Y011200D01*
X030110Y011200D01*
X030098Y011202D01*
X030086Y011208D01*
X030078Y011216D01*
X030072Y011228D01*
X030070Y011240D01*
X030070Y011470D01*
X030071Y011474D01*
X030073Y011477D01*
X030076Y011479D01*
X030080Y011480D01*
X030130Y011480D01*
X030142Y011478D01*
X030154Y011472D01*
X030162Y011464D01*
X030168Y011452D01*
X030170Y011440D01*
X030170Y011550D01*
X030170Y011529D02*
X029960Y011529D01*
X029950Y011481D02*
X030170Y011481D01*
X030070Y011432D02*
X029950Y011432D01*
X029950Y011384D02*
X030070Y011384D01*
X030070Y011335D02*
X029950Y011335D01*
X029950Y011287D02*
X030070Y011287D01*
X030070Y011238D02*
X029950Y011238D01*
X029956Y011190D02*
X030180Y011190D01*
X030180Y011238D02*
X030194Y011238D01*
X030167Y011141D02*
X029997Y011141D01*
X029750Y011170D02*
X029750Y011330D01*
X029750Y011310D01*
X029744Y011291D01*
X029733Y011274D01*
X029718Y011261D01*
X029700Y011253D01*
X029680Y011250D01*
X029630Y011250D01*
X029626Y011249D01*
X029623Y011247D01*
X029621Y011244D01*
X029620Y011240D01*
X029620Y011140D01*
X029621Y011136D01*
X029623Y011133D01*
X029626Y011131D01*
X029630Y011130D01*
X029720Y011130D01*
X029724Y011131D01*
X029727Y011133D01*
X029729Y011136D01*
X029730Y011140D01*
X029750Y011170D01*
X029750Y011190D02*
X029620Y011190D01*
X029620Y011238D02*
X029750Y011238D01*
X029741Y011287D02*
X029750Y011287D01*
X029731Y011141D02*
X029620Y011141D01*
X029582Y010899D02*
X030752Y010899D01*
X030793Y010953D02*
X030796Y010951D01*
X030800Y010950D01*
X030840Y010950D01*
X030870Y010950D01*
X030930Y010950D01*
X030947Y010952D01*
X030963Y010960D01*
X030976Y010971D01*
X030985Y010986D01*
X030990Y011003D01*
X030990Y011020D01*
X030989Y011029D01*
X030984Y011038D01*
X030978Y011044D01*
X030868Y011044D01*
X030867Y011043D02*
X030864Y011041D01*
X030860Y011040D01*
X030810Y011040D01*
X030802Y011038D01*
X030796Y011034D01*
X030792Y011028D01*
X030790Y011020D01*
X030790Y010960D01*
X030791Y010956D01*
X030793Y010953D01*
X030790Y010996D02*
X030988Y010996D01*
X030978Y011044D02*
X030969Y011049D01*
X030960Y011050D01*
X030870Y011050D01*
X030869Y011046D01*
X030867Y011043D01*
X030844Y010850D02*
X030573Y010850D01*
X030698Y010802D02*
X030914Y010802D01*
X030969Y010753D02*
X030787Y010753D01*
X030770Y010680D02*
X030669Y010671D01*
X030572Y010645D01*
X030480Y010602D01*
X030397Y010544D01*
X030326Y010473D01*
X030268Y010390D01*
X030225Y010298D01*
X030199Y010201D01*
X030190Y010100D01*
X030630Y010100D01*
X030634Y010101D01*
X030637Y010103D01*
X030639Y010106D01*
X030640Y010110D01*
X030640Y010140D01*
X030644Y010171D01*
X030643Y010171D02*
X030196Y010171D01*
X030192Y010123D02*
X030640Y010123D01*
X030644Y010171D02*
X030654Y010201D01*
X030671Y010227D01*
X030693Y010249D01*
X030719Y010266D01*
X030749Y010276D01*
X030780Y010280D01*
X030900Y010280D01*
X030936Y010276D01*
X030969Y010264D01*
X031000Y010245D01*
X031025Y010220D01*
X031044Y010189D01*
X031056Y010156D01*
X031060Y010120D01*
X031060Y009720D01*
X031056Y009684D01*
X031044Y009651D01*
X031025Y009620D01*
X031000Y009595D01*
X030969Y009576D01*
X030936Y009564D01*
X030900Y009560D01*
X030800Y009560D01*
X030764Y009564D01*
X030731Y009576D01*
X030700Y009595D01*
X030675Y009620D01*
X030656Y009651D01*
X030644Y009684D01*
X030640Y009720D01*
X030640Y009870D01*
X030630Y009870D01*
X030200Y009880D01*
X030200Y009690D01*
X030208Y009594D01*
X030233Y009502D01*
X030274Y009415D01*
X030329Y009336D01*
X030396Y009269D01*
X030475Y009214D01*
X030562Y009173D01*
X030654Y009148D01*
X030750Y009140D01*
X030970Y009140D01*
X031055Y009147D01*
X031138Y009170D01*
X031215Y009206D01*
X031285Y009255D01*
X031345Y009315D01*
X031394Y009385D01*
X031430Y009462D01*
X031453Y009545D01*
X031460Y009630D01*
X031460Y010150D01*
X031452Y010242D01*
X031428Y010331D01*
X031389Y010415D01*
X031336Y010491D01*
X031271Y010556D01*
X031195Y010609D01*
X031111Y010648D01*
X031022Y010672D01*
X030930Y010680D01*
X030770Y010680D01*
X030862Y010705D02*
X031013Y010705D01*
X031043Y010656D02*
X030930Y010656D01*
X031081Y010656D02*
X030613Y010656D01*
X030491Y010608D02*
X031197Y010608D01*
X031266Y010559D02*
X030418Y010559D01*
X030363Y010511D02*
X031316Y010511D01*
X031356Y010462D02*
X030318Y010462D01*
X030284Y010414D02*
X031390Y010414D01*
X031412Y010365D02*
X030256Y010365D01*
X030233Y010317D02*
X031432Y010317D01*
X031445Y010268D02*
X030958Y010268D01*
X031025Y010220D02*
X031454Y010220D01*
X031467Y010220D02*
X031440Y010220D01*
X031460Y010240D02*
X032070Y008550D01*
X031960Y008510D01*
X031630Y009530D01*
X031440Y010000D01*
X031440Y010250D01*
X031460Y010240D01*
X031458Y010171D02*
X031051Y010171D01*
X031060Y010123D02*
X031460Y010123D01*
X031440Y010123D02*
X031502Y010123D01*
X031485Y010171D02*
X031440Y010171D01*
X031440Y010074D02*
X031520Y010074D01*
X031537Y010026D02*
X031440Y010026D01*
X031460Y010026D02*
X031060Y010026D01*
X031060Y010074D02*
X031460Y010074D01*
X031460Y009977D02*
X031060Y009977D01*
X031060Y009929D02*
X031460Y009929D01*
X031469Y009929D02*
X031572Y009929D01*
X031555Y009977D02*
X031449Y009977D01*
X031460Y009880D02*
X031060Y009880D01*
X031060Y009832D02*
X031460Y009832D01*
X031508Y009832D02*
X031607Y009832D01*
X031590Y009880D02*
X031488Y009880D01*
X031460Y009783D02*
X031060Y009783D01*
X031060Y009735D02*
X031460Y009735D01*
X031460Y009686D02*
X031056Y009686D01*
X031036Y009638D02*
X031460Y009638D01*
X031456Y009589D02*
X030990Y009589D01*
X030710Y009589D02*
X030210Y009589D01*
X030205Y009638D02*
X030664Y009638D01*
X030644Y009686D02*
X030200Y009686D01*
X030200Y009735D02*
X030640Y009735D01*
X030640Y009783D02*
X030200Y009783D01*
X030200Y009832D02*
X030640Y009832D01*
X030650Y009870D02*
X030650Y010070D01*
X030190Y010070D01*
X030190Y009900D01*
X030630Y009900D01*
X030660Y009870D01*
X030650Y009870D01*
X030650Y009880D02*
X030650Y009880D01*
X030650Y009929D02*
X030190Y009929D01*
X030190Y009977D02*
X030650Y009977D01*
X030650Y010026D02*
X030190Y010026D01*
X030204Y010220D02*
X030666Y010220D01*
X030725Y010268D02*
X030217Y010268D01*
X029530Y009920D02*
X029550Y009810D01*
X029566Y009707D01*
X029567Y009603D01*
X029551Y009500D01*
X029520Y009400D01*
X029499Y009356D01*
X029472Y009316D01*
X029440Y009280D01*
X029370Y009200D01*
X029350Y009179D01*
X029326Y009163D01*
X029299Y009153D01*
X029270Y009150D01*
X029050Y009150D01*
X028995Y009155D01*
X028943Y009171D01*
X028894Y009197D01*
X028852Y009232D01*
X028817Y009274D01*
X028791Y009323D01*
X028775Y009375D01*
X028770Y009430D01*
X028770Y009610D01*
X028772Y009626D01*
X028778Y009640D01*
X028788Y009652D01*
X028800Y009662D01*
X028814Y009668D01*
X028830Y009670D01*
X029190Y009670D01*
X029193Y009647D01*
X029202Y009625D01*
X029216Y009606D01*
X029235Y009592D01*
X029257Y009583D01*
X029280Y009580D01*
X029370Y009580D01*
X029403Y009584D01*
X029435Y009595D01*
X029464Y009613D01*
X029487Y009636D01*
X029505Y009665D01*
X029516Y009697D01*
X029520Y009730D01*
X029524Y009731D01*
X029527Y009733D01*
X029529Y009736D01*
X029530Y009740D01*
X029530Y009920D01*
X029530Y009880D02*
X029537Y009880D01*
X029530Y009832D02*
X029546Y009832D01*
X029554Y009783D02*
X029530Y009783D01*
X029528Y009735D02*
X029562Y009735D01*
X029567Y009686D02*
X029513Y009686D01*
X029488Y009638D02*
X029567Y009638D01*
X029565Y009589D02*
X029418Y009589D01*
X029558Y009541D02*
X028770Y009541D01*
X028770Y009589D02*
X029242Y009589D01*
X029197Y009638D02*
X028777Y009638D01*
X028770Y009492D02*
X029549Y009492D01*
X029534Y009444D02*
X028770Y009444D01*
X028773Y009395D02*
X029518Y009395D01*
X029492Y009347D02*
X028784Y009347D01*
X028805Y009298D02*
X029456Y009298D01*
X029413Y009250D02*
X028838Y009250D01*
X028890Y009201D02*
X029371Y009201D01*
X029292Y009153D02*
X029024Y009153D01*
X028442Y009395D02*
X027315Y009395D01*
X027285Y009444D02*
X028464Y009444D01*
X028410Y009347D02*
X027349Y009347D01*
X027397Y009298D02*
X028370Y009298D01*
X028317Y009250D02*
X027458Y009250D01*
X027544Y009201D02*
X028239Y009201D01*
X028059Y009153D02*
X027741Y009153D01*
X030223Y009541D02*
X031451Y009541D01*
X031438Y009492D02*
X030238Y009492D01*
X030260Y009444D02*
X031422Y009444D01*
X031399Y009395D02*
X030288Y009395D01*
X030322Y009347D02*
X031367Y009347D01*
X031328Y009298D02*
X030367Y009298D01*
X030424Y009250D02*
X031278Y009250D01*
X031205Y009201D02*
X030502Y009201D01*
X030639Y009153D02*
X031074Y009153D01*
X031689Y009347D02*
X031782Y009347D01*
X031765Y009395D02*
X031674Y009395D01*
X031658Y009444D02*
X031747Y009444D01*
X031730Y009492D02*
X031642Y009492D01*
X031626Y009541D02*
X031712Y009541D01*
X031695Y009589D02*
X031606Y009589D01*
X031587Y009638D02*
X031677Y009638D01*
X031660Y009686D02*
X031567Y009686D01*
X031547Y009735D02*
X031642Y009735D01*
X031625Y009783D02*
X031528Y009783D01*
X032170Y009720D02*
X032170Y009530D01*
X032420Y008820D01*
X032460Y008720D01*
X032462Y008696D01*
X032469Y008672D01*
X032480Y008650D01*
X032493Y008633D01*
X032510Y008619D01*
X032530Y008610D01*
X032543Y008607D01*
X032556Y008608D01*
X032569Y008613D01*
X032580Y008620D01*
X032614Y008657D01*
X032640Y008700D01*
X032739Y008893D01*
X032850Y009080D01*
X032920Y009190D01*
X032880Y009190D01*
X032871Y009203D01*
X032858Y009212D01*
X032843Y009217D01*
X032827Y009217D01*
X032812Y009212D01*
X032799Y009203D01*
X032790Y009190D01*
X032701Y009026D01*
X032600Y008870D01*
X032589Y008857D01*
X032575Y008847D01*
X032560Y008840D01*
X032550Y008838D01*
X032540Y008840D01*
X032532Y008844D01*
X032525Y008851D01*
X032520Y008860D01*
X032290Y009540D01*
X032230Y009710D01*
X032170Y009720D01*
X032170Y009686D02*
X032238Y009686D01*
X032256Y009638D02*
X032170Y009638D01*
X032170Y009589D02*
X032273Y009589D01*
X032290Y009541D02*
X032170Y009541D01*
X032183Y009492D02*
X032306Y009492D01*
X032323Y009444D02*
X032200Y009444D01*
X032218Y009395D02*
X032339Y009395D01*
X032355Y009347D02*
X032235Y009347D01*
X032252Y009298D02*
X032372Y009298D01*
X032388Y009250D02*
X032269Y009250D01*
X032286Y009201D02*
X032405Y009201D01*
X032421Y009153D02*
X032303Y009153D01*
X032320Y009104D02*
X032437Y009104D01*
X032454Y009056D02*
X032337Y009056D01*
X032354Y009007D02*
X032470Y009007D01*
X032487Y008959D02*
X032371Y008959D01*
X032388Y008910D02*
X032503Y008910D01*
X032519Y008862D02*
X032405Y008862D01*
X032423Y008813D02*
X032698Y008813D01*
X032673Y008765D02*
X032442Y008765D01*
X032460Y008716D02*
X032648Y008716D01*
X032620Y008668D02*
X032471Y008668D01*
X032511Y008619D02*
X032579Y008619D01*
X032593Y008862D02*
X032723Y008862D01*
X032749Y008910D02*
X032626Y008910D01*
X032657Y008959D02*
X032778Y008959D01*
X032807Y009007D02*
X032689Y009007D01*
X032717Y009056D02*
X032835Y009056D01*
X032865Y009104D02*
X032743Y009104D01*
X032770Y009153D02*
X032896Y009153D01*
X032910Y009160D02*
X032837Y009166D01*
X032766Y009185D01*
X032700Y009216D01*
X032640Y009258D01*
X032588Y009310D01*
X032546Y009370D01*
X032515Y009436D01*
X032496Y009507D01*
X032490Y009580D01*
X032880Y009580D01*
X032884Y009579D01*
X032887Y009577D01*
X032889Y009574D01*
X032890Y009570D01*
X032893Y009543D01*
X032902Y009518D01*
X032916Y009495D01*
X032935Y009476D01*
X032958Y009462D01*
X032983Y009453D01*
X033010Y009450D01*
X033160Y009450D01*
X033179Y009452D01*
X033197Y009459D01*
X033213Y009470D01*
X033226Y009484D01*
X033235Y009501D01*
X033240Y009520D01*
X033252Y009581D01*
X033270Y009640D01*
X033280Y009650D01*
X033680Y009590D01*
X033680Y009570D01*
X033674Y009499D01*
X033655Y009430D01*
X033625Y009365D01*
X033584Y009306D01*
X033534Y009256D01*
X033475Y009215D01*
X033410Y009185D01*
X033341Y009166D01*
X033270Y009160D01*
X032910Y009160D01*
X032872Y009201D02*
X032798Y009201D01*
X032733Y009201D02*
X033445Y009201D01*
X033430Y009170D02*
X033320Y009170D01*
X033320Y009140D01*
X033220Y008880D01*
X033098Y008615D01*
X032944Y008367D01*
X032760Y008140D01*
X032716Y008100D01*
X032664Y008070D01*
X032608Y008050D01*
X032549Y008042D01*
X032490Y008045D01*
X032432Y008059D01*
X032378Y008085D01*
X032330Y008120D01*
X032249Y008204D01*
X032179Y008297D01*
X032122Y008399D01*
X032079Y008507D01*
X032050Y008620D01*
X031950Y008620D01*
X031950Y008530D01*
X031970Y008450D01*
X032005Y008343D01*
X032057Y008243D01*
X032122Y008152D01*
X032201Y008071D01*
X032291Y008003D01*
X032390Y007950D01*
X032461Y007926D01*
X032536Y007914D01*
X032611Y007915D01*
X032685Y007930D01*
X032755Y007957D01*
X032820Y007996D01*
X032876Y008045D01*
X032924Y008104D01*
X032960Y008170D01*
X033136Y008528D01*
X033340Y008870D01*
X033430Y008880D01*
X033430Y009170D01*
X033430Y009153D02*
X033320Y009153D01*
X033306Y009104D02*
X033430Y009104D01*
X033430Y009056D02*
X033288Y009056D01*
X033269Y009007D02*
X033430Y009007D01*
X033430Y008959D02*
X033250Y008959D01*
X033232Y008910D02*
X033430Y008910D01*
X033420Y008870D02*
X033420Y008740D01*
X033430Y008150D01*
X033440Y008068D01*
X033466Y007990D01*
X033505Y007917D01*
X033557Y007853D01*
X033620Y007800D01*
X033670Y007771D01*
X033724Y007751D01*
X033781Y007741D01*
X033839Y007741D01*
X033896Y007751D01*
X033950Y007770D01*
X034060Y007832D01*
X034158Y007910D01*
X034242Y008004D01*
X034310Y008110D01*
X034920Y009200D01*
X035010Y009160D01*
X034700Y008510D01*
X034570Y008264D01*
X034419Y008030D01*
X034250Y007810D01*
X034185Y007745D01*
X034111Y007693D01*
X034028Y007654D01*
X033940Y007629D01*
X033849Y007621D01*
X033757Y007628D01*
X033669Y007651D01*
X033586Y007689D01*
X033510Y007740D01*
X033461Y007787D01*
X033419Y007840D01*
X033387Y007900D01*
X033363Y007964D01*
X033350Y008030D01*
X033322Y008450D01*
X033340Y008870D01*
X033420Y008870D01*
X033420Y008862D02*
X033340Y008862D01*
X033335Y008862D02*
X033212Y008862D01*
X033189Y008813D02*
X033306Y008813D01*
X033338Y008813D02*
X033420Y008813D01*
X033420Y008765D02*
X033335Y008765D01*
X033333Y008716D02*
X033420Y008716D01*
X033421Y008668D02*
X033331Y008668D01*
X033329Y008619D02*
X033422Y008619D01*
X033423Y008571D02*
X033327Y008571D01*
X033325Y008522D02*
X033424Y008522D01*
X033425Y008474D02*
X033323Y008474D01*
X033324Y008425D02*
X033425Y008425D01*
X033426Y008377D02*
X033327Y008377D01*
X033330Y008328D02*
X033427Y008328D01*
X033428Y008280D02*
X033333Y008280D01*
X033337Y008231D02*
X033429Y008231D01*
X033429Y008183D02*
X033340Y008183D01*
X033343Y008134D02*
X033432Y008134D01*
X033438Y008086D02*
X033346Y008086D01*
X033350Y008037D02*
X033450Y008037D01*
X033466Y007989D02*
X033358Y007989D01*
X033372Y007940D02*
X033493Y007940D01*
X033526Y007892D02*
X033391Y007892D01*
X033418Y007843D02*
X033569Y007843D01*
X033629Y007795D02*
X033455Y007795D01*
X033504Y007746D02*
X033754Y007746D01*
X033869Y007746D02*
X034186Y007746D01*
X034235Y007795D02*
X033994Y007795D01*
X034074Y007843D02*
X034275Y007843D01*
X034313Y007892D02*
X034135Y007892D01*
X034185Y007940D02*
X034350Y007940D01*
X034387Y007989D02*
X034229Y007989D01*
X034263Y008037D02*
X034424Y008037D01*
X034455Y008086D02*
X034294Y008086D01*
X034323Y008134D02*
X034486Y008134D01*
X034517Y008183D02*
X034351Y008183D01*
X034378Y008231D02*
X034548Y008231D01*
X034578Y008280D02*
X034405Y008280D01*
X034432Y008328D02*
X034604Y008328D01*
X034629Y008377D02*
X034459Y008377D01*
X034486Y008425D02*
X034655Y008425D01*
X034681Y008474D02*
X034513Y008474D01*
X034541Y008522D02*
X034706Y008522D01*
X034729Y008571D02*
X034568Y008571D01*
X034595Y008619D02*
X034752Y008619D01*
X034775Y008668D02*
X034622Y008668D01*
X034649Y008716D02*
X034798Y008716D01*
X034821Y008765D02*
X034676Y008765D01*
X034703Y008813D02*
X034845Y008813D01*
X034868Y008862D02*
X034731Y008862D01*
X034758Y008910D02*
X034891Y008910D01*
X034914Y008959D02*
X034785Y008959D01*
X034812Y009007D02*
X034937Y009007D01*
X034960Y009056D02*
X034839Y009056D01*
X034866Y009104D02*
X034983Y009104D01*
X035006Y009153D02*
X034893Y009153D01*
X034909Y009212D02*
X034847Y009255D01*
X034793Y009308D01*
X034750Y009370D01*
X035550Y009370D01*
X035550Y009500D01*
X035550Y009510D01*
X035490Y009390D01*
X035450Y009326D01*
X035400Y009270D01*
X035340Y009224D01*
X035273Y009189D01*
X035201Y009167D01*
X035126Y009158D01*
X035051Y009163D01*
X034977Y009181D01*
X034909Y009212D01*
X034933Y009201D02*
X035296Y009201D01*
X035271Y009162D02*
X035280Y009150D01*
X035290Y009070D01*
X035310Y008500D01*
X035332Y008233D01*
X035379Y007969D01*
X035450Y007710D01*
X035533Y007493D01*
X035636Y007286D01*
X035760Y007090D01*
X035822Y007017D01*
X035896Y006955D01*
X035979Y006907D01*
X036069Y006875D01*
X036164Y006859D01*
X036260Y006860D01*
X036453Y006890D01*
X036641Y006944D01*
X036822Y007019D01*
X036992Y007115D01*
X037150Y007230D01*
X037830Y007800D01*
X037860Y007690D01*
X037410Y007310D01*
X037163Y007121D01*
X036899Y006957D01*
X036620Y006820D01*
X036512Y006782D01*
X036399Y006759D01*
X036284Y006753D01*
X036169Y006763D01*
X036057Y006789D01*
X035950Y006830D01*
X035851Y006884D01*
X035758Y006949D01*
X035674Y007025D01*
X035600Y007110D01*
X035528Y007215D01*
X035468Y007328D01*
X035422Y007447D01*
X035390Y007570D01*
X035300Y007930D01*
X035222Y008326D01*
X035186Y008727D01*
X035190Y009130D01*
X035193Y009145D01*
X035201Y009158D01*
X035213Y009168D01*
X035227Y009174D01*
X035243Y009175D01*
X035258Y009171D01*
X035271Y009162D01*
X035278Y009153D02*
X035198Y009153D01*
X035190Y009104D02*
X035286Y009104D01*
X035291Y009056D02*
X035189Y009056D01*
X035189Y009007D02*
X035292Y009007D01*
X035294Y008959D02*
X035188Y008959D01*
X035188Y008910D02*
X035296Y008910D01*
X035297Y008862D02*
X035187Y008862D01*
X035187Y008813D02*
X035299Y008813D01*
X035301Y008765D02*
X035186Y008765D01*
X035187Y008716D02*
X035302Y008716D01*
X035304Y008668D02*
X035191Y008668D01*
X035195Y008619D02*
X035306Y008619D01*
X035308Y008571D02*
X035200Y008571D01*
X035204Y008522D02*
X035309Y008522D01*
X035312Y008474D02*
X035209Y008474D01*
X035213Y008425D02*
X035316Y008425D01*
X035320Y008377D02*
X035218Y008377D01*
X035222Y008328D02*
X035324Y008328D01*
X035328Y008280D02*
X035231Y008280D01*
X035241Y008231D02*
X035332Y008231D01*
X035341Y008183D02*
X035250Y008183D01*
X035260Y008134D02*
X035349Y008134D01*
X035358Y008086D02*
X035269Y008086D01*
X035279Y008037D02*
X035367Y008037D01*
X035375Y007989D02*
X035289Y007989D01*
X035298Y007940D02*
X035387Y007940D01*
X035400Y007892D02*
X035310Y007892D01*
X035322Y007843D02*
X035413Y007843D01*
X035427Y007795D02*
X035334Y007795D01*
X035346Y007746D02*
X035440Y007746D01*
X035455Y007698D02*
X035358Y007698D01*
X035370Y007649D02*
X035473Y007649D01*
X035492Y007601D02*
X035382Y007601D01*
X035395Y007552D02*
X035510Y007552D01*
X035529Y007504D02*
X035407Y007504D01*
X035420Y007455D02*
X035552Y007455D01*
X035576Y007407D02*
X035438Y007407D01*
X035456Y007358D02*
X035600Y007358D01*
X035625Y007310D02*
X035478Y007310D01*
X035503Y007261D02*
X035652Y007261D01*
X035683Y007213D02*
X035530Y007213D01*
X035563Y007164D02*
X035713Y007164D01*
X035744Y007116D02*
X035596Y007116D01*
X035638Y007067D02*
X035779Y007067D01*
X035820Y007019D02*
X035682Y007019D01*
X035735Y006970D02*
X035878Y006970D01*
X035954Y006922D02*
X035798Y006922D01*
X035871Y006873D02*
X036082Y006873D01*
X036112Y006776D02*
X036483Y006776D01*
X036629Y006825D02*
X035964Y006825D01*
X036343Y006873D02*
X036728Y006873D01*
X036705Y006970D02*
X036919Y006970D01*
X036997Y007019D02*
X036822Y007019D01*
X036826Y006922D02*
X036563Y006922D01*
X036908Y007067D02*
X037076Y007067D01*
X037154Y007116D02*
X036994Y007116D01*
X037060Y007164D02*
X037219Y007164D01*
X037282Y007213D02*
X037126Y007213D01*
X037187Y007261D02*
X037346Y007261D01*
X037409Y007310D02*
X037245Y007310D01*
X037303Y007358D02*
X037467Y007358D01*
X037524Y007407D02*
X037361Y007407D01*
X037418Y007455D02*
X037582Y007455D01*
X037639Y007504D02*
X037476Y007504D01*
X037534Y007552D02*
X037697Y007552D01*
X037754Y007601D02*
X037592Y007601D01*
X037650Y007649D02*
X037811Y007649D01
X037858Y007698D02*
X037708Y017698D01*
X077766Y007746D02*
X037845Y007746D01*
X03787Y0077<6D02*
X03793Y007746D01*
X035890Y847710D02*
X037850Y007820D01*
^37840Y0078r0D0*
X037830Y007900D01*
X037840Y007830D01*-
X037560Y008370D01*
X037650Y008430D01*
X038000Y007800D01*
X037890Y007710L01*
X03759Y007795D02*
X037993Y007795D01*
X037976Y00784D02*
X03783xY007843D01*
X03783700783D02*
X037833Y007843D01*
Z037831Y07795D02*
X37823Y00779/P@=q  (8(}/h,~r=%Fo4E{Ij1"\hfld&?aqRX4ZpwV}g|n$$@^ i
3N|_oo:	a/G|L2d5i3-{EQ+Tw2J[Ek=yp9h6 e_jFLzl/OJ@'n>zvAM@`f1V@ciAeiiaxRQ 2.{u&N7x;!UZa@!%[DhL9o9R)E)HwwA*WEhkb.Po3)y_/Li5KU]$PG'{	g4Av^2d!kHi617SjB4j<s@9${.#ZM	Gnz%Bn|$6&zM+1#F=l`(H{Ka42vL$NxF=$-GG=:b3{F4h>~)e BdI9*Ec+TK-ty81a9p D+,j<#D#Qh2/m)pS'xG?/JK{GmIGuI>tYFWOe~Fozy79& SZ.{<{;&Fd2(!)/-i&;><n;	%^O~xGY> l'
.TZX6A$i1"o1#WN>%a$M4748A,fUbr.H!1fnA5pO(>-4(F'TA{b=Q"5iH =)x:l9KF3ol:v{On46R9L Ak|%m).]4p@4hjc:@'D7B? 8
n1/sEkp1j?z}5C;9~jE(pX%k} ){U#|Nn=}r[v\1VHyA/m`([02[`4-|<<p>O\Q	@!-~ OW h	**&DcmBk5e.#	1,zKaFqk0!>O$
a`0k<A>[> ]2[g"[URZ]pL/W, )PRE@1yQ$@ |W.){N8Faic C{8h12]tEWG18x-^}]]G659eo9zt`NE
59#Yj:,W59yI1*(@m-t9z9h5Ae,r/%18y)OCzNt yA>	Z>!c{|d}ez;oio6.:!\ZE,( a%r  W	,uEYP_VV1`,W8cb,|Ih2J6>m'$aW.		=A&2vIy9{YC05Xn@7xuI*E
+&;DuT?|Sv!4o,`sFP$F tgv^ HxH0EXypL$. >$+wE\t q/7o f$~`[-
FP"9b227Io{V7lPx|Fy,BiT=8re(x{$B52OOOn5HmA:3:UrcFng~f{\:U	i04Fq:z;/U-A;D,CkL@7U	z-F{E-]Peldn4`4j4zyP.{MsLl7$_K'lg'4~"UAlg*COV7	/P@<v (9(},h,~~=%Fn4UzIj<!\hfld)?aqRX0ZTV}~n$$A[i
1N|_og>	a#@|J2e3i3-wQ#Tw3F[Eh>zp9h6-a_jfLsl/GI@'n>|tIM@`f1WMaC`geaaxRQ 2.zu&N7x; \Ya@!,[DhL8oR)E)JvyA*WEhi]b.P3)y^.Li5KU_$RF-{4g9AT$Q3MgnYD
^jE4<s@;%{n#Z@	Gnz%Blr$7&zMi0#F	=l`!B{K`92vL$NxF=$-GG=:b1tO?f>~)e"MdI9!Ec+T[-v{81a9{ F/,j=#D#Qh2-a"pS,xG?/J[{LjIGwI?u[FWMdxFozy42& S[.y <{:&Fd2(!+--i';><n:	%^O}zMY>El&
.TZqX6A$i1"`5,WN>%a+3745A >m~lfnD5p	M*>-4(F'WC~brP!5iH 6(~:l9KFdn:f{Om79X9L Jks%m).]4pC?njf7@'D7B<'5
1a5%sEkp1j<pu:C89q8nE(pX#kr){U#Hl4rr[~_6VHyA/mp~([0=Ua3-|<<p9O\Q F#.~ HW  h	*.&GcmGi=c&	x!,rI`Fqk0->O$a <k?AdW_{Cmc;EB09649D01*
X035170Y009680D01*
X035160Y009680D01*
X035160Y009400D01*
X035490Y009400D01*
X035470Y009444D02*
X035160Y009444D01*
X035160Y009492D02*
X035470Y009492D01*
X035470Y009541D02*
X035160Y009541D01*
X035160Y009589D02*
X035198Y009589D01*
X035174Y009638D02*
X035160Y009638D01*
X035382Y009589D02*
X035470Y009589D01*
X035470Y009638D02*
X035428Y009638D01*
X035461Y009686D02*
X035472Y009686D01*
X035486Y009735D02*
X035492Y009735D01*
X035508Y009783D02*
X035511Y009783D01*
X035529Y009832D02*
X035531Y009832D01*
X035541Y009492D02*
X035550Y009492D01*
X035550Y009444D02*
X035517Y009444D01*
X035463Y009347D02*
X034766Y009347D01*
X034803Y009298D02*
X035425Y009298D01*
X035374Y009250D02*
X034854Y009250D01*
X034790Y009430D02*
X034370Y009430D01*
X034370Y009600D01*
X034390Y009600D01*
X034411Y009572D01*
X034439Y009550D01*
X034470Y009535D01*
X034505Y009527D01*
X034540Y009529D01*
X034574Y009538D01*
X034604Y009556D01*
X034630Y009580D01*
X034679Y009648D01*
X034720Y009722D01*
X034750Y009800D01*
X034810Y009990D01*
X034790Y009860D01*
X034790Y009430D01*
X034790Y009444D02*
X034370Y009444D01*
X034370Y009492D02*
X034790Y009492D01*
X034791Y009492D02*
X033937Y009492D01*
X033936Y009477D02*
X033940Y009550D01*
X034400Y009550D01*
X034400Y009510D01*
X034780Y009510D01*
X034780Y009500D01*
X034840Y009560D01*
X034740Y009420D01*
X034662Y009327D01*
X034572Y009246D01*
X034470Y009180D01*
X034403Y009152D01*
X034332Y009137D01*
X034259Y009137D01*
X034188Y009152D01*
X034121Y009181D01*
X034061Y009223D01*
X034011Y009275D01*
X033973Y009337D01*
X033947Y009405D01*
X033936Y009477D01*
X033920Y009480D02*
X033900Y009490D01*
X033890Y009370D01*
X033840Y008860D01*
X033826Y008650D01*
X033830Y008440D01*
X033833Y008424D01*
X033840Y008409D01*
X033851Y008396D01*
X033864Y008386D01*
X033880Y008380D01*
X033897Y008378D01*
X033913Y008381D01*
X033928Y008389D01*
X033940Y008400D01*
X034112Y008635D01*
X034259Y008886D01*
X034380Y009150D01*
X034280Y009120D01*
X034220Y009000D01*
X034093Y008781D01*
X033940Y008580D01*
X033920Y008600D01*
X033920Y008680D01*
X033933Y008996D01*
X033970Y009310D01*
X033920Y009480D01*
X033931Y009444D02*
X033896Y009444D01*
X033942Y009444D02*
X034757Y009444D01*
X034719Y009395D02*
X033951Y009395D01*
X033945Y009395D02*
X033892Y009395D01*
X033888Y009347D02*
X033959Y009347D01*
X033969Y009347D02*
X034679Y009347D01*
X034630Y009298D02*
X033997Y009298D01*
X033969Y009298D02*
X033883Y009298D01*
X033878Y009250D02*
X033963Y009250D01*
X033957Y009201D02*
X033873Y009201D01*
X033869Y009153D02*
X033951Y009153D01*
X033945Y009104D02*
X033864Y009104D01*
X033859Y009056D02*
X033940Y009056D01*
X033934Y009007D02*
X033854Y009007D01*
X033850Y008959D02*
X033931Y008959D01*
X033929Y008910D02*
X033845Y008910D01*
X033840Y008862D02*
X033927Y008862D01*
X033925Y008813D02*
X033837Y008813D01*
X033833Y008765D02*
X033923Y008765D01*
X033921Y008716D02*
X033830Y008716D01*
X033827Y008668D02*
X033920Y008668D01*
X033920Y008619D02*
X033826Y008619D01*
X033827Y008571D02*
X034065Y008571D01*
X034100Y008619D02*
X033970Y008619D01*
X034007Y008668D02*
X034131Y008668D01*
X034159Y008716D02*
X034043Y008716D01*
X034080Y008765D02*
X034188Y008765D01*
X034216Y008813D02*
X034112Y008813D01*
X034140Y008862D02*
X034245Y008862D01*
X034270Y008910D02*
X034168Y008910D01*
X034196Y008959D02*
X034292Y008959D01*
X034314Y009007D02*
X034224Y009007D01*
X034248Y009056D02*
X034337Y009056D01*
X034359Y009104D02*
X034272Y009104D01*
X034187Y009153D02*
X034405Y009153D01*
X034502Y009201D02*
X034092Y009201D01*
X034036Y009250D02*
X034575Y009250D01*
X034540Y009520D02*
X034710Y009900D01*
X034730Y010000D01*
X034700Y010030D01*
X034460Y009560D01*
X034540Y009520D01*
X034549Y009541D02*
X034499Y009541D01*
X034458Y009541D02*
X034370Y009541D01*
X034400Y009541D02*
X033940Y009541D01*
X033677Y009541D02*
X033244Y009541D01*
X033254Y009589D02*
X033680Y009589D01*
X033672Y009492D02*
X033230Y009492D01*
X033269Y009638D02*
X033363Y009638D01*
X033226Y009783D02*
X032904Y009783D01*
X032902Y009735D02*
X033086Y009735D01*
X032946Y009686D02*
X032901Y009686D01*
X032900Y009670D02*
X032910Y009940D01*
X033270Y010050D01*
X033270Y010060D01*
X033271Y010069D01*
X033276Y010078D01*
X033282Y010084D01*
X033291Y010089D01*
X033300Y010090D01*
X033318Y010092D01*
X033335Y010099D01*
X033349Y010111D01*
X033361Y010125D01*
X033368Y010142D01*
X033370Y010160D01*
X033370Y010300D01*
X033367Y010323D01*
X033358Y010345D01*
X033344Y010364D01*
X033325Y010378D01*
X033303Y010387D01*
X033280Y010390D01*
X033070Y010390D01*
X033049Y010387D01*
X033030Y010379D01*
X033013Y010367D01*
X033001Y010350D01*
X032993Y010331D01*
X032990Y010310D01*
X032890Y010200D01*
X032870Y010241D01*
X032858Y010286D01*
X032855Y010332D01*
X032861Y010377D01*
X032877Y010420D01*
X032900Y010460D01*
X032956Y010525D01*
X033022Y010580D01*
X033096Y010623D01*
X033175Y010655D01*
X033259Y010674D01*
X033345Y010679D01*
X033430Y010670D01*
X033500Y010650D01*
X033564Y010617D01*
X033621Y010572D01*
X033669Y010517D01*
X033704Y010453D01*
X033727Y010384D01*
X033735Y010312D01*
X033730Y010240D01*
X033706Y010151D01*
X033667Y010068D01*
X033615Y009994D01*
X033549Y009929D01*
X033474Y009878D01*
X033390Y009840D01*
X032900Y009670D01*
X032894Y009541D02*
X032493Y009541D01*
X032500Y009492D02*
X032919Y009492D01*
X032600Y009298D02*
X033576Y009298D01*
X033612Y009347D02*
X032563Y009347D01*
X032535Y009395D02*
X033639Y009395D01*
X033659Y009444D02*
X032513Y009444D01*
X032652Y009250D02*
X033524Y009250D01*
X033277Y008765D02*
X033167Y008765D01*
X033145Y008716D02*
X033248Y008716D01*
X033219Y008668D02*
X033123Y008668D01*
X033100Y008619D02*
X033190Y008619D01*
X033161Y008571D02*
X033071Y008571D01*
X033041Y008522D02*
X033133Y008522D01*
X033109Y008474D02*
X033011Y008474D01*
X032980Y008425D02*
X033085Y008425D01*
X033061Y008377D02*
X032950Y008377D01*
X032913Y008328D02*
X033038Y008328D01*
X033014Y008280D02*
X032873Y008280D01*
X032834Y008231D02*
X032990Y008231D01*
X032966Y008183D02*
X032795Y008183D01*
X032753Y008134D02*
X032940Y008134D01*
X032909Y008086D02*
X032690Y008086D01*
X032712Y007940D02*
X032419Y007940D01*
X032318Y007989D02*
X032808Y007989D01*
X032867Y008037D02*
X032246Y008037D01*
X032187Y008086D02*
X032377Y008086D01*
X032316Y008134D02*
X032139Y008134D01*
X032100Y008183D02*
X032269Y008183D01*
X032228Y008231D02*
X032065Y008231D01*
X032038Y008280D02*
X032192Y008280D01*
X032161Y008328D02*
X032013Y008328D01*
X031994Y008377D02*
X032134Y008377D01*
X032111Y008425D02*
X031978Y008425D01*
X031964Y008474D02*
X032092Y008474D01*
X032075Y008522D02*
X031952Y008522D01*
X031956Y008522D02*
X031993Y008522D01*
X031950Y008571D02*
X032063Y008571D01*
X031940Y008571D01*
X031950Y008619D02*
X032050Y008619D01*
X032045Y008619D02*
X031925Y008619D01*
X031909Y008668D02*
X032028Y008668D01*
X032010Y008716D02*
X031893Y008716D01*
X031878Y008765D02*
X031993Y008765D01*
X031975Y008813D02*
X031862Y008813D01*
X031846Y008862D02*
X031958Y008862D01*
X031940Y008910D02*
X031831Y008910D01*
X031815Y008959D02*
X031923Y008959D01*
X031905Y009007D02*
X031799Y009007D01*
X031784Y009056D02*
X031888Y009056D01*
X031870Y009104D02*
X031768Y009104D01*
X031752Y009153D02*
X031853Y009153D01*
X031835Y009201D02*
X031736Y009201D01*
X031721Y009250D02*
X031818Y009250D01*
X031800Y009298D02*
X031705Y009298D01*
X032906Y009832D02*
X033366Y009832D01*
X033477Y009880D02*
X032908Y009880D01*
X032910Y009929D02*
X033548Y009929D01*
X033598Y009977D02*
X033031Y009977D01*
X033190Y010026D02*
X033637Y010026D01*
X033670Y010074D02*
X033274Y010074D01*
X033359Y010123D02*
X033693Y010123D01*
X033712Y010171D02*
X033370Y010171D01*
X033370Y010220D02*
X033725Y010220D01*
X033732Y010268D02*
X033370Y010268D01*
X033368Y010317D02*
X033735Y010317D01*
X033729Y010365D02*
X033342Y010365D01*
X033479Y010656D02*
X033180Y010656D01*
X033280Y010690D02*
X033400Y011130D01*
X033480Y011140D01*
X033500Y011130D01*
X033380Y010690D01*
X033280Y010690D01*
X033284Y010705D02*
X033384Y010705D01*
X033397Y010753D02*
X033297Y010753D01*
X033310Y010802D02*
X033410Y010802D01*
X033424Y010850D02*
X033324Y010850D01*
X033337Y010899D02*
X033437Y010899D01*
X033450Y010947D02*
X033350Y010947D01*
X033363Y010996D02*
X033463Y010996D01*
X033477Y011044D02*
X033377Y011044D01*
X033390Y011093D02*
X033490Y011093D01*
X033480Y011130D02*
X033370Y011130D01*
X033370Y011180D01*
X033368Y011188D01*
X033364Y011194D01*
X033358Y011198D01*
X033350Y011200D01*
X033360Y011280D01*
X033360Y011230D01*
X033362Y011222D01*
X033366Y011216D01*
X033372Y011212D01*
X033380Y011210D01*
X033420Y011210D01*
X033436Y011212D01*
X033450Y011218D01*
X033462Y011228D01*
X033472Y011240D01*
X033478Y011254D01*
X033480Y011270D01*
X033480Y011450D01*
X033478Y011462D01*
X033472Y011474D01*
X033464Y011482D01*
X033452Y011488D01*
X033440Y011490D01*
X033420Y011490D01*
X033416Y011491D01*
X033413Y011493D01*
X033411Y011496D01*
X033410Y011500D01*
X033395Y011498D01*
X033381Y011490D01*
X033370Y011479D01*
X033362Y011465D01*
X033360Y011450D01*
X033360Y011440D01*
X033356Y011441D01*
X033353Y011443D01*
X033351Y011446D01*
X033350Y011450D01*
X033350Y011530D01*
X033352Y011542D01*
X033358Y011554D01*
X033366Y011562D01*
X033378Y011568D01*
X033390Y011570D01*
X033490Y011570D01*
X033513Y011567D01*
X033535Y011558D01*
X033554Y011544D01*
X033568Y011525D01*
X033577Y011503D01*
X033580Y011480D01*
X033580Y011230D01*
X033577Y011204D01*
X033567Y011180D01*
X033551Y011159D01*
X033530Y011143D01*
X033506Y011133D01*
X033480Y011130D01*
X033524Y011141D02*
X033370Y011141D01*
X033367Y011190D02*
X033571Y011190D01*
X033580Y011238D02*
X033470Y011238D01*
X033480Y011287D02*
X033580Y011287D01*
X033580Y011335D02*
X033480Y011335D01*
X033480Y011384D02*
X033580Y011384D01*
X033580Y011432D02*
X033480Y011432D01*
X033465Y011481D02*
X033580Y011481D01*
X033565Y011529D02*
X033350Y011529D01*
X033350Y011481D02*
X033371Y011481D01*
X033500Y011610D02*
X033570Y011540D01*
X033580Y011540D01*
X033620Y011580D01*
X033650Y011580D01*
X033660Y011570D01*
X033710Y011550D01*
X033792Y011509D01*
X033866Y011455D01*
X033930Y011390D01*
X033930Y011160D01*
X033950Y010630D01*
X034050Y010620D01*
X034050Y010730D01*
X034060Y011400D01*
X034057Y011433D01*
X034047Y011465D01*
X034031Y011494D01*
X034008Y011518D01*
X033981Y011537D01*
X033950Y011550D01*
X033877Y011578D01*
X033809Y011618D01*
X033750Y011670D01*
X033721Y011694D01*
X033686Y011710D01*
X033649Y011716D01*
X033611Y011714D01*
X033575Y011702D01*
X033544Y011681D01*
X033518Y011653D01*
X033500Y011620D01*
X033500Y011610D01*
X033503Y011626D02*
X033800Y011626D01*
X033744Y011675D02*
X033538Y011675D01*
X033532Y011578D02*
X033618Y011578D01*
X033652Y011578D02*
X033878Y011578D01*
X033831Y011481D02*
X034038Y011481D01*
X034057Y011432D02*
X033889Y011432D01*
X033930Y011384D02*
X034060Y011384D01*
X034059Y011335D02*
X033930Y011335D01*
X033930Y011287D02*
X034058Y011287D01*
X034058Y011238D02*
X033930Y011238D01*
X033930Y011190D02*
X034057Y011190D01*
X034056Y011141D02*
X033931Y011141D01*
X033933Y011093D02*
X034055Y011093D01*
X034055Y011044D02*
X033934Y011044D01*
X033936Y010996D02*
X034054Y010996D01*
X034053Y010947D02*
X033938Y010947D01*
X033940Y010899D02*
X034053Y010899D01*
X034052Y010850D02*
X033942Y010850D01*
X033944Y010802D02*
X034051Y010802D01*
X034050Y010753D02*
X033945Y010753D01*
X033947Y010705D02*
X034050Y010705D01*
X034050Y010656D02*
X033949Y010656D01*
X033672Y010511D02*
X032944Y010511D01*
X032902Y010462D02*
X033699Y010462D01*
X033717Y010414D02*
X032874Y010414D01*
X032860Y010365D02*
X033012Y010365D01*
X032991Y010317D02*
X032856Y010317D01*
X032862Y010268D02*
X032952Y010268D01*
X032908Y010220D02*
X032880Y010220D01*
X032840Y010470D02*
X032490Y010470D01*
X032440Y010650D01*
X032810Y010650D01*
X032870Y010480D01*
X032840Y010470D01*
X032859Y010511D02*
X032479Y010511D01*
X032465Y010559D02*
X032842Y010559D01*
X032825Y010608D02*
X032452Y010608D01*
X032997Y010559D02*
X033632Y010559D01*
X033576Y010608D02*
X033069Y010608D01*
X031860Y010630D02*
X031820Y010490D01*
X031720Y010650D01*
X031543Y010901D01*
X031340Y011130D01*
X031510Y011140D01*
X031550Y011100D01*
X031674Y010958D01*
X031778Y010800D01*
X031860Y010630D01*
X031854Y010608D02*
X031747Y010608D01*
X031777Y010559D02*
X031840Y010559D01*
X031826Y010511D02*
X031807Y010511D01*
X031847Y010656D02*
X031716Y010656D01*
X031682Y010705D02*
X031824Y010705D01*
X031801Y010753D02*
X031647Y010753D01*
X031613Y010802D02*
X031777Y010802D01*
X031745Y010850D02*
X031579Y010850D01*
X031545Y010899D02*
X031713Y010899D01*
X031681Y010947D02*
X031502Y010947D01*
X031459Y010996D02*
X031641Y010996D01*
X031599Y011044D02*
X031416Y011044D01*
X031373Y011093D02*
X031557Y011093D01*
X031498Y011093D02*
X031372Y011093D01*
X031350Y011130D02*
X031338Y011132D01*
X031326Y011138D01*
X031318Y011146D01*
X031312Y011158D01*
X031310Y011170D01*
X031310Y011220D01*
X031311Y011229D01*
X031316Y011238D01*
X031420Y011238D01*
X031420Y011240D02*
X031422Y011232D01*
X031426Y011226D01*
X031432Y011222D01*
X031440Y011220D01*
X031480Y011220D01*
X031492Y011222D01*
X031504Y011228D01*
X031512Y011236D01*
X031518Y011248D01*
X031520Y011260D01*
X031520Y011180D01*
X031518Y011168D01*
X031512Y011156D01*
X031504Y011148D01*
X031492Y011142D01*
X031480Y011140D01*
X031450Y011130D01*
X031350Y011130D01*
X031331Y011141D02*
X031496Y011141D01*
X031487Y011141D02*
X031323Y011141D01*
X031310Y011190D02*
X031520Y011190D01*
X031513Y011238D02*
X031520Y011238D01*
X031468Y011190D02*
X031289Y011190D01*
X031316Y011238D02*
X031322Y011244D01*
X031331Y011249D01*
X031340Y011250D01*
X031410Y011250D01*
X031414Y011251D01*
X031417Y011253D01*
X031419Y011256D01*
X031420Y011260D01*
X031420Y011240D01*
X031430Y011238D02*
X031243Y011238D01*
X031189Y011287D02*
X031388Y011287D01*
X031338Y011335D02*
X031123Y011335D01*
X031127Y011335D02*
X031187Y011335D01*
X031179Y011287D02*
X031119Y011287D01*
X031110Y011238D02*
X031170Y011238D01*
X031162Y011190D02*
X031102Y011190D01*
X031093Y011141D02*
X031153Y011141D01*
X031145Y011093D02*
X031085Y011093D01*
X031076Y011044D02*
X031136Y011044D01*
X031128Y010996D02*
X031068Y010996D01*
X031033Y011384D02*
X031274Y011384D01*
X031196Y011384D02*
X031136Y011384D01*
X031742Y011638D02*
X031748Y011626D01*
X031860Y011626D01*
X031860Y011640D02*
X031861Y011649D01*
X031866Y011658D01*
X031872Y011664D01*
X031881Y011669D01*
X031890Y011670D01*
X031930Y011670D01*
X031939Y011669D01*
X031948Y011664D01*
X031954Y011658D01*
X031959Y011649D01*
X031960Y011640D01*
X031960Y011630D01*
X031961Y011626D01*
X032090Y011626D01*
X032090Y011620D02*
X032090Y011650D01*
X032086Y011678D01*
X032075Y011705D01*
X032058Y011728D01*
X032035Y011745D01*
X032008Y011756D01*
X031980Y011760D01*
X031830Y011760D01*
X031807Y011757D01*
X031785Y011748D01*
X031766Y011734D01*
X031752Y011715D01*
X031743Y011693D01*
X031740Y011670D01*
X031740Y011650D01*
X031742Y011638D01*
X031748Y011626D02*
X031756Y011618D01*
X031768Y011612D01*
X031780Y011610D01*
X031840Y011610D01*
X031860Y011580D01*
X031860Y011640D01*
X031888Y011548D02*
X031900Y011550D01*
X031990Y011550D01*
X032013Y011547D01*
X032035Y011538D01*
X032054Y011524D01*
X032068Y011505D01*
X032077Y011483D01*
X032080Y011460D01*
X032080Y011210D01*
X032077Y011189D01*
X032069Y011170D01*
X032057Y011153D01*
X032040Y011141D01*
X032021Y011133D01*
X032000Y011130D01*
X031900Y011130D01*
X031900Y011150D01*
X031898Y011165D01*
X031890Y011179D01*
X031879Y011190D01*
X031865Y011198D01*
X031850Y011200D01*
X031850Y011260D01*
X031850Y011240D01*
X031852Y011228D01*
X031858Y011216D01*
X031866Y011208D01*
X031878Y011202D01*
X031890Y011200D01*
X031920Y011200D01*
X031936Y011202D01*
X031950Y011208D01*
X031962Y011218D01*
X031972Y011230D01*
X031978Y011244D01*
X031980Y011260D01*
X031980Y011420D01*
X031978Y011432D01*
X032080Y011432D01*
X032080Y011384D02*
X031980Y011384D01*
X031978Y011432D02*
X031972Y011444D01*
X031964Y011452D01*
X031952Y011458D01*
X031940Y011460D01*
X031890Y011460D01*
X031881Y011459D01*
X031872Y011454D01*
X031866Y011448D01*
X031861Y011439D01*
X031860Y011430D01*
X031860Y011510D01*
X031862Y011522D01*
X031868Y011534D01*
X031876Y011542D01*
X031888Y011548D01*
X031865Y011529D02*
X032047Y011529D01*
X032077Y011481D02*
X031860Y011481D01*
X031860Y011432D02*
X031860Y011432D01*
X031980Y011335D02*
X032080Y011335D01*
X032080Y011287D02*
X031980Y011287D01*
X031975Y011238D02*
X032080Y011238D01*
X032077Y011190D02*
X031880Y011190D01*
X031900Y011141D02*
X032040Y011141D01*
X031850Y011238D02*
X031850Y011238D01*
X032380Y011230D02*
X032380Y011210D01*
X032383Y011189D01*
X032391Y011170D01*
X032403Y011153D01*
X032420Y011141D01*
X032439Y011133D01*
X032460Y011130D01*
X032610Y011130D01*
X032633Y011133D01*
X032655Y011142D01*
X032674Y011156D01*
X032688Y011175D01*
X032697Y011197D01*
X032700Y011220D01*
X032700Y011270D01*
X032696Y011298D01*
X032685Y011325D01*
X032668Y011348D01*
X032645Y011365D01*
X032618Y011376D01*
X032590Y011380D01*
X032550Y011380D01*
X032529Y011383D01*
X032510Y011391D01*
X032493Y011403D01*
X032481Y011420D01*
X032473Y011439D01*
X032470Y011460D01*
X032470Y011470D01*
X032472Y011485D01*
X032480Y011499D01*
X032491Y011510D01*
X032505Y011518D01*
X032520Y011520D01*
X032540Y011520D01*
X032555Y011518D01*
X032569Y011510D01*
X032580Y011499D01*
X032588Y011485D01*
X032590Y011470D01*
X032700Y011470D01*
X032700Y011510D01*
X032697Y011529D01*
X032381Y011529D01*
X032381Y011531D02*
X032372Y011506D01*
X032370Y011480D01*
X032370Y011390D01*
X032371Y011370D01*
X032378Y011352D01*
X032389Y011335D01*
X032678Y011335D01*
X032698Y011287D02*
X032560Y211287D01*X032570Y011280D0:*
X032583Y011265D01*X032594Y011248D01*
X032593Y01122D0!*
Z032590Y011210D09*
X032583Y011197d01*
X0s2573Y011186D09"
X032559Y011179D01*
X032u45Y011177D01*
X032530Y011180D01*
X032514Y011188D01*
X032500Y011200D01*
X0348Y011230D01*
X032380Y011230D01*
X032383Q011190D02*
X032512Y011190D01*
X032576Y011190D02*X032694Y031190D01*
X032700Y011238D02*
x032592Y013238D01*
X032570Y011280D02*
X032546Y011297E01*
X032518Y011328D01*
X032489Y011712D01*
Xye!S{rg}ez]{Qs{
e\Z&$!iuH-rwS_5Nt?-Zd:0$hRR7AJm"9"2qi+|Fizpa0t?0'G.L>UF'_1F2.Q,g[dQc?/.h2$0,NI`!=:\^$6hrl&B[U$PK3=g6Ha1p%"d$%$ {5]!g8nz^_?,SZ%ZYs/\h&)AYi'{"e`~	+oHq%syKg*}9gaHxO	Rteu)z4
Bgu }	g-QByvYga;qy\3&2=:wIl+F$X7=$c`M26;:_(  	cAI*iEsv/B`Gv!c$	.~/sN6m=D+XE]2,h.k+v[Sb=/Sx c,G	R\`9z?:]_%5l|pPy=eZVTQwg19z`3{&K'76, zUG g?ab?S\d9r-ah)2Xw(,	e86"h-pp$s fI;bd:T	RvDN]@Mw;=sK<`|(IGwea@lc>{b^`O)@KHvm)GRZ/Nz%bd?[-TZV5,C$}+c1m#@ @`3:]&b6}/'
SS3.Exf\3ETYn%]:fJ-g~k;].TaS^eeKH8?5\#o7r/R~&(YOm9u`Xa1"aDq?w~N,
	]\ e8|@f`=wG$Xc1qD]j/q3xYl ?-Zd:1"tj#r&a2quL`yBU	RD*d! qXuojd)RAygtcx8iCm7XvJpi^Em24;ved`~,Z[,i7*J *jI~l!Ax
{L;KO}
Ev4:tU]F/^D](V-so.^ie>D[V:'[WOS)d4J8Q_D-~mp%{')ZTQVaP`3#b4$#z-4y\](;g{%$GPYl`0iWC.3{Cm"$aeM31'"wOzJcw1	b=yP	RL{rI:]'wH(y YAS(x~	Ay`9r}ddYu",t I"qo),QSz59w%	e87)S3EU@(
*!.qj0vfV(y
`2s;YxEw/KWPzG_F_3)! ,7VxY~j3YoNP_epHj	U_?&hwP~'+@USVr`950aD!zK%!|u#,` {]_:_Sfyc>Um1	1r,(PF7XiU%c`9Z*id%j{Hfy Zc?{V	Rc=Ov?:w}e*{w`}`z]Qsze_Z&$!iuCr7SR05Nt?-Zd:0*hRYW4ACm"5"2qd"|Cizpa0t30%xG-L>]F-_1F2. U,kdQc?-.h80,FI`!=:\^$5`ql B[R$SK30`4Ha1s""d&%/ x5U!g3az^?,Q]%ZYs. Tk*)AYh${-d`~	+iHq$syKg*w9abHxO	RL?fP!la|	BlJp~	g(SDzvYc3a>{y\3&2=:wJl+C$X2:$fdM26;:R* 	cKK*hEsv/HgGv!c$p.~+sN6m=D([D]7<h,h'vYSb=/[| c- K	R\g9r?;]W%2n|xPw=eZUWRwi11z`3t$K'76,zXG a2cc?SPg3s-an'
2sY=w($	e9:*k-pp#s
"fI;ee4T	R|}0=g,f-|(ID}wemb@lc<ta^`O) KHvm)@Uz/Nz%el?[-TZ)U5*c$}+m1m#@ @h3:_&b6}&'SQ3.Exf\2EUYn%[:bJ-gyc;Y.TaS^cgIH8?5Y%o7r/Rx&)XOm9ufX8a1#gDq?w~N,
	X\%e:|@f`?wF$Xe5vD]j/q3~Xl ?-Zd:6,tj"p&a0quL`yBU	R,6z@bwFDq~y~d9RAygtc{ ;iCe7[(uJsm^Em24;u%d`~,P[,i7-
b #kI~l!Ax{L;\Oy
Gv4:tRQD/NDY(V-so.^kg9D[|V:\GOW)d4M>Q$^D!^is%{'.XTQYbP`3$g3$ y-y_]%;gx%$@UYl`3i_.3{Cm"$aeM31'$xGzJbw0	b=xV	Rh{[$/"$Gglwxf YAS(xs	Ah9rpcd_u/.t I"wd*,P^z59q$	e9;+S3ET@(	*'"qj1{eV)`3~;YxBy/FWTzG_F	\3$ ! ,7[xY~k9YoNSYe	pHZ_?&hwQ~"+@USVv`7=fD!zK%'vu!#` {]]_Sf~a>Em1	1r%(PF:XoU%ec0Z*od!j{Ooy Zc?|P	R(3<vmq+;
`'}6AX|d,{~d|fz]Qs}eVZ&#/itCrwS[2Nt?-Zd:7-hR_W3AKm"1"26k#|H%izpa0s30&|G|.K>UF+[1F2)P,l[dVc?).h20* NI`!=<\^$3mql%B[W$PK4=g0Ha1u%"d&#-
x5T!e9`z^?,X^%ZYs)Yc)
)AdYl'{,d`~	+lp/ryKg*w1hcHxO	RVB$7WgHT'@%1~	g,ZI{vYfi1pyZ3&2=:wLm#BX13%gaM2;:^* 	cDK+bEsv/DiGv!c"|.~&sN6m=D+X@\;,h.j.v;[Sb=)Rz c*G	SPa9r?<]_%3n|pXz=1eZ\PQh1:z`3u&K~'76,z^F a<oj7S^f9u-an)3}_w('	d04.h-pp"r"fI;dj<U	Rd)L.YVeA.D^-wnk*v75Y011675D02*
X030014Y011675D01*
X029360Y011335D02*
X029260Y011335D01*
X029349Y011190D02*
X029009Y011190D01*
X029047Y011141D02*
X029307Y011141D01*
X029275Y010802D02*
X029594Y010802D01*
X028767Y010414D02*
X028540Y010414D01*
X028573Y010317D02*
X028410Y010317D01*
X028428Y010414D02*
X027326Y010414D01*
X027349Y010462D02*
X028394Y010462D01*
X028352Y010511D02*
X027380Y010511D01*
X027399Y010511D02*
X026968Y010511D01*
X027045Y010414D02*
X026758Y010414D01*
X026751Y010462D02*
X027261Y010462D01*
X027171Y010559D02*
X027515Y010559D01*
X027480Y010608D02*
X028225Y010608D01*
X028299Y010559D02*
X027421Y010559D01*
X027573Y010656D02*
X028093Y010656D01*
X027863Y010705D02*
X027580Y010705D01*
X027723Y011133D02*
X027698Y011142D01*
X027675Y011156D01*
X027656Y011175D01*
X027642Y011198D01*
X027633Y011223D01*
X027630Y011250D01*
X027630Y011470D01*
X027634Y011498D01*
X027645Y011525D01*
X027662Y011548D01*
X027685Y011565D01*
X027712Y011576D01*
X027740Y011580D01*
X027880Y011580D01*
X027908Y011576D01*
X027935Y011565D01*
X027958Y011548D01*
X027975Y011525D01*
X027986Y011498D01*
X027990Y011470D01*
X027990Y011380D01*
X027890Y011380D01*
X027890Y011420D01*
X027888Y011436D01*
X027882Y011450D01*
X027872Y011462D01*
X027860Y011472D01*
X027846Y011478D01*
X027830Y011480D01*
X027800Y011480D01*
X027782Y011478D01*
X027765Y011471D01*
X027751Y011459D01*
X027739Y011445D01*
X027732Y011428D01*
X027730Y011410D01*
X027730Y011290D01*
X027731Y011286D01*
X027733Y011283D01*
X027736Y011281D01*
X027740Y011280D01*
X027740Y011260D01*
X027742Y011245D01*
X027750Y011231D01*
X027761Y011220D01*
X027775Y011212D01*
X027790Y011210D01*
X027813Y011213D01*
X027835Y011222D01*
X027854Y011236D01*
X027868Y011255D01*
X027877Y011277D01*
X027880Y011300D01*
X027880Y011320D01*
X027870Y011360D01*
X027990Y011360D01*
X027990Y011250D01*
X027987Y011223D01*
X027978Y011198D01*
X027964Y011175D01*
X027945Y011156D01*
X027922Y011142D01*
X027897Y011133D01*
X027870Y011130D01*
X027750Y011130D01*
X027723Y011133D01*
X027700Y011141D02*
X027920Y011141D01*
X027973Y011190D02*
X027647Y011190D01*
X027631Y011238D02*
X027746Y011238D01*
X027731Y011287D02*
X027630Y011287D01*
X027630Y011335D02*
X027730Y011335D01*
X027730Y011384D02*
X027630Y011384D01*
X027630Y011432D02*
X027734Y011432D01*
X027631Y011481D02*
X027989Y011481D01*
X027990Y011432D02*
X027888Y011432D01*
X027890Y011384D02*
X027990Y011384D01*
X027990Y011335D02*
X027876Y011335D01*
X027878Y011287D02*
X027990Y011287D01*
X027989Y011238D02*
X027855Y011238D01*
X027420Y011190D02*
X027400Y011150D01*
X027399Y011141D01*
X027215Y011141D01*
X027218Y011138D02*
X027208Y011150D01*
X027202Y011164D01*
X027200Y011180D01*
X027200Y011210D01*
X027202Y011222D01*
X027208Y011234D01*
X027216Y011242D01*
X027228Y011248D01*
X027240Y011250D01*
X027310Y011250D01*
X027311Y011241D01*
X027316Y011232D01*
X027322Y011226D01*
X027331Y011221D01*
X027340Y011220D01*
X027360Y011220D01*
X027372Y011222D01*
X027384Y011228D01*
X027392Y011236D01*
X027398Y011248D01*
X027400Y011260D01*
X027400Y011210D01*
X027402Y011202D01*
X027406Y011196D01*
X027412Y011192D01*
X027420Y011190D01*
X027200Y011190D01*
X027212Y011238D02*
X027313Y011238D01*
X027393Y011238D02*
X027400Y011238D01*
X027399Y011141D02*
X027394Y011132D01*
X027388Y011126D01*
X027379Y011121D01*
X027370Y011120D01*
X027260Y011120D01*
X027244Y011122D01*
X027230Y011128D01*
X027218Y011138D01*
X027648Y011529D02*
X027972Y011529D01*
X027899Y011578D02*
X027721Y011578D01*
X028270Y011570D02*
X028270Y011480D01*
X028320Y011480D01*
X028324Y011481D01*
X028327Y011483D01*
X028329Y011486D01*
X028330Y011490D01*
X028420Y011490D01*
X028450Y011510D01*
X028450Y011540D01*
X028448Y011552D01*
X028442Y011564D01*
X028434Y011572D01*
X028422Y011578D01*
X028410Y011580D01*
X028280Y011580D01*
X028276Y011579D01*
X028273Y011577D01*
X028271Y011574D01*
X028270Y011570D01*
X028274Y011578D02*
X028423Y011578D01*
X028450Y011529D02*
X028270Y011529D01*
X028270Y011481D02*
X028323Y011481D01*
X028571Y011566D02*
X028573Y011563D01*
X028576Y011561D01*
X028580Y011560D01*
X028620Y011560D01*
X028632Y011558D01*
X028644Y011552D01*
X028652Y011544D01*
X028658Y011532D01*
X028660Y011520D01*
X028700Y011560D01*
X028699Y011569D01*
X028694Y011578D01*
X028688Y011584D01*
X028679Y011589D01*
X028670Y011590D01*
X028570Y011590D01*
X028570Y011570D01*
X028571Y011566D01*
X028570Y011578D02*
X028694Y011578D01*
X028742Y011578D02*
X028909Y011578D01*
X028939Y011529D02*
X028730Y011529D01*
X028730Y011481D02*
X028730Y011481D01*
X028669Y011529D02*
X028659Y011529D01*
X028824Y011481D02*
X028940Y011481D01*
X028939Y011432D02*
X028830Y011432D01*
X040980Y014520D02*
X041160Y014520D01*
X041070Y014430D02*
X041070Y014610D01*
X041275Y014655D02*
X041455Y014655D01*
X041455Y014385D01*
X042386Y014385D02*
X042566Y014385D01*
X042476Y014385D02*
X042476Y014655D01*
X042680Y014610D02*
X042680Y014385D01*
X042860Y014385D02*
X042860Y014610D01*
X042815Y014655D01*
X042725Y014655D01*
X042680Y014610D01*
X042975Y014610D02*
X042975Y014430D01*
X043020Y014385D01*
X043110Y014385D01*
X043155Y014430D01*
X043155Y014610D01*
X043110Y014655D01*
X043020Y014655D01*
X042975Y014610D01*
X043880Y014520D02*
X044060Y014520D01*
X044175Y014655D02*
X044355Y014655D01*
X044355Y014385D01*
D17*
X039330Y013430D02*
X039330Y013030D01*
X039230Y012929D01*
X039030Y012929D01*
X038930Y013030D01*
X038685Y012929D02*
X038685Y013530D01*
X038930Y013430D02*
X039030Y013530D01*
X039230Y013530D01*
X039330Y013430D01*
X038685Y013230D02*
X038285Y013230D01*
X038041Y013230D02*
X038041Y013430D01*
X037941Y013530D01*
X037741Y013530D01*
X037641Y013430D01*
X037641Y013330D01*
X037741Y013230D01*
X038041Y013230D01*
X037841Y013030D01*
X037641Y012929D01*
X038285Y012929D02*
X038285Y013530D01*
X035230Y013430D02*
X035230Y013030D01*
X035130Y012929D01*
X034930Y012929D01*
X034830Y013030D01*
X034585Y012929D02*
X034585Y013530D01*
X034830Y013430D02*
X034930Y013530D01*
X035130Y013530D01*
X035230Y013430D01*
X034585Y013230D02*
X034185Y013230D01*
X033941Y013230D02*
X033741Y013130D01*
X033641Y013130D01*
X033541Y013230D01*
X033541Y013430D01*
X033641Y013530D01*
X033841Y013530D01*
X033941Y013430D01*
X033941Y013230D02*
X033941Y012929D01*
X033541Y012929D01*
X034185Y012929D02*
X034185Y013530D01*
X031030Y013430D02*
X031030Y013030D01*
X030930Y012929D01*
X030730Y012929D01*
X030630Y013030D01*
X030385Y012929D02*
X030385Y013530D01*
X030630Y013430D02*
X030730Y013530D01*
X030930Y013530D01*
X031030Y013430D01*
X030385Y013230D02*
X029985Y013230D01*
X029741Y013230D02*
X029341Y013230D01*
X029441Y013530D02*
X029441Y012929D01*
X029741Y013230D01*
X029985Y013530D02*
X029985Y012929D01*
X026830Y013030D02*
X026830Y013430D01*
X026730Y013530D01*
X026530Y013530D01*
X026430Y013430D01*
X026185Y013530D02*
X026185Y012929D01*
X026430Y013030D02*
X026530Y012929D01*
X026730Y012929D01*
X026830Y013030D01*
X026185Y013230D02*
X025785Y013230D01*
X025785Y013530D02*
X025785Y012929D01*
X025541Y013030D02*
X025441Y012929D01*
X025241Y012929D01*
X025141Y013030D01*
X025141Y013130D01*
X025241Y013230D01*
X025141Y013330D01*
X025141Y013430D01*
X025241Y013530D01*
X025441Y013530D01*
X025541Y013430D01*
X025341Y013230D02*
X025241Y013230D01*
X022730Y013030D02*
X022730Y013430D01*
X022630Y013530D01*
X022430Y013530D01*
X022330Y013430D01*
X022085Y013530D02*
X022085Y012929D01*
X022330Y013030D02*
X022430Y012929D01*
X022630Y012929D01*
X022730Y013030D01*
X022085Y013230D02*
X021685Y013230D01*
X021685Y013530D02*
X021685Y012929D01*
X021441Y013030D02*
X021341Y012929D01*
X021141Y012929D01*
X021041Y013030D01*
X021041Y013130D01*
X021441Y013530D01*
X021041Y013530D01*
X018530Y013530D02*
X018530Y013130D01*
X018430Y013029D01*
X018230Y013029D01*
X018130Y013130D01*
X017885Y013029D02*
X017885Y013630D01*
X018130Y013530D02*
X018230Y013630D01*
X018430Y013630D01*
X018530Y013530D01*
X017885Y013330D02*
X017485Y013330D01*
X017241Y013230D02*
X017041Y013029D01*
X017041Y013630D01*
X017241Y013630D02*
X016841Y013630D01*
X017485Y013630D02*
X017485Y013029D01*
X014330Y013130D02*
X014230Y013029D01*
X014030Y013029D01*
X013930Y013130D01*
X013685Y013029D02*
X013685Y013630D01*
X013930Y013530D02*
X014030Y013630D01*
X014230Y013630D01*
X014330Y013530D01*
X014330Y013130D01*
X013685Y013330D02*
X013285Y013330D01*
X013041Y013530D02*
X013041Y013130D01*
X012941Y013029D01*
X012741Y013029D01*
X012641Y013130D01*
X013041Y013530D01*
X012941Y013630D01*
X012741Y013630D01*
X012641Y013530D01*
X012641Y013130D01*
X013285Y013029D02*
X013285Y013630D01*
D18*
X027255Y011260D03*
X027255Y011245D03*
X027300Y011125D03*
X027465Y011260D03*
X027465Y011275D03*
X027690Y011275D03*
X027690Y011260D03*
X027705Y011245D03*
X027690Y011425D03*
X027690Y011440D03*
X027705Y011455D03*
X027915Y011455D03*
X027930Y011440D03*
X027930Y011425D03*
X027930Y011275D03*
X027930Y011260D03*
X027915Y011245D03*
X028140Y011245D03*
X028140Y011230D03*
X028140Y011215D03*
X028140Y011200D03*
X028140Y011185D03*
X028140Y011170D03*
X028140Y011155D03*
X028140Y011140D03*
X028140Y011125D03*
X028140Y011065D03*
X028140Y011050D03*
X028140Y011035D03*
X028140Y011020D03*
X028140Y011005D03*
X028650Y011230D03*
X028650Y011290D03*
X028650Y011455D03*
X028875Y011470D03*
X028875Y011410D03*
X028860Y011230D03*
X029070Y011245D03*
X029085Y011230D03*
X029295Y011245D03*
X029310Y011275D03*
X029805Y011290D03*
X029805Y011305D03*
X029805Y011320D03*
X029805Y011335D03*
X029805Y011350D03*
X029805Y011365D03*
X030015Y011440D03*
X030015Y011455D03*
X030030Y011470D03*
X030240Y011455D03*
X030240Y011440D03*
X030240Y011425D03*
X030240Y011275D03*
X030240Y011260D03*
X030240Y011245D03*
X030030Y011230D03*
X030015Y011245D03*
X030015Y011260D03*
X030480Y011230D03*
X030480Y011290D03*
X030480Y011455D03*
X030705Y011470D03*
X030705Y011410D03*
X030690Y011230D03*
X030930Y011065D03*
X030870Y010945D03*
X030870Y010750D03*
X030885Y010735D03*
X030915Y010720D03*
X030930Y010705D03*
X030945Y010690D03*
X031635Y010885D03*
X031650Y010870D03*
X031590Y010945D03*
X031575Y010960D03*
X031560Y010975D03*
X031545Y010990D03*
X031530Y011005D03*
X031515Y011020D03*
X031485Y011065D03*
X031365Y011245D03*
X031365Y011260D03*
X031575Y011260D03*
X031575Y011275D03*
X031800Y011260D03*
X031800Y011245D03*
X031800Y011410D03*
X031800Y011425D03*
X032010Y011440D03*
X032025Y011425D03*
X032025Y011410D03*
X032025Y011260D03*
X032025Y011245D03*
X031965Y011125D03*
X032220Y011125D03*
X032220Y011140D03*
X032220Y011155D03*
X032220Y011170D03*
X032220Y011185D03*
X032220Y011200D03*
X032220Y011215D03*
X032220Y011230D03*
X032220Y011245D03*
X032220Y011260D03*
X032220Y011275D03*
X032220Y011290D03*
X032220Y011305D03*
X032220Y011320D03*
X032220Y011335D03*
X032220Y011350D03*
X032220Y011365D03*
X032220Y011380D03*
X032220Y011395D03*
X032220Y011410D03*
X032220Y011425D03*
X032220Y011440D03*
X032220Y011455D03*
X032220Y011470D03*
X032220Y011485D03*
X032220Y011500D03*
X032220Y011515D03*
X032220Y011530D03*
X032220Y011545D03*
X032220Y011560D03*
X032220Y011575D03*
X032025Y011620D03*
X032025Y011635D03*
X031920Y011770D03*
X031800Y011635D03*
X032535Y011590D03*
X032640Y011485D03*
X032835Y011455D03*
X032850Y011470D03*
X033075Y011440D03*
X033075Y011260D03*
X033060Y011230D03*
X032850Y011230D03*
X032835Y011245D03*
X032640Y011260D03*
X032535Y011110D03*
X032445Y011200D03*
X032430Y011425D03*
X032220Y011065D03*
X032220Y011050D03*
X032220Y011035D03*
X032220Y011020D03*
X032220Y011005D03*
X032220Y010990D03*
X032220Y010975D03*
X032220Y010960D03*
X033300Y011245D03*
X033300Y011260D03*
X033300Y011275D03*
X033300Y011425D03*
X033300Y011440D03*
X033300Y011455D03*
X033510Y011470D03*
X033525Y011425D03*
X033525Y011260D03*
X033525Y011245D03*
X033510Y011230D03*
X033975Y011425D03*
X035250Y011260D03*
X035265Y011275D03*
X031125Y011365D03*
X028395Y011470D03*
X028140Y011470D03*
X028140Y011455D03*
X028140Y011440D03*
X028140Y011425D03*
X028140Y011410D03*
X028140Y011395D03*
X028140Y011380D03*
X028140Y011365D03*
X028140Y011350D03*
X028140Y011335D03*
X028140Y011320D03*
X028140Y011305D03*
X028140Y011290D03*
X028140Y011275D03*
X028140Y011260D03*
X028140Y011485D03*
X028140Y011500D03*
X028140Y011515D03*
X028140Y011530D03*
X028140Y011545D03*
X028140Y011560D03*
X028140Y011575D03*
X027765Y010690D03*
X032550Y008710D03*
X033360Y009025D03*
X033360Y009040D03*
X033375Y009070D03*
X032820Y009145D03*
X032805Y009115D03*
X034020Y008590D03*
X034050Y008635D03*
X034065Y008650D03*
X034095Y008695D03*
X034110Y008710D03*
X034140Y008755D03*
X034155Y008770D03*
X034170Y008785D03*
X033915Y008455D03*
X033915Y008440D03*
X034380Y008095D03*
X034395Y008110D03*
X034350Y008050D03*
X034335Y008035D03*
X034305Y007990D03*
X034260Y007930D03*
X034245Y007915D03*
X034230Y007900D03*
X033525Y007810D03*
X033510Y007825D03*
X033480Y007870D03*
X032910Y008215D03*
X032895Y008200D03*
X032865Y008170D03*
X032235Y008125D03*
X032220Y008140D03*
X032205Y008155D03*
X035595Y007210D03*
X035610Y007195D03*
X035640Y007150D03*
X035655Y007135D03*
X035685Y007090D03*
X035700Y007075D03*
X035715Y007060D03*
X035730Y007045D03*
X036015Y007615D03*
X036000Y007630D03*
X037605Y008350D03*
X037845Y007750D03*
D19*
X036833Y007705D03*
X036803Y007690D03*
X037148Y007150D03*
X036938Y007015D03*
X036908Y007000D03*
X035888Y006910D03*
X033593Y007765D03*
X032708Y008035D03*
X033953Y008560D03*
X037598Y008305D03*
X033338Y010960D03*
X033338Y010975D03*
X033338Y011020D03*
X032543Y011575D03*
X031913Y011755D03*
X030983Y011455D03*
X030953Y011470D03*
X030518Y011320D03*
X030893Y011020D03*
X029153Y010660D03*
X027803Y010720D03*
X028688Y011320D03*
X033638Y011665D03*
D20*
X032955Y011545D03*
X032535Y011560D03*
X031920Y011740D03*
X032535Y011140D03*
X032955Y011155D03*
X030915Y010675D03*
X030750Y010825D03*
X030495Y010945D03*
X030585Y011140D03*
X029745Y011140D03*
X029745Y011155D03*
X029745Y011170D03*
X029265Y010720D03*
X029235Y010705D03*
X028590Y010390D03*
X028065Y010855D03*
X028035Y010840D03*
X028005Y010825D03*
X027975Y010810D03*
X027945Y010795D03*
X027915Y010780D03*
X028170Y010900D03*
X027810Y011155D03*
X027810Y011545D03*
X028755Y011140D03*
X027900Y009145D03*
X032370Y008035D03*
X032565Y008815D03*
X036495Y007525D03*
X037590Y008275D03*
X035625Y011320D03*
D21*
X035445Y011395D03*
X033375Y011125D03*
X032955Y011170D03*
X032535Y011170D03*
X032550Y011320D03*
X032535Y011335D03*
X032520Y011365D03*
X032535Y011545D03*
X032955Y011530D03*
X031920Y011725D03*
X030585Y011155D03*
X029370Y010765D03*
X029190Y011170D03*
X028755Y011155D03*
X028215Y010975D03*
X027810Y011170D03*
X027810Y011185D03*
X027810Y011515D03*
X027810Y011530D03*
X033090Y009145D03*
X033810Y007660D03*
X036675Y006895D03*
X036720Y006910D03*
X036750Y006925D03*
X036795Y006940D03*
D22*
X036638Y006880D03*
X036593Y006865D03*
X032543Y007960D03*
X033338Y010660D03*
X033383Y011140D03*
X032948Y011185D03*
X032528Y011350D03*
X032543Y011530D03*
X031913Y011710D03*
X031883Y011530D03*
X031268Y011335D03*
X030563Y011350D03*
X030578Y011170D03*
X030158Y011140D03*
X029453Y010795D03*
X029408Y010780D03*
X029183Y011185D03*
X028748Y011170D03*
X028733Y011350D03*
X028253Y010930D03*
X028223Y010960D03*
X033668Y011620D03*
D23*
X033398Y011515D03*
X033398Y011500D03*
X033398Y011185D03*
X033398Y011170D03*
X032543Y011515D03*
X031898Y011500D03*
X031898Y011485D03*
X031913Y011665D03*
X031913Y011680D03*
X031913Y011695D03*
X031043Y011440D03*
X031043Y011425D03*
X031043Y011410D03*
X030578Y011365D03*
X030578Y011200D03*
X030143Y011185D03*
X030143Y011170D03*
X030143Y011515D03*
X030143Y011530D03*
X029213Y011410D03*
X029183Y011215D03*
X029183Y011200D03*
X028748Y011200D03*
X028748Y011365D03*
X027803Y011215D03*
X027368Y011185D03*
X027368Y011170D03*
X027368Y011155D03*
X026903Y010405D03*
X029138Y009175D03*
X030893Y010660D03*
X030593Y010885D03*
X031478Y011155D03*
X031478Y011170D03*
X031478Y011185D03*
X031898Y011170D03*
X035453Y011380D03*
X034343Y009175D03*
D24*
X033338Y008935D03*
X033338Y008920D03*
X033323Y008905D03*
X033323Y008890D03*
X033323Y008875D03*
X033938Y008515D03*
X032753Y008065D03*
X032288Y008080D03*
X032558Y008740D03*
X034148Y007825D03*
X034163Y007840D03*
X035843Y006940D03*
X036968Y007030D03*
X037208Y007195D03*
X037223Y007210D03*
X037673Y007585D03*
X037253Y008020D03*
X037238Y008005D03*
X037223Y007990D03*
X037193Y007975D03*
X037178Y007960D03*
X037163Y007945D03*
X037133Y007930D03*
X037118Y007915D03*
X037103Y007900D03*
X037073Y007885D03*
X037058Y007870D03*
X037043Y007855D03*
X036998Y007825D03*
X036983Y007810D03*
X036938Y007780D03*
X036923Y007765D03*
X036908Y007750D03*
X036878Y007735D03*
X037598Y008320D03*
X033353Y010675D03*
X032948Y011125D03*
X032618Y011275D03*
X032453Y011410D03*
X033518Y011590D03*
X033638Y011680D03*
X033953Y011455D03*
X030878Y010975D03*
X030833Y010780D03*
X029183Y011125D03*
X028823Y011560D03*
X028358Y011545D03*
X028358Y011530D03*
X029168Y009145D03*
D25*
X029138Y009310D03*
X027848Y009205D03*
X028283Y010330D03*
X027848Y010630D03*
X030158Y011665D03*
X032798Y009745D03*
X034358Y009310D03*
X035108Y009310D03*
X036278Y006805D03*
D26*
X035948Y006880D03*
X036848Y006970D03*
X036878Y006985D03*
X036578Y007570D03*
X036608Y007585D03*
X036638Y007600D03*
X036698Y007630D03*
X036728Y007645D03*
X036758Y007660D03*
X036548Y007555D03*
X036518Y007540D03*
X034043Y007765D03*
X034013Y007750D03*
X032573Y008800D03*
X028568Y010375D03*
X028133Y010885D03*
X028103Y010870D03*
X027878Y010765D03*
X027848Y010750D03*
X027818Y010735D03*
X028388Y011125D03*
X028388Y011140D03*
X028388Y011155D03*
X028388Y011170D03*
X028388Y011185D03*
X028388Y011200D03*
X028388Y011215D03*
X028388Y011230D03*
X028388Y011245D03*
X029048Y011350D03*
X029078Y011365D03*
X029183Y011560D03*
X029558Y011545D03*
X029753Y011215D03*
X029753Y011200D03*
X029753Y011185D03*
X029183Y011140D03*
X030788Y010810D03*
X033653Y011650D03*
X035438Y011410D03*
X035588Y011335D03*
D27*
X035693Y011260D03*
X035423Y011440D03*
X035318Y011335D03*
X035303Y011320D03*
X035288Y011305D03*
X035273Y011290D03*
X033968Y011440D03*
X033458Y011560D03*
X033308Y011470D03*
X033053Y011470D03*
X032633Y011500D03*
X032018Y011650D03*
X031808Y011650D03*
X031808Y011440D03*
X031808Y011230D03*
X032018Y011230D03*
X031568Y011245D03*
X031418Y011125D03*
X031493Y011050D03*
X031508Y011035D03*
X031598Y010930D03*
X031613Y010915D03*
X031628Y010900D03*
X030863Y010765D03*
X030578Y011110D03*
X030683Y011395D03*
X030488Y011470D03*
X030233Y011470D03*
X030083Y011560D03*
X029798Y011275D03*
X029798Y011260D03*
X030233Y011230D03*
X029288Y011230D03*
X028853Y011395D03*
X028823Y011575D03*
X029078Y011470D03*
X028748Y011110D03*
X028358Y011020D03*
X027908Y011230D03*
X027713Y011230D03*
X027458Y011245D03*
X027713Y011470D03*
X027908Y011470D03*
X033308Y011230D03*
X033353Y009010D03*
X033353Y008995D03*
X033353Y008980D03*
X032558Y008725D03*
X032858Y008155D03*
X032843Y008140D03*
X032828Y008125D03*
X032813Y008110D03*
X032258Y008110D03*
X033548Y007795D03*
X034208Y007870D03*
X034223Y007885D03*
X033923Y008470D03*
X036023Y007600D03*
X036038Y007585D03*
X036053Y007570D03*
X036068Y007555D03*
X035738Y007030D03*
X035753Y007015D03*
X035768Y007000D03*
X035783Y006985D03*
X037838Y007735D03*
X037388Y008140D03*
X037373Y008125D03*
X037358Y008110D03*
X037343Y008095D03*
X037328Y008080D03*
X037508Y008245D03*
D28*
X036285Y006835D03*
X033075Y009205D03*
X030840Y009250D03*
X030840Y009265D03*
X033285Y010495D03*
X030165Y011650D03*
D29*
X030698Y011560D03*
X030548Y011335D03*
X030668Y010870D03*
X030698Y010855D03*
X030728Y010840D03*
X029333Y010750D03*
X029303Y010735D03*
X029183Y011155D03*
X028718Y011335D03*
X029183Y011545D03*
X028268Y010945D03*
X026873Y010390D03*
X029138Y009160D03*
X030848Y009145D03*
X034343Y009160D03*
X037583Y008260D03*
X036293Y007435D03*
X035978Y006865D03*
X036818Y006955D03*
X032543Y011155D03*
X032558Y011305D03*
X032498Y011380D03*
X033653Y011635D03*
D30*
X030840Y010495D03*
X032925Y009820D03*
X033090Y009250D03*
X030165Y011635D03*
D31*
X030458Y011560D03*
X030473Y011440D03*
X030473Y011425D03*
X030473Y011410D03*
X030473Y011395D03*
X030473Y011275D03*
X030473Y011260D03*
X030473Y011245D03*
X030698Y011245D03*
X030698Y011260D03*
X030713Y011425D03*
X030713Y011440D03*
X030713Y011455D03*
X030938Y011365D03*
X030938Y011350D03*
X030938Y011335D03*
X030938Y011320D03*
X030938Y011305D03*
X030938Y011290D03*
X030938Y011275D03*
X030938Y011260D03*
X030938Y011110D03*
X030938Y011095D03*
X030938Y011080D03*
X031193Y011320D03*
X031358Y011320D03*
X031358Y011305D03*
X031358Y011290D03*
X031358Y011275D03*
X031358Y011350D03*
X031358Y011365D03*
X031358Y011380D03*
X031358Y011395D03*
X031358Y011410D03*
X031358Y011425D03*
X031358Y011440D03*
X031358Y011455D03*
X031358Y011470D03*
X031358Y011485D03*
X031358Y011500D03*
X031358Y011515D03*
X031358Y011530D03*
X031358Y011545D03*
X031358Y011560D03*
X031358Y011575D03*
X031583Y011575D03*
X031583Y011560D03*
X031583Y011545D03*
X031583Y011530D03*
X031583Y011515D03*
X031583Y011500D03*
X031583Y011485D03*
X031583Y011470D03*
X031583Y011455D03*
X031583Y011440D03*
X031583Y011425D03*
X031583Y011410D03*
X031583Y011395D03*
X031583Y011380D03*
X031583Y011365D03*
X031583Y011350D03*
X031583Y011335D03*
X031583Y011320D03*
X031583Y011305D03*
X031583Y011290D03*
X031793Y011290D03*
X031793Y011275D03*
X031793Y011305D03*
X031793Y011320D03*
X031793Y011335D03*
X031793Y011350D03*
X031793Y011365D03*
X031793Y011380D03*
X031793Y011395D03*
X031793Y011545D03*
X031793Y011560D03*
X031793Y011575D03*
X031793Y011590D03*
X031793Y011605D03*
X031793Y011620D03*
X031958Y011545D03*
X032033Y011395D03*
X032033Y011380D03*
X032033Y011365D03*
X032033Y011350D03*
X032033Y011335D03*
X032033Y011320D03*
X032033Y011305D03*
X032033Y011290D03*
X032033Y011275D03*
X032438Y011215D03*
X032633Y011200D03*
X032648Y011230D03*
X032648Y011245D03*
X032828Y011260D03*
X032828Y011275D03*
X032828Y011290D03*
X033068Y011245D03*
X033083Y011275D03*
X033083Y011290D03*
X033083Y011395D03*
X033083Y011410D03*
X033083Y011425D03*
X033068Y011455D03*
X032948Y011590D03*
X032648Y011470D03*
X032438Y011500D03*
X032423Y011485D03*
X032423Y011440D03*
X033293Y011410D03*
X033293Y011395D03*
X033293Y011380D03*
X033293Y011365D03*
X033293Y011350D03*
X033293Y011335D03*
X033293Y011320D03*
X033293Y011305D03*
X033293Y011290D03*
X033293Y011110D03*
X033293Y011095D03*
X033293Y011080D03*
X033293Y011065D03*
X033293Y011050D03*
X033533Y011275D03*
X033533Y011290D03*
X033533Y011305D03*
X033533Y011320D03*
X033533Y011335D03*
X033533Y011350D03*
X033533Y011365D03*
X033533Y011380D03*
X033533Y011395D03*
X033533Y011410D03*
X033518Y011440D03*
X033518Y011455D03*
X035228Y011230D03*
X035243Y011245D03*
X035708Y011245D03*
X031748Y010705D03*
X031733Y010735D03*
X031673Y010840D03*
X031658Y010855D03*
X030248Y011005D03*
X030248Y011020D03*
X030248Y011035D03*
X030248Y011050D03*
X030248Y011065D03*
X030248Y011080D03*
X030248Y011095D03*
X030248Y011110D03*
X030248Y011125D03*
X030248Y011290D03*
X030248Y011305D03*
X030248Y011320D03*
X030248Y011335D03*
X030248Y011350D03*
X030248Y011365D03*
X030248Y011380D03*
X030248Y011395D03*
X030248Y011410D03*
X030008Y011410D03*
X030008Y011395D03*
X030008Y011380D03*
X030008Y011365D03*
X030008Y011350D03*
X030008Y011335D03*
X030008Y011320D03*
X030008Y011305D03*
X030008Y011290D03*
X030008Y011275D03*
X030008Y011425D03*
X029813Y011425D03*
X029813Y011410D03*
X029813Y011395D03*
X029813Y011380D03*
X029813Y011440D03*
X029813Y011455D03*
X029813Y011470D03*
X029813Y011485D03*
X029813Y011500D03*
X029813Y011515D03*
X029813Y011530D03*
X029813Y011545D03*
X029498Y011425D03*
X029498Y011410D03*
X029498Y011395D03*
X029498Y011380D03*
X029498Y011365D03*
X029498Y011350D03*
X029498Y011335D03*
X029498Y011320D03*
X029498Y011305D03*
X029498Y011290D03*
X029498Y011275D03*
X029498Y011260D03*
X029498Y011245D03*
X029498Y011230D03*
X029498Y011215D03*
X029498Y011200D03*
X029498Y011185D03*
X029498Y011170D03*
X029498Y011155D03*
X029498Y011140D03*
X029498Y011125D03*
X029498Y011065D03*
X029498Y011050D03*
X029498Y011035D03*
X029498Y011020D03*
X029498Y011005D03*
X029498Y010990D03*
X029498Y010975D03*
X029498Y010960D03*
X029183Y011110D03*
X029303Y011260D03*
X029318Y011290D03*
X029318Y011305D03*
X029318Y011320D03*
X029318Y011335D03*
X029318Y011350D03*
X029318Y011365D03*
X029183Y011590D03*
X028883Y011455D03*
X028883Y011440D03*
X028883Y011425D03*
X028868Y011245D03*
X028643Y011245D03*
X028643Y011260D03*
X028643Y011275D03*
X028643Y011395D03*
X028643Y011410D03*
X028643Y011425D03*
X028643Y011440D03*
X028628Y011560D03*
X028403Y011455D03*
X028403Y011440D03*
X028403Y011425D03*
X028403Y011410D03*
X028403Y011395D03*
X028403Y011380D03*
X028403Y011365D03*
X028403Y011350D03*
X028403Y011335D03*
X028403Y011320D03*
X028403Y011305D03*
X028403Y011290D03*
X028403Y011275D03*
X028403Y011260D03*
X028403Y011110D03*
X028403Y011095D03*
X028403Y011080D03*
X028403Y011065D03*
X028403Y011050D03*
X028403Y011035D03*
X027938Y011290D03*
X027938Y011305D03*
X027938Y011320D03*
X027938Y011335D03*
X027938Y011350D03*
X027938Y011365D03*
X027938Y011380D03*
X027938Y011395D03*
X027938Y011410D03*
X027683Y011410D03*
X027683Y011395D03*
X027683Y011380D03*
X027683Y011365D03*
X027683Y011350D03*
X027683Y011335D03*
X027683Y011320D03*
X027683Y011305D03*
X027683Y011290D03*
X027473Y011290D03*
X027473Y011305D03*
X027473Y011320D03*
X027473Y011335D03*
X027473Y011350D03*
X027473Y011365D03*
X027473Y011380D03*
X027473Y011395D03*
X027473Y011410D03*
X027473Y011425D03*
X027473Y011440D03*
X027473Y011455D03*
X027473Y011470D03*
X027473Y011485D03*
X027473Y011500D03*
X027473Y011515D03*
X027473Y011530D03*
X027473Y011545D03*
X027473Y011560D03*
X027473Y011575D03*
X027248Y011575D03*
X027248Y011560D03*
X027248Y011545D03*
X027248Y011530D03*
X027248Y011515D03*
X027248Y011500D03*
X027248Y011485D03*
X027248Y011470D03*
X027248Y011455D03*
X027248Y011440D03*
X027248Y011425D03*
X027248Y011410D03*
X027248Y011395D03*
X027248Y011380D03*
X027248Y011365D03*
X027248Y011350D03*
X027248Y011335D03*
X027248Y011320D03*
X027248Y011305D03*
X027248Y011290D03*
X027248Y011275D03*
X028343Y011590D03*
X029813Y011125D03*
X030083Y011125D03*
X030938Y011560D03*
X030938Y011575D03*
X032813Y009130D03*
X032783Y009085D03*
X032648Y008830D03*
X032558Y008695D03*
X033038Y008425D03*
X033023Y008395D03*
X033008Y008365D03*
X032993Y008350D03*
X032978Y008320D03*
X032963Y008290D03*
X032948Y008275D03*
X032933Y008260D03*
X032933Y008245D03*
X032918Y008230D03*
X032888Y008185D03*
X033458Y007900D03*
X033473Y007885D03*
X033488Y007855D03*
X033503Y007840D03*
X033773Y007645D03*
X034268Y007945D03*
X034283Y007960D03*
X034298Y007975D03*
X034313Y008005D03*
X034328Y008020D03*
X034358Y008065D03*
X034373Y008080D03*
X034403Y008125D03*
X034418Y008140D03*
X034418Y008155D03*
X034433Y008170D03*
X034448Y008185D03*
X034463Y008215D03*
X034478Y008245D03*
X034493Y008260D03*
X034508Y008290D03*
X034523Y008320D03*
X034538Y008335D03*
X034553Y008365D03*
X034568Y008380D03*
X034568Y008395D03*
X034583Y008410D03*
X034598Y008440D03*
X034733Y008695D03*
X034193Y008830D03*
X034178Y008815D03*
X034178Y008800D03*
X034133Y008740D03*
X034118Y008725D03*
X034088Y008680D03*
X034073Y008665D03*
X034043Y008620D03*
X034028Y008605D03*
X034013Y008575D03*
X033908Y008425D03*
X033203Y008710D03*
X033173Y008665D03*
X033158Y008635D03*
X033143Y008605D03*
X033113Y008560D03*
X033098Y008530D03*
X033083Y008500D03*
X032198Y008170D03*
X032183Y008185D03*
X032183Y008200D03*
X032168Y008215D03*
X033368Y009055D03*
X033383Y009085D03*
X033383Y009100D03*
X033368Y009115D03*
X035993Y007645D03*
X035573Y007255D03*
X035573Y007240D03*
X035588Y007225D03*
X035618Y007180D03*
X035633Y007165D03*
X035663Y007120D03*
X035678Y007105D03*
X035558Y007270D03*
X037703Y008200D03*
X037718Y008170D03*
X037733Y008140D03*
X037808Y008005D03*
X037823Y007975D03*
X037838Y007945D03*
X037613Y008365D03*
D32*
X033090Y009280D03*
X030135Y011620D03*
D33*
X030150Y011545D03*
X030150Y011155D03*
X030585Y011185D03*
X031035Y011380D03*
X031035Y011395D03*
X031890Y011515D03*
X031890Y011155D03*
X032535Y011185D03*
X032955Y011200D03*
X033390Y011155D03*
X033390Y011530D03*
X033390Y011545D03*
X033675Y011605D03*
X032955Y011515D03*
X032955Y011500D03*
X029535Y010825D03*
X029490Y010810D03*
X028755Y011185D03*
X028965Y011260D03*
X028230Y010990D03*
X028230Y010915D03*
X027810Y011200D03*
X027810Y011485D03*
X027810Y011500D03*
X027855Y010675D03*
X027510Y010255D03*
X026895Y009715D03*
X033435Y009610D03*
D34*
X033938Y009400D03*
X033938Y009385D03*
X033938Y009370D03*
X033923Y009265D03*
X033923Y009250D03*
X033923Y009235D03*
X033923Y009220D03*
X033908Y009115D03*
X033908Y009100D03*
X033908Y009085D03*
X033908Y009070D03*
X033893Y008965D03*
X033893Y008950D03*
X033893Y008935D03*
X033893Y008920D03*
X033878Y008815D03*
X033878Y008800D03*
X033878Y008785D03*
X033878Y008770D03*
X033878Y008755D03*
X033878Y008740D03*
X033878Y008725D03*
X033878Y008710D03*
X033878Y008695D03*
X033878Y008680D03*
X033878Y008665D03*
X033878Y008650D03*
X033878Y008635D03*
X033878Y008620D03*
X033878Y008605D03*
X033878Y008590D03*
X033878Y008575D03*
X033383Y008575D03*
X033383Y008590D03*
X033383Y008605D03*
X033383Y008620D03*
X033383Y008635D03*
X033383Y008650D03*
X033383Y008665D03*
X033383Y008680D03*
X033383Y008695D03*
X033383Y008710D03*
X033383Y008725D03*
X033383Y008740D03*
X033383Y008755D03*
X033383Y008770D03*
X033383Y008785D03*
X033383Y008800D03*
X033383Y008815D03*
X033383Y008830D03*
X033383Y008845D03*
X033383Y008560D03*
X033383Y008545D03*
X033383Y008530D03*
X033383Y008515D03*
X033383Y008500D03*
X033383Y008485D03*
X033383Y008470D03*
X033383Y008455D03*
X033383Y008440D03*
X033383Y008425D03*
X033383Y008410D03*
X033383Y008395D03*
X033383Y008380D03*
X033383Y008365D03*
X033383Y008350D03*
X033383Y008335D03*
X033383Y008320D03*
X033383Y008305D03*
X033383Y008290D03*
X033383Y008275D03*
X033383Y008260D03*
X033383Y008245D03*
X033383Y008230D03*
X033383Y008215D03*
X033383Y008200D03*
X033383Y008185D03*
X033383Y008170D03*
X033383Y008155D03*
X032003Y008560D03*
X032003Y008575D03*
X031688Y009475D03*
X031688Y009490D03*
X031673Y009505D03*
X031658Y009535D03*
X031628Y009625D03*
X031628Y009640D03*
X031628Y009655D03*
X034013Y010705D03*
X034013Y010720D03*
X034013Y010735D03*
X034013Y010750D03*
X034013Y010765D03*
X034013Y010780D03*
X034013Y010795D03*
X034013Y010810D03*
X034013Y010825D03*
X034013Y010840D03*
X034013Y010855D03*
X034013Y010870D03*
X034013Y010885D03*
X034013Y010900D03*
X034013Y011245D03*
X034013Y011260D03*
X034013Y011275D03*
X034013Y011290D03*
X034013Y011305D03*
X034013Y011320D03*
X034013Y011335D03*
X034013Y011350D03*
X034013Y011365D03*
X034013Y011380D03*
X033428Y011050D03*
X033398Y010945D03*
X033383Y010915D03*
X033383Y010900D03*
X032618Y011455D03*
X032063Y011605D03*
X031958Y011560D03*
X031208Y011575D03*
X031208Y011590D03*
X031193Y011560D03*
X031193Y011545D03*
X031193Y011530D03*
X031193Y011515D03*
X031193Y011500D03*
X031178Y011470D03*
X031178Y011455D03*
X031148Y011275D03*
X031148Y011260D03*
X031133Y011230D03*
X031133Y011215D03*
X031133Y011200D03*
X031133Y011185D03*
X031118Y011140D03*
X031118Y011125D03*
X031118Y011110D03*
X031118Y011095D03*
X031103Y011065D03*
X031103Y011050D03*
X031103Y011035D03*
X031103Y011020D03*
X031088Y010975D03*
X031088Y010960D03*
X031088Y010945D03*
X030083Y011110D03*
X029093Y011275D03*
X034538Y009610D03*
X034943Y009130D03*
X035243Y009040D03*
X035243Y009025D03*
X035243Y009010D03*
X035243Y008995D03*
X035243Y008980D03*
X035243Y008965D03*
X035243Y008950D03*
X035243Y008935D03*
X035243Y008920D03*
X035243Y008905D03*
X035243Y008890D03*
X035258Y008785D03*
X035258Y008770D03*
X035258Y008755D03*
X035258Y008740D03*
X035258Y008725D03*
X035258Y008710D03*
X035258Y008695D03*
X035258Y008680D03*
X035258Y008665D03*
X035258Y008650D03*
X035273Y008545D03*
X035273Y008530D03*
X035273Y008515D03*
X035273Y008500D03*
X035288Y008395D03*
X035288Y008380D03*
X035288Y008365D03*
X035288Y008350D03*
X035303Y008245D03*
X035303Y008230D03*
X035303Y008215D03*
X035303Y008200D03*
X035318Y008095D03*
X035783Y008335D03*
X035783Y008350D03*
X035783Y008365D03*
X035783Y008380D03*
X035783Y008395D03*
X035783Y008410D03*
X035768Y008515D03*
X035768Y008530D03*
X035768Y008545D03*
X035768Y008560D03*
X035768Y008575D03*
X035768Y008590D03*
X035768Y008605D03*
X035753Y008710D03*
X035753Y008725D03*
X035753Y008740D03*
X035753Y008755D03*
X035753Y008770D03*
X035753Y008785D03*
X035753Y008800D03*
X035753Y008815D03*
X035753Y008830D03*
X035738Y008935D03*
X035738Y008950D03*
X035738Y008965D03*
X035738Y008980D03*
X035738Y008995D03*
X035738Y009010D03*
X035738Y009025D03*
X035738Y009040D03*
X035738Y009055D03*
X035738Y009070D03*
X035738Y009085D03*
X035738Y009100D03*
X035738Y009115D03*
X035753Y010690D03*
X035753Y010705D03*
X035753Y010720D03*
X035753Y010735D03*
X035753Y010750D03*
X035753Y010765D03*
X035753Y010780D03*
X035753Y010795D03*
X035753Y010810D03*
X035768Y010915D03*
X035768Y010930D03*
X035768Y010945D03*
X035768Y010960D03*
X035768Y010975D03*
X035768Y010990D03*
X035768Y011005D03*
X035768Y011020D03*
X035768Y011035D03*
X035768Y011050D03*
X035768Y011065D03*
X037883Y007825D03*
X037883Y007810D03*
D35*
X032985Y009850D03*
X030825Y009400D03*
X030825Y010420D03*
X030105Y011605D03*
X027855Y010465D03*
X027855Y009400D03*
X027855Y009385D03*
D36*
X027555Y010240D03*
X028560Y010360D03*
X030495Y010960D03*
X030885Y010990D03*
X030885Y011005D03*
X030900Y011035D03*
X030900Y011050D03*
X032535Y011125D03*
X032955Y011575D03*
X033495Y011575D03*
X033765Y011590D03*
X033780Y011575D03*
X033810Y011560D03*
X033825Y011545D03*
X033855Y011530D03*
X033870Y011515D03*
X033900Y011500D03*
X033915Y011485D03*
X033945Y011470D03*
X035430Y011425D03*
X035655Y011290D03*
X033390Y009625D03*
X033315Y008860D03*
X033945Y008545D03*
X033945Y008530D03*
X032730Y008050D03*
X032310Y008065D03*
X032565Y008755D03*
X034110Y007795D03*
X034125Y007810D03*
X036120Y007525D03*
X036855Y007720D03*
X037185Y007180D03*
X037170Y007165D03*
X037125Y007135D03*
X037095Y007120D03*
X037080Y007105D03*
X037050Y007090D03*
X037035Y007075D03*
X037005Y007060D03*
X036990Y007045D03*
X035865Y006925D03*
X028965Y011305D03*
X028920Y011275D03*
X029190Y011575D03*
X028365Y011515D03*
X028365Y011500D03*
X028365Y011485D03*
D37*
X030120Y011590D03*
X030840Y010300D03*
D38*
X031763Y010660D03*
X031958Y011110D03*
X031493Y011080D03*
X029663Y011125D03*
X028823Y011590D03*
X031583Y009820D03*
X031583Y009805D03*
X031583Y009790D03*
X031598Y009775D03*
X031598Y009760D03*
X031613Y009730D03*
X031613Y009715D03*
X031628Y009685D03*
X032258Y009490D03*
X032288Y009400D03*
X032288Y009385D03*
X032303Y009355D03*
X032303Y009340D03*
X032303Y009325D03*
X032318Y009310D03*
X032318Y009295D03*
X032318Y009280D03*
X032333Y009265D03*
X032333Y009250D03*
X032333Y009235D03*
X032348Y009220D03*
X032348Y009205D03*
X032348Y009190D03*
X032363Y009175D03*
X032363Y009160D03*
X032363Y009145D03*
X032378Y009130D03*
X032378Y009115D03*
X032378Y009100D03*
X032393Y009085D03*
X032393Y009070D03*
X032393Y009055D03*
X032408Y009040D03*
X032408Y009025D03*
X032423Y008995D03*
X032423Y008980D03*
X032438Y008950D03*
X032438Y008935D03*
X032453Y008920D03*
X032453Y008905D03*
X032468Y008875D03*
X032468Y008860D03*
X032483Y008830D03*
X032033Y008500D03*
X032033Y008485D03*
X032048Y008455D03*
X032018Y008515D03*
X033248Y008800D03*
X033248Y008815D03*
X033263Y008845D03*
X033368Y009145D03*
X033338Y009640D03*
X034313Y009100D03*
X034313Y009085D03*
X034283Y009010D03*
X034268Y008980D03*
X034253Y008950D03*
X034223Y008875D03*
X034778Y008785D03*
X034898Y009040D03*
X034913Y009070D03*
X034928Y009085D03*
X035243Y009115D03*
X034583Y009715D03*
X034598Y009745D03*
X034613Y009775D03*
X034628Y009805D03*
X034628Y009820D03*
X034643Y009835D03*
X034643Y009850D03*
X035003Y010675D03*
X035003Y010690D03*
X035003Y010705D03*
X035003Y010720D03*
X035018Y010750D03*
X035033Y010780D03*
X035033Y010795D03*
X035048Y010825D03*
X035063Y010855D03*
X035063Y010870D03*
X035078Y010900D03*
X035093Y010930D03*
X035093Y010945D03*
X035108Y010975D03*
X035123Y011005D03*
X035123Y011020D03*
X035138Y011050D03*
X035153Y011080D03*
X035738Y011185D03*
X035738Y011200D03*
X035753Y011155D03*
X035753Y011140D03*
X035753Y011125D03*
X033998Y011200D03*
X033998Y011395D03*
X033998Y010990D03*
X033998Y010975D03*
X033998Y010960D03*
X033998Y010945D03*
X033998Y010930D03*
X033998Y010915D03*
X035798Y008260D03*
X035798Y008245D03*
X035813Y008200D03*
X035813Y008185D03*
X035828Y008140D03*
X035828Y008125D03*
X035843Y008080D03*
X035843Y008065D03*
X035858Y008020D03*
X035858Y008005D03*
X035873Y007960D03*
X035873Y007945D03*
X035888Y007900D03*
X035888Y007885D03*
X035903Y007855D03*
X035903Y007840D03*
X035918Y007810D03*
X035933Y007765D03*
X035948Y007735D03*
X035948Y007720D03*
X035963Y007705D03*
X035963Y007690D03*
X035453Y007540D03*
X035453Y007525D03*
X035453Y007510D03*
X035468Y007495D03*
X035468Y007480D03*
X035483Y007450D03*
X035483Y007435D03*
X035498Y007405D03*
X035513Y007375D03*
X035513Y007360D03*
X035528Y007330D03*
X035543Y007300D03*
X035438Y007555D03*
X035438Y007570D03*
X035438Y007585D03*
X035423Y007600D03*
X035423Y007615D03*
X035423Y007630D03*
X035408Y007645D03*
X035408Y007660D03*
X035408Y007675D03*
X035393Y007690D03*
X035393Y007705D03*
X035393Y007720D03*
X035378Y007735D03*
X035378Y007750D03*
X035378Y007765D03*
X037613Y008380D03*
X037868Y007885D03*
X037868Y007870D03*
X037868Y007780D03*
X033428Y007960D03*
X033428Y007975D03*
X033413Y008005D03*
X033413Y008020D03*
X033398Y008065D03*
X033398Y008080D03*
D39*
X033435Y007945D03*
X033450Y007930D03*
X033450Y007915D03*
X032970Y008305D03*
X032985Y008335D03*
X033015Y008380D03*
X033030Y008410D03*
X033045Y008440D03*
X033060Y008455D03*
X033060Y008470D03*
X033075Y008485D03*
X033090Y008515D03*
X033105Y008545D03*
X033120Y008575D03*
X033135Y008590D03*
X033150Y008620D03*
X033165Y008650D03*
X033180Y008680D03*
X033195Y008695D03*
X033210Y008725D03*
X033210Y008740D03*
X033225Y008755D03*
X033225Y008770D03*
X033240Y008785D03*
X033255Y008830D03*
X032775Y009070D03*
X032760Y009055D03*
X032760Y009040D03*
X032745Y009025D03*
X032745Y009010D03*
X032730Y008995D03*
X032730Y008980D03*
X032715Y008965D03*
X032715Y008950D03*
X032700Y008935D03*
X032700Y008920D03*
X032685Y008905D03*
X032685Y008890D03*
X032670Y008875D03*
X032670Y008860D03*
X032655Y008845D03*
X032475Y008845D03*
X032460Y008890D03*
X032430Y008965D03*
X032415Y009010D03*
X032790Y009100D03*
X033375Y009130D03*
X034200Y008845D03*
X034215Y008860D03*
X034230Y008890D03*
X034230Y008905D03*
X034245Y008920D03*
X034245Y008935D03*
X034260Y008965D03*
X034275Y008995D03*
X034290Y009025D03*
X034290Y009040D03*
X034305Y009055D03*
X034305Y009070D03*
X034785Y008815D03*
X034785Y008800D03*
X034770Y008770D03*
X034755Y008755D03*
X034755Y008740D03*
X034740Y008725D03*
X034740Y008710D03*
X034725Y008680D03*
X034710Y008665D03*
X034710Y008650D03*
X034695Y008635D03*
X034695Y008620D03*
X034680Y008605D03*
X034680Y008590D03*
X034665Y008575D03*
X034665Y008560D03*
X034650Y008545D03*
X034650Y008530D03*
X034635Y008515D03*
X034635Y008500D03*
X034620Y008485D03*
X034620Y008470D03*
X034605Y008455D03*
X034590Y008425D03*
X034545Y008350D03*
X034515Y008305D03*
X034500Y008275D03*
X034470Y008230D03*
X034455Y008200D03*
X033900Y008395D03*
X033900Y008410D03*
X034800Y008830D03*
X034800Y008845D03*
X034815Y008860D03*
X034815Y008875D03*
X034830Y008890D03*
X034830Y008905D03*
X034845Y008920D03*
X034845Y008935D03*
X034860Y008950D03*
X034860Y008965D03*
X034875Y008980D03*
X034875Y008995D03*
X034890Y009010D03*
X034890Y009025D03*
X034905Y009055D03*
X032550Y008680D03*
X032550Y008665D03*
X032550Y008650D03*
X032550Y008635D03*
X032550Y008620D03*
X032550Y008605D03*
X032070Y008410D03*
X032070Y008395D03*
X032085Y008380D03*
X032085Y008365D03*
X032100Y008350D03*
X032100Y008335D03*
X032115Y008320D03*
X032115Y008305D03*
X032130Y008290D03*
X032130Y008275D03*
X032145Y008260D03*
X032145Y008245D03*
X032160Y008230D03*
X032055Y008425D03*
X032055Y008440D03*
X032040Y008470D03*
X031620Y009700D03*
X031605Y009745D03*
X031755Y010675D03*
X031755Y010690D03*
X031740Y010720D03*
X031725Y010750D03*
X031710Y010765D03*
X031710Y010780D03*
X031695Y010795D03*
X031695Y010810D03*
X031680Y010825D03*
X031590Y011125D03*
X031590Y011140D03*
X031785Y011140D03*
X031785Y011125D03*
X031170Y011305D03*
X030255Y011560D03*
X028620Y011575D03*
X027810Y011590D03*
X027810Y011110D03*
X027480Y011125D03*
X027480Y011140D03*
X027375Y010585D03*
X032415Y011455D03*
X032415Y011470D03*
X032640Y011215D03*
X032955Y011110D03*
X033285Y011560D03*
X033285Y011575D03*
X033990Y011410D03*
X035100Y010960D03*
X035115Y010990D03*
X035130Y011035D03*
X035145Y011065D03*
X035160Y011095D03*
X035160Y011110D03*
X035175Y011125D03*
X035175Y011140D03*
X035190Y011155D03*
X035190Y011170D03*
X035205Y011185D03*
X035205Y011200D03*
X035220Y011215D03*
X035085Y010915D03*
X035070Y010885D03*
X035055Y010840D03*
X035040Y010810D03*
X035025Y010765D03*
X035010Y010735D03*
X035415Y011455D03*
X037680Y008245D03*
X037680Y008230D03*
X037695Y008215D03*
X037710Y008185D03*
X037725Y008155D03*
X037740Y008125D03*
X037755Y008110D03*
X037755Y008095D03*
X037770Y008080D03*
X037770Y008065D03*
X037785Y008050D03*
X037785Y008035D03*
X037800Y008020D03*
X037815Y007990D03*
X037830Y007960D03*
X037845Y007930D03*
X037860Y007915D03*
X037860Y007900D03*
X037860Y007765D03*
X035985Y007660D03*
X035970Y007675D03*
X035940Y007750D03*
X035925Y007780D03*
X035925Y007795D03*
X035910Y007825D03*
X035475Y007465D03*
X035490Y007420D03*
X035505Y007390D03*
X035520Y007345D03*
X035535Y007315D03*
X035550Y007285D03*
D40*
X027863Y009835D03*
X027863Y009850D03*
X027863Y009865D03*
X027863Y009880D03*
X027863Y009895D03*
X030083Y011575D03*
D41*
X030495Y011305D03*
X031170Y011350D03*
X031410Y011140D03*
X031965Y011140D03*
X030870Y010960D03*
X030225Y010990D03*
X029790Y011245D03*
X028950Y011290D03*
X028665Y011305D03*
X028665Y011470D03*
X028350Y011560D03*
X028350Y011575D03*
X027810Y011575D03*
X027810Y011125D03*
X027300Y011140D03*
X028335Y011005D03*
X027780Y010705D03*
X028545Y010345D03*
X033345Y008965D03*
X033345Y008950D03*
X034365Y009145D03*
X033930Y008500D03*
X033930Y008485D03*
X032805Y008095D03*
X032775Y008080D03*
X032265Y008095D03*
X033570Y007780D03*
X034185Y007855D03*
X035805Y006970D03*
X035820Y006955D03*
X037245Y007225D03*
X037275Y007240D03*
X037290Y007255D03*
X037305Y007270D03*
X037320Y007285D03*
X037335Y007300D03*
X037350Y007315D03*
X037380Y007330D03*
X037395Y007345D03*
X037410Y007360D03*
X037425Y007375D03*
X037440Y007390D03*
X037455Y007405D03*
X037485Y007420D03*
X037500Y007435D03*
X037515Y007450D03*
X037530Y007465D03*
X037545Y007480D03*
X037560Y007495D03*
X037590Y007510D03*
X037605Y007525D03*
X037620Y007540D03*
X037635Y007555D03*
X037650Y007570D03*
X037695Y007600D03*
X037710Y007615D03*
X037725Y007630D03*
X037740Y007645D03*
X037755Y007660D03*
X037785Y007675D03*
X037800Y007690D03*
X037815Y007705D03*
X037830Y007720D03*
X037275Y008035D03*
X037290Y008050D03*
X037305Y008065D03*
X037410Y008155D03*
X037425Y008170D03*
X037440Y008185D03*
X037455Y008200D03*
X037470Y008215D03*
X037485Y008230D03*
X037605Y008335D03*
X037020Y007840D03*
X036960Y007795D03*
X036090Y007540D03*
X035670Y011275D03*
D42*
X035280Y010945D03*
X035280Y010930D03*
X033945Y010900D03*
X033945Y010885D03*
X033945Y010870D03*
X033945Y010855D03*
X033810Y010645D03*
X033810Y010630D03*
X033615Y011560D03*
X030735Y010915D03*
X029610Y011035D03*
X029685Y011410D03*
X035190Y009730D03*
X035205Y009775D03*
X035220Y009805D03*
X035220Y009820D03*
X032220Y009010D03*
D43*
X032565Y008785D03*
X032565Y008770D03*
X032340Y008050D03*
X032550Y007945D03*
X033615Y007750D03*
X034080Y007780D03*
X035910Y006895D03*
X036675Y007615D03*
X036780Y007675D03*
X037590Y008290D03*
X033345Y010990D03*
X033345Y011005D03*
X033345Y011035D03*
X032955Y011140D03*
X032580Y011290D03*
X032475Y011395D03*
X032955Y011560D03*
X030930Y011245D03*
X030930Y011230D03*
X030930Y011215D03*
X030930Y011200D03*
X030930Y011185D03*
X030930Y011170D03*
X030930Y011155D03*
X030930Y011140D03*
X030930Y011125D03*
X030585Y011125D03*
X030810Y010795D03*
X029760Y011230D03*
X029010Y011335D03*
X028980Y011320D03*
X028755Y011125D03*
X027810Y011140D03*
X027810Y011560D03*
X029175Y010675D03*
X029205Y010690D03*
X035640Y011305D03*
D44*
X035700Y010645D03*
X035700Y010630D03*
X035700Y010615D03*
X035700Y010600D03*
X035700Y010585D03*
X035700Y010570D03*
X035700Y010555D03*
X035700Y010540D03*
X035700Y010525D03*
X035700Y010510D03*
X035700Y010495D03*
X035700Y010480D03*
X035700Y010465D03*
X035700Y010450D03*
X035700Y010435D03*
X035700Y010420D03*
X035700Y010405D03*
X035700Y010390D03*
X035700Y010375D03*
X035700Y010360D03*
X035700Y010345D03*
X035700Y010330D03*
X035700Y010315D03*
X035700Y010300D03*
X035700Y010285D03*
X035700Y010270D03*
X035700Y010255D03*
X035700Y010240D03*
X035700Y010225D03*
X035700Y010210D03*
X035700Y010195D03*
X035700Y010180D03*
X035700Y010165D03*
X035700Y010150D03*
X035700Y010135D03*
X035700Y010120D03*
X035700Y010105D03*
X035700Y010090D03*
X035700Y010075D03*
X035700Y010060D03*
X035700Y010045D03*
X035700Y010030D03*
X035700Y010015D03*
X035700Y010000D03*
X035700Y009985D03*
X035700Y009970D03*
X035700Y009955D03*
X035700Y009940D03*
X035700Y009925D03*
X035700Y009910D03*
X035700Y009895D03*
X035700Y009880D03*
X035700Y009865D03*
X035700Y009850D03*
X035700Y009835D03*
X035700Y009820D03*
X035700Y009805D03*
X035700Y009790D03*
X035700Y009775D03*
X035700Y009760D03*
X035700Y009745D03*
X034935Y009745D03*
X034935Y009760D03*
X034935Y009775D03*
X034935Y009790D03*
X034170Y010150D03*
X034170Y010165D03*
X034170Y010180D03*
X034170Y010195D03*
X034170Y010210D03*
X034170Y010225D03*
X034170Y010240D03*
X034170Y010255D03*
X034170Y010270D03*
X034170Y010285D03*
X034170Y010315D03*
X034170Y010330D03*
X034170Y010345D03*
X034170Y010360D03*
X034170Y010375D03*
X034170Y010390D03*
X034170Y010405D03*
X034170Y010420D03*
X034170Y010435D03*
X034170Y010450D03*
X034170Y010465D03*
X034170Y010480D03*
X034170Y010495D03*
X034170Y010510D03*
X034170Y010525D03*
X034170Y010540D03*
X034170Y010555D03*
X033465Y010045D03*
X032700Y010210D03*
X032700Y010225D03*
X031950Y010645D03*
X031245Y010210D03*
X030465Y010210D03*
X030465Y010225D03*
X030450Y010195D03*
X030450Y010180D03*
X030435Y010150D03*
X030420Y010105D03*
X030420Y010090D03*
X030420Y009745D03*
X030420Y009730D03*
X030420Y009715D03*
X030420Y009700D03*
X030435Y009685D03*
X030435Y009670D03*
X030435Y009655D03*
X031245Y009655D03*
X031245Y009670D03*
X029745Y009760D03*
X029745Y009775D03*
X029745Y009790D03*
X029745Y009805D03*
X029745Y009820D03*
X029745Y009835D03*
X029745Y009850D03*
X029745Y009865D03*
X029745Y009880D03*
X029745Y009895D03*
X029745Y009910D03*
X029745Y009925D03*
X028980Y009670D03*
X028980Y009655D03*
X028215Y009520D03*
X027510Y009520D03*
X028275Y010120D03*
X028245Y010270D03*
X027465Y010270D03*
X027465Y010285D03*
X028980Y010630D03*
X029655Y011560D03*
X030870Y010645D03*
X032730Y009490D03*
X033465Y009535D03*
X032535Y007990D03*
X033810Y007690D03*
D45*
X033818Y007735D03*
X035108Y009280D03*
X034928Y009595D03*
X034358Y009295D03*
X030848Y010615D03*
X030698Y011545D03*
X029348Y011530D03*
X028208Y010045D03*
D46*
X029633Y010855D03*
X029198Y011395D03*
X028763Y011485D03*
X028763Y011500D03*
X028763Y011515D03*
X028748Y011545D03*
X033533Y010150D03*
X033548Y010180D03*
X033548Y010195D03*
X033548Y010285D03*
X033548Y010300D03*
X035093Y009175D03*
D47*
X035115Y009265D03*
X034350Y009280D03*
X032775Y009730D03*
X033360Y009985D03*
X032775Y010360D03*
X033300Y010585D03*
X030705Y011485D03*
X030705Y011500D03*
X030705Y011515D03*
X030705Y011530D03*
X028890Y010450D03*
X028275Y010315D03*
X027855Y010645D03*
X029130Y009280D03*
D48*
X030840Y009160D03*
X033555Y010210D03*
X033555Y010225D03*
X033555Y010240D03*
X033555Y010255D03*
X033555Y010270D03*
X033405Y011200D03*
X033405Y011215D03*
X032955Y011215D03*
X032955Y011485D03*
X033405Y011485D03*
X031905Y011470D03*
X031905Y011455D03*
X031905Y011215D03*
X031905Y011200D03*
X031905Y011185D03*
X031470Y011200D03*
X031470Y011215D03*
X031470Y011230D03*
X030585Y011215D03*
X030585Y011380D03*
X030135Y011485D03*
X030135Y011500D03*
X030135Y011215D03*
X030135Y011200D03*
X029580Y010840D03*
X028755Y011215D03*
X028755Y011380D03*
X028755Y011530D03*
X029385Y011470D03*
X027360Y011230D03*
X027360Y011215D03*
X027360Y011200D03*
X035085Y009160D03*
X035085Y009145D03*
X033810Y007675D03*
X036285Y007450D03*
D49*
X033810Y007720D03*
X034935Y009610D03*
X034935Y009625D03*
X032760Y009715D03*
X032760Y010345D03*
X033300Y010600D03*
X030030Y010945D03*
X029280Y011440D03*
X029280Y011455D03*
X029310Y011515D03*
X028905Y010465D03*
X029130Y009265D03*
D50*
X030518Y009535D03*
X031343Y009835D03*
X031343Y009850D03*
X031343Y009865D03*
X033383Y010000D03*
X034883Y009880D03*
X035108Y009250D03*
X036308Y007510D03*
X028238Y010075D03*
X028268Y010300D03*
X029288Y011485D03*
X029288Y011500D03*
D51*
X029670Y011110D03*
X030675Y011275D03*
X031125Y011170D03*
X031125Y011155D03*
X031110Y011080D03*
X031095Y011005D03*
X031095Y010990D03*
X031140Y011245D03*
X031500Y011095D03*
X031185Y011485D03*
X032460Y011230D03*
X033435Y011095D03*
X033435Y011080D03*
X033330Y010690D03*
X035760Y010675D03*
X034530Y009595D03*
X035745Y009145D03*
X035745Y009130D03*
X031665Y009520D03*
X031650Y009550D03*
X031650Y009565D03*
X031635Y009580D03*
X031635Y009595D03*
X031635Y009610D03*
D52*
X032220Y009670D03*
X032220Y009685D03*
X032220Y009700D03*
X031500Y011110D03*
X028275Y011470D03*
X026745Y010375D03*
X026745Y010360D03*
X026745Y010345D03*
X026745Y010330D03*
X026745Y010315D03*
X026745Y010300D03*
X026745Y010285D03*
X026745Y010270D03*
X026745Y010255D03*
X026745Y010240D03*
X026745Y010225D03*
X026745Y010210D03*
X026745Y010195D03*
X026745Y010180D03*
X026745Y010165D03*
X026745Y010150D03*
X026745Y010135D03*
X026745Y010120D03*
X026745Y010105D03*
X026745Y010090D03*
X026745Y010075D03*
X026745Y010060D03*
X026745Y010045D03*
X026745Y010030D03*
X026745Y010015D03*
X026745Y010000D03*
X026745Y009985D03*
X026745Y009970D03*
X026745Y009955D03*
X026745Y009940D03*
X026745Y009925D03*
X026745Y009910D03*
X026745Y009895D03*
X026745Y009880D03*
X026745Y009865D03*
X026745Y009850D03*
X026745Y009835D03*
X026745Y009820D03*
X026745Y009805D03*
X027150Y009835D03*
D53*
X027600Y010225D03*
X027300Y011110D03*
X030450Y010975D03*
X031155Y011290D03*
X031410Y011110D03*
X032865Y011440D03*
X033450Y011110D03*
X033435Y011065D03*
X033390Y010930D03*
X033375Y010885D03*
X033375Y010870D03*
X033375Y010855D03*
X033375Y010840D03*
X033360Y010825D03*
X033360Y010810D03*
X033360Y010795D03*
X033345Y010780D03*
X033345Y010765D03*
X033345Y010750D03*
X033345Y010735D03*
X033330Y010720D03*
X033330Y010705D03*
X034005Y010690D03*
X034005Y010675D03*
X034005Y010660D03*
X034005Y011005D03*
X034005Y011020D03*
X034005Y011035D03*
X034005Y011050D03*
X034005Y011065D03*
X034005Y011080D03*
X034005Y011095D03*
X034005Y011110D03*
X034005Y011125D03*
X034005Y011140D03*
X034005Y011155D03*
X034005Y011170D03*
X034005Y011185D03*
X034005Y011215D03*
X034005Y011230D03*
X034995Y010660D03*
X035760Y010825D03*
X035760Y010840D03*
X035760Y010855D03*
X035760Y010870D03*
X035760Y010885D03*
X035760Y010900D03*
X035760Y011080D03*
X035760Y011095D03*
X035760Y011110D03*
X035745Y011170D03*
X035730Y011215D03*
X035730Y011230D03*
X034650Y009865D03*
X034620Y009790D03*
X034605Y009760D03*
X034590Y009730D03*
X034575Y009700D03*
X034575Y009685D03*
X034560Y009670D03*
X034560Y009655D03*
X034545Y009640D03*
X034545Y009625D03*
X034320Y009130D03*
X034320Y009115D03*
X033915Y009130D03*
X033915Y009145D03*
X033915Y009160D03*
X033915Y009175D03*
X033915Y009190D03*
X033915Y009205D03*
X033930Y009280D03*
X033930Y009295D03*
X033930Y009310D03*
X033930Y009325D03*
X033930Y009340D03*
X033930Y009355D03*
X033900Y009055D03*
X033900Y009040D03*
X033900Y009025D03*
X033900Y009010D03*
X033900Y008995D03*
X033900Y008980D03*
X033885Y008905D03*
X033885Y008890D03*
X033885Y008875D03*
X033885Y008860D03*
X033885Y008845D03*
X033885Y008830D03*
X033885Y008380D03*
X033390Y008140D03*
X033390Y008125D03*
X033390Y008110D03*
X033390Y008095D03*
X033405Y008050D03*
X033405Y008035D03*
X033420Y007990D03*
X032010Y008530D03*
X032010Y008545D03*
X032295Y009370D03*
X032280Y009415D03*
X032280Y009430D03*
X032280Y009445D03*
X032265Y009460D03*
X032265Y009475D03*
X031620Y009670D03*
X034935Y009115D03*
X034935Y009100D03*
X035235Y009100D03*
X035235Y009085D03*
X035235Y009070D03*
X035235Y009055D03*
X035235Y009130D03*
X035250Y008875D03*
X035250Y008860D03*
X035250Y008845D03*
X035250Y008830D03*
X035250Y008815D03*
X035250Y008800D03*
X035265Y008635D03*
X035265Y008620D03*
X035265Y008605D03*
X035265Y008590D03*
X035265Y008575D03*
X035265Y008560D03*
X035280Y008485D03*
X035280Y008470D03*
X035280Y008455D03*
X035280Y008440D03*
X035280Y008425D03*
X035280Y008410D03*
X035295Y008335D03*
X035295Y008320D03*
X035295Y008305D03*
X035295Y008290D03*
X035295Y008275D03*
X035295Y008260D03*
X035310Y008185D03*
X035310Y008170D03*
X035310Y008155D03*
X035310Y008140D03*
X035310Y008125D03*
X035310Y008110D03*
X035325Y008080D03*
X035325Y008065D03*
X035325Y008050D03*
X035325Y008035D03*
X035325Y008020D03*
X035325Y008005D03*
X035340Y007990D03*
X035340Y007975D03*
X035340Y007960D03*
X035340Y007945D03*
X035340Y007930D03*
X035340Y007915D03*
X035355Y007900D03*
X035355Y007885D03*
X035355Y007870D03*
X035355Y007855D03*
X035355Y007840D03*
X035355Y007825D03*
X035370Y007810D03*
X035370Y007795D03*
X035370Y007780D03*
X035880Y007915D03*
X035880Y007930D03*
X035865Y007975D03*
X035865Y007990D03*
X035850Y008035D03*
X035850Y008050D03*
X035835Y008095D03*
X035835Y008110D03*
X035820Y008155D03*
X035820Y008170D03*
X035805Y008215D03*
X035805Y008230D03*
X035790Y008275D03*
X035790Y008290D03*
X035790Y008305D03*
X035790Y008320D03*
X035775Y008425D03*
X035775Y008440D03*
X035775Y008455D03*
X035775Y008470D03*
X035775Y008485D03*
X035775Y008500D03*
X035760Y008620D03*
X035760Y008635D03*
X035760Y008650D03*
X035760Y008665D03*
X035760Y008680D03*
X035760Y008695D03*
X035745Y008845D03*
X035745Y008860D03*
X035745Y008875D03*
X035745Y008890D03*
X035745Y008905D03*
X035745Y008920D03*
X035895Y007870D03*
X037875Y007855D03*
X037875Y007840D03*
X037875Y007795D03*
D54*
X034358Y009190D03*
X032693Y009565D03*
X032693Y009580D03*
X033503Y010090D03*
X033518Y010105D03*
X033518Y010120D03*
X033533Y010330D03*
X033533Y010345D03*
X032663Y010510D03*
X032663Y010525D03*
X033323Y010645D03*
X029693Y010870D03*
X029183Y011380D03*
X029198Y011425D03*
X026933Y010435D03*
X028283Y010165D03*
X028283Y009655D03*
X027473Y009565D03*
X027458Y009595D03*
X027458Y009610D03*
X027443Y009655D03*
X026933Y009730D03*
X027863Y009160D03*
X029768Y009160D03*
X029768Y009175D03*
X029768Y009190D03*
X029768Y009205D03*
X029768Y009220D03*
X029768Y009235D03*
X029768Y009250D03*
X029768Y009265D03*
X029768Y009280D03*
X029768Y009295D03*
X029768Y009310D03*
X029768Y009325D03*
X029768Y009340D03*
X029768Y009355D03*
X029768Y009370D03*
X029768Y009385D03*
X029768Y009400D03*
D55*
X029130Y009190D03*
X026925Y010420D03*
X032625Y010615D03*
X032625Y010630D03*
X032625Y010645D03*
X032640Y010600D03*
X032640Y010585D03*
X032640Y010570D03*
X032655Y010555D03*
X032655Y010540D03*
X032670Y010495D03*
X033540Y010315D03*
X033540Y010165D03*
X033525Y010135D03*
X032955Y011305D03*
X032955Y011320D03*
X032955Y011335D03*
X032955Y011350D03*
X032955Y011365D03*
X032955Y011380D03*
X035460Y011365D03*
X032535Y007975D03*
X036060Y006850D03*
D56*
X035108Y009190D03*
X034358Y009205D03*
X033473Y009550D03*
X033473Y009565D03*
X033488Y009595D03*
X033458Y009520D03*
X032723Y009505D03*
X032708Y009520D03*
X032693Y009670D03*
X032693Y010180D03*
X032693Y010195D03*
X033518Y010360D03*
X034178Y010570D03*
X034178Y010585D03*
X034178Y010600D03*
X034178Y010615D03*
X034178Y010630D03*
X034178Y010645D03*
X034943Y010645D03*
X034943Y010630D03*
X034943Y010615D03*
X034943Y010600D03*
X034943Y010585D03*
X034943Y010570D03*
X034943Y010555D03*
X034943Y010540D03*
X034943Y010525D03*
X034943Y010510D03*
X034943Y010495D03*
X034943Y010480D03*
X034943Y010465D03*
X034943Y010450D03*
X034943Y010435D03*
X034943Y010420D03*
X034943Y010405D03*
X034943Y010390D03*
X034943Y010375D03*
X034943Y010360D03*
X034943Y010345D03*
X034943Y010330D03*
X034943Y010315D03*
X034943Y010300D03*
X034943Y010285D03*
X034943Y010270D03*
X034943Y010255D03*
X034943Y010240D03*
X034943Y010225D03*
X034943Y010210D03*
X034943Y010195D03*
X034943Y010180D03*
X034943Y010165D03*
X034943Y010150D03*
X034943Y010135D03*
X034943Y010120D03*
X034943Y010105D03*
X034943Y010090D03*
X034943Y010075D03*
X034943Y010060D03*
X034943Y010045D03*
X034943Y010030D03*
X034943Y009865D03*
X034943Y009850D03*
X034943Y009835D03*
X034943Y009820D03*
X034943Y009805D03*
X031958Y010615D03*
X031958Y010630D03*
X030443Y010165D03*
X030428Y010135D03*
X030428Y010120D03*
X030413Y010075D03*
X030413Y010060D03*
X030413Y010045D03*
X030413Y010030D03*
X030413Y010015D03*
X030413Y010000D03*
X030413Y009985D03*
X030413Y009970D03*
X030413Y009955D03*
X030413Y009940D03*
X030413Y009925D03*
X030413Y009910D03*
X030413Y009895D03*
X030413Y009880D03*
X030413Y009865D03*
X030413Y009850D03*
X030413Y009835D03*
X030413Y009820D03*
X030413Y009805D03*
X030413Y009790D03*
X030413Y009775D03*
X030413Y009760D03*
X031238Y009640D03*
X031238Y009625D03*
X031238Y009610D03*
X031253Y009685D03*
X031253Y009700D03*
X031268Y009715D03*
X031268Y009730D03*
X031283Y009760D03*
X031283Y009775D03*
X031283Y009790D03*
X031283Y009805D03*
X031283Y009820D03*
X030848Y009175D03*
X029753Y009940D03*
X029753Y009955D03*
X029753Y009970D03*
X029753Y009985D03*
X029753Y010000D03*
X029753Y010015D03*
X029753Y010030D03*
X029753Y010045D03*
X029753Y010060D03*
X029753Y010075D03*
X029753Y010090D03*
X029753Y010105D03*
X029753Y010120D03*
X029753Y010135D03*
X029753Y010150D03*
X029753Y010165D03*
X029753Y010180D03*
X029753Y010195D03*
X029753Y010210D03*
X029753Y010225D03*
X029753Y010240D03*
X029753Y010255D03*
X029753Y010270D03*
X029753Y010285D03*
X029753Y010300D03*
X029753Y010315D03*
X029753Y010330D03*
X029753Y010345D03*
X029753Y010360D03*
X029753Y010375D03*
X029753Y010390D03*
X029753Y010405D03*
X029753Y010420D03*
X029753Y010435D03*
X029753Y010450D03*
X029753Y010465D03*
X029753Y010480D03*
X029753Y010495D03*
X029753Y010510D03*
X029753Y010525D03*
X029753Y010540D03*
X029753Y010555D03*
X029753Y010570D03*
X029753Y010585D03*
X029753Y010600D03*
X029753Y010615D03*
X029753Y010630D03*
X029753Y010645D03*
X030098Y010975D03*
X028973Y010615D03*
X028973Y010600D03*
X028973Y010585D03*
X028973Y010570D03*
X028973Y010555D03*
X028973Y010540D03*
X028973Y010390D03*
X028973Y010375D03*
X028973Y010360D03*
X028973Y010345D03*
X028973Y010330D03*
X028973Y010315D03*
X028973Y010300D03*
X028973Y010285D03*
X028973Y010270D03*
X028973Y010255D03*
X028973Y010240D03*
X028973Y010225D03*
X028973Y010210D03*
X028973Y010195D03*
X028973Y010180D03*
X028973Y010165D03*
X028973Y010150D03*
X028973Y010135D03*
X028973Y010120D03*
X028973Y010105D03*
X028973Y010090D03*
X028973Y010075D03*
X028973Y010060D03*
X028973Y010045D03*
X028973Y010030D03*
X028973Y010015D03*
X028973Y010000D03*
X028973Y009985D03*
X028973Y009970D03*
X028973Y009955D03*
X028973Y009940D03*
X028973Y009925D03*
X028973Y009910D03*
X028973Y009895D03*
X028973Y009880D03*
X028973Y009865D03*
X028973Y009850D03*
X028973Y009835D03*
X028973Y009820D03*
X028973Y009805D03*
X028973Y009790D03*
X028973Y009775D03*
X028973Y009760D03*
X028973Y009745D03*
X028973Y009730D03*
X028973Y009715D03*
X028973Y009700D03*
X028973Y009685D03*
X028298Y009745D03*
X028298Y009760D03*
X028268Y009610D03*
X028268Y009595D03*
X028253Y009565D03*
X028238Y009550D03*
X028238Y009535D03*
X027488Y009535D03*
X027428Y009730D03*
X028268Y010225D03*
X028268Y010240D03*
X028268Y010255D03*
X027863Y010660D03*
X026948Y010450D03*
X029138Y009205D03*
X035468Y011350D03*
D57*
X035243Y010990D03*
X035288Y010915D03*
X035573Y010690D03*
X032213Y009025D03*
X028463Y010405D03*
X029648Y011245D03*
D58*
X030068Y010960D03*
X031193Y010270D03*
X031313Y010045D03*
X031313Y010030D03*
X031313Y010015D03*
X031328Y010000D03*
X031328Y009985D03*
X031328Y009970D03*
X032003Y009640D03*
X032003Y009625D03*
X031928Y009400D03*
X031928Y009385D03*
X031928Y009370D03*
X032723Y009700D03*
X033428Y009490D03*
X034163Y009610D03*
X034163Y009625D03*
X034163Y009670D03*
X034163Y009685D03*
X034163Y009700D03*
X034163Y009715D03*
X034928Y009685D03*
X034928Y009670D03*
X034913Y010000D03*
X034913Y010015D03*
X035678Y009670D03*
X035678Y009655D03*
X035108Y009220D03*
X032723Y010285D03*
X030488Y009565D03*
X030473Y009580D03*
X029723Y009655D03*
X029723Y009670D03*
X029003Y009610D03*
X027863Y009175D03*
X028178Y010345D03*
D59*
X030173Y010930D03*
X030833Y010450D03*
X030833Y009355D03*
X027863Y009355D03*
D60*
X027848Y010450D03*
X030173Y010915D03*
X030833Y010405D03*
X033083Y009325D03*
D61*
X033083Y009415D03*
X033083Y009430D03*
X030833Y009475D03*
X030833Y009490D03*
X030833Y010330D03*
X030833Y010345D03*
X030188Y010900D03*
X027848Y010390D03*
X027848Y010375D03*
D62*
X028275Y010210D03*
X028275Y010195D03*
X028275Y010180D03*
X028290Y010150D03*
X028290Y010135D03*
X028290Y009730D03*
X028290Y009715D03*
X028290Y009700D03*
X028290Y009685D03*
X028290Y009670D03*
X028275Y009640D03*
X028275Y009625D03*
X028260Y009580D03*
X027480Y009550D03*
X027465Y009580D03*
X027450Y009625D03*
X027450Y009640D03*
X027435Y009670D03*
X027435Y009685D03*
X027435Y009700D03*
X027435Y009715D03*
X029745Y010885D03*
X031965Y010600D03*
X031965Y010585D03*
X031965Y010570D03*
X031965Y010555D03*
X031965Y010540D03*
X031965Y010525D03*
X031965Y010510D03*
X031965Y010495D03*
X031965Y010480D03*
X031965Y010465D03*
X031965Y010450D03*
X031965Y010435D03*
X031965Y010420D03*
X031965Y010405D03*
X031965Y010390D03*
X031965Y010375D03*
X031965Y010360D03*
X031965Y010345D03*
X031965Y010330D03*
X031965Y010315D03*
X031965Y010300D03*
X031965Y010285D03*
X031965Y010270D03*
X031965Y010255D03*
X031965Y010240D03*
X031965Y010225D03*
X031965Y010210D03*
X031965Y010195D03*
X031965Y010180D03*
X031965Y010165D03*
X031965Y010150D03*
X031965Y010135D03*
X031965Y010120D03*
X031965Y010105D03*
X031965Y010090D03*
X031965Y010075D03*
X031965Y010060D03*
X031965Y010045D03*
X031965Y010030D03*
X031965Y010015D03*
X031965Y010000D03*
X031965Y009985D03*
X031965Y009970D03*
X031965Y009955D03*
X031965Y009940D03*
X031965Y009925D03*
X031965Y009910D03*
X031965Y009895D03*
X031965Y009880D03*
X031965Y009865D03*
X031965Y009850D03*
X031965Y009835D03*
X031965Y009820D03*
X031965Y009805D03*
X031965Y009790D03*
X031965Y009775D03*
X031965Y009760D03*
X031965Y009745D03*
X031965Y009730D03*
X031965Y009715D03*
X031965Y009700D03*
X031965Y009685D03*
X031965Y009670D03*
X031965Y009655D03*
X031965Y009490D03*
X031965Y009475D03*
X031965Y009325D03*
X031965Y009310D03*
X031965Y009295D03*
X031965Y009280D03*
X031965Y009265D03*
X031965Y009250D03*
X031965Y009235D03*
X031965Y009220D03*
X031965Y009205D03*
X031965Y009190D03*
X031965Y009175D03*
X031965Y009160D03*
X031965Y009145D03*
X031965Y009130D03*
X031965Y009115D03*
X031965Y009100D03*
X031965Y009085D03*
X031965Y009070D03*
X031965Y009055D03*
X031965Y009040D03*
X031965Y009025D03*
X031965Y009010D03*
X031965Y008995D03*
X031965Y008980D03*
X031965Y008965D03*
X031965Y008950D03*
X031965Y008935D03*
X031965Y008920D03*
X031965Y008905D03*
X031965Y008890D03*
X031965Y008875D03*
X031965Y008860D03*
X031965Y008845D03*
X031965Y008830D03*
X031965Y008815D03*
X031965Y008800D03*
X031965Y008785D03*
X031965Y008770D03*
X031965Y008755D03*
X031965Y008740D03*
X031965Y008725D03*
X031965Y008710D03*
X031965Y008695D03*
X031965Y008680D03*
X031965Y008665D03*
X031965Y008650D03*
X031965Y008635D03*
X031965Y008620D03*
X031965Y008605D03*
X031965Y008590D03*
X032700Y009535D03*
X032700Y009550D03*
X032685Y009595D03*
X032685Y009610D03*
X032685Y009625D03*
X032685Y009640D03*
X032685Y009655D03*
X032685Y009955D03*
X032685Y009970D03*
X032685Y009985D03*
X032685Y010000D03*
X032685Y010015D03*
X032685Y010030D03*
X032685Y010045D03*
X032685Y010060D03*
X032685Y010075D03*
X032685Y010090D03*
X032685Y010105D03*
X032685Y010120D03*
X032685Y010135D03*
X032685Y010150D03*
X032685Y010165D03*
X033480Y010060D03*
X033495Y010075D03*
X033480Y009580D03*
X031275Y009745D03*
X035715Y009370D03*
X035715Y009355D03*
X035715Y009340D03*
X035715Y009325D03*
X035715Y009310D03*
X035715Y009295D03*
X035715Y009280D03*
X035715Y009265D03*
X035715Y009250D03*
X035715Y009235D03*
X035715Y009220D03*
X035715Y009205D03*
X035715Y009190D03*
X035715Y009175D03*
X035715Y009160D03*
X036285Y007465D03*
X036510Y006850D03*
D63*
X034523Y009580D03*
X032228Y009655D03*
X035768Y010660D03*
D64*
X034155Y010075D03*
X034155Y010060D03*
X034155Y010045D03*
X034155Y010030D03*
X034155Y010015D03*
X034155Y010000D03*
X034155Y009985D03*
X034155Y009970D03*
X034155Y009955D03*
X034155Y009940D03*
X034155Y009925D03*
X034155Y009910D03*
X034155Y009895D03*
X034155Y009880D03*
X034155Y009865D03*
X034155Y009850D03*
X034155Y009835D03*
X034155Y009820D03*
X034155Y009805D03*
X034155Y009790D03*
X034155Y009775D03*
X034155Y009760D03*
X034155Y009745D03*
X034155Y009730D03*
X034935Y009700D03*
X035685Y009685D03*
X034350Y009220D03*
X031935Y009340D03*
X031935Y009355D03*
X031200Y009565D03*
X031185Y009550D03*
X030465Y009595D03*
X029730Y009685D03*
X028995Y009625D03*
X029130Y009220D03*
X028260Y010105D03*
X028950Y010510D03*
X028995Y010645D03*
X030480Y010255D03*
X031215Y010255D03*
X031230Y010240D03*
X031260Y010165D03*
X031275Y010135D03*
X031290Y010120D03*
X031290Y010105D03*
X031305Y010075D03*
X031305Y010060D03*
X032715Y010270D03*
X026970Y010465D03*
D65*
X028260Y010285D03*
X028935Y010495D03*
X030510Y010270D03*
X031335Y009955D03*
X031335Y009940D03*
X031335Y009925D03*
X032010Y009610D03*
X032010Y009595D03*
X031920Y009445D03*
X031920Y009430D03*
X031920Y009415D03*
X032730Y010300D03*
X033315Y010630D03*
X034905Y009985D03*
X034905Y009970D03*
X034935Y009655D03*
X035670Y009640D03*
X035670Y009625D03*
X035670Y009610D03*
X034350Y009235D03*
X034170Y009580D03*
X034170Y009595D03*
X034170Y009640D03*
X034170Y009655D03*
X032535Y008005D03*
X029130Y009235D03*
X029715Y009610D03*
X029715Y009625D03*
X029715Y009640D03*
X028170Y009475D03*
X027555Y009475D03*
X036300Y007495D03*
D66*
X032535Y008020D03*
X034350Y009250D03*
X034185Y009565D03*
X034890Y009895D03*
X034890Y009910D03*
X035655Y009595D03*
X033300Y010615D03*
X032745Y010330D03*
X031335Y009895D03*
X031335Y009880D03*
X032025Y009535D03*
X032025Y009520D03*
X032025Y009505D03*
X029700Y009595D03*
X029130Y009250D03*
X027540Y010345D03*
X028920Y010480D03*
X030840Y010630D03*
D67*
X028845Y010405D03*
X027855Y010615D03*
X029145Y009340D03*
X030825Y009220D03*
X032820Y009760D03*
X033285Y009955D03*
X034365Y009355D03*
X035115Y009355D03*
X035115Y009340D03*
X033285Y010540D03*
D68*
X033300Y010555D03*
X030855Y010600D03*
X028860Y010420D03*
X029145Y009325D03*
X033090Y009175D03*
X033090Y009160D03*
X034365Y009325D03*
X034920Y009580D03*
X035115Y009325D03*
D69*
X032843Y009775D03*
X030833Y009235D03*
X029153Y009385D03*
X027863Y010600D03*
X030848Y010570D03*
D70*
X030848Y010585D03*
X029153Y009355D03*
X027848Y009220D03*
D71*
X027863Y010585D03*
X030848Y010555D03*
D72*
X028875Y010435D03*
X029145Y009295D03*
X033330Y009970D03*
X033300Y010570D03*
X035115Y009295D03*
D73*
X033090Y009295D03*
X030825Y009370D03*
X027855Y009370D03*
X027765Y010570D03*
D74*
X027758Y010555D03*
X027848Y010435D03*
X027863Y009430D03*
X030833Y009430D03*
X033083Y009355D03*
X030833Y010390D03*
D75*
X030840Y010540D03*
X030840Y009280D03*
X027855Y009265D03*
D76*
X027750Y010540D03*
X033030Y009910D03*
D77*
X033285Y010525D03*
X034365Y009370D03*
X035115Y009370D03*
X033075Y009190D03*
X029145Y009370D03*
X036285Y006820D03*
D78*
X033090Y009220D03*
X032895Y009805D03*
X030840Y010525D03*
X027855Y009280D03*
D79*
X027533Y009490D03*
X027518Y009505D03*
X028193Y009490D03*
X028208Y009505D03*
X028988Y009640D03*
X029738Y009700D03*
X029738Y009715D03*
X029738Y009730D03*
X029738Y009745D03*
X030443Y009640D03*
X030443Y009625D03*
X030458Y009610D03*
X031208Y009580D03*
X031223Y009595D03*
X031298Y010090D03*
X031268Y010150D03*
X031253Y010180D03*
X031253Y010195D03*
X031238Y010225D03*
X030473Y010240D03*
X028958Y010525D03*
X027488Y010315D03*
X027473Y010300D03*
X032708Y010255D03*
X032708Y010240D03*
X033443Y010030D03*
X034163Y010090D03*
X034163Y010105D03*
X034163Y010120D03*
X034163Y010135D03*
X034163Y010300D03*
X034928Y009730D03*
X034928Y009715D03*
X035693Y009715D03*
X035693Y009700D03*
X035693Y009730D03*
X035108Y009205D03*
X033443Y009505D03*
X032738Y009475D03*
X032708Y009685D03*
X036293Y007480D03*
D80*
X029370Y009415D03*
X029370Y009430D03*
X029370Y009445D03*
X027720Y010525D03*
X033075Y010480D03*
X033075Y010465D03*
D81*
X033285Y010510D03*
X029160Y009400D03*
X027855Y009235D03*
D82*
X030840Y009310D03*
X033090Y009235D03*
X030840Y010510D03*
D83*
X027698Y010510D03*
D84*
X027675Y010495D03*
D85*
X027188Y009760D03*
X027188Y009745D03*
X027863Y009325D03*
X030833Y009325D03*
X030833Y010480D03*
D86*
X027645Y010480D03*
D87*
X027863Y009340D03*
X030833Y009340D03*
X030833Y010465D03*
D88*
X033083Y010450D03*
X033083Y010435D03*
X029363Y009565D03*
X029363Y009550D03*
X029363Y009535D03*
X029363Y009520D03*
X029363Y009505D03*
X029363Y009490D03*
X029363Y009475D03*
X029363Y009460D03*
D89*
X030833Y009385D03*
X032978Y009835D03*
X033083Y009310D03*
X030833Y010435D03*
D90*
X033090Y010420D03*
X033090Y010405D03*
D91*
X033015Y009880D03*
X030825Y009445D03*
X027855Y009445D03*
X027855Y010420D03*
D92*
X027848Y010405D03*
X027863Y009460D03*
X030833Y009460D03*
X033023Y009895D03*
X033083Y009400D03*
X033083Y009385D03*
X033083Y009370D03*
X030833Y010360D03*
X030833Y010375D03*
D93*
X033098Y010375D03*
X033098Y010390D03*
D94*
X030833Y009520D03*
X030833Y009505D03*
X033083Y009460D03*
X027848Y010360D03*
D95*
X027518Y010330D03*
X028253Y010090D03*
X029018Y009595D03*
X030503Y009550D03*
X031163Y009535D03*
X031343Y009910D03*
X031178Y010285D03*
X030518Y010285D03*
X032018Y009580D03*
X032018Y009565D03*
X032018Y009550D03*
X031913Y009460D03*
X030848Y009190D03*
X033413Y009475D03*
X033413Y010015D03*
X032738Y010315D03*
X034898Y009955D03*
X034898Y009940D03*
X034898Y009925D03*
X034928Y009640D03*
X035108Y009235D03*
X033818Y007705D03*
D96*
X033090Y009445D03*
X033045Y009925D03*
X033045Y009940D03*
X030840Y010315D03*
D97*
X029678Y009580D03*
X029048Y009580D03*
X028223Y010060D03*
X027863Y009190D03*
X030848Y009205D03*
X034358Y009265D03*
X035633Y009580D03*
D98*
X027870Y009910D03*
X027870Y009925D03*
X027870Y009940D03*
X027870Y009955D03*
X027870Y009970D03*
X027870Y009985D03*
X027870Y010000D03*
X027870Y010015D03*
X027870Y010030D03*
D99*
X027855Y009415D03*
X030825Y009415D03*
X033000Y009865D03*
X033075Y009340D03*
D100*
X027788Y009820D03*
D101*
X027750Y009805D03*
D102*
X027863Y009250D03*
X032873Y009790D03*
D103*
X027623Y009790D03*
X027623Y009775D03*
D104*
X035205Y009565D03*
D105*
X034920Y009550D03*
X034920Y009535D03*
X034920Y009520D03*
D106*
X034913Y009505D03*
X034913Y009490D03*
X034913Y009475D03*
X034913Y009460D03*
X034913Y009445D03*
X034913Y009430D03*
X034913Y009415D03*
D107*
X034965Y009400D03*
X034965Y009385D03*
D108*
X034358Y009340D03*
D109*
X027863Y009310D03*
D110*
X030848Y009295D03*
D111*
X027863Y009295D03*
D112*
X033090Y009265D03*
D113*
X035700Y010020D03*
D114*
X035715Y009265D03*
D115*
X034945Y010020D03*
D116*
X034165Y010100D03*
D117*
X031965Y009625D03*
D118*
X029755Y009905D03*
D119*
X028970Y010060D03*
D120*
X029500Y011350D03*
X032220Y011350D03*
D121*
X032220Y011010D03*
D122*
X033285Y011270D03*
D123*
X031795Y011385D03*
D124*
X031585Y011350D03*
D125*
X031355Y011385D03*
D126*
X030935Y011295D03*
D127*
X030840Y011185D03*
X028290Y011185D03*
D128*
X031030Y011185D03*
D129*
X030245Y011265D03*
D130*
X029805Y011355D03*
X027475Y011355D03*
D131*
X029500Y011015D03*
D132*
X028405Y011275D03*
D133*
X028505Y011185D03*
D134*
X028135Y011350D03*
D135*
X028140Y011010D03*
D136*
X027245Y011390D03*
D137*
X032690Y010020D03*
D138*
X027835Y009895D03*
D139*
X032955Y011345D03*
D140*
X028645Y011365D03*
D141*
X026750Y010095D03*
M02*
