G75*
%MOIN*%
%OFA0B0*%
%FSLAX24Y24*%
%IPPOS*%
%LPD*%
%AMOC8*
5,1,8,0,0,1.08239X$1,22.5*
%
%ADD10R,0.0740X0.0740*%
%ADD11C,0.0740*%
%ADD12R,0.0630X0.0709*%
%ADD13R,0.0260X0.0800*%
%ADD14R,0.0800X0.0260*%
%ADD15R,0.0950X0.0950*%
%ADD16C,0.0950*%
%ADD17R,0.0800X0.0800*%
%ADD18C,0.0800*%
%ADD19R,0.0709X0.0630*%
%ADD20C,0.0160*%
%ADD21C,0.0376*%
D10*
X010050Y012680D03*
D11*
X009050Y012680D03*
X008050Y012680D03*
X007050Y012680D03*
X006050Y012680D03*
X005050Y012680D03*
X004050Y012680D03*
X003050Y012680D03*
X003050Y006680D03*
X002050Y006680D03*
X004050Y006680D03*
X005050Y006680D03*
X006050Y006680D03*
X007050Y006680D03*
X008050Y006680D03*
X009050Y006680D03*
X010050Y006680D03*
D12*
X011629Y014180D03*
X012731Y014180D03*
X013629Y014180D03*
X014731Y014180D03*
X015879Y014180D03*
X016981Y014180D03*
X017879Y014180D03*
X018981Y014180D03*
X020129Y014180D03*
X021231Y014180D03*
X022129Y014180D03*
X023231Y014180D03*
X024379Y014180D03*
X025481Y014180D03*
X026379Y014180D03*
X027481Y014180D03*
X028629Y014180D03*
X029731Y014180D03*
X030629Y014180D03*
X031731Y014180D03*
X032879Y014180D03*
X033981Y014180D03*
X034879Y014180D03*
X035981Y014180D03*
X037129Y014180D03*
X038231Y014180D03*
X039129Y014180D03*
X040231Y014180D03*
D13*
X024930Y011010D03*
X024430Y011010D03*
X023930Y011010D03*
X023430Y011010D03*
X022930Y011010D03*
X022430Y011010D03*
X021930Y011010D03*
X021430Y011010D03*
X020930Y011010D03*
X020930Y007150D03*
X021430Y007150D03*
X021930Y007150D03*
X022430Y007150D03*
X022930Y007150D03*
X023430Y007150D03*
X023930Y007150D03*
X024430Y007150D03*
X024930Y007150D03*
D14*
X033250Y005790D03*
X033250Y005290D03*
X033250Y004790D03*
X033250Y004290D03*
X033250Y003790D03*
X033250Y003290D03*
X033250Y002790D03*
X033250Y002290D03*
X033250Y001790D03*
X037110Y001790D03*
X037110Y002290D03*
X037110Y002790D03*
X037110Y003290D03*
X037110Y003790D03*
X037110Y004290D03*
X037110Y004790D03*
X037110Y005290D03*
X037110Y005790D03*
D15*
X019820Y001580D03*
X015680Y001580D03*
X015180Y016180D03*
X019310Y016180D03*
X023460Y016180D03*
X027590Y016180D03*
X031720Y016180D03*
X035850Y016180D03*
X039980Y016180D03*
X044110Y016180D03*
D16*
X042732Y016180D03*
X041354Y016180D03*
X038602Y016180D03*
X037224Y016180D03*
X034472Y016180D03*
X033094Y016180D03*
X030342Y016180D03*
X028964Y016180D03*
X026212Y016180D03*
X024834Y016180D03*
X022082Y016180D03*
X020704Y016180D03*
X017932Y016180D03*
X016554Y016180D03*
X013802Y016180D03*
X012424Y016180D03*
X012924Y001580D03*
X014302Y001580D03*
X017064Y001580D03*
X018442Y001580D03*
D17*
X043580Y001050D03*
X043580Y003820D03*
X043580Y006580D03*
X043580Y009330D03*
X043580Y012080D03*
D18*
X043580Y010708D03*
X043580Y007958D03*
X043580Y005198D03*
X043580Y002428D03*
X043580Y013458D03*
D19*
X040880Y012681D03*
X039980Y012681D03*
X039980Y011579D03*
X040880Y011579D03*
D20*
X000410Y017442D02*
X000410Y000410D01*
X001215Y000410D01*
X001138Y000487D01*
X001019Y000775D01*
X001019Y001085D01*
X001138Y001373D01*
X001357Y001592D01*
X001645Y001711D01*
X001955Y001711D01*
X002243Y001592D01*
X002462Y001373D01*
X002581Y001085D01*
X002581Y000775D01*
X002462Y000487D01*
X002385Y000410D01*
X009715Y000410D01*
X009638Y000487D01*
X009519Y000775D01*
X009519Y001085D01*
X009638Y001373D01*
X009857Y001592D01*
X010145Y001711D01*
X010455Y001711D01*
X010743Y001592D01*
X010962Y001373D01*
X011081Y001085D01*
X011081Y000775D01*
X010962Y000487D01*
X010885Y000410D01*
X044920Y000410D01*
X044920Y017442D01*
X000410Y017442D01*
X000410Y017298D02*
X044920Y017298D01*
X044920Y017140D02*
X000410Y017140D01*
X000410Y016981D02*
X044920Y016981D01*
X044920Y016823D02*
X044655Y016823D01*
X044654Y016823D02*
X044609Y016835D01*
X044148Y016835D01*
X044148Y016218D01*
X044072Y016218D01*
X044072Y016142D01*
X043455Y016142D01*
X043455Y015681D01*
X043467Y015636D01*
X043491Y015594D01*
X043524Y015561D01*
X043566Y015537D01*
X043611Y015525D01*
X044072Y015525D01*
X044072Y016142D01*
X044148Y016142D01*
X044148Y016218D01*
X044765Y016218D01*
X044765Y016679D01*
X044753Y016724D01*
X044729Y016766D01*
X044696Y016799D01*
X044654Y016823D01*
X044765Y016664D02*
X044920Y016664D01*
X044920Y016506D02*
X044765Y016506D01*
X044765Y016347D02*
X044920Y016347D01*
X044920Y016189D02*
X044148Y016189D01*
X044148Y016142D02*
X044765Y016142D01*
X044765Y015681D01*
X044753Y015636D01*
X044729Y015594D01*
X044696Y015561D01*
X044654Y015537D01*
X044609Y015525D01*
X044148Y015525D01*
X044148Y016142D01*
X044072Y016189D02*
X043407Y016189D01*
X043455Y016218D02*
X044072Y016218D01*
X044072Y016835D01*
X043611Y016835D01*
X043566Y016823D01*
X043524Y016799D01*
X043491Y016766D01*
X043467Y016724D01*
X043455Y016679D01*
X043455Y016218D01*
X043407Y016314D02*
X043407Y016046D01*
X043304Y015798D01*
X043114Y015608D01*
X043012Y015565D01*
X043012Y014976D01*
X042969Y014873D01*
X042891Y014795D01*
X041292Y013196D01*
X041317Y013196D01*
X041434Y013079D01*
X041434Y012283D01*
X041317Y012166D01*
X040443Y012166D01*
X040408Y012201D01*
X040404Y012198D01*
X040358Y012186D01*
X040057Y012186D01*
X040057Y012604D01*
X039903Y012604D01*
X039903Y012186D01*
X039602Y012186D01*
X039556Y012198D01*
X039515Y012222D01*
X039482Y012256D01*
X039458Y012297D01*
X039446Y012343D01*
X039446Y012604D01*
X039903Y012604D01*
X039903Y012759D01*
X039903Y013176D01*
X039602Y013176D01*
X039556Y013164D01*
X039515Y013140D01*
X039482Y013107D01*
X039458Y013066D01*
X039446Y013020D01*
X039446Y012759D01*
X039903Y012759D01*
X040057Y012759D01*
X040057Y013176D01*
X040358Y013176D01*
X040404Y013164D01*
X040408Y013161D01*
X040443Y013196D01*
X040600Y013196D01*
X040600Y013236D01*
X040643Y013339D01*
X042452Y015148D01*
X042452Y015565D01*
X042350Y015608D01*
X042160Y015798D01*
X042057Y016046D01*
X042057Y016314D01*
X042160Y016562D01*
X042350Y016752D01*
X042598Y016855D01*
X042866Y016855D01*
X043114Y016752D01*
X043304Y016562D01*
X043407Y016314D01*
X043393Y016347D02*
X043455Y016347D01*
X043455Y016506D02*
X043328Y016506D01*
X043203Y016664D02*
X043455Y016664D01*
X043565Y016823D02*
X042945Y016823D01*
X042519Y016823D02*
X041567Y016823D01*
X041488Y016855D02*
X041220Y016855D01*
X040972Y016752D01*
X040782Y016562D01*
X040679Y016314D01*
X040679Y016046D01*
X040782Y015798D01*
X040972Y015608D01*
X041220Y015505D01*
X041488Y015505D01*
X041736Y015608D01*
X041926Y015798D01*
X042029Y016046D01*
X042029Y016314D01*
X041926Y016562D01*
X041736Y016752D01*
X041488Y016855D01*
X041141Y016823D02*
X040525Y016823D01*
X040524Y016823D02*
X040479Y016835D01*
X040018Y016835D01*
X040018Y016218D01*
X039942Y016218D01*
X039942Y016142D01*
X039325Y016142D01*
X039325Y015681D01*
X039337Y015636D01*
X039361Y015594D01*
X039394Y015561D01*
X039436Y015537D01*
X039481Y015525D01*
X039942Y015525D01*
X039942Y016142D01*
X040018Y016142D01*
X040018Y016218D01*
X040635Y016218D01*
X040635Y016679D01*
X040623Y016724D01*
X040599Y016766D01*
X040566Y016799D01*
X040524Y016823D01*
X040635Y016664D02*
X040884Y016664D01*
X040758Y016506D02*
X040635Y016506D01*
X040635Y016347D02*
X040693Y016347D01*
X040679Y016189D02*
X040018Y016189D01*
X040018Y016142D02*
X040635Y016142D01*
X040635Y015681D01*
X040623Y015636D01*
X040599Y015594D01*
X040566Y015561D01*
X040524Y015537D01*
X040479Y015525D01*
X040018Y015525D01*
X040018Y016142D01*
X039942Y016189D02*
X039277Y016189D01*
X039325Y016218D02*
X039942Y016218D01*
X039942Y016835D01*
X039481Y016835D01*
X039436Y016823D01*
X039394Y016799D01*
X039361Y016766D01*
X039337Y016724D01*
X039325Y016679D01*
X039325Y016218D01*
X039277Y016314D02*
X039277Y016046D01*
X039174Y015798D01*
X038984Y015608D01*
X038866Y015559D01*
X038839Y015495D01*
X038761Y015416D01*
X038079Y014734D01*
X038629Y014734D01*
X038680Y014683D01*
X038731Y014734D01*
X039527Y014734D01*
X039644Y014617D01*
X039644Y013743D01*
X039527Y013626D01*
X038731Y013626D01*
X038680Y013677D01*
X038629Y013626D01*
X038073Y013626D01*
X036407Y011960D01*
X039426Y011960D01*
X039426Y011977D01*
X039543Y012094D01*
X040417Y012094D01*
X040430Y012081D01*
X040443Y012094D01*
X041317Y012094D01*
X041434Y011977D01*
X041434Y011181D01*
X041317Y011064D01*
X040443Y011064D01*
X040430Y011077D01*
X040417Y011064D01*
X039543Y011064D01*
X039426Y011181D01*
X039426Y011400D01*
X025240Y011400D01*
X025240Y011010D01*
X024930Y011010D01*
X024930Y011010D01*
X025240Y011010D01*
X025240Y010586D01*
X025228Y010541D01*
X025204Y010499D01*
X025171Y010466D01*
X025129Y010442D01*
X025084Y010430D01*
X024930Y010430D01*
X024930Y011010D01*
X024930Y011010D01*
X024930Y010430D01*
X024776Y010430D01*
X024731Y010442D01*
X024695Y010463D01*
X024643Y010410D01*
X024217Y010410D01*
X024180Y010447D01*
X024143Y010410D01*
X023717Y010410D01*
X023680Y010447D01*
X023643Y010410D01*
X023217Y010410D01*
X023180Y010447D01*
X023143Y010410D01*
X022717Y010410D01*
X022680Y010447D01*
X022643Y010410D01*
X022217Y010410D01*
X022180Y010447D01*
X022143Y010410D01*
X021717Y010410D01*
X021680Y010447D01*
X021643Y010410D01*
X021217Y010410D01*
X021180Y010447D01*
X021143Y010410D01*
X020717Y010410D01*
X020600Y010527D01*
X020600Y010730D01*
X016743Y010730D01*
X016640Y010773D01*
X013787Y013626D01*
X013231Y013626D01*
X013180Y013677D01*
X013129Y013626D01*
X012333Y013626D01*
X012216Y013743D01*
X012216Y014320D01*
X012144Y014248D01*
X012144Y013743D01*
X012027Y013626D01*
X011231Y013626D01*
X011114Y013743D01*
X011114Y014617D01*
X011231Y014734D01*
X011838Y014734D01*
X012645Y015541D01*
X012558Y015505D01*
X012290Y015505D01*
X012042Y015608D01*
X011852Y015798D01*
X011749Y016046D01*
X011749Y016314D01*
X011852Y016562D01*
X012042Y016752D01*
X012290Y016855D01*
X012558Y016855D01*
X012806Y016752D01*
X012996Y016562D01*
X013099Y016314D01*
X013099Y016046D01*
X013063Y015959D01*
X013134Y016030D01*
X013127Y016046D01*
X013127Y016314D01*
X013230Y016562D01*
X013420Y016752D01*
X013668Y016855D01*
X013936Y016855D01*
X014184Y016752D01*
X014374Y016562D01*
X014477Y016314D01*
X014477Y016046D01*
X014374Y015798D01*
X014184Y015608D01*
X013936Y015505D01*
X013668Y015505D01*
X013479Y015583D01*
X012630Y014734D01*
X013129Y014734D01*
X013180Y014683D01*
X013231Y014734D01*
X014027Y014734D01*
X014144Y014617D01*
X014144Y014061D01*
X014236Y013969D01*
X014236Y014103D01*
X014654Y014103D01*
X014654Y014257D01*
X014236Y014257D01*
X014236Y014558D01*
X014248Y014604D01*
X014272Y014645D01*
X014306Y014678D01*
X014347Y014702D01*
X014393Y014714D01*
X014654Y014714D01*
X014654Y014257D01*
X014809Y014257D01*
X015226Y014257D01*
X015226Y014558D01*
X015214Y014604D01*
X015190Y014645D01*
X015157Y014678D01*
X015116Y014702D01*
X015070Y014714D01*
X014809Y014714D01*
X014809Y014257D01*
X014809Y014103D01*
X015226Y014103D01*
X015226Y013802D01*
X015214Y013756D01*
X015190Y013715D01*
X015157Y013682D01*
X015116Y013658D01*
X015070Y013646D01*
X014809Y013646D01*
X014809Y014103D01*
X014654Y014103D01*
X014654Y013646D01*
X014559Y013646D01*
X016915Y011290D01*
X020600Y011290D01*
X020600Y011493D01*
X020717Y011610D01*
X020954Y011610D01*
X020664Y011900D01*
X019823Y011900D01*
X019720Y011943D01*
X018037Y013626D01*
X017481Y013626D01*
X017430Y013677D01*
X017379Y013626D01*
X016583Y013626D01*
X016466Y013743D01*
X016466Y014371D01*
X016394Y014299D01*
X016394Y013743D01*
X016277Y013626D01*
X015481Y013626D01*
X015364Y013743D01*
X015364Y014617D01*
X015481Y014734D01*
X016037Y014734D01*
X016892Y015589D01*
X016688Y015505D01*
X016420Y015505D01*
X016172Y015608D01*
X015982Y015798D01*
X015879Y016046D01*
X015879Y016314D01*
X015982Y016562D01*
X016172Y016752D01*
X016420Y016855D01*
X016688Y016855D01*
X016936Y016752D01*
X017126Y016562D01*
X017229Y016314D01*
X017229Y016046D01*
X017145Y015842D01*
X017284Y015981D01*
X017257Y016046D01*
X017257Y016314D01*
X017360Y016562D01*
X017550Y016752D01*
X017798Y016855D01*
X018066Y016855D01*
X018314Y016752D01*
X018504Y016562D01*
X018607Y016314D01*
X018607Y016046D01*
X018504Y015798D01*
X018314Y015608D01*
X018066Y015505D01*
X017798Y015505D01*
X017658Y015563D01*
X016829Y014734D01*
X017379Y014734D01*
X017430Y014683D01*
X017481Y014734D01*
X018277Y014734D01*
X018394Y014617D01*
X018394Y014061D01*
X018486Y013969D01*
X018486Y014103D01*
X018904Y014103D01*
X018904Y014257D01*
X018486Y014257D01*
X018486Y014558D01*
X018498Y014604D01*
X018522Y014645D01*
X018556Y014678D01*
X018597Y014702D01*
X018643Y014714D01*
X018904Y014714D01*
X018904Y014257D01*
X019059Y014257D01*
X019476Y014257D01*
X019476Y014558D01*
X019464Y014604D01*
X019440Y014645D01*
X019407Y014678D01*
X019366Y014702D01*
X019320Y014714D01*
X019059Y014714D01*
X019059Y014257D01*
X019059Y014103D01*
X019476Y014103D01*
X019476Y013802D01*
X019464Y013756D01*
X019440Y013715D01*
X019407Y013682D01*
X019366Y013658D01*
X019320Y013646D01*
X019059Y013646D01*
X019059Y014103D01*
X018904Y014103D01*
X018904Y013646D01*
X018809Y013646D01*
X019995Y012460D01*
X020836Y012460D01*
X020939Y012417D01*
X021017Y012339D01*
X021650Y011706D01*
X021650Y013647D01*
X021629Y013626D01*
X020833Y013626D01*
X020716Y013743D01*
X020716Y014371D01*
X020644Y014299D01*
X020644Y013743D01*
X020527Y013626D01*
X019731Y013626D01*
X019614Y013743D01*
X019614Y014617D01*
X019731Y014734D01*
X020287Y014734D01*
X021463Y015910D01*
X021407Y016046D01*
X021407Y016314D01*
X021510Y016562D01*
X021700Y016752D01*
X021948Y016855D01*
X022216Y016855D01*
X022464Y016752D01*
X022654Y016562D01*
X022757Y016314D01*
X022757Y016046D01*
X022654Y015798D01*
X022464Y015608D01*
X022216Y015505D01*
X021948Y015505D01*
X021878Y015534D01*
X021079Y014734D01*
X021629Y014734D01*
X021680Y014683D01*
X021731Y014734D01*
X022527Y014734D01*
X022644Y014617D01*
X022644Y013743D01*
X022527Y013626D01*
X022210Y013626D01*
X022210Y011706D01*
X023621Y013117D01*
X023724Y013160D01*
X024065Y013160D01*
X024531Y013626D01*
X023981Y013626D01*
X023864Y013743D01*
X023864Y014617D01*
X023981Y014734D01*
X024537Y014734D01*
X025628Y015825D01*
X025537Y016046D01*
X025537Y016314D01*
X025640Y016562D01*
X025830Y016752D01*
X026078Y016855D01*
X026346Y016855D01*
X026594Y016752D01*
X026784Y016562D01*
X026887Y016314D01*
X026887Y016046D01*
X026784Y015798D01*
X026594Y015608D01*
X026346Y015505D01*
X026100Y015505D01*
X025329Y014734D01*
X025879Y014734D01*
X025930Y014683D01*
X025981Y014734D01*
X026777Y014734D01*
X026894Y014617D01*
X026894Y013743D01*
X026777Y013626D01*
X025981Y013626D01*
X025930Y013677D01*
X025879Y013626D01*
X025323Y013626D01*
X024557Y012860D01*
X028015Y012860D01*
X028781Y013626D01*
X028231Y013626D01*
X028114Y013743D01*
X028114Y014617D01*
X028231Y014734D01*
X028787Y014734D01*
X029810Y015757D01*
X029770Y015798D01*
X029667Y016046D01*
X029667Y016314D01*
X029770Y016562D01*
X029960Y016752D01*
X030208Y016855D01*
X030476Y016855D01*
X030724Y016752D01*
X030914Y016562D01*
X031017Y016314D01*
X031017Y016046D01*
X030914Y015798D01*
X030724Y015608D01*
X030476Y015505D01*
X030350Y015505D01*
X029579Y014734D01*
X030129Y014734D01*
X030180Y014683D01*
X030231Y014734D01*
X031027Y014734D01*
X031144Y014617D01*
X031144Y013743D01*
X031027Y013626D01*
X030231Y013626D01*
X030180Y013677D01*
X030129Y013626D01*
X029573Y013626D01*
X028507Y012560D01*
X031965Y012560D01*
X033031Y013626D01*
X032481Y013626D01*
X032364Y013743D01*
X032364Y014617D01*
X032481Y014734D01*
X033037Y014734D01*
X034000Y015697D01*
X033900Y015798D01*
X033797Y016046D01*
X033797Y016314D01*
X033900Y016562D01*
X034090Y016752D01*
X034338Y016855D01*
X034606Y016855D01*
X034854Y016752D01*
X035044Y016562D01*
X035147Y016314D01*
X035147Y016046D01*
X035044Y015798D01*
X034854Y015608D01*
X034606Y015505D01*
X034600Y015505D01*
X033829Y014734D01*
X034379Y014734D01*
X034430Y014683D01*
X034481Y014734D01*
X035277Y014734D01*
X035394Y014617D01*
X035394Y013743D01*
X035277Y013626D01*
X034481Y013626D01*
X034430Y013677D01*
X034379Y013626D01*
X033823Y013626D01*
X032457Y012260D01*
X035915Y012260D01*
X037281Y013626D01*
X036731Y013626D01*
X036614Y013743D01*
X036614Y014617D01*
X036731Y014734D01*
X037287Y014734D01*
X038190Y015637D01*
X038030Y015798D01*
X037927Y016046D01*
X037927Y016314D01*
X038030Y016562D01*
X038220Y016752D01*
X038468Y016855D01*
X038736Y016855D01*
X038984Y016752D01*
X039174Y016562D01*
X039277Y016314D01*
X039263Y016347D02*
X039325Y016347D01*
X039325Y016506D02*
X039198Y016506D01*
X039073Y016664D02*
X039325Y016664D01*
X039435Y016823D02*
X038815Y016823D01*
X038389Y016823D02*
X037437Y016823D01*
X037358Y016855D02*
X037090Y016855D01*
X036842Y016752D01*
X036652Y016562D01*
X036549Y016314D01*
X036549Y016046D01*
X036652Y015798D01*
X036842Y015608D01*
X037090Y015505D01*
X037358Y015505D01*
X037606Y015608D01*
X037796Y015798D01*
X037899Y016046D01*
X037899Y016314D01*
X037796Y016562D01*
X037606Y016752D01*
X037358Y016855D01*
X037011Y016823D02*
X036395Y016823D01*
X036394Y016823D02*
X036349Y016835D01*
X035888Y016835D01*
X035888Y016218D01*
X035812Y016218D01*
X035812Y016142D01*
X035195Y016142D01*
X035195Y015681D01*
X035207Y015636D01*
X035231Y015594D01*
X035264Y015561D01*
X035306Y015537D01*
X035351Y015525D01*
X035812Y015525D01*
X035812Y016142D01*
X035888Y016142D01*
X035888Y016218D01*
X036505Y016218D01*
X036505Y016679D01*
X036493Y016724D01*
X036469Y016766D01*
X036436Y016799D01*
X036394Y016823D01*
X036505Y016664D02*
X036754Y016664D01*
X036628Y016506D02*
X036505Y016506D01*
X036505Y016347D02*
X036563Y016347D01*
X036549Y016189D02*
X035888Y016189D01*
X035888Y016142D02*
X036505Y016142D01*
X036505Y015681D01*
X036493Y015636D01*
X036469Y015594D01*
X036436Y015561D01*
X036394Y015537D01*
X036349Y015525D01*
X035888Y015525D01*
X035888Y016142D01*
X035812Y016189D02*
X035147Y016189D01*
X035195Y016218D02*
X035812Y016218D01*
X035812Y016835D01*
X035351Y016835D01*
X035306Y016823D01*
X035264Y016799D01*
X035231Y016766D01*
X035207Y016724D01*
X035195Y016679D01*
X035195Y016218D01*
X035195Y016347D02*
X035133Y016347D01*
X035195Y016506D02*
X035068Y016506D01*
X034943Y016664D02*
X035195Y016664D01*
X035305Y016823D02*
X034685Y016823D01*
X034259Y016823D02*
X033307Y016823D01*
X033228Y016855D02*
X032960Y016855D01*
X032712Y016752D01*
X032522Y016562D01*
X032419Y016314D01*
X032419Y016046D01*
X032522Y015798D01*
X032712Y015608D01*
X032960Y015505D01*
X033228Y015505D01*
X033476Y015608D01*
X033666Y015798D01*
X033769Y016046D01*
X033769Y016314D01*
X033666Y016562D01*
X033476Y016752D01*
X033228Y016855D01*
X032881Y016823D02*
X032265Y016823D01*
X032264Y016823D02*
X032219Y016835D01*
X031758Y016835D01*
X031758Y016218D01*
X031682Y016218D01*
X031682Y016142D01*
X031065Y016142D01*
X031065Y015681D01*
X031077Y015636D01*
X031101Y015594D01*
X031134Y015561D01*
X031176Y015537D01*
X031221Y015525D01*
X031682Y015525D01*
X031682Y016142D01*
X031758Y016142D01*
X031758Y016218D01*
X032375Y016218D01*
X032375Y016679D01*
X032363Y016724D01*
X032339Y016766D01*
X032306Y016799D01*
X032264Y016823D01*
X032375Y016664D02*
X032624Y016664D01*
X032498Y016506D02*
X032375Y016506D01*
X032375Y016347D02*
X032433Y016347D01*
X032419Y016189D02*
X031758Y016189D01*
X031758Y016142D02*
X032375Y016142D01*
X032375Y015681D01*
X032363Y015636D01*
X032339Y015594D01*
X032306Y015561D01*
X032264Y015537D01*
X032219Y015525D01*
X031758Y015525D01*
X031758Y016142D01*
X031682Y016189D02*
X031017Y016189D01*
X031065Y016218D02*
X031682Y016218D01*
X031682Y016835D01*
X031221Y016835D01*
X031176Y016823D01*
X031134Y016799D01*
X031101Y016766D01*
X031077Y016724D01*
X031065Y016679D01*
X031065Y016218D01*
X031065Y016347D02*
X031003Y016347D01*
X031065Y016506D02*
X030938Y016506D01*
X030813Y016664D02*
X031065Y016664D01*
X031175Y016823D02*
X030555Y016823D01*
X030129Y016823D02*
X029177Y016823D01*
X029098Y016855D02*
X028830Y016855D01*
X028582Y016752D01*
X028392Y016562D01*
X028289Y016314D01*
X028289Y016046D01*
X028392Y015798D01*
X028582Y015608D01*
X028830Y015505D01*
X029098Y015505D01*
X029346Y015608D01*
X029536Y015798D01*
X029639Y016046D01*
X029639Y016314D01*
X029536Y016562D01*
X029346Y016752D01*
X029098Y016855D01*
X028751Y016823D02*
X028135Y016823D01*
X028134Y016823D02*
X028089Y016835D01*
X027628Y016835D01*
X027628Y016218D01*
X027552Y016218D01*
X027552Y016142D01*
X026935Y016142D01*
X026935Y015681D01*
X026947Y015636D01*
X026971Y015594D01*
X027004Y015561D01*
X027046Y015537D01*
X027091Y015525D01*
X027552Y015525D01*
X027552Y016142D01*
X027628Y016142D01*
X027628Y016218D01*
X028245Y016218D01*
X028245Y016679D01*
X028233Y016724D01*
X028209Y016766D01*
X028176Y016799D01*
X028134Y016823D01*
X028245Y016664D02*
X028494Y016664D01*
X028368Y016506D02*
X028245Y016506D01*
X028245Y016347D02*
X028303Y016347D01*
X028289Y016189D02*
X027628Y016189D01*
X027628Y016142D02*
X028245Y016142D01*
X028245Y015681D01*
X028233Y015636D01*
X028209Y015594D01*
X028176Y015561D01*
X028134Y015537D01*
X028089Y015525D01*
X027628Y015525D01*
X027628Y016142D01*
X027552Y016189D02*
X026887Y016189D01*
X026935Y016218D02*
X027552Y016218D01*
X027552Y016835D01*
X027091Y016835D01*
X027046Y016823D01*
X027004Y016799D01*
X026971Y016766D01*
X026947Y016724D01*
X026935Y016679D01*
X026935Y016218D01*
X026935Y016347D02*
X026873Y016347D01*
X026935Y016506D02*
X026808Y016506D01*
X026683Y016664D02*
X026935Y016664D01*
X027045Y016823D02*
X026425Y016823D01*
X025999Y016823D02*
X025047Y016823D01*
X024968Y016855D02*
X024700Y016855D01*
X024452Y016752D01*
X024262Y016562D01*
X024159Y016314D01*
X024159Y016046D01*
X024262Y015798D01*
X024452Y015608D01*
X024700Y015505D01*
X024968Y015505D01*
X025216Y015608D01*
X025406Y015798D01*
X025509Y016046D01*
X025509Y016314D01*
X025406Y016562D01*
X025216Y016752D01*
X024968Y016855D01*
X024621Y016823D02*
X024005Y016823D01*
X024004Y016823D02*
X023959Y016835D01*
X023498Y016835D01*
X023498Y016218D01*
X023422Y016218D01*
X023422Y016142D01*
X022805Y016142D01*
X022805Y015681D01*
X022817Y015636D01*
X022841Y015594D01*
X022874Y015561D01*
X022916Y015537D01*
X022961Y015525D01*
X023422Y015525D01*
X023422Y016142D01*
X023498Y016142D01*
X023498Y016218D01*
X024115Y016218D01*
X024115Y016679D01*
X024103Y016724D01*
X024079Y016766D01*
X024046Y016799D01*
X024004Y016823D01*
X024115Y016664D02*
X024364Y016664D01*
X024238Y016506D02*
X024115Y016506D01*
X024115Y016347D02*
X024173Y016347D01*
X024159Y016189D02*
X023498Y016189D01*
X023498Y016142D02*
X024115Y016142D01*
X024115Y015681D01*
X024103Y015636D01*
X024079Y015594D01*
X024046Y015561D01*
X024004Y015537D01*
X023959Y015525D01*
X023498Y015525D01*
X023498Y016142D01*
X023422Y016189D02*
X022757Y016189D01*
X022805Y016218D02*
X023422Y016218D01*
X023422Y016835D01*
X022961Y016835D01*
X022916Y016823D01*
X022874Y016799D01*
X022841Y016766D01*
X022817Y016724D01*
X022805Y016679D01*
X022805Y016218D01*
X022805Y016347D02*
X022743Y016347D01*
X022805Y016506D02*
X022678Y016506D01*
X022553Y016664D02*
X022805Y016664D01*
X022915Y016823D02*
X022295Y016823D01*
X021869Y016823D02*
X020917Y016823D01*
X020838Y016855D02*
X021086Y016752D01*
X021276Y016562D01*
X021379Y016314D01*
X021379Y016046D01*
X021276Y015798D01*
X021086Y015608D01*
X020838Y015505D01*
X020570Y015505D01*
X020322Y015608D01*
X020132Y015798D01*
X020029Y016046D01*
X020029Y016314D01*
X020132Y016562D01*
X020322Y016752D01*
X020570Y016855D01*
X020838Y016855D01*
X020491Y016823D02*
X019855Y016823D01*
X019854Y016823D02*
X019809Y016835D01*
X019348Y016835D01*
X019348Y016218D01*
X019272Y016218D01*
X019272Y016142D01*
X018655Y016142D01*
X018655Y015681D01*
X018667Y015636D01*
X018691Y015594D01*
X018724Y015561D01*
X018766Y015537D01*
X018811Y015525D01*
X019272Y015525D01*
X019272Y016142D01*
X019348Y016142D01*
X019348Y016218D01*
X019965Y016218D01*
X019965Y016679D01*
X019953Y016724D01*
X019929Y016766D01*
X019896Y016799D01*
X019854Y016823D01*
X019965Y016664D02*
X020234Y016664D01*
X020108Y016506D02*
X019965Y016506D01*
X019965Y016347D02*
X020043Y016347D01*
X020029Y016189D02*
X019348Y016189D01*
X019348Y016142D02*
X019965Y016142D01*
X019965Y015681D01*
X019953Y015636D01*
X019929Y015594D01*
X019896Y015561D01*
X019854Y015537D01*
X019809Y015525D01*
X019348Y015525D01*
X019348Y016142D01*
X019272Y016189D02*
X018607Y016189D01*
X018655Y016218D02*
X019272Y016218D01*
X019272Y016835D01*
X018811Y016835D01*
X018766Y016823D01*
X018724Y016799D01*
X018691Y016766D01*
X018667Y016724D01*
X018655Y016679D01*
X018655Y016218D01*
X018655Y016347D02*
X018593Y016347D01*
X018655Y016506D02*
X018528Y016506D01*
X018403Y016664D02*
X018655Y016664D01*
X018765Y016823D02*
X018145Y016823D01*
X017719Y016823D02*
X016767Y016823D01*
X017025Y016664D02*
X017461Y016664D01*
X017336Y016506D02*
X017150Y016506D01*
X017216Y016347D02*
X017271Y016347D01*
X017257Y016189D02*
X017229Y016189D01*
X017223Y016030D02*
X017264Y016030D01*
X017174Y015872D02*
X017157Y015872D01*
X016857Y015555D02*
X016808Y015555D01*
X016699Y015396D02*
X013292Y015396D01*
X013134Y015238D02*
X016540Y015238D01*
X016382Y015079D02*
X012975Y015079D01*
X012817Y014921D02*
X016223Y014921D01*
X016065Y014762D02*
X012658Y014762D01*
X012025Y014921D02*
X010914Y014921D01*
X010962Y014873D02*
X010743Y015092D01*
X010455Y015211D01*
X010145Y015211D01*
X009857Y015092D01*
X009638Y014873D01*
X009519Y014585D01*
X009519Y014275D01*
X009638Y013987D01*
X009857Y013768D01*
X010145Y013649D01*
X010455Y013649D01*
X010743Y013768D01*
X010962Y013987D01*
X011081Y014275D01*
X011081Y014585D01*
X010962Y014873D01*
X011008Y014762D02*
X011866Y014762D01*
X012183Y015079D02*
X010756Y015079D01*
X009844Y015079D02*
X002256Y015079D01*
X002243Y015092D02*
X001955Y015211D01*
X001645Y015211D01*
X001357Y015092D01*
X001138Y014873D01*
X001019Y014585D01*
X001019Y014275D01*
X001138Y013987D01*
X001357Y013768D01*
X001645Y013649D01*
X001955Y013649D01*
X002243Y013768D01*
X002462Y013987D01*
X002581Y014275D01*
X002581Y014585D01*
X002462Y014873D01*
X002243Y015092D01*
X002414Y014921D02*
X009686Y014921D01*
X009592Y014762D02*
X002508Y014762D01*
X002574Y014604D02*
X009526Y014604D01*
X009519Y014445D02*
X002581Y014445D01*
X002581Y014287D02*
X009519Y014287D01*
X009580Y014128D02*
X002520Y014128D01*
X002444Y013970D02*
X009656Y013970D01*
X009814Y013811D02*
X002286Y013811D01*
X001964Y013653D02*
X010136Y013653D01*
X010464Y013653D02*
X011204Y013653D01*
X011114Y013811D02*
X010786Y013811D01*
X010944Y013970D02*
X011114Y013970D01*
X011114Y014128D02*
X011020Y014128D01*
X011081Y014287D02*
X011114Y014287D01*
X011114Y014445D02*
X011081Y014445D01*
X011074Y014604D02*
X011114Y014604D01*
X011629Y014180D02*
X011680Y014180D01*
X013680Y016180D01*
X013802Y016180D01*
X014477Y016189D02*
X015142Y016189D01*
X015142Y016218D02*
X015142Y016142D01*
X014525Y016142D01*
X014525Y015681D01*
X014537Y015636D01*
X014561Y015594D01*
X014594Y015561D01*
X014636Y015537D01*
X014681Y015525D01*
X015142Y015525D01*
X015142Y016142D01*
X015218Y016142D01*
X015218Y016218D01*
X015142Y016218D01*
X014525Y016218D01*
X014525Y016679D01*
X014537Y016724D01*
X014561Y016766D01*
X014594Y016799D01*
X014636Y016823D01*
X014681Y016835D01*
X015142Y016835D01*
X015142Y016218D01*
X015218Y016218D02*
X015218Y016835D01*
X015679Y016835D01*
X015724Y016823D01*
X015766Y016799D01*
X015799Y016766D01*
X015823Y016724D01*
X015835Y016679D01*
X015835Y016218D01*
X015218Y016218D01*
X015218Y016189D02*
X015879Y016189D01*
X015835Y016142D02*
X015218Y016142D01*
X015218Y015525D01*
X015679Y015525D01*
X015724Y015537D01*
X015766Y015561D01*
X015799Y015594D01*
X015823Y015636D01*
X015835Y015681D01*
X015835Y016142D01*
X015835Y016030D02*
X015886Y016030D01*
X015835Y015872D02*
X015951Y015872D01*
X015835Y015713D02*
X016066Y015713D01*
X016300Y015555D02*
X015754Y015555D01*
X015218Y015555D02*
X015142Y015555D01*
X015142Y015713D02*
X015218Y015713D01*
X015218Y015872D02*
X015142Y015872D01*
X015142Y016030D02*
X015218Y016030D01*
X014525Y016030D02*
X014471Y016030D01*
X014525Y015872D02*
X014405Y015872D01*
X014290Y015713D02*
X014525Y015713D01*
X014606Y015555D02*
X014056Y015555D01*
X013548Y015555D02*
X013451Y015555D01*
X013134Y016030D02*
X013093Y016030D01*
X013099Y016189D02*
X013127Y016189D01*
X013141Y016347D02*
X013086Y016347D01*
X013020Y016506D02*
X013206Y016506D01*
X013331Y016664D02*
X012895Y016664D01*
X012637Y016823D02*
X013589Y016823D01*
X014015Y016823D02*
X014635Y016823D01*
X014525Y016664D02*
X014273Y016664D01*
X014398Y016506D02*
X014525Y016506D01*
X014525Y016347D02*
X014463Y016347D01*
X015142Y016347D02*
X015218Y016347D01*
X015218Y016506D02*
X015142Y016506D01*
X015142Y016664D02*
X015218Y016664D01*
X015218Y016823D02*
X015142Y016823D01*
X015725Y016823D02*
X016341Y016823D01*
X016084Y016664D02*
X015835Y016664D01*
X015835Y016506D02*
X015958Y016506D01*
X015893Y016347D02*
X015835Y016347D01*
X017649Y015555D02*
X017678Y015555D01*
X017491Y015396D02*
X020949Y015396D01*
X020958Y015555D02*
X021107Y015555D01*
X021192Y015713D02*
X021266Y015713D01*
X021307Y015872D02*
X021424Y015872D01*
X021414Y016030D02*
X021373Y016030D01*
X021379Y016189D02*
X021407Y016189D01*
X021421Y016347D02*
X021366Y016347D01*
X021300Y016506D02*
X021486Y016506D01*
X021611Y016664D02*
X021175Y016664D01*
X022082Y016180D02*
X022082Y016133D01*
X020129Y014180D01*
X020644Y014128D02*
X020716Y014128D01*
X020716Y013970D02*
X020644Y013970D01*
X020644Y013811D02*
X020716Y013811D01*
X020807Y013653D02*
X020553Y013653D01*
X019704Y013653D02*
X019345Y013653D01*
X019476Y013811D02*
X019614Y013811D01*
X019614Y013970D02*
X019476Y013970D01*
X019614Y014128D02*
X019059Y014128D01*
X018904Y014128D02*
X018394Y014128D01*
X018394Y014287D02*
X018486Y014287D01*
X018486Y014445D02*
X018394Y014445D01*
X018394Y014604D02*
X018498Y014604D01*
X018904Y014604D02*
X019059Y014604D01*
X019059Y014445D02*
X018904Y014445D01*
X018904Y014287D02*
X019059Y014287D01*
X019059Y013970D02*
X018904Y013970D01*
X018904Y013811D02*
X019059Y013811D01*
X019059Y013653D02*
X018904Y013653D01*
X018961Y013494D02*
X021650Y013494D01*
X021650Y013336D02*
X019119Y013336D01*
X019278Y013177D02*
X021650Y013177D01*
X021650Y013019D02*
X019436Y013019D01*
X019595Y012860D02*
X021650Y012860D01*
X021650Y012702D02*
X019753Y012702D01*
X019912Y012543D02*
X021650Y012543D01*
X021650Y012385D02*
X020971Y012385D01*
X021130Y012226D02*
X021650Y012226D01*
X021650Y012068D02*
X021288Y012068D01*
X021447Y011909D02*
X021650Y011909D01*
X021650Y011751D02*
X021605Y011751D01*
X021430Y011530D02*
X020780Y012180D01*
X019879Y012180D01*
X017879Y014180D01*
X016981Y014180D01*
X016466Y014128D02*
X016394Y014128D01*
X016394Y013970D02*
X016466Y013970D01*
X016466Y013811D02*
X016394Y013811D01*
X016303Y013653D02*
X016557Y013653D01*
X017406Y013653D02*
X017454Y013653D01*
X018169Y013494D02*
X014711Y013494D01*
X014654Y013653D02*
X014809Y013653D01*
X014809Y013811D02*
X014654Y013811D01*
X014654Y013970D02*
X014809Y013970D01*
X014809Y014128D02*
X015364Y014128D01*
X015364Y013970D02*
X015226Y013970D01*
X015226Y013811D02*
X015364Y013811D01*
X015454Y013653D02*
X015095Y013653D01*
X014869Y013336D02*
X018327Y013336D01*
X018486Y013177D02*
X015028Y013177D01*
X015186Y013019D02*
X018644Y013019D01*
X018803Y012860D02*
X015345Y012860D01*
X015503Y012702D02*
X018961Y012702D01*
X019120Y012543D02*
X015662Y012543D01*
X015820Y012385D02*
X019278Y012385D01*
X019437Y012226D02*
X015979Y012226D01*
X016137Y012068D02*
X019595Y012068D01*
X019801Y011909D02*
X016296Y011909D01*
X016454Y011751D02*
X020814Y011751D01*
X020699Y011592D02*
X016613Y011592D01*
X016771Y011434D02*
X020600Y011434D01*
X021430Y011530D02*
X021430Y011010D01*
X020930Y011010D02*
X016799Y011010D01*
X013629Y014180D01*
X012731Y014180D01*
X012216Y014128D02*
X012144Y014128D01*
X012144Y013970D02*
X012216Y013970D01*
X012216Y013811D02*
X012144Y013811D01*
X012053Y013653D02*
X012307Y013653D01*
X013156Y013653D02*
X013204Y013653D01*
X013919Y013494D02*
X000410Y013494D01*
X000410Y013336D02*
X014077Y013336D01*
X014236Y013177D02*
X010576Y013177D01*
X010620Y013133D02*
X010503Y013250D01*
X009597Y013250D01*
X009480Y013133D01*
X009480Y013056D01*
X009373Y013163D01*
X009163Y013250D01*
X008937Y013250D01*
X008727Y013163D01*
X008567Y013003D01*
X008550Y012962D01*
X008533Y013003D01*
X008373Y013163D01*
X008163Y013250D01*
X007937Y013250D01*
X007727Y013163D01*
X007567Y013003D01*
X007550Y012962D01*
X007533Y013003D01*
X007373Y013163D01*
X007163Y013250D01*
X006937Y013250D01*
X006727Y013163D01*
X006567Y013003D01*
X006550Y012962D01*
X006533Y013003D01*
X006373Y013163D01*
X006163Y013250D01*
X005937Y013250D01*
X005727Y013163D01*
X005567Y013003D01*
X005550Y012962D01*
X005533Y013003D01*
X005373Y013163D01*
X005163Y013250D01*
X004937Y013250D01*
X004727Y013163D01*
X004567Y013003D01*
X004550Y012962D01*
X004533Y013003D01*
X004373Y013163D01*
X004163Y013250D01*
X003937Y013250D01*
X003727Y013163D01*
X003567Y013003D01*
X003550Y012962D01*
X003533Y013003D01*
X003373Y013163D01*
X003163Y013250D01*
X002937Y013250D01*
X002727Y013163D01*
X002567Y013003D01*
X002480Y012793D01*
X002480Y012567D01*
X002567Y012357D01*
X002727Y012197D01*
X002937Y012110D01*
X003163Y012110D01*
X003373Y012197D01*
X003533Y012357D01*
X003550Y012398D01*
X003567Y012357D01*
X003727Y012197D01*
X003937Y012110D01*
X004163Y012110D01*
X004373Y012197D01*
X004533Y012357D01*
X004550Y012398D01*
X004567Y012357D01*
X004727Y012197D01*
X004937Y012110D01*
X005163Y012110D01*
X005373Y012197D01*
X005533Y012357D01*
X005550Y012398D01*
X005567Y012357D01*
X005727Y012197D01*
X005937Y012110D01*
X006000Y012110D01*
X006000Y010049D01*
X005951Y010000D01*
X005892Y009857D01*
X005892Y009703D01*
X005951Y009560D01*
X006060Y009451D01*
X006203Y009392D01*
X006357Y009392D01*
X006500Y009451D01*
X006609Y009560D01*
X006668Y009703D01*
X006668Y009857D01*
X006609Y010000D01*
X006560Y010049D01*
X006560Y012373D01*
X006567Y012357D01*
X006727Y012197D01*
X006800Y012167D01*
X006800Y011649D01*
X006751Y011600D01*
X006692Y011457D01*
X006692Y011303D01*
X006751Y011160D01*
X006860Y011051D01*
X007003Y010992D01*
X007157Y010992D01*
X007300Y011051D01*
X007409Y011160D01*
X007468Y011303D01*
X007468Y011457D01*
X007409Y011600D01*
X007360Y011649D01*
X007360Y012191D01*
X007373Y012197D01*
X007533Y012357D01*
X007550Y012398D01*
X007567Y012357D01*
X007700Y012224D01*
X007700Y010649D01*
X007651Y010600D01*
X007592Y010457D01*
X007592Y010303D01*
X007651Y010160D01*
X007760Y010051D01*
X007903Y009992D01*
X008057Y009992D01*
X008200Y010051D01*
X008309Y010160D01*
X008368Y010303D01*
X008368Y010457D01*
X008309Y010600D01*
X008260Y010649D01*
X008260Y012150D01*
X008373Y012197D01*
X008533Y012357D01*
X008550Y012398D01*
X008567Y012357D01*
X008700Y012224D01*
X008700Y009749D01*
X008651Y009700D01*
X008592Y009557D01*
X008592Y009403D01*
X008651Y009260D01*
X008760Y009151D01*
X008903Y009092D01*
X009057Y009092D01*
X009200Y009151D01*
X009309Y009260D01*
X009368Y009403D01*
X009368Y009557D01*
X009309Y009700D01*
X009260Y009749D01*
X009260Y012150D01*
X009373Y012197D01*
X009480Y012304D01*
X009480Y012227D01*
X009597Y012110D01*
X009800Y012110D01*
X009800Y008324D01*
X009843Y008221D01*
X009904Y008160D01*
X006194Y008160D01*
X006091Y008117D01*
X006013Y008039D01*
X005206Y007232D01*
X005163Y007250D01*
X004937Y007250D01*
X004727Y007163D01*
X004567Y007003D01*
X004550Y006962D01*
X004533Y007003D01*
X004373Y007163D01*
X004163Y007250D01*
X003937Y007250D01*
X003727Y007163D01*
X003567Y007003D01*
X003538Y006934D01*
X003520Y006968D01*
X003470Y007038D01*
X003408Y007100D01*
X003338Y007150D01*
X003261Y007190D01*
X003179Y007216D01*
X003093Y007230D01*
X003070Y007230D01*
X003070Y006700D01*
X003030Y006700D01*
X003030Y007230D01*
X003007Y007230D01*
X002921Y007216D01*
X002839Y007190D01*
X002762Y007150D01*
X002692Y007100D01*
X002630Y007038D01*
X002580Y006968D01*
X002562Y006934D01*
X002533Y007003D01*
X002373Y007163D01*
X002163Y007250D01*
X001937Y007250D01*
X001727Y007163D01*
X001567Y007003D01*
X001480Y006793D01*
X001480Y006567D01*
X001567Y006357D01*
X001727Y006197D01*
X001937Y006110D01*
X002163Y006110D01*
X002373Y006197D01*
X002533Y006357D01*
X002562Y006426D01*
X002580Y006392D01*
X002630Y006322D01*
X002692Y006260D01*
X002762Y006210D01*
X002839Y006170D01*
X002921Y006144D01*
X003007Y006130D01*
X003030Y006130D01*
X003030Y006660D01*
X003070Y006660D01*
X003070Y006130D01*
X003093Y006130D01*
X003179Y006144D01*
X003261Y006170D01*
X003338Y006210D01*
X003408Y006260D01*
X003470Y006322D01*
X003520Y006392D01*
X003538Y006426D01*
X003567Y006357D01*
X003727Y006197D01*
X003937Y006110D01*
X004163Y006110D01*
X004373Y006197D01*
X004533Y006357D01*
X004550Y006398D01*
X004567Y006357D01*
X004727Y006197D01*
X004937Y006110D01*
X005163Y006110D01*
X005373Y006197D01*
X005533Y006357D01*
X005550Y006398D01*
X005567Y006357D01*
X005727Y006197D01*
X005937Y006110D01*
X006163Y006110D01*
X006373Y006197D01*
X006533Y006357D01*
X006550Y006398D01*
X006567Y006357D01*
X006727Y006197D01*
X006937Y006110D01*
X007163Y006110D01*
X007206Y006128D01*
X007813Y005521D01*
X007891Y005443D01*
X007994Y005400D01*
X012204Y005400D01*
X011964Y005160D01*
X011449Y005160D01*
X011400Y005209D01*
X011257Y005268D01*
X011103Y005268D01*
X010960Y005209D01*
X010851Y005100D01*
X010792Y004957D01*
X010792Y004803D01*
X010851Y004660D01*
X010960Y004551D01*
X011103Y004492D01*
X011257Y004492D01*
X011400Y004551D01*
X011449Y004600D01*
X012136Y004600D01*
X012239Y004643D01*
X012317Y004721D01*
X012696Y005100D01*
X021036Y005100D01*
X021139Y005143D01*
X021217Y005221D01*
X022167Y006171D01*
X022210Y006274D01*
X022210Y006557D01*
X022217Y006550D01*
X022643Y006550D01*
X022680Y006587D01*
X022717Y006550D01*
X023143Y006550D01*
X023180Y006587D01*
X023217Y006550D01*
X023643Y006550D01*
X023680Y006587D01*
X023717Y006550D01*
X024143Y006550D01*
X024180Y006587D01*
X024217Y006550D01*
X024643Y006550D01*
X024680Y006587D01*
X024717Y006550D01*
X025143Y006550D01*
X025260Y006667D01*
X025260Y007633D01*
X025143Y007750D01*
X024717Y007750D01*
X024710Y007743D01*
X024710Y007786D01*
X024667Y007889D01*
X023317Y009239D01*
X023239Y009317D01*
X023136Y009360D01*
X013696Y009360D01*
X011668Y011388D01*
X011668Y011457D01*
X011609Y011600D01*
X011500Y011709D01*
X011357Y011768D01*
X011203Y011768D01*
X011060Y011709D01*
X010951Y011600D01*
X010892Y011457D01*
X010892Y011303D01*
X010951Y011160D01*
X011060Y011051D01*
X011203Y010992D01*
X011272Y010992D01*
X013204Y009060D01*
X012996Y009060D01*
X011668Y010388D01*
X011668Y010457D01*
X011609Y010600D01*
X011500Y010709D01*
X011357Y010768D01*
X011203Y010768D01*
X011060Y010709D01*
X010951Y010600D01*
X010892Y010457D01*
X010892Y010303D01*
X010951Y010160D01*
X011060Y010051D01*
X011203Y009992D01*
X011272Y009992D01*
X011423Y009841D01*
X011357Y009868D01*
X011203Y009868D01*
X011060Y009809D01*
X010951Y009700D01*
X010892Y009557D01*
X010892Y009403D01*
X010951Y009260D01*
X011060Y009151D01*
X011203Y009092D01*
X011272Y009092D01*
X011904Y008460D01*
X010396Y008460D01*
X010360Y008496D01*
X010360Y012110D01*
X010503Y012110D01*
X010620Y012227D01*
X010620Y013133D01*
X010620Y013019D02*
X014394Y013019D01*
X014553Y012860D02*
X010620Y012860D01*
X010620Y012702D02*
X014711Y012702D01*
X014870Y012543D02*
X010620Y012543D01*
X010620Y012385D02*
X015028Y012385D01*
X015187Y012226D02*
X010619Y012226D01*
X010360Y012068D02*
X015345Y012068D01*
X015504Y011909D02*
X010360Y011909D01*
X010360Y011751D02*
X011160Y011751D01*
X011400Y011751D02*
X015662Y011751D01*
X015821Y011592D02*
X011612Y011592D01*
X011668Y011434D02*
X015979Y011434D01*
X016138Y011275D02*
X011781Y011275D01*
X011939Y011117D02*
X016296Y011117D01*
X016455Y010958D02*
X012098Y010958D01*
X012256Y010800D02*
X016613Y010800D01*
X013524Y009532D02*
X040636Y009532D01*
X040794Y009690D02*
X013366Y009690D01*
X013207Y009849D02*
X040953Y009849D01*
X041111Y010007D02*
X013049Y010007D01*
X012890Y010166D02*
X041270Y010166D01*
X041428Y010324D02*
X012732Y010324D01*
X012573Y010483D02*
X020645Y010483D01*
X020600Y010641D02*
X012415Y010641D01*
X011940Y010324D02*
X011732Y010324D01*
X011782Y010483D02*
X011658Y010483D01*
X011623Y010641D02*
X011568Y010641D01*
X011465Y010800D02*
X010360Y010800D01*
X010360Y010958D02*
X011306Y010958D01*
X010995Y011117D02*
X010360Y011117D01*
X010360Y011275D02*
X010903Y011275D01*
X010892Y011434D02*
X010360Y011434D01*
X010360Y011592D02*
X010948Y011592D01*
X011280Y011380D02*
X013580Y009080D01*
X023080Y009080D01*
X024430Y007730D01*
X024430Y007150D01*
X023930Y007150D02*
X023930Y007730D01*
X022880Y008780D01*
X012880Y008780D01*
X011280Y010380D01*
X010992Y010641D02*
X010360Y010641D01*
X010360Y010483D02*
X010902Y010483D01*
X010892Y010324D02*
X010360Y010324D01*
X010360Y010166D02*
X010949Y010166D01*
X011166Y010007D02*
X010360Y010007D01*
X010360Y009849D02*
X011155Y009849D01*
X011405Y009849D02*
X011416Y009849D01*
X010947Y009690D02*
X010360Y009690D01*
X010360Y009532D02*
X010892Y009532D01*
X010904Y009373D02*
X010360Y009373D01*
X010360Y009215D02*
X010997Y009215D01*
X011308Y009056D02*
X010360Y009056D01*
X010360Y008898D02*
X011467Y008898D01*
X011625Y008739D02*
X010360Y008739D01*
X010360Y008581D02*
X011784Y008581D01*
X012280Y008480D02*
X011280Y009480D01*
X012207Y009849D02*
X012416Y009849D01*
X012366Y009690D02*
X012574Y009690D01*
X012524Y009532D02*
X012733Y009532D01*
X012683Y009373D02*
X012891Y009373D01*
X012841Y009215D02*
X013050Y009215D01*
X013683Y009373D02*
X040477Y009373D01*
X040319Y009215D02*
X023341Y009215D01*
X023500Y009056D02*
X040160Y009056D01*
X040002Y008898D02*
X023658Y008898D01*
X023817Y008739D02*
X039843Y008739D01*
X039685Y008581D02*
X023975Y008581D01*
X024134Y008422D02*
X039526Y008422D01*
X039368Y008264D02*
X024292Y008264D01*
X024451Y008105D02*
X039209Y008105D01*
X039051Y007947D02*
X024609Y007947D01*
X024709Y007788D02*
X038892Y007788D01*
X038734Y007630D02*
X025260Y007630D01*
X025260Y007471D02*
X038575Y007471D01*
X038417Y007313D02*
X025260Y007313D01*
X025260Y007154D02*
X038258Y007154D01*
X038100Y006996D02*
X025260Y006996D01*
X025260Y006837D02*
X037941Y006837D01*
X037843Y006739D02*
X037800Y006636D01*
X037800Y005596D01*
X037774Y005570D01*
X037703Y005570D01*
X037710Y005577D01*
X037710Y006003D01*
X037593Y006120D01*
X036627Y006120D01*
X036510Y006003D01*
X036510Y005577D01*
X036547Y005540D01*
X036510Y005503D01*
X036510Y005077D01*
X036547Y005040D01*
X036510Y005003D01*
X036510Y004577D01*
X036547Y004540D01*
X036510Y004503D01*
X036510Y004077D01*
X036547Y004040D01*
X036510Y004003D01*
X036510Y003577D01*
X036547Y003540D01*
X036510Y003503D01*
X036510Y003077D01*
X036547Y003040D01*
X036510Y003003D01*
X036510Y002577D01*
X036547Y002540D01*
X036510Y002503D01*
X036510Y002077D01*
X036547Y002040D01*
X036510Y002003D01*
X036510Y001577D01*
X036627Y001460D01*
X037593Y001460D01*
X037643Y001510D01*
X042980Y001510D01*
X042980Y000567D01*
X043097Y000450D01*
X044063Y000450D01*
X044180Y000567D01*
X044180Y001533D01*
X044063Y001650D01*
X043198Y001650D01*
X043401Y001853D01*
X043461Y001828D01*
X043699Y001828D01*
X043920Y001919D01*
X044089Y002088D01*
X044180Y002309D01*
X044180Y002547D01*
X044089Y002768D01*
X043920Y002937D01*
X043699Y003028D01*
X043461Y003028D01*
X043240Y002937D01*
X043071Y002768D01*
X042980Y002547D01*
X042980Y002309D01*
X043005Y002249D01*
X042826Y002070D01*
X042226Y002070D01*
X043376Y003220D01*
X044063Y003220D01*
X044180Y003337D01*
X044180Y004303D01*
X044063Y004420D01*
X043198Y004420D01*
X043401Y004623D01*
X043461Y004598D01*
X043699Y004598D01*
X043920Y004689D01*
X044089Y004858D01*
X044180Y005079D01*
X044180Y005317D01*
X044089Y005538D01*
X043920Y005707D01*
X043699Y005798D01*
X043461Y005798D01*
X043240Y005707D01*
X043071Y005538D01*
X042980Y005317D01*
X042980Y005079D01*
X043005Y005019D01*
X041056Y003070D01*
X040466Y003070D01*
X043376Y005980D01*
X044063Y005980D01*
X044180Y006097D01*
X044180Y007063D01*
X044063Y007180D01*
X043198Y007180D01*
X043401Y007383D01*
X043461Y007358D01*
X043699Y007358D01*
X043920Y007449D01*
X044089Y007618D01*
X044180Y007839D01*
X044180Y008077D01*
X044089Y008298D01*
X043920Y008467D01*
X043699Y008558D01*
X043461Y008558D01*
X043240Y008467D01*
X043071Y008298D01*
X042980Y008077D01*
X042980Y007839D01*
X043005Y007779D01*
X039296Y004070D01*
X038716Y004070D01*
X043376Y008730D01*
X044063Y008730D01*
X044180Y008847D01*
X044180Y009813D01*
X044063Y009930D01*
X043198Y009930D01*
X043401Y010133D01*
X043461Y010108D01*
X043699Y010108D01*
X043920Y010199D01*
X044089Y010368D01*
X044180Y010589D01*
X044180Y010827D01*
X044089Y011048D01*
X043920Y011217D01*
X043699Y011308D01*
X043461Y011308D01*
X043240Y011217D01*
X043071Y011048D01*
X042980Y010827D01*
X042980Y010589D01*
X043005Y010529D01*
X038443Y005967D01*
X038400Y005864D01*
X038400Y005196D01*
X038274Y005070D01*
X038066Y005070D01*
X038239Y005243D01*
X038317Y005321D01*
X038360Y005424D01*
X038360Y006464D01*
X043376Y011480D01*
X044063Y011480D01*
X044180Y011597D01*
X044180Y012563D01*
X044063Y012680D01*
X043097Y012680D01*
X042980Y012563D01*
X042980Y011876D01*
X037843Y006739D01*
X037818Y006679D02*
X025260Y006679D01*
X023430Y007150D02*
X023430Y007630D01*
X022580Y008480D01*
X012280Y008480D01*
X011180Y006880D02*
X010480Y007580D01*
X006950Y007580D01*
X006050Y006680D01*
X006535Y006362D02*
X006565Y006362D01*
X006721Y006203D02*
X006379Y006203D01*
X005721Y006203D02*
X005379Y006203D01*
X005535Y006362D02*
X005565Y006362D01*
X005050Y006680D02*
X006250Y007880D01*
X022280Y007880D01*
X022430Y007730D01*
X022430Y007150D01*
X021930Y007150D02*
X021930Y006330D01*
X020980Y005380D01*
X012580Y005380D01*
X012080Y004880D01*
X011180Y004880D01*
X010803Y004777D02*
X000410Y004777D01*
X000410Y004935D02*
X010792Y004935D01*
X010848Y005094D02*
X000410Y005094D01*
X000410Y005252D02*
X011064Y005252D01*
X011296Y005252D02*
X012056Y005252D01*
X012689Y005094D02*
X030237Y005094D01*
X030251Y005060D02*
X030360Y004951D01*
X030503Y004892D01*
X030657Y004892D01*
X030716Y004916D01*
X030692Y004857D01*
X030692Y004703D01*
X030751Y004560D01*
X030860Y004451D01*
X031003Y004392D01*
X031048Y004392D01*
X030992Y004257D01*
X030992Y004103D01*
X031051Y003960D01*
X031160Y003851D01*
X031303Y003792D01*
X031457Y003792D01*
X031600Y003851D01*
X031649Y003900D01*
X031664Y003900D01*
X031933Y003631D01*
X032004Y003560D01*
X031849Y003560D01*
X031800Y003609D01*
X031657Y003668D01*
X031503Y003668D01*
X031360Y003609D01*
X031251Y003500D01*
X031192Y003357D01*
X031192Y003203D01*
X031251Y003060D01*
X031360Y002951D01*
X031503Y002892D01*
X031657Y002892D01*
X031800Y002951D01*
X031849Y003000D01*
X031904Y003000D01*
X031843Y002939D01*
X031564Y002660D01*
X030449Y002660D01*
X030400Y002709D01*
X030257Y002768D01*
X030103Y002768D01*
X029960Y002709D01*
X029851Y002600D01*
X029792Y002457D01*
X029792Y002303D01*
X029816Y002244D01*
X029757Y002268D01*
X029603Y002268D01*
X029460Y002209D01*
X029351Y002100D01*
X029292Y001957D01*
X029292Y001803D01*
X029351Y001660D01*
X029460Y001551D01*
X029603Y001492D01*
X029757Y001492D01*
X029900Y001551D01*
X029949Y001600D01*
X031604Y001600D01*
X031464Y001460D01*
X030449Y001460D01*
X030400Y001509D01*
X030257Y001568D01*
X030103Y001568D01*
X029960Y001509D01*
X029851Y001400D01*
X029792Y001257D01*
X029792Y001103D01*
X029851Y000960D01*
X029960Y000851D01*
X030103Y000792D01*
X030257Y000792D01*
X030400Y000851D01*
X030449Y000900D01*
X031636Y000900D01*
X031739Y000943D01*
X032306Y001510D01*
X032717Y001510D01*
X032767Y001460D01*
X033733Y001460D01*
X033850Y001577D01*
X033850Y002003D01*
X033813Y002040D01*
X033850Y002077D01*
X033850Y002503D01*
X033813Y002540D01*
X033850Y002577D01*
X033850Y003003D01*
X033813Y003040D01*
X033850Y003077D01*
X033850Y003503D01*
X033813Y003540D01*
X033850Y003577D01*
X033850Y004003D01*
X033813Y004040D01*
X033850Y004077D01*
X033850Y004503D01*
X033813Y004540D01*
X033850Y004577D01*
X033850Y005003D01*
X033813Y005040D01*
X033850Y005077D01*
X033850Y005503D01*
X033797Y005555D01*
X033818Y005591D01*
X033830Y005636D01*
X033830Y005790D01*
X033830Y005944D01*
X033818Y005989D01*
X033794Y006031D01*
X033761Y006064D01*
X033719Y006088D01*
X033674Y006100D01*
X033250Y006100D01*
X033250Y005790D01*
X033250Y005790D01*
X033830Y005790D01*
X033250Y005790D01*
X033250Y005790D01*
X033250Y005790D01*
X032670Y005790D01*
X032670Y005944D01*
X032682Y005989D01*
X032706Y006031D01*
X032739Y006064D01*
X032781Y006088D01*
X032826Y006100D01*
X033250Y006100D01*
X033250Y005790D01*
X032670Y005790D01*
X032670Y005636D01*
X032682Y005591D01*
X032694Y005570D01*
X032386Y005570D01*
X032017Y005939D01*
X031939Y006017D01*
X031836Y006060D01*
X030149Y006060D01*
X030100Y006109D01*
X029957Y006168D01*
X029803Y006168D01*
X029660Y006109D01*
X029551Y006000D01*
X029492Y005857D01*
X029492Y005703D01*
X029551Y005560D01*
X029660Y005451D01*
X029803Y005392D01*
X029957Y005392D01*
X030100Y005451D01*
X030149Y005500D01*
X030251Y005500D01*
X030251Y005500D01*
X030192Y005357D01*
X030192Y005203D01*
X030251Y005060D01*
X030399Y004935D02*
X012531Y004935D01*
X012372Y004777D02*
X030692Y004777D01*
X030727Y004618D02*
X012179Y004618D01*
X010893Y004618D02*
X000410Y004618D01*
X000410Y004460D02*
X030852Y004460D01*
X031010Y004301D02*
X000410Y004301D01*
X000410Y004143D02*
X030992Y004143D01*
X031041Y003984D02*
X000410Y003984D01*
X000410Y003826D02*
X031222Y003826D01*
X031538Y003826D02*
X031739Y003826D01*
X031660Y003667D02*
X031897Y003667D01*
X032170Y003790D02*
X033250Y003790D01*
X033850Y003826D02*
X036510Y003826D01*
X036510Y003984D02*
X033850Y003984D01*
X033850Y004143D02*
X036510Y004143D01*
X036510Y004301D02*
X033850Y004301D01*
X033850Y004460D02*
X036510Y004460D01*
X036510Y004618D02*
X033850Y004618D01*
X033850Y004777D02*
X036510Y004777D01*
X036510Y004935D02*
X033850Y004935D01*
X033850Y005094D02*
X036510Y005094D01*
X036510Y005252D02*
X033850Y005252D01*
X033850Y005411D02*
X036510Y005411D01*
X036518Y005569D02*
X033805Y005569D01*
X033830Y005728D02*
X036510Y005728D01*
X036510Y005886D02*
X033830Y005886D01*
X033780Y006045D02*
X036552Y006045D01*
X037668Y006045D02*
X037800Y006045D01*
X037800Y006203D02*
X022180Y006203D01*
X022210Y006362D02*
X037800Y006362D01*
X037800Y006520D02*
X022210Y006520D01*
X021480Y006380D02*
X021480Y007100D01*
X021430Y007150D01*
X020930Y007150D02*
X020880Y007100D01*
X020880Y006280D01*
X020580Y005980D01*
X008750Y005980D01*
X008050Y006680D01*
X007050Y006680D02*
X008050Y005680D01*
X020780Y005680D01*
X021480Y006380D01*
X022040Y006045D02*
X029596Y006045D01*
X029504Y005886D02*
X021882Y005886D01*
X021723Y005728D02*
X029492Y005728D01*
X029547Y005569D02*
X021565Y005569D01*
X021406Y005411D02*
X029758Y005411D01*
X030002Y005411D02*
X030214Y005411D01*
X030192Y005252D02*
X021248Y005252D01*
X022930Y007150D02*
X022930Y007730D01*
X022480Y008180D01*
X010280Y008180D01*
X010080Y008380D01*
X010080Y012650D01*
X010050Y012680D01*
X009481Y012226D02*
X009402Y012226D01*
X009260Y012068D02*
X009800Y012068D01*
X009800Y011909D02*
X009260Y011909D01*
X009260Y011751D02*
X009800Y011751D01*
X009800Y011592D02*
X009260Y011592D01*
X009260Y011434D02*
X009800Y011434D01*
X009800Y011275D02*
X009260Y011275D01*
X009260Y011117D02*
X009800Y011117D01*
X009800Y010958D02*
X009260Y010958D01*
X009260Y010800D02*
X009800Y010800D01*
X009800Y010641D02*
X009260Y010641D01*
X009260Y010483D02*
X009800Y010483D01*
X009800Y010324D02*
X009260Y010324D01*
X009260Y010166D02*
X009800Y010166D01*
X009800Y010007D02*
X009260Y010007D01*
X009260Y009849D02*
X009800Y009849D01*
X009800Y009690D02*
X009313Y009690D01*
X009368Y009532D02*
X009800Y009532D01*
X009800Y009373D02*
X009356Y009373D01*
X009263Y009215D02*
X009800Y009215D01*
X009800Y009056D02*
X000410Y009056D01*
X000410Y008898D02*
X009800Y008898D01*
X009800Y008739D02*
X000410Y008739D01*
X000410Y008581D02*
X009800Y008581D01*
X009800Y008422D02*
X000410Y008422D01*
X000410Y008264D02*
X009825Y008264D01*
X008697Y009215D02*
X000410Y009215D01*
X000410Y009373D02*
X008604Y009373D01*
X008592Y009532D02*
X006580Y009532D01*
X006663Y009690D02*
X008647Y009690D01*
X008700Y009849D02*
X006668Y009849D01*
X006602Y010007D02*
X007866Y010007D01*
X008094Y010007D02*
X008700Y010007D01*
X008700Y010166D02*
X008311Y010166D01*
X008368Y010324D02*
X008700Y010324D01*
X008700Y010483D02*
X008358Y010483D01*
X008268Y010641D02*
X008700Y010641D01*
X008700Y010800D02*
X008260Y010800D01*
X008260Y010958D02*
X008700Y010958D01*
X008700Y011117D02*
X008260Y011117D01*
X008260Y011275D02*
X008700Y011275D01*
X008700Y011434D02*
X008260Y011434D01*
X008260Y011592D02*
X008700Y011592D01*
X008700Y011751D02*
X008260Y011751D01*
X008260Y011909D02*
X008700Y011909D01*
X008700Y012068D02*
X008260Y012068D01*
X008402Y012226D02*
X008698Y012226D01*
X008555Y012385D02*
X008545Y012385D01*
X008980Y012610D02*
X009050Y012680D01*
X008980Y012610D02*
X008980Y009480D01*
X007649Y010166D02*
X006560Y010166D01*
X006560Y010324D02*
X007592Y010324D01*
X007602Y010483D02*
X006560Y010483D01*
X006560Y010641D02*
X007692Y010641D01*
X007700Y010800D02*
X006560Y010800D01*
X006560Y010958D02*
X007700Y010958D01*
X007700Y011117D02*
X007365Y011117D01*
X007457Y011275D02*
X007700Y011275D01*
X007700Y011434D02*
X007468Y011434D01*
X007412Y011592D02*
X007700Y011592D01*
X007700Y011751D02*
X007360Y011751D01*
X007360Y011909D02*
X007700Y011909D01*
X007700Y012068D02*
X007360Y012068D01*
X007402Y012226D02*
X007698Y012226D01*
X007555Y012385D02*
X007545Y012385D01*
X007980Y012610D02*
X008050Y012680D01*
X007980Y012610D02*
X007980Y010380D01*
X006795Y011117D02*
X006560Y011117D01*
X006560Y011275D02*
X006703Y011275D01*
X006692Y011434D02*
X006560Y011434D01*
X006560Y011592D02*
X006748Y011592D01*
X006800Y011751D02*
X006560Y011751D01*
X006560Y011909D02*
X006800Y011909D01*
X006800Y012068D02*
X006560Y012068D01*
X006560Y012226D02*
X006698Y012226D01*
X006280Y012450D02*
X006050Y012680D01*
X006280Y012450D02*
X006280Y009780D01*
X005980Y009532D02*
X000410Y009532D01*
X000410Y009690D02*
X005897Y009690D01*
X005892Y009849D02*
X000410Y009849D01*
X000410Y010007D02*
X005958Y010007D01*
X006000Y010166D02*
X000410Y010166D01*
X000410Y010324D02*
X006000Y010324D01*
X006000Y010483D02*
X000410Y010483D01*
X000410Y010641D02*
X006000Y010641D01*
X006000Y010800D02*
X000410Y010800D01*
X000410Y010958D02*
X006000Y010958D01*
X006000Y011117D02*
X000410Y011117D01*
X000410Y011275D02*
X006000Y011275D01*
X006000Y011434D02*
X000410Y011434D01*
X000410Y011592D02*
X006000Y011592D01*
X006000Y011751D02*
X000410Y011751D01*
X000410Y011909D02*
X006000Y011909D01*
X006000Y012068D02*
X000410Y012068D01*
X000410Y012226D02*
X002698Y012226D01*
X002555Y012385D02*
X000410Y012385D01*
X000410Y012543D02*
X002490Y012543D01*
X002480Y012702D02*
X000410Y012702D01*
X000410Y012860D02*
X002508Y012860D01*
X002582Y013019D02*
X000410Y013019D01*
X000410Y013177D02*
X002760Y013177D01*
X003340Y013177D02*
X003760Y013177D01*
X003582Y013019D02*
X003518Y013019D01*
X004340Y013177D02*
X004760Y013177D01*
X004582Y013019D02*
X004518Y013019D01*
X005340Y013177D02*
X005760Y013177D01*
X005582Y013019D02*
X005518Y013019D01*
X006340Y013177D02*
X006760Y013177D01*
X006582Y013019D02*
X006518Y013019D01*
X007050Y012680D02*
X007080Y012650D01*
X007080Y011380D01*
X005698Y012226D02*
X005402Y012226D01*
X005545Y012385D02*
X005555Y012385D01*
X004698Y012226D02*
X004402Y012226D01*
X004545Y012385D02*
X004555Y012385D01*
X003698Y012226D02*
X003402Y012226D01*
X003545Y012385D02*
X003555Y012385D01*
X001636Y013653D02*
X000410Y013653D01*
X000410Y013811D02*
X001314Y013811D01*
X001156Y013970D02*
X000410Y013970D01*
X000410Y014128D02*
X001080Y014128D01*
X001019Y014287D02*
X000410Y014287D01*
X000410Y014445D02*
X001019Y014445D01*
X001026Y014604D02*
X000410Y014604D01*
X000410Y014762D02*
X001092Y014762D01*
X001186Y014921D02*
X000410Y014921D01*
X000410Y015079D02*
X001344Y015079D01*
X000410Y015238D02*
X012342Y015238D01*
X012500Y015396D02*
X000410Y015396D01*
X000410Y015555D02*
X012170Y015555D01*
X011936Y015713D02*
X000410Y015713D01*
X000410Y015872D02*
X011821Y015872D01*
X011756Y016030D02*
X000410Y016030D01*
X000410Y016189D02*
X011749Y016189D01*
X011763Y016347D02*
X000410Y016347D01*
X000410Y016506D02*
X011828Y016506D01*
X011954Y016664D02*
X000410Y016664D01*
X000410Y016823D02*
X012211Y016823D01*
X017015Y014921D02*
X020473Y014921D01*
X020632Y015079D02*
X017174Y015079D01*
X017332Y015238D02*
X020790Y015238D01*
X020450Y015555D02*
X019884Y015555D01*
X019965Y015713D02*
X020216Y015713D01*
X020101Y015872D02*
X019965Y015872D01*
X019965Y016030D02*
X020036Y016030D01*
X019348Y016030D02*
X019272Y016030D01*
X019272Y015872D02*
X019348Y015872D01*
X019348Y015713D02*
X019272Y015713D01*
X019272Y015555D02*
X019348Y015555D01*
X018736Y015555D02*
X018186Y015555D01*
X018420Y015713D02*
X018655Y015713D01*
X018655Y015872D02*
X018535Y015872D01*
X018601Y016030D02*
X018655Y016030D01*
X019272Y016347D02*
X019348Y016347D01*
X019348Y016506D02*
X019272Y016506D01*
X019272Y016664D02*
X019348Y016664D01*
X019348Y016823D02*
X019272Y016823D01*
X017932Y016180D02*
X017879Y016180D01*
X015879Y014180D01*
X016394Y014287D02*
X016466Y014287D01*
X016857Y014762D02*
X020315Y014762D01*
X019614Y014604D02*
X019464Y014604D01*
X019476Y014445D02*
X019614Y014445D01*
X019614Y014287D02*
X019476Y014287D01*
X018486Y013970D02*
X018485Y013970D01*
X020644Y014287D02*
X020716Y014287D01*
X021231Y014180D02*
X022129Y014180D01*
X021930Y013981D01*
X021930Y011010D01*
X022430Y011010D02*
X022430Y011530D01*
X023780Y012880D01*
X024181Y012880D01*
X025481Y014180D01*
X026379Y014180D01*
X026894Y014128D02*
X027404Y014128D01*
X027404Y014103D02*
X027404Y014257D01*
X026986Y014257D01*
X026986Y014558D01*
X026998Y014604D01*
X027022Y014645D01*
X027056Y014678D01*
X027097Y014702D01*
X027143Y014714D01*
X027404Y014714D01*
X027404Y014257D01*
X027559Y014257D01*
X027976Y014257D01*
X027976Y014558D01*
X027964Y014604D01*
X027940Y014645D01*
X027907Y014678D01*
X027866Y014702D01*
X027820Y014714D01*
X027559Y014714D01*
X027559Y014257D01*
X027559Y014103D01*
X027976Y014103D01*
X027976Y013802D01*
X027964Y013756D01*
X027940Y013715D01*
X027907Y013682D01*
X027866Y013658D01*
X027820Y013646D01*
X027559Y013646D01*
X027559Y014103D01*
X027404Y014103D01*
X026986Y014103D01*
X026986Y013802D01*
X026998Y013756D01*
X027022Y013715D01*
X027056Y013682D01*
X027097Y013658D01*
X027143Y013646D01*
X027404Y013646D01*
X027404Y014103D01*
X027404Y013970D02*
X027559Y013970D01*
X027559Y014128D02*
X028114Y014128D01*
X028114Y013970D02*
X027976Y013970D01*
X027976Y013811D02*
X028114Y013811D01*
X028204Y013653D02*
X027845Y013653D01*
X027559Y013653D02*
X027404Y013653D01*
X027404Y013811D02*
X027559Y013811D01*
X027117Y013653D02*
X026803Y013653D01*
X026894Y013811D02*
X026986Y013811D01*
X026986Y013970D02*
X026894Y013970D01*
X026894Y014287D02*
X026986Y014287D01*
X026986Y014445D02*
X026894Y014445D01*
X026894Y014604D02*
X026998Y014604D01*
X027404Y014604D02*
X027559Y014604D01*
X027559Y014445D02*
X027404Y014445D01*
X027404Y014287D02*
X027559Y014287D01*
X027976Y014287D02*
X028114Y014287D01*
X028114Y014445D02*
X027976Y014445D01*
X027964Y014604D02*
X028114Y014604D01*
X028815Y014762D02*
X025357Y014762D01*
X025515Y014921D02*
X028973Y014921D01*
X029132Y015079D02*
X025674Y015079D01*
X025832Y015238D02*
X029290Y015238D01*
X029449Y015396D02*
X025991Y015396D01*
X026466Y015555D02*
X027016Y015555D01*
X026935Y015713D02*
X026700Y015713D01*
X026815Y015872D02*
X026935Y015872D01*
X026935Y016030D02*
X026881Y016030D01*
X027552Y016030D02*
X027628Y016030D01*
X027628Y015872D02*
X027552Y015872D01*
X027552Y015713D02*
X027628Y015713D01*
X027628Y015555D02*
X027552Y015555D01*
X028164Y015555D02*
X028710Y015555D01*
X028476Y015713D02*
X028245Y015713D01*
X028245Y015872D02*
X028361Y015872D01*
X028296Y016030D02*
X028245Y016030D01*
X027628Y016347D02*
X027552Y016347D01*
X027552Y016506D02*
X027628Y016506D01*
X027628Y016664D02*
X027552Y016664D01*
X027552Y016823D02*
X027628Y016823D01*
X026212Y016180D02*
X026212Y016013D01*
X024379Y014180D01*
X023864Y014128D02*
X023309Y014128D01*
X023309Y014103D02*
X023309Y014257D01*
X023726Y014257D01*
X023726Y014558D01*
X023714Y014604D01*
X023690Y014645D01*
X023657Y014678D01*
X023616Y014702D01*
X023570Y014714D01*
X023309Y014714D01*
X023309Y014257D01*
X023154Y014257D01*
X023154Y014103D01*
X022736Y014103D01*
X022736Y013802D01*
X022748Y013756D01*
X022772Y013715D01*
X022806Y013682D01*
X022847Y013658D01*
X022893Y013646D01*
X023154Y013646D01*
X023154Y014103D01*
X023309Y014103D01*
X023726Y014103D01*
X023726Y013802D01*
X023714Y013756D01*
X023690Y013715D01*
X023657Y013682D01*
X023616Y013658D01*
X023570Y013646D01*
X023309Y013646D01*
X023309Y014103D01*
X023309Y013970D02*
X023154Y013970D01*
X023154Y014128D02*
X022644Y014128D01*
X022644Y013970D02*
X022736Y013970D01*
X022736Y013811D02*
X022644Y013811D01*
X022553Y013653D02*
X022867Y013653D01*
X023154Y013653D02*
X023309Y013653D01*
X023309Y013811D02*
X023154Y013811D01*
X023595Y013653D02*
X023954Y013653D01*
X023864Y013811D02*
X023726Y013811D01*
X023726Y013970D02*
X023864Y013970D01*
X023864Y014287D02*
X023726Y014287D01*
X023726Y014445D02*
X023864Y014445D01*
X023864Y014604D02*
X023714Y014604D01*
X023309Y014604D02*
X023154Y014604D01*
X023154Y014714D02*
X022893Y014714D01*
X022847Y014702D01*
X022806Y014678D01*
X022772Y014645D01*
X022748Y014604D01*
X022736Y014558D01*
X022736Y014257D01*
X023154Y014257D01*
X023154Y014714D01*
X022748Y014604D02*
X022644Y014604D01*
X022644Y014445D02*
X022736Y014445D01*
X022736Y014287D02*
X022644Y014287D01*
X023154Y014287D02*
X023309Y014287D01*
X023309Y014445D02*
X023154Y014445D01*
X024565Y014762D02*
X021107Y014762D01*
X021265Y014921D02*
X024723Y014921D01*
X024882Y015079D02*
X021424Y015079D01*
X021582Y015238D02*
X025040Y015238D01*
X025199Y015396D02*
X021741Y015396D01*
X022336Y015555D02*
X022886Y015555D01*
X022805Y015713D02*
X022570Y015713D01*
X022685Y015872D02*
X022805Y015872D01*
X022805Y016030D02*
X022751Y016030D01*
X023422Y016030D02*
X023498Y016030D01*
X023498Y015872D02*
X023422Y015872D01*
X023422Y015713D02*
X023498Y015713D01*
X023498Y015555D02*
X023422Y015555D01*
X024034Y015555D02*
X024580Y015555D01*
X024346Y015713D02*
X024115Y015713D01*
X024115Y015872D02*
X024231Y015872D01*
X024166Y016030D02*
X024115Y016030D01*
X023498Y016347D02*
X023422Y016347D01*
X023422Y016506D02*
X023498Y016506D01*
X023498Y016664D02*
X023422Y016664D01*
X023422Y016823D02*
X023498Y016823D01*
X025305Y016664D02*
X025741Y016664D01*
X025616Y016506D02*
X025430Y016506D01*
X025496Y016347D02*
X025551Y016347D01*
X025537Y016189D02*
X025509Y016189D01*
X025503Y016030D02*
X025544Y016030D01*
X025609Y015872D02*
X025437Y015872D01*
X025516Y015713D02*
X025322Y015713D01*
X025357Y015555D02*
X025088Y015555D01*
X028629Y014180D02*
X030342Y015893D01*
X030342Y016180D01*
X029667Y016189D02*
X029639Y016189D01*
X029626Y016347D02*
X029681Y016347D01*
X029746Y016506D02*
X029560Y016506D01*
X029435Y016664D02*
X029871Y016664D01*
X029674Y016030D02*
X029633Y016030D01*
X029567Y015872D02*
X029739Y015872D01*
X029766Y015713D02*
X029452Y015713D01*
X029607Y015555D02*
X029218Y015555D01*
X030082Y015238D02*
X033540Y015238D01*
X033699Y015396D02*
X030241Y015396D01*
X030596Y015555D02*
X031146Y015555D01*
X031065Y015713D02*
X030830Y015713D01*
X030945Y015872D02*
X031065Y015872D01*
X031065Y016030D02*
X031011Y016030D01*
X031682Y016030D02*
X031758Y016030D01*
X031758Y015872D02*
X031682Y015872D01*
X031682Y015713D02*
X031758Y015713D01*
X031758Y015555D02*
X031682Y015555D01*
X032294Y015555D02*
X032840Y015555D01*
X032606Y015713D02*
X032375Y015713D01*
X032375Y015872D02*
X032491Y015872D01*
X032426Y016030D02*
X032375Y016030D01*
X031758Y016347D02*
X031682Y016347D01*
X031682Y016506D02*
X031758Y016506D01*
X031758Y016664D02*
X031682Y016664D01*
X031682Y016823D02*
X031758Y016823D01*
X033565Y016664D02*
X034001Y016664D01*
X033876Y016506D02*
X033690Y016506D01*
X033756Y016347D02*
X033811Y016347D01*
X033797Y016189D02*
X033769Y016189D01*
X033763Y016030D02*
X033804Y016030D01*
X033869Y015872D02*
X033697Y015872D01*
X033582Y015713D02*
X033984Y015713D01*
X033857Y015555D02*
X033348Y015555D01*
X034332Y015238D02*
X037790Y015238D01*
X037949Y015396D02*
X034491Y015396D01*
X034726Y015555D02*
X035276Y015555D01*
X035195Y015713D02*
X034960Y015713D01*
X035075Y015872D02*
X035195Y015872D01*
X035195Y016030D02*
X035141Y016030D01*
X034472Y016180D02*
X034472Y015773D01*
X032879Y014180D01*
X032364Y014128D02*
X031809Y014128D01*
X031809Y014103D02*
X031809Y014257D01*
X032226Y014257D01*
X032226Y014558D01*
X032214Y014604D01*
X032190Y014645D01*
X032157Y014678D01*
X032116Y014702D01*
X032070Y014714D01*
X031809Y014714D01*
X031809Y014257D01*
X031654Y014257D01*
X031654Y014103D01*
X031236Y014103D01*
X031236Y013802D01*
X031248Y013756D01*
X031272Y013715D01*
X031306Y013682D01*
X031347Y013658D01*
X031393Y013646D01*
X031654Y013646D01*
X031654Y014103D01*
X031809Y014103D01*
X032226Y014103D01*
X032226Y013802D01*
X032214Y013756D01*
X032190Y013715D01*
X032157Y013682D01*
X032116Y013658D01*
X032070Y013646D01*
X031809Y013646D01*
X031809Y014103D01*
X031809Y013970D02*
X031654Y013970D01*
X031654Y014128D02*
X031144Y014128D01*
X031144Y013970D02*
X031236Y013970D01*
X031236Y013811D02*
X031144Y013811D01*
X031053Y013653D02*
X031367Y013653D01*
X031654Y013653D02*
X031809Y013653D01*
X031809Y013811D02*
X031654Y013811D01*
X032095Y013653D02*
X032454Y013653D01*
X032364Y013811D02*
X032226Y013811D01*
X032226Y013970D02*
X032364Y013970D01*
X032364Y014287D02*
X032226Y014287D01*
X032226Y014445D02*
X032364Y014445D01*
X032364Y014604D02*
X032214Y014604D01*
X031809Y014604D02*
X031654Y014604D01*
X031654Y014714D02*
X031393Y014714D01*
X031347Y014702D01*
X031306Y014678D01*
X031272Y014645D01*
X031248Y014604D01*
X031236Y014558D01*
X031236Y014257D01*
X031654Y014257D01*
X031654Y014714D01*
X031248Y014604D02*
X031144Y014604D01*
X031144Y014445D02*
X031236Y014445D01*
X031236Y014287D02*
X031144Y014287D01*
X031654Y014287D02*
X031809Y014287D01*
X031809Y014445D02*
X031654Y014445D01*
X030629Y014180D02*
X029731Y014180D01*
X028131Y012580D01*
X023980Y012580D01*
X022930Y011530D01*
X022930Y011010D01*
X023430Y011010D02*
X023430Y011530D01*
X024180Y012280D01*
X032081Y012280D01*
X033981Y014180D01*
X034879Y014180D01*
X035394Y014128D02*
X035904Y014128D01*
X035904Y014103D02*
X035904Y014257D01*
X035486Y014257D01*
X035486Y014558D01*
X035498Y014604D01*
X035522Y014645D01*
X035556Y014678D01*
X035597Y014702D01*
X035643Y014714D01*
X035904Y014714D01*
X035904Y014257D01*
X036059Y014257D01*
X036476Y014257D01*
X036476Y014558D01*
X036464Y014604D01*
X036440Y014645D01*
X036407Y014678D01*
X036366Y014702D01*
X036320Y014714D01*
X036059Y014714D01*
X036059Y014257D01*
X036059Y014103D01*
X036476Y014103D01*
X036476Y013802D01*
X036464Y013756D01*
X036440Y013715D01*
X036407Y013682D01*
X036366Y013658D01*
X036320Y013646D01*
X036059Y013646D01*
X036059Y014103D01*
X035904Y014103D01*
X035486Y014103D01*
X035486Y013802D01*
X035498Y013756D01*
X035522Y013715D01*
X035556Y013682D01*
X035597Y013658D01*
X035643Y013646D01*
X035904Y013646D01*
X035904Y014103D01*
X035904Y013970D02*
X036059Y013970D01*
X036059Y014128D02*
X036614Y014128D01*
X036614Y013970D02*
X036476Y013970D01*
X036476Y013811D02*
X036614Y013811D01*
X036704Y013653D02*
X036345Y013653D01*
X036059Y013653D02*
X035904Y013653D01*
X035904Y013811D02*
X036059Y013811D01*
X035617Y013653D02*
X035303Y013653D01*
X035394Y013811D02*
X035486Y013811D01*
X035486Y013970D02*
X035394Y013970D01*
X035394Y014287D02*
X035486Y014287D01*
X035486Y014445D02*
X035394Y014445D01*
X035394Y014604D02*
X035498Y014604D01*
X035904Y014604D02*
X036059Y014604D01*
X036059Y014445D02*
X035904Y014445D01*
X035904Y014287D02*
X036059Y014287D01*
X036476Y014287D02*
X036614Y014287D01*
X036614Y014445D02*
X036476Y014445D01*
X036464Y014604D02*
X036614Y014604D01*
X037129Y014180D02*
X038602Y015653D01*
X038602Y016180D01*
X039271Y016030D02*
X039325Y016030D01*
X039325Y015872D02*
X039205Y015872D01*
X039090Y015713D02*
X039325Y015713D01*
X039406Y015555D02*
X038864Y015555D01*
X038741Y015396D02*
X042452Y015396D01*
X042452Y015238D02*
X038582Y015238D01*
X038424Y015079D02*
X042383Y015079D01*
X042225Y014921D02*
X038265Y014921D01*
X038107Y014762D02*
X042066Y014762D01*
X041908Y014604D02*
X040714Y014604D01*
X040690Y014645D01*
X040657Y014678D01*
X040616Y014702D01*
X040570Y014714D01*
X040309Y014714D01*
X040309Y014257D01*
X040726Y014257D01*
X040726Y014558D01*
X040714Y014604D01*
X040726Y014445D02*
X041749Y014445D01*
X041591Y014287D02*
X040726Y014287D01*
X040726Y014103D02*
X040309Y014103D01*
X040309Y014257D01*
X040154Y014257D01*
X040154Y014103D01*
X039736Y014103D01*
X039736Y013802D01*
X039748Y013756D01*
X039772Y013715D01*
X039806Y013682D01*
X039847Y013658D01*
X039893Y013646D01*
X040154Y013646D01*
X040154Y014103D01*
X040309Y014103D01*
X040309Y013646D01*
X040570Y013646D01*
X040616Y013658D01*
X040657Y013682D01*
X040690Y013715D01*
X040714Y013756D01*
X040726Y013802D01*
X040726Y014103D01*
X040726Y013970D02*
X041274Y013970D01*
X041432Y014128D02*
X040309Y014128D01*
X040154Y014128D02*
X039644Y014128D01*
X039644Y013970D02*
X039736Y013970D01*
X039736Y013811D02*
X039644Y013811D01*
X039553Y013653D02*
X039867Y013653D01*
X040154Y013653D02*
X040309Y013653D01*
X040309Y013811D02*
X040154Y013811D01*
X040154Y013970D02*
X040309Y013970D01*
X040309Y014287D02*
X040154Y014287D01*
X040154Y014257D02*
X040154Y014714D01*
X039893Y014714D01*
X039847Y014702D01*
X039806Y014678D01*
X039772Y014645D01*
X039748Y014604D01*
X039736Y014558D01*
X039736Y014257D01*
X040154Y014257D01*
X040154Y014445D02*
X040309Y014445D01*
X040309Y014604D02*
X040154Y014604D01*
X039748Y014604D02*
X039644Y014604D01*
X039644Y014445D02*
X039736Y014445D01*
X039736Y014287D02*
X039644Y014287D01*
X039129Y014180D02*
X038231Y014180D01*
X036031Y011980D01*
X024380Y011980D01*
X023930Y011530D01*
X023930Y011010D01*
X024430Y011010D02*
X024430Y011430D01*
X024680Y011680D01*
X039879Y011680D01*
X039980Y011579D01*
X040880Y011579D01*
X041434Y011592D02*
X042696Y011592D01*
X042538Y011434D02*
X041434Y011434D01*
X041434Y011275D02*
X042379Y011275D01*
X042221Y011117D02*
X041370Y011117D01*
X042062Y010958D02*
X025240Y010958D01*
X025240Y010800D02*
X041904Y010800D01*
X041745Y010641D02*
X025240Y010641D01*
X025187Y010483D02*
X041587Y010483D01*
X042061Y010166D02*
X042642Y010166D01*
X042800Y010324D02*
X042220Y010324D01*
X042378Y010483D02*
X042959Y010483D01*
X042980Y010641D02*
X042537Y010641D01*
X042695Y010800D02*
X042980Y010800D01*
X043034Y010958D02*
X042854Y010958D01*
X043012Y011117D02*
X043140Y011117D01*
X043171Y011275D02*
X043381Y011275D01*
X043329Y011434D02*
X044920Y011434D01*
X044920Y011592D02*
X044175Y011592D01*
X044180Y011751D02*
X044920Y011751D01*
X044920Y011909D02*
X044180Y011909D01*
X044180Y012068D02*
X044920Y012068D01*
X044920Y012226D02*
X044180Y012226D01*
X044180Y012385D02*
X044920Y012385D01*
X044920Y012543D02*
X044180Y012543D01*
X043920Y012949D02*
X043699Y012858D01*
X043461Y012858D01*
X043240Y012949D01*
X043071Y013118D01*
X042980Y013339D01*
X042980Y013577D01*
X043071Y013798D01*
X043240Y013967D01*
X043461Y014058D01*
X043699Y014058D01*
X043920Y013967D01*
X044089Y013798D01*
X044180Y013577D01*
X044180Y013339D01*
X044089Y013118D01*
X043920Y012949D01*
X043989Y013019D02*
X044920Y013019D01*
X044920Y013177D02*
X044113Y013177D01*
X044179Y013336D02*
X044920Y013336D01*
X044920Y013494D02*
X044180Y013494D01*
X044149Y013653D02*
X044920Y013653D01*
X044920Y013811D02*
X044075Y013811D01*
X043913Y013970D02*
X044920Y013970D01*
X044920Y014128D02*
X042224Y014128D01*
X042065Y013970D02*
X043247Y013970D01*
X043085Y013811D02*
X041907Y013811D01*
X041748Y013653D02*
X043011Y013653D01*
X042980Y013494D02*
X041590Y013494D01*
X041431Y013336D02*
X042981Y013336D01*
X043047Y013177D02*
X041336Y013177D01*
X041434Y013019D02*
X043171Y013019D01*
X043456Y012860D02*
X041434Y012860D01*
X041434Y012702D02*
X044920Y012702D01*
X044920Y012860D02*
X043704Y012860D01*
X042980Y012543D02*
X041434Y012543D01*
X041434Y012385D02*
X042980Y012385D01*
X042980Y012226D02*
X041377Y012226D01*
X041343Y012068D02*
X042980Y012068D01*
X042980Y011909D02*
X041434Y011909D01*
X041434Y011751D02*
X042855Y011751D01*
X043580Y012080D02*
X038080Y006580D01*
X038080Y005480D01*
X037890Y005290D01*
X037110Y005290D01*
X037110Y004790D02*
X038390Y004790D01*
X038680Y005080D01*
X038680Y005808D01*
X043580Y010708D01*
X044136Y010483D02*
X044920Y010483D01*
X044920Y010641D02*
X044180Y010641D01*
X044180Y010800D02*
X044920Y010800D01*
X044920Y010958D02*
X044126Y010958D01*
X044020Y011117D02*
X044920Y011117D01*
X044920Y011275D02*
X043779Y011275D01*
X044045Y010324D02*
X044920Y010324D01*
X044920Y010166D02*
X043838Y010166D01*
X044144Y009849D02*
X044920Y009849D01*
X044920Y010007D02*
X043275Y010007D01*
X042483Y010007D02*
X041903Y010007D01*
X041744Y009849D02*
X042325Y009849D01*
X042166Y009690D02*
X041586Y009690D01*
X041427Y009532D02*
X042008Y009532D01*
X041849Y009373D02*
X041269Y009373D01*
X041110Y009215D02*
X041691Y009215D01*
X041532Y009056D02*
X040952Y009056D01*
X040793Y008898D02*
X041374Y008898D01*
X041215Y008739D02*
X040635Y008739D01*
X040476Y008581D02*
X041057Y008581D01*
X040898Y008422D02*
X040318Y008422D01*
X040159Y008264D02*
X040740Y008264D01*
X040581Y008105D02*
X040001Y008105D01*
X039842Y007947D02*
X040423Y007947D01*
X040264Y007788D02*
X039684Y007788D01*
X039525Y007630D02*
X040106Y007630D01*
X039947Y007471D02*
X039367Y007471D01*
X039208Y007313D02*
X039789Y007313D01*
X039630Y007154D02*
X039050Y007154D01*
X038891Y006996D02*
X039472Y006996D01*
X039313Y006837D02*
X038733Y006837D01*
X038574Y006679D02*
X039155Y006679D01*
X038996Y006520D02*
X038416Y006520D01*
X038360Y006362D02*
X038838Y006362D01*
X038679Y006203D02*
X038360Y006203D01*
X038360Y006045D02*
X038521Y006045D01*
X038409Y005886D02*
X038360Y005886D01*
X038360Y005728D02*
X038400Y005728D01*
X038400Y005569D02*
X038360Y005569D01*
X038354Y005411D02*
X038400Y005411D01*
X038400Y005252D02*
X038248Y005252D01*
X038298Y005094D02*
X038089Y005094D01*
X039422Y004777D02*
X040003Y004777D01*
X040161Y004935D02*
X039581Y004935D01*
X039739Y005094D02*
X040320Y005094D01*
X040478Y005252D02*
X039898Y005252D01*
X040056Y005411D02*
X040637Y005411D01*
X040795Y005569D02*
X040215Y005569D01*
X040373Y005728D02*
X040954Y005728D01*
X041112Y005886D02*
X040532Y005886D01*
X040690Y006045D02*
X041271Y006045D01*
X041429Y006203D02*
X040849Y006203D01*
X041007Y006362D02*
X041588Y006362D01*
X041746Y006520D02*
X041166Y006520D01*
X041324Y006679D02*
X041905Y006679D01*
X042063Y006837D02*
X041483Y006837D01*
X041641Y006996D02*
X042222Y006996D01*
X042380Y007154D02*
X041800Y007154D01*
X041958Y007313D02*
X042539Y007313D01*
X042697Y007471D02*
X042117Y007471D01*
X042275Y007630D02*
X042856Y007630D01*
X043001Y007788D02*
X042434Y007788D01*
X042592Y007947D02*
X042980Y007947D01*
X042991Y008105D02*
X042751Y008105D01*
X042909Y008264D02*
X043057Y008264D01*
X043068Y008422D02*
X043196Y008422D01*
X043226Y008581D02*
X044920Y008581D01*
X044920Y008739D02*
X044072Y008739D01*
X044180Y008898D02*
X044920Y008898D01*
X044920Y009056D02*
X044180Y009056D01*
X044180Y009215D02*
X044920Y009215D01*
X044920Y009373D02*
X044180Y009373D01*
X044180Y009532D02*
X044920Y009532D01*
X044920Y009690D02*
X044180Y009690D01*
X043580Y009330D02*
X038540Y004290D01*
X037110Y004290D01*
X037110Y003790D02*
X039412Y003790D01*
X043580Y007958D01*
X044180Y007947D02*
X044920Y007947D01*
X044920Y008105D02*
X044169Y008105D01*
X044103Y008264D02*
X044920Y008264D01*
X044920Y008422D02*
X043964Y008422D01*
X044159Y007788D02*
X044920Y007788D01*
X044920Y007630D02*
X044093Y007630D01*
X043942Y007471D02*
X044920Y007471D01*
X044920Y007313D02*
X043331Y007313D01*
X044089Y007154D02*
X044920Y007154D01*
X044920Y006996D02*
X044180Y006996D01*
X044180Y006837D02*
X044920Y006837D01*
X044920Y006679D02*
X044180Y006679D01*
X044180Y006520D02*
X044920Y006520D01*
X044920Y006362D02*
X044180Y006362D01*
X044180Y006203D02*
X044920Y006203D01*
X044920Y006045D02*
X044127Y006045D01*
X043869Y005728D02*
X044920Y005728D01*
X044920Y005886D02*
X043282Y005886D01*
X043291Y005728D02*
X043123Y005728D01*
X043103Y005569D02*
X042965Y005569D01*
X043019Y005411D02*
X042806Y005411D01*
X042648Y005252D02*
X042980Y005252D01*
X042980Y005094D02*
X042489Y005094D01*
X042331Y004935D02*
X042921Y004935D01*
X042763Y004777D02*
X042172Y004777D01*
X042014Y004618D02*
X042604Y004618D01*
X042446Y004460D02*
X041855Y004460D01*
X041697Y004301D02*
X042287Y004301D01*
X042129Y004143D02*
X041538Y004143D01*
X041380Y003984D02*
X041970Y003984D01*
X041812Y003826D02*
X041221Y003826D01*
X041063Y003667D02*
X041653Y003667D01*
X041495Y003509D02*
X040904Y003509D01*
X040746Y003350D02*
X041336Y003350D01*
X041178Y003192D02*
X040587Y003192D01*
X040290Y003290D02*
X043580Y006580D01*
X044057Y005569D02*
X044920Y005569D01*
X044920Y005411D02*
X044141Y005411D01*
X044180Y005252D02*
X044920Y005252D01*
X044920Y005094D02*
X044180Y005094D01*
X044121Y004935D02*
X044920Y004935D01*
X044920Y004777D02*
X044007Y004777D01*
X043748Y004618D02*
X044920Y004618D01*
X044920Y004460D02*
X043238Y004460D01*
X043396Y004618D02*
X043412Y004618D01*
X044180Y004301D02*
X044920Y004301D01*
X044920Y004143D02*
X044180Y004143D01*
X044180Y003984D02*
X044920Y003984D01*
X044920Y003826D02*
X044180Y003826D01*
X044180Y003667D02*
X044920Y003667D01*
X044920Y003509D02*
X044180Y003509D01*
X044180Y003350D02*
X044920Y003350D01*
X044920Y003192D02*
X043347Y003192D01*
X043189Y003033D02*
X044920Y003033D01*
X044920Y002875D02*
X043982Y002875D01*
X044110Y002716D02*
X044920Y002716D01*
X044920Y002558D02*
X044176Y002558D01*
X044180Y002399D02*
X044920Y002399D01*
X044920Y002241D02*
X044152Y002241D01*
X044083Y002082D02*
X044920Y002082D01*
X044920Y001924D02*
X043924Y001924D01*
X043313Y001765D02*
X044920Y001765D01*
X044920Y001607D02*
X044106Y001607D01*
X044180Y001448D02*
X044920Y001448D01*
X044920Y001290D02*
X044180Y001290D01*
X044180Y001131D02*
X044920Y001131D01*
X044920Y000973D02*
X044180Y000973D01*
X044180Y000814D02*
X044920Y000814D01*
X044920Y000656D02*
X044180Y000656D01*
X044110Y000497D02*
X044920Y000497D01*
X043050Y000497D02*
X010966Y000497D01*
X011032Y000656D02*
X042980Y000656D01*
X042980Y000814D02*
X030311Y000814D01*
X030049Y000814D02*
X011081Y000814D01*
X011081Y000973D02*
X012627Y000973D01*
X012542Y001008D02*
X012790Y000905D01*
X013058Y000905D01*
X013306Y001008D01*
X013496Y001198D01*
X013599Y001446D01*
X013599Y001714D01*
X013496Y001962D01*
X013306Y002152D01*
X013058Y002255D01*
X012790Y002255D01*
X012542Y002152D01*
X012352Y001962D01*
X012249Y001714D01*
X012249Y001446D01*
X012352Y001198D01*
X012542Y001008D01*
X012418Y001131D02*
X011062Y001131D01*
X010997Y001290D02*
X012314Y001290D01*
X012249Y001448D02*
X010887Y001448D01*
X010708Y001607D02*
X012249Y001607D01*
X012270Y001765D02*
X000410Y001765D01*
X000410Y001607D02*
X001392Y001607D01*
X001213Y001448D02*
X000410Y001448D01*
X000410Y001290D02*
X001103Y001290D01*
X001038Y001131D02*
X000410Y001131D01*
X000410Y000973D02*
X001019Y000973D01*
X001019Y000814D02*
X000410Y000814D01*
X000410Y000656D02*
X001068Y000656D01*
X001134Y000497D02*
X000410Y000497D01*
X002466Y000497D02*
X009634Y000497D01*
X009568Y000656D02*
X002532Y000656D01*
X002581Y000814D02*
X009519Y000814D01*
X009519Y000973D02*
X002581Y000973D01*
X002562Y001131D02*
X009538Y001131D01*
X009603Y001290D02*
X002497Y001290D01*
X002387Y001448D02*
X009713Y001448D01*
X009892Y001607D02*
X002208Y001607D01*
X000410Y001924D02*
X012336Y001924D01*
X012472Y002082D02*
X000410Y002082D01*
X000410Y002241D02*
X012755Y002241D01*
X013093Y002241D02*
X014133Y002241D01*
X014168Y002255D02*
X013920Y002152D01*
X013730Y001962D01*
X013627Y001714D01*
X013627Y001446D01*
X013730Y001198D01*
X013920Y001008D01*
X014168Y000905D01*
X014436Y000905D01*
X014684Y001008D01*
X014874Y001198D01*
X014977Y001446D01*
X014977Y001714D01*
X014874Y001962D01*
X014684Y002152D01*
X014436Y002255D01*
X014168Y002255D01*
X014471Y002241D02*
X016895Y002241D01*
X016930Y002255D02*
X016682Y002152D01*
X016492Y001962D01*
X016389Y001714D01*
X016389Y001446D01*
X016492Y001198D01*
X016682Y001008D01*
X016930Y000905D01*
X017198Y000905D01*
X017446Y001008D01*
X017636Y001198D01*
X017739Y001446D01*
X017739Y001714D01*
X017636Y001962D01*
X017446Y002152D01*
X017198Y002255D01*
X016930Y002255D01*
X017233Y002241D02*
X018273Y002241D01*
X018308Y002255D02*
X018060Y002152D01*
X017870Y001962D01*
X017767Y001714D01*
X017767Y001446D01*
X017870Y001198D01*
X018060Y001008D01*
X018308Y000905D01*
X018576Y000905D01*
X018824Y001008D01*
X019014Y001198D01*
X019117Y001446D01*
X019117Y001714D01*
X019014Y001962D01*
X018824Y002152D01*
X018576Y002255D01*
X018308Y002255D01*
X018611Y002241D02*
X029536Y002241D01*
X029344Y002082D02*
X020474Y002082D01*
X020475Y002079D02*
X020463Y002124D01*
X020439Y002166D01*
X020406Y002199D01*
X020364Y002223D01*
X020319Y002235D01*
X019858Y002235D01*
X019858Y001618D01*
X019782Y001618D01*
X019782Y001542D01*
X019165Y001542D01*
X019165Y001081D01*
X019177Y001036D01*
X019201Y000994D01*
X019234Y000961D01*
X019276Y000937D01*
X019321Y000925D01*
X019782Y000925D01*
X019782Y001542D01*
X019858Y001542D01*
X019858Y001618D01*
X020475Y001618D01*
X020475Y002079D01*
X020475Y001924D02*
X029292Y001924D01*
X029308Y001765D02*
X020475Y001765D01*
X020475Y001542D02*
X019858Y001542D01*
X019858Y000925D01*
X020319Y000925D01*
X020364Y000937D01*
X020406Y000961D01*
X020439Y000994D01*
X020463Y001036D01*
X020475Y001081D01*
X020475Y001542D01*
X020475Y001448D02*
X029899Y001448D01*
X029805Y001290D02*
X020475Y001290D01*
X020475Y001131D02*
X029792Y001131D01*
X029846Y000973D02*
X020417Y000973D01*
X019858Y000973D02*
X019782Y000973D01*
X019782Y001131D02*
X019858Y001131D01*
X019858Y001290D02*
X019782Y001290D01*
X019782Y001448D02*
X019858Y001448D01*
X019858Y001607D02*
X029405Y001607D01*
X029680Y001880D02*
X031780Y001880D01*
X032180Y002280D01*
X033240Y002280D01*
X033250Y002290D01*
X033850Y002241D02*
X036510Y002241D01*
X036510Y002399D02*
X033850Y002399D01*
X033830Y002558D02*
X036530Y002558D01*
X036510Y002716D02*
X033850Y002716D01*
X033850Y002875D02*
X036510Y002875D01*
X036540Y003033D02*
X033820Y003033D01*
X033850Y003192D02*
X036510Y003192D01*
X036510Y003350D02*
X033850Y003350D01*
X033844Y003509D02*
X036516Y003509D01*
X036510Y003667D02*
X033850Y003667D01*
X033250Y003290D02*
X033240Y003280D01*
X031580Y003280D01*
X031260Y003509D02*
X000410Y003509D01*
X000410Y003667D02*
X031500Y003667D01*
X031780Y004180D02*
X032170Y003790D01*
X031780Y004180D02*
X031380Y004180D01*
X031780Y004780D02*
X032270Y004290D01*
X033250Y004290D01*
X033250Y004790D02*
X032290Y004790D01*
X032280Y004780D01*
X031780Y005280D01*
X030580Y005280D01*
X031080Y004780D02*
X031780Y004780D01*
X032270Y005290D02*
X033250Y005290D01*
X032270Y005290D02*
X031780Y005780D01*
X029880Y005780D01*
X031873Y006045D02*
X032720Y006045D01*
X032670Y005886D02*
X032070Y005886D01*
X032017Y005939D02*
X032017Y005939D01*
X032228Y005728D02*
X032670Y005728D01*
X033250Y005886D02*
X033250Y005886D01*
X033250Y006045D02*
X033250Y006045D01*
X037710Y005886D02*
X037800Y005886D01*
X037800Y005728D02*
X037710Y005728D01*
X039264Y004618D02*
X039844Y004618D01*
X039686Y004460D02*
X039105Y004460D01*
X038947Y004301D02*
X039527Y004301D01*
X039369Y004143D02*
X038788Y004143D01*
X040290Y003290D02*
X037110Y003290D01*
X037110Y002790D02*
X041172Y002790D01*
X043580Y005198D01*
X043580Y003820D02*
X042050Y002290D01*
X037110Y002290D01*
X036510Y002082D02*
X033850Y002082D01*
X033850Y001924D02*
X036510Y001924D01*
X036510Y001765D02*
X033850Y001765D01*
X033850Y001607D02*
X036510Y001607D01*
X037110Y001790D02*
X042942Y001790D01*
X043580Y002428D01*
X042980Y002399D02*
X042555Y002399D01*
X042713Y002558D02*
X042984Y002558D01*
X043050Y002716D02*
X042872Y002716D01*
X043030Y002875D02*
X043178Y002875D01*
X042997Y002241D02*
X042396Y002241D01*
X042238Y002082D02*
X042838Y002082D01*
X042980Y001448D02*
X032244Y001448D01*
X032085Y001290D02*
X042980Y001290D01*
X042980Y001131D02*
X031927Y001131D01*
X031768Y000973D02*
X042980Y000973D01*
X033250Y001790D02*
X032190Y001790D01*
X031580Y001180D01*
X030180Y001180D01*
X030180Y002380D02*
X031680Y002380D01*
X032080Y002780D01*
X033240Y002780D01*
X033250Y002790D01*
X031779Y002875D02*
X000410Y002875D01*
X000410Y003033D02*
X031278Y003033D01*
X031197Y003192D02*
X000410Y003192D01*
X000410Y003350D02*
X031192Y003350D01*
X031620Y002716D02*
X030383Y002716D01*
X029977Y002716D02*
X000410Y002716D01*
X000410Y002558D02*
X029833Y002558D01*
X029792Y002399D02*
X000410Y002399D01*
X000410Y005411D02*
X007969Y005411D01*
X007765Y005569D02*
X000410Y005569D01*
X000410Y005728D02*
X007607Y005728D01*
X007448Y005886D02*
X000410Y005886D01*
X000410Y006045D02*
X007290Y006045D01*
X004721Y006203D02*
X004379Y006203D01*
X004535Y006362D02*
X004565Y006362D01*
X003721Y006203D02*
X003325Y006203D01*
X003498Y006362D02*
X003565Y006362D01*
X003070Y006362D02*
X003030Y006362D01*
X003030Y006520D02*
X003070Y006520D01*
X002602Y006362D02*
X002535Y006362D01*
X002379Y006203D02*
X002775Y006203D01*
X003030Y006203D02*
X003070Y006203D01*
X001721Y006203D02*
X000410Y006203D01*
X000410Y006362D02*
X001565Y006362D01*
X001499Y006520D02*
X000410Y006520D01*
X000410Y006679D02*
X001480Y006679D01*
X001498Y006837D02*
X000410Y006837D01*
X000410Y006996D02*
X001564Y006996D01*
X001718Y007154D02*
X000410Y007154D01*
X000410Y007313D02*
X005287Y007313D01*
X005445Y007471D02*
X000410Y007471D01*
X000410Y007630D02*
X005604Y007630D01*
X005762Y007788D02*
X000410Y007788D01*
X000410Y007947D02*
X005921Y007947D01*
X006079Y008105D02*
X000410Y008105D01*
X002382Y007154D02*
X002769Y007154D01*
X002599Y006996D02*
X002536Y006996D01*
X003030Y006996D02*
X003070Y006996D01*
X003070Y007154D02*
X003030Y007154D01*
X003331Y007154D02*
X003718Y007154D01*
X003564Y006996D02*
X003501Y006996D01*
X003070Y006837D02*
X003030Y006837D01*
X004382Y007154D02*
X004718Y007154D01*
X004564Y006996D02*
X004536Y006996D01*
X011180Y006880D02*
X011180Y006680D01*
X012049Y010007D02*
X012257Y010007D01*
X012099Y010166D02*
X011890Y010166D01*
X008582Y013019D02*
X008518Y013019D01*
X008340Y013177D02*
X008760Y013177D01*
X009340Y013177D02*
X009524Y013177D01*
X007760Y013177D02*
X007340Y013177D01*
X007518Y013019D02*
X007582Y013019D01*
X012183Y014287D02*
X012216Y014287D01*
X014144Y014287D02*
X014236Y014287D01*
X014236Y014445D02*
X014144Y014445D01*
X014144Y014604D02*
X014248Y014604D01*
X014654Y014604D02*
X014809Y014604D01*
X014809Y014445D02*
X014654Y014445D01*
X014654Y014287D02*
X014809Y014287D01*
X014654Y014128D02*
X014144Y014128D01*
X014235Y013970D02*
X014236Y013970D01*
X015226Y014287D02*
X015364Y014287D01*
X015364Y014445D02*
X015226Y014445D01*
X015214Y014604D02*
X015364Y014604D01*
X022210Y013494D02*
X024399Y013494D01*
X024241Y013336D02*
X022210Y013336D01*
X022210Y013177D02*
X024082Y013177D01*
X024557Y012860D02*
X028015Y012860D01*
X028174Y013019D02*
X024716Y013019D01*
X024874Y013177D02*
X028332Y013177D01*
X028491Y013336D02*
X025033Y013336D01*
X025191Y013494D02*
X028649Y013494D01*
X029283Y013336D02*
X032741Y013336D01*
X032899Y013494D02*
X029441Y013494D01*
X029124Y013177D02*
X032582Y013177D01*
X032424Y013019D02*
X028966Y013019D01*
X028807Y012860D02*
X032265Y012860D01*
X032107Y012702D02*
X028649Y012702D01*
X030156Y013653D02*
X030204Y013653D01*
X029607Y014762D02*
X033065Y014762D01*
X033223Y014921D02*
X029765Y014921D01*
X029924Y015079D02*
X033382Y015079D01*
X033857Y014762D02*
X037315Y014762D01*
X037473Y014921D02*
X034015Y014921D01*
X034174Y015079D02*
X037632Y015079D01*
X037478Y015555D02*
X038107Y015555D01*
X038114Y015713D02*
X037712Y015713D01*
X037827Y015872D02*
X037999Y015872D01*
X037934Y016030D02*
X037893Y016030D01*
X037899Y016189D02*
X037927Y016189D01*
X037941Y016347D02*
X037886Y016347D01*
X037820Y016506D02*
X038006Y016506D01*
X038131Y016664D02*
X037695Y016664D01*
X036556Y016030D02*
X036505Y016030D01*
X036505Y015872D02*
X036621Y015872D01*
X036505Y015713D02*
X036736Y015713D01*
X036970Y015555D02*
X036424Y015555D01*
X035888Y015555D02*
X035812Y015555D01*
X035812Y015713D02*
X035888Y015713D01*
X035888Y015872D02*
X035812Y015872D01*
X035812Y016030D02*
X035888Y016030D01*
X035888Y016347D02*
X035812Y016347D01*
X035812Y016506D02*
X035888Y016506D01*
X035888Y016664D02*
X035812Y016664D01*
X035812Y016823D02*
X035888Y016823D01*
X039942Y016823D02*
X040018Y016823D01*
X040018Y016664D02*
X039942Y016664D01*
X039942Y016506D02*
X040018Y016506D01*
X040018Y016347D02*
X039942Y016347D01*
X039942Y016030D02*
X040018Y016030D01*
X040018Y015872D02*
X039942Y015872D01*
X039942Y015713D02*
X040018Y015713D01*
X040018Y015555D02*
X039942Y015555D01*
X040554Y015555D02*
X041100Y015555D01*
X040866Y015713D02*
X040635Y015713D01*
X040635Y015872D02*
X040751Y015872D01*
X040686Y016030D02*
X040635Y016030D01*
X041608Y015555D02*
X042452Y015555D01*
X042244Y015713D02*
X041842Y015713D01*
X041957Y015872D02*
X042129Y015872D01*
X042064Y016030D02*
X042023Y016030D01*
X042029Y016189D02*
X042057Y016189D01*
X042071Y016347D02*
X042016Y016347D01*
X041950Y016506D02*
X042136Y016506D01*
X042261Y016664D02*
X041825Y016664D01*
X042732Y016180D02*
X042732Y015032D01*
X040880Y013180D01*
X040880Y012681D01*
X040424Y013177D02*
X037624Y013177D01*
X037466Y013019D02*
X039446Y013019D01*
X039446Y012860D02*
X037307Y012860D01*
X037149Y012702D02*
X039903Y012702D01*
X039903Y012860D02*
X040057Y012860D01*
X040057Y013019D02*
X039903Y013019D01*
X039903Y012543D02*
X040057Y012543D01*
X040057Y012385D02*
X039903Y012385D01*
X039903Y012226D02*
X040057Y012226D01*
X039511Y012226D02*
X036673Y012226D01*
X036515Y012068D02*
X039517Y012068D01*
X039446Y012385D02*
X036832Y012385D01*
X036990Y012543D02*
X039446Y012543D01*
X040641Y013336D02*
X037783Y013336D01*
X037941Y013494D02*
X040798Y013494D01*
X040957Y013653D02*
X040595Y013653D01*
X040726Y013811D02*
X041115Y013811D01*
X042383Y014287D02*
X044920Y014287D01*
X044920Y014445D02*
X042541Y014445D01*
X042700Y014604D02*
X044920Y014604D01*
X044920Y014762D02*
X042858Y014762D01*
X042989Y014921D02*
X044920Y014921D01*
X044920Y015079D02*
X043012Y015079D01*
X043012Y015238D02*
X044920Y015238D01*
X044920Y015396D02*
X043012Y015396D01*
X043012Y015555D02*
X043536Y015555D01*
X043455Y015713D02*
X043220Y015713D01*
X043335Y015872D02*
X043455Y015872D01*
X043455Y016030D02*
X043401Y016030D01*
X044072Y016030D02*
X044148Y016030D01*
X044148Y015872D02*
X044072Y015872D01*
X044072Y015713D02*
X044148Y015713D01*
X044148Y015555D02*
X044072Y015555D01*
X044684Y015555D02*
X044920Y015555D01*
X044920Y015713D02*
X044765Y015713D01*
X044765Y015872D02*
X044920Y015872D01*
X044920Y016030D02*
X044765Y016030D01*
X044148Y016347D02*
X044072Y016347D01*
X044072Y016506D02*
X044148Y016506D01*
X044148Y016664D02*
X044072Y016664D01*
X044072Y016823D02*
X044148Y016823D01*
X038704Y013653D02*
X038656Y013653D01*
X037149Y013494D02*
X033691Y013494D01*
X033533Y013336D02*
X036991Y013336D01*
X036832Y013177D02*
X033374Y013177D01*
X033216Y013019D02*
X036674Y013019D01*
X036515Y012860D02*
X033057Y012860D01*
X032899Y012702D02*
X036357Y012702D01*
X036198Y012543D02*
X032740Y012543D01*
X032582Y012385D02*
X036040Y012385D01*
X034454Y013653D02*
X034406Y013653D01*
X039426Y011275D02*
X025240Y011275D01*
X025240Y011117D02*
X039490Y011117D01*
X025954Y013653D02*
X025906Y013653D01*
X023523Y013019D02*
X022210Y013019D01*
X022210Y012860D02*
X023364Y012860D01*
X023206Y012702D02*
X022210Y012702D01*
X022210Y012543D02*
X023047Y012543D01*
X022889Y012385D02*
X022210Y012385D01*
X022210Y012226D02*
X022730Y012226D01*
X022572Y012068D02*
X022210Y012068D01*
X022210Y011909D02*
X022413Y011909D01*
X022255Y011751D02*
X022210Y011751D01*
X024930Y010958D02*
X024930Y010958D01*
X024930Y010800D02*
X024930Y010800D01*
X024930Y010641D02*
X024930Y010641D01*
X024930Y010483D02*
X024930Y010483D01*
X019782Y002235D02*
X019321Y002235D01*
X019276Y002223D01*
X019234Y002199D01*
X019201Y002166D01*
X019177Y002124D01*
X019165Y002079D01*
X019165Y001618D01*
X019782Y001618D01*
X019782Y002235D01*
X019782Y002082D02*
X019858Y002082D01*
X019858Y001924D02*
X019782Y001924D01*
X019782Y001765D02*
X019858Y001765D01*
X019782Y001607D02*
X019117Y001607D01*
X019117Y001448D02*
X019165Y001448D01*
X019165Y001290D02*
X019052Y001290D01*
X018948Y001131D02*
X019165Y001131D01*
X019223Y000973D02*
X018739Y000973D01*
X018145Y000973D02*
X017361Y000973D01*
X017570Y001131D02*
X017936Y001131D01*
X017832Y001290D02*
X017674Y001290D01*
X017739Y001448D02*
X017767Y001448D01*
X017767Y001607D02*
X017739Y001607D01*
X017718Y001765D02*
X017788Y001765D01*
X017854Y001924D02*
X017652Y001924D01*
X017517Y002082D02*
X017989Y002082D01*
X018895Y002082D02*
X019166Y002082D01*
X019165Y001924D02*
X019030Y001924D01*
X019096Y001765D02*
X019165Y001765D01*
X016767Y000973D02*
X016277Y000973D01*
X016266Y000961D02*
X016299Y000994D01*
X016323Y001036D01*
X016335Y001081D01*
X016335Y001542D01*
X015718Y001542D01*
X015718Y001618D01*
X015642Y001618D01*
X015642Y001542D01*
X015025Y001542D01*
X015025Y001081D01*
X015037Y001036D01*
X015061Y000994D01*
X015094Y000961D01*
X015136Y000937D01*
X015181Y000925D01*
X015642Y000925D01*
X015642Y001542D01*
X015718Y001542D01*
X015718Y000925D01*
X016179Y000925D01*
X016224Y000937D01*
X016266Y000961D01*
X016335Y001131D02*
X016558Y001131D01*
X016454Y001290D02*
X016335Y001290D01*
X016335Y001448D02*
X016389Y001448D01*
X016389Y001607D02*
X015718Y001607D01*
X015718Y001618D02*
X016335Y001618D01*
X016335Y002079D01*
X016323Y002124D01*
X016299Y002166D01*
X016266Y002199D01*
X016224Y002223D01*
X016179Y002235D01*
X015718Y002235D01*
X015718Y001618D01*
X015642Y001618D02*
X015642Y002235D01*
X015181Y002235D01*
X015136Y002223D01*
X015094Y002199D01*
X015061Y002166D01*
X015037Y002124D01*
X015025Y002079D01*
X015025Y001618D01*
X015642Y001618D01*
X015642Y001607D02*
X014977Y001607D01*
X014977Y001448D02*
X015025Y001448D01*
X015025Y001290D02*
X014912Y001290D01*
X014808Y001131D02*
X015025Y001131D01*
X015083Y000973D02*
X014599Y000973D01*
X014005Y000973D02*
X013221Y000973D01*
X013430Y001131D02*
X013796Y001131D01*
X013692Y001290D02*
X013534Y001290D01*
X013599Y001448D02*
X013627Y001448D01*
X013627Y001607D02*
X013599Y001607D01*
X013578Y001765D02*
X013648Y001765D01*
X013714Y001924D02*
X013512Y001924D01*
X013377Y002082D02*
X013849Y002082D01*
X014755Y002082D02*
X015026Y002082D01*
X015025Y001924D02*
X014890Y001924D01*
X014956Y001765D02*
X015025Y001765D01*
X015642Y001765D02*
X015718Y001765D01*
X015718Y001924D02*
X015642Y001924D01*
X015642Y002082D02*
X015718Y002082D01*
X016334Y002082D02*
X016612Y002082D01*
X016476Y001924D02*
X016335Y001924D01*
X016335Y001765D02*
X016410Y001765D01*
X015718Y001448D02*
X015642Y001448D01*
X015642Y001290D02*
X015718Y001290D01*
X015718Y001131D02*
X015642Y001131D01*
X015642Y000973D02*
X015718Y000973D01*
D21*
X011180Y004880D03*
X011180Y006680D03*
X011280Y009480D03*
X011280Y010380D03*
X011280Y011380D03*
X007980Y010380D03*
X006280Y009780D03*
X008980Y009480D03*
X007080Y011380D03*
X029880Y005780D03*
X030580Y005280D03*
X031080Y004780D03*
X031380Y004180D03*
X031580Y003280D03*
X030180Y002380D03*
X029680Y001880D03*
X030180Y001180D03*
M02*
