G75*
%MOIN*%
%OFA0B0*%
%FSLAX24Y24*%
%IPPOS*%
%LPD*%
%AMOC8*
5,1,8,0,0,1.08239X$1,22.5*
%
%ADD10C,0.1162*%
%ADD11R,0.0800X0.0800*%
%ADD12C,0.0800*%
%ADD13R,0.0769X0.0690*%
%ADD14R,0.1010X0.1010*%
%ADD15C,0.1010*%
%ADD16R,0.0860X0.0860*%
%ADD17C,0.0860*%
%ADD18R,0.1060X0.0260*%
%ADD19C,0.0436*%
D10*
X001800Y000930D03*
X010300Y000930D03*
X010300Y014430D03*
X001800Y014430D03*
D11*
X010050Y012680D03*
D12*
X009050Y012680D03*
X008050Y012680D03*
X007050Y012680D03*
X006050Y012680D03*
X005050Y012680D03*
X004050Y012680D03*
X003050Y012680D03*
X003050Y006680D03*
X002050Y006680D03*
X004050Y006680D03*
X005050Y006680D03*
X006050Y006680D03*
X007050Y006680D03*
X008050Y006680D03*
X009050Y006680D03*
X010050Y006680D03*
D13*
X008030Y005131D03*
X006980Y005131D03*
X005880Y005131D03*
X004780Y005131D03*
X004780Y004029D03*
X005880Y004029D03*
X006980Y004029D03*
X008030Y004029D03*
X007880Y014429D03*
X006880Y014429D03*
X005880Y014429D03*
X005880Y015531D03*
X006880Y015531D03*
X007880Y015531D03*
X008880Y015531D03*
X008880Y014429D03*
D14*
X015180Y016180D03*
X019310Y016180D03*
X023460Y016180D03*
X027590Y016180D03*
X031720Y016180D03*
X035850Y016180D03*
X039980Y016180D03*
X044110Y016180D03*
X019820Y001580D03*
X015680Y001580D03*
D15*
X014302Y001580D03*
X012924Y001580D03*
X017064Y001580D03*
X018442Y001580D03*
X017932Y016180D03*
X016554Y016180D03*
X013802Y016180D03*
X012424Y016180D03*
X020704Y016180D03*
X022082Y016180D03*
X024834Y016180D03*
X026212Y016180D03*
X028964Y016180D03*
X030342Y016180D03*
X033094Y016180D03*
X034472Y016180D03*
X037224Y016180D03*
X038602Y016180D03*
X041354Y016180D03*
X042732Y016180D03*
D16*
X043580Y012080D03*
X043580Y009330D03*
X043580Y006580D03*
X043580Y003820D03*
X043580Y001050D03*
D17*
X043580Y002428D03*
X043580Y005198D03*
X043580Y007958D03*
X043580Y010708D03*
X043580Y013458D03*
D18*
X028080Y005780D03*
X028080Y005280D03*
X028080Y004780D03*
X028080Y004280D03*
X028080Y003780D03*
X028080Y003280D03*
X028080Y002780D03*
X028080Y002280D03*
X028080Y001780D03*
X024080Y001780D03*
X024080Y002280D03*
X024080Y002780D03*
X024080Y003280D03*
X024080Y003780D03*
X024080Y004280D03*
X024080Y004780D03*
X024080Y005280D03*
X024080Y005780D03*
D19*
X029880Y005780D03*
X030580Y005280D03*
X031080Y004780D03*
X031380Y004180D03*
X031580Y003280D03*
X030180Y002380D03*
X029680Y001880D03*
X030180Y001180D03*
X011180Y004880D03*
X011180Y006680D03*
X011280Y009480D03*
X011280Y010380D03*
X011280Y011380D03*
X007980Y010380D03*
X006280Y009780D03*
X008980Y009480D03*
X007080Y011380D03*
M02*
