G75*
%MOIN*%
%OFA0B0*%
%FSLAX24Y24*%
%IPPOS*%
%LPD*%
%AMOC8*
5,1,8,0,0,1.08239X$1,22.5*
%
%ADD10C,0.0000*%
D10*
X000180Y000180D02*
X045150Y000180D01*
X045150Y017672D01*
X000180Y017672D01*
X000180Y000180D01*
X001249Y000930D02*
X001251Y000977D01*
X001257Y001023D01*
X001267Y001069D01*
X001280Y001114D01*
X001298Y001157D01*
X001319Y001199D01*
X001343Y001239D01*
X001371Y001276D01*
X001402Y001311D01*
X001436Y001344D01*
X001472Y001373D01*
X001511Y001399D01*
X001552Y001422D01*
X001595Y001441D01*
X001639Y001457D01*
X001684Y001469D01*
X001730Y001477D01*
X001777Y001481D01*
X001823Y001481D01*
X001870Y001477D01*
X001916Y001469D01*
X001961Y001457D01*
X002005Y001441D01*
X002048Y001422D01*
X002089Y001399D01*
X002128Y001373D01*
X002164Y001344D01*
X002198Y001311D01*
X002229Y001276D01*
X002257Y001239D01*
X002281Y001199D01*
X002302Y001157D01*
X002320Y001114D01*
X002333Y001069D01*
X002343Y001023D01*
X002349Y000977D01*
X002351Y000930D01*
X002349Y000883D01*
X002343Y000837D01*
X002333Y000791D01*
X002320Y000746D01*
X002302Y000703D01*
X002281Y000661D01*
X002257Y000621D01*
X002229Y000584D01*
X002198Y000549D01*
X002164Y000516D01*
X002128Y000487D01*
X002089Y000461D01*
X002048Y000438D01*
X002005Y000419D01*
X001961Y000403D01*
X001916Y000391D01*
X001870Y000383D01*
X001823Y000379D01*
X001777Y000379D01*
X001730Y000383D01*
X001684Y000391D01*
X001639Y000403D01*
X001595Y000419D01*
X001552Y000438D01*
X001511Y000461D01*
X001472Y000487D01*
X001436Y000516D01*
X001402Y000549D01*
X001371Y000584D01*
X001343Y000621D01*
X001319Y000661D01*
X001298Y000703D01*
X001280Y000746D01*
X001267Y000791D01*
X001257Y000837D01*
X001251Y000883D01*
X001249Y000930D01*
X009749Y000930D02*
X009751Y000977D01*
X009757Y001023D01*
X009767Y001069D01*
X009780Y001114D01*
X009798Y001157D01*
X009819Y001199D01*
X009843Y001239D01*
X009871Y001276D01*
X009902Y001311D01*
X009936Y001344D01*
X009972Y001373D01*
X010011Y001399D01*
X010052Y001422D01*
X010095Y001441D01*
X010139Y001457D01*
X010184Y001469D01*
X010230Y001477D01*
X010277Y001481D01*
X010323Y001481D01*
X010370Y001477D01*
X010416Y001469D01*
X010461Y001457D01*
X010505Y001441D01*
X010548Y001422D01*
X010589Y001399D01*
X010628Y001373D01*
X010664Y001344D01*
X010698Y001311D01*
X010729Y001276D01*
X010757Y001239D01*
X010781Y001199D01*
X010802Y001157D01*
X010820Y001114D01*
X010833Y001069D01*
X010843Y001023D01*
X010849Y000977D01*
X010851Y000930D01*
X010849Y000883D01*
X010843Y000837D01*
X010833Y000791D01*
X010820Y000746D01*
X010802Y000703D01*
X010781Y000661D01*
X010757Y000621D01*
X010729Y000584D01*
X010698Y000549D01*
X010664Y000516D01*
X010628Y000487D01*
X010589Y000461D01*
X010548Y000438D01*
X010505Y000419D01*
X010461Y000403D01*
X010416Y000391D01*
X010370Y000383D01*
X010323Y000379D01*
X010277Y000379D01*
X010230Y000383D01*
X010184Y000391D01*
X010139Y000403D01*
X010095Y000419D01*
X010052Y000438D01*
X010011Y000461D01*
X009972Y000487D01*
X009936Y000516D01*
X009902Y000549D01*
X009871Y000584D01*
X009843Y000621D01*
X009819Y000661D01*
X009798Y000703D01*
X009780Y000746D01*
X009767Y000791D01*
X009757Y000837D01*
X009751Y000883D01*
X009749Y000930D01*
X009749Y014430D02*
X009751Y014477D01*
X009757Y014523D01*
X009767Y014569D01*
X009780Y014614D01*
X009798Y014657D01*
X009819Y014699D01*
X009843Y014739D01*
X009871Y014776D01*
X009902Y014811D01*
X009936Y014844D01*
X009972Y014873D01*
X010011Y014899D01*
X010052Y014922D01*
X010095Y014941D01*
X010139Y014957D01*
X010184Y014969D01*
X010230Y014977D01*
X010277Y014981D01*
X010323Y014981D01*
X010370Y014977D01*
X010416Y014969D01*
X010461Y014957D01*
X010505Y014941D01*
X010548Y014922D01*
X010589Y014899D01*
X010628Y014873D01*
X010664Y014844D01*
X010698Y014811D01*
X010729Y014776D01*
X010757Y014739D01*
X010781Y014699D01*
X010802Y014657D01*
X010820Y014614D01*
X010833Y014569D01*
X010843Y014523D01*
X010849Y014477D01*
X010851Y014430D01*
X010849Y014383D01*
X010843Y014337D01*
X010833Y014291D01*
X010820Y014246D01*
X010802Y014203D01*
X010781Y014161D01*
X010757Y014121D01*
X010729Y014084D01*
X010698Y014049D01*
X010664Y014016D01*
X010628Y013987D01*
X010589Y013961D01*
X010548Y013938D01*
X010505Y013919D01*
X010461Y013903D01*
X010416Y013891D01*
X010370Y013883D01*
X010323Y013879D01*
X010277Y013879D01*
X010230Y013883D01*
X010184Y013891D01*
X010139Y013903D01*
X010095Y013919D01*
X010052Y013938D01*
X010011Y013961D01*
X009972Y013987D01*
X009936Y014016D01*
X009902Y014049D01*
X009871Y014084D01*
X009843Y014121D01*
X009819Y014161D01*
X009798Y014203D01*
X009780Y014246D01*
X009767Y014291D01*
X009757Y014337D01*
X009751Y014383D01*
X009749Y014430D01*
X001249Y014430D02*
X001251Y014477D01*
X001257Y014523D01*
X001267Y014569D01*
X001280Y014614D01*
X001298Y014657D01*
X001319Y014699D01*
X001343Y014739D01*
X001371Y014776D01*
X001402Y014811D01*
X001436Y014844D01*
X001472Y014873D01*
X001511Y014899D01*
X001552Y014922D01*
X001595Y014941D01*
X001639Y014957D01*
X001684Y014969D01*
X001730Y014977D01*
X001777Y014981D01*
X001823Y014981D01*
X001870Y014977D01*
X001916Y014969D01*
X001961Y014957D01*
X002005Y014941D01*
X002048Y014922D01*
X002089Y014899D01*
X002128Y014873D01*
X002164Y014844D01*
X002198Y014811D01*
X002229Y014776D01*
X002257Y014739D01*
X002281Y014699D01*
X002302Y014657D01*
X002320Y014614D01*
X002333Y014569D01*
X002343Y014523D01*
X002349Y014477D01*
X002351Y014430D01*
X002349Y014383D01*
X002343Y014337D01*
X002333Y014291D01*
X002320Y014246D01*
X002302Y014203D01*
X002281Y014161D01*
X002257Y014121D01*
X002229Y014084D01*
X002198Y014049D01*
X002164Y014016D01*
X002128Y013987D01*
X002089Y013961D01*
X002048Y013938D01*
X002005Y013919D01*
X001961Y013903D01*
X001916Y013891D01*
X001870Y013883D01*
X001823Y013879D01*
X001777Y013879D01*
X001730Y013883D01*
X001684Y013891D01*
X001639Y013903D01*
X001595Y013919D01*
X001552Y013938D01*
X001511Y013961D01*
X001472Y013987D01*
X001436Y014016D01*
X001402Y014049D01*
X001371Y014084D01*
X001343Y014121D01*
X001319Y014161D01*
X001298Y014203D01*
X001280Y014246D01*
X001267Y014291D01*
X001257Y014337D01*
X001251Y014383D01*
X001249Y014430D01*
M02*
