G75*
%MOIN*%
%OFA0B0*%
%FSLAX24Y24*%
%IPPOS*%
%LPD*%
%AMOC8*
5,1,8,0,0,1.08239X$1,22.5*
%
%ADD10C,0.0080*%
%ADD11C,0.0030*%
D10*
X020610Y007780D02*
X020609Y008686D01*
X020647Y008696D01*
X020684Y008710D01*
X020719Y008727D01*
X020752Y008747D01*
X020783Y008771D01*
X020812Y008797D01*
X020838Y008826D01*
X020861Y008858D01*
X020881Y008892D01*
X020898Y008927D01*
X020911Y008964D01*
X020920Y009002D01*
X020926Y009041D01*
X020928Y009080D01*
X020926Y009119D01*
X020920Y009158D01*
X020911Y009196D01*
X020898Y009233D01*
X020881Y009268D01*
X020861Y009302D01*
X020838Y009334D01*
X020812Y009363D01*
X020783Y009389D01*
X020752Y009413D01*
X020719Y009433D01*
X020684Y009450D01*
X020647Y009464D01*
X020609Y009474D01*
X020610Y010400D01*
X020658Y010410D02*
X025220Y010410D01*
X025250Y010430D02*
X025250Y007730D01*
X025248Y007711D01*
X025242Y007692D01*
X025234Y007674D01*
X025223Y007658D01*
X025210Y007643D01*
X025194Y007631D01*
X025177Y007621D01*
X025159Y007615D01*
X025140Y007611D01*
X025120Y007610D01*
X020780Y007610D01*
X020756Y007612D01*
X020732Y007617D01*
X020709Y007625D01*
X020688Y007637D01*
X020669Y007652D01*
X020652Y007669D01*
X020637Y007688D01*
X020625Y007709D01*
X020617Y007732D01*
X020612Y007756D01*
X020610Y007780D01*
X021590Y008820D02*
X021730Y008820D01*
X021800Y008890D01*
X021981Y008890D02*
X022051Y008820D01*
X022191Y008820D01*
X022261Y008890D01*
X021981Y009170D01*
X021981Y008890D01*
X022261Y008890D02*
X022261Y009170D01*
X022191Y009240D01*
X022051Y009240D01*
X021981Y009170D01*
X021800Y009170D02*
X021730Y009240D01*
X021590Y009240D01*
X021520Y009170D01*
X021520Y009100D01*
X021590Y009030D01*
X021520Y008960D01*
X021520Y008890D01*
X021590Y008820D01*
X021590Y009030D02*
X021660Y009030D01*
X022441Y008960D02*
X022441Y008890D01*
X022511Y008820D01*
X022651Y008820D01*
X022721Y008890D01*
X022721Y008960D01*
X022651Y009030D01*
X022511Y009030D01*
X022441Y008960D01*
X022511Y009030D02*
X022441Y009100D01*
X022441Y009170D01*
X022511Y009240D01*
X022651Y009240D01*
X022721Y009170D01*
X022721Y009100D01*
X022651Y009030D01*
X022901Y009100D02*
X022901Y009170D01*
X022971Y009240D01*
X023112Y009240D01*
X023182Y009170D01*
X023362Y009240D02*
X023362Y008820D01*
X023642Y009240D01*
X023642Y008820D01*
X023822Y008820D02*
X024102Y008820D01*
X024102Y009240D01*
X024283Y009240D02*
X024283Y008890D01*
X024353Y008820D01*
X024493Y008820D01*
X024563Y008890D01*
X024563Y009240D01*
X023182Y008820D02*
X022901Y009100D01*
X022901Y008820D02*
X023182Y008820D01*
X025120Y010550D02*
X025140Y010549D01*
X025159Y010545D01*
X025177Y010539D01*
X025194Y010529D01*
X025210Y010517D01*
X025223Y010502D01*
X025234Y010486D01*
X025242Y010468D01*
X025248Y010449D01*
X025250Y010430D01*
X025120Y010550D02*
X020780Y010550D01*
X020755Y010549D01*
X020730Y010545D01*
X020706Y010537D01*
X020684Y010525D01*
X020664Y010510D01*
X020647Y010492D01*
X020632Y010471D01*
X020621Y010449D01*
X020614Y010425D01*
X020610Y010400D01*
X019780Y013780D02*
X019780Y014580D01*
X021680Y014580D01*
X021680Y013780D01*
X019780Y013780D01*
X019380Y013780D02*
X017480Y013780D01*
X017480Y014580D01*
X019380Y014580D01*
X019380Y013780D01*
X018430Y013930D02*
X018430Y014460D01*
X017380Y014580D02*
X017380Y013780D01*
X015480Y013780D01*
X015480Y014580D01*
X017380Y014580D01*
X016440Y014380D02*
X016440Y013920D01*
X015080Y013780D02*
X015080Y014580D01*
X013280Y014580D01*
X013280Y013780D01*
X015080Y013780D01*
X014180Y013980D02*
X014180Y014380D01*
X013180Y014580D02*
X013180Y013780D01*
X011180Y013780D01*
X011180Y014580D01*
X013180Y014580D01*
X012180Y014380D02*
X012180Y013980D01*
X020680Y013980D02*
X020680Y014380D01*
X021780Y014580D02*
X021780Y013780D01*
X023680Y013780D01*
X023680Y014580D01*
X021780Y014580D01*
X022680Y014380D02*
X022680Y013980D01*
X023980Y013780D02*
X023980Y014580D01*
X025880Y014580D01*
X025880Y013780D01*
X023980Y013780D01*
X024940Y013990D02*
X024940Y014380D01*
X025980Y014580D02*
X025980Y013780D01*
X027880Y013780D01*
X027880Y014580D01*
X025980Y014580D01*
X026910Y014380D02*
X026910Y013950D01*
X028180Y013780D02*
X028180Y014580D01*
X030130Y014580D01*
X030130Y013780D01*
X028180Y013780D01*
X029180Y013980D02*
X029180Y014380D01*
X030220Y014580D02*
X030230Y014580D01*
X030230Y013770D01*
X032130Y013770D01*
X032130Y014580D01*
X030230Y014580D01*
X031180Y014380D02*
X031180Y013980D01*
X032480Y013780D02*
X032480Y014580D01*
X034380Y014580D01*
X034380Y013780D01*
X032480Y013780D01*
X033380Y013980D02*
X033380Y014380D01*
X034480Y014580D02*
X034480Y013780D01*
X036380Y013780D01*
X036380Y014580D01*
X034480Y014580D01*
X035380Y014380D02*
X035380Y013980D01*
X036780Y013780D02*
X036780Y014580D01*
X038580Y014580D01*
X038580Y013780D01*
X036780Y013780D01*
X037680Y013980D02*
X037680Y014380D01*
X038680Y014580D02*
X038680Y013780D01*
X040580Y013780D01*
X040580Y014580D01*
X038680Y014580D01*
X039680Y014380D02*
X039680Y013980D01*
X039580Y013080D02*
X039580Y011180D01*
X040380Y011180D01*
X040380Y013080D01*
X039580Y013080D01*
X040480Y013080D02*
X040480Y011180D01*
X041280Y011180D01*
X041280Y013080D01*
X040480Y013080D01*
X040680Y012080D02*
X041080Y012080D01*
X040180Y012080D02*
X039780Y012080D01*
X036530Y006110D02*
X033830Y006110D01*
X033850Y006080D02*
X033850Y001518D01*
X033860Y001470D02*
X034786Y001469D01*
X034796Y001507D01*
X034810Y001544D01*
X034827Y001579D01*
X034847Y001612D01*
X034871Y001643D01*
X034897Y001672D01*
X034926Y001698D01*
X034958Y001721D01*
X034992Y001741D01*
X035027Y001758D01*
X035064Y001771D01*
X035102Y001780D01*
X035141Y001786D01*
X035180Y001788D01*
X035219Y001786D01*
X035258Y001780D01*
X035296Y001771D01*
X035333Y001758D01*
X035368Y001741D01*
X035402Y001721D01*
X035434Y001698D01*
X035463Y001672D01*
X035489Y001643D01*
X035513Y001612D01*
X035533Y001579D01*
X035550Y001544D01*
X035564Y001507D01*
X035574Y001469D01*
X036480Y001470D01*
X036504Y001472D01*
X036528Y001477D01*
X036551Y001485D01*
X036572Y001497D01*
X036591Y001512D01*
X036608Y001529D01*
X036623Y001548D01*
X036635Y001569D01*
X036643Y001592D01*
X036648Y001616D01*
X036650Y001640D01*
X036650Y005980D01*
X036649Y006000D01*
X036645Y006019D01*
X036639Y006037D01*
X036629Y006054D01*
X036617Y006070D01*
X036602Y006083D01*
X036586Y006094D01*
X036568Y006102D01*
X036549Y006108D01*
X036530Y006110D01*
X035340Y005270D02*
X035340Y005130D01*
X035270Y005060D01*
X034920Y005060D01*
X034920Y004880D02*
X035340Y004880D01*
X035340Y004599D01*
X035340Y004419D02*
X034920Y004419D01*
X035340Y004139D01*
X034920Y004139D01*
X034990Y003959D02*
X034920Y003889D01*
X034920Y003749D01*
X034990Y003679D01*
X035060Y003679D01*
X035340Y003959D01*
X035340Y003679D01*
X035270Y003498D02*
X035200Y003498D01*
X035130Y003428D01*
X035130Y003288D01*
X035200Y003218D01*
X035270Y003218D01*
X035340Y003288D01*
X035340Y003428D01*
X035270Y003498D01*
X035130Y003428D02*
X035060Y003498D01*
X034990Y003498D01*
X034920Y003428D01*
X034920Y003288D01*
X034990Y003218D01*
X035060Y003218D01*
X035130Y003288D01*
X035270Y003038D02*
X034990Y002758D01*
X035270Y002758D01*
X035340Y002828D01*
X035340Y002968D01*
X035270Y003038D01*
X034990Y003038D01*
X034920Y002968D01*
X034920Y002828D01*
X034990Y002758D01*
X034990Y002578D02*
X034920Y002508D01*
X034920Y002367D01*
X034990Y002297D01*
X035060Y002297D01*
X035130Y002367D01*
X035200Y002297D01*
X035270Y002297D01*
X035340Y002367D01*
X035340Y002508D01*
X035270Y002578D01*
X035130Y002438D02*
X035130Y002367D01*
X033860Y001470D02*
X033837Y001473D01*
X033815Y001480D01*
X033795Y001489D01*
X033775Y001501D01*
X033758Y001516D01*
X033743Y001533D01*
X033730Y001552D01*
X033721Y001573D01*
X033714Y001595D01*
X033711Y001617D01*
X033710Y001640D01*
X033710Y005980D01*
X033711Y006000D01*
X033715Y006019D01*
X033721Y006037D01*
X033731Y006054D01*
X033743Y006070D01*
X033758Y006083D01*
X033774Y006094D01*
X033792Y006102D01*
X033811Y006108D01*
X033830Y006110D01*
X034920Y005340D02*
X035270Y005340D01*
X035340Y005270D01*
D11*
X039823Y010935D02*
X039888Y010978D01*
X039823Y011022D01*
X039888Y011065D02*
X039888Y010935D01*
X039948Y010957D02*
X039970Y010935D01*
X040013Y010935D01*
X040035Y010957D01*
X039948Y011043D01*
X039948Y010957D01*
X039948Y011043D02*
X039970Y011065D01*
X040013Y011065D01*
X040035Y011043D01*
X040035Y010957D01*
X040096Y010935D02*
X040182Y010935D01*
X040139Y010935D02*
X040139Y011065D01*
X040182Y011022D01*
X040723Y011022D02*
X040788Y010978D01*
X040723Y010935D01*
X040788Y010935D02*
X040788Y011065D01*
X040848Y011043D02*
X040935Y010957D01*
X040913Y010935D01*
X040870Y010935D01*
X040848Y010957D01*
X040848Y011043D01*
X040870Y011065D01*
X040913Y011065D01*
X040935Y011043D01*
X040935Y010957D01*
X040996Y010935D02*
X041082Y010935D01*
X041039Y010935D02*
X041039Y011065D01*
X041082Y011022D01*
X039782Y013535D02*
X039696Y013535D01*
X039739Y013535D02*
X039739Y013665D01*
X039782Y013622D01*
X039635Y013643D02*
X039613Y013665D01*
X039570Y013665D01*
X039548Y013643D01*
X039635Y013557D01*
X039613Y013535D01*
X039570Y013535D01*
X039548Y013557D01*
X039548Y013643D01*
X039488Y013665D02*
X039488Y013535D01*
X039488Y013578D02*
X039423Y013622D01*
X039488Y013578D02*
X039423Y013535D01*
X039635Y013557D02*
X039635Y013643D01*
X037882Y013622D02*
X037839Y013665D01*
X037839Y013535D01*
X037882Y013535D02*
X037796Y013535D01*
X037735Y013557D02*
X037648Y013643D01*
X037648Y013557D01*
X037670Y013535D01*
X037713Y013535D01*
X037735Y013557D01*
X037735Y013643D01*
X037713Y013665D01*
X037670Y013665D01*
X037648Y013643D01*
X037588Y013665D02*
X037588Y013535D01*
X037588Y013578D02*
X037523Y013535D01*
X037588Y013578D02*
X037523Y013622D01*
X035582Y013622D02*
X035539Y013665D01*
X035539Y013535D01*
X035582Y013535D02*
X035496Y013535D01*
X035435Y013557D02*
X035348Y013643D01*
X035348Y013557D01*
X035370Y013535D01*
X035413Y013535D01*
X035435Y013557D01*
X035435Y013643D01*
X035413Y013665D01*
X035370Y013665D01*
X035348Y013643D01*
X035288Y013665D02*
X035288Y013535D01*
X035288Y013578D02*
X035223Y013535D01*
X035288Y013578D02*
X035223Y013622D01*
X033582Y013622D02*
X033539Y013665D01*
X033539Y013535D01*
X033582Y013535D02*
X033496Y013535D01*
X033435Y013557D02*
X033348Y013643D01*
X033348Y013557D01*
X033370Y013535D01*
X033413Y013535D01*
X033435Y013557D01*
X033435Y013643D01*
X033413Y013665D01*
X033370Y013665D01*
X033348Y013643D01*
X033288Y013665D02*
X033288Y013535D01*
X033288Y013578D02*
X033223Y013535D01*
X033288Y013578D02*
X033223Y013622D01*
X031382Y013622D02*
X031339Y013665D01*
X031339Y013535D01*
X031382Y013535D02*
X031296Y013535D01*
X031235Y013557D02*
X031148Y013643D01*
X031148Y013557D01*
X031170Y013535D01*
X031213Y013535D01*
X031235Y013557D01*
X031235Y013643D01*
X031213Y013665D01*
X031170Y013665D01*
X031148Y013643D01*
X031088Y013665D02*
X031088Y013535D01*
X031088Y013578D02*
X031023Y013535D01*
X031088Y013578D02*
X031023Y013622D01*
X029382Y013622D02*
X029339Y013665D01*
X029339Y013535D01*
X029382Y013535D02*
X029296Y013535D01*
X029235Y013557D02*
X029148Y013643D01*
X029148Y013557D01*
X029170Y013535D01*
X029213Y013535D01*
X029235Y013557D01*
X029235Y013643D01*
X029213Y013665D01*
X029170Y013665D01*
X029148Y013643D01*
X029088Y013665D02*
X029088Y013535D01*
X029088Y013578D02*
X029023Y013535D01*
X029088Y013578D02*
X029023Y013622D01*
X027082Y013622D02*
X027039Y013665D01*
X027039Y013535D01*
X027082Y013535D02*
X026996Y013535D01*
X026935Y013557D02*
X026848Y013643D01*
X026848Y013557D01*
X026870Y013535D01*
X026913Y013535D01*
X026935Y013557D01*
X026935Y013643D01*
X026913Y013665D01*
X026870Y013665D01*
X026848Y013643D01*
X026788Y013665D02*
X026788Y013535D01*
X026788Y013578D02*
X026723Y013622D01*
X026788Y013578D02*
X026723Y013535D01*
X025082Y013535D02*
X024996Y013535D01*
X025039Y013535D02*
X025039Y013665D01*
X025082Y013622D01*
X024935Y013643D02*
X024913Y013665D01*
X024870Y013665D01*
X024848Y013643D01*
X024935Y013557D01*
X024913Y013535D01*
X024870Y013535D01*
X024848Y013557D01*
X024848Y013643D01*
X024788Y013665D02*
X024788Y013535D01*
X024788Y013578D02*
X024723Y013535D01*
X024788Y013578D02*
X024723Y013622D01*
X024935Y013643D02*
X024935Y013557D01*
X022882Y013535D02*
X022796Y013535D01*
X022839Y013535D02*
X022839Y013665D01*
X022882Y013622D01*
X022735Y013643D02*
X022713Y013665D01*
X022670Y013665D01*
X022648Y013643D01*
X022735Y013557D01*
X022713Y013535D01*
X022670Y013535D01*
X022648Y013557D01*
X022648Y013643D01*
X022588Y013665D02*
X022588Y013535D01*
X022588Y013578D02*
X022523Y013535D01*
X022588Y013578D02*
X022523Y013622D01*
X022735Y013643D02*
X022735Y013557D01*
X020882Y013535D02*
X020796Y013535D01*
X020839Y013535D02*
X020839Y013665D01*
X020882Y013622D01*
X020735Y013643D02*
X020735Y013557D01*
X020648Y013643D01*
X020648Y013557D01*
X020670Y013535D01*
X020713Y013535D01*
X020735Y013557D01*
X020735Y013643D02*
X020713Y013665D01*
X020670Y013665D01*
X020648Y013643D01*
X020588Y013665D02*
X020588Y013535D01*
X020588Y013578D02*
X020523Y013535D01*
X020588Y013578D02*
X020523Y013622D01*
X018582Y013622D02*
X018539Y013665D01*
X018539Y013535D01*
X018582Y013535D02*
X018496Y013535D01*
X018435Y013557D02*
X018348Y013643D01*
X018348Y013557D01*
X018370Y013535D01*
X018413Y013535D01*
X018435Y013557D01*
X018435Y013643D01*
X018413Y013665D01*
X018370Y013665D01*
X018348Y013643D01*
X018288Y013665D02*
X018288Y013535D01*
X018288Y013578D02*
X018223Y013535D01*
X018288Y013578D02*
X018223Y013622D01*
X016682Y013622D02*
X016639Y013665D01*
X016639Y013535D01*
X016682Y013535D02*
X016596Y013535D01*
X016535Y013557D02*
X016448Y013643D01*
X016448Y013557D01*
X016470Y013535D01*
X016513Y013535D01*
X016535Y013557D01*
X016535Y013643D01*
X016513Y013665D01*
X016470Y013665D01*
X016448Y013643D01*
X016388Y013665D02*
X016388Y013535D01*
X016388Y013578D02*
X016323Y013535D01*
X016388Y013578D02*
X016323Y013622D01*
X014382Y013622D02*
X014339Y013665D01*
X014339Y013535D01*
X014382Y013535D02*
X014296Y013535D01*
X014235Y013557D02*
X014148Y013643D01*
X014148Y013557D01*
X014170Y013535D01*
X014213Y013535D01*
X014235Y013557D01*
X014235Y013643D01*
X014213Y013665D01*
X014170Y013665D01*
X014148Y013643D01*
X014088Y013665D02*
X014088Y013535D01*
X014088Y013578D02*
X014023Y013622D01*
X014088Y013578D02*
X014023Y013535D01*
X012382Y013535D02*
X012296Y013535D01*
X012339Y013535D02*
X012339Y013665D01*
X012382Y013622D01*
X012235Y013643D02*
X012235Y013557D01*
X012148Y013643D01*
X012148Y013557D01*
X012170Y013535D01*
X012213Y013535D01*
X012235Y013557D01*
X012235Y013643D02*
X012213Y013665D01*
X012170Y013665D01*
X012148Y013643D01*
X012088Y013665D02*
X012088Y013535D01*
X012088Y013578D02*
X012023Y013535D01*
X012088Y013578D02*
X012023Y013622D01*
M02*
