%
M48
M72
T01C0.0236
T02C0.0400
T03C0.0472
T04C0.1102
%
T01
X11180Y4880
X11180Y6680
X11280Y9480
X11280Y10380
X11280Y11380
X7980Y10380
X6280Y9780
X8980Y9480
X7080Y11380
X29880Y5780
X30580Y5280
X31080Y4780
X31380Y4180
X31580Y3280
X30180Y2380
X29680Y1880
X30180Y1180
T02
X10050Y6680
X9050Y6680
X8050Y6680
X7050Y6680
X6050Y6680
X5050Y6680
X4050Y6680
X3050Y6680
X2050Y6680
X3050Y12680
X4050Y12680
X5050Y12680
X6050Y12680
X7050Y12680
X8050Y12680
X9050Y12680
X10050Y12680
T03
X12424Y16180
X13802Y16180
X15180Y16180
X16554Y16180
X17932Y16180
X19310Y16180
X20704Y16180
X22082Y16180
X23460Y16180
X24834Y16180
X26212Y16180
X27590Y16180
X28964Y16180
X30342Y16180
X31720Y16180
X33094Y16180
X34472Y16180
X35850Y16180
X37224Y16180
X38602Y16180
X39980Y16180
X41354Y16180
X42732Y16180
X44110Y16180
X43580Y13458
X43580Y12080
X43580Y10708
X43580Y9330
X43580Y7958
X43580Y6580
X43580Y5198
X43580Y3820
X43580Y2428
X43580Y1050
X19820Y1580
X18442Y1580
X17064Y1580
X15680Y1580
X14302Y1580
X12924Y1580
T04
X1800Y930
X10300Y930
X10300Y14430
X1800Y14430
M30
