G75*
%MOIN*%
%OFA0B0*%
%FSLAX24Y24*%
%IPPOS*%
%LPD*%
%AMOC8*
5,1,8,0,0,1.08239X$1,22.5*
%
%ADD10C,0.1162*%
%ADD11R,0.0800X0.0800*%
%ADD12C,0.0800*%
%ADD13R,0.0690X0.0769*%
%ADD14R,0.0320X0.0860*%
%ADD15R,0.0860X0.0320*%
%ADD16R,0.1010X0.1010*%
%ADD17C,0.1010*%
%ADD18R,0.0860X0.0860*%
%ADD19C,0.0860*%
%ADD20R,0.0769X0.0690*%
%ADD21C,0.0436*%
D10*
X001800Y000930D03*
X010300Y000930D03*
X010300Y014430D03*
X001800Y014430D03*
D11*
X010050Y012680D03*
D12*
X009050Y012680D03*
X008050Y012680D03*
X007050Y012680D03*
X006050Y012680D03*
X005050Y012680D03*
X004050Y012680D03*
X003050Y012680D03*
X003050Y006680D03*
X002050Y006680D03*
X004050Y006680D03*
X005050Y006680D03*
X006050Y006680D03*
X007050Y006680D03*
X008050Y006680D03*
X009050Y006680D03*
X010050Y006680D03*
D13*
X011629Y014180D03*
X012731Y014180D03*
X013629Y014180D03*
X014731Y014180D03*
X015879Y014180D03*
X016981Y014180D03*
X017879Y014180D03*
X018981Y014180D03*
X020129Y014180D03*
X021231Y014180D03*
X022129Y014180D03*
X023231Y014180D03*
X024379Y014180D03*
X025481Y014180D03*
X026379Y014180D03*
X027481Y014180D03*
X028629Y014180D03*
X029731Y014180D03*
X030629Y014180D03*
X031731Y014180D03*
X032879Y014180D03*
X033981Y014180D03*
X034879Y014180D03*
X035981Y014180D03*
X037129Y014180D03*
X038231Y014180D03*
X039129Y014180D03*
X040231Y014180D03*
D14*
X024930Y011010D03*
X024430Y011010D03*
X023930Y011010D03*
X023430Y011010D03*
X022930Y011010D03*
X022430Y011010D03*
X021930Y011010D03*
X021430Y011010D03*
X020930Y011010D03*
X020930Y007150D03*
X021430Y007150D03*
X021930Y007150D03*
X022430Y007150D03*
X022930Y007150D03*
X023430Y007150D03*
X023930Y007150D03*
X024430Y007150D03*
X024930Y007150D03*
D15*
X033250Y005790D03*
X033250Y005290D03*
X033250Y004790D03*
X033250Y004290D03*
X033250Y003790D03*
X033250Y003290D03*
X033250Y002790D03*
X033250Y002290D03*
X033250Y001790D03*
X037110Y001790D03*
X037110Y002290D03*
X037110Y002790D03*
X037110Y003290D03*
X037110Y003790D03*
X037110Y004290D03*
X037110Y004790D03*
X037110Y005290D03*
X037110Y005790D03*
D16*
X019820Y001580D03*
X015680Y001580D03*
X015180Y016180D03*
X019310Y016180D03*
X023460Y016180D03*
X027590Y016180D03*
X031720Y016180D03*
X035850Y016180D03*
X039980Y016180D03*
X044110Y016180D03*
D17*
X042732Y016180D03*
X041354Y016180D03*
X038602Y016180D03*
X037224Y016180D03*
X034472Y016180D03*
X033094Y016180D03*
X030342Y016180D03*
X028964Y016180D03*
X026212Y016180D03*
X024834Y016180D03*
X022082Y016180D03*
X020704Y016180D03*
X017932Y016180D03*
X016554Y016180D03*
X013802Y016180D03*
X012424Y016180D03*
X012924Y001580D03*
X014302Y001580D03*
X017064Y001580D03*
X018442Y001580D03*
D18*
X043580Y001050D03*
X043580Y003820D03*
X043580Y006580D03*
X043580Y009330D03*
X043580Y012080D03*
D19*
X043580Y010708D03*
X043580Y007958D03*
X043580Y005198D03*
X043580Y002428D03*
X043580Y013458D03*
D20*
X040880Y012681D03*
X039980Y012681D03*
X039980Y011579D03*
X040880Y011579D03*
D21*
X029880Y005780D03*
X030580Y005280D03*
X031080Y004780D03*
X031380Y004180D03*
X031580Y003280D03*
X030180Y002380D03*
X029680Y001880D03*
X030180Y001180D03*
X011180Y004880D03*
X011180Y006680D03*
X011280Y009480D03*
X011280Y010380D03*
X011280Y011380D03*
X007980Y010380D03*
X006280Y009780D03*
X008980Y009480D03*
X007080Y011380D03*
M02*
