%
M48
M72
T01C0.0236
T02C0.0320
T03C0.0400
T04C0.0472
T05C0.1102
%
T01
X12560Y4560
X15660Y4560
X18260Y4560
X20760Y4560
X23160Y4560
X25860Y4560
X25860Y6560
X27260Y9560
X24660Y12560
X22060Y12560
X19260Y12560
X17160Y12560
X15160Y12560
X11860Y12560
X15960Y6460
X18260Y6460
T02
X7660Y4660
X6660Y4660
X5660Y4660
X4660Y4660
X4660Y1660
X5660Y1660
X6660Y1660
X7660Y1660
T03
X8060Y6660
X7060Y6660
X6060Y6660
X5060Y6660
X4060Y6660
X3060Y6660
X2060Y6660
X9060Y6660
X10060Y6660
X10060Y12660
X9060Y12660
X8060Y12660
X7060Y12660
X6060Y12660
X5060Y12660
X4060Y12660
X3060Y12660
T04
X12404Y13680
X13782Y13680
X15160Y13680
X16534Y13680
X17912Y13680
X19290Y13680
X20664Y13680
X22042Y13680
X23420Y13680
X24794Y13680
X26172Y13680
X27550Y13680
X30160Y11538
X30160Y10160
X30160Y8788
X30160Y7410
X24818Y1560
X23440Y1560
X22068Y1560
X20690Y1560
X19310Y1560
X17932Y1560
X16554Y1560
X15180Y1560
X13802Y1560
X12424Y1560
T05
X1810Y910
X10310Y910
X30810Y910
X30810Y14410
X10310Y14410
X1810Y14410
M30
