G75*
%MOIN*%
%OFA0B0*%
%FSLAX24Y24*%
%IPPOS*%
%LPD*%
%AMOC8*
5,1,8,0,0,1.08239X$1,22.5*
%
%ADD10C,0.0080*%
%ADD11C,0.0100*%
%ADD12C,0.0070*%
%ADD13C,0.0030*%
%ADD14C,0.0060*%
%ADD15R,0.0165X0.0015*%
%ADD16R,0.0240X0.0015*%
%ADD17R,0.0285X0.0015*%
%ADD18R,0.0315X0.0015*%
%ADD19R,0.0330X0.0015*%
%ADD20R,0.0360X0.0015*%
%ADD21R,0.0210X0.0015*%
%ADD22R,0.0660X0.0015*%
%ADD23R,0.0270X0.0015*%
%ADD24R,0.0180X0.0015*%
%ADD25R,0.0795X0.0015*%
%ADD26R,0.0300X0.0015*%
%ADD27R,0.0915X0.0015*%
%ADD28R,0.0150X0.0015*%
%ADD29R,0.0975X0.0015*%
%ADD30R,0.0345X0.0015*%
%ADD31R,0.0090X0.0015*%
%ADD32R,0.1035X0.0015*%
%ADD33R,0.0225X0.0015*%
%ADD34R,0.1185X0.0015*%
%ADD35R,0.0120X0.0015*%
%ADD36R,0.0135X0.0015*%
%ADD37R,0.1320X0.0015*%
%ADD38R,0.0195X0.0015*%
%ADD39R,0.0015X0.0015*%
%ADD40R,0.0255X0.0015*%
%ADD41R,0.0465X0.0015*%
%ADD42R,0.0630X0.0015*%
%ADD43R,0.0390X0.0015*%
%ADD44R,0.0615X0.0015*%
%ADD45R,0.0375X0.0015*%
%ADD46R,0.0585X0.0015*%
%ADD47R,0.0570X0.0015*%
%ADD48R,0.0075X0.0015*%
%ADD49R,0.0045X0.0015*%
%ADD50R,0.0105X0.0015*%
%ADD51R,0.0420X0.0015*%
%ADD52R,0.0405X0.0015*%
%ADD53R,0.0450X0.0015*%
%ADD54R,0.0030X0.0015*%
%ADD55R,0.0510X0.0015*%
%ADD56R,0.0990X0.0015*%
%ADD57R,0.1050X0.0015*%
%ADD58R,0.1140X0.0015*%
%ADD59R,0.0435X0.0015*%
%ADD60R,0.0060X0.0015*%
%ADD61R,0.0495X0.0015*%
%ADD62R,0.0525X0.0015*%
%ADD63R,0.0555X0.0015*%
%ADD64R,0.0705X0.0015*%
%ADD65R,0.0675X0.0015*%
%ADD66R,0.0750X0.0015*%
%ADD67R,0.0720X0.0015*%
%ADD68R,0.0780X0.0015*%
%ADD69R,0.0645X0.0015*%
%ADD70R,0.1005X0.0015*%
%ADD71R,0.1080X0.0015*%
%ADD72R,0.0825X0.0015*%
%ADD73R,0.1125X0.0015*%
%ADD74R,0.0735X0.0015*%
%ADD75R,0.0855X0.0015*%
%ADD76R,0.0480X0.0015*%
%ADD77R,0.1215X0.0015*%
%ADD78R,0.0765X0.0015*%
%ADD79R,0.0885X0.0015*%
%ADD80R,0.1290X0.0015*%
%ADD81R,0.1365X0.0015*%
%ADD82R,0.0930X0.0015*%
%ADD83R,0.1425X0.0015*%
%ADD84R,0.0960X0.0015*%
%ADD85R,0.1230X0.0015*%
%ADD86R,0.1020X0.0015*%
%ADD87R,0.1245X0.0015*%
%ADD88R,0.1095X0.0015*%
%ADD89R,0.1110X0.0015*%
%ADD90R,0.1260X0.0015*%
%ADD91R,0.1170X0.0015*%
%ADD92R,0.0540X0.0015*%
%ADD93R,0.1155X0.0015*%
%ADD94R,0.0600X0.0015*%
%ADD95R,0.1335X0.0015*%
%ADD96R,0.1065X0.0015*%
%ADD97R,0.1470X0.0015*%
%ADD98R,0.1545X0.0015*%
%ADD99R,0.0810X0.0015*%
%ADD100R,0.1800X0.0015*%
%ADD101R,0.1455X0.0015*%
%ADD102R,0.2025X0.0015*%
%ADD103R,0.2040X0.0015*%
%ADD104R,0.1935X0.0015*%
%ADD105R,0.0690X0.0015*%
%ADD106R,0.0900X0.0015*%
%ADD107R,0.0840X0.0015*%
%ADD108R,0.0870X0.0015*%
%ADD109R,0.0945X0.0015*%
%ADD110R,0.0460X0.1280*%
%ADD111R,0.0430X0.0230*%
%ADD112R,0.0450X0.1260*%
%ADD113R,0.0490X0.1100*%
%ADD114C,0.0050*%
%ADD115R,0.0430X0.2070*%
%ADD116R,0.0450X0.1510*%
%ADD117R,0.0440X0.1200*%
%ADD118R,0.0160X0.0460*%
%ADD119R,0.0160X0.0120*%
%ADD120R,0.0150X0.0620*%
%ADD121R,0.0150X0.0530*%
%ADD122R,0.0150X0.0460*%
%ADD123R,0.0150X0.0390*%
%ADD124R,0.0150X0.0570*%
%ADD125R,0.0080X0.0130*%
%ADD126R,0.0060X0.0130*%
%ADD127R,0.0150X0.0650*%
%ADD128R,0.0150X0.0470*%
%ADD129R,0.0160X0.0130*%
%ADD130R,0.0150X0.0490*%
%ADD131R,0.0050X0.0130*%
%ADD132R,0.0170X0.0460*%
%ADD133R,0.0180X0.0120*%
%ADD134R,0.0150X0.0380*%
%ADD135R,0.0420X0.0880*%
%ADD136R,0.1270X0.0250*%
%ADD137R,0.0410X0.0090*%
%ADD138R,0.0150X0.0350*%
%ADD139R,0.0060X0.0770*%
D10*
X004160Y002160D02*
X008160Y002160D01*
X008160Y004160D01*
X004160Y004160D01*
X004160Y002160D01*
X005160Y002060D02*
X005160Y001260D01*
X007160Y001260D01*
X007160Y002060D01*
X005160Y002060D01*
X006060Y001760D02*
X006260Y001760D01*
X006260Y001660D02*
X006060Y001660D01*
X006060Y001560D02*
X006260Y001560D01*
X006160Y004260D02*
X006160Y005060D01*
X008160Y005060D01*
X008160Y004260D01*
X006160Y004260D01*
X007060Y004560D02*
X007260Y004560D01*
X007260Y004660D02*
X007060Y004660D01*
X007060Y004760D02*
X007260Y004760D01*
X007310Y006160D02*
X006810Y006160D01*
X006560Y006410D01*
X006310Y006160D01*
X005810Y006160D01*
X005560Y006410D01*
X005310Y006160D01*
X004810Y006160D01*
X004560Y006410D01*
X004310Y006160D01*
X003810Y006160D01*
X003560Y006410D01*
X003310Y006160D01*
X002810Y006160D01*
X002560Y006410D01*
X002310Y006160D01*
X001810Y006160D01*
X001560Y006410D01*
X001560Y006910D01*
X001810Y007160D01*
X002310Y007160D01*
X002560Y006910D01*
X002810Y007160D01*
X003310Y007160D01*
X003560Y006910D01*
X003810Y007160D01*
X004310Y007160D01*
X004560Y006910D01*
X004810Y007160D01*
X005310Y007160D01*
X005560Y006910D01*
X005810Y007160D01*
X006310Y007160D01*
X006560Y006910D01*
X006810Y007160D01*
X007310Y007160D01*
X007560Y006910D01*
X007810Y007160D01*
X008310Y007160D01*
X008560Y006910D01*
X008810Y007160D01*
X009310Y007160D01*
X009560Y006910D01*
X009810Y007160D01*
X010310Y007160D01*
X010560Y006910D01*
X010560Y006410D01*
X010310Y006160D01*
X009810Y006160D01*
X009560Y006410D01*
X009310Y006160D01*
X008810Y006160D01*
X008560Y006410D01*
X008310Y006160D01*
X007810Y006160D01*
X007560Y006410D01*
X007310Y006160D01*
X013360Y003760D02*
X014360Y003760D01*
X014377Y003762D01*
X014394Y003766D01*
X014410Y003773D01*
X014424Y003783D01*
X014437Y003796D01*
X014447Y003810D01*
X014454Y003826D01*
X014458Y003843D01*
X014460Y003860D01*
X014462Y003843D01*
X014466Y003826D01*
X014473Y003810D01*
X014483Y003796D01*
X014496Y003783D01*
X014510Y003773D01*
X014526Y003766D01*
X014543Y003762D01*
X014560Y003760D01*
X015560Y003760D01*
X015586Y003758D01*
X015612Y003753D01*
X015637Y003745D01*
X015660Y003733D01*
X015682Y003719D01*
X015701Y003701D01*
X015719Y003682D01*
X015733Y003660D01*
X015745Y003637D01*
X015753Y003612D01*
X015758Y003586D01*
X015760Y003560D01*
X015649Y002977D02*
X011519Y002977D01*
X011519Y002662D01*
X015649Y002662D01*
X016086Y002662D01*
X016086Y002977D01*
X020216Y002977D01*
X020216Y002662D01*
X016086Y002662D01*
X015860Y002660D02*
X015860Y000260D01*
X020060Y000260D02*
X020060Y002660D01*
X020160Y002660D02*
X022760Y002660D01*
X022760Y002960D01*
X022760Y002660D02*
X022760Y000260D01*
X020216Y000221D02*
X011519Y000221D01*
X011519Y002662D01*
X013160Y003560D02*
X013162Y003586D01*
X013167Y003612D01*
X013175Y003637D01*
X013187Y003660D01*
X013201Y003682D01*
X013219Y003701D01*
X013238Y003719D01*
X013260Y003733D01*
X013283Y003745D01*
X013308Y003753D01*
X013334Y003758D01*
X013360Y003760D01*
X015649Y002977D02*
X015649Y002662D01*
X015649Y002977D02*
X016086Y002977D01*
X020230Y002980D02*
X025510Y002980D01*
X025510Y002660D01*
X025510Y000220D01*
X020210Y000220D01*
X022760Y002660D02*
X025510Y002660D01*
X028821Y006721D02*
X031262Y006721D01*
X031262Y009471D01*
X031262Y009477D01*
X031577Y009477D01*
X031577Y009471D01*
X031577Y006721D01*
X031262Y006721D01*
X028821Y006721D02*
X028821Y009471D01*
X031262Y009471D01*
X031577Y009471D01*
X031577Y009477D02*
X031577Y012227D01*
X031262Y012227D01*
X031262Y009477D01*
X028821Y009477D01*
X028821Y012227D01*
X031262Y012227D01*
X028456Y012341D02*
X028456Y014782D01*
X024326Y014782D01*
X023889Y014782D01*
X023889Y015097D01*
X024326Y015097D01*
X028456Y015097D01*
X028456Y014782D01*
X024326Y014782D02*
X024326Y015097D01*
X023889Y015097D02*
X020196Y015097D01*
X020196Y014782D01*
X023889Y014782D01*
X024110Y014780D02*
X024110Y012340D01*
X028456Y012341D02*
X011499Y012341D01*
X011499Y014782D01*
X015629Y014782D01*
X015629Y015097D01*
X016066Y015097D01*
X019759Y015097D01*
X019759Y014782D01*
X020196Y014782D01*
X019960Y014760D02*
X019960Y012360D01*
X015860Y012360D02*
X015860Y014760D01*
X016066Y014782D02*
X019759Y014782D01*
X019759Y015097D02*
X020196Y015097D01*
X016066Y015097D02*
X016066Y014782D01*
X015629Y014782D01*
X015629Y015097D02*
X011499Y015097D01*
X011499Y014782D01*
X010310Y013160D02*
X009810Y013160D01*
X009560Y012910D01*
X009310Y013160D01*
X008810Y013160D01*
X008560Y012910D01*
X008310Y013160D01*
X007810Y013160D01*
X007560Y012910D01*
X007310Y013160D01*
X006810Y013160D01*
X006560Y012910D01*
X006310Y013160D01*
X005810Y013160D01*
X005560Y012910D01*
X005310Y013160D01*
X004810Y013160D01*
X004560Y012910D01*
X004310Y013160D01*
X003810Y013160D01*
X003560Y012910D01*
X003310Y013160D01*
X002810Y013160D01*
X002560Y012910D01*
X002560Y012410D01*
X002810Y012160D01*
X003310Y012160D01*
X003560Y012410D01*
X003810Y012160D01*
X004310Y012160D01*
X004560Y012410D01*
X004810Y012160D01*
X005310Y012160D01*
X005560Y012410D01*
X005810Y012160D01*
X006310Y012160D01*
X006560Y012410D01*
X006810Y012160D01*
X007310Y012160D01*
X007560Y012410D01*
X007810Y012160D01*
X008310Y012160D01*
X008560Y012410D01*
X008810Y012160D01*
X009310Y012160D01*
X009560Y012410D01*
X009810Y012160D01*
X010310Y012160D01*
X010560Y012410D01*
X010560Y012910D01*
X010310Y013160D01*
X028821Y009477D02*
X028821Y009471D01*
D11*
X004377Y002660D02*
X004379Y002693D01*
X004385Y002726D01*
X004395Y002759D01*
X004408Y002789D01*
X004425Y002818D01*
X004446Y002845D01*
X004469Y002869D01*
X004495Y002890D01*
X004523Y002908D01*
X004554Y002922D01*
X004585Y002933D01*
X004618Y002940D01*
X004652Y002943D01*
X004685Y002942D01*
X004718Y002937D01*
X004751Y002928D01*
X004782Y002915D01*
X004811Y002899D01*
X004838Y002880D01*
X004863Y002857D01*
X004885Y002832D01*
X004904Y002804D01*
X004919Y002774D01*
X004931Y002743D01*
X004939Y002710D01*
X004943Y002677D01*
X004943Y002643D01*
X004939Y002610D01*
X004931Y002577D01*
X004919Y002546D01*
X004904Y002516D01*
X004885Y002488D01*
X004863Y002463D01*
X004838Y002440D01*
X004811Y002421D01*
X004782Y002405D01*
X004751Y002392D01*
X004718Y002383D01*
X004685Y002378D01*
X004652Y002377D01*
X004618Y002380D01*
X004585Y002387D01*
X004554Y002398D01*
X004523Y002412D01*
X004495Y002430D01*
X004469Y002451D01*
X004446Y002475D01*
X004425Y002502D01*
X004408Y002531D01*
X004395Y002561D01*
X004385Y002594D01*
X004379Y002627D01*
X004377Y002660D01*
D12*
X005387Y003016D02*
X005387Y003088D01*
X005458Y003160D01*
X005602Y003160D01*
X005673Y003088D01*
X005673Y003016D01*
X005602Y002945D01*
X005458Y002945D01*
X005387Y003016D01*
X005458Y003160D02*
X005387Y003232D01*
X005387Y003303D01*
X005458Y003375D01*
X005602Y003375D01*
X005673Y003303D01*
X005673Y003232D01*
X005602Y003160D01*
X005847Y003160D02*
X005847Y003303D01*
X005919Y003375D01*
X006062Y003375D01*
X006134Y003303D01*
X006134Y003160D02*
X005990Y003088D01*
X005919Y003088D01*
X005847Y003160D01*
X005847Y002945D02*
X006134Y002945D01*
X006134Y003160D01*
X006307Y003232D02*
X006307Y003303D01*
X006379Y003375D01*
X006522Y003375D01*
X006594Y003303D01*
X006768Y003375D02*
X006768Y002945D01*
X006911Y003088D01*
X007055Y002945D01*
X007055Y003375D01*
X007228Y003375D02*
X007515Y003375D01*
X007515Y002945D01*
X006594Y003016D02*
X006522Y002945D01*
X006379Y002945D01*
X006307Y003016D01*
X006307Y003088D01*
X006379Y003160D01*
X006307Y003232D01*
X006379Y003160D02*
X006451Y003160D01*
X006225Y007395D02*
X006225Y007682D01*
X006225Y007538D02*
X005795Y007538D01*
X005938Y007395D01*
X005225Y007395D02*
X005225Y007682D01*
X005225Y007538D02*
X004795Y007538D01*
X004938Y007395D01*
X004225Y007467D02*
X004153Y007395D01*
X004225Y007467D02*
X004225Y007610D01*
X004153Y007682D01*
X004082Y007682D01*
X004010Y007610D01*
X004010Y007538D01*
X004010Y007610D02*
X003938Y007682D01*
X003866Y007682D01*
X003795Y007610D01*
X003795Y007467D01*
X003866Y007395D01*
X003225Y007467D02*
X003225Y007610D01*
X003153Y007682D01*
X003010Y007682D01*
X003010Y007538D01*
X003153Y007395D02*
X003225Y007467D01*
X003153Y007395D02*
X002866Y007395D01*
X002795Y007467D01*
X002795Y007610D01*
X002866Y007682D01*
X002795Y007855D02*
X003225Y008142D01*
X002795Y008142D01*
X002795Y008316D02*
X002795Y008531D01*
X002866Y008603D01*
X003153Y008603D01*
X003225Y008531D01*
X003225Y008316D01*
X002795Y008316D01*
X002225Y008449D02*
X001795Y008449D01*
X001795Y008162D02*
X002225Y008449D01*
X002225Y008162D02*
X001795Y008162D01*
X001795Y007999D02*
X001795Y007855D01*
X001795Y007927D02*
X002225Y007927D01*
X002225Y007855D02*
X002225Y007999D01*
X002795Y007855D02*
X003225Y007855D01*
X003795Y008157D02*
X003795Y008301D01*
X003866Y008372D01*
X003938Y008372D01*
X004010Y008301D01*
X004082Y008372D01*
X004153Y008372D01*
X004225Y008301D01*
X004225Y008157D01*
X004153Y008086D01*
X004153Y007927D02*
X004225Y007927D01*
X004225Y007855D01*
X004153Y007855D01*
X004153Y007927D01*
X003866Y008086D02*
X003795Y008157D01*
X004010Y008229D02*
X004010Y008301D01*
X004082Y008546D02*
X003795Y008546D01*
X004082Y008546D02*
X004225Y008689D01*
X004082Y008833D01*
X003795Y008833D01*
X004795Y008071D02*
X004866Y008142D01*
X004938Y008142D01*
X005010Y008071D01*
X005082Y008142D01*
X005153Y008142D01*
X005225Y008071D01*
X005225Y007927D01*
X005153Y007855D01*
X005010Y007999D02*
X005010Y008071D01*
X004795Y008071D02*
X004795Y007927D01*
X004866Y007855D01*
X005795Y007927D02*
X005866Y007855D01*
X005795Y007927D02*
X005795Y008071D01*
X005866Y008142D01*
X005938Y008142D01*
X006225Y007855D01*
X006225Y008142D01*
X006795Y007999D02*
X006938Y007855D01*
X006795Y007999D02*
X007225Y007999D01*
X007225Y008142D02*
X007225Y007855D01*
X007225Y007682D02*
X007225Y007395D01*
X007225Y007538D02*
X006795Y007538D01*
X006938Y007395D01*
X007795Y007538D02*
X008225Y007538D01*
X008225Y007395D02*
X008225Y007682D01*
X008153Y007855D02*
X007866Y007855D01*
X007795Y007927D01*
X007795Y008071D01*
X007866Y008142D01*
X008153Y007855D01*
X008225Y007927D01*
X008225Y008071D01*
X008153Y008142D01*
X007866Y008142D01*
X008795Y008142D02*
X009225Y007855D01*
X009225Y007682D02*
X009082Y007538D01*
X009082Y007610D02*
X009082Y007395D01*
X009225Y007395D02*
X008795Y007395D01*
X008795Y007610D01*
X008866Y007682D01*
X009010Y007682D01*
X009082Y007610D01*
X008795Y007855D02*
X009225Y008142D01*
X009225Y008316D02*
X009225Y008603D01*
X009225Y008459D02*
X008795Y008459D01*
X008938Y008316D01*
X009895Y008388D02*
X009895Y008531D01*
X009966Y008603D01*
X010253Y008316D01*
X010325Y008388D01*
X010325Y008531D01*
X010253Y008603D01*
X009966Y008603D01*
X009895Y008388D02*
X009966Y008316D01*
X010253Y008316D01*
X010325Y008142D02*
X009895Y007855D01*
X009895Y007682D02*
X009895Y007395D01*
X009895Y007538D02*
X010325Y007538D01*
X010325Y007855D02*
X009895Y008142D01*
X007938Y007395D02*
X007795Y007538D01*
X002225Y007538D02*
X002082Y007682D01*
X001795Y007682D01*
X001795Y007395D02*
X002082Y007395D01*
X002225Y007538D01*
X003038Y011195D02*
X002895Y011338D01*
X003038Y011482D01*
X003325Y011482D01*
X003110Y011482D02*
X003110Y011195D01*
X003038Y011195D02*
X003325Y011195D01*
X003795Y011338D02*
X003938Y011482D01*
X004225Y011482D01*
X004010Y011482D02*
X004010Y011195D01*
X003938Y011195D02*
X003795Y011338D01*
X003938Y011195D02*
X004225Y011195D01*
X004795Y011338D02*
X004938Y011195D01*
X005225Y011195D01*
X005010Y011195D02*
X005010Y011482D01*
X004938Y011482D02*
X005225Y011482D01*
X004938Y011482D02*
X004795Y011338D01*
X004795Y011655D02*
X005010Y011655D01*
X004938Y011799D01*
X004938Y011871D01*
X005010Y011942D01*
X005153Y011942D01*
X005225Y011871D01*
X005225Y011727D01*
X005153Y011655D01*
X004795Y011655D02*
X004795Y011942D01*
X004225Y011871D02*
X004225Y011727D01*
X004153Y011655D01*
X004010Y011655D01*
X004010Y011871D01*
X004082Y011942D01*
X004153Y011942D01*
X004225Y011871D01*
X004010Y011655D02*
X003866Y011799D01*
X003795Y011942D01*
X003325Y011655D02*
X003253Y011655D01*
X002966Y011942D01*
X002895Y011942D01*
X002895Y011655D01*
X005795Y011871D02*
X006010Y011655D01*
X006010Y011942D01*
X006225Y011871D02*
X005795Y011871D01*
X005938Y011482D02*
X006225Y011482D01*
X006010Y011482D02*
X006010Y011195D01*
X005938Y011195D02*
X005795Y011338D01*
X005938Y011482D01*
X005938Y011195D02*
X006225Y011195D01*
X006795Y011338D02*
X006938Y011195D01*
X007225Y011195D01*
X007010Y011195D02*
X007010Y011482D01*
X006938Y011482D02*
X007225Y011482D01*
X006938Y011482D02*
X006795Y011338D01*
X006866Y011655D02*
X006795Y011727D01*
X006795Y011871D01*
X006866Y011942D01*
X006938Y011942D01*
X007010Y011871D01*
X007082Y011942D01*
X007153Y011942D01*
X007225Y011871D01*
X007225Y011727D01*
X007153Y011655D01*
X007010Y011799D02*
X007010Y011871D01*
X007795Y011871D02*
X007795Y011727D01*
X007866Y011655D01*
X007795Y011871D02*
X007866Y011942D01*
X007938Y011942D01*
X008225Y011655D01*
X008225Y011942D01*
X008795Y011799D02*
X009225Y011799D01*
X009225Y011942D02*
X009225Y011655D01*
X008938Y011655D02*
X008795Y011799D01*
X008938Y011482D02*
X008795Y011338D01*
X008938Y011195D01*
X009225Y011195D01*
X009010Y011195D02*
X009010Y011482D01*
X008938Y011482D02*
X009225Y011482D01*
X009895Y011338D02*
X010038Y011195D01*
X010325Y011195D01*
X010110Y011195D02*
X010110Y011482D01*
X010038Y011482D02*
X010325Y011482D01*
X010038Y011482D02*
X009895Y011338D01*
X009966Y011655D02*
X009895Y011727D01*
X009895Y011871D01*
X009966Y011942D01*
X010253Y011655D01*
X010325Y011727D01*
X010325Y011871D01*
X010253Y011942D01*
X009966Y011942D01*
X009966Y011655D02*
X010253Y011655D01*
X008225Y011482D02*
X007938Y011482D01*
X007795Y011338D01*
X007938Y011195D01*
X008225Y011195D01*
X008010Y011195D02*
X008010Y011482D01*
D13*
X007977Y005445D02*
X007977Y005235D01*
X007837Y005445D01*
X007837Y005235D01*
X007756Y005305D02*
X007686Y005235D01*
X007686Y005445D01*
X007756Y005445D02*
X007616Y005445D01*
X007535Y005445D02*
X007395Y005445D01*
X007465Y005445D02*
X007465Y005235D01*
X007535Y005305D01*
X007093Y005340D02*
X006988Y005340D01*
X006953Y005375D01*
X006953Y005410D01*
X006988Y005445D01*
X007093Y005445D01*
X007093Y005235D01*
X006988Y005235D01*
X006953Y005270D01*
X006953Y005305D01*
X006988Y005340D01*
X006872Y005270D02*
X006802Y005340D01*
X006802Y005445D01*
X006802Y005340D02*
X006732Y005270D01*
X006732Y005235D01*
X006651Y005235D02*
X006651Y005445D01*
X006651Y005375D02*
X006546Y005375D01*
X006511Y005340D01*
X006511Y005270D01*
X006546Y005235D01*
X006651Y005235D01*
X006872Y005235D02*
X006872Y005270D01*
X006430Y005305D02*
X006430Y005445D01*
X006430Y005340D02*
X006290Y005340D01*
X006290Y005305D02*
X006290Y005445D01*
X006209Y005410D02*
X006174Y005445D01*
X006104Y005445D01*
X006069Y005410D01*
X006069Y005375D01*
X006104Y005340D01*
X006174Y005340D01*
X006209Y005305D01*
X006209Y005270D01*
X006174Y005235D01*
X006104Y005235D01*
X006069Y005270D01*
X005988Y005270D02*
X005988Y005305D01*
X005953Y005340D01*
X005883Y005340D01*
X005848Y005375D01*
X005848Y005410D01*
X005883Y005445D01*
X005953Y005445D01*
X005988Y005410D01*
X005988Y005270D02*
X005953Y005235D01*
X005883Y005235D01*
X005848Y005270D01*
X006290Y005305D02*
X006360Y005235D01*
X006430Y005305D01*
X008054Y005235D02*
X008124Y005235D01*
X008089Y005235D02*
X008089Y005445D01*
X008124Y005445D02*
X008054Y005445D01*
X008205Y005340D02*
X008240Y005375D01*
X008345Y005375D01*
X008345Y005445D02*
X008345Y005235D01*
X008240Y005235D01*
X008205Y005270D01*
X008205Y005340D01*
X007345Y001145D02*
X007345Y000935D01*
X007240Y000935D01*
X007205Y000970D01*
X007205Y001040D01*
X007240Y001075D01*
X007345Y001075D01*
X007124Y001145D02*
X007054Y001145D01*
X007089Y001145D02*
X007089Y000935D01*
X007124Y000935D02*
X007054Y000935D01*
X006977Y000935D02*
X006837Y001145D01*
X006837Y000935D01*
X006756Y001005D02*
X006686Y000935D01*
X006686Y001145D01*
X006756Y001145D02*
X006616Y001145D01*
X006535Y001110D02*
X006395Y000970D01*
X006395Y001110D01*
X006430Y001145D01*
X006500Y001145D01*
X006535Y001110D01*
X006535Y000970D01*
X006500Y000935D01*
X006430Y000935D01*
X006395Y000970D01*
X006093Y000935D02*
X006093Y001145D01*
X005988Y001145D01*
X005953Y001110D01*
X005953Y001075D01*
X005988Y001040D01*
X006093Y001040D01*
X006093Y000935D02*
X005988Y000935D01*
X005953Y000970D01*
X005953Y001005D01*
X005988Y001040D01*
X005872Y000970D02*
X005802Y001040D01*
X005802Y001145D01*
X005802Y001040D02*
X005732Y000970D01*
X005732Y000935D01*
X005651Y000935D02*
X005651Y001145D01*
X005651Y001075D02*
X005546Y001075D01*
X005511Y001040D01*
X005511Y000970D01*
X005546Y000935D01*
X005651Y000935D01*
X005872Y000935D02*
X005872Y000970D01*
X005430Y001005D02*
X005430Y001145D01*
X005430Y001040D02*
X005290Y001040D01*
X005290Y001005D02*
X005290Y001145D01*
X005209Y001110D02*
X005174Y001145D01*
X005104Y001145D01*
X005069Y001110D01*
X005069Y001075D01*
X005104Y001040D01*
X005174Y001040D01*
X005209Y001005D01*
X005209Y000970D01*
X005174Y000935D01*
X005104Y000935D01*
X005069Y000970D01*
X004988Y000970D02*
X004988Y001005D01*
X004953Y001040D01*
X004883Y001040D01*
X004848Y001075D01*
X004848Y001110D01*
X004883Y001145D01*
X004953Y001145D01*
X004988Y001110D01*
X004988Y000970D02*
X004953Y000935D01*
X004883Y000935D01*
X004848Y000970D01*
X005290Y001005D02*
X005360Y000935D01*
X005430Y001005D01*
X006977Y000935D02*
X006977Y001145D01*
X025370Y004840D02*
X025370Y004945D01*
X025370Y004840D02*
X025405Y004805D01*
X025510Y004805D01*
X025510Y004945D01*
X025591Y004910D02*
X025591Y004840D01*
X025626Y004805D01*
X025696Y004805D01*
X025731Y004840D01*
X025731Y004910D01*
X025696Y004945D01*
X025626Y004945D01*
X025591Y004910D01*
X025808Y004945D02*
X025878Y004945D01*
X025843Y004945D02*
X025843Y004805D01*
X025878Y004805D01*
X025955Y004805D02*
X026025Y004805D01*
X025990Y004770D02*
X025990Y004910D01*
X025955Y004945D01*
X026106Y004945D02*
X026106Y004840D01*
X026141Y004805D01*
X026211Y004805D01*
X026211Y004875D02*
X026106Y004875D01*
X026106Y004945D02*
X026211Y004945D01*
X026246Y004910D01*
X026211Y004875D01*
X026327Y004945D02*
X026432Y004945D01*
X026467Y004910D01*
X026467Y004840D01*
X026432Y004805D01*
X026327Y004805D01*
X026580Y004805D02*
X026580Y004945D01*
X026615Y004945D02*
X026545Y004945D01*
X026580Y004805D02*
X026615Y004805D01*
X026580Y004735D02*
X026580Y004700D01*
X026694Y004805D02*
X026729Y004805D01*
X026799Y004875D01*
X026799Y004945D02*
X026799Y004805D01*
X026880Y004840D02*
X026915Y004805D01*
X027020Y004805D01*
X027020Y004735D02*
X027020Y004945D01*
X026915Y004945D01*
X026880Y004910D01*
X026880Y004840D01*
X027101Y004840D02*
X027101Y004945D01*
X027206Y004945D01*
X027241Y004910D01*
X027206Y004875D01*
X027101Y004875D01*
X027101Y004840D02*
X027136Y004805D01*
X027206Y004805D01*
X027322Y004735D02*
X027462Y004735D01*
X027462Y004945D01*
X027462Y004840D02*
X027392Y004840D01*
X027543Y004735D02*
X027683Y004945D01*
X027764Y004945D02*
X027764Y004840D01*
X027799Y004805D01*
X027904Y004805D01*
X027904Y004945D01*
X027985Y004945D02*
X028090Y004945D01*
X028125Y004910D01*
X028125Y004840D01*
X028090Y004805D01*
X027985Y004805D01*
X027985Y004980D01*
X028020Y005015D01*
X028055Y005015D01*
X028202Y004945D02*
X028272Y004945D01*
X028237Y004945D02*
X028237Y004805D01*
X028272Y004805D01*
X028237Y004735D02*
X028237Y004700D01*
X028235Y004585D02*
X028235Y004375D01*
X028165Y004445D01*
X028095Y004375D01*
X028095Y004585D01*
X028014Y004585D02*
X028014Y004375D01*
X027944Y004445D01*
X027874Y004375D01*
X027874Y004585D01*
X028316Y004550D02*
X028351Y004585D01*
X028421Y004585D01*
X028456Y004550D01*
X028456Y004410D01*
X028421Y004375D01*
X028351Y004375D01*
X028316Y004410D01*
X028753Y004445D02*
X028753Y004480D01*
X028788Y004480D01*
X028788Y004445D01*
X028753Y004445D01*
X028753Y004550D02*
X028753Y004585D01*
X028788Y004585D01*
X028788Y004550D01*
X028753Y004550D01*
X028869Y004585D02*
X028974Y004585D01*
X029009Y004550D01*
X029009Y004445D01*
X029090Y004480D02*
X029125Y004445D01*
X029230Y004445D01*
X029230Y004375D02*
X029230Y004585D01*
X029125Y004585D01*
X029090Y004550D01*
X029090Y004480D01*
X028869Y004445D02*
X028869Y004620D01*
X028904Y004655D01*
X028939Y004655D01*
X028935Y004735D02*
X028830Y004735D01*
X028795Y004770D01*
X028795Y004910D01*
X028830Y004945D01*
X028935Y004945D01*
X028935Y004735D01*
X028714Y004840D02*
X028679Y004805D01*
X028609Y004805D01*
X028574Y004840D01*
X028574Y004875D01*
X028714Y004875D01*
X028714Y004910D02*
X028714Y004840D01*
X028714Y004910D02*
X028679Y004945D01*
X028609Y004945D01*
X028493Y004945D02*
X028388Y004945D01*
X028353Y004910D01*
X028388Y004875D01*
X028458Y004875D01*
X028493Y004840D01*
X028458Y004805D01*
X028353Y004805D01*
X029237Y004840D02*
X029237Y004875D01*
X029377Y004875D01*
X029377Y004910D02*
X029377Y004840D01*
X029342Y004805D01*
X029272Y004805D01*
X029237Y004840D01*
X029272Y004945D02*
X029342Y004945D01*
X029377Y004910D01*
X029458Y004945D02*
X029458Y004840D01*
X029493Y004805D01*
X029598Y004805D01*
X029598Y004945D01*
X029679Y004910D02*
X029679Y004840D01*
X029714Y004805D01*
X029784Y004805D01*
X029819Y004840D01*
X029819Y004910D01*
X029784Y004945D01*
X029714Y004945D01*
X029679Y004910D01*
X029896Y004945D02*
X029966Y004945D01*
X029931Y004945D02*
X029931Y004735D01*
X029966Y004735D01*
X030047Y004840D02*
X030047Y004945D01*
X030152Y004945D01*
X030187Y004910D01*
X030152Y004875D01*
X030047Y004875D01*
X030047Y004840D02*
X030082Y004805D01*
X030152Y004805D01*
X030268Y004735D02*
X030338Y004805D01*
X030408Y004735D01*
X030408Y004945D01*
X030268Y004945D02*
X030268Y004735D01*
X030265Y004655D02*
X030230Y004655D01*
X030195Y004620D01*
X030195Y004445D01*
X030300Y004445D01*
X030335Y004480D01*
X030335Y004550D01*
X030300Y004585D01*
X030195Y004585D01*
X030114Y004585D02*
X030114Y004445D01*
X030009Y004445D01*
X029974Y004480D01*
X029974Y004585D01*
X029893Y004550D02*
X029893Y004480D01*
X029858Y004445D01*
X029788Y004445D01*
X029753Y004480D01*
X029753Y004515D01*
X029893Y004515D01*
X029893Y004550D02*
X029858Y004585D01*
X029788Y004585D01*
X029672Y004550D02*
X029672Y004480D01*
X029637Y004445D01*
X029532Y004445D01*
X029532Y004375D02*
X029532Y004585D01*
X029637Y004585D01*
X029672Y004550D01*
X029605Y004225D02*
X029605Y004120D01*
X029640Y004085D01*
X029745Y004085D01*
X029745Y004225D01*
X029826Y004190D02*
X029826Y004120D01*
X029861Y004085D01*
X029931Y004085D01*
X029966Y004120D01*
X029966Y004190D01*
X029931Y004225D01*
X029861Y004225D01*
X029826Y004190D01*
X030044Y004225D02*
X030114Y004225D01*
X030079Y004225D02*
X030079Y004085D01*
X030114Y004085D01*
X030079Y004015D02*
X030079Y003980D01*
X030080Y003865D02*
X030116Y003830D01*
X030116Y003690D01*
X030151Y003725D02*
X030080Y003725D01*
X030003Y003725D02*
X029968Y003760D01*
X029898Y003760D01*
X029863Y003795D01*
X029863Y003830D01*
X029898Y003865D01*
X029968Y003865D01*
X030003Y003830D01*
X030003Y003725D02*
X030003Y003690D01*
X029968Y003655D01*
X029898Y003655D01*
X029863Y003690D01*
X029782Y003725D02*
X029747Y003725D01*
X029747Y003865D01*
X029782Y003865D02*
X029712Y003865D01*
X029635Y003830D02*
X029600Y003865D01*
X029495Y003865D01*
X029495Y003900D02*
X029495Y003725D01*
X029600Y003725D01*
X029635Y003760D01*
X029635Y003830D01*
X029565Y003935D02*
X029530Y003935D01*
X029495Y003900D01*
X029414Y003865D02*
X029414Y003725D01*
X029309Y003725D01*
X029274Y003760D01*
X029274Y003865D01*
X029233Y004015D02*
X029233Y004225D01*
X029303Y004225D02*
X029163Y004225D01*
X029303Y004085D02*
X029233Y004015D01*
X028972Y003830D02*
X028937Y003865D01*
X028867Y003865D01*
X028832Y003830D01*
X028832Y003795D01*
X028867Y003760D01*
X028937Y003760D01*
X028972Y003725D01*
X028972Y003690D01*
X028937Y003655D01*
X028867Y003655D01*
X028832Y003690D01*
X028751Y003725D02*
X028716Y003725D01*
X028681Y003760D01*
X028646Y003725D01*
X028611Y003760D01*
X028611Y003865D01*
X028681Y003865D02*
X028681Y003760D01*
X028751Y003725D02*
X028751Y003865D01*
X028530Y003830D02*
X028495Y003795D01*
X028390Y003795D01*
X028390Y003760D02*
X028390Y003865D01*
X028495Y003865D01*
X028530Y003830D01*
X028495Y003725D02*
X028425Y003725D01*
X028390Y003760D01*
X028309Y003795D02*
X028239Y003725D01*
X028204Y003725D01*
X028125Y003725D02*
X028055Y003725D01*
X028090Y003690D02*
X028090Y003830D01*
X028055Y003865D01*
X028309Y003865D02*
X028309Y003725D01*
X027757Y003655D02*
X027686Y003655D01*
X027721Y003655D02*
X027721Y003865D01*
X027686Y003865D02*
X027757Y003865D01*
X027609Y003865D02*
X027609Y003725D01*
X027504Y003725D01*
X027469Y003760D01*
X027469Y003865D01*
X027353Y003830D02*
X027318Y003865D01*
X027353Y003830D02*
X027353Y003690D01*
X027388Y003725D02*
X027318Y003725D01*
X027241Y003760D02*
X027241Y003830D01*
X027206Y003865D01*
X027136Y003865D01*
X027101Y003795D02*
X027241Y003795D01*
X027241Y003760D02*
X027206Y003725D01*
X027136Y003725D01*
X027101Y003760D01*
X027101Y003795D01*
X027020Y003795D02*
X026950Y003725D01*
X026915Y003725D01*
X026836Y003760D02*
X026766Y003760D01*
X026801Y003690D02*
X026766Y003655D01*
X026801Y003690D02*
X026801Y003865D01*
X026688Y003830D02*
X026653Y003795D01*
X026548Y003795D01*
X026548Y003760D02*
X026548Y003865D01*
X026653Y003865D01*
X026688Y003830D01*
X026653Y003725D02*
X026583Y003725D01*
X026548Y003760D01*
X026467Y003760D02*
X026467Y003830D01*
X026432Y003865D01*
X026327Y003865D01*
X026246Y003830D02*
X026246Y003760D01*
X026211Y003725D01*
X026141Y003725D01*
X026106Y003760D01*
X026106Y003795D01*
X026246Y003795D01*
X026246Y003830D02*
X026211Y003865D01*
X026141Y003865D01*
X026327Y003725D02*
X026432Y003725D01*
X026467Y003760D01*
X027020Y003725D02*
X027020Y003865D01*
X025843Y004700D02*
X025843Y004735D01*
X028942Y003435D02*
X029082Y003435D01*
X029082Y003470D02*
X029082Y003400D01*
X029047Y003365D01*
X028977Y003365D01*
X028942Y003400D01*
X028942Y003435D01*
X028977Y003505D02*
X029047Y003505D01*
X029082Y003470D01*
X029160Y003505D02*
X029230Y003505D01*
X029195Y003505D02*
X029195Y003295D01*
X029230Y003295D01*
X029311Y003365D02*
X029311Y003505D01*
X029416Y003505D01*
X029451Y003470D01*
X029451Y003365D01*
X029532Y003365D02*
X029637Y003365D01*
X029672Y003400D01*
X029672Y003470D01*
X029637Y003505D01*
X029532Y003505D01*
X029532Y003295D01*
X029753Y003400D02*
X029788Y003365D01*
X029858Y003365D01*
X029893Y003400D01*
X029893Y003470D01*
X029858Y003505D01*
X029788Y003505D01*
X029753Y003470D01*
X029753Y003400D01*
X029747Y003620D02*
X029747Y003655D01*
X029974Y003505D02*
X029974Y003295D01*
X030044Y003365D01*
X030114Y003295D01*
X030114Y003505D01*
X030372Y003655D02*
X030372Y003865D01*
X030452Y003865D02*
X030558Y003865D01*
X030593Y003830D01*
X030593Y003760D01*
X030558Y003725D01*
X030452Y003725D01*
X030452Y003900D01*
X030487Y003935D01*
X030522Y003935D01*
X030447Y003980D02*
X030447Y004015D01*
X030447Y004085D02*
X030447Y004225D01*
X030482Y004225D02*
X030412Y004225D01*
X030335Y004225D02*
X030230Y004225D01*
X030195Y004190D01*
X030230Y004155D01*
X030300Y004155D01*
X030335Y004120D01*
X030300Y004085D01*
X030195Y004085D01*
X030231Y003865D02*
X030231Y003760D01*
X030266Y003725D01*
X030337Y003725D01*
X030372Y003760D01*
X030670Y003865D02*
X030740Y003865D01*
X030705Y003865D02*
X030705Y003725D01*
X030740Y003725D01*
X030705Y003655D02*
X030705Y003620D01*
X030703Y003505D02*
X030633Y003505D01*
X030668Y003505D02*
X030668Y003295D01*
X030703Y003295D02*
X030633Y003295D01*
X030556Y003330D02*
X030556Y003470D01*
X030521Y003505D01*
X030451Y003505D01*
X030416Y003470D01*
X030416Y003330D01*
X030451Y003295D01*
X030521Y003295D01*
X030556Y003330D01*
X030784Y003330D02*
X030784Y003400D01*
X030819Y003435D01*
X030924Y003435D01*
X030924Y003505D02*
X030924Y003295D01*
X030819Y003295D01*
X030784Y003330D01*
X031005Y003330D02*
X031040Y003295D01*
X031110Y003295D01*
X031145Y003330D01*
X031145Y003470D01*
X031110Y003505D01*
X031040Y003505D01*
X031005Y003470D01*
X031005Y003400D01*
X031075Y003400D01*
X031040Y003655D02*
X031005Y003690D01*
X031005Y003725D01*
X031040Y003760D01*
X031145Y003760D01*
X031145Y003865D02*
X031040Y003865D01*
X031005Y003830D01*
X031005Y003795D01*
X031040Y003760D01*
X031040Y003655D02*
X031145Y003655D01*
X031145Y003865D01*
X031145Y004015D02*
X031040Y004015D01*
X031005Y004050D01*
X031005Y004120D01*
X031040Y004155D01*
X031145Y004155D01*
X031145Y004225D02*
X031145Y004015D01*
X031075Y004155D02*
X031005Y004225D01*
X030924Y004190D02*
X030924Y004120D01*
X030889Y004085D01*
X030819Y004085D01*
X030784Y004120D01*
X030784Y004155D01*
X030924Y004155D01*
X030924Y004190D02*
X030889Y004225D01*
X030819Y004225D01*
X030703Y004085D02*
X030633Y004225D01*
X030563Y004085D01*
X030482Y004085D02*
X030447Y004085D01*
X030447Y004340D02*
X030447Y004375D01*
X030447Y004445D02*
X030447Y004585D01*
X030482Y004585D02*
X030412Y004585D01*
X030447Y004445D02*
X030482Y004445D01*
X030563Y004445D02*
X030668Y004445D01*
X030703Y004480D01*
X030668Y004515D01*
X030598Y004515D01*
X030563Y004550D01*
X030598Y004585D01*
X030703Y004585D01*
X030784Y004515D02*
X030924Y004515D01*
X030924Y004550D02*
X030924Y004480D01*
X030889Y004445D01*
X030819Y004445D01*
X030784Y004480D01*
X030784Y004515D01*
X030819Y004585D02*
X030889Y004585D01*
X030924Y004550D01*
X031005Y004550D02*
X031005Y004410D01*
X031040Y004375D01*
X031145Y004375D01*
X031145Y004585D01*
X031040Y004585D01*
X031005Y004550D01*
X031075Y004735D02*
X031145Y004805D01*
X031145Y004875D01*
X031075Y004945D01*
X030998Y004910D02*
X030963Y004945D01*
X030858Y004945D01*
X030777Y004945D02*
X030707Y004875D01*
X030707Y004805D01*
X030777Y004735D01*
X030858Y004805D02*
X030963Y004805D01*
X030998Y004840D01*
X030998Y004910D01*
X030924Y003865D02*
X030924Y003725D01*
X030924Y003795D02*
X030854Y003725D01*
X030819Y003725D01*
D14*
X025430Y003473D02*
X025430Y003246D01*
X025373Y003190D01*
X025260Y003190D01*
X025203Y003246D01*
X025203Y003360D02*
X025317Y003360D01*
X025203Y003360D02*
X025203Y003473D01*
X025260Y003530D01*
X025373Y003530D01*
X025430Y003473D01*
X025062Y003530D02*
X025062Y003190D01*
X024835Y003530D01*
X024835Y003190D01*
X024693Y003190D02*
X024523Y003190D01*
X024467Y003246D01*
X024467Y003473D01*
X024523Y003530D01*
X024693Y003530D01*
X024693Y003190D01*
X024030Y003190D02*
X023803Y003190D01*
X023917Y003190D02*
X023917Y003530D01*
X023662Y003530D02*
X023435Y003190D01*
X023293Y003246D02*
X023237Y003190D01*
X023123Y003190D01*
X023067Y003246D01*
X023293Y003473D01*
X023237Y003530D01*
X023123Y003530D01*
X023067Y003473D01*
X023067Y003246D01*
X023293Y003246D02*
X023293Y003473D01*
X023435Y003530D02*
X023662Y003190D01*
X022530Y003190D02*
X022530Y003530D01*
X022530Y003417D02*
X022360Y003417D01*
X022303Y003360D01*
X022303Y003246D01*
X022360Y003190D01*
X022530Y003190D01*
X022417Y003417D02*
X022303Y003530D01*
X022162Y003530D02*
X021935Y003190D01*
X021793Y003303D02*
X021680Y003190D01*
X021680Y003530D01*
X021793Y003530D02*
X021567Y003530D01*
X021230Y003473D02*
X021173Y003530D01*
X021060Y003530D01*
X021003Y003473D01*
X021003Y003360D01*
X021117Y003360D01*
X021230Y003473D02*
X021230Y003246D01*
X021173Y003190D01*
X021060Y003190D01*
X021003Y003246D01*
X020862Y003190D02*
X020635Y003530D01*
X020635Y003190D01*
X020493Y003190D02*
X020323Y003190D01*
X020267Y003246D01*
X020267Y003473D01*
X020323Y003530D01*
X020493Y003530D01*
X020493Y003190D01*
X020862Y003190D02*
X020862Y003530D01*
X019830Y003473D02*
X019830Y003246D01*
X019773Y003190D01*
X019660Y003190D01*
X019603Y003246D01*
X019603Y003360D02*
X019717Y003360D01*
X019603Y003360D02*
X019603Y003473D01*
X019660Y003530D01*
X019773Y003530D01*
X019830Y003473D01*
X019462Y003530D02*
X019462Y003190D01*
X019235Y003530D01*
X019235Y003190D01*
X019093Y003190D02*
X018923Y003190D01*
X018867Y003246D01*
X018867Y003473D01*
X018923Y003530D01*
X019093Y003530D01*
X019093Y003190D01*
X018330Y003303D02*
X018217Y003190D01*
X018217Y003530D01*
X018330Y003530D02*
X018103Y003530D01*
X017962Y003473D02*
X017905Y003530D01*
X017792Y003530D01*
X017735Y003473D01*
X017735Y003417D01*
X017792Y003360D01*
X017848Y003360D01*
X017792Y003360D02*
X017735Y003303D01*
X017735Y003246D01*
X017792Y003190D01*
X017905Y003190D01*
X017962Y003246D01*
X016930Y003303D02*
X016817Y003190D01*
X016817Y003530D01*
X016930Y003530D02*
X016703Y003530D01*
X016562Y003530D02*
X016335Y003303D01*
X016335Y003246D01*
X016392Y003190D01*
X016505Y003190D01*
X016562Y003246D01*
X016562Y003530D02*
X016335Y003530D01*
X015730Y003990D02*
X015560Y003990D01*
X015503Y004046D01*
X015503Y004103D01*
X015560Y004160D01*
X015730Y004160D01*
X015730Y004330D02*
X015730Y003990D01*
X015560Y004160D02*
X015503Y004217D01*
X015503Y004273D01*
X015560Y004330D01*
X015730Y004330D01*
X015362Y004273D02*
X015305Y004330D01*
X015135Y004330D01*
X015135Y004103D01*
X014993Y004160D02*
X014880Y004160D01*
X014937Y004046D02*
X014880Y003990D01*
X014937Y004046D02*
X014937Y004330D01*
X014691Y004330D02*
X014691Y004046D01*
X014634Y003990D01*
X014634Y004160D02*
X014748Y004160D01*
X014502Y004160D02*
X014446Y004103D01*
X014332Y004103D01*
X014275Y004160D01*
X014275Y004217D01*
X014502Y004217D01*
X014502Y004273D02*
X014502Y004160D01*
X014502Y004273D02*
X014446Y004330D01*
X014332Y004330D01*
X014134Y004330D02*
X014134Y004103D01*
X014021Y004103D02*
X013964Y004103D01*
X014021Y004103D02*
X014134Y004217D01*
X013827Y004217D02*
X013600Y004217D01*
X013600Y004160D01*
X013657Y004103D01*
X013770Y004103D01*
X013827Y004160D01*
X013827Y004273D01*
X013770Y004330D01*
X013657Y004330D01*
X013459Y004273D02*
X013459Y004160D01*
X013402Y004103D01*
X013232Y004103D01*
X013232Y003990D02*
X013232Y004330D01*
X013402Y004330D01*
X013459Y004273D01*
X013592Y003530D02*
X013705Y003530D01*
X013762Y003473D01*
X013535Y003246D01*
X013535Y003473D01*
X013592Y003530D01*
X013762Y003473D02*
X013762Y003246D01*
X013705Y003190D01*
X013592Y003190D01*
X013535Y003246D01*
X013903Y003530D02*
X014130Y003530D01*
X014017Y003530D02*
X014017Y003190D01*
X014130Y003303D01*
X014835Y003530D02*
X015062Y003530D01*
X014948Y003530D02*
X014948Y003190D01*
X015062Y003303D01*
X015317Y003190D02*
X015317Y003530D01*
X015430Y003530D02*
X015203Y003530D01*
X015430Y003303D02*
X015317Y003190D01*
X015362Y004103D02*
X015362Y004273D01*
X012830Y003473D02*
X012830Y003246D01*
X012773Y003190D01*
X012660Y003190D01*
X012603Y003246D01*
X012603Y003360D02*
X012717Y003360D01*
X012603Y003360D02*
X012603Y003473D01*
X012660Y003530D01*
X012773Y003530D01*
X012830Y003473D01*
X012462Y003530D02*
X012462Y003190D01*
X012235Y003530D01*
X012235Y003190D01*
X012093Y003190D02*
X011923Y003190D01*
X011867Y003246D01*
X011867Y003473D01*
X011923Y003530D01*
X012093Y003530D01*
X012093Y003190D01*
X021935Y003530D02*
X022162Y003190D01*
X028290Y006896D02*
X028403Y006782D01*
X028630Y006782D01*
X028630Y007009D02*
X028403Y007009D01*
X028290Y006896D01*
X028347Y007151D02*
X028290Y007207D01*
X028290Y007321D01*
X028347Y007378D01*
X028347Y007505D02*
X028290Y007505D01*
X028290Y007562D01*
X028347Y007562D01*
X028347Y007505D01*
X028574Y007378D02*
X028630Y007321D01*
X028630Y007207D01*
X028574Y007151D01*
X028517Y007151D01*
X028460Y007207D01*
X028403Y007151D01*
X028347Y007151D01*
X028460Y007207D02*
X028460Y007264D01*
X028403Y007703D02*
X028347Y007703D01*
X028290Y007760D01*
X028290Y007873D01*
X028347Y007930D01*
X028460Y007817D02*
X028460Y007760D01*
X028403Y007703D01*
X028460Y007760D02*
X028517Y007703D01*
X028574Y007703D01*
X028630Y007760D01*
X028630Y007873D01*
X028574Y007930D01*
X028574Y008367D02*
X028347Y008367D01*
X028290Y008423D01*
X028290Y008593D01*
X028630Y008593D01*
X028630Y008423D01*
X028574Y008367D01*
X028630Y008735D02*
X028290Y008735D01*
X028630Y008962D01*
X028290Y008962D01*
X028347Y009103D02*
X028460Y009103D01*
X028460Y009217D01*
X028347Y009330D02*
X028290Y009273D01*
X028290Y009160D01*
X028347Y009103D01*
X028574Y009103D02*
X028630Y009160D01*
X028630Y009273D01*
X028574Y009330D01*
X028347Y009330D01*
X028574Y009835D02*
X028347Y010062D01*
X028290Y010062D01*
X028290Y010203D02*
X028517Y010203D01*
X028630Y010317D01*
X028517Y010430D01*
X028290Y010430D01*
X028460Y010430D02*
X028460Y010203D01*
X028630Y010062D02*
X028630Y009835D01*
X028574Y009835D01*
X028630Y011135D02*
X028574Y011248D01*
X028460Y011362D01*
X028460Y011192D01*
X028403Y011135D01*
X028347Y011135D01*
X028290Y011192D01*
X028290Y011305D01*
X028347Y011362D01*
X028460Y011362D01*
X028460Y011503D02*
X028460Y011730D01*
X028517Y011730D02*
X028630Y011617D01*
X028517Y011503D01*
X028290Y011503D01*
X028290Y011730D02*
X028517Y011730D01*
X027949Y011847D02*
X027892Y011790D01*
X027778Y011790D01*
X027722Y011847D01*
X027722Y011960D02*
X027835Y012017D01*
X027892Y012017D01*
X027949Y011960D01*
X027949Y011847D01*
X027722Y011960D02*
X027722Y012130D01*
X027949Y012130D01*
X027580Y012017D02*
X027580Y011790D01*
X027353Y011790D02*
X027353Y012017D01*
X027467Y012130D01*
X027580Y012017D01*
X027580Y011960D02*
X027353Y011960D01*
X026449Y011960D02*
X026222Y011960D01*
X026392Y012130D01*
X026392Y011790D01*
X026080Y011790D02*
X026080Y012017D01*
X025967Y012130D01*
X025853Y012017D01*
X025853Y011790D01*
X025853Y011960D02*
X026080Y011960D01*
X025249Y011847D02*
X025192Y011790D01*
X025022Y011790D01*
X025022Y012130D01*
X025192Y012130D01*
X025249Y012074D01*
X025249Y011847D01*
X024880Y011790D02*
X024880Y012130D01*
X024653Y012130D02*
X024880Y011790D01*
X024653Y011790D02*
X024653Y012130D01*
X024512Y012074D02*
X024455Y012130D01*
X024342Y012130D01*
X024285Y012074D01*
X024285Y011847D01*
X024342Y011790D01*
X024455Y011790D01*
X024512Y011847D01*
X024512Y011960D01*
X024398Y011960D01*
X023949Y011903D02*
X023949Y012130D01*
X023722Y012130D02*
X023722Y011903D01*
X023835Y011790D01*
X023949Y011903D01*
X023580Y011903D02*
X023524Y011960D01*
X023467Y011960D01*
X023524Y011960D02*
X023580Y012017D01*
X023580Y012074D01*
X023524Y012130D01*
X023410Y012130D01*
X023353Y012074D01*
X023353Y011847D02*
X023410Y011790D01*
X023524Y011790D01*
X023580Y011847D01*
X023580Y011903D01*
X023226Y011847D02*
X023226Y011790D01*
X023169Y011790D01*
X023169Y011847D01*
X023226Y011847D01*
X023028Y011847D02*
X022971Y011790D01*
X022858Y011790D01*
X022801Y011847D01*
X022914Y011960D02*
X022971Y011960D01*
X023028Y011903D01*
X023028Y011847D01*
X022971Y011960D02*
X023028Y012017D01*
X023028Y012074D01*
X022971Y012130D01*
X022858Y012130D01*
X022801Y012074D01*
X022549Y012130D02*
X022549Y011903D01*
X022435Y011790D01*
X022322Y011903D01*
X022322Y012130D01*
X022180Y012074D02*
X022180Y012017D01*
X022124Y011960D01*
X022180Y011903D01*
X022180Y011847D01*
X022124Y011790D01*
X022010Y011790D01*
X021953Y011847D01*
X021826Y011847D02*
X021826Y011790D01*
X021769Y011790D01*
X021769Y011847D01*
X021826Y011847D01*
X021628Y011847D02*
X021571Y011790D01*
X021458Y011790D01*
X021401Y011847D01*
X021514Y011960D02*
X021571Y011960D01*
X021628Y011903D01*
X021628Y011847D01*
X021571Y011960D02*
X021628Y012017D01*
X021628Y012074D01*
X021571Y012130D01*
X021458Y012130D01*
X021401Y012074D01*
X021049Y012074D02*
X021049Y011847D01*
X020992Y011790D01*
X020822Y011790D01*
X020822Y012130D01*
X020992Y012130D01*
X021049Y012074D01*
X020680Y012130D02*
X020680Y011790D01*
X020453Y012130D01*
X020453Y011790D01*
X020312Y011847D02*
X020312Y011960D01*
X020198Y011960D01*
X020085Y011847D02*
X020085Y012074D01*
X020142Y012130D01*
X020255Y012130D01*
X020312Y012074D01*
X020312Y011847D02*
X020255Y011790D01*
X020142Y011790D01*
X020085Y011847D01*
X019649Y011847D02*
X019592Y011790D01*
X019478Y011790D01*
X019422Y011847D01*
X019280Y011790D02*
X019280Y012017D01*
X019167Y012130D01*
X019053Y012017D01*
X019053Y011790D01*
X019592Y011960D02*
X019649Y011903D01*
X019649Y011847D01*
X019592Y011960D02*
X019535Y011960D01*
X019592Y011960D02*
X019649Y012017D01*
X019649Y012074D01*
X019592Y012130D01*
X019478Y012130D01*
X019422Y012074D01*
X019280Y011960D02*
X019053Y011960D01*
X018249Y012017D02*
X018249Y012074D01*
X018192Y012130D01*
X018078Y012130D01*
X018022Y012074D01*
X017880Y012017D02*
X017880Y011790D01*
X018022Y011790D02*
X018249Y012017D01*
X017880Y012017D02*
X017767Y012130D01*
X017653Y012017D01*
X017653Y011790D01*
X018022Y011790D02*
X018249Y011790D01*
X017880Y011960D02*
X017653Y011960D01*
X016749Y011790D02*
X016522Y011790D01*
X016635Y011790D02*
X016635Y012130D01*
X016522Y012017D01*
X016380Y012017D02*
X016267Y012130D01*
X016153Y012017D01*
X016153Y011790D01*
X016380Y011790D02*
X016380Y012017D01*
X016380Y011960D02*
X016153Y011960D01*
X015449Y011847D02*
X015392Y011790D01*
X015278Y011790D01*
X015222Y011847D01*
X015449Y012074D01*
X015449Y011847D01*
X015449Y012074D02*
X015392Y012130D01*
X015278Y012130D01*
X015222Y012074D01*
X015222Y011847D01*
X015080Y011790D02*
X015080Y012017D01*
X014967Y012130D01*
X014853Y012017D01*
X014853Y011790D01*
X014853Y011960D02*
X015080Y011960D01*
X014249Y011847D02*
X014192Y011790D01*
X014022Y011790D01*
X014022Y012130D01*
X014192Y012130D01*
X014249Y012074D01*
X014249Y011847D01*
X013880Y011790D02*
X013880Y012130D01*
X013653Y012130D02*
X013880Y011790D01*
X013653Y011790D02*
X013653Y012130D01*
X013512Y012074D02*
X013455Y012130D01*
X013342Y012130D01*
X013285Y012074D01*
X013285Y011847D01*
X013342Y011790D01*
X013455Y011790D01*
X013512Y011847D01*
X013512Y011960D01*
X013398Y011960D01*
X012849Y011903D02*
X012735Y011790D01*
X012622Y011903D01*
X012622Y012130D01*
X012480Y012074D02*
X012424Y012130D01*
X012310Y012130D01*
X012253Y012074D01*
X012367Y011960D02*
X012424Y011960D01*
X012480Y011903D01*
X012480Y011847D01*
X012424Y011790D01*
X012310Y011790D01*
X012253Y011847D01*
X012126Y011847D02*
X012126Y011790D01*
X012069Y011790D01*
X012069Y011847D01*
X012126Y011847D01*
X011928Y011847D02*
X011871Y011790D01*
X011758Y011790D01*
X011701Y011847D01*
X011814Y011960D02*
X011871Y011960D01*
X011928Y011903D01*
X011928Y011847D01*
X011871Y011960D02*
X011928Y012017D01*
X011928Y012074D01*
X011871Y012130D01*
X011758Y012130D01*
X011701Y012074D01*
X012424Y011960D02*
X012480Y012017D01*
X012480Y012074D01*
X012849Y012130D02*
X012849Y011903D01*
X021953Y012074D02*
X022010Y012130D01*
X022124Y012130D01*
X022180Y012074D01*
X022124Y011960D02*
X022067Y011960D01*
D15*
X019400Y010050D03*
X019505Y009915D03*
X019505Y009900D03*
X019490Y009720D03*
X019505Y009705D03*
X019505Y009690D03*
X019505Y009540D03*
X019505Y009525D03*
X019445Y009405D03*
X019280Y009525D03*
X019280Y009540D03*
X019280Y009690D03*
X019280Y009705D03*
X019280Y009915D03*
X019700Y009855D03*
X019700Y009840D03*
X019700Y009825D03*
X019700Y009810D03*
X019700Y009795D03*
X019700Y009780D03*
X019700Y009765D03*
X019700Y009750D03*
X019700Y009735D03*
X019700Y009720D03*
X019700Y009705D03*
X019700Y009690D03*
X019700Y009675D03*
X019700Y009660D03*
X019700Y009645D03*
X019700Y009630D03*
X019700Y009615D03*
X019700Y009600D03*
X019700Y009585D03*
X019700Y009570D03*
X019700Y009555D03*
X019700Y009540D03*
X019700Y009525D03*
X019700Y009510D03*
X019700Y009495D03*
X019700Y009480D03*
X019700Y009465D03*
X019700Y009450D03*
X019700Y009435D03*
X019700Y009420D03*
X019700Y009405D03*
X019700Y009345D03*
X019700Y009330D03*
X019700Y009315D03*
X019700Y009300D03*
X019700Y009285D03*
X019700Y009270D03*
X019700Y009255D03*
X019700Y009240D03*
X019925Y009480D03*
X020015Y009390D03*
X020120Y009540D03*
X020315Y009525D03*
X020330Y009510D03*
X020540Y009510D03*
X020555Y009540D03*
X020555Y009720D03*
X020780Y009720D03*
X020780Y009705D03*
X020780Y009735D03*
X020780Y009555D03*
X020780Y009540D03*
X020780Y009525D03*
X020990Y009510D03*
X021005Y009525D03*
X021005Y009540D03*
X021005Y009705D03*
X020990Y009750D03*
X021455Y009705D03*
X020330Y009750D03*
X020315Y009735D03*
X020120Y009765D03*
X020015Y009870D03*
X019910Y009705D03*
X019055Y009555D03*
X019055Y009540D03*
X018845Y009540D03*
X018845Y009525D03*
X018605Y009645D03*
X018185Y009690D03*
X018185Y009750D03*
X017960Y009735D03*
X017960Y009570D03*
X017960Y009510D03*
X018170Y009510D03*
X018410Y009345D03*
X018350Y009225D03*
X018350Y009030D03*
X018365Y009015D03*
X018395Y009000D03*
X018410Y008985D03*
X018425Y008970D03*
X018965Y009345D03*
X018995Y009300D03*
X019010Y009285D03*
X019025Y009270D03*
X019040Y009255D03*
X019055Y009240D03*
X019070Y009225D03*
X019115Y009165D03*
X019130Y009150D03*
X017720Y009525D03*
X017720Y009540D03*
X017720Y009555D03*
X017720Y009705D03*
X017720Y009720D03*
X017720Y009735D03*
X017510Y009750D03*
X017495Y009735D03*
X017495Y009720D03*
X017495Y009540D03*
X017495Y009525D03*
X017510Y009510D03*
X017285Y009570D03*
X017285Y009585D03*
X017285Y009600D03*
X017285Y009615D03*
X017285Y009630D03*
X017285Y009645D03*
X016790Y009555D03*
X016775Y009525D03*
X016565Y009510D03*
X016550Y009525D03*
X016340Y009510D03*
X016355Y009690D03*
X016355Y009750D03*
X016130Y009735D03*
X016130Y009570D03*
X016130Y009510D03*
X015875Y009750D03*
X015620Y009750D03*
X015620Y009735D03*
X015620Y009720D03*
X015620Y009705D03*
X015620Y009690D03*
X015620Y009675D03*
X015620Y009660D03*
X015620Y009645D03*
X015620Y009630D03*
X015620Y009615D03*
X015620Y009600D03*
X015620Y009585D03*
X015620Y009570D03*
X015620Y009555D03*
X015620Y009540D03*
X015620Y009525D03*
X015620Y009510D03*
X015620Y009495D03*
X015620Y009480D03*
X015620Y009465D03*
X015620Y009450D03*
X015620Y009435D03*
X015620Y009420D03*
X015620Y009405D03*
X015620Y009345D03*
X015620Y009330D03*
X015620Y009315D03*
X015620Y009300D03*
X015620Y009285D03*
X015395Y009525D03*
X015410Y009540D03*
X015410Y009555D03*
X015410Y009705D03*
X015410Y009720D03*
X015395Y009735D03*
X015185Y009735D03*
X015170Y009720D03*
X015170Y009705D03*
X015170Y009555D03*
X015170Y009540D03*
X015185Y009525D03*
X014945Y009540D03*
X014945Y009555D03*
X014735Y009540D03*
X014735Y009525D03*
X014780Y009405D03*
X015245Y008970D03*
X015620Y009765D03*
X015620Y009780D03*
X015620Y009795D03*
X015620Y009810D03*
X015620Y009825D03*
X015620Y009840D03*
X015620Y009855D03*
X020300Y007425D03*
X020285Y007395D03*
X020840Y007320D03*
X020840Y007305D03*
X020855Y007350D03*
X021530Y006915D03*
X021545Y006930D03*
X021575Y006975D03*
X021590Y006990D03*
X021620Y007035D03*
X021635Y007050D03*
X021650Y007065D03*
X021500Y006870D03*
X021395Y006735D03*
X021395Y006720D03*
X021860Y006375D03*
X021875Y006390D03*
X021830Y006330D03*
X021815Y006315D03*
X021785Y006270D03*
X021740Y006210D03*
X021725Y006195D03*
X021710Y006180D03*
X021005Y006090D03*
X020990Y006105D03*
X020960Y006150D03*
X020390Y006495D03*
X020375Y006480D03*
X020345Y006450D03*
X019715Y006405D03*
X019700Y006420D03*
X019685Y006435D03*
X020030Y006990D03*
X023075Y005490D03*
X023090Y005475D03*
X023120Y005430D03*
X023135Y005415D03*
X023165Y005370D03*
X023180Y005355D03*
X023195Y005340D03*
X023210Y005325D03*
X023495Y005895D03*
X023480Y005910D03*
X025085Y006630D03*
X025325Y006030D03*
X022730Y009540D03*
X022745Y009555D03*
D16*
X021118Y009945D03*
X020023Y009855D03*
X019393Y010035D03*
X018463Y009735D03*
X018433Y009750D03*
X017998Y009600D03*
X018373Y009300D03*
X016633Y008940D03*
X016168Y009600D03*
X015283Y009000D03*
X020818Y009240D03*
X020818Y009255D03*
X020818Y009300D03*
X021433Y006840D03*
X020188Y006315D03*
X021073Y006045D03*
X023368Y005190D03*
X024388Y005280D03*
X024418Y005295D03*
X024628Y005430D03*
X024283Y005970D03*
X024313Y005985D03*
X025078Y006585D03*
D17*
X025070Y006555D03*
X023975Y005805D03*
X020045Y007095D03*
X019850Y006315D03*
X015380Y007425D03*
X016070Y008670D03*
X016715Y008985D03*
X016745Y009000D03*
X017225Y009420D03*
X017225Y009435D03*
X017225Y009450D03*
X017975Y009225D03*
X018065Y009420D03*
X018230Y009105D03*
X018395Y008955D03*
X020015Y009420D03*
X020435Y009435D03*
X020435Y009825D03*
X020015Y009840D03*
X019400Y010020D03*
X016235Y009420D03*
X015650Y009180D03*
X015545Y009135D03*
X015515Y009120D03*
X015485Y009105D03*
X015455Y009090D03*
X015425Y009075D03*
X015395Y009060D03*
X015290Y009435D03*
X015290Y009825D03*
X023105Y009600D03*
D18*
X022925Y009675D03*
X020855Y009405D03*
X020435Y009450D03*
X020015Y009450D03*
X020030Y009600D03*
X020015Y009615D03*
X020000Y009645D03*
X020015Y009825D03*
X020435Y009810D03*
X019400Y010005D03*
X018065Y009435D03*
X016850Y009045D03*
X016670Y009450D03*
X016235Y009435D03*
X015695Y009255D03*
X015290Y009450D03*
X015290Y009465D03*
X015290Y009795D03*
X015290Y009810D03*
X020570Y007425D03*
X021290Y005940D03*
X024155Y005175D03*
X024200Y005190D03*
X024230Y005205D03*
X024275Y005220D03*
D19*
X024118Y005160D03*
X024073Y005145D03*
X020023Y006240D03*
X020818Y008940D03*
X020863Y009420D03*
X020428Y009465D03*
X020008Y009630D03*
X020023Y009810D03*
X019393Y009990D03*
X019363Y009810D03*
X018748Y009615D03*
X018043Y009630D03*
X018058Y009450D03*
X017638Y009420D03*
X016933Y009075D03*
X016888Y009060D03*
X016663Y009465D03*
X016228Y009450D03*
X016213Y009630D03*
X015733Y009210D03*
X015703Y009240D03*
X021148Y009900D03*
D20*
X020878Y009795D03*
X020878Y009780D03*
X020878Y009465D03*
X020878Y009450D03*
X020023Y009795D03*
X019378Y009780D03*
X019378Y009765D03*
X019393Y009945D03*
X019393Y009960D03*
X019393Y009975D03*
X018523Y009720D03*
X018523Y009705D03*
X018523Y009690D03*
X018058Y009645D03*
X018058Y009480D03*
X017623Y009465D03*
X017623Y009450D03*
X017623Y009795D03*
X017623Y009810D03*
X016693Y009690D03*
X016228Y009645D03*
X016228Y009480D03*
X016663Y009480D03*
X016663Y009495D03*
X015283Y009495D03*
X014848Y009465D03*
X014848Y009450D03*
X014848Y009435D03*
X014383Y008685D03*
X016618Y007455D03*
X018373Y008940D03*
X018073Y009165D03*
X018958Y009435D03*
X018958Y009450D03*
X018958Y009465D03*
X019378Y009450D03*
X022933Y009660D03*
X021823Y007455D03*
D21*
X020818Y007215D03*
X020818Y007200D03*
X020803Y007185D03*
X020803Y007170D03*
X020803Y007155D03*
X021418Y006795D03*
X020233Y006345D03*
X019768Y006360D03*
X020038Y007020D03*
X021628Y006105D03*
X021643Y006120D03*
X023323Y005220D03*
X024448Y005310D03*
X024688Y005475D03*
X024703Y005490D03*
X025153Y005865D03*
X024703Y006270D03*
X024718Y006285D03*
X024733Y006300D03*
X024673Y006255D03*
X024658Y006240D03*
X024643Y006225D03*
X024613Y006210D03*
X024598Y006195D03*
X024583Y006180D03*
X024553Y006165D03*
X024538Y006150D03*
X024523Y006135D03*
X024478Y006105D03*
X024463Y006090D03*
X024418Y006060D03*
X024403Y006045D03*
X024388Y006030D03*
X024358Y006015D03*
X025078Y006600D03*
X020833Y008955D03*
X020428Y009405D03*
X020098Y009555D03*
X019933Y009690D03*
X020998Y009870D03*
X021118Y009960D03*
X021433Y009735D03*
X018358Y009255D03*
X018313Y009060D03*
X016663Y009405D03*
X016303Y009840D03*
X015838Y009825D03*
X015838Y009810D03*
X016648Y007425D03*
D22*
X016618Y007590D03*
X015328Y007485D03*
X015763Y008610D03*
X015328Y008910D03*
X017638Y009945D03*
X020278Y008025D03*
X021838Y007590D03*
X022588Y007590D03*
X023758Y005085D03*
D23*
X023428Y005160D03*
X024328Y005250D03*
X024358Y005265D03*
X023998Y005820D03*
X024028Y005835D03*
X024058Y005850D03*
X024088Y005865D03*
X024118Y005880D03*
X024178Y005910D03*
X024208Y005925D03*
X024238Y005940D03*
X021523Y006045D03*
X021493Y006030D03*
X020053Y007080D03*
X018268Y009090D03*
X017233Y009465D03*
X017233Y009480D03*
X017233Y009495D03*
X016663Y009420D03*
X016558Y009645D03*
X016528Y009630D03*
X016663Y009840D03*
X017038Y009825D03*
X015868Y009525D03*
X015868Y009510D03*
X015868Y009495D03*
X015868Y009480D03*
X015868Y009465D03*
X015868Y009450D03*
X015868Y009435D03*
X015868Y009420D03*
X015868Y009405D03*
X015613Y009165D03*
X015583Y009150D03*
X015358Y009045D03*
X015328Y009030D03*
X015298Y009015D03*
X016048Y008655D03*
X021133Y009930D03*
X022918Y009690D03*
X023068Y009615D03*
D24*
X023173Y009540D03*
X022903Y009720D03*
X022798Y009615D03*
X022783Y009600D03*
X022768Y009585D03*
X022753Y009570D03*
X021448Y009720D03*
X020938Y009840D03*
X020788Y009750D03*
X020788Y009510D03*
X020533Y009750D03*
X020113Y009780D03*
X019498Y009930D03*
X019288Y009930D03*
X019288Y009720D03*
X019288Y009510D03*
X019498Y009510D03*
X019048Y009525D03*
X018898Y009405D03*
X018973Y009330D03*
X018988Y009315D03*
X019078Y009210D03*
X019093Y009195D03*
X019108Y009180D03*
X018343Y009045D03*
X018058Y009390D03*
X017713Y009510D03*
X017713Y009750D03*
X017563Y009840D03*
X017968Y009750D03*
X018163Y009675D03*
X017278Y009555D03*
X017278Y009540D03*
X016768Y009510D03*
X016558Y009750D03*
X016333Y009675D03*
X016303Y009855D03*
X016228Y009390D03*
X015838Y009300D03*
X015388Y009510D03*
X015193Y009510D03*
X015193Y009750D03*
X015388Y009750D03*
X014938Y009525D03*
X020038Y007005D03*
X020833Y007260D03*
X020833Y007275D03*
X020833Y007290D03*
X021403Y006750D03*
X020338Y006435D03*
X020323Y006420D03*
X020308Y006405D03*
X020293Y006390D03*
X019738Y006390D03*
X021028Y006075D03*
X021688Y006150D03*
X021703Y006165D03*
X023218Y005310D03*
X023233Y005295D03*
X023248Y005280D03*
X023263Y005265D03*
X023548Y005835D03*
X023533Y005850D03*
X023518Y005865D03*
X023503Y005880D03*
X024808Y006360D03*
X024823Y006375D03*
X024838Y006390D03*
X024853Y006405D03*
X024868Y006420D03*
X024988Y006525D03*
X025318Y006015D03*
D25*
X023765Y005115D03*
X020555Y007485D03*
X018320Y007530D03*
X018320Y007545D03*
X020765Y008775D03*
X017645Y009930D03*
D26*
X018028Y009615D03*
X018178Y009840D03*
X018148Y009150D03*
X018178Y009135D03*
X018208Y009120D03*
X016813Y009030D03*
X016783Y009015D03*
X016663Y009435D03*
X016198Y009615D03*
X016663Y009825D03*
X015748Y009225D03*
X014353Y008670D03*
X016618Y007440D03*
X018328Y007425D03*
X021823Y007440D03*
X023773Y005715D03*
X024298Y005235D03*
X023458Y005145D03*
X025063Y006540D03*
X020023Y009435D03*
X020038Y009585D03*
X019978Y009660D03*
X021133Y009915D03*
D27*
X018320Y008775D03*
X017645Y009915D03*
X020405Y008100D03*
X020570Y007530D03*
D28*
X020293Y007410D03*
X020263Y007365D03*
X020128Y007110D03*
X020038Y006975D03*
X020563Y006780D03*
X020578Y006810D03*
X020593Y006840D03*
X020623Y006885D03*
X020638Y006915D03*
X020653Y006945D03*
X020683Y006990D03*
X020518Y006705D03*
X020503Y006675D03*
X020488Y006645D03*
X020473Y006630D03*
X020458Y006600D03*
X020443Y006570D03*
X020428Y006555D03*
X020413Y006540D03*
X020413Y006525D03*
X020398Y006510D03*
X020368Y006465D03*
X020938Y006180D03*
X020953Y006165D03*
X020968Y006135D03*
X020983Y006120D03*
X021253Y005925D03*
X021748Y006225D03*
X021763Y006240D03*
X021778Y006255D03*
X021793Y006285D03*
X021808Y006300D03*
X021838Y006345D03*
X021853Y006360D03*
X021883Y006405D03*
X021898Y006420D03*
X021898Y006435D03*
X021913Y006450D03*
X021928Y006465D03*
X021943Y006495D03*
X021958Y006525D03*
X021973Y006540D03*
X021988Y006570D03*
X022003Y006600D03*
X022018Y006615D03*
X022033Y006645D03*
X022048Y006660D03*
X022048Y006675D03*
X022063Y006690D03*
X022078Y006720D03*
X022213Y006975D03*
X021673Y007110D03*
X021658Y007095D03*
X021658Y007080D03*
X021613Y007020D03*
X021598Y007005D03*
X021568Y006960D03*
X021553Y006945D03*
X021523Y006900D03*
X021508Y006885D03*
X021493Y006855D03*
X021388Y006705D03*
X020848Y007335D03*
X020863Y007365D03*
X020863Y007380D03*
X020848Y007395D03*
X019663Y006480D03*
X019663Y006465D03*
X019678Y006450D03*
X019648Y006495D03*
X023038Y005550D03*
X023053Y005535D03*
X023053Y005520D03*
X023068Y005505D03*
X023098Y005460D03*
X023113Y005445D03*
X023143Y005400D03*
X023158Y005385D03*
X023473Y005925D03*
X025093Y006645D03*
X025183Y006480D03*
X025198Y006450D03*
X025213Y006420D03*
X025288Y006285D03*
X025303Y006255D03*
X025318Y006225D03*
X019228Y008985D03*
X019213Y009015D03*
X019153Y009120D03*
X019138Y009135D03*
X018418Y009360D03*
X018418Y009375D03*
X018418Y009390D03*
X018418Y009540D03*
X018418Y009555D03*
X018418Y009570D03*
X018418Y009585D03*
X018418Y009600D03*
X018418Y009615D03*
X018418Y009630D03*
X018418Y009645D03*
X018193Y009705D03*
X018193Y009720D03*
X018193Y009735D03*
X018178Y009540D03*
X018178Y009525D03*
X017953Y009525D03*
X017953Y009540D03*
X017953Y009555D03*
X017953Y009675D03*
X017953Y009690D03*
X017953Y009705D03*
X017953Y009720D03*
X017938Y009840D03*
X017728Y009690D03*
X017728Y009675D03*
X017728Y009660D03*
X017728Y009645D03*
X017728Y009630D03*
X017728Y009615D03*
X017728Y009600D03*
X017728Y009585D03*
X017728Y009570D03*
X017728Y009405D03*
X017728Y009390D03*
X017728Y009375D03*
X017728Y009360D03*
X017728Y009345D03*
X017728Y009330D03*
X017728Y009315D03*
X017728Y009300D03*
X017728Y009285D03*
X017563Y009405D03*
X017488Y009555D03*
X017488Y009570D03*
X017488Y009585D03*
X017488Y009600D03*
X017488Y009615D03*
X017488Y009630D03*
X017488Y009645D03*
X017488Y009660D03*
X017488Y009675D03*
X017488Y009690D03*
X017488Y009705D03*
X017293Y009705D03*
X017293Y009690D03*
X017293Y009675D03*
X017293Y009660D03*
X017293Y009720D03*
X017293Y009735D03*
X017293Y009750D03*
X017293Y009765D03*
X017293Y009780D03*
X017293Y009795D03*
X017293Y009810D03*
X017293Y009825D03*
X016978Y009705D03*
X016978Y009690D03*
X016978Y009675D03*
X016978Y009660D03*
X016978Y009645D03*
X016978Y009630D03*
X016978Y009615D03*
X016978Y009600D03*
X016978Y009585D03*
X016978Y009570D03*
X016978Y009555D03*
X016978Y009540D03*
X016978Y009525D03*
X016978Y009510D03*
X016978Y009495D03*
X016978Y009480D03*
X016978Y009465D03*
X016978Y009450D03*
X016978Y009435D03*
X016978Y009420D03*
X016978Y009405D03*
X016978Y009345D03*
X016978Y009330D03*
X016978Y009315D03*
X016978Y009300D03*
X016978Y009285D03*
X016978Y009270D03*
X016978Y009255D03*
X016978Y009240D03*
X016663Y009390D03*
X016783Y009540D03*
X016798Y009570D03*
X016798Y009585D03*
X016798Y009600D03*
X016798Y009615D03*
X016798Y009630D03*
X016798Y009645D03*
X016363Y009705D03*
X016363Y009720D03*
X016363Y009735D03*
X016348Y009525D03*
X016123Y009525D03*
X016123Y009540D03*
X016123Y009555D03*
X016123Y009675D03*
X016123Y009690D03*
X016123Y009705D03*
X016123Y009720D03*
X016108Y009840D03*
X015883Y009735D03*
X015883Y009720D03*
X015883Y009705D03*
X015883Y009690D03*
X015883Y009675D03*
X015883Y009660D03*
X015883Y009645D03*
X015883Y009630D03*
X015883Y009615D03*
X015883Y009600D03*
X015883Y009585D03*
X015883Y009570D03*
X015883Y009555D03*
X015883Y009540D03*
X015883Y009390D03*
X015883Y009375D03*
X015883Y009360D03*
X015883Y009345D03*
X015883Y009330D03*
X015883Y009315D03*
X015418Y009570D03*
X015418Y009585D03*
X015418Y009600D03*
X015418Y009615D03*
X015418Y009630D03*
X015418Y009645D03*
X015418Y009660D03*
X015418Y009675D03*
X015418Y009690D03*
X015163Y009690D03*
X015163Y009675D03*
X015163Y009660D03*
X015163Y009645D03*
X015163Y009630D03*
X015163Y009615D03*
X015163Y009600D03*
X015163Y009585D03*
X015163Y009570D03*
X014953Y009570D03*
X014953Y009585D03*
X014953Y009600D03*
X014953Y009615D03*
X014953Y009630D03*
X014953Y009645D03*
X014953Y009660D03*
X014953Y009675D03*
X014953Y009690D03*
X014953Y009705D03*
X014953Y009720D03*
X014953Y009735D03*
X014953Y009750D03*
X014953Y009765D03*
X014953Y009780D03*
X014953Y009795D03*
X014953Y009810D03*
X014953Y009825D03*
X014953Y009840D03*
X014953Y009855D03*
X014728Y009855D03*
X014728Y009840D03*
X014728Y009825D03*
X014728Y009810D03*
X014728Y009795D03*
X014728Y009780D03*
X014728Y009765D03*
X014728Y009750D03*
X014728Y009735D03*
X014728Y009720D03*
X014728Y009705D03*
X014728Y009690D03*
X014728Y009675D03*
X014728Y009660D03*
X014728Y009645D03*
X014728Y009630D03*
X014728Y009615D03*
X014728Y009600D03*
X014728Y009585D03*
X014728Y009570D03*
X014728Y009555D03*
X015823Y009870D03*
X016663Y009870D03*
X017293Y009405D03*
X018418Y009840D03*
X018418Y009855D03*
X018838Y009855D03*
X018838Y009840D03*
X018838Y009825D03*
X018838Y009810D03*
X018838Y009795D03*
X018838Y009780D03*
X018838Y009765D03*
X018838Y009750D03*
X018838Y009735D03*
X018838Y009720D03*
X018838Y009705D03*
X018838Y009690D03*
X018838Y009675D03*
X018838Y009660D03*
X018838Y009645D03*
X018838Y009630D03*
X018838Y009600D03*
X018838Y009585D03*
X018838Y009570D03*
X018838Y009555D03*
X018673Y009600D03*
X019063Y009600D03*
X019063Y009585D03*
X019063Y009570D03*
X019063Y009615D03*
X019063Y009630D03*
X019063Y009645D03*
X019063Y009660D03*
X019063Y009675D03*
X019063Y009690D03*
X019063Y009705D03*
X019063Y009720D03*
X019063Y009735D03*
X019063Y009750D03*
X019063Y009765D03*
X019063Y009780D03*
X019063Y009795D03*
X019063Y009810D03*
X019063Y009825D03*
X019063Y009840D03*
X019063Y009855D03*
X019273Y009855D03*
X019273Y009840D03*
X019273Y009825D03*
X019273Y009870D03*
X019273Y009885D03*
X019273Y009900D03*
X019438Y009825D03*
X019513Y009675D03*
X019513Y009660D03*
X019513Y009645D03*
X019513Y009630D03*
X019513Y009615D03*
X019513Y009600D03*
X019513Y009585D03*
X019513Y009570D03*
X019513Y009555D03*
X019273Y009555D03*
X019273Y009570D03*
X019273Y009585D03*
X019273Y009600D03*
X019273Y009615D03*
X019273Y009630D03*
X019273Y009645D03*
X019273Y009660D03*
X019273Y009675D03*
X019903Y009720D03*
X019903Y009765D03*
X019918Y009780D03*
X020128Y009750D03*
X020128Y009525D03*
X020128Y009510D03*
X020113Y009480D03*
X019918Y009495D03*
X020308Y009540D03*
X020308Y009555D03*
X020308Y009570D03*
X020548Y009525D03*
X020563Y009555D03*
X020563Y009570D03*
X020563Y009675D03*
X020563Y009690D03*
X020563Y009705D03*
X020548Y009735D03*
X020428Y009870D03*
X020773Y009690D03*
X020773Y009675D03*
X020773Y009660D03*
X020773Y009645D03*
X020773Y009630D03*
X020773Y009615D03*
X020773Y009600D03*
X020773Y009585D03*
X020773Y009570D03*
X020773Y009390D03*
X020773Y009375D03*
X020773Y009360D03*
X020773Y009345D03*
X020773Y009330D03*
X021013Y009555D03*
X021013Y009570D03*
X021013Y009585D03*
X021013Y009600D03*
X021013Y009615D03*
X021013Y009630D03*
X021013Y009645D03*
X021013Y009660D03*
X021013Y009675D03*
X021013Y009690D03*
X020998Y009720D03*
X020998Y009735D03*
X022708Y009510D03*
X022723Y009525D03*
X023188Y009525D03*
D29*
X020570Y007560D03*
X017615Y009900D03*
D30*
X017630Y009825D03*
X017630Y009435D03*
X018065Y009465D03*
X018515Y009660D03*
X018515Y009675D03*
X019370Y009795D03*
X019370Y009435D03*
X020015Y009465D03*
X020435Y009480D03*
X020870Y009435D03*
X020435Y009780D03*
X020435Y009795D03*
X020870Y009810D03*
X020870Y009825D03*
X021155Y009885D03*
X020915Y007890D03*
X017015Y009105D03*
X016970Y009090D03*
X016235Y009465D03*
X016445Y009540D03*
X015710Y009270D03*
X015710Y009195D03*
X015290Y009480D03*
X015290Y009765D03*
X015290Y009780D03*
X015335Y008955D03*
X014990Y008535D03*
X014375Y007995D03*
D31*
X016573Y009555D03*
X017563Y009390D03*
X018568Y009255D03*
X018568Y009240D03*
X018568Y009225D03*
X018583Y009300D03*
X018583Y009315D03*
X018583Y009330D03*
X018583Y009345D03*
X018598Y009375D03*
X018598Y009390D03*
X018598Y009405D03*
X018598Y009420D03*
X018613Y009465D03*
X018613Y009480D03*
X018613Y009495D03*
X018613Y009510D03*
X018628Y009540D03*
X018628Y009555D03*
X018658Y009735D03*
X018658Y009750D03*
X018673Y009780D03*
X018673Y009795D03*
X018673Y009810D03*
X018673Y009825D03*
X018673Y009840D03*
X018688Y009855D03*
X018688Y009870D03*
X019438Y009840D03*
X019543Y009885D03*
X020098Y009735D03*
X020908Y009330D03*
X020878Y009225D03*
X020863Y009195D03*
X020863Y009180D03*
X021493Y009180D03*
X021493Y009165D03*
X021493Y009150D03*
X021493Y009135D03*
X021493Y009120D03*
X021493Y009105D03*
X021493Y009090D03*
X021493Y009075D03*
X021493Y009060D03*
X021493Y009045D03*
X021493Y009030D03*
X021493Y009015D03*
X021493Y009000D03*
X021493Y008985D03*
X021493Y009525D03*
X021493Y009540D03*
X021493Y009555D03*
X021493Y009570D03*
X021493Y009585D03*
X021493Y009600D03*
X021493Y009615D03*
X021493Y009630D03*
X021493Y009645D03*
X021493Y009660D03*
X023248Y009345D03*
X023248Y009330D03*
X023248Y009315D03*
X023248Y009300D03*
X023248Y009285D03*
X023248Y009270D03*
X023248Y009255D03*
X023248Y009240D03*
X023248Y009225D03*
X023248Y009210D03*
X023248Y009195D03*
X023233Y009090D03*
X023233Y009075D03*
X023233Y009060D03*
X023233Y009045D03*
X023233Y009030D03*
X023233Y009015D03*
X023233Y009000D03*
X023233Y008985D03*
X023233Y008970D03*
X022018Y007890D03*
X021418Y007680D03*
X021418Y007665D03*
X021418Y007650D03*
X021403Y007545D03*
X021403Y007530D03*
X021403Y007515D03*
X021403Y007500D03*
X021388Y007395D03*
X021388Y007380D03*
X021388Y007365D03*
X021388Y007350D03*
X021373Y007245D03*
X021373Y007230D03*
X021373Y007215D03*
X021373Y007200D03*
X021358Y007095D03*
X021358Y007080D03*
X021358Y007065D03*
X021358Y007050D03*
X021358Y007035D03*
X021358Y007020D03*
X021358Y007005D03*
X021358Y006990D03*
X021358Y006975D03*
X021358Y006960D03*
X021358Y006945D03*
X021358Y006930D03*
X021358Y006915D03*
X021358Y006900D03*
X021358Y006885D03*
X021358Y006870D03*
X021358Y006855D03*
X020863Y006855D03*
X020863Y006840D03*
X020863Y006825D03*
X020863Y006810D03*
X020863Y006795D03*
X020863Y006780D03*
X020863Y006765D03*
X020863Y006750D03*
X020863Y006735D03*
X020863Y006720D03*
X020863Y006705D03*
X020863Y006690D03*
X020863Y006675D03*
X020863Y006660D03*
X020863Y006645D03*
X020863Y006630D03*
X020863Y006615D03*
X020863Y006600D03*
X020863Y006585D03*
X020863Y006570D03*
X020863Y006555D03*
X020863Y006540D03*
X020863Y006525D03*
X020863Y006510D03*
X020863Y006495D03*
X020863Y006480D03*
X020863Y006465D03*
X020863Y006450D03*
X020863Y006435D03*
X020863Y006870D03*
X020863Y006885D03*
X020863Y006900D03*
X020863Y006915D03*
X020863Y006930D03*
X020863Y006945D03*
X020863Y006960D03*
X020863Y006975D03*
X020863Y006990D03*
X020863Y007005D03*
X020863Y007020D03*
X020863Y007035D03*
X020863Y007050D03*
X020863Y007065D03*
X020863Y007080D03*
X020863Y007095D03*
X020863Y007110D03*
X020863Y007125D03*
X019483Y006855D03*
X019483Y006840D03*
X019168Y007755D03*
X019168Y007770D03*
X019153Y007785D03*
X019138Y007815D03*
X019108Y007905D03*
X019108Y007920D03*
X019108Y007935D03*
X022423Y007410D03*
X022723Y007320D03*
X022723Y007305D03*
X022723Y007290D03*
X022723Y007275D03*
X022723Y007260D03*
X022723Y007245D03*
X022723Y007230D03*
X022723Y007215D03*
X022723Y007200D03*
X022723Y007185D03*
X022723Y007170D03*
X022738Y007065D03*
X022738Y007050D03*
X022738Y007035D03*
X022738Y007020D03*
X022738Y007005D03*
X022738Y006990D03*
X022738Y006975D03*
X022738Y006960D03*
X022738Y006945D03*
X022738Y006930D03*
X022753Y006825D03*
X022753Y006810D03*
X022753Y006795D03*
X022753Y006780D03*
X022768Y006675D03*
X022768Y006660D03*
X022768Y006645D03*
X022768Y006630D03*
X022783Y006525D03*
X022783Y006510D03*
X022783Y006495D03*
X022783Y006480D03*
X022798Y006375D03*
X023263Y006615D03*
X023263Y006630D03*
X023263Y006645D03*
X023263Y006660D03*
X023263Y006675D03*
X023263Y006690D03*
X023248Y006795D03*
X023248Y006810D03*
X023248Y006825D03*
X023248Y006840D03*
X023248Y006855D03*
X023248Y006870D03*
X023248Y006885D03*
X023233Y006990D03*
X023233Y007005D03*
X023233Y007020D03*
X023233Y007035D03*
X023233Y007050D03*
X023233Y007065D03*
X023233Y007080D03*
X023233Y007095D03*
X023233Y007110D03*
X023218Y007215D03*
X023218Y007230D03*
X023218Y007245D03*
X023218Y007260D03*
X023218Y007275D03*
X023218Y007290D03*
X023218Y007305D03*
X023218Y007320D03*
X023218Y007335D03*
X023218Y007350D03*
X023218Y007365D03*
X023218Y007380D03*
X023218Y007395D03*
X025363Y006105D03*
X025363Y006090D03*
D32*
X020465Y008130D03*
X018305Y007680D03*
X018305Y008700D03*
X017585Y009885D03*
X015335Y008745D03*
X015335Y007680D03*
X015335Y007665D03*
D33*
X015035Y008520D03*
X016040Y008640D03*
X016400Y009555D03*
X016445Y009585D03*
X016670Y009855D03*
X015845Y009795D03*
X015845Y009780D03*
X015845Y009765D03*
X017975Y009240D03*
X018365Y009270D03*
X018365Y009285D03*
X018380Y009315D03*
X018380Y009330D03*
X020015Y009405D03*
X020435Y009855D03*
X020975Y009855D03*
X021245Y009870D03*
X021260Y009855D03*
X021290Y009840D03*
X021305Y009825D03*
X021335Y009810D03*
X021350Y009795D03*
X021380Y009780D03*
X021395Y009765D03*
X021425Y009750D03*
X022910Y009705D03*
X023135Y009570D03*
X020870Y007905D03*
X020795Y007140D03*
X021425Y006825D03*
X021425Y006810D03*
X020210Y006330D03*
X019790Y006345D03*
X020045Y007035D03*
X021590Y006075D03*
X021605Y006090D03*
X023345Y005205D03*
X023600Y005805D03*
X024335Y006000D03*
X024665Y005460D03*
X024650Y005445D03*
X024605Y005415D03*
X024575Y005400D03*
X024560Y005385D03*
X024530Y005370D03*
X024515Y005355D03*
X024485Y005340D03*
X024470Y005325D03*
D34*
X018320Y008580D03*
X017600Y009870D03*
D35*
X017143Y009405D03*
X016303Y009870D03*
X018973Y009360D03*
X019438Y009390D03*
X019243Y008940D03*
X019063Y008100D03*
X019063Y008085D03*
X019063Y008070D03*
X019078Y008055D03*
X019078Y008040D03*
X019093Y008010D03*
X019093Y007995D03*
X019108Y007965D03*
X019738Y007770D03*
X019768Y007680D03*
X019768Y007665D03*
X019783Y007635D03*
X019783Y007620D03*
X019783Y007605D03*
X019798Y007590D03*
X019798Y007575D03*
X019798Y007560D03*
X019813Y007545D03*
X019813Y007530D03*
X019813Y007515D03*
X019828Y007500D03*
X019828Y007485D03*
X019828Y007470D03*
X019843Y007455D03*
X019843Y007440D03*
X019843Y007425D03*
X019858Y007410D03*
X019858Y007395D03*
X019858Y007380D03*
X019873Y007365D03*
X019873Y007350D03*
X019873Y007335D03*
X019888Y007320D03*
X019888Y007305D03*
X019903Y007275D03*
X019903Y007260D03*
X019918Y007230D03*
X019918Y007215D03*
X019933Y007200D03*
X019933Y007185D03*
X019948Y007155D03*
X019948Y007140D03*
X019963Y007110D03*
X019513Y006780D03*
X019513Y006765D03*
X019528Y006735D03*
X019498Y006795D03*
X020728Y007080D03*
X020728Y007095D03*
X020743Y007125D03*
X020848Y007425D03*
X020818Y007920D03*
X021793Y007380D03*
X021793Y007365D03*
X021763Y007290D03*
X021748Y007260D03*
X021733Y007230D03*
X021703Y007155D03*
X022258Y007065D03*
X022378Y007320D03*
X022393Y007350D03*
X022408Y007365D03*
X022723Y007395D03*
X022063Y007995D03*
X022078Y008025D03*
X022093Y008055D03*
X022108Y008085D03*
X022108Y008100D03*
X022123Y008115D03*
X022123Y008130D03*
X022483Y008955D03*
X022483Y008970D03*
X022483Y008985D03*
X022483Y009000D03*
X022498Y009030D03*
X022513Y009060D03*
X022513Y009075D03*
X022528Y009105D03*
X022543Y009135D03*
X022543Y009150D03*
X022558Y009180D03*
X022573Y009210D03*
X022573Y009225D03*
X022588Y009255D03*
X022603Y009285D03*
X022603Y009300D03*
X022618Y009330D03*
X022633Y009360D03*
X023218Y009465D03*
X023218Y009480D03*
X023233Y009435D03*
X023233Y009420D03*
X023233Y009405D03*
X021478Y009480D03*
X021478Y009270D03*
X021478Y009255D03*
X021478Y009240D03*
X021478Y009225D03*
X021478Y009210D03*
X021478Y009195D03*
X021478Y009675D03*
X025093Y006660D03*
X025348Y006165D03*
X025348Y006150D03*
X025348Y006060D03*
X023443Y005985D03*
X023443Y005970D03*
X023428Y006000D03*
X023428Y006015D03*
X023413Y006045D03*
X023398Y006090D03*
X023383Y006120D03*
X023383Y006135D03*
X023368Y006165D03*
X023368Y006180D03*
X023353Y006225D03*
X023353Y006240D03*
X023338Y006285D03*
X023338Y006300D03*
X023323Y006345D03*
X023323Y006360D03*
X023308Y006405D03*
X023308Y006420D03*
X023293Y006465D03*
X023293Y006480D03*
X023278Y006525D03*
X023278Y006540D03*
X022858Y006045D03*
X022858Y006030D03*
X022858Y006015D03*
X022873Y006000D03*
X022873Y005985D03*
X022873Y005970D03*
X022888Y005955D03*
X022888Y005940D03*
X022888Y005925D03*
X022903Y005910D03*
X022903Y005895D03*
X022903Y005880D03*
X022918Y005865D03*
X022918Y005850D03*
X022918Y005835D03*
X022933Y005820D03*
X022933Y005805D03*
X022933Y005790D03*
X022948Y005775D03*
X022948Y005760D03*
X022963Y005730D03*
X022963Y005715D03*
X022978Y005685D03*
X022993Y005655D03*
X022993Y005640D03*
X023008Y005610D03*
X023023Y005580D03*
X020908Y006240D03*
X020908Y006255D03*
X020893Y006285D03*
X020893Y006300D03*
X020878Y006345D03*
X020878Y006360D03*
D36*
X020915Y006225D03*
X020930Y006210D03*
X020930Y006195D03*
X020450Y006585D03*
X020465Y006615D03*
X020495Y006660D03*
X020510Y006690D03*
X020525Y006720D03*
X020540Y006735D03*
X020540Y006750D03*
X020555Y006765D03*
X020570Y006795D03*
X020585Y006825D03*
X020600Y006855D03*
X020615Y006870D03*
X020630Y006900D03*
X020645Y006930D03*
X020660Y006960D03*
X020675Y006975D03*
X020690Y007005D03*
X020690Y007020D03*
X020705Y007035D03*
X020705Y007050D03*
X020720Y007065D03*
X020735Y007110D03*
X020855Y007410D03*
X020270Y007380D03*
X020255Y007350D03*
X020240Y007335D03*
X020240Y007320D03*
X020225Y007305D03*
X020225Y007290D03*
X020210Y007275D03*
X020210Y007260D03*
X020195Y007245D03*
X020195Y007230D03*
X020180Y007215D03*
X020180Y007200D03*
X020165Y007185D03*
X020165Y007170D03*
X020150Y007155D03*
X020150Y007140D03*
X020135Y007125D03*
X019955Y007125D03*
X019940Y007170D03*
X019910Y007245D03*
X019895Y007290D03*
X020030Y006960D03*
X020030Y006945D03*
X020030Y006930D03*
X020030Y006915D03*
X020030Y006900D03*
X020030Y006885D03*
X019565Y006660D03*
X019565Y006645D03*
X019580Y006630D03*
X019580Y006615D03*
X019595Y006600D03*
X019595Y006585D03*
X019610Y006570D03*
X019610Y006555D03*
X019625Y006540D03*
X019625Y006525D03*
X019640Y006510D03*
X019550Y006675D03*
X019550Y006690D03*
X019535Y006705D03*
X019535Y006720D03*
X019520Y006750D03*
X021380Y006690D03*
X021380Y006675D03*
X021935Y006480D03*
X021950Y006510D03*
X021980Y006555D03*
X021995Y006585D03*
X022025Y006630D03*
X022070Y006705D03*
X022085Y006735D03*
X022100Y006750D03*
X022100Y006765D03*
X022115Y006780D03*
X022115Y006795D03*
X022130Y006810D03*
X022130Y006825D03*
X022145Y006840D03*
X022145Y006855D03*
X022160Y006870D03*
X022160Y006885D03*
X022175Y006900D03*
X022175Y006915D03*
X022190Y006930D03*
X022190Y006945D03*
X022205Y006960D03*
X022220Y006990D03*
X022220Y007005D03*
X022235Y007020D03*
X022235Y007035D03*
X022250Y007050D03*
X022265Y007080D03*
X022265Y007095D03*
X022280Y007110D03*
X022280Y007125D03*
X022295Y007140D03*
X022295Y007155D03*
X022310Y007170D03*
X022310Y007185D03*
X022325Y007200D03*
X022325Y007215D03*
X022340Y007230D03*
X022340Y007245D03*
X022355Y007260D03*
X022355Y007275D03*
X022370Y007290D03*
X022370Y007305D03*
X022385Y007335D03*
X021785Y007335D03*
X021785Y007350D03*
X021770Y007320D03*
X021770Y007305D03*
X021755Y007275D03*
X021740Y007245D03*
X021725Y007215D03*
X021725Y007200D03*
X021710Y007185D03*
X021710Y007170D03*
X021695Y007140D03*
X021680Y007125D03*
X023390Y006105D03*
X023405Y006075D03*
X023405Y006060D03*
X023420Y006030D03*
X023450Y005955D03*
X023465Y005940D03*
X022955Y005745D03*
X022970Y005700D03*
X022985Y005670D03*
X023000Y005625D03*
X023015Y005595D03*
X023030Y005565D03*
X025160Y006510D03*
X025160Y006525D03*
X025175Y006495D03*
X025190Y006465D03*
X025205Y006435D03*
X025220Y006405D03*
X025235Y006390D03*
X025235Y006375D03*
X025250Y006360D03*
X025250Y006345D03*
X025265Y006330D03*
X025265Y006315D03*
X025280Y006300D03*
X025295Y006270D03*
X025310Y006240D03*
X025325Y006210D03*
X025340Y006195D03*
X025340Y006180D03*
X025340Y006045D03*
X022490Y009015D03*
X022505Y009045D03*
X022520Y009090D03*
X022535Y009120D03*
X022550Y009165D03*
X022565Y009195D03*
X022580Y009240D03*
X022595Y009270D03*
X022610Y009315D03*
X022625Y009345D03*
X022640Y009375D03*
X022640Y009390D03*
X022655Y009405D03*
X022655Y009420D03*
X022670Y009435D03*
X022670Y009450D03*
X022685Y009465D03*
X022685Y009480D03*
X022700Y009495D03*
X022895Y009735D03*
X021470Y009690D03*
X020765Y009840D03*
X020765Y009855D03*
X020435Y009390D03*
X020120Y009495D03*
X019895Y009735D03*
X019895Y009750D03*
X019265Y009420D03*
X019265Y009405D03*
X019070Y009405D03*
X019070Y009420D03*
X019160Y009105D03*
X019175Y009090D03*
X019175Y009075D03*
X019190Y009060D03*
X019190Y009045D03*
X019205Y009030D03*
X019220Y009000D03*
X019235Y008970D03*
X019235Y008955D03*
X018650Y009585D03*
X017735Y009840D03*
X016100Y009855D03*
X015290Y009870D03*
X015290Y009390D03*
X014960Y009405D03*
X014960Y009420D03*
X014855Y008865D03*
X019085Y008025D03*
X019100Y007980D03*
D37*
X017563Y009855D03*
X015343Y008175D03*
X015343Y008160D03*
X015343Y008145D03*
X015343Y008130D03*
X015343Y008115D03*
D38*
X016025Y008625D03*
X015260Y008985D03*
X015815Y009285D03*
X015290Y009405D03*
X014780Y009420D03*
X015290Y009855D03*
X015830Y009855D03*
X015830Y009840D03*
X016145Y009750D03*
X016145Y009585D03*
X016430Y009570D03*
X017270Y009525D03*
X017705Y009270D03*
X017975Y009585D03*
X018350Y009240D03*
X018650Y009630D03*
X018890Y009420D03*
X019445Y009420D03*
X023150Y009555D03*
X021845Y007425D03*
X020825Y007245D03*
X020825Y007230D03*
X021410Y006780D03*
X021410Y006765D03*
X021665Y006135D03*
X021050Y006060D03*
X020285Y006375D03*
X020255Y006360D03*
X019745Y006375D03*
X023285Y005250D03*
X023300Y005235D03*
X023570Y005820D03*
X024440Y006075D03*
X024500Y006120D03*
X024755Y006315D03*
X024770Y006330D03*
X024785Y006345D03*
X024890Y006435D03*
X024905Y006450D03*
X024920Y006465D03*
X024935Y006480D03*
X024950Y006495D03*
X024965Y006510D03*
X025085Y006615D03*
X025310Y006000D03*
X025295Y005985D03*
X025280Y005970D03*
X025265Y005955D03*
X025235Y005940D03*
X025220Y005925D03*
X025205Y005910D03*
X025190Y005895D03*
X025175Y005880D03*
X025130Y005850D03*
X025115Y005835D03*
X025100Y005820D03*
X025085Y005805D03*
X025070Y005790D03*
X025040Y005775D03*
X025025Y005760D03*
X025010Y005745D03*
X024995Y005730D03*
X024980Y005715D03*
X024965Y005700D03*
X024935Y005685D03*
X024920Y005670D03*
X024905Y005655D03*
X024890Y005640D03*
X024875Y005625D03*
X024860Y005610D03*
X024830Y005595D03*
X024815Y005580D03*
X024800Y005565D03*
X024785Y005550D03*
X024770Y005535D03*
X024755Y005520D03*
X024725Y005505D03*
D39*
X019700Y007290D03*
X022670Y008010D03*
X022685Y008055D03*
X022700Y008085D03*
X022700Y008100D03*
X021290Y008910D03*
X021290Y008925D03*
X021425Y009135D03*
X021425Y009150D03*
X021425Y009165D03*
X021425Y009180D03*
X022760Y009210D03*
X022760Y009225D03*
X021095Y009840D03*
X018215Y009195D03*
X017165Y009690D03*
X017090Y009315D03*
D40*
X017240Y009510D03*
X018065Y009405D03*
X018410Y009405D03*
X018410Y009420D03*
X018410Y009435D03*
X018410Y009450D03*
X018410Y009465D03*
X018410Y009480D03*
X018410Y009495D03*
X018410Y009510D03*
X018410Y009525D03*
X018290Y009075D03*
X016685Y008970D03*
X016655Y008955D03*
X016235Y009405D03*
X016460Y009600D03*
X016490Y009615D03*
X015290Y009420D03*
X015290Y009840D03*
X019955Y009675D03*
X020060Y009570D03*
X020435Y009420D03*
X020825Y009315D03*
X020825Y009285D03*
X020825Y009270D03*
X020435Y009840D03*
X023120Y009585D03*
X020045Y007065D03*
X020045Y007050D03*
X019820Y006330D03*
X020030Y006225D03*
X021095Y006030D03*
X021560Y006060D03*
X023390Y005175D03*
X024155Y005895D03*
X024260Y005955D03*
X025070Y006570D03*
D41*
X023180Y008025D03*
X023180Y008040D03*
X023180Y008055D03*
X023180Y008070D03*
X023180Y008085D03*
X023180Y008100D03*
X023180Y008115D03*
X023180Y008130D03*
X023180Y008145D03*
X023180Y008160D03*
X023180Y008175D03*
X023180Y008190D03*
X023180Y008205D03*
X023180Y008220D03*
X023180Y008235D03*
X023180Y008250D03*
X023180Y008265D03*
X023180Y008280D03*
X023180Y008295D03*
X023180Y008310D03*
X023180Y008325D03*
X023180Y008340D03*
X023180Y008355D03*
X023180Y008370D03*
X023180Y008385D03*
X023180Y008400D03*
X023180Y008415D03*
X023180Y008430D03*
X023180Y008445D03*
X023180Y008460D03*
X023180Y008475D03*
X023180Y008490D03*
X023180Y008505D03*
X023180Y008520D03*
X023180Y008535D03*
X023180Y008550D03*
X023180Y008565D03*
X023180Y008580D03*
X023180Y008595D03*
X023180Y008610D03*
X023180Y008625D03*
X023180Y008640D03*
X023180Y008655D03*
X023180Y008670D03*
X023180Y008685D03*
X023180Y008700D03*
X023180Y008715D03*
X023180Y008730D03*
X023180Y008745D03*
X023180Y008760D03*
X023180Y008775D03*
X023180Y008790D03*
X023180Y008805D03*
X023180Y008820D03*
X023180Y008835D03*
X023180Y008850D03*
X023180Y008865D03*
X023180Y008880D03*
X023180Y008895D03*
X023180Y008910D03*
X023180Y008925D03*
X021650Y008835D03*
X021650Y008820D03*
X021650Y008805D03*
X021650Y008790D03*
X021650Y008775D03*
X021650Y008760D03*
X021650Y008745D03*
X021650Y008730D03*
X021650Y008715D03*
X021650Y008700D03*
X021650Y008685D03*
X021650Y008670D03*
X021650Y008655D03*
X021650Y008640D03*
X021650Y008625D03*
X021650Y008610D03*
X021650Y008595D03*
X021650Y008565D03*
X021650Y008550D03*
X021650Y008535D03*
X021650Y008520D03*
X021650Y008505D03*
X021650Y008490D03*
X021650Y008475D03*
X021650Y008460D03*
X021650Y008445D03*
X021650Y008430D03*
X020945Y008325D03*
X020945Y007815D03*
X020210Y007770D03*
X018725Y007935D03*
X018725Y007950D03*
X017915Y007950D03*
X017915Y007935D03*
X017915Y007965D03*
X017900Y007980D03*
X017900Y007995D03*
X017900Y008010D03*
X017900Y008025D03*
X017900Y008370D03*
X017900Y008385D03*
X017915Y008430D03*
X017930Y008460D03*
X017930Y008475D03*
X017945Y008490D03*
X017945Y008505D03*
X017225Y008205D03*
X017225Y008190D03*
X017225Y008175D03*
X017225Y008160D03*
X017225Y008145D03*
X017225Y008130D03*
X017225Y008115D03*
X017225Y008100D03*
X017225Y008085D03*
X017225Y008070D03*
X017225Y008055D03*
X017225Y008040D03*
X016460Y007950D03*
X016460Y007935D03*
X015695Y007800D03*
X014990Y007800D03*
X015755Y008400D03*
X015725Y008550D03*
X014945Y008550D03*
X014945Y008565D03*
X016460Y008910D03*
X017135Y009840D03*
X018350Y008925D03*
X018725Y008490D03*
X019430Y008925D03*
X020180Y008505D03*
X020180Y008490D03*
X022415Y008070D03*
X022415Y008055D03*
X022415Y008040D03*
X022415Y008025D03*
X020015Y006270D03*
X021290Y005970D03*
D42*
X021298Y006015D03*
X021838Y007575D03*
X022408Y007875D03*
X022588Y007560D03*
X018328Y008895D03*
X018178Y009825D03*
X016828Y009810D03*
X015688Y008325D03*
D43*
X017113Y009135D03*
X016678Y009675D03*
X016243Y009765D03*
X016243Y009780D03*
X016243Y009795D03*
X016228Y009825D03*
X021028Y008580D03*
X021028Y008565D03*
X021028Y008475D03*
X021028Y008460D03*
X021013Y008430D03*
X022573Y007455D03*
D44*
X022595Y007545D03*
X021830Y007560D03*
X020840Y008265D03*
X020255Y008010D03*
X020255Y008640D03*
X020780Y008865D03*
X018185Y009765D03*
X018185Y009780D03*
X018185Y009795D03*
X018185Y009810D03*
X016370Y008730D03*
X015755Y008595D03*
X015335Y008925D03*
X016610Y007560D03*
D45*
X018320Y007440D03*
X021035Y008490D03*
X021035Y008505D03*
X021035Y008520D03*
X021035Y008535D03*
X021035Y008550D03*
X020885Y009480D03*
X020885Y009495D03*
X020435Y009495D03*
X020435Y009765D03*
X020885Y009765D03*
X019385Y009750D03*
X019385Y009735D03*
X019385Y009495D03*
X019385Y009480D03*
X019385Y009465D03*
X018950Y009480D03*
X018950Y009495D03*
X018950Y009510D03*
X018065Y009495D03*
X017615Y009495D03*
X017615Y009480D03*
X017615Y009765D03*
X017615Y009780D03*
X018065Y009660D03*
X016865Y009750D03*
X016235Y009810D03*
X016235Y009660D03*
X016235Y009495D03*
X017060Y009120D03*
X014840Y009480D03*
X014840Y009495D03*
X014840Y009510D03*
X021290Y005955D03*
X023765Y005730D03*
X022565Y007425D03*
X022565Y007440D03*
D46*
X022415Y007890D03*
X022415Y007905D03*
X020780Y008880D03*
X020240Y008625D03*
X020240Y007995D03*
X017510Y009225D03*
X016760Y009720D03*
X016760Y009735D03*
X016790Y009795D03*
X016385Y008745D03*
X016610Y007545D03*
X021290Y006000D03*
D47*
X023788Y005790D03*
X022588Y007530D03*
X022363Y008160D03*
X020863Y008280D03*
X018823Y008145D03*
X018823Y008130D03*
X018823Y008115D03*
X017998Y007815D03*
X015718Y008355D03*
X015748Y008580D03*
X016768Y009765D03*
X016768Y009780D03*
D48*
X017150Y009390D03*
X018155Y009555D03*
X018605Y009450D03*
X018605Y009435D03*
X018590Y009360D03*
X018575Y009285D03*
X018575Y009270D03*
X018980Y009375D03*
X018620Y009525D03*
X018665Y009765D03*
X019940Y009510D03*
X020915Y009375D03*
X020915Y009360D03*
X020810Y008970D03*
X022010Y007875D03*
X023225Y007425D03*
X023225Y007410D03*
X023240Y008955D03*
X019145Y007800D03*
X019130Y007830D03*
X019130Y007845D03*
X019115Y007860D03*
X019115Y007875D03*
X019115Y007890D03*
D49*
X019700Y007950D03*
X019700Y007965D03*
X019700Y007980D03*
X018980Y009390D03*
X015755Y009750D03*
X014225Y008655D03*
X014225Y008640D03*
X014225Y008625D03*
X014225Y008610D03*
X014225Y008595D03*
X014225Y008580D03*
X014225Y008565D03*
X014225Y008550D03*
X014225Y008535D03*
X014225Y008520D03*
X014225Y008505D03*
X014225Y008490D03*
X014225Y008475D03*
X014225Y008460D03*
X014225Y008445D03*
X014225Y008430D03*
X014225Y008415D03*
X014225Y008400D03*
X014225Y008385D03*
X014225Y008370D03*
X014225Y008355D03*
X014225Y008340D03*
X014225Y008325D03*
X014225Y008310D03*
X014225Y008295D03*
X014225Y008280D03*
X014225Y008265D03*
X014225Y008250D03*
X014225Y008235D03*
X014225Y008220D03*
X014225Y008205D03*
X014225Y008190D03*
X014225Y008175D03*
X014225Y008160D03*
X014225Y008145D03*
X014225Y008130D03*
X014225Y008115D03*
X014225Y008100D03*
X014225Y008085D03*
X014630Y008115D03*
D50*
X015080Y008505D03*
X014780Y009390D03*
X017930Y009255D03*
X018635Y009570D03*
X018890Y009390D03*
X020345Y009720D03*
X020930Y009390D03*
X020915Y009345D03*
X020870Y009210D03*
X020855Y009165D03*
X020855Y009150D03*
X020855Y009135D03*
X020855Y009120D03*
X020840Y009105D03*
X020840Y009090D03*
X020840Y009075D03*
X020825Y009060D03*
X020825Y009045D03*
X020825Y009030D03*
X020825Y009015D03*
X020810Y009000D03*
X020810Y008985D03*
X021485Y008970D03*
X021485Y008955D03*
X021485Y008940D03*
X021485Y009285D03*
X021485Y009300D03*
X021485Y009315D03*
X021485Y009330D03*
X021485Y009345D03*
X021485Y009360D03*
X021485Y009375D03*
X021485Y009390D03*
X021485Y009405D03*
X021485Y009420D03*
X021485Y009435D03*
X021485Y009450D03*
X021485Y009465D03*
X021485Y009495D03*
X021485Y009510D03*
X022475Y008940D03*
X023240Y009105D03*
X023240Y009120D03*
X023240Y009135D03*
X023240Y009150D03*
X023240Y009165D03*
X023240Y009180D03*
X023240Y009360D03*
X023240Y009375D03*
X023240Y009390D03*
X023225Y009450D03*
X023210Y009495D03*
X023210Y009510D03*
X022130Y008145D03*
X022100Y008070D03*
X022085Y008040D03*
X022070Y008010D03*
X022055Y007980D03*
X022055Y007965D03*
X022040Y007950D03*
X022040Y007935D03*
X022025Y007920D03*
X022025Y007905D03*
X021410Y007635D03*
X021410Y007620D03*
X021410Y007605D03*
X021410Y007590D03*
X021410Y007575D03*
X021410Y007560D03*
X021395Y007485D03*
X021395Y007470D03*
X021395Y007455D03*
X021395Y007440D03*
X021395Y007425D03*
X021395Y007410D03*
X021380Y007335D03*
X021380Y007320D03*
X021380Y007305D03*
X021380Y007290D03*
X021380Y007275D03*
X021380Y007260D03*
X021365Y007185D03*
X021365Y007170D03*
X021365Y007155D03*
X021365Y007140D03*
X021365Y007125D03*
X021365Y007110D03*
X021800Y007395D03*
X021800Y007410D03*
X022415Y007395D03*
X022415Y007380D03*
X022715Y007380D03*
X022715Y007365D03*
X022715Y007350D03*
X022715Y007335D03*
X022715Y007410D03*
X022730Y007155D03*
X022730Y007140D03*
X022730Y007125D03*
X022730Y007110D03*
X022730Y007095D03*
X022730Y007080D03*
X022745Y006915D03*
X022745Y006900D03*
X022745Y006885D03*
X022745Y006870D03*
X022745Y006855D03*
X022745Y006840D03*
X022760Y006765D03*
X022760Y006750D03*
X022760Y006735D03*
X022760Y006720D03*
X022760Y006705D03*
X022760Y006690D03*
X022775Y006615D03*
X022775Y006600D03*
X022775Y006585D03*
X022775Y006570D03*
X022775Y006555D03*
X022775Y006540D03*
X022790Y006465D03*
X022790Y006450D03*
X022790Y006435D03*
X022790Y006420D03*
X022790Y006405D03*
X022790Y006390D03*
X022805Y006360D03*
X022805Y006345D03*
X022805Y006330D03*
X022805Y006315D03*
X022805Y006300D03*
X022805Y006285D03*
X022820Y006270D03*
X022820Y006255D03*
X022820Y006240D03*
X022820Y006225D03*
X022820Y006210D03*
X022820Y006195D03*
X022835Y006180D03*
X022835Y006165D03*
X022835Y006150D03*
X022835Y006135D03*
X022835Y006120D03*
X022835Y006105D03*
X022850Y006090D03*
X022850Y006075D03*
X022850Y006060D03*
X023360Y006195D03*
X023360Y006210D03*
X023345Y006255D03*
X023345Y006270D03*
X023330Y006315D03*
X023330Y006330D03*
X023315Y006375D03*
X023315Y006390D03*
X023300Y006435D03*
X023300Y006450D03*
X023285Y006495D03*
X023285Y006510D03*
X023270Y006555D03*
X023270Y006570D03*
X023270Y006585D03*
X023270Y006600D03*
X023255Y006705D03*
X023255Y006720D03*
X023255Y006735D03*
X023255Y006750D03*
X023255Y006765D03*
X023255Y006780D03*
X023240Y006900D03*
X023240Y006915D03*
X023240Y006930D03*
X023240Y006945D03*
X023240Y006960D03*
X023240Y006975D03*
X023225Y007125D03*
X023225Y007140D03*
X023225Y007155D03*
X023225Y007170D03*
X023225Y007185D03*
X023225Y007200D03*
X023375Y006150D03*
X025355Y006135D03*
X025355Y006120D03*
X025355Y006075D03*
X021365Y006660D03*
X020870Y006420D03*
X020870Y006405D03*
X020870Y006390D03*
X020870Y006375D03*
X020885Y006330D03*
X020885Y006315D03*
X020900Y006270D03*
X019490Y006810D03*
X019490Y006825D03*
X019775Y007650D03*
X019760Y007695D03*
X019760Y007710D03*
X019760Y007725D03*
X019745Y007740D03*
X019745Y007755D03*
X019100Y007950D03*
D51*
X020173Y007860D03*
X020173Y007845D03*
X020983Y008370D03*
X020998Y008385D03*
X020998Y008400D03*
X021013Y008610D03*
X021013Y008625D03*
X020803Y008925D03*
X020143Y008805D03*
X020143Y008790D03*
X021838Y007470D03*
X017248Y007470D03*
X017248Y007455D03*
X017248Y007440D03*
X017248Y007485D03*
X017248Y007500D03*
X017248Y007515D03*
X017248Y007530D03*
X017248Y007545D03*
X017248Y007560D03*
X017248Y007575D03*
X017248Y007590D03*
X017248Y007605D03*
X017248Y007620D03*
X017248Y007635D03*
X017248Y007650D03*
X017248Y007665D03*
X017248Y007680D03*
X015763Y007935D03*
X014953Y007845D03*
X014938Y007875D03*
X014938Y007890D03*
X014923Y007935D03*
X014413Y008010D03*
X014413Y008715D03*
X015763Y008445D03*
X017173Y009150D03*
X016663Y009660D03*
X016678Y009705D03*
X015343Y007440D03*
D52*
X016610Y007470D03*
X014405Y008700D03*
X020105Y008895D03*
X020105Y008910D03*
X020105Y008925D03*
X020120Y008880D03*
X020120Y008865D03*
X020120Y008850D03*
X020135Y008835D03*
X020135Y008820D03*
X020150Y008775D03*
X021020Y008595D03*
X021020Y008445D03*
X021005Y008415D03*
X020435Y009585D03*
X020435Y009600D03*
X020435Y009615D03*
X020435Y009630D03*
X020435Y009645D03*
X020435Y009660D03*
X022940Y009645D03*
X020015Y006255D03*
X023540Y005130D03*
D53*
X022588Y007470D03*
X021838Y007485D03*
X020938Y007800D03*
X020953Y007830D03*
X020953Y007845D03*
X020968Y007875D03*
X020203Y007785D03*
X020188Y007800D03*
X020173Y007950D03*
X020173Y008460D03*
X020173Y008475D03*
X020998Y008640D03*
X021658Y008850D03*
X021658Y008865D03*
X021658Y008880D03*
X021658Y008895D03*
X021658Y008910D03*
X021658Y008925D03*
X022423Y008925D03*
X022423Y008910D03*
X022423Y008895D03*
X022423Y008880D03*
X022423Y008865D03*
X022423Y008850D03*
X022423Y008835D03*
X022423Y008820D03*
X022423Y008805D03*
X022423Y008790D03*
X022423Y008775D03*
X022423Y008760D03*
X022423Y008745D03*
X022423Y008730D03*
X022423Y008715D03*
X022423Y008700D03*
X022423Y008685D03*
X022423Y008670D03*
X022423Y008655D03*
X022423Y008640D03*
X022423Y008625D03*
X022423Y008610D03*
X022423Y008595D03*
X022423Y008580D03*
X022423Y008565D03*
X022423Y008550D03*
X022423Y008535D03*
X022423Y008520D03*
X022423Y008505D03*
X022423Y008490D03*
X022423Y008475D03*
X022423Y008460D03*
X022423Y008445D03*
X022423Y008430D03*
X022423Y008415D03*
X022423Y008400D03*
X022423Y008385D03*
X022423Y008370D03*
X022423Y008355D03*
X022423Y008340D03*
X022423Y008325D03*
X022423Y008310D03*
X022423Y008145D03*
X022423Y008130D03*
X022423Y008115D03*
X022423Y008100D03*
X022423Y008085D03*
X019438Y008895D03*
X019438Y008910D03*
X017923Y008445D03*
X017908Y008415D03*
X017908Y008400D03*
X017893Y008355D03*
X017893Y008340D03*
X017893Y008325D03*
X017893Y008310D03*
X017893Y008295D03*
X017893Y008280D03*
X017893Y008265D03*
X017893Y008250D03*
X017893Y008235D03*
X017893Y008220D03*
X017893Y008205D03*
X017893Y008190D03*
X017893Y008175D03*
X017893Y008160D03*
X017893Y008145D03*
X017893Y008130D03*
X017893Y008115D03*
X017893Y008100D03*
X017893Y008085D03*
X017893Y008070D03*
X017893Y008055D03*
X017893Y008040D03*
X017233Y008220D03*
X017233Y008235D03*
X017233Y008250D03*
X017233Y008265D03*
X017233Y008280D03*
X017233Y008295D03*
X017233Y008310D03*
X017233Y008325D03*
X017233Y008340D03*
X017233Y008355D03*
X017233Y008370D03*
X017233Y008385D03*
X017233Y008400D03*
X017233Y008415D03*
X017233Y008430D03*
X017233Y008445D03*
X017233Y008460D03*
X017233Y008475D03*
X017233Y008490D03*
X017233Y008505D03*
X017233Y008520D03*
X017233Y008535D03*
X017233Y008550D03*
X017233Y008565D03*
X017233Y008580D03*
X017233Y008595D03*
X017233Y008610D03*
X017233Y008625D03*
X017233Y008640D03*
X017233Y008655D03*
X017233Y008670D03*
X017233Y008685D03*
X017233Y008700D03*
X017233Y008715D03*
X017233Y008730D03*
X017233Y008745D03*
X017233Y008760D03*
X017233Y008775D03*
X017233Y008790D03*
X017233Y008805D03*
X017233Y008820D03*
X017233Y008835D03*
X017233Y008850D03*
X017233Y008865D03*
X017233Y008880D03*
X017233Y008895D03*
X017233Y008910D03*
X017233Y008925D03*
X017578Y009255D03*
X016453Y008895D03*
X016453Y008880D03*
X016453Y008865D03*
X016453Y008850D03*
X016453Y008835D03*
X016453Y008820D03*
X016453Y008670D03*
X016453Y008655D03*
X016453Y008640D03*
X016453Y008625D03*
X016453Y008610D03*
X016453Y008595D03*
X016453Y008580D03*
X016453Y008565D03*
X016453Y008550D03*
X016453Y008535D03*
X016453Y008520D03*
X016453Y008505D03*
X016453Y008490D03*
X016453Y008475D03*
X016453Y008460D03*
X016453Y008445D03*
X016453Y008430D03*
X016453Y008415D03*
X016453Y008400D03*
X016453Y008385D03*
X016453Y008370D03*
X016453Y008355D03*
X016453Y008340D03*
X016453Y008325D03*
X016453Y008310D03*
X016453Y008295D03*
X016453Y008280D03*
X016453Y008265D03*
X016453Y008250D03*
X016453Y008235D03*
X016453Y008220D03*
X016453Y008205D03*
X016453Y008190D03*
X016453Y008175D03*
X016453Y008160D03*
X016453Y008145D03*
X016453Y008130D03*
X016453Y008115D03*
X016453Y008100D03*
X016453Y008085D03*
X016453Y008070D03*
X016453Y008055D03*
X016453Y008040D03*
X016453Y008025D03*
X016453Y008010D03*
X016453Y007995D03*
X016453Y007980D03*
X016453Y007965D03*
X015778Y008025D03*
X015778Y008040D03*
X015748Y007890D03*
X015748Y007875D03*
X015733Y007845D03*
X015718Y007830D03*
X015718Y007815D03*
X014968Y007815D03*
X014908Y008010D03*
X015748Y008505D03*
X015748Y008520D03*
X015748Y008535D03*
X015343Y008940D03*
X014428Y008730D03*
X016618Y007485D03*
X018328Y007455D03*
X018718Y007890D03*
X018718Y007905D03*
X018718Y007920D03*
X018733Y007965D03*
X018733Y007980D03*
X018748Y007995D03*
X018748Y008010D03*
X018763Y008040D03*
X018763Y008055D03*
X018763Y008070D03*
X018763Y008085D03*
X018763Y008100D03*
X022948Y009630D03*
D54*
X022723Y009270D03*
X022768Y009195D03*
X023053Y008970D03*
X019693Y007305D03*
X015943Y008685D03*
X017128Y009525D03*
D55*
X017548Y009240D03*
X018673Y008550D03*
X018793Y008325D03*
X018793Y008310D03*
X018793Y008295D03*
X018808Y008280D03*
X018808Y008265D03*
X018808Y008250D03*
X019483Y007920D03*
X019483Y007905D03*
X019408Y007680D03*
X019408Y007665D03*
X019408Y007650D03*
X020203Y007980D03*
X020908Y007770D03*
X021643Y007890D03*
X021643Y007905D03*
X021643Y007950D03*
X021643Y007965D03*
X021643Y007980D03*
X021643Y007995D03*
X022408Y007965D03*
X022408Y007950D03*
X022393Y008280D03*
X022393Y008295D03*
X023158Y007950D03*
X023158Y007935D03*
X022588Y007500D03*
X020203Y008565D03*
X017968Y007845D03*
X017953Y007860D03*
X017203Y007935D03*
X017203Y007950D03*
X016483Y007890D03*
X015343Y007455D03*
X015658Y008625D03*
D56*
X017653Y009210D03*
X018313Y008730D03*
X018313Y007635D03*
X015343Y007635D03*
D57*
X015328Y008730D03*
X017653Y009195D03*
X018313Y008685D03*
X020563Y007605D03*
D58*
X020563Y007695D03*
X020563Y007710D03*
X018313Y007755D03*
X018313Y007770D03*
X018313Y008610D03*
X018313Y008625D03*
X017668Y009180D03*
X015328Y008670D03*
X015328Y008655D03*
D59*
X015755Y008490D03*
X015755Y008475D03*
X015755Y008460D03*
X015770Y008430D03*
X015770Y008415D03*
X015770Y008010D03*
X015770Y007995D03*
X015770Y007980D03*
X015770Y007965D03*
X015770Y007950D03*
X015755Y007920D03*
X015755Y007905D03*
X015740Y007860D03*
X014960Y007830D03*
X014945Y007860D03*
X014930Y007905D03*
X014930Y007920D03*
X014915Y007950D03*
X014915Y007965D03*
X014915Y007980D03*
X014915Y007995D03*
X017225Y009165D03*
X018755Y008025D03*
X019445Y008025D03*
X019445Y008010D03*
X019445Y007995D03*
X019445Y007980D03*
X019445Y007965D03*
X019445Y007950D03*
X019445Y007935D03*
X019445Y008040D03*
X019445Y008055D03*
X019445Y008070D03*
X019445Y008085D03*
X019445Y008100D03*
X019445Y008115D03*
X019445Y008130D03*
X019445Y008145D03*
X019445Y008160D03*
X019445Y008175D03*
X019445Y008190D03*
X019445Y008205D03*
X019445Y008220D03*
X019445Y008235D03*
X019445Y008250D03*
X019445Y008265D03*
X019445Y008280D03*
X019445Y008295D03*
X019445Y008310D03*
X019445Y008325D03*
X019445Y008340D03*
X019445Y008355D03*
X019445Y008370D03*
X019445Y008385D03*
X019445Y008400D03*
X019445Y008415D03*
X019445Y008430D03*
X019445Y008445D03*
X019445Y008460D03*
X019445Y008475D03*
X019445Y008490D03*
X019445Y008505D03*
X019445Y008520D03*
X019445Y008535D03*
X019445Y008550D03*
X019445Y008565D03*
X019445Y008580D03*
X019445Y008595D03*
X019445Y008610D03*
X019445Y008625D03*
X019445Y008640D03*
X019445Y008655D03*
X019445Y008670D03*
X019445Y008685D03*
X019445Y008700D03*
X019445Y008715D03*
X019445Y008730D03*
X019445Y008745D03*
X019445Y008760D03*
X019445Y008775D03*
X019445Y008790D03*
X019445Y008805D03*
X019445Y008820D03*
X019445Y008835D03*
X019445Y008850D03*
X019445Y008865D03*
X019445Y008880D03*
X020165Y008445D03*
X020165Y008430D03*
X020165Y008415D03*
X020165Y008400D03*
X020165Y008385D03*
X020165Y008370D03*
X020165Y008355D03*
X020165Y008340D03*
X020165Y008325D03*
X020165Y008310D03*
X020165Y008295D03*
X020165Y008280D03*
X020165Y008265D03*
X020165Y008250D03*
X020165Y008235D03*
X020165Y007935D03*
X020165Y007920D03*
X020165Y007905D03*
X020165Y007890D03*
X020165Y007875D03*
X020180Y007830D03*
X020180Y007815D03*
X019445Y007770D03*
X019445Y007755D03*
X019445Y007605D03*
X019445Y007590D03*
X019445Y007575D03*
X019445Y007560D03*
X019445Y007545D03*
X019445Y007530D03*
X019445Y007515D03*
X019445Y007500D03*
X019445Y007485D03*
X019445Y007470D03*
X019445Y007455D03*
X019445Y007440D03*
X019445Y007425D03*
X019445Y007410D03*
X019445Y007395D03*
X019445Y007380D03*
X019445Y007365D03*
X019445Y007350D03*
X019445Y007335D03*
X019445Y007320D03*
X019445Y007305D03*
X019445Y007290D03*
X019445Y007275D03*
X019445Y007260D03*
X019445Y007245D03*
X019445Y007230D03*
X019445Y007215D03*
X019445Y007200D03*
X019445Y007185D03*
X019445Y007170D03*
X019445Y007155D03*
X019445Y007140D03*
X019445Y007125D03*
X019445Y007110D03*
X019445Y007095D03*
X019445Y007080D03*
X019445Y007065D03*
X019445Y007050D03*
X019445Y007035D03*
X019445Y007020D03*
X019445Y007005D03*
X019445Y006990D03*
X019445Y006975D03*
X019445Y006960D03*
X019445Y006945D03*
X019445Y006930D03*
X019445Y006915D03*
X019445Y006900D03*
X019445Y006885D03*
X019445Y006870D03*
X020960Y007860D03*
X020960Y008340D03*
X020975Y008355D03*
X023195Y007650D03*
X023195Y007635D03*
X023195Y007620D03*
X023195Y007605D03*
X023195Y007590D03*
X023195Y007575D03*
X023195Y007560D03*
X023195Y007545D03*
X023195Y007530D03*
X023195Y007515D03*
X023195Y007500D03*
X023195Y007485D03*
X023195Y007470D03*
X023195Y007455D03*
X023195Y007440D03*
X023765Y005745D03*
X023990Y005130D03*
D60*
X022003Y007860D03*
X023248Y008940D03*
X019708Y007935D03*
D61*
X019415Y007635D03*
X019415Y007620D03*
X018680Y007845D03*
X018665Y007830D03*
X017945Y007875D03*
X017210Y007965D03*
X016475Y007905D03*
X016610Y007500D03*
X015740Y008385D03*
X016430Y008790D03*
X016475Y008925D03*
X017960Y008535D03*
X018695Y008535D03*
X018710Y008520D03*
X018740Y008445D03*
X018755Y008415D03*
X018770Y008400D03*
X018770Y008385D03*
X018785Y008355D03*
X018785Y008340D03*
X020195Y008550D03*
X021635Y008355D03*
X021635Y008340D03*
X021635Y008325D03*
X021635Y008310D03*
X021635Y008295D03*
X021635Y008280D03*
X021635Y008265D03*
X021635Y008250D03*
X021635Y008235D03*
X021635Y008220D03*
X021635Y008205D03*
X021635Y008190D03*
X021635Y008175D03*
X021635Y008160D03*
X021635Y008145D03*
X021635Y008130D03*
X021635Y008115D03*
X021635Y008100D03*
X021635Y008085D03*
X021635Y008070D03*
X021635Y008055D03*
X021635Y008040D03*
X021635Y008025D03*
X021635Y008010D03*
X022415Y007980D03*
X023165Y007965D03*
X021830Y007500D03*
X014450Y008745D03*
D62*
X015740Y008565D03*
X016415Y008775D03*
X017990Y008550D03*
X018815Y008235D03*
X018815Y008220D03*
X018815Y008205D03*
X019490Y007890D03*
X019490Y007875D03*
X019400Y007725D03*
X019400Y007710D03*
X019400Y007695D03*
X020210Y008580D03*
X020795Y008910D03*
X022385Y008265D03*
X022385Y008250D03*
X022415Y007935D03*
X021830Y007515D03*
X021650Y007860D03*
X021650Y007875D03*
X021650Y007920D03*
X021650Y007935D03*
X023150Y007920D03*
X023150Y007905D03*
X023150Y007890D03*
X020015Y006285D03*
X017195Y007890D03*
X017195Y007905D03*
X017195Y007920D03*
X016610Y007515D03*
X015650Y007755D03*
X015035Y007755D03*
X023780Y005775D03*
D63*
X020015Y006300D03*
X021830Y007530D03*
X021665Y007845D03*
X022370Y008175D03*
X022370Y008190D03*
X023135Y007875D03*
X020780Y008895D03*
X020225Y008610D03*
X018815Y008175D03*
X018815Y008160D03*
X019505Y007815D03*
X019505Y007800D03*
X019505Y007785D03*
X017180Y007875D03*
X016610Y007530D03*
X015020Y008625D03*
X016400Y008760D03*
X018320Y008910D03*
D64*
X016325Y008685D03*
X015335Y008895D03*
X016625Y007620D03*
X018305Y007500D03*
X020300Y008040D03*
X020765Y008235D03*
X020765Y008820D03*
X021845Y007635D03*
X022595Y007635D03*
X022595Y007620D03*
D65*
X022595Y007605D03*
X022400Y007860D03*
X021845Y007605D03*
X020570Y007455D03*
X020570Y007440D03*
X020780Y008835D03*
X018335Y008880D03*
X016340Y008700D03*
X016625Y007605D03*
D66*
X016633Y007665D03*
X018313Y007515D03*
X020323Y008055D03*
X018328Y008850D03*
X015343Y008880D03*
D67*
X016633Y007635D03*
X015328Y007500D03*
X018328Y008865D03*
D68*
X018328Y008835D03*
X015343Y008865D03*
D69*
X016355Y008715D03*
X016625Y007575D03*
X020810Y008250D03*
X020780Y008850D03*
X022595Y007575D03*
D70*
X020570Y007575D03*
X018305Y007650D03*
X015335Y007650D03*
X015245Y008850D03*
D71*
X015238Y008835D03*
X015328Y008715D03*
X015343Y007710D03*
X018313Y007710D03*
X018313Y008670D03*
X020563Y007635D03*
D72*
X018320Y007560D03*
X018320Y008820D03*
X015335Y007545D03*
D73*
X015230Y008820D03*
X020510Y008190D03*
D74*
X020765Y008805D03*
X021845Y007650D03*
X022595Y007650D03*
X020555Y007470D03*
X016625Y007650D03*
X023765Y005100D03*
D75*
X020570Y007500D03*
X020375Y008085D03*
X018320Y008805D03*
X015335Y007560D03*
D76*
X015013Y007770D03*
X014998Y007785D03*
X015673Y007770D03*
X015688Y007785D03*
X016468Y007920D03*
X017218Y007980D03*
X017218Y007995D03*
X017218Y008010D03*
X017218Y008025D03*
X017923Y007920D03*
X017923Y007905D03*
X017938Y007890D03*
X018688Y007860D03*
X018703Y007875D03*
X018778Y008370D03*
X018748Y008430D03*
X018733Y008460D03*
X018733Y008475D03*
X018718Y008505D03*
X017953Y008520D03*
X016438Y008805D03*
X014968Y008595D03*
X014953Y008580D03*
X020188Y008535D03*
X020188Y008520D03*
X020923Y008310D03*
X021643Y008370D03*
X021643Y008385D03*
X021643Y008400D03*
X021643Y008415D03*
X021643Y008580D03*
X022408Y008010D03*
X022408Y007995D03*
X023173Y007995D03*
X023173Y007980D03*
X023173Y008010D03*
X022588Y007485D03*
X020923Y007785D03*
X020218Y007755D03*
X020188Y007965D03*
X023773Y005760D03*
D77*
X020555Y008745D03*
X020555Y008760D03*
X016850Y007725D03*
X016850Y007710D03*
X016850Y007695D03*
X015200Y008805D03*
D78*
X016640Y007680D03*
X015335Y007515D03*
X020765Y008790D03*
D79*
X020570Y007515D03*
X018320Y007590D03*
X018320Y008790D03*
D80*
X015178Y008790D03*
D81*
X015155Y008775D03*
D82*
X014668Y008040D03*
X014668Y008025D03*
X015343Y007605D03*
X018313Y007605D03*
X018313Y008760D03*
D83*
X015125Y008760D03*
D84*
X015343Y007620D03*
X018313Y007620D03*
X018313Y008745D03*
D85*
X016843Y007845D03*
X016843Y007830D03*
X016843Y007815D03*
X016843Y007800D03*
X016843Y007785D03*
X016843Y007770D03*
X016843Y007755D03*
X016843Y007740D03*
X020563Y008715D03*
X020563Y008730D03*
D86*
X020458Y008115D03*
X020563Y007590D03*
X018313Y007665D03*
X018313Y008715D03*
D87*
X020570Y008700D03*
X020570Y008685D03*
D88*
X020495Y008160D03*
X018305Y007725D03*
X015335Y007725D03*
X015335Y008700D03*
D89*
X015328Y008685D03*
X015343Y007740D03*
X018313Y007740D03*
X018313Y008640D03*
X018313Y008655D03*
X020503Y008175D03*
X020563Y007680D03*
X020563Y007665D03*
X020563Y007650D03*
D90*
X020578Y008655D03*
X020578Y008670D03*
D91*
X020563Y007740D03*
X018313Y007785D03*
X018313Y007800D03*
X015328Y008640D03*
D92*
X014998Y008610D03*
X015733Y008370D03*
X016498Y007875D03*
X017983Y007830D03*
X018643Y007815D03*
X018823Y008190D03*
X018658Y008565D03*
X017998Y008565D03*
X019393Y007740D03*
X019498Y007830D03*
X019498Y007845D03*
X019498Y007860D03*
X018328Y007470D03*
X020218Y008595D03*
X020893Y008295D03*
X020893Y007755D03*
X022408Y007920D03*
X022378Y008205D03*
X022378Y008220D03*
X022378Y008235D03*
X022588Y007515D03*
X021298Y005985D03*
D93*
X020570Y007725D03*
X020525Y008205D03*
X020525Y008220D03*
X018320Y008595D03*
D94*
X017158Y007860D03*
X016528Y007860D03*
X015703Y008340D03*
X015343Y007470D03*
X018328Y007485D03*
X021838Y007545D03*
X023113Y007860D03*
D95*
X015350Y008190D03*
X015350Y008205D03*
X015350Y008220D03*
X015350Y008235D03*
X015350Y008250D03*
X015350Y008265D03*
X015350Y008280D03*
X015350Y008295D03*
X015350Y008310D03*
D96*
X015335Y007695D03*
X018305Y007695D03*
X020480Y008145D03*
X020555Y007620D03*
D97*
X015268Y008100D03*
D98*
X015230Y008085D03*
D99*
X015343Y007530D03*
X020353Y008070D03*
D100*
X015103Y008070D03*
X015103Y008055D03*
D101*
X022685Y007845D03*
D102*
X022400Y007830D03*
X022400Y007815D03*
X022400Y007800D03*
D103*
X022393Y007785D03*
X022393Y007770D03*
X022393Y007755D03*
X022393Y007740D03*
X022393Y007725D03*
X022393Y007710D03*
X022393Y007695D03*
D104*
X022445Y007680D03*
X022445Y007665D03*
D105*
X021838Y007620D03*
D106*
X015343Y007590D03*
D107*
X018328Y007575D03*
D108*
X015343Y007575D03*
D109*
X020570Y007545D03*
D110*
X023180Y008300D03*
D111*
X023195Y007545D03*
D112*
X022425Y008300D03*
D113*
X021645Y008380D03*
D114*
X022105Y008163D02*
X022182Y008163D01*
X022190Y008180D02*
X022210Y008280D01*
X022180Y008310D01*
X021940Y007840D01*
X022020Y007800D01*
X022190Y008180D01*
X022196Y008211D02*
X022129Y008211D01*
X022154Y008260D02*
X022206Y008260D01*
X022182Y008308D02*
X022179Y008308D01*
X022290Y008270D02*
X022270Y008140D01*
X022270Y007710D01*
X021850Y007710D01*
X021850Y007880D01*
X021870Y007880D01*
X021891Y007852D01*
X021919Y007830D01*
X021950Y007815D01*
X021985Y007807D01*
X022020Y007809D01*
X022054Y007818D01*
X022084Y007836D01*
X022110Y007860D01*
X022159Y007928D01*
X022200Y008002D01*
X022230Y008080D01*
X022290Y008270D01*
X022287Y008260D02*
X022288Y008260D01*
X022281Y008211D02*
X022271Y008211D01*
X022273Y008163D02*
X022256Y008163D01*
X022270Y008114D02*
X022241Y008114D01*
X022224Y008066D02*
X022270Y008066D01*
X022270Y008017D02*
X022206Y008017D01*
X022182Y007969D02*
X022270Y007969D01*
X022270Y007920D02*
X022154Y007920D01*
X022118Y007872D02*
X022270Y007872D01*
X022270Y007823D02*
X022062Y007823D01*
X022030Y007823D02*
X021974Y007823D01*
X021932Y007823D02*
X021850Y007823D01*
X021880Y007823D02*
X021420Y007823D01*
X021420Y007830D02*
X021880Y007830D01*
X021880Y007790D01*
X022260Y007790D01*
X022260Y007780D01*
X022320Y007840D01*
X022220Y007700D01*
X022142Y007607D01*
X022052Y007526D01*
X021950Y007460D01*
X021883Y007432D01*
X021812Y007417D01*
X021739Y007417D01*
X021668Y007432D01*
X021601Y007461D01*
X021541Y007503D01*
X021491Y007555D01*
X021453Y007617D01*
X021427Y007685D01*
X021416Y007757D01*
X021420Y007830D01*
X021417Y007775D02*
X022273Y007775D01*
X022270Y007775D02*
X021850Y007775D01*
X021850Y007726D02*
X022270Y007726D01*
X022239Y007726D02*
X021421Y007726D01*
X021410Y007726D02*
X021376Y007726D01*
X021400Y007760D02*
X021380Y007770D01*
X021370Y007650D01*
X021320Y007140D01*
X021306Y006930D01*
X021310Y006720D01*
X021313Y006704D01*
X021320Y006689D01*
X021331Y006676D01*
X021344Y006666D01*
X021360Y006660D01*
X021377Y006658D01*
X021393Y006661D01*
X021408Y006669D01*
X021420Y006680D01*
X021592Y006915D01*
X021739Y007166D01*
X021860Y007430D01*
X021760Y007400D01*
X021700Y007280D01*
X021573Y007061D01*
X021420Y006860D01*
X021400Y006880D01*
X021400Y006960D01*
X021413Y007276D01*
X021450Y007590D01*
X021400Y007760D01*
X021424Y007678D02*
X021372Y007678D01*
X021368Y007629D02*
X021439Y007629D01*
X021448Y007629D02*
X022161Y007629D01*
X022201Y007678D02*
X021430Y007678D01*
X021449Y007581D02*
X021363Y007581D01*
X021358Y007532D02*
X021443Y007532D01*
X021437Y007484D02*
X021354Y007484D01*
X021349Y007435D02*
X021432Y007435D01*
X021426Y007387D02*
X021344Y007387D01*
X021339Y007338D02*
X021420Y007338D01*
X021414Y007290D02*
X021335Y007290D01*
X021330Y007241D02*
X021411Y007241D01*
X021409Y007193D02*
X021325Y007193D01*
X021320Y007144D02*
X021407Y007144D01*
X021405Y007096D02*
X021317Y007096D01*
X021314Y007047D02*
X021403Y007047D01*
X021402Y006999D02*
X021310Y006999D01*
X021307Y006950D02*
X021400Y006950D01*
X021400Y006902D02*
X021306Y006902D01*
X021307Y006853D02*
X021546Y006853D01*
X021511Y006805D02*
X021308Y006805D01*
X021309Y006756D02*
X021476Y006756D01*
X021440Y006708D02*
X021312Y006708D01*
X021369Y006659D02*
X021381Y006659D01*
X021832Y006465D02*
X021999Y006465D01*
X022030Y006514D02*
X021859Y006514D01*
X021886Y006562D02*
X022059Y006562D01*
X022050Y006544D02*
X021899Y006310D01*
X021730Y006090D01*
X021665Y006025D01*
X021591Y005973D01*
X021508Y005934D01*
X021420Y005909D01*
X021329Y005901D01*
X021237Y005908D01*
X021149Y005931D01*
X021066Y005969D01*
X020990Y006020D01*
X020941Y006067D01*
X020899Y006120D01*
X020867Y006180D01*
X020843Y006244D01*
X020830Y006310D01*
X020802Y006730D01*
X020820Y007150D01*
X020910Y007160D01*
X020910Y007450D01*
X020800Y007450D01*
X020800Y007420D01*
X020700Y007160D01*
X020578Y006895D01*
X020424Y006647D01*
X020240Y006420D01*
X020196Y006380D01*
X020144Y006350D01*
X020088Y006330D01*
X020029Y006322D01*
X019970Y006325D01*
X019912Y006339D01*
X019858Y006365D01*
X019810Y006400D01*
X019729Y006484D01*
X019659Y006577D01*
X019602Y006679D01*
X019559Y006787D01*
X019530Y006900D01*
X019430Y006900D01*
X019430Y006810D01*
X019450Y006730D01*
X019485Y006623D01*
X019537Y006523D01*
X019602Y006432D01*
X019681Y006351D01*
X019771Y006283D01*
X019870Y006230D01*
X019941Y006206D01*
X020016Y006194D01*
X020091Y006195D01*
X020165Y006210D01*
X020235Y006237D01*
X020300Y006276D01*
X020356Y006325D01*
X020404Y006384D01*
X020440Y006450D01*
X020616Y006808D01*
X020820Y007150D01*
X020900Y007150D01*
X020900Y007020D01*
X020910Y006430D01*
X020920Y006348D01*
X020946Y006270D01*
X020985Y006197D01*
X021037Y006133D01*
X021100Y006080D01*
X021150Y006051D01*
X021204Y006031D01*
X021261Y006021D01*
X021319Y006021D01*
X021376Y006031D01*
X021430Y006050D01*
X021540Y006112D01*
X021638Y006190D01*
X021722Y006284D01*
X021790Y006390D01*
X022400Y007480D01*
X022490Y007440D01*
X022180Y006790D01*
X022050Y006544D01*
X022085Y006611D02*
X021913Y006611D01*
X021941Y006659D02*
X022111Y006659D01*
X022136Y006708D02*
X021968Y006708D01*
X021995Y006756D02*
X022162Y006756D01*
X022187Y006805D02*
X022022Y006805D01*
X022049Y006853D02*
X022210Y006853D01*
X022233Y006902D02*
X022076Y006902D01*
X022103Y006950D02*
X022256Y006950D01*
X022279Y006999D02*
X022131Y006999D01*
X022158Y007047D02*
X022303Y007047D01*
X022326Y007096D02*
X022185Y007096D01*
X022212Y007144D02*
X022349Y007144D01*
X022372Y007193D02*
X022239Y007193D01*
X022266Y007241D02*
X022395Y007241D01*
X022418Y007290D02*
X022293Y007290D01*
X022321Y007338D02*
X022441Y007338D01*
X022465Y007387D02*
X022348Y007387D01*
X022375Y007435D02*
X022488Y007435D01*
X022457Y007461D02*
X022389Y007492D01*
X022327Y007535D01*
X022273Y007588D01*
X022230Y007650D01*
X023030Y007650D01*
X023030Y007780D01*
X023030Y007790D01*
X022970Y007670D01*
X022930Y007606D01*
X022880Y007550D01*
X022820Y007504D01*
X022753Y007469D01*
X022681Y007447D01*
X022606Y007438D01*
X022531Y007443D01*
X022457Y007461D01*
X022408Y007484D02*
X022781Y007484D01*
X022751Y007442D02*
X022760Y007430D01*
X022770Y007350D01*
X022790Y006780D01*
X022812Y006513D01*
X022859Y006249D01*
X022930Y005990D01*
X023013Y005773D01*
X023116Y005566D01*
X023240Y005370D01*
X023302Y005297D01*
X023376Y005235D01*
X023459Y005187D01*
X023549Y005155D01*
X023644Y005139D01*
X023740Y005140D01*
X023933Y005170D01*
X024121Y005224D01*
X024302Y005299D01*
X024472Y005395D01*
X024630Y005510D01*
X025310Y006080D01*
X025340Y005970D01*
X024890Y005590D01*
X024643Y005401D01*
X024379Y005237D01*
X024100Y005100D01*
X023992Y005062D01*
X023879Y005039D01*
X023764Y005033D01*
X023649Y005043D01*
X023537Y005069D01*
X023430Y005110D01*
X023331Y005164D01*
X023238Y005229D01*
X023154Y005305D01*
X023080Y005390D01*
X023008Y005495D01*
X023161Y005495D01*
X023131Y005544D02*
X022982Y005544D01*
X022957Y005592D02*
X023103Y005592D01*
X023079Y005641D02*
X022935Y005641D01*
X022948Y005608D02*
X022902Y005727D01*
X022870Y005850D01*
X022780Y006210D01*
X022702Y006606D01*
X022666Y007007D01*
X022670Y007410D01*
X022673Y007425D01*
X022681Y007438D01*
X022693Y007448D01*
X022707Y007454D01*
X022723Y007455D01*
X022738Y007451D01*
X022751Y007442D01*
X022756Y007435D02*
X022679Y007435D01*
X022670Y007387D02*
X022765Y007387D01*
X022770Y007338D02*
X022669Y007338D01*
X022669Y007290D02*
X022772Y007290D01*
X022774Y007241D02*
X022668Y007241D01*
X022668Y007193D02*
X022776Y007193D01*
X022777Y007144D02*
X022667Y007144D01*
X022667Y007096D02*
X022779Y007096D01*
X022781Y007047D02*
X022666Y007047D01*
X022666Y006999D02*
X022782Y006999D01*
X022784Y006950D02*
X022671Y006950D01*
X022675Y006902D02*
X022786Y006902D01*
X022787Y006853D02*
X022680Y006853D01*
X022684Y006805D02*
X022789Y006805D01*
X022792Y006756D02*
X022689Y006756D01*
X022693Y006708D02*
X022796Y006708D01*
X022800Y006659D02*
X022697Y006659D01*
X022702Y006611D02*
X022804Y006611D01*
X022808Y006562D02*
X022711Y006562D01*
X022720Y006514D02*
X022812Y006514D01*
X022820Y006465D02*
X022730Y006465D01*
X022739Y006417D02*
X022829Y006417D01*
X022838Y006368D02*
X022749Y006368D01*
X022759Y006320D02*
X022846Y006320D01*
X022855Y006271D02*
X022768Y006271D01*
X022778Y006223D02*
X022866Y006223D01*
X022879Y006174D02*
X022789Y006174D01*
X022801Y006126D02*
X022893Y006126D01*
X022906Y006077D02*
X022813Y006077D01*
X022825Y006029D02*
X022919Y006029D01*
X022934Y005980D02*
X022837Y005980D01*
X022850Y005932D02*
X022952Y005932D01*
X022971Y005883D02*
X022862Y005883D01*
X022874Y005835D02*
X022989Y005835D01*
X023008Y005786D02*
X022887Y005786D01*
X022899Y005738D02*
X023031Y005738D01*
X023055Y005689D02*
X022917Y005689D01*
X022948Y005608D02*
X023008Y005495D01*
X023041Y005447D02*
X023192Y005447D01*
X023222Y005398D02*
X023074Y005398D01*
X023115Y005350D02*
X023257Y005350D01*
X023298Y005301D02*
X023159Y005301D01*
X023213Y005253D02*
X023355Y005253D01*
X023430Y005204D02*
X023274Y005204D01*
X023346Y005156D02*
X023548Y005156D01*
X023581Y005059D02*
X023975Y005059D01*
X024114Y005107D02*
X023438Y005107D01*
X023838Y005156D02*
X024213Y005156D01*
X024191Y005253D02*
X024403Y005253D01*
X024481Y005301D02*
X024306Y005301D01*
X024311Y005204D02*
X024052Y005204D01*
X024392Y005350D02*
X024560Y005350D01*
X024638Y005398D02*
X024477Y005398D01*
X024543Y005447D02*
X024702Y005447D01*
X024766Y005495D02*
X024610Y005495D01*
X024670Y005544D02*
X024829Y005544D01*
X024892Y005592D02*
X024728Y005592D01*
X024786Y005641D02*
X024950Y005641D01*
X025007Y005689D02*
X024844Y005689D01*
X024901Y005738D02*
X025065Y005738D01*
X025122Y005786D02*
X024959Y005786D01*
X025017Y005835D02*
X025180Y005835D01*
X025237Y005883D02*
X025075Y005883D01*
X025133Y005932D02*
X025294Y005932D01*
X025337Y005980D02*
X025191Y005980D01*
X025249Y006029D02*
X025324Y006029D01*
X025356Y006029D02*
X025417Y006029D01*
X025370Y005990D02*
X025480Y006080D01*
X025130Y006710D01*
X025040Y006650D01*
X025320Y006110D01*
X025310Y006180D01*
X025320Y006100D01*
X025330Y006100D01*
X025370Y005990D01*
X025338Y006077D02*
X025476Y006077D01*
X025455Y006126D02*
X025318Y006126D01*
X025317Y006126D02*
X025312Y006126D01*
X025311Y006174D02*
X025428Y006174D01*
X025401Y006223D02*
X025262Y006223D01*
X025237Y006271D02*
X025374Y006271D01*
X025347Y006320D02*
X025211Y006320D01*
X025186Y006368D02*
X025320Y006368D01*
X025293Y006417D02*
X025161Y006417D01*
X025136Y006465D02*
X025266Y006465D01*
X025239Y006514D02*
X025111Y006514D01*
X025110Y006540D02*
X025010Y006640D01*
X024862Y006464D01*
X024697Y006305D01*
X024514Y006166D01*
X024318Y006047D01*
X024110Y005950D01*
X024010Y005910D01*
X024005Y005897D01*
X023997Y005886D01*
X023986Y005877D01*
X023974Y005872D01*
X023960Y005870D01*
X023939Y005868D01*
X023918Y005861D01*
X023900Y005850D01*
X023857Y005824D01*
X023809Y005808D01*
X023759Y005802D01*
X023709Y005806D01*
X023661Y005822D01*
X023618Y005846D01*
X023580Y005880D01*
X023493Y005991D01*
X023422Y006113D01*
X023369Y006243D01*
X023335Y006380D01*
X023320Y006520D01*
X023270Y007250D01*
X023250Y007450D01*
X023243Y007458D01*
X023233Y007463D01*
X023223Y007465D01*
X023212Y007463D01*
X023203Y007458D01*
X023196Y007450D01*
X023191Y007441D01*
X023190Y007430D01*
X023230Y006620D01*
X023242Y006509D01*
X023270Y006400D01*
X023319Y006227D01*
X023350Y006050D01*
X023366Y005980D01*
X023394Y005914D01*
X023434Y005854D01*
X023484Y005802D01*
X023543Y005761D01*
X023608Y005731D01*
X023678Y005714D01*
X023750Y005710D01*
X023882Y005726D01*
X024010Y005763D01*
X024130Y005820D01*
X024424Y006008D01*
X024700Y006220D01*
X024990Y006450D01*
X025110Y006540D01*
X025088Y006562D02*
X024945Y006562D01*
X024985Y006611D02*
X025039Y006611D01*
X025060Y006611D02*
X025185Y006611D01*
X025158Y006659D02*
X025054Y006659D01*
X025126Y006708D02*
X025131Y006708D01*
X025086Y006562D02*
X025212Y006562D01*
X025075Y006514D02*
X024904Y006514D01*
X024863Y006465D02*
X025010Y006465D01*
X024948Y006417D02*
X024813Y006417D01*
X024762Y006368D02*
X024887Y006368D01*
X024825Y006320D02*
X024711Y006320D01*
X024764Y006271D02*
X024652Y006271D01*
X024703Y006223D02*
X024589Y006223D01*
X024640Y006174D02*
X024525Y006174D01*
X024577Y006126D02*
X024448Y006126D01*
X024514Y006077D02*
X024368Y006077D01*
X024451Y006029D02*
X024279Y006029D01*
X024304Y005932D02*
X024064Y005932D01*
X023994Y005883D02*
X024229Y005883D01*
X024153Y005835D02*
X023874Y005835D01*
X023923Y005738D02*
X023594Y005738D01*
X023507Y005786D02*
X024059Y005786D01*
X023638Y005835D02*
X023452Y005835D01*
X023414Y005883D02*
X023578Y005883D01*
X023540Y005932D02*
X023386Y005932D01*
X023365Y005980D02*
X023502Y005980D01*
X023471Y006029D02*
X023355Y006029D01*
X023345Y006077D02*
X023443Y006077D01*
X023417Y006126D02*
X023337Y006126D01*
X023328Y006174D02*
X023398Y006174D01*
X023378Y006223D02*
X023320Y006223D01*
X023306Y006271D02*
X023362Y006271D01*
X023350Y006320D02*
X023293Y006320D01*
X023279Y006368D02*
X023338Y006368D01*
X023331Y006417D02*
X023266Y006417D01*
X023253Y006465D02*
X023326Y006465D01*
X023321Y006514D02*
X023241Y006514D01*
X023236Y006562D02*
X023317Y006562D01*
X023314Y006611D02*
X023231Y006611D01*
X023228Y006659D02*
X023310Y006659D01*
X023307Y006708D02*
X023226Y006708D01*
X023223Y006756D02*
X023304Y006756D01*
X023301Y006805D02*
X023221Y006805D01*
X023218Y006853D02*
X023297Y006853D01*
X023294Y006902D02*
X023216Y006902D01*
X023214Y006950D02*
X023291Y006950D01*
X023287Y006999D02*
X023211Y006999D01*
X023209Y007047D02*
X023284Y007047D01*
X023281Y007096D02*
X023207Y007096D01*
X023204Y007144D02*
X023277Y007144D01*
X023274Y007193D02*
X023202Y007193D01*
X023199Y007241D02*
X023271Y007241D01*
X023266Y007290D02*
X023197Y007290D01*
X023195Y007338D02*
X023261Y007338D01*
X023256Y007387D02*
X023192Y007387D01*
X023191Y007435D02*
X023251Y007435D01*
X022945Y007629D02*
X022245Y007629D01*
X022281Y007581D02*
X022908Y007581D01*
X022857Y007532D02*
X022331Y007532D01*
X022113Y007581D02*
X021476Y007581D01*
X021513Y007532D02*
X022058Y007532D01*
X021986Y007484D02*
X021569Y007484D01*
X021661Y007435D02*
X021891Y007435D01*
X021840Y007387D02*
X021753Y007387D01*
X021729Y007338D02*
X021818Y007338D01*
X021796Y007290D02*
X021705Y007290D01*
X021677Y007241D02*
X021773Y007241D01*
X021751Y007193D02*
X021649Y007193D01*
X021621Y007144D02*
X021726Y007144D01*
X021698Y007096D02*
X021593Y007096D01*
X021562Y007047D02*
X021669Y007047D01*
X021641Y006999D02*
X021525Y006999D01*
X021488Y006950D02*
X021612Y006950D01*
X021582Y006902D02*
X021452Y006902D01*
X020902Y006902D02*
X020809Y006902D01*
X020811Y006950D02*
X020901Y006950D01*
X020900Y006999D02*
X020813Y006999D01*
X020816Y007047D02*
X020900Y007047D01*
X020900Y007096D02*
X020818Y007096D01*
X020787Y007096D02*
X020670Y007096D01*
X020693Y007144D02*
X020816Y007144D01*
X020820Y007144D02*
X020900Y007144D01*
X020910Y007193D02*
X020713Y007193D01*
X020731Y007241D02*
X020910Y007241D01*
X020910Y007290D02*
X020750Y007290D01*
X020768Y007338D02*
X020910Y007338D01*
X020910Y007387D02*
X020787Y007387D01*
X020800Y007435D02*
X020910Y007435D01*
X020890Y007465D02*
X020821Y007446D01*
X020750Y007440D01*
X020390Y007440D01*
X020317Y007446D01*
X020246Y007465D01*
X020180Y007496D01*
X020120Y007538D01*
X020068Y007590D01*
X020026Y007650D01*
X019995Y007716D01*
X019976Y007787D01*
X019970Y007860D01*
X020360Y007860D01*
X020364Y007859D01*
X020367Y007857D01*
X020369Y007854D01*
X020370Y007850D01*
X020373Y007823D01*
X019973Y007823D01*
X019980Y007775D02*
X020397Y007775D01*
X020396Y007775D02*
X020415Y007756D01*
X020438Y007742D01*
X020463Y007733D01*
X020490Y007730D01*
X020640Y007730D01*
X020659Y007732D01*
X020677Y007739D01*
X020693Y007750D01*
X020706Y007764D01*
X020715Y007781D01*
X020720Y007800D01*
X020732Y007861D01*
X020750Y007920D01*
X020760Y007930D01*
X021160Y007870D01*
X021160Y007850D01*
X021154Y007779D01*
X021135Y007710D01*
X021105Y007645D01*
X021064Y007586D01*
X021014Y007536D01*
X020955Y007495D01*
X020890Y007465D01*
X020931Y007484D02*
X020207Y007484D01*
X020270Y007470D02*
X020279Y007483D01*
X020292Y007492D01*
X020307Y007497D01*
X020323Y007497D01*
X020338Y007492D01*
X020351Y007483D01*
X020360Y007470D01*
X020400Y007470D01*
X020330Y007360D01*
X020219Y007173D01*
X020120Y006980D01*
X020094Y006937D01*
X020060Y006900D01*
X020049Y006893D01*
X020036Y006888D01*
X020023Y006887D01*
X020010Y006890D01*
X019990Y006899D01*
X019973Y006913D01*
X019960Y006930D01*
X019949Y006952D01*
X019942Y006976D01*
X019940Y007000D01*
X019900Y007100D01*
X019650Y007810D01*
X019650Y008000D01*
X019710Y007990D01*
X019770Y007820D01*
X020000Y007140D01*
X020005Y007131D01*
X020012Y007124D01*
X020020Y007120D01*
X020030Y007118D01*
X020040Y007120D01*
X020055Y007127D01*
X020069Y007137D01*
X020080Y007150D01*
X020181Y007306D01*
X020270Y007470D01*
X020280Y007484D02*
X020350Y007484D01*
X020378Y007435D02*
X020251Y007435D01*
X020225Y007387D02*
X020347Y007387D01*
X020317Y007338D02*
X020198Y007338D01*
X020170Y007290D02*
X020288Y007290D01*
X020259Y007241D02*
X020139Y007241D01*
X020108Y007193D02*
X020231Y007193D01*
X020204Y007144D02*
X020075Y007144D01*
X019999Y007144D02*
X019884Y007144D01*
X019867Y007193D02*
X019982Y007193D01*
X019966Y007241D02*
X019850Y007241D01*
X019833Y007290D02*
X019949Y007290D01*
X019933Y007338D02*
X019816Y007338D01*
X019799Y007387D02*
X019917Y007387D01*
X019900Y007435D02*
X019782Y007435D01*
X019765Y007484D02*
X019884Y007484D01*
X019867Y007532D02*
X019748Y007532D01*
X019731Y007581D02*
X019851Y007581D01*
X019835Y007629D02*
X019714Y007629D01*
X019697Y007678D02*
X019818Y007678D01*
X019802Y007726D02*
X019680Y007726D01*
X019662Y007775D02*
X019785Y007775D01*
X019769Y007823D02*
X019650Y007823D01*
X019650Y007872D02*
X019752Y007872D01*
X019735Y007920D02*
X019650Y007920D01*
X019650Y007969D02*
X019718Y007969D01*
X019993Y007726D02*
X021140Y007726D01*
X021153Y007775D02*
X020712Y007775D01*
X020724Y007823D02*
X021158Y007823D01*
X021150Y007872D02*
X020735Y007872D01*
X020750Y007920D02*
X020826Y007920D01*
X020713Y008066D02*
X020384Y008066D01*
X020386Y008114D02*
X020853Y008114D01*
X020870Y008120D02*
X020380Y007950D01*
X020390Y008220D01*
X020750Y008330D01*
X020750Y008340D01*
X020751Y008349D01*
X020756Y008358D01*
X020762Y008364D01*
X020771Y008369D01*
X020780Y008370D01*
X020798Y008372D01*
X020815Y008379D01*
X020829Y008391D01*
X020841Y008405D01*
X021174Y008405D01*
X021186Y008431D02*
X021147Y008348D01*
X021095Y008274D01*
X021029Y008209D01*
X020954Y008158D01*
X020870Y008120D01*
X020961Y008163D02*
X020388Y008163D01*
X020390Y008211D02*
X021031Y008211D01*
X021080Y008260D02*
X020519Y008260D01*
X020678Y008308D02*
X021119Y008308D01*
X021151Y008357D02*
X020755Y008357D01*
X020841Y008405D02*
X020848Y008422D01*
X020850Y008440D01*
X020850Y008580D01*
X020847Y008603D01*
X020838Y008625D01*
X020824Y008644D01*
X020805Y008658D01*
X020783Y008667D01*
X020760Y008670D01*
X020550Y008670D01*
X020529Y008667D01*
X020510Y008659D01*
X020493Y008647D01*
X020481Y008630D01*
X020473Y008611D01*
X020470Y008590D01*
X020370Y008480D01*
X020350Y008521D01*
X020338Y008566D01*
X020335Y008612D01*
X020341Y008657D01*
X020357Y008700D01*
X020380Y008740D01*
X020436Y008805D01*
X020502Y008860D01*
X020576Y008903D01*
X020655Y008935D01*
X020739Y008954D01*
X020825Y008959D01*
X020910Y008950D01*
X020980Y008930D01*
X021044Y008897D01*
X021101Y008852D01*
X021149Y008797D01*
X021184Y008733D01*
X021207Y008664D01*
X021215Y008592D01*
X021210Y008520D01*
X021186Y008431D01*
X021192Y008454D02*
X020850Y008454D01*
X020850Y008502D02*
X021205Y008502D01*
X021212Y008551D02*
X020850Y008551D01*
X020847Y008599D02*
X021215Y008599D01*
X021209Y008648D02*
X020819Y008648D01*
X020495Y008648D02*
X020340Y008648D01*
X020336Y008599D02*
X020471Y008599D01*
X020434Y008551D02*
X020342Y008551D01*
X020359Y008502D02*
X020390Y008502D01*
X020355Y008696D02*
X021196Y008696D01*
X021178Y008745D02*
X020384Y008745D01*
X020350Y008760D02*
X020320Y008750D01*
X019970Y008750D01*
X019920Y008930D01*
X020290Y008930D01*
X020350Y008760D01*
X020338Y008793D02*
X019958Y008793D01*
X019945Y008842D02*
X020321Y008842D01*
X020304Y008890D02*
X019931Y008890D01*
X020426Y008793D02*
X021151Y008793D01*
X021110Y008842D02*
X020480Y008842D01*
X020553Y008890D02*
X021053Y008890D01*
X020950Y008939D02*
X020671Y008939D01*
X020760Y008970D02*
X020880Y009410D01*
X020960Y009420D01*
X020980Y009410D01*
X020860Y008970D01*
X020760Y008970D01*
X020765Y008987D02*
X020865Y008987D01*
X020878Y009036D02*
X020778Y009036D01*
X020791Y009084D02*
X020891Y009084D01*
X020904Y009133D02*
X020804Y009133D01*
X020818Y009181D02*
X020918Y009181D01*
X020931Y009230D02*
X020831Y009230D01*
X020844Y009278D02*
X020944Y009278D01*
X020957Y009327D02*
X020857Y009327D01*
X020870Y009375D02*
X020970Y009375D01*
X020960Y009410D02*
X020850Y009410D01*
X020850Y009460D01*
X020848Y009468D01*
X020844Y009474D01*
X020838Y009478D01*
X020830Y009480D01*
X020840Y009560D01*
X020840Y009510D01*
X020842Y009502D01*
X020846Y009496D01*
X020852Y009492D01*
X020860Y009490D01*
X020900Y009490D01*
X020916Y009492D01*
X020930Y009498D01*
X020942Y009508D01*
X020952Y009520D01*
X020958Y009534D01*
X020960Y009550D01*
X020960Y009730D01*
X020958Y009742D01*
X020952Y009754D01*
X020944Y009762D01*
X020932Y009768D01*
X020920Y009770D01*
X020900Y009770D01*
X020896Y009771D01*
X020893Y009773D01*
X020891Y009776D01*
X020890Y009780D01*
X020875Y009778D01*
X020861Y009770D01*
X020850Y009759D01*
X020842Y009745D01*
X020840Y009730D01*
X020840Y009720D01*
X020836Y009721D01*
X020833Y009723D01*
X020831Y009726D01*
X020830Y009730D01*
X020830Y009810D01*
X020832Y009822D01*
X020838Y009834D01*
X020846Y009842D01*
X020858Y009848D01*
X020870Y009850D01*
X020970Y009850D01*
X020993Y009847D01*
X021015Y009838D01*
X021034Y009824D01*
X021048Y009805D01*
X021057Y009783D01*
X021060Y009760D01*
X021060Y009510D01*
X021057Y009484D01*
X021047Y009460D01*
X021031Y009439D01*
X021010Y009423D01*
X020986Y009413D01*
X020960Y009410D01*
X021010Y009424D02*
X020850Y009424D01*
X020846Y009472D02*
X021052Y009472D01*
X021060Y009521D02*
X020952Y009521D01*
X020960Y009569D02*
X021060Y009569D01*
X021060Y009618D02*
X020960Y009618D01*
X020960Y009666D02*
X021060Y009666D01*
X021060Y009715D02*
X020960Y009715D01*
X020942Y009763D02*
X021060Y009763D01*
X021043Y009812D02*
X020830Y009812D01*
X020830Y009763D02*
X020853Y009763D01*
X020980Y009890D02*
X021050Y009820D01*
X021060Y009820D01*
X021100Y009860D01*
X021130Y009860D01*
X021140Y009850D01*
X021190Y009830D01*
X021272Y009789D01*
X021346Y009735D01*
X021410Y009670D01*
X021410Y009440D01*
X021430Y008910D01*
X021530Y008900D01*
X021530Y009010D01*
X021540Y009680D01*
X021537Y009713D01*
X021527Y009745D01*
X021511Y009774D01*
X021488Y009798D01*
X021461Y009817D01*
X021430Y009830D01*
X021357Y009858D01*
X021289Y009898D01*
X021230Y009950D01*
X021201Y009974D01*
X021166Y009990D01*
X021129Y009996D01*
X021091Y009994D01*
X021055Y009982D01*
X021024Y009961D01*
X020998Y009933D01*
X020980Y009900D01*
X020980Y009890D01*
X020985Y009909D02*
X021278Y009909D01*
X021221Y009957D02*
X021020Y009957D01*
X021010Y009860D02*
X021353Y009860D01*
X021308Y009763D02*
X021517Y009763D01*
X021537Y009715D02*
X021366Y009715D01*
X021410Y009666D02*
X021540Y009666D01*
X021539Y009618D02*
X021410Y009618D01*
X021410Y009569D02*
X021538Y009569D01*
X021538Y009521D02*
X021410Y009521D01*
X021410Y009472D02*
X021537Y009472D01*
X021536Y009424D02*
X021411Y009424D01*
X021412Y009375D02*
X021535Y009375D01*
X021535Y009327D02*
X021414Y009327D01*
X021416Y009278D02*
X021534Y009278D01*
X021533Y009230D02*
X021418Y009230D01*
X021420Y009181D02*
X021533Y009181D01*
X021532Y009133D02*
X021422Y009133D01*
X021423Y009084D02*
X021531Y009084D01*
X021530Y009036D02*
X021425Y009036D01*
X021427Y008987D02*
X021530Y008987D01*
X021530Y008939D02*
X021429Y008939D01*
X020600Y009497D02*
X020614Y009532D01*
X020620Y009570D01*
X020620Y009710D01*
X020615Y009744D01*
X020603Y009776D01*
X020585Y009805D01*
X020561Y009829D01*
X020532Y009848D01*
X020500Y009860D01*
X020457Y009867D01*
X020413Y009867D01*
X020370Y009860D01*
X020340Y009849D01*
X020312Y009831D01*
X020289Y009808D01*
X020271Y009780D01*
X020260Y009750D01*
X020380Y009730D01*
X020382Y009738D01*
X020386Y009744D01*
X020392Y009748D01*
X020400Y009750D01*
X020490Y009750D01*
X020494Y009749D01*
X020497Y009747D01*
X020499Y009744D01*
X020500Y009740D01*
X020500Y009610D01*
X020501Y009606D01*
X020503Y009603D01*
X020506Y009601D01*
X020510Y009600D01*
X020510Y009540D01*
X020508Y009525D01*
X020500Y009511D01*
X020489Y009500D01*
X020475Y009492D01*
X020460Y009490D01*
X020410Y009490D01*
X020394Y009492D01*
X020380Y009498D01*
X020368Y009508D01*
X020358Y009520D01*
X020352Y009534D01*
X020350Y009550D01*
X020310Y009550D01*
X020301Y009551D01*
X020292Y009556D01*
X020286Y009562D01*
X020281Y009571D01*
X020280Y009580D01*
X020250Y009570D01*
X020250Y009540D01*
X020254Y009509D01*
X020264Y009481D01*
X020281Y009455D01*
X020304Y009434D01*
X020330Y009419D01*
X020360Y009410D01*
X020420Y009405D01*
X020480Y009410D01*
X020517Y009421D01*
X020550Y009439D01*
X020579Y009465D01*
X020600Y009497D01*
X020610Y009521D02*
X020506Y009521D01*
X020510Y009569D02*
X020620Y009569D01*
X020620Y009618D02*
X020500Y009618D01*
X020500Y009666D02*
X020620Y009666D01*
X020619Y009715D02*
X020500Y009715D01*
X020608Y009763D02*
X020265Y009763D01*
X020293Y009812D02*
X020578Y009812D01*
X020500Y009860D02*
X020370Y009860D01*
X020177Y009809D02*
X020180Y009790D01*
X020180Y009750D01*
X020070Y009750D01*
X020068Y009765D01*
X020060Y009779D01*
X020049Y009790D01*
X020035Y009798D01*
X020020Y009800D01*
X020000Y009800D01*
X019985Y009798D01*
X019971Y009790D01*
X019960Y009779D01*
X019952Y009765D01*
X019950Y009750D01*
X019950Y009740D01*
X019953Y009719D01*
X019961Y009700D01*
X019973Y009683D01*
X019990Y009671D01*
X020009Y009663D01*
X020030Y009660D01*
X020070Y009660D01*
X020098Y009656D01*
X020125Y009645D01*
X020148Y009628D01*
X020165Y009605D01*
X020176Y009578D01*
X020180Y009550D01*
X020180Y009500D01*
X020177Y009477D01*
X020168Y009455D01*
X020154Y009436D01*
X020135Y009422D01*
X020113Y009413D01*
X020090Y009410D01*
X019940Y009410D01*
X019919Y009413D01*
X019900Y009421D01*
X019883Y009433D01*
X019871Y009450D01*
X019863Y009469D01*
X019860Y009490D01*
X019860Y009510D01*
X019960Y009510D01*
X019980Y009480D01*
X019994Y009468D01*
X020010Y009460D01*
X020025Y009457D01*
X020039Y009459D01*
X020053Y009466D01*
X020063Y009477D01*
X020070Y009490D01*
X020073Y009509D01*
X020070Y009528D01*
X020063Y009545D01*
X020050Y009560D01*
X020026Y009577D01*
X019998Y009588D01*
X019969Y009592D01*
X019940Y009590D01*
X019920Y009589D01*
X019901Y009593D01*
X019883Y009602D01*
X019869Y009615D01*
X019858Y009632D01*
X019851Y009650D01*
X019850Y009670D01*
X019850Y009760D01*
X019852Y009786D01*
X019861Y009811D01*
X019877Y009833D01*
X019899Y009849D01*
X019924Y009858D01*
X019950Y009860D01*
X020080Y009860D01*
X020111Y009858D01*
X020140Y009850D01*
X020156Y009840D01*
X020169Y009826D01*
X020177Y009809D01*
X020176Y009812D02*
X019862Y009812D01*
X019850Y009763D02*
X019952Y009763D01*
X019955Y009715D02*
X019850Y009715D01*
X019850Y009666D02*
X020001Y009666D01*
X020037Y009569D02*
X020177Y009569D01*
X020180Y009521D02*
X020071Y009521D01*
X020059Y009472D02*
X020175Y009472D01*
X020137Y009424D02*
X019896Y009424D01*
X019862Y009472D02*
X019989Y009472D01*
X019867Y009618D02*
X020156Y009618D01*
X020250Y009569D02*
X020282Y009569D01*
X020300Y009569D02*
X020360Y009569D01*
X020360Y009600D02*
X020300Y009600D01*
X020300Y009620D01*
X020300Y009500D01*
X020340Y009500D01*
X020340Y009490D01*
X020360Y009500D01*
X020360Y009600D01*
X020360Y009521D02*
X020300Y009521D01*
X020252Y009521D02*
X020358Y009521D01*
X020270Y009472D02*
X020583Y009472D01*
X020522Y009424D02*
X020322Y009424D01*
X020835Y009521D02*
X020840Y009521D01*
X021227Y009812D02*
X021469Y009812D01*
X022529Y009327D02*
X022670Y009327D01*
X022688Y009375D02*
X022550Y009375D01*
X022563Y009404D02*
X022648Y009548D01*
X022750Y009680D01*
X022785Y009712D01*
X022825Y009736D01*
X022869Y009752D01*
X022916Y009758D01*
X022963Y009755D01*
X023008Y009742D01*
X023050Y009720D01*
X023240Y009580D01*
X023255Y009564D01*
X023266Y009544D01*
X023271Y009522D01*
X023270Y009500D01*
X023270Y008930D01*
X023260Y008920D01*
X023180Y008920D01*
X023190Y009210D01*
X023188Y009305D01*
X023174Y009398D01*
X023150Y009490D01*
X023131Y009532D01*
X023102Y009567D01*
X023067Y009596D01*
X023025Y009615D01*
X022980Y009625D01*
X022935Y009623D01*
X022890Y009612D01*
X022850Y009590D01*
X022798Y009548D01*
X022754Y009498D01*
X022717Y009441D01*
X022690Y009380D01*
X022520Y008930D01*
X022430Y008930D01*
X022430Y009000D01*
X022450Y009090D01*
X022496Y009251D01*
X022563Y009404D01*
X022574Y009424D02*
X022709Y009424D01*
X022737Y009472D02*
X022603Y009472D01*
X022631Y009521D02*
X022774Y009521D01*
X022824Y009569D02*
X022664Y009569D01*
X022702Y009618D02*
X022913Y009618D01*
X023014Y009618D02*
X023189Y009618D01*
X023250Y009569D02*
X023100Y009569D01*
X023136Y009521D02*
X023271Y009521D01*
X023270Y009472D02*
X023155Y009472D01*
X023168Y009424D02*
X023270Y009424D01*
X023270Y009375D02*
X023178Y009375D01*
X023185Y009327D02*
X023270Y009327D01*
X023270Y009278D02*
X023188Y009278D01*
X023190Y009230D02*
X023270Y009230D01*
X023270Y009181D02*
X023189Y009181D01*
X023187Y009133D02*
X023270Y009133D01*
X023270Y009084D02*
X023186Y009084D01*
X023184Y009036D02*
X023270Y009036D01*
X023270Y008987D02*
X023182Y008987D01*
X023181Y008939D02*
X023270Y008939D01*
X022615Y009181D02*
X022476Y009181D01*
X022462Y009133D02*
X022597Y009133D01*
X022578Y009084D02*
X022449Y009084D01*
X022438Y009036D02*
X022560Y009036D01*
X022542Y008987D02*
X022430Y008987D01*
X022430Y008939D02*
X022523Y008939D01*
X022490Y009230D02*
X022633Y009230D01*
X022651Y009278D02*
X022508Y009278D01*
X022739Y009666D02*
X023123Y009666D01*
X023057Y009715D02*
X022789Y009715D01*
X020180Y009763D02*
X020068Y009763D01*
X019560Y009740D02*
X019560Y009490D01*
X019557Y009469D01*
X019549Y009450D01*
X019537Y009433D01*
X019520Y009421D01*
X019501Y009413D01*
X019480Y009410D01*
X019380Y009410D01*
X019380Y009430D01*
X019378Y009445D01*
X019370Y009459D01*
X019359Y009470D01*
X019345Y009478D01*
X019330Y009480D01*
X019330Y009540D01*
X019330Y009520D01*
X019332Y009508D01*
X019338Y009496D01*
X019346Y009488D01*
X019358Y009482D01*
X019370Y009480D01*
X019400Y009480D01*
X019416Y009482D01*
X019430Y009488D01*
X019442Y009498D01*
X019452Y009510D01*
X019458Y009524D01*
X019460Y009540D01*
X019460Y009700D01*
X019458Y009712D01*
X019452Y009724D01*
X019444Y009732D01*
X019432Y009738D01*
X019420Y009740D01*
X019370Y009740D01*
X019361Y009739D01*
X019352Y009734D01*
X019346Y009728D01*
X019341Y009719D01*
X019340Y009710D01*
X019340Y009790D01*
X019342Y009802D01*
X019348Y009814D01*
X019356Y009822D01*
X019368Y009828D01*
X019380Y009830D01*
X019470Y009830D01*
X019493Y009827D01*
X019515Y009818D01*
X019534Y009804D01*
X019548Y009785D01*
X019557Y009763D01*
X019340Y009763D01*
X019340Y009715D02*
X019341Y009715D01*
X019347Y009812D02*
X019523Y009812D01*
X019557Y009763D02*
X019560Y009740D01*
X019560Y009715D02*
X019457Y009715D01*
X019460Y009666D02*
X019560Y009666D01*
X019560Y009618D02*
X019460Y009618D01*
X019460Y009569D02*
X019560Y009569D01*
X019560Y009521D02*
X019456Y009521D01*
X019356Y009472D02*
X019558Y009472D01*
X019524Y009424D02*
X019380Y009424D01*
X019154Y009238D02*
X019258Y009080D01*
X019340Y008910D01*
X019300Y008770D01*
X019200Y008930D01*
X019023Y009181D01*
X019192Y009181D01*
X019224Y009133D02*
X019057Y009133D01*
X019023Y009181D02*
X018820Y009410D01*
X018990Y009420D01*
X019030Y009380D01*
X019154Y009238D01*
X019160Y009230D02*
X018980Y009230D01*
X018937Y009278D02*
X019119Y009278D01*
X019077Y009327D02*
X018894Y009327D01*
X018880Y009340D02*
X019000Y009380D01*
X018949Y009469D01*
X018886Y009549D01*
X018812Y009621D01*
X018730Y009681D01*
X018640Y009730D01*
X018368Y009836D01*
X018086Y009909D01*
X017797Y009949D01*
X017506Y009956D01*
X017215Y009928D01*
X016930Y009868D01*
X016654Y009775D01*
X016390Y009650D01*
X016170Y009530D01*
X016250Y009420D01*
X016390Y009510D01*
X016611Y009631D01*
X016845Y009726D01*
X017088Y009794D01*
X017336Y009835D01*
X017588Y009847D01*
X017840Y009830D01*
X018149Y009776D01*
X018450Y009690D01*
X018537Y009654D01*
X018619Y009606D01*
X018694Y009548D01*
X018760Y009480D01*
X018880Y009340D01*
X018851Y009375D02*
X019034Y009375D01*
X018985Y009375D02*
X018850Y009375D01*
X018830Y009410D02*
X018818Y009412D01*
X018806Y009418D01*
X018798Y009426D01*
X018792Y009438D01*
X018790Y009450D01*
X018790Y009500D01*
X018791Y009509D01*
X018796Y009518D01*
X018802Y009524D01*
X018811Y009529D01*
X018820Y009530D01*
X018890Y009530D01*
X018894Y009531D01*
X018897Y009533D01*
X018899Y009536D01*
X018900Y009540D01*
X018900Y009520D01*
X018902Y009512D01*
X018906Y009506D01*
X018912Y009502D01*
X018920Y009500D01*
X018960Y009500D01*
X018972Y009502D01*
X018984Y009508D01*
X018992Y009516D01*
X018998Y009528D01*
X019000Y009540D01*
X019000Y009460D01*
X018998Y009448D01*
X018992Y009436D01*
X018984Y009428D01*
X018972Y009422D01*
X018960Y009420D01*
X018930Y009410D01*
X018830Y009410D01*
X018808Y009424D02*
X018975Y009424D01*
X018801Y009424D01*
X018790Y009472D02*
X019000Y009472D01*
X018994Y009521D02*
X019000Y009521D01*
X018946Y009472D02*
X018767Y009472D01*
X018799Y009521D02*
X018900Y009521D01*
X018908Y009521D02*
X018720Y009521D01*
X018651Y009521D02*
X018591Y009521D01*
X018599Y009569D02*
X018659Y009569D01*
X018666Y009569D02*
X018865Y009569D01*
X018816Y009618D02*
X018599Y009618D01*
X018608Y009618D02*
X018668Y009618D01*
X018676Y009666D02*
X018616Y009666D01*
X018625Y009715D02*
X018685Y009715D01*
X018668Y009715D02*
X018364Y009715D01*
X018250Y009715D02*
X018130Y009715D01*
X018130Y009700D02*
X018129Y009696D01*
X018127Y009693D01*
X018124Y009691D01*
X018120Y009690D01*
X018119Y009681D01*
X018114Y009672D01*
X018108Y009666D01*
X018239Y009666D01*
X018242Y009670D02*
X018248Y009684D01*
X018250Y009700D01*
X018250Y009770D01*
X018247Y009791D01*
X018239Y009810D01*
X018227Y009827D01*
X018210Y009839D01*
X018191Y009847D01*
X018170Y009850D01*
X018040Y009850D01*
X018038Y009842D01*
X018034Y009836D01*
X018028Y009832D01*
X018020Y009830D01*
X018000Y009830D01*
X017992Y009832D01*
X017986Y009836D01*
X017982Y009842D01*
X017980Y009850D01*
X017870Y009850D01*
X017870Y009830D01*
X017871Y009826D01*
X017873Y009823D01*
X017876Y009821D01*
X017880Y009820D01*
X017880Y009760D01*
X017881Y009751D01*
X017886Y009742D01*
X017892Y009736D01*
X017901Y009731D01*
X017910Y009730D01*
X018000Y009730D01*
X018001Y009739D01*
X018006Y009748D01*
X018012Y009754D01*
X018021Y009759D01*
X018030Y009760D01*
X018070Y009760D01*
X018074Y009761D01*
X018077Y009763D01*
X018079Y009766D01*
X018080Y009770D01*
X018090Y009770D01*
X018102Y009768D01*
X018114Y009762D01*
X018122Y009754D01*
X018128Y009742D01*
X018130Y009730D01*
X018130Y009700D01*
X018108Y009666D02*
X018099Y009661D01*
X018090Y009660D01*
X018040Y009660D01*
X018039Y009664D01*
X018037Y009667D01*
X018034Y009669D01*
X018030Y009670D01*
X018020Y009670D01*
X018010Y009700D01*
X017890Y009700D01*
X017890Y009470D01*
X017892Y009452D01*
X017899Y009435D01*
X017911Y009421D01*
X017925Y009409D01*
X017942Y009402D01*
X017960Y009400D01*
X018130Y009400D01*
X018156Y009403D01*
X018180Y009413D01*
X018201Y009429D01*
X018217Y009450D01*
X018227Y009474D01*
X018230Y009500D01*
X018230Y009530D01*
X018229Y009534D01*
X018227Y009537D01*
X018224Y009539D01*
X018220Y009540D01*
X018120Y009540D01*
X018120Y009520D01*
X018119Y009511D01*
X018114Y009502D01*
X018108Y009496D01*
X018099Y009491D01*
X018090Y009490D01*
X018040Y009490D01*
X018031Y009491D01*
X018022Y009496D01*
X018016Y009502D01*
X018011Y009511D01*
X018010Y009520D01*
X018010Y009560D01*
X018012Y009572D01*
X018018Y009584D01*
X018026Y009592D01*
X018038Y009598D01*
X018050Y009600D01*
X018051Y009604D01*
X018053Y009607D01*
X018056Y009609D01*
X018060Y009610D01*
X018100Y009610D01*
X018101Y009619D01*
X018106Y009628D01*
X018112Y009634D01*
X018121Y009639D01*
X018130Y009640D01*
X018190Y009640D01*
X018206Y009642D01*
X018220Y009648D01*
X018232Y009658D01*
X018242Y009670D01*
X018250Y009763D02*
X018112Y009763D01*
X018077Y009763D02*
X017880Y009763D01*
X017880Y009812D02*
X018238Y009812D01*
X018274Y009860D02*
X016907Y009860D01*
X016825Y009805D02*
X016808Y009828D01*
X016785Y009845D01*
X016758Y009856D01*
X016730Y009860D01*
X016610Y009860D01*
X016581Y009857D01*
X016554Y009847D01*
X016529Y009832D01*
X016508Y009811D01*
X016493Y009786D01*
X016483Y009759D01*
X016480Y009730D01*
X016480Y009720D01*
X016481Y009716D01*
X016483Y009713D01*
X016486Y009711D01*
X016490Y009710D01*
X016610Y009710D01*
X016610Y009750D01*
X016612Y009758D01*
X016616Y009764D01*
X016622Y009768D01*
X016630Y009770D01*
X016660Y009770D01*
X016681Y009767D01*
X016700Y009759D01*
X016717Y009747D01*
X016729Y009730D01*
X016737Y009711D01*
X016740Y009690D01*
X016740Y009550D01*
X016738Y009538D01*
X016732Y009526D01*
X016724Y009518D01*
X016712Y009512D01*
X016700Y009510D01*
X016650Y009510D01*
X016649Y009519D01*
X016644Y009528D01*
X016638Y009534D01*
X016629Y009539D01*
X016620Y009540D01*
X016610Y009560D01*
X016480Y009560D01*
X016480Y009510D01*
X016484Y009482D01*
X016495Y009455D01*
X016512Y009432D01*
X016535Y009415D01*
X016562Y009404D01*
X016590Y009400D01*
X016720Y009400D01*
X016747Y009403D01*
X016772Y009412D01*
X016795Y009426D01*
X016814Y009445D01*
X016828Y009468D01*
X016837Y009493D01*
X016840Y009520D01*
X016840Y009750D01*
X016836Y009778D01*
X016825Y009805D01*
X016820Y009812D02*
X016509Y009812D01*
X016485Y009763D02*
X016615Y009763D01*
X016629Y009763D02*
X016976Y009763D01*
X016838Y009763D02*
X016691Y009763D01*
X016736Y009715D02*
X016840Y009715D01*
X016816Y009715D02*
X016527Y009715D01*
X016482Y009715D02*
X016610Y009715D01*
X016697Y009666D02*
X016424Y009666D01*
X016408Y009668D02*
X016417Y009693D01*
X016420Y009720D01*
X016420Y009800D01*
X016418Y009818D01*
X016411Y009835D01*
X016399Y009849D01*
X016385Y009861D01*
X016368Y009868D01*
X016350Y009870D01*
X016250Y009870D01*
X016238Y009868D01*
X016226Y009862D01*
X016218Y009854D01*
X016212Y009842D01*
X016210Y009830D01*
X016210Y009760D01*
X016212Y009768D01*
X016216Y009774D01*
X016222Y009778D01*
X016230Y009780D01*
X016270Y009780D01*
X016282Y009778D01*
X016294Y009772D01*
X016302Y009764D01*
X016308Y009752D01*
X016310Y009740D01*
X016310Y009700D01*
X016308Y009688D01*
X016302Y009676D01*
X016294Y009668D01*
X016282Y009662D01*
X016270Y009660D01*
X016220Y009660D01*
X016189Y009656D01*
X016159Y009646D01*
X016133Y009629D01*
X016111Y009607D01*
X016094Y009581D01*
X016084Y009551D01*
X016080Y009520D01*
X016080Y009490D01*
X016080Y009480D01*
X016081Y009476D01*
X016083Y009473D01*
X016086Y009471D01*
X016090Y009470D01*
X016092Y009452D01*
X016099Y009435D01*
X016111Y009421D01*
X016125Y009409D01*
X016142Y009402D01*
X016160Y009400D01*
X016310Y009400D01*
X016333Y009403D01*
X016355Y009412D01*
X016374Y009426D01*
X016388Y009445D01*
X016397Y009467D01*
X016400Y009490D01*
X016400Y009540D01*
X016300Y009540D01*
X016300Y009520D01*
X016298Y009512D01*
X016294Y009506D01*
X016288Y009502D01*
X016280Y009500D01*
X016210Y009500D01*
X016206Y009501D01*
X016203Y009503D01*
X016201Y009506D01*
X016200Y009510D01*
X016200Y009570D01*
X016201Y009579D01*
X016206Y009588D01*
X016212Y009594D01*
X016221Y009599D01*
X016230Y009600D01*
X016300Y009600D01*
X016327Y009603D01*
X016352Y009612D01*
X016375Y009626D01*
X016394Y009645D01*
X016408Y009668D01*
X016407Y009666D02*
X016290Y009666D01*
X016310Y009715D02*
X016419Y009715D01*
X016420Y009763D02*
X016303Y009763D01*
X016211Y009763D02*
X016210Y009763D01*
X016210Y009812D02*
X016418Y009812D01*
X016386Y009860D02*
X016224Y009860D01*
X016179Y009849D02*
X016174Y009858D01*
X016168Y009864D01*
X016159Y009869D01*
X016150Y009870D01*
X016050Y009870D01*
X016050Y009850D01*
X016051Y009846D01*
X016053Y009843D01*
X016056Y009841D01*
X016060Y009840D01*
X016100Y009840D01*
X016112Y009838D01*
X016124Y009832D01*
X016132Y009824D01*
X016138Y009812D01*
X016140Y009800D01*
X016180Y009840D01*
X016179Y009849D01*
X016172Y009860D02*
X016050Y009860D01*
X016138Y009812D02*
X016152Y009812D01*
X015930Y009812D02*
X015750Y009812D01*
X015750Y009850D02*
X015750Y009760D01*
X015800Y009760D01*
X015804Y009761D01*
X015807Y009763D01*
X015809Y009766D01*
X015810Y009770D01*
X015900Y009770D01*
X015930Y009790D01*
X015930Y009820D01*
X015928Y009832D01*
X015922Y009844D01*
X015914Y009852D01*
X015902Y009858D01*
X015890Y009860D01*
X015760Y009860D01*
X015756Y009859D01*
X015753Y009857D01*
X015751Y009854D01*
X015750Y009850D01*
X015750Y009763D02*
X015807Y009763D01*
X015470Y009750D02*
X015470Y009660D01*
X015370Y009660D01*
X015370Y009700D01*
X015368Y009716D01*
X015362Y009730D01*
X015352Y009742D01*
X015340Y009752D01*
X015326Y009758D01*
X015310Y009760D01*
X015280Y009760D01*
X015262Y009758D01*
X015245Y009751D01*
X015231Y009739D01*
X015219Y009725D01*
X015212Y009708D01*
X015210Y009690D01*
X015210Y009570D01*
X015211Y009566D01*
X015213Y009563D01*
X015216Y009561D01*
X015220Y009560D01*
X015220Y009540D01*
X015222Y009525D01*
X015230Y009511D01*
X015241Y009500D01*
X015255Y009492D01*
X015270Y009490D01*
X015293Y009493D01*
X015315Y009502D01*
X015334Y009516D01*
X015348Y009535D01*
X015357Y009557D01*
X015360Y009580D01*
X015360Y009600D01*
X015350Y009640D01*
X015470Y009640D01*
X015470Y009530D01*
X015467Y009503D01*
X015458Y009478D01*
X015444Y009455D01*
X015425Y009436D01*
X015402Y009422D01*
X015377Y009413D01*
X015350Y009410D01*
X015230Y009410D01*
X015203Y009413D01*
X015178Y009422D01*
X015155Y009436D01*
X015136Y009455D01*
X015122Y009478D01*
X015113Y009503D01*
X015110Y009530D01*
X015110Y009750D01*
X015114Y009778D01*
X015125Y009805D01*
X015142Y009828D01*
X015165Y009845D01*
X015192Y009856D01*
X015220Y009860D01*
X015360Y009860D01*
X015388Y009856D01*
X015415Y009845D01*
X015438Y009828D01*
X015455Y009805D01*
X015466Y009778D01*
X015470Y009750D01*
X015468Y009763D02*
X015112Y009763D01*
X015110Y009715D02*
X015215Y009715D01*
X015210Y009666D02*
X015110Y009666D01*
X015110Y009618D02*
X015210Y009618D01*
X015210Y009569D02*
X015110Y009569D01*
X015111Y009521D02*
X015224Y009521D01*
X015175Y009424D02*
X015405Y009424D01*
X015454Y009472D02*
X015126Y009472D01*
X015337Y009521D02*
X015469Y009521D01*
X015470Y009569D02*
X015359Y009569D01*
X015356Y009618D02*
X015470Y009618D01*
X015470Y009666D02*
X015370Y009666D01*
X015368Y009715D02*
X015470Y009715D01*
X015450Y009812D02*
X015130Y009812D01*
X014880Y009540D02*
X014880Y009490D01*
X014882Y009482D01*
X014886Y009476D01*
X014892Y009472D01*
X014680Y009472D01*
X014680Y009460D02*
X014680Y009490D01*
X014682Y009502D01*
X014688Y009514D01*
X014696Y009522D01*
X014708Y009528D01*
X014720Y009530D01*
X014790Y009530D01*
X014791Y009521D01*
X014796Y009512D01*
X014802Y009506D01*
X014811Y009501D01*
X014820Y009500D01*
X014840Y009500D01*
X014852Y009502D01*
X014864Y009508D01*
X014872Y009516D01*
X014878Y009528D01*
X014880Y009540D01*
X014874Y009521D02*
X014880Y009521D01*
X014892Y009472D02*
X014900Y009470D01*
X014880Y009430D01*
X014879Y009421D01*
X014874Y009412D01*
X014868Y009406D01*
X014859Y009401D01*
X014850Y009400D01*
X014740Y009400D01*
X014724Y009402D01*
X014710Y009408D01*
X014698Y009418D01*
X014688Y009430D01*
X014682Y009444D01*
X014680Y009460D01*
X014693Y009424D02*
X014879Y009424D01*
X014792Y009521D02*
X014695Y009521D01*
X014881Y008908D02*
X015190Y009040D01*
X015690Y009280D01*
X016160Y009500D01*
X016230Y009410D01*
X015540Y009067D01*
X014830Y008770D01*
X014671Y008720D01*
X014507Y008690D01*
X014340Y008680D01*
X014240Y008680D01*
X014230Y008750D01*
X014560Y008811D01*
X014881Y008908D01*
X014926Y008864D02*
X014876Y008814D01*
X014835Y008755D01*
X014805Y008690D01*
X014786Y008621D01*
X014780Y008550D01*
X015120Y008510D01*
X015120Y008520D01*
X015123Y008543D01*
X015132Y008565D01*
X015146Y008584D01*
X015165Y008598D01*
X015187Y008607D01*
X015210Y008610D01*
X015212Y008622D01*
X015218Y008634D01*
X015226Y008642D01*
X015238Y008648D01*
X015250Y008650D01*
X015380Y008650D01*
X015418Y008646D01*
X015454Y008633D01*
X015486Y008613D01*
X015513Y008586D01*
X015533Y008554D01*
X015546Y008518D01*
X015550Y008480D01*
X015550Y008430D01*
X015546Y008402D01*
X015535Y008375D01*
X015518Y008352D01*
X015495Y008335D01*
X015468Y008324D01*
X015440Y008320D01*
X015440Y008210D01*
X015443Y008181D01*
X015453Y008154D01*
X015468Y008129D01*
X015489Y008108D01*
X015514Y008093D01*
X015541Y008083D01*
X015570Y008080D01*
X015570Y007920D01*
X015565Y007878D01*
X015551Y007838D01*
X015529Y007802D01*
X015498Y007771D01*
X015462Y007749D01*
X015422Y007735D01*
X015380Y007730D01*
X015329Y007735D01*
X015281Y007750D01*
X015236Y007774D01*
X015196Y007806D01*
X015164Y007846D01*
X015140Y007891D01*
X015125Y007939D01*
X015120Y007990D01*
X015120Y008020D01*
X015130Y008050D01*
X014710Y008050D01*
X014706Y008051D01*
X014703Y008053D01*
X014701Y008056D01*
X014700Y008060D01*
X014700Y007980D01*
X014708Y007884D01*
X014733Y007792D01*
X014774Y007705D01*
X014829Y007626D01*
X014896Y007559D01*
X014975Y007504D01*
X015062Y007463D01*
X015154Y007438D01*
X015250Y007430D01*
X015510Y007430D01*
X015592Y007437D01*
X015671Y007458D01*
X015745Y007493D01*
X015812Y007540D01*
X015870Y007598D01*
X015917Y007665D01*
X015952Y007739D01*
X015973Y007818D01*
X015980Y007900D01*
X015980Y008430D01*
X015972Y008520D01*
X015949Y008608D01*
X015910Y008690D01*
X015858Y008764D01*
X015794Y008828D01*
X015720Y008880D01*
X015638Y008919D01*
X015550Y008942D01*
X015460Y008950D01*
X015270Y008950D01*
X015266Y008951D01*
X015263Y008953D01*
X015261Y008956D01*
X015260Y008960D01*
X015190Y008960D01*
X015119Y008954D01*
X015050Y008935D01*
X014985Y008905D01*
X014926Y008864D01*
X014904Y008842D02*
X015775Y008842D01*
X015830Y008793D02*
X014862Y008793D01*
X014885Y008793D02*
X014461Y008793D01*
X014539Y008696D02*
X014238Y008696D01*
X014231Y008745D02*
X014748Y008745D01*
X014807Y008696D02*
X015906Y008696D01*
X015930Y008648D02*
X015402Y008648D01*
X015500Y008599D02*
X015951Y008599D01*
X015961Y008551D02*
X015911Y008551D01*
X015920Y008530D02*
X015880Y008620D01*
X016260Y008820D01*
X016300Y008750D01*
X016280Y008710D01*
X015920Y008530D01*
X015964Y008551D02*
X015534Y008551D01*
X015548Y008502D02*
X015974Y008502D01*
X015978Y008454D02*
X015550Y008454D01*
X015547Y008405D02*
X015980Y008405D01*
X015980Y008357D02*
X015521Y008357D01*
X015440Y008308D02*
X015980Y008308D01*
X015980Y008260D02*
X015440Y008260D01*
X015440Y008211D02*
X015980Y008211D01*
X015980Y008163D02*
X015450Y008163D01*
X015483Y008114D02*
X015980Y008114D01*
X015980Y008066D02*
X015570Y008066D01*
X015570Y008017D02*
X015980Y008017D01*
X015980Y007969D02*
X015570Y007969D01*
X015570Y007920D02*
X015980Y007920D01*
X015978Y007872D02*
X015563Y007872D01*
X015542Y007823D02*
X015973Y007823D01*
X015961Y007775D02*
X015502Y007775D01*
X015235Y007775D02*
X014741Y007775D01*
X014725Y007823D02*
X015182Y007823D01*
X015150Y007872D02*
X014712Y007872D01*
X014705Y007920D02*
X015131Y007920D01*
X015122Y007969D02*
X014701Y007969D01*
X014700Y008017D02*
X015120Y008017D01*
X014810Y008060D02*
X014730Y008120D01*
X014511Y008083D01*
X014290Y008070D01*
X014260Y008070D01*
X014260Y008010D01*
X014414Y008004D01*
X014568Y008014D01*
X014720Y008040D01*
X014810Y008060D01*
X014803Y008066D02*
X014260Y008066D01*
X014260Y008017D02*
X014584Y008017D01*
X014695Y008114D02*
X014738Y008114D01*
X014764Y007726D02*
X015945Y007726D01*
X015923Y007678D02*
X014793Y007678D01*
X014827Y007629D02*
X015892Y007629D01*
X015853Y007581D02*
X014875Y007581D01*
X014935Y007532D02*
X015801Y007532D01*
X015725Y007484D02*
X015018Y007484D01*
X015192Y007435D02*
X015568Y007435D01*
X016255Y007655D02*
X016250Y007710D01*
X016250Y007890D01*
X016252Y007906D01*
X016258Y007920D01*
X016268Y007932D01*
X016280Y007942D01*
X016294Y007948D01*
X016310Y007950D01*
X016670Y007950D01*
X016673Y007927D01*
X016682Y007905D01*
X016696Y007886D01*
X016715Y007872D01*
X016737Y007863D01*
X016760Y007860D01*
X016850Y007860D01*
X016883Y007864D01*
X016915Y007875D01*
X016944Y007893D01*
X016967Y007916D01*
X016985Y007945D01*
X016996Y007977D01*
X017000Y008010D01*
X017004Y008011D01*
X017007Y008013D01*
X017009Y008016D01*
X017010Y008020D01*
X017010Y008200D01*
X017030Y008090D01*
X017046Y007987D01*
X017047Y007883D01*
X017031Y007780D01*
X017000Y007680D01*
X016979Y007636D01*
X016952Y007596D01*
X016920Y007560D01*
X016850Y007480D01*
X016830Y007459D01*
X016806Y007443D01*
X016779Y007433D01*
X016750Y007430D01*
X016530Y007430D01*
X016475Y007435D01*
X016423Y007451D01*
X016374Y007477D01*
X016332Y007512D01*
X016297Y007554D01*
X016271Y007603D01*
X016255Y007655D01*
X016253Y007678D02*
X016999Y007678D01*
X017014Y007726D02*
X016250Y007726D01*
X016250Y007775D02*
X017030Y007775D01*
X017038Y007823D02*
X016250Y007823D01*
X016250Y007872D02*
X016716Y007872D01*
X016676Y007920D02*
X016258Y007920D01*
X016263Y007629D02*
X016974Y007629D01*
X016938Y007581D02*
X016283Y007581D01*
X016316Y007532D02*
X016896Y007532D01*
X016853Y007484D02*
X016367Y007484D01*
X016479Y007435D02*
X016783Y007435D01*
X016906Y007872D02*
X017045Y007872D01*
X017047Y007920D02*
X016970Y007920D01*
X016993Y007969D02*
X017047Y007969D01*
X017042Y008017D02*
X017009Y008017D01*
X017010Y008066D02*
X017034Y008066D01*
X017026Y008114D02*
X017010Y008114D01*
X017010Y008163D02*
X017017Y008163D01*
X017670Y008180D02*
X018110Y008180D01*
X018140Y008150D01*
X018130Y008150D01*
X018130Y008350D01*
X017670Y008350D01*
X017670Y008180D01*
X017680Y008160D02*
X017680Y007970D01*
X017688Y007874D01*
X017713Y007782D01*
X017754Y007695D01*
X017809Y007616D01*
X017876Y007549D01*
X017955Y007494D01*
X018042Y007453D01*
X018134Y007428D01*
X018230Y007420D01*
X018450Y007420D01*
X018535Y007427D01*
X018618Y007450D01*
X018695Y007486D01*
X018765Y007535D01*
X018825Y007595D01*
X018874Y007665D01*
X018910Y007742D01*
X018933Y007825D01*
X018940Y007910D01*
X018940Y008430D01*
X018932Y008522D01*
X018908Y008611D01*
X018869Y008695D01*
X018816Y008771D01*
X018751Y008836D01*
X018675Y008889D01*
X018591Y008928D01*
X018502Y008952D01*
X018410Y008960D01*
X018250Y008960D01*
X018149Y008951D01*
X018052Y008925D01*
X017960Y008882D01*
X017877Y008824D01*
X017806Y008753D01*
X017748Y008670D01*
X017705Y008578D01*
X017679Y008481D01*
X017670Y008380D01*
X018110Y008380D01*
X018114Y008381D01*
X018117Y008383D01*
X018119Y008386D01*
X018120Y008390D01*
X018120Y008420D01*
X018124Y008451D01*
X018134Y008481D01*
X018151Y008507D01*
X018173Y008529D01*
X018199Y008546D01*
X018229Y008556D01*
X018260Y008560D01*
X018380Y008560D01*
X018416Y008556D01*
X018449Y008544D01*
X018480Y008525D01*
X018505Y008500D01*
X018524Y008469D01*
X018536Y008436D01*
X018540Y008400D01*
X018540Y008000D01*
X018536Y007964D01*
X018524Y007931D01*
X018505Y007900D01*
X018480Y007875D01*
X018449Y007856D01*
X018416Y007844D01*
X018380Y007840D01*
X018280Y007840D01*
X018244Y007844D01*
X018211Y007856D01*
X018180Y007875D01*
X018155Y007900D01*
X018136Y007931D01*
X018124Y007964D01*
X018120Y008000D01*
X018120Y008150D01*
X018110Y008150D01*
X017680Y008160D01*
X017680Y008114D02*
X018120Y008114D01*
X018120Y008066D02*
X017680Y008066D01*
X017680Y008017D02*
X018120Y008017D01*
X018124Y007969D02*
X017680Y007969D01*
X017684Y007920D02*
X018142Y007920D01*
X018186Y007872D02*
X017689Y007872D01*
X017702Y007823D02*
X018932Y007823D01*
X018937Y007872D02*
X018474Y007872D01*
X018518Y007920D02*
X018940Y007920D01*
X018940Y007969D02*
X018536Y007969D01*
X018540Y008017D02*
X018940Y008017D01*
X018940Y008066D02*
X018540Y008066D01*
X018540Y008114D02*
X018940Y008114D01*
X018987Y008114D02*
X019087Y008114D01*
X019104Y008066D02*
X019007Y008066D01*
X019026Y008017D02*
X019122Y008017D01*
X019139Y007969D02*
X019046Y007969D01*
X019066Y007920D02*
X019157Y007920D01*
X019174Y007872D02*
X019085Y007872D01*
X019105Y007823D02*
X019192Y007823D01*
X019209Y007775D02*
X019121Y007775D01*
X019110Y007810D02*
X018920Y008280D01*
X018920Y008530D01*
X018940Y008520D01*
X019550Y006830D01*
X019440Y006790D01*
X019110Y007810D01*
X019137Y007726D02*
X019227Y007726D01*
X019244Y007678D02*
X019153Y007678D01*
X019169Y007629D02*
X019262Y007629D01*
X019279Y007581D02*
X019184Y007581D01*
X019200Y007532D02*
X019297Y007532D01*
X019314Y007484D02*
X019216Y007484D01*
X019231Y007435D02*
X019332Y007435D01*
X019349Y007387D02*
X019247Y007387D01*
X019263Y007338D02*
X019367Y007338D01*
X019384Y007290D02*
X019278Y007290D01*
X019294Y007241D02*
X019402Y007241D01*
X019419Y007193D02*
X019310Y007193D01*
X019325Y007144D02*
X019437Y007144D01*
X019454Y007096D02*
X019341Y007096D01*
X019357Y007047D02*
X019472Y007047D01*
X019489Y006999D02*
X019373Y006999D01*
X019388Y006950D02*
X019507Y006950D01*
X019524Y006902D02*
X019404Y006902D01*
X019420Y006853D02*
X019542Y006853D01*
X019430Y006853D01*
X019431Y006805D02*
X019554Y006805D01*
X019571Y006756D02*
X019443Y006756D01*
X019435Y006805D02*
X019480Y006805D01*
X019457Y006708D02*
X019590Y006708D01*
X019613Y006659D02*
X019474Y006659D01*
X019492Y006611D02*
X019640Y006611D01*
X019670Y006562D02*
X019517Y006562D01*
X019543Y006514D02*
X019706Y006514D01*
X019747Y006465D02*
X019578Y006465D01*
X019617Y006417D02*
X019794Y006417D01*
X019853Y006368D02*
X019664Y006368D01*
X019723Y006320D02*
X020350Y006320D01*
X020391Y006368D02*
X020175Y006368D01*
X020236Y006417D02*
X020422Y006417D01*
X020447Y006465D02*
X020277Y006465D01*
X020316Y006514D02*
X020471Y006514D01*
X020495Y006562D02*
X020355Y006562D01*
X020395Y006611D02*
X020519Y006611D01*
X020543Y006659D02*
X020432Y006659D01*
X020462Y006708D02*
X020566Y006708D01*
X020590Y006756D02*
X020492Y006756D01*
X020522Y006805D02*
X020614Y006805D01*
X020643Y006853D02*
X020552Y006853D01*
X020581Y006902D02*
X020672Y006902D01*
X020701Y006950D02*
X020604Y006950D01*
X020626Y006999D02*
X020730Y006999D01*
X020759Y007047D02*
X020648Y007047D01*
X020807Y006853D02*
X020903Y006853D01*
X020904Y006805D02*
X020805Y006805D01*
X020803Y006756D02*
X020904Y006756D01*
X020905Y006708D02*
X020803Y006708D01*
X020807Y006659D02*
X020906Y006659D01*
X020907Y006611D02*
X020810Y006611D01*
X020813Y006562D02*
X020908Y006562D01*
X020909Y006514D02*
X020816Y006514D01*
X020820Y006465D02*
X020909Y006465D01*
X020912Y006417D02*
X020823Y006417D01*
X020826Y006368D02*
X020918Y006368D01*
X020930Y006320D02*
X020829Y006320D01*
X020838Y006271D02*
X020945Y006271D01*
X020971Y006223D02*
X020851Y006223D01*
X020870Y006174D02*
X021004Y006174D01*
X021046Y006126D02*
X020897Y006126D01*
X020933Y006077D02*
X021105Y006077D01*
X021049Y005980D02*
X021601Y005980D01*
X021669Y006029D02*
X021363Y006029D01*
X021478Y006077D02*
X021717Y006077D01*
X021757Y006126D02*
X021557Y006126D01*
X021618Y006174D02*
X021795Y006174D01*
X021832Y006223D02*
X021667Y006223D01*
X021711Y006271D02*
X021869Y006271D01*
X021905Y006320D02*
X021745Y006320D01*
X021776Y006368D02*
X021937Y006368D01*
X021968Y006417D02*
X021805Y006417D01*
X021220Y006029D02*
X020981Y006029D01*
X021147Y005932D02*
X021500Y005932D01*
X020292Y006271D02*
X019794Y006271D01*
X019892Y006223D02*
X020198Y006223D01*
X020061Y006902D02*
X019988Y006902D01*
X019950Y006950D02*
X020102Y006950D01*
X020130Y006999D02*
X019940Y006999D01*
X019921Y007047D02*
X020154Y007047D01*
X020179Y007096D02*
X019902Y007096D01*
X020129Y007532D02*
X021008Y007532D01*
X021058Y007581D02*
X020078Y007581D01*
X020041Y007629D02*
X021094Y007629D01*
X021120Y007678D02*
X020013Y007678D01*
X020373Y007823D02*
X020382Y007798D01*
X020396Y007775D01*
X020381Y007969D02*
X020433Y007969D01*
X020382Y008017D02*
X020573Y008017D01*
X021850Y007872D02*
X021876Y007872D01*
X021956Y007872D02*
X022052Y007872D01*
X022074Y007920D02*
X021981Y007920D01*
X022006Y007969D02*
X022095Y007969D01*
X022117Y008017D02*
X022030Y008017D01*
X022055Y008066D02*
X022139Y008066D01*
X022160Y008114D02*
X022080Y008114D01*
X022303Y007823D02*
X022308Y007823D01*
X022640Y007823D02*
X022950Y007823D01*
X022950Y007775D02*
X022640Y007775D01*
X022640Y007726D02*
X022950Y007726D01*
X022950Y007700D02*
X022950Y007960D01*
X023030Y008160D01*
X022960Y008000D01*
X022929Y007943D01*
X022889Y007893D01*
X022840Y007850D01*
X022813Y007835D01*
X022783Y007828D01*
X022752Y007828D01*
X022723Y007836D01*
X022696Y007851D01*
X022674Y007873D01*
X022659Y007900D01*
X022650Y007929D01*
X022650Y007960D01*
X022640Y007960D01*
X022640Y007680D01*
X022970Y007680D01*
X022970Y007700D01*
X022950Y007700D01*
X022974Y007678D02*
X023030Y007678D01*
X023030Y007726D02*
X022998Y007726D01*
X023022Y007775D02*
X023030Y007775D01*
X022950Y007872D02*
X022865Y007872D01*
X022910Y007920D02*
X022950Y007920D01*
X022943Y007969D02*
X022953Y007969D01*
X022967Y008017D02*
X022973Y008017D01*
X022989Y008066D02*
X022992Y008066D01*
X023010Y008114D02*
X023012Y008114D01*
X022653Y007920D02*
X022640Y007920D01*
X022640Y007872D02*
X022676Y007872D01*
X025287Y006174D02*
X025311Y006174D01*
X025306Y006077D02*
X025311Y006077D01*
X024380Y005980D02*
X024175Y005980D01*
X019069Y008163D02*
X018967Y008163D01*
X018940Y008163D02*
X018540Y008163D01*
X018540Y008211D02*
X018940Y008211D01*
X018948Y008211D02*
X019052Y008211D01*
X019034Y008260D02*
X018928Y008260D01*
X018940Y008260D02*
X018540Y008260D01*
X018540Y008308D02*
X018940Y008308D01*
X018920Y008308D02*
X019017Y008308D01*
X018999Y008357D02*
X018920Y008357D01*
X018940Y008357D02*
X018540Y008357D01*
X018539Y008405D02*
X018940Y008405D01*
X018920Y008405D02*
X018981Y008405D01*
X018964Y008454D02*
X018920Y008454D01*
X018938Y008454D02*
X018530Y008454D01*
X018503Y008502D02*
X018934Y008502D01*
X018946Y008502D02*
X018920Y008502D01*
X018924Y008551D02*
X018431Y008551D01*
X018212Y008551D02*
X017698Y008551D01*
X017685Y008502D02*
X018147Y008502D01*
X018124Y008454D02*
X017676Y008454D01*
X017672Y008405D02*
X018120Y008405D01*
X018130Y008308D02*
X017670Y008308D01*
X017670Y008260D02*
X018130Y008260D01*
X018130Y008211D02*
X017670Y008211D01*
X018127Y008163D02*
X018130Y008163D01*
X017717Y007775D02*
X018919Y007775D01*
X018903Y007726D02*
X017739Y007726D01*
X017766Y007678D02*
X018880Y007678D01*
X018849Y007629D02*
X017800Y007629D01*
X017845Y007581D02*
X018811Y007581D01*
X018761Y007532D02*
X017900Y007532D01*
X017977Y007484D02*
X018690Y007484D01*
X018563Y007435D02*
X018110Y007435D01*
X017715Y008599D02*
X018911Y008599D01*
X018891Y008648D02*
X017737Y008648D01*
X017766Y008696D02*
X018868Y008696D01*
X018834Y008745D02*
X017800Y008745D01*
X017846Y008793D02*
X018794Y008793D01*
X018743Y008842D02*
X017902Y008842D01*
X017977Y008890D02*
X018673Y008890D01*
X018552Y008939D02*
X018102Y008939D01*
X018172Y009084D02*
X018391Y009084D01*
X018380Y009094D02*
X018461Y009023D01*
X018530Y008940D01*
X018460Y008900D01*
X018320Y009000D01*
X018215Y009065D01*
X018101Y009116D01*
X017982Y009151D01*
X017860Y009170D01*
X017610Y009176D01*
X017362Y009152D01*
X017118Y009097D01*
X016883Y009013D01*
X016660Y008900D01*
X016470Y008900D01*
X016550Y008970D01*
X016611Y009016D01*
X016678Y009053D01*
X016750Y009080D01*
X017130Y009200D01*
X017267Y009237D01*
X017408Y009257D01*
X017550Y009260D01*
X017980Y009240D01*
X018087Y009226D01*
X018191Y009197D01*
X018289Y009153D01*
X018380Y009094D01*
X018320Y009133D02*
X018045Y009133D01*
X018062Y009230D02*
X017239Y009230D01*
X017275Y009133D02*
X016916Y009133D01*
X016946Y009036D02*
X016646Y009036D01*
X016573Y008987D02*
X016832Y008987D01*
X016736Y008939D02*
X016514Y008939D01*
X016275Y008793D02*
X016209Y008793D01*
X016297Y008745D02*
X016117Y008745D01*
X016155Y008648D02*
X015932Y008648D01*
X015889Y008599D02*
X016058Y008599D01*
X016024Y008696D02*
X016252Y008696D01*
X015872Y008745D02*
X014830Y008745D01*
X014793Y008648D02*
X015237Y008648D01*
X015168Y008599D02*
X014784Y008599D01*
X014780Y008551D02*
X015126Y008551D01*
X015001Y008842D02*
X014660Y008842D01*
X014820Y008890D02*
X015117Y008890D01*
X015062Y008939D02*
X015564Y008939D01*
X015465Y009036D02*
X015180Y009036D01*
X015233Y008939D02*
X014952Y008939D01*
X014964Y008890D02*
X015699Y008890D01*
X015575Y009084D02*
X015282Y009084D01*
X015383Y009133D02*
X015672Y009133D01*
X015770Y009181D02*
X015484Y009181D01*
X015585Y009230D02*
X015867Y009230D01*
X015965Y009278D02*
X015686Y009278D01*
X015789Y009327D02*
X016062Y009327D01*
X016108Y009424D02*
X016370Y009424D01*
X016398Y009472D02*
X016084Y009472D01*
X016100Y009472D02*
X016182Y009472D01*
X016212Y009472D02*
X016331Y009472D01*
X016300Y009521D02*
X016400Y009521D01*
X016409Y009521D02*
X016177Y009521D01*
X016200Y009521D02*
X016080Y009521D01*
X016090Y009569D02*
X016200Y009569D01*
X016242Y009569D02*
X016498Y009569D01*
X016480Y009521D02*
X016648Y009521D01*
X016726Y009521D02*
X016840Y009521D01*
X016840Y009569D02*
X016740Y009569D01*
X016740Y009618D02*
X016840Y009618D01*
X016840Y009666D02*
X016740Y009666D01*
X016763Y009812D02*
X017194Y009812D01*
X017122Y009909D02*
X018087Y009909D01*
X017945Y009812D02*
X018430Y009812D01*
X018555Y009763D02*
X018193Y009763D01*
X018101Y009618D02*
X017890Y009618D01*
X017890Y009666D02*
X018038Y009666D01*
X018011Y009569D02*
X017890Y009569D01*
X017890Y009521D02*
X018010Y009521D01*
X018120Y009521D02*
X018230Y009521D01*
X018226Y009472D02*
X017890Y009472D01*
X017908Y009424D02*
X018193Y009424D01*
X018276Y009314D02*
X018272Y009308D01*
X018270Y009300D01*
X018270Y009240D01*
X018271Y009236D01*
X018273Y009233D01*
X018276Y009231D01*
X018280Y009230D01*
X018320Y009230D01*
X018350Y009230D01*
X018410Y009230D01*
X018427Y009232D01*
X018443Y009240D01*
X018456Y009251D01*
X018465Y009266D01*
X018470Y009283D01*
X018470Y009300D01*
X018469Y009309D01*
X018464Y009318D01*
X018458Y009324D01*
X018449Y009329D01*
X018440Y009330D01*
X018350Y009330D01*
X018349Y009326D01*
X018347Y009323D01*
X018344Y009321D01*
X018340Y009320D01*
X018290Y009320D01*
X018282Y009318D01*
X018276Y009314D01*
X018270Y009278D02*
X018469Y009278D01*
X018453Y009327D02*
X018349Y009327D01*
X018226Y009181D02*
X017070Y009181D01*
X017081Y009084D02*
X016763Y009084D01*
X016791Y009424D02*
X016524Y009424D01*
X016488Y009472D02*
X016830Y009472D01*
X017100Y009472D02*
X017230Y009472D01*
X017230Y009450D02*
X017210Y009420D01*
X017209Y009416D01*
X017207Y009413D01*
X017204Y009411D01*
X017200Y009410D01*
X017110Y009410D01*
X017106Y009411D01*
X017103Y009413D01*
X017101Y009416D01*
X017100Y009420D01*
X017100Y009520D01*
X017101Y009524D01*
X017103Y009527D01*
X017106Y009529D01*
X017110Y009530D01*
X017160Y009530D01*
X017180Y009533D01*
X017198Y009541D01*
X017213Y009554D01*
X017224Y009571D01*
X017230Y009590D01*
X017230Y009610D01*
X017230Y009450D01*
X017212Y009424D02*
X017100Y009424D01*
X017100Y009521D02*
X017230Y009521D01*
X017223Y009569D02*
X017230Y009569D01*
X017430Y009569D02*
X017550Y009569D01*
X017550Y009521D02*
X017430Y009521D01*
X017430Y009500D02*
X017433Y009477D01*
X017442Y009455D01*
X017456Y009436D01*
X017475Y009422D01*
X017497Y009413D01*
X017520Y009410D01*
X017620Y009410D01*
X017632Y009412D01*
X017644Y009418D01*
X017652Y009426D01*
X017658Y009438D01*
X017660Y009450D01*
X017660Y009490D01*
X017661Y009494D01*
X017663Y009497D01*
X017666Y009499D01*
X017670Y009500D01*
X017680Y009550D01*
X017660Y009550D01*
X017660Y009520D01*
X017658Y009508D01*
X017652Y009496D01*
X017644Y009488D01*
X017632Y009482D01*
X017620Y009480D01*
X017590Y009480D01*
X017578Y009482D01*
X017566Y009488D01*
X017558Y009496D01*
X017552Y009508D01*
X017550Y009520D01*
X017550Y009750D01*
X017551Y009754D01*
X017553Y009757D01*
X017556Y009759D01*
X017560Y009760D01*
X017610Y009760D01*
X017622Y009758D01*
X017634Y009752D01*
X017642Y009744D01*
X017648Y009732D01*
X017650Y009720D01*
X017650Y009830D01*
X017648Y009838D01*
X017644Y009844D01*
X017638Y009848D01*
X017630Y009850D01*
X017510Y009850D01*
X017489Y009847D01*
X017470Y009839D01*
X017453Y009827D01*
X017441Y009810D01*
X017433Y009791D01*
X017430Y009770D01*
X017430Y009500D01*
X017435Y009472D02*
X017660Y009472D01*
X017660Y009521D02*
X017674Y009521D01*
X017649Y009424D02*
X017473Y009424D01*
X017430Y009618D02*
X017550Y009618D01*
X017550Y009666D02*
X017430Y009666D01*
X017430Y009715D02*
X017550Y009715D01*
X017650Y009763D02*
X017430Y009763D01*
X017442Y009812D02*
X017650Y009812D01*
X018507Y009666D02*
X018751Y009666D01*
X018693Y009763D02*
X018633Y009763D01*
X018642Y009812D02*
X018702Y009812D01*
X018710Y009860D02*
X018600Y009230D01*
X018540Y009230D01*
X018650Y009860D01*
X018710Y009860D01*
X019220Y009930D02*
X019222Y009918D01*
X019228Y009906D01*
X019236Y009898D01*
X019248Y009892D01*
X019260Y009890D01*
X019320Y009890D01*
X019340Y009860D01*
X019340Y009920D01*
X019341Y009929D01*
X019346Y009938D01*
X019352Y009944D01*
X019361Y009949D01*
X019370Y009950D01*
X019410Y009950D01*
X019419Y009949D01*
X019428Y009944D01*
X019434Y009938D01*
X019439Y009929D01*
X019440Y009920D01*
X019440Y009910D01*
X019441Y009906D01*
X019443Y009903D01*
X019446Y009901D01*
X019450Y009900D01*
X019570Y009900D01*
X019570Y009930D01*
X019566Y009958D01*
X019555Y009985D01*
X019538Y010008D01*
X019515Y010025D01*
X019488Y010036D01*
X019460Y010040D01*
X019310Y010040D01*
X019287Y010037D01*
X019265Y010028D01*
X019246Y010014D01*
X019232Y009995D01*
X019223Y009973D01*
X019220Y009950D01*
X019220Y009930D01*
X019227Y009909D02*
X019340Y009909D01*
X019340Y009860D02*
X019340Y009860D01*
X019440Y009909D02*
X019570Y009909D01*
X019566Y009957D02*
X019221Y009957D01*
X019240Y010006D02*
X019539Y010006D01*
X018642Y009472D02*
X018582Y009472D01*
X018574Y009424D02*
X018634Y009424D01*
X018625Y009375D02*
X018565Y009375D01*
X018557Y009327D02*
X018617Y009327D01*
X018608Y009278D02*
X018548Y009278D01*
X018446Y009036D02*
X018263Y009036D01*
X018338Y008987D02*
X018490Y008987D01*
X018527Y008939D02*
X018406Y008939D01*
X019091Y009084D02*
X019256Y009084D01*
X019280Y009036D02*
X019126Y009036D01*
X019160Y008987D02*
X019303Y008987D01*
X019326Y008939D02*
X019194Y008939D01*
X019225Y008890D02*
X019334Y008890D01*
X019320Y008842D02*
X019255Y008842D01*
X019286Y008793D02*
X019307Y008793D01*
X016587Y009618D02*
X016331Y009618D01*
X016361Y009618D02*
X016121Y009618D01*
X016219Y009424D02*
X015997Y009424D01*
X015893Y009375D02*
X016160Y009375D01*
X016247Y009424D02*
X016256Y009424D01*
X015349Y008987D02*
X015066Y008987D01*
D115*
X019445Y007905D03*
D116*
X017235Y008185D03*
D117*
X016450Y008340D03*
D118*
X016980Y009630D03*
X019700Y009630D03*
D119*
X019700Y009290D03*
D120*
X020765Y009550D03*
D121*
X019275Y009665D03*
D122*
X019065Y009630D03*
D123*
X018835Y009665D03*
D124*
X018415Y009575D03*
D125*
X018320Y009465D03*
X015770Y009465D03*
D126*
X018510Y009465D03*
D127*
X017725Y009545D03*
D128*
X017285Y009635D03*
X014955Y009635D03*
D129*
X016980Y009295D03*
D130*
X015885Y009555D03*
D131*
X015985Y009465D03*
D132*
X015615Y009630D03*
D133*
X015620Y009290D03*
D134*
X014725Y009670D03*
D135*
X020170Y008300D03*
D136*
X015315Y008175D03*
D137*
X020435Y009625D03*
D138*
X016125Y009645D03*
D139*
X014230Y008375D03*
M02*
