G75*
%MOIN*%
%OFA0B0*%
%FSLAX24Y24*%
%IPPOS*%
%LPD*%
%AMOC8*
5,1,8,0,0,1.08239X$1,22.5*
%
%ADD10C,0.0080*%
%ADD11C,0.0070*%
D10*
X011660Y003260D02*
X011660Y004060D01*
X013660Y004060D01*
X013660Y003260D01*
X011660Y003260D01*
X012660Y003460D02*
X012660Y003860D01*
X014160Y004060D02*
X014160Y003260D01*
X016160Y003260D01*
X016160Y004060D01*
X014160Y004060D01*
X015160Y003860D02*
X015160Y003460D01*
X016660Y003260D02*
X016660Y004060D01*
X018660Y004060D01*
X018660Y003260D01*
X016660Y003260D01*
X017660Y003460D02*
X017660Y003860D01*
X019160Y004060D02*
X019160Y003260D01*
X021160Y003260D01*
X021160Y004060D01*
X019160Y004060D01*
X020160Y003860D02*
X020160Y003460D01*
X021660Y003260D02*
X021660Y004060D01*
X023660Y004060D01*
X023660Y003260D01*
X021660Y003260D01*
X022660Y003460D02*
X022660Y003860D01*
X024160Y004060D02*
X024160Y003260D01*
X026160Y003260D01*
X026160Y004060D01*
X024160Y004060D01*
X025160Y003860D02*
X025160Y003460D01*
X027760Y007060D02*
X027760Y009060D01*
X028560Y009060D01*
X028560Y007060D01*
X027760Y007060D01*
X027960Y008060D02*
X028360Y008060D01*
X028560Y009660D02*
X027760Y009660D01*
X027760Y011660D01*
X028560Y011660D01*
X028560Y009660D01*
X028360Y010660D02*
X027960Y010660D01*
X026160Y011260D02*
X024160Y011260D01*
X024160Y012060D01*
X026160Y012060D01*
X026160Y011260D01*
X025160Y011460D02*
X025160Y011860D01*
X023660Y012060D02*
X023660Y011260D01*
X021660Y011260D01*
X021660Y012060D01*
X023660Y012060D01*
X022660Y011860D02*
X022660Y011460D01*
X021160Y011260D02*
X019160Y011260D01*
X019160Y012060D01*
X021160Y012060D01*
X021160Y011260D01*
X020160Y011460D02*
X020160Y011860D01*
X018660Y012060D02*
X018660Y011260D01*
X016660Y011260D01*
X016660Y012060D01*
X018660Y012060D01*
X017660Y011860D02*
X017660Y011460D01*
X016160Y011260D02*
X016160Y012060D01*
X014160Y012060D01*
X014160Y011260D01*
X016160Y011260D01*
X015160Y011460D02*
X015160Y011860D01*
X013660Y012060D02*
X013660Y011260D01*
X011660Y011260D01*
X011660Y012060D01*
X013660Y012060D01*
X012660Y011860D02*
X012660Y011460D01*
D11*
X012571Y011025D02*
X012642Y010953D01*
X012642Y010595D01*
X012816Y010738D02*
X012959Y010595D01*
X013103Y010738D01*
X013103Y011025D01*
X013276Y010953D02*
X013563Y010666D01*
X013563Y010953D01*
X013491Y011025D01*
X013348Y011025D01*
X013276Y010953D01*
X013276Y010666D01*
X013348Y010595D01*
X013491Y010595D01*
X013563Y010666D01*
X013103Y010810D02*
X012816Y010810D01*
X012816Y010738D02*
X012816Y011025D01*
X012571Y011025D02*
X012427Y011025D01*
X012355Y010953D01*
X012355Y010595D01*
X012182Y010666D02*
X012182Y010810D01*
X012110Y010882D01*
X011895Y010882D01*
X011895Y011025D02*
X011895Y010595D01*
X012110Y010595D01*
X012182Y010666D01*
X014395Y010595D02*
X014610Y010595D01*
X014682Y010666D01*
X014682Y010810D01*
X014610Y010882D01*
X014395Y010882D01*
X014395Y011025D02*
X014395Y010595D01*
X014855Y010595D02*
X014855Y010953D01*
X014927Y011025D01*
X015071Y011025D01*
X015142Y010953D01*
X015142Y010595D01*
X015316Y010738D02*
X015459Y010595D01*
X015603Y010738D01*
X015603Y011025D01*
X015776Y011025D02*
X016063Y011025D01*
X015920Y011025D02*
X015920Y010595D01*
X015776Y010738D01*
X015603Y010810D02*
X015316Y010810D01*
X015316Y010738D02*
X015316Y011025D01*
X016895Y011025D02*
X016895Y010595D01*
X017110Y010595D01*
X017182Y010666D01*
X017182Y010810D01*
X017110Y010882D01*
X016895Y010882D01*
X017355Y010953D02*
X017427Y011025D01*
X017571Y011025D01*
X017642Y010953D01*
X017642Y010595D01*
X017816Y010738D02*
X017959Y010595D01*
X018103Y010738D01*
X018103Y011025D01*
X018276Y011025D02*
X018563Y010738D01*
X018563Y010666D01*
X018491Y010595D01*
X018348Y010595D01*
X018276Y010666D01*
X018103Y010810D02*
X017816Y010810D01*
X017816Y010738D02*
X017816Y011025D01*
X018276Y011025D02*
X018563Y011025D01*
X019395Y011025D02*
X019395Y010595D01*
X019610Y010595D01*
X019682Y010666D01*
X019682Y010810D01*
X019610Y010882D01*
X019395Y010882D01*
X019855Y010953D02*
X019927Y011025D01*
X020071Y011025D01*
X020142Y010953D01*
X020142Y010595D01*
X020316Y010738D02*
X020459Y010595D01*
X020603Y010738D01*
X020603Y011025D01*
X020776Y010953D02*
X020848Y011025D01*
X020991Y011025D01*
X021063Y010953D01*
X021063Y010882D01*
X020991Y010810D01*
X020920Y010810D01*
X020991Y010810D02*
X021063Y010738D01*
X021063Y010666D01*
X020991Y010595D01*
X020848Y010595D01*
X020776Y010666D01*
X020603Y010810D02*
X020316Y010810D01*
X020316Y010738D02*
X020316Y011025D01*
X019855Y010953D02*
X019855Y010595D01*
X021895Y010595D02*
X022110Y010595D01*
X022182Y010666D01*
X022182Y010810D01*
X022110Y010882D01*
X021895Y010882D01*
X021895Y011025D02*
X021895Y010595D01*
X022355Y010595D02*
X022355Y010953D01*
X022427Y011025D01*
X022571Y011025D01*
X022642Y010953D01*
X022642Y010595D01*
X022816Y010738D02*
X022959Y010595D01*
X023103Y010738D01*
X023103Y011025D01*
X023103Y010810D02*
X022816Y010810D01*
X022816Y010738D02*
X022816Y011025D01*
X023276Y010810D02*
X023563Y010810D01*
X023491Y011025D02*
X023491Y010595D01*
X023276Y010810D01*
X024395Y010882D02*
X024610Y010882D01*
X024682Y010810D01*
X024682Y010666D01*
X024610Y010595D01*
X024395Y010595D01*
X024395Y011025D01*
X024855Y010953D02*
X024855Y010595D01*
X025142Y010595D02*
X025142Y010953D01*
X025071Y011025D01*
X024927Y011025D01*
X024855Y010953D01*
X025316Y011025D02*
X025316Y010738D01*
X025459Y010595D01*
X025603Y010738D01*
X025603Y011025D01*
X025776Y010953D02*
X025848Y011025D01*
X025991Y011025D01*
X026063Y010953D01*
X026063Y010810D01*
X025991Y010738D01*
X025920Y010738D01*
X025776Y010810D01*
X025776Y010595D01*
X026063Y010595D01*
X025603Y010810D02*
X025316Y010810D01*
X027095Y010678D02*
X027453Y010678D01*
X027525Y010749D01*
X027525Y010893D01*
X027453Y010965D01*
X027095Y010965D01*
X027166Y011138D02*
X027310Y011138D01*
X027382Y011210D01*
X027382Y011425D01*
X027525Y011425D02*
X027095Y011425D01*
X027095Y011210D01*
X027166Y011138D01*
X027238Y010504D02*
X027095Y010361D01*
X027238Y010217D01*
X027525Y010217D01*
X027453Y010044D02*
X027525Y009972D01*
X027525Y009829D01*
X027453Y009757D01*
X027382Y009757D01*
X027310Y009829D01*
X027310Y010044D01*
X027453Y010044D01*
X027310Y010044D02*
X027166Y009900D01*
X027095Y009757D01*
X027310Y010217D02*
X027310Y010504D01*
X027238Y010504D02*
X027525Y010504D01*
X027525Y008725D02*
X027095Y008725D01*
X027095Y008510D01*
X027166Y008438D01*
X027310Y008438D01*
X027382Y008510D01*
X027382Y008725D01*
X027453Y008265D02*
X027095Y008265D01*
X027095Y007978D02*
X027453Y007978D01*
X027525Y008049D01*
X027525Y008193D01*
X027453Y008265D01*
X027525Y007804D02*
X027238Y007804D01*
X027095Y007661D01*
X027238Y007517D01*
X027525Y007517D01*
X027310Y007517D02*
X027310Y007804D01*
X027453Y007344D02*
X027525Y007344D01*
X027453Y007344D02*
X027166Y007057D01*
X027095Y007057D01*
X027095Y007344D01*
X023831Y007313D02*
X023616Y007313D01*
X023544Y007385D01*
X023616Y007457D01*
X023759Y007457D01*
X023831Y007528D01*
X023759Y007600D01*
X023544Y007600D01*
X023304Y007313D02*
X023161Y007457D01*
X023161Y007600D02*
X023161Y007313D01*
X023304Y007313D02*
X023376Y007313D01*
X022987Y007385D02*
X022915Y007313D01*
X022772Y007313D01*
X022700Y007385D01*
X022700Y007528D01*
X022772Y007600D01*
X022915Y007600D01*
X022987Y007528D01*
X022987Y007385D01*
X022537Y007313D02*
X022393Y007313D01*
X022465Y007241D02*
X022465Y007528D01*
X022537Y007600D01*
X022220Y007528D02*
X022148Y007457D01*
X022005Y007457D01*
X021933Y007385D01*
X022005Y007313D01*
X022220Y007313D01*
X022220Y007528D02*
X022148Y007600D01*
X021933Y007600D01*
X021769Y007600D02*
X021626Y007600D01*
X021698Y007600D02*
X021698Y007313D01*
X021626Y007313D01*
X021698Y007170D02*
X021698Y007098D01*
X021452Y007313D02*
X021237Y007313D01*
X021166Y007385D01*
X021237Y007457D01*
X021381Y007457D01*
X021452Y007528D01*
X021381Y007600D01*
X021166Y007600D01*
X020992Y007457D02*
X020705Y007457D01*
X020705Y007528D02*
X020705Y007385D01*
X020777Y007313D01*
X020920Y007313D01*
X020992Y007385D01*
X020992Y007457D01*
X020920Y007600D02*
X020777Y007600D01*
X020705Y007528D01*
X020532Y007600D02*
X020388Y007457D01*
X020460Y007457D02*
X020245Y007457D01*
X020245Y007600D02*
X020245Y007170D01*
X020460Y007170D01*
X020532Y007241D01*
X020532Y007385D01*
X020460Y007457D01*
X019611Y007528D02*
X019611Y007385D01*
X019539Y007313D01*
X019324Y007313D01*
X019324Y007743D01*
X019324Y007600D02*
X019539Y007600D01*
X019611Y007528D01*
X019150Y007600D02*
X019150Y007313D01*
X018864Y007313D02*
X018864Y007528D01*
X018935Y007600D01*
X019150Y007600D01*
X018690Y007385D02*
X018403Y007385D01*
X018240Y007600D02*
X018096Y007600D01*
X018168Y007600D02*
X018168Y007170D01*
X018096Y007170D01*
X017861Y007170D02*
X017861Y007600D01*
X017789Y007600D02*
X017933Y007600D01*
X017616Y007600D02*
X017616Y007313D01*
X017789Y007170D02*
X017861Y007170D01*
X017329Y007313D02*
X017329Y007528D01*
X017401Y007600D01*
X017616Y007600D01*
X017155Y007385D02*
X017084Y007457D01*
X016869Y007457D01*
X016869Y007600D02*
X016869Y007170D01*
X017084Y007170D01*
X017155Y007241D01*
X017155Y007385D01*
X016705Y007920D02*
X016633Y007991D01*
X016633Y008350D01*
X016562Y008135D02*
X016705Y008135D01*
X016869Y008135D02*
X016940Y008063D01*
X017084Y008063D01*
X017155Y008135D01*
X017155Y008278D01*
X017084Y008350D01*
X016940Y008350D01*
X016869Y008278D01*
X016869Y008135D01*
X017329Y008207D02*
X017472Y008063D01*
X017544Y008063D01*
X017329Y008063D02*
X017329Y008350D01*
X018173Y008350D02*
X018316Y008350D01*
X018245Y008350D02*
X018245Y007920D01*
X018316Y007920D02*
X018173Y007920D01*
X018480Y008063D02*
X018695Y008063D01*
X018767Y008135D01*
X018767Y008350D01*
X018940Y008350D02*
X019155Y008350D01*
X019227Y008278D01*
X019227Y008135D01*
X019155Y008063D01*
X018940Y008063D01*
X018940Y008493D01*
X018480Y008350D02*
X018480Y008063D01*
X019401Y008063D02*
X019401Y008278D01*
X019472Y008350D01*
X019688Y008350D01*
X019688Y008063D01*
X019861Y008063D02*
X020005Y008063D01*
X019933Y007991D02*
X019933Y008278D01*
X020005Y008350D01*
X020168Y008350D02*
X020383Y008350D01*
X020455Y008278D01*
X020383Y008207D01*
X020240Y008207D01*
X020168Y008135D01*
X020240Y008063D01*
X020455Y008063D01*
X016245Y007600D02*
X016101Y007600D01*
X016173Y007600D02*
X016173Y007170D01*
X016101Y007170D01*
X015928Y007385D02*
X015856Y007313D01*
X015713Y007313D01*
X015713Y007457D02*
X015928Y007457D01*
X015928Y007385D02*
X015928Y007600D01*
X015713Y007600D01*
X015641Y007528D01*
X015713Y007457D01*
X015467Y007385D02*
X015396Y007313D01*
X015180Y007313D01*
X015180Y007600D01*
X015007Y007528D02*
X015007Y007385D01*
X014935Y007313D01*
X014792Y007313D01*
X014720Y007385D01*
X014720Y007528D01*
X014792Y007600D01*
X014935Y007600D01*
X015007Y007528D01*
X015467Y007600D02*
X015467Y007385D01*
X014557Y007600D02*
X014413Y007600D01*
X014485Y007600D02*
X014485Y007313D01*
X014413Y007313D01*
X014485Y007170D02*
X014485Y007098D01*
X014250Y007313D02*
X014106Y007313D01*
X014178Y007241D02*
X014178Y007528D01*
X014250Y007600D01*
X013933Y007528D02*
X013933Y007385D01*
X013861Y007313D01*
X013646Y007313D01*
X013646Y007743D01*
X013646Y007600D02*
X013861Y007600D01*
X013933Y007528D01*
X013472Y007528D02*
X013472Y007241D01*
X013401Y007170D01*
X013257Y007170D01*
X013185Y007241D01*
X013185Y007528D01*
X013257Y007600D01*
X013401Y007600D01*
X013472Y007528D01*
X013391Y004725D02*
X013248Y004725D01*
X013176Y004653D01*
X013463Y004366D01*
X013463Y004653D01*
X013391Y004725D01*
X013176Y004653D02*
X013176Y004366D01*
X013248Y004295D01*
X013391Y004295D01*
X013463Y004366D01*
X013003Y004725D02*
X012716Y004725D01*
X012859Y004725D02*
X012859Y004295D01*
X012716Y004438D01*
X012542Y004295D02*
X012542Y004653D01*
X012471Y004725D01*
X012327Y004725D01*
X012255Y004653D01*
X012255Y004295D01*
X012082Y004366D02*
X012082Y004510D01*
X012010Y004582D01*
X011795Y004582D01*
X011795Y004725D02*
X011795Y004295D01*
X012010Y004295D01*
X012082Y004366D01*
X014395Y004295D02*
X014610Y004295D01*
X014682Y004366D01*
X014682Y004510D01*
X014610Y004582D01*
X014395Y004582D01*
X014395Y004725D02*
X014395Y004295D01*
X014855Y004295D02*
X014855Y004653D01*
X014927Y004725D01*
X015071Y004725D01*
X015142Y004653D01*
X015142Y004295D01*
X015316Y004438D02*
X015459Y004295D01*
X015459Y004725D01*
X015316Y004725D02*
X015603Y004725D01*
X015776Y004725D02*
X016063Y004725D01*
X015920Y004725D02*
X015920Y004295D01*
X015776Y004438D01*
X016795Y004295D02*
X017010Y004295D01*
X017082Y004366D01*
X017082Y004510D01*
X017010Y004582D01*
X016795Y004582D01*
X016795Y004725D02*
X016795Y004295D01*
X017255Y004295D02*
X017255Y004653D01*
X017327Y004725D01*
X017471Y004725D01*
X017542Y004653D01*
X017542Y004295D01*
X017716Y004438D02*
X017859Y004295D01*
X017859Y004725D01*
X017716Y004725D02*
X018003Y004725D01*
X018176Y004725D02*
X018463Y004438D01*
X018463Y004366D01*
X018391Y004295D01*
X018248Y004295D01*
X018176Y004366D01*
X018176Y004725D02*
X018463Y004725D01*
X019295Y004725D02*
X019295Y004295D01*
X019510Y004295D01*
X019582Y004366D01*
X019582Y004510D01*
X019510Y004582D01*
X019295Y004582D01*
X019755Y004653D02*
X019755Y004295D01*
X020042Y004295D02*
X020042Y004653D01*
X019971Y004725D01*
X019827Y004725D01*
X019755Y004653D01*
X020216Y004725D02*
X020503Y004725D01*
X020359Y004725D02*
X020359Y004295D01*
X020216Y004438D01*
X020676Y004366D02*
X020748Y004295D01*
X020891Y004295D01*
X020963Y004366D01*
X020963Y004438D01*
X020891Y004510D01*
X020963Y004582D01*
X020963Y004653D01*
X020891Y004725D01*
X020748Y004725D01*
X020676Y004653D01*
X020820Y004510D02*
X020891Y004510D01*
X022095Y004582D02*
X022310Y004582D01*
X022382Y004510D01*
X022382Y004366D01*
X022310Y004295D01*
X022095Y004295D01*
X022095Y004725D01*
X022555Y004653D02*
X022555Y004295D01*
X022842Y004295D02*
X022842Y004653D01*
X022771Y004725D01*
X022627Y004725D01*
X022555Y004653D01*
X023016Y004725D02*
X023303Y004725D01*
X023159Y004725D02*
X023159Y004295D01*
X023016Y004438D01*
X024595Y004295D02*
X024810Y004295D01*
X024882Y004366D01*
X024882Y004510D01*
X024810Y004582D01*
X024595Y004582D01*
X024595Y004725D02*
X024595Y004295D01*
X025055Y004295D02*
X025055Y004653D01*
X025127Y004725D01*
X025271Y004725D01*
X025342Y004653D01*
X025342Y004295D01*
X025516Y004366D02*
X025588Y004295D01*
X025731Y004295D01*
X025803Y004366D01*
X025516Y004653D01*
X025588Y004725D01*
X025731Y004725D01*
X025803Y004653D01*
X025803Y004366D01*
X025516Y004366D02*
X025516Y004653D01*
X017355Y010595D02*
X017355Y010953D01*
M02*
