G75*
%MOIN*%
%OFA0B0*%
%FSLAX24Y24*%
%IPPOS*%
%LPD*%
%AMOC8*
5,1,8,0,0,1.08239X$1,22.5*
%
%ADD10C,0.0000*%
D10*
X000160Y000160D02*
X031560Y000160D01*
X031560Y015152D01*
X000160Y015152D01*
X000160Y000160D01*
X001259Y000910D02*
X001261Y000957D01*
X001267Y001003D01*
X001277Y001049D01*
X001290Y001094D01*
X001308Y001137D01*
X001329Y001179D01*
X001353Y001219D01*
X001381Y001256D01*
X001412Y001291D01*
X001446Y001324D01*
X001482Y001353D01*
X001521Y001379D01*
X001562Y001402D01*
X001605Y001421D01*
X001649Y001437D01*
X001694Y001449D01*
X001740Y001457D01*
X001787Y001461D01*
X001833Y001461D01*
X001880Y001457D01*
X001926Y001449D01*
X001971Y001437D01*
X002015Y001421D01*
X002058Y001402D01*
X002099Y001379D01*
X002138Y001353D01*
X002174Y001324D01*
X002208Y001291D01*
X002239Y001256D01*
X002267Y001219D01*
X002291Y001179D01*
X002312Y001137D01*
X002330Y001094D01*
X002343Y001049D01*
X002353Y001003D01*
X002359Y000957D01*
X002361Y000910D01*
X002359Y000863D01*
X002353Y000817D01*
X002343Y000771D01*
X002330Y000726D01*
X002312Y000683D01*
X002291Y000641D01*
X002267Y000601D01*
X002239Y000564D01*
X002208Y000529D01*
X002174Y000496D01*
X002138Y000467D01*
X002099Y000441D01*
X002058Y000418D01*
X002015Y000399D01*
X001971Y000383D01*
X001926Y000371D01*
X001880Y000363D01*
X001833Y000359D01*
X001787Y000359D01*
X001740Y000363D01*
X001694Y000371D01*
X001649Y000383D01*
X001605Y000399D01*
X001562Y000418D01*
X001521Y000441D01*
X001482Y000467D01*
X001446Y000496D01*
X001412Y000529D01*
X001381Y000564D01*
X001353Y000601D01*
X001329Y000641D01*
X001308Y000683D01*
X001290Y000726D01*
X001277Y000771D01*
X001267Y000817D01*
X001261Y000863D01*
X001259Y000910D01*
X009759Y000910D02*
X009761Y000957D01*
X009767Y001003D01*
X009777Y001049D01*
X009790Y001094D01*
X009808Y001137D01*
X009829Y001179D01*
X009853Y001219D01*
X009881Y001256D01*
X009912Y001291D01*
X009946Y001324D01*
X009982Y001353D01*
X010021Y001379D01*
X010062Y001402D01*
X010105Y001421D01*
X010149Y001437D01*
X010194Y001449D01*
X010240Y001457D01*
X010287Y001461D01*
X010333Y001461D01*
X010380Y001457D01*
X010426Y001449D01*
X010471Y001437D01*
X010515Y001421D01*
X010558Y001402D01*
X010599Y001379D01*
X010638Y001353D01*
X010674Y001324D01*
X010708Y001291D01*
X010739Y001256D01*
X010767Y001219D01*
X010791Y001179D01*
X010812Y001137D01*
X010830Y001094D01*
X010843Y001049D01*
X010853Y001003D01*
X010859Y000957D01*
X010861Y000910D01*
X010859Y000863D01*
X010853Y000817D01*
X010843Y000771D01*
X010830Y000726D01*
X010812Y000683D01*
X010791Y000641D01*
X010767Y000601D01*
X010739Y000564D01*
X010708Y000529D01*
X010674Y000496D01*
X010638Y000467D01*
X010599Y000441D01*
X010558Y000418D01*
X010515Y000399D01*
X010471Y000383D01*
X010426Y000371D01*
X010380Y000363D01*
X010333Y000359D01*
X010287Y000359D01*
X010240Y000363D01*
X010194Y000371D01*
X010149Y000383D01*
X010105Y000399D01*
X010062Y000418D01*
X010021Y000441D01*
X009982Y000467D01*
X009946Y000496D01*
X009912Y000529D01*
X009881Y000564D01*
X009853Y000601D01*
X009829Y000641D01*
X009808Y000683D01*
X009790Y000726D01*
X009777Y000771D01*
X009767Y000817D01*
X009761Y000863D01*
X009759Y000910D01*
X030259Y000910D02*
X030261Y000957D01*
X030267Y001003D01*
X030277Y001049D01*
X030290Y001094D01*
X030308Y001137D01*
X030329Y001179D01*
X030353Y001219D01*
X030381Y001256D01*
X030412Y001291D01*
X030446Y001324D01*
X030482Y001353D01*
X030521Y001379D01*
X030562Y001402D01*
X030605Y001421D01*
X030649Y001437D01*
X030694Y001449D01*
X030740Y001457D01*
X030787Y001461D01*
X030833Y001461D01*
X030880Y001457D01*
X030926Y001449D01*
X030971Y001437D01*
X031015Y001421D01*
X031058Y001402D01*
X031099Y001379D01*
X031138Y001353D01*
X031174Y001324D01*
X031208Y001291D01*
X031239Y001256D01*
X031267Y001219D01*
X031291Y001179D01*
X031312Y001137D01*
X031330Y001094D01*
X031343Y001049D01*
X031353Y001003D01*
X031359Y000957D01*
X031361Y000910D01*
X031359Y000863D01*
X031353Y000817D01*
X031343Y000771D01*
X031330Y000726D01*
X031312Y000683D01*
X031291Y000641D01*
X031267Y000601D01*
X031239Y000564D01*
X031208Y000529D01*
X031174Y000496D01*
X031138Y000467D01*
X031099Y000441D01*
X031058Y000418D01*
X031015Y000399D01*
X030971Y000383D01*
X030926Y000371D01*
X030880Y000363D01*
X030833Y000359D01*
X030787Y000359D01*
X030740Y000363D01*
X030694Y000371D01*
X030649Y000383D01*
X030605Y000399D01*
X030562Y000418D01*
X030521Y000441D01*
X030482Y000467D01*
X030446Y000496D01*
X030412Y000529D01*
X030381Y000564D01*
X030353Y000601D01*
X030329Y000641D01*
X030308Y000683D01*
X030290Y000726D01*
X030277Y000771D01*
X030267Y000817D01*
X030261Y000863D01*
X030259Y000910D01*
X030259Y014410D02*
X030261Y014457D01*
X030267Y014503D01*
X030277Y014549D01*
X030290Y014594D01*
X030308Y014637D01*
X030329Y014679D01*
X030353Y014719D01*
X030381Y014756D01*
X030412Y014791D01*
X030446Y014824D01*
X030482Y014853D01*
X030521Y014879D01*
X030562Y014902D01*
X030605Y014921D01*
X030649Y014937D01*
X030694Y014949D01*
X030740Y014957D01*
X030787Y014961D01*
X030833Y014961D01*
X030880Y014957D01*
X030926Y014949D01*
X030971Y014937D01*
X031015Y014921D01*
X031058Y014902D01*
X031099Y014879D01*
X031138Y014853D01*
X031174Y014824D01*
X031208Y014791D01*
X031239Y014756D01*
X031267Y014719D01*
X031291Y014679D01*
X031312Y014637D01*
X031330Y014594D01*
X031343Y014549D01*
X031353Y014503D01*
X031359Y014457D01*
X031361Y014410D01*
X031359Y014363D01*
X031353Y014317D01*
X031343Y014271D01*
X031330Y014226D01*
X031312Y014183D01*
X031291Y014141D01*
X031267Y014101D01*
X031239Y014064D01*
X031208Y014029D01*
X031174Y013996D01*
X031138Y013967D01*
X031099Y013941D01*
X031058Y013918D01*
X031015Y013899D01*
X030971Y013883D01*
X030926Y013871D01*
X030880Y013863D01*
X030833Y013859D01*
X030787Y013859D01*
X030740Y013863D01*
X030694Y013871D01*
X030649Y013883D01*
X030605Y013899D01*
X030562Y013918D01*
X030521Y013941D01*
X030482Y013967D01*
X030446Y013996D01*
X030412Y014029D01*
X030381Y014064D01*
X030353Y014101D01*
X030329Y014141D01*
X030308Y014183D01*
X030290Y014226D01*
X030277Y014271D01*
X030267Y014317D01*
X030261Y014363D01*
X030259Y014410D01*
X009759Y014410D02*
X009761Y014457D01*
X009767Y014503D01*
X009777Y014549D01*
X009790Y014594D01*
X009808Y014637D01*
X009829Y014679D01*
X009853Y014719D01*
X009881Y014756D01*
X009912Y014791D01*
X009946Y014824D01*
X009982Y014853D01*
X010021Y014879D01*
X010062Y014902D01*
X010105Y014921D01*
X010149Y014937D01*
X010194Y014949D01*
X010240Y014957D01*
X010287Y014961D01*
X010333Y014961D01*
X010380Y014957D01*
X010426Y014949D01*
X010471Y014937D01*
X010515Y014921D01*
X010558Y014902D01*
X010599Y014879D01*
X010638Y014853D01*
X010674Y014824D01*
X010708Y014791D01*
X010739Y014756D01*
X010767Y014719D01*
X010791Y014679D01*
X010812Y014637D01*
X010830Y014594D01*
X010843Y014549D01*
X010853Y014503D01*
X010859Y014457D01*
X010861Y014410D01*
X010859Y014363D01*
X010853Y014317D01*
X010843Y014271D01*
X010830Y014226D01*
X010812Y014183D01*
X010791Y014141D01*
X010767Y014101D01*
X010739Y014064D01*
X010708Y014029D01*
X010674Y013996D01*
X010638Y013967D01*
X010599Y013941D01*
X010558Y013918D01*
X010515Y013899D01*
X010471Y013883D01*
X010426Y013871D01*
X010380Y013863D01*
X010333Y013859D01*
X010287Y013859D01*
X010240Y013863D01*
X010194Y013871D01*
X010149Y013883D01*
X010105Y013899D01*
X010062Y013918D01*
X010021Y013941D01*
X009982Y013967D01*
X009946Y013996D01*
X009912Y014029D01*
X009881Y014064D01*
X009853Y014101D01*
X009829Y014141D01*
X009808Y014183D01*
X009790Y014226D01*
X009777Y014271D01*
X009767Y014317D01*
X009761Y014363D01*
X009759Y014410D01*
X001259Y014410D02*
X001261Y014457D01*
X001267Y014503D01*
X001277Y014549D01*
X001290Y014594D01*
X001308Y014637D01*
X001329Y014679D01*
X001353Y014719D01*
X001381Y014756D01*
X001412Y014791D01*
X001446Y014824D01*
X001482Y014853D01*
X001521Y014879D01*
X001562Y014902D01*
X001605Y014921D01*
X001649Y014937D01*
X001694Y014949D01*
X001740Y014957D01*
X001787Y014961D01*
X001833Y014961D01*
X001880Y014957D01*
X001926Y014949D01*
X001971Y014937D01*
X002015Y014921D01*
X002058Y014902D01*
X002099Y014879D01*
X002138Y014853D01*
X002174Y014824D01*
X002208Y014791D01*
X002239Y014756D01*
X002267Y014719D01*
X002291Y014679D01*
X002312Y014637D01*
X002330Y014594D01*
X002343Y014549D01*
X002353Y014503D01*
X002359Y014457D01*
X002361Y014410D01*
X002359Y014363D01*
X002353Y014317D01*
X002343Y014271D01*
X002330Y014226D01*
X002312Y014183D01*
X002291Y014141D01*
X002267Y014101D01*
X002239Y014064D01*
X002208Y014029D01*
X002174Y013996D01*
X002138Y013967D01*
X002099Y013941D01*
X002058Y013918D01*
X002015Y013899D01*
X001971Y013883D01*
X001926Y013871D01*
X001880Y013863D01*
X001833Y013859D01*
X001787Y013859D01*
X001740Y013863D01*
X001694Y013871D01*
X001649Y013883D01*
X001605Y013899D01*
X001562Y013918D01*
X001521Y013941D01*
X001482Y013967D01*
X001446Y013996D01*
X001412Y014029D01*
X001381Y014064D01*
X001353Y014101D01*
X001329Y014141D01*
X001308Y014183D01*
X001290Y014226D01*
X001277Y014271D01*
X001267Y014317D01*
X001261Y014363D01*
X001259Y014410D01*
M02*
