G75*
%MOIN*%
%OFA0B0*%
%FSLAX24Y24*%
%IPPOS*%
%LPD*%
%AMOC8*
5,1,8,0,0,1.08239X$1,22.5*
%
%ADD10C,0.1162*%
%ADD11R,0.0800X0.0800*%
%ADD12C,0.0800*%
%ADD13R,0.1010X0.1010*%
%ADD14C,0.1010*%
%ADD15R,0.0860X0.0860*%
%ADD16C,0.0860*%
%ADD17OC8,0.0740*%
%ADD18R,0.0690X0.0769*%
%ADD19R,0.0769X0.0690*%
%ADD20C,0.0436*%
D10*
X001810Y000910D03*
X010310Y000910D03*
X030810Y000910D03*
X030810Y014410D03*
X010310Y014410D03*
X001810Y014410D03*
D11*
X010060Y012660D03*
D12*
X009060Y012660D03*
X008060Y012660D03*
X007060Y012660D03*
X006060Y012660D03*
X005060Y012660D03*
X004060Y012660D03*
X003060Y012660D03*
X003060Y006660D03*
X002060Y006660D03*
X004060Y006660D03*
X005060Y006660D03*
X006060Y006660D03*
X007060Y006660D03*
X008060Y006660D03*
X009060Y006660D03*
X010060Y006660D03*
D13*
X015180Y001560D03*
X019310Y001560D03*
X019290Y013680D03*
X015160Y013680D03*
X023420Y013680D03*
X027550Y013680D03*
D14*
X026172Y013680D03*
X024794Y013680D03*
X022042Y013680D03*
X020664Y013680D03*
X017912Y013680D03*
X016534Y013680D03*
X013782Y013680D03*
X012404Y013680D03*
X012424Y001560D03*
X013802Y001560D03*
X016554Y001560D03*
X017932Y001560D03*
D15*
X020690Y001560D03*
X023440Y001560D03*
X030160Y007410D03*
X030160Y010160D03*
D16*
X030160Y008788D03*
X030160Y011538D03*
X024818Y001560D03*
X022068Y001560D03*
D17*
X007660Y001660D03*
X006660Y001660D03*
X005660Y001660D03*
X004660Y001660D03*
X004660Y004660D03*
X005660Y004660D03*
X006660Y004660D03*
X007660Y004660D03*
D18*
X012109Y003660D03*
X013211Y003660D03*
X014609Y003660D03*
X015711Y003660D03*
X017109Y003660D03*
X018211Y003660D03*
X019609Y003660D03*
X020711Y003660D03*
X022109Y003660D03*
X023211Y003660D03*
X024609Y003660D03*
X025711Y003660D03*
X025711Y011660D03*
X024609Y011660D03*
X023211Y011660D03*
X022109Y011660D03*
X020711Y011660D03*
X019609Y011660D03*
X018211Y011660D03*
X017109Y011660D03*
X015711Y011660D03*
X014609Y011660D03*
X013211Y011660D03*
X012109Y011660D03*
D19*
X028160Y011211D03*
X028160Y010109D03*
X028160Y008611D03*
X028160Y007509D03*
D20*
X025860Y006560D03*
X025860Y004560D03*
X023160Y004560D03*
X020760Y004560D03*
X018260Y004560D03*
X015660Y004560D03*
X012560Y004560D03*
X015960Y006460D03*
X018260Y006460D03*
X027260Y009560D03*
X024660Y012560D03*
X022060Y012560D03*
X019260Y012560D03*
X017160Y012560D03*
X015160Y012560D03*
X011860Y012560D03*
M02*
