G75*
%MOIN*%
%OFA0B0*%
%FSLAX24Y24*%
%IPPOS*%
%LPD*%
%AMOC8*
5,1,8,0,0,1.08239X$1,22.5*
%
%ADD10R,0.0740X0.0740*%
%ADD11C,0.0740*%
%ADD12R,0.0950X0.0950*%
%ADD13C,0.0950*%
%ADD14R,0.0800X0.0800*%
%ADD15C,0.0800*%
%ADD16OC8,0.0680*%
%ADD17R,0.0630X0.0709*%
%ADD18R,0.0709X0.0630*%
%ADD19C,0.0120*%
%ADD20C,0.0376*%
D10*
X010060Y012660D03*
D11*
X009060Y012660D03*
X008060Y012660D03*
X007060Y012660D03*
X006060Y012660D03*
X005060Y012660D03*
X004060Y012660D03*
X003060Y012660D03*
X003060Y006660D03*
X002060Y006660D03*
X004060Y006660D03*
X005060Y006660D03*
X006060Y006660D03*
X007060Y006660D03*
X008060Y006660D03*
X009060Y006660D03*
X010060Y006660D03*
D12*
X015180Y001560D03*
X019310Y001560D03*
X019290Y013680D03*
X015160Y013680D03*
X023420Y013680D03*
X027550Y013680D03*
D13*
X026172Y013680D03*
X024794Y013680D03*
X022042Y013680D03*
X020664Y013680D03*
X017912Y013680D03*
X016534Y013680D03*
X013782Y013680D03*
X012404Y013680D03*
X012424Y001560D03*
X013802Y001560D03*
X016554Y001560D03*
X017932Y001560D03*
D14*
X020690Y001560D03*
X023440Y001560D03*
X030160Y007410D03*
X030160Y010160D03*
D15*
X030160Y008788D03*
X030160Y011538D03*
X024818Y001560D03*
X022068Y001560D03*
D16*
X007660Y001660D03*
X006660Y001660D03*
X005660Y001660D03*
X004660Y001660D03*
X004660Y004660D03*
X005660Y004660D03*
X006660Y004660D03*
X007660Y004660D03*
D17*
X012109Y003660D03*
X013211Y003660D03*
X014609Y003660D03*
X015711Y003660D03*
X017109Y003660D03*
X018211Y003660D03*
X019609Y003660D03*
X020711Y003660D03*
X022109Y003660D03*
X023211Y003660D03*
X024609Y003660D03*
X025711Y003660D03*
X025711Y011660D03*
X024609Y011660D03*
X023211Y011660D03*
X022109Y011660D03*
X020711Y011660D03*
X019609Y011660D03*
X018211Y011660D03*
X017109Y011660D03*
X015711Y011660D03*
X014609Y011660D03*
X013211Y011660D03*
X012109Y011660D03*
D18*
X028160Y011211D03*
X028160Y010109D03*
X028160Y008611D03*
X028160Y007509D03*
D19*
X000370Y000370D02*
X000370Y014942D01*
X001266Y014942D01*
X001165Y014841D01*
X001049Y014561D01*
X001049Y014259D01*
X001165Y013979D01*
X001379Y013765D01*
X001659Y013649D01*
X001961Y013649D01*
X002241Y013765D01*
X002455Y013979D01*
X002571Y014259D01*
X002571Y014561D01*
X002455Y014841D01*
X002354Y014942D01*
X009766Y014942D01*
X009665Y014841D01*
X009549Y014561D01*
X009549Y014259D01*
X009665Y013979D01*
X009879Y013765D01*
X010159Y013649D01*
X010461Y013649D01*
X010741Y013765D01*
X010955Y013979D01*
X011071Y014259D01*
X011071Y014561D01*
X010955Y014841D01*
X010854Y014942D01*
X030266Y014942D01*
X030165Y014841D01*
X030049Y014561D01*
X030049Y014259D01*
X030165Y013979D01*
X030379Y013765D01*
X030659Y013649D01*
X030961Y013649D01*
X031241Y013765D01*
X031350Y013874D01*
X031350Y001446D01*
X031241Y001555D01*
X030961Y001671D01*
X030659Y001671D01*
X030379Y001555D01*
X030165Y001341D01*
X030049Y001061D01*
X030049Y000759D01*
X030165Y000479D01*
X030274Y000370D01*
X010846Y000370D01*
X010955Y000479D01*
X011071Y000759D01*
X011071Y001061D01*
X010955Y001341D01*
X010741Y001555D01*
X010461Y001671D01*
X010159Y001671D01*
X009879Y001555D01*
X009665Y001341D01*
X009549Y001061D01*
X009549Y000759D01*
X009665Y000479D01*
X009774Y000370D01*
X002346Y000370D01*
X002455Y000479D01*
X002571Y000759D01*
X002571Y001061D01*
X002455Y001341D01*
X002241Y001555D01*
X001961Y001671D01*
X001659Y001671D01*
X001379Y001555D01*
X001165Y001341D01*
X001049Y001061D01*
X001049Y000759D01*
X001165Y000479D01*
X001274Y000370D01*
X000370Y000370D01*
X000370Y000397D02*
X001247Y000397D01*
X001150Y000516D02*
X000370Y000516D01*
X000370Y000634D02*
X001100Y000634D01*
X001051Y000753D02*
X000370Y000753D01*
X000370Y000871D02*
X001049Y000871D01*
X001049Y000990D02*
X000370Y000990D01*
X000370Y001108D02*
X001068Y001108D01*
X001117Y001227D02*
X000370Y001227D01*
X000370Y001345D02*
X001169Y001345D01*
X001287Y001464D02*
X000370Y001464D01*
X000370Y001582D02*
X001443Y001582D01*
X002177Y001582D02*
X004140Y001582D01*
X004140Y001464D02*
X002333Y001464D01*
X002451Y001345D02*
X004240Y001345D01*
X004140Y001445D02*
X004445Y001140D01*
X004875Y001140D01*
X005160Y001425D01*
X005445Y001140D01*
X005875Y001140D01*
X006160Y001425D01*
X006445Y001140D01*
X006875Y001140D01*
X007174Y001439D01*
X007453Y001160D01*
X007640Y001160D01*
X007640Y001640D01*
X007680Y001640D01*
X007680Y001680D01*
X008160Y001680D01*
X008160Y001867D01*
X007867Y002160D01*
X007680Y002160D01*
X007680Y001680D01*
X007640Y001680D01*
X007640Y002160D01*
X007453Y002160D01*
X007174Y001881D01*
X006875Y002180D01*
X006445Y002180D01*
X006160Y001895D01*
X005900Y002155D01*
X005900Y002861D01*
X006559Y003520D01*
X011614Y003520D01*
X011614Y003231D01*
X011719Y003126D01*
X012231Y003126D01*
X013229Y001888D01*
X013147Y001690D01*
X013147Y001430D01*
X013247Y001189D01*
X013431Y001005D01*
X013672Y000905D01*
X013932Y000905D01*
X014173Y001005D01*
X014357Y001189D01*
X014457Y001430D01*
X014457Y001690D01*
X014357Y001931D01*
X014173Y002115D01*
X013932Y002215D01*
X013672Y002215D01*
X013605Y002187D01*
X012848Y003126D01*
X013601Y003126D01*
X013706Y003231D01*
X013706Y004089D01*
X013601Y004194D01*
X013265Y004194D01*
X012928Y004531D01*
X012928Y004633D01*
X012872Y004769D01*
X012769Y004872D01*
X012633Y004928D01*
X012487Y004928D01*
X012351Y004872D01*
X012248Y004769D01*
X012192Y004633D01*
X012192Y004487D01*
X012248Y004351D01*
X012351Y004248D01*
X012481Y004194D01*
X011719Y004194D01*
X011614Y004089D01*
X011614Y004000D01*
X006412Y004000D01*
X006324Y003963D01*
X006257Y003896D01*
X005457Y003096D01*
X005420Y003008D01*
X005420Y002155D01*
X005160Y001895D01*
X004875Y002180D01*
X004445Y002180D01*
X004140Y001875D01*
X004140Y001445D01*
X004358Y001227D02*
X002503Y001227D01*
X002552Y001108D02*
X009568Y001108D01*
X009549Y000990D02*
X002571Y000990D01*
X002571Y000871D02*
X009549Y000871D01*
X009551Y000753D02*
X002569Y000753D01*
X002520Y000634D02*
X009600Y000634D01*
X009650Y000516D02*
X002470Y000516D01*
X002373Y000397D02*
X009747Y000397D01*
X010873Y000397D02*
X030247Y000397D01*
X030150Y000516D02*
X010970Y000516D01*
X011020Y000634D02*
X030100Y000634D01*
X030051Y000753D02*
X011069Y000753D01*
X011071Y000871D02*
X030049Y000871D01*
X030049Y000990D02*
X023924Y000990D01*
X023915Y000980D02*
X024020Y001085D01*
X024020Y001801D01*
X024812Y002593D01*
X024849Y002681D01*
X024849Y003126D01*
X024998Y003126D01*
X025104Y003231D01*
X025104Y004089D01*
X024998Y004194D01*
X024849Y004194D01*
X024849Y008108D01*
X024812Y008196D01*
X024745Y008263D01*
X024657Y008300D01*
X011412Y008300D01*
X011324Y008263D01*
X011257Y008196D01*
X010241Y007180D01*
X010169Y007210D01*
X009951Y007210D01*
X009748Y007126D01*
X009594Y006972D01*
X009560Y006890D01*
X009526Y006972D01*
X009372Y007126D01*
X009169Y007210D01*
X008951Y007210D01*
X008748Y007126D01*
X008594Y006972D01*
X008560Y006890D01*
X008526Y006972D01*
X008372Y007126D01*
X008169Y007210D01*
X007951Y007210D01*
X007748Y007126D01*
X007594Y006972D01*
X007560Y006890D01*
X007526Y006972D01*
X007372Y007126D01*
X007169Y007210D01*
X006951Y007210D01*
X006748Y007126D01*
X006594Y006972D01*
X006560Y006890D01*
X006526Y006972D01*
X006372Y007126D01*
X006169Y007210D01*
X005951Y007210D01*
X005748Y007126D01*
X005594Y006972D01*
X005560Y006890D01*
X005526Y006972D01*
X005372Y007126D01*
X005169Y007210D01*
X004951Y007210D01*
X004748Y007126D01*
X004594Y006972D01*
X004560Y006890D01*
X004526Y006972D01*
X004372Y007126D01*
X004169Y007210D01*
X003951Y007210D01*
X003748Y007126D01*
X003594Y006972D01*
X003550Y006866D01*
X003513Y006938D01*
X003464Y007005D01*
X003405Y007064D01*
X003338Y007113D01*
X003263Y007151D01*
X003184Y007177D01*
X003102Y007190D01*
X003100Y007190D01*
X003100Y006700D01*
X003020Y006700D01*
X003020Y007190D01*
X003018Y007190D01*
X002936Y007177D01*
X002857Y007151D01*
X002782Y007113D01*
X002715Y007064D01*
X002656Y007005D01*
X002607Y006938D01*
X002570Y006866D01*
X002526Y006972D01*
X002372Y007126D01*
X002169Y007210D01*
X001951Y007210D01*
X001748Y007126D01*
X001594Y006972D01*
X001510Y006769D01*
X001510Y006551D01*
X001594Y006348D01*
X001748Y006194D01*
X001951Y006110D01*
X002169Y006110D01*
X002372Y006194D01*
X002526Y006348D01*
X002570Y006454D01*
X002607Y006382D01*
X002656Y006315D01*
X002715Y006256D01*
X002782Y006207D01*
X002857Y006169D01*
X002936Y006143D01*
X003018Y006130D01*
X003020Y006130D01*
X003020Y006620D01*
X003100Y006620D01*
X003100Y006130D01*
X003102Y006130D01*
X003184Y006143D01*
X003263Y006169D01*
X003338Y006207D01*
X003405Y006256D01*
X003464Y006315D01*
X003513Y006382D01*
X003550Y006454D01*
X003594Y006348D01*
X003748Y006194D01*
X003951Y006110D01*
X004169Y006110D01*
X004372Y006194D01*
X004526Y006348D01*
X004560Y006430D01*
X004594Y006348D01*
X004748Y006194D01*
X004820Y006164D01*
X004820Y005912D01*
X004857Y005824D01*
X005257Y005424D01*
X005324Y005357D01*
X005412Y005320D01*
X006781Y005320D01*
X006641Y005180D01*
X006445Y005180D01*
X006160Y004895D01*
X005875Y005180D01*
X005445Y005180D01*
X005160Y004895D01*
X004875Y005180D01*
X004445Y005180D01*
X004140Y004875D01*
X004140Y004445D01*
X004445Y004140D01*
X004875Y004140D01*
X005160Y004425D01*
X005445Y004140D01*
X005875Y004140D01*
X006160Y004425D01*
X006445Y004140D01*
X006875Y004140D01*
X007160Y004425D01*
X007445Y004140D01*
X007875Y004140D01*
X008180Y004445D01*
X008180Y004875D01*
X008035Y005020D01*
X012909Y005020D01*
X014114Y003816D01*
X014114Y003231D01*
X014219Y003126D01*
X014505Y003126D01*
X014753Y002215D01*
X014630Y002215D01*
X014525Y002110D01*
X014525Y001010D01*
X014630Y000905D01*
X015730Y000905D01*
X015835Y001010D01*
X015835Y002110D01*
X015730Y002215D01*
X015251Y002215D01*
X015002Y003129D01*
X015104Y003231D01*
X015104Y004089D01*
X014998Y004194D01*
X014414Y004194D01*
X013145Y005463D01*
X013057Y005500D01*
X011939Y005500D01*
X012659Y006220D01*
X015679Y006220D01*
X015751Y006148D01*
X015887Y006092D01*
X016033Y006092D01*
X016169Y006148D01*
X016272Y006251D01*
X016328Y006387D01*
X016328Y006533D01*
X016272Y006669D01*
X016169Y006772D01*
X016033Y006828D01*
X015887Y006828D01*
X015751Y006772D01*
X015679Y006700D01*
X012512Y006700D01*
X012424Y006663D01*
X012357Y006596D01*
X011561Y005800D01*
X011239Y005800D01*
X012459Y007020D01*
X016869Y007020D01*
X016869Y004194D01*
X016719Y004194D01*
X016614Y004089D01*
X016614Y003231D01*
X016719Y003126D01*
X016719Y003126D01*
X016479Y002215D01*
X016424Y002215D01*
X016183Y002115D01*
X015999Y001931D01*
X015899Y001690D01*
X015899Y001430D01*
X015999Y001189D01*
X016183Y001005D01*
X016424Y000905D01*
X016684Y000905D01*
X016925Y001005D01*
X017109Y001189D01*
X017209Y001430D01*
X017209Y001690D01*
X017109Y001931D01*
X016944Y002096D01*
X017216Y003126D01*
X017498Y003126D01*
X017604Y003231D01*
X017604Y004089D01*
X017498Y004194D01*
X017349Y004194D01*
X017349Y007308D01*
X017312Y007396D01*
X017288Y007420D01*
X021869Y007420D01*
X021869Y004194D01*
X021719Y004194D01*
X021614Y004089D01*
X021614Y003231D01*
X021719Y003126D01*
X021858Y003126D01*
X021838Y002093D01*
X021739Y002052D01*
X021576Y001889D01*
X021488Y001675D01*
X021488Y001445D01*
X021576Y001231D01*
X021739Y001068D01*
X021953Y000980D01*
X022183Y000980D01*
X022396Y001068D01*
X022560Y001231D01*
X022648Y001445D01*
X022648Y001675D01*
X022560Y001889D01*
X022396Y002052D01*
X022318Y002084D01*
X022338Y003126D01*
X022498Y003126D01*
X022604Y003231D01*
X022604Y004089D01*
X022498Y004194D01*
X022349Y004194D01*
X022349Y007708D01*
X022312Y007796D01*
X022288Y007820D01*
X024369Y007820D01*
X024369Y004194D01*
X024219Y004194D01*
X024114Y004089D01*
X024114Y003231D01*
X024219Y003126D01*
X024369Y003126D01*
X024369Y002828D01*
X023681Y002140D01*
X022965Y002140D01*
X022860Y002035D01*
X022860Y001085D01*
X022965Y000980D01*
X023915Y000980D01*
X024020Y001108D02*
X024487Y001108D01*
X024453Y001133D02*
X024524Y001081D01*
X024603Y001041D01*
X024687Y001014D01*
X024760Y001002D01*
X024760Y001502D01*
X024876Y001502D01*
X024876Y001618D01*
X025376Y001618D01*
X025364Y001691D01*
X025337Y001775D01*
X025297Y001854D01*
X025245Y001925D01*
X025183Y001987D01*
X025111Y002039D01*
X025033Y002079D01*
X024949Y002106D01*
X024876Y002118D01*
X024876Y001618D01*
X024760Y001618D01*
X024760Y002118D01*
X024687Y002106D01*
X024603Y002079D01*
X024524Y002039D01*
X024453Y001987D01*
X024391Y001925D01*
X024339Y001854D01*
X024299Y001775D01*
X024272Y001691D01*
X024260Y001618D01*
X024760Y001618D01*
X024760Y001502D01*
X024260Y001502D01*
X024272Y001429D01*
X024299Y001345D01*
X024020Y001345D01*
X024020Y001227D02*
X024368Y001227D01*
X024391Y001195D02*
X024339Y001266D01*
X024299Y001345D01*
X024266Y001464D02*
X024020Y001464D01*
X024020Y001582D02*
X024760Y001582D01*
X024876Y001582D02*
X030443Y001582D01*
X030287Y001464D02*
X025370Y001464D01*
X025364Y001429D02*
X025376Y001502D01*
X024876Y001502D01*
X024876Y001002D01*
X024949Y001014D01*
X025033Y001041D01*
X025111Y001081D01*
X025183Y001133D01*
X025245Y001195D01*
X025297Y001266D01*
X025337Y001345D01*
X025364Y001429D01*
X025337Y001345D02*
X030169Y001345D01*
X030117Y001227D02*
X025268Y001227D01*
X025149Y001108D02*
X030068Y001108D01*
X031177Y001582D02*
X031350Y001582D01*
X031350Y001464D02*
X031333Y001464D01*
X031350Y001701D02*
X025361Y001701D01*
X025314Y001819D02*
X031350Y001819D01*
X031350Y001938D02*
X025232Y001938D01*
X025078Y002056D02*
X031350Y002056D01*
X031350Y002175D02*
X024394Y002175D01*
X024512Y002293D02*
X031350Y002293D01*
X031350Y002412D02*
X024631Y002412D01*
X024749Y002530D02*
X031350Y002530D01*
X031350Y002649D02*
X024835Y002649D01*
X024849Y002767D02*
X031350Y002767D01*
X031350Y002886D02*
X024849Y002886D01*
X024849Y003004D02*
X031350Y003004D01*
X031350Y003123D02*
X024849Y003123D01*
X025104Y003241D02*
X025216Y003241D01*
X025216Y003231D02*
X025322Y003126D01*
X026101Y003126D01*
X026206Y003231D01*
X026206Y004089D01*
X026101Y004194D01*
X026100Y004194D01*
X026100Y004279D01*
X026172Y004351D01*
X026228Y004487D01*
X026228Y004633D01*
X026172Y004769D01*
X026069Y004872D01*
X025933Y004928D01*
X025787Y004928D01*
X025651Y004872D01*
X025548Y004769D01*
X025492Y004633D01*
X025492Y004487D01*
X025548Y004351D01*
X025620Y004279D01*
X025620Y004194D01*
X025322Y004194D01*
X025216Y004089D01*
X025216Y003231D01*
X025216Y003360D02*
X025104Y003360D01*
X025104Y003478D02*
X025216Y003478D01*
X025216Y003597D02*
X025104Y003597D01*
X025104Y003715D02*
X025216Y003715D01*
X025216Y003834D02*
X025104Y003834D01*
X025104Y003952D02*
X025216Y003952D01*
X025216Y004071D02*
X025104Y004071D01*
X025004Y004189D02*
X025316Y004189D01*
X025592Y004308D02*
X024849Y004308D01*
X024849Y004426D02*
X025517Y004426D01*
X025492Y004545D02*
X024849Y004545D01*
X024849Y004663D02*
X025504Y004663D01*
X025561Y004782D02*
X024849Y004782D01*
X024849Y004900D02*
X025719Y004900D01*
X026001Y004900D02*
X031350Y004900D01*
X031350Y004782D02*
X026159Y004782D01*
X026216Y004663D02*
X031350Y004663D01*
X031350Y004545D02*
X026228Y004545D01*
X026203Y004426D02*
X031350Y004426D01*
X031350Y004308D02*
X026128Y004308D01*
X026106Y004189D02*
X031350Y004189D01*
X031350Y004071D02*
X026206Y004071D01*
X026206Y003952D02*
X031350Y003952D01*
X031350Y003834D02*
X026206Y003834D01*
X026206Y003715D02*
X031350Y003715D01*
X031350Y003597D02*
X026206Y003597D01*
X026206Y003478D02*
X031350Y003478D01*
X031350Y003360D02*
X026206Y003360D01*
X026206Y003241D02*
X031350Y003241D01*
X031350Y005019D02*
X024849Y005019D01*
X024849Y005137D02*
X031350Y005137D01*
X031350Y005256D02*
X024849Y005256D01*
X024849Y005374D02*
X031350Y005374D01*
X031350Y005493D02*
X024849Y005493D01*
X024849Y005611D02*
X031350Y005611D01*
X031350Y005730D02*
X024849Y005730D01*
X024849Y005848D02*
X031350Y005848D01*
X031350Y005967D02*
X024849Y005967D01*
X024849Y006085D02*
X031350Y006085D01*
X031350Y006204D02*
X025961Y006204D01*
X025933Y006192D02*
X026069Y006248D01*
X026172Y006351D01*
X026228Y006487D01*
X026228Y006589D01*
X026908Y007269D01*
X027626Y007269D01*
X027626Y007119D01*
X027731Y007014D01*
X028589Y007014D01*
X028694Y007119D01*
X028694Y007269D01*
X029580Y007269D01*
X029580Y006935D01*
X029685Y006830D01*
X030635Y006830D01*
X030740Y006935D01*
X030740Y007885D01*
X030635Y007990D01*
X029685Y007990D01*
X029580Y007885D01*
X029580Y007749D01*
X028694Y007749D01*
X028694Y007898D01*
X028589Y008004D01*
X027731Y008004D01*
X027626Y007898D01*
X027626Y007749D01*
X026761Y007749D01*
X026673Y007712D01*
X025889Y006928D01*
X025787Y006928D01*
X025651Y006872D01*
X025548Y006769D01*
X025492Y006633D01*
X025492Y006487D01*
X025548Y006351D01*
X025651Y006248D01*
X025787Y006192D01*
X025933Y006192D01*
X025759Y006204D02*
X024849Y006204D01*
X024849Y006322D02*
X025577Y006322D01*
X025511Y006441D02*
X024849Y006441D01*
X024849Y006559D02*
X025492Y006559D01*
X025510Y006678D02*
X024849Y006678D01*
X024849Y006796D02*
X025575Y006796D01*
X025754Y006915D02*
X024849Y006915D01*
X024849Y007033D02*
X025994Y007033D01*
X026112Y007152D02*
X024849Y007152D01*
X024849Y007270D02*
X026231Y007270D01*
X026349Y007389D02*
X024849Y007389D01*
X024849Y007507D02*
X026468Y007507D01*
X026586Y007626D02*
X024849Y007626D01*
X024849Y007744D02*
X026749Y007744D01*
X026809Y007509D02*
X025860Y006560D01*
X026228Y006559D02*
X031350Y006559D01*
X031350Y006441D02*
X026209Y006441D01*
X026143Y006322D02*
X031350Y006322D01*
X031350Y006678D02*
X026317Y006678D01*
X026435Y006796D02*
X031350Y006796D01*
X031350Y006915D02*
X030719Y006915D01*
X030740Y007033D02*
X031350Y007033D01*
X031350Y007152D02*
X030740Y007152D01*
X030740Y007270D02*
X031350Y007270D01*
X031350Y007389D02*
X030740Y007389D01*
X030740Y007507D02*
X031350Y007507D01*
X031350Y007626D02*
X030740Y007626D01*
X030740Y007744D02*
X031350Y007744D01*
X031350Y007863D02*
X030740Y007863D01*
X030644Y007981D02*
X031350Y007981D01*
X031350Y008100D02*
X024849Y008100D01*
X024849Y007981D02*
X027708Y007981D01*
X027731Y008116D02*
X028589Y008116D01*
X028694Y008222D01*
X028694Y008721D01*
X029803Y009580D01*
X030635Y009580D01*
X030740Y009685D01*
X030740Y010635D01*
X030635Y010740D01*
X029685Y010740D01*
X029580Y010635D01*
X029580Y010014D01*
X028407Y009106D01*
X027731Y009106D01*
X027626Y009001D01*
X027626Y008851D01*
X027257Y008851D01*
X026588Y009520D01*
X026757Y009520D01*
X026845Y009557D01*
X026892Y009604D01*
X026892Y009487D01*
X026948Y009351D01*
X027051Y009248D01*
X027187Y009192D01*
X027333Y009192D01*
X027469Y009248D01*
X027572Y009351D01*
X027628Y009487D01*
X027628Y009589D01*
X027692Y009653D01*
X027731Y009614D01*
X028589Y009614D01*
X028694Y009719D01*
X028694Y010498D01*
X028589Y010604D01*
X027892Y010604D01*
X028004Y010716D01*
X028589Y010716D01*
X028694Y010822D01*
X028694Y011055D01*
X029666Y011214D01*
X029668Y011209D01*
X029831Y011046D01*
X030045Y010958D01*
X030275Y010958D01*
X030489Y011046D01*
X030652Y011209D01*
X030740Y011423D01*
X030740Y011653D01*
X030652Y011866D01*
X030489Y012030D01*
X030275Y012118D01*
X030045Y012118D01*
X029831Y012030D01*
X029668Y011866D01*
X029595Y011689D01*
X028694Y011542D01*
X028694Y011601D01*
X028589Y011706D01*
X027731Y011706D01*
X027626Y011601D01*
X027626Y011016D01*
X026609Y010000D01*
X024391Y010000D01*
X025516Y011126D01*
X026101Y011126D01*
X026206Y011231D01*
X026206Y011842D01*
X027300Y013025D01*
X028100Y013025D01*
X028205Y013130D01*
X028205Y014230D01*
X028100Y014335D01*
X027000Y014335D01*
X026895Y014230D01*
X026895Y013294D01*
X025878Y012194D01*
X025322Y012194D01*
X025216Y012089D01*
X025216Y011504D01*
X025104Y011392D01*
X025104Y012089D01*
X024998Y012194D01*
X024900Y012194D01*
X024900Y012279D01*
X024972Y012351D01*
X025028Y012487D01*
X025028Y012633D01*
X024992Y012720D01*
X025500Y012720D01*
X025588Y012757D01*
X025911Y013079D01*
X026042Y013025D01*
X026302Y013025D01*
X026543Y013125D01*
X026727Y013309D01*
X026827Y013550D01*
X026827Y013810D01*
X026727Y014051D01*
X026543Y014235D01*
X026302Y014335D01*
X026042Y014335D01*
X025801Y014235D01*
X025617Y014051D01*
X025517Y013810D01*
X025517Y013550D01*
X025571Y013419D01*
X025353Y013200D01*
X025212Y013200D01*
X025278Y013266D01*
X025337Y013347D01*
X025383Y013436D01*
X025413Y013531D01*
X025428Y013622D01*
X024852Y013622D01*
X024852Y013738D01*
X024736Y013738D01*
X024736Y013622D01*
X024160Y013622D01*
X024175Y013531D01*
X024206Y013436D01*
X024251Y013347D01*
X024310Y013266D01*
X024376Y013200D01*
X024075Y013200D01*
X024075Y014230D01*
X023970Y014335D01*
X022870Y014335D01*
X022765Y014230D01*
X022765Y013130D01*
X022870Y013025D01*
X023486Y013025D01*
X023457Y012996D01*
X023420Y012908D01*
X023420Y012208D01*
X023406Y012194D01*
X022822Y012194D01*
X022716Y012089D01*
X022716Y011504D01*
X022604Y011392D01*
X022604Y012089D01*
X022498Y012194D01*
X022300Y012194D01*
X022300Y012279D01*
X022372Y012351D01*
X022428Y012487D01*
X022428Y012633D01*
X022372Y012769D01*
X022269Y012872D01*
X022133Y012928D01*
X021987Y012928D01*
X021851Y012872D01*
X021748Y012769D01*
X021692Y012633D01*
X021692Y012487D01*
X021748Y012351D01*
X021820Y012279D01*
X021820Y012194D01*
X021719Y012194D01*
X021614Y012089D01*
X021614Y011231D01*
X021719Y011126D01*
X022337Y011126D01*
X021612Y010400D01*
X019791Y010400D01*
X020516Y011126D01*
X021101Y011126D01*
X021206Y011231D01*
X021206Y012089D01*
X021101Y012194D01*
X020629Y012194D01*
X019945Y013166D01*
X019945Y014230D01*
X019840Y014335D01*
X018740Y014335D01*
X018635Y014230D01*
X018635Y013130D01*
X018740Y013025D01*
X019457Y013025D01*
X020216Y011946D01*
X020216Y011504D01*
X020104Y011392D01*
X020104Y012089D01*
X019998Y012194D01*
X019500Y012194D01*
X019500Y012279D01*
X019572Y012351D01*
X019628Y012487D01*
X019628Y012633D01*
X019572Y012769D01*
X019469Y012872D01*
X019333Y012928D01*
X019187Y012928D01*
X019051Y012872D01*
X018948Y012769D01*
X018892Y012633D01*
X018892Y012487D01*
X018948Y012351D01*
X019020Y012279D01*
X019020Y011961D01*
X019057Y011873D01*
X019114Y011816D01*
X019114Y011231D01*
X019219Y011126D01*
X019837Y011126D01*
X019312Y010600D01*
X017491Y010600D01*
X018016Y011126D01*
X018601Y011126D01*
X018706Y011231D01*
X018706Y012089D01*
X018601Y012194D01*
X018375Y012194D01*
X018240Y013107D01*
X018283Y013125D01*
X018467Y013309D01*
X018567Y013550D01*
X018567Y013810D01*
X018467Y014051D01*
X018283Y014235D01*
X018042Y014335D01*
X017782Y014335D01*
X017541Y014235D01*
X017357Y014051D01*
X017257Y013810D01*
X017257Y013550D01*
X017357Y013309D01*
X017541Y013125D01*
X017765Y013032D01*
X017889Y012194D01*
X017822Y012194D01*
X017716Y012089D01*
X017716Y011504D01*
X017604Y011392D01*
X017604Y012089D01*
X017498Y012194D01*
X017400Y012194D01*
X017400Y012279D01*
X017472Y012351D01*
X017528Y012487D01*
X017528Y012633D01*
X017472Y012769D01*
X017369Y012872D01*
X017233Y012928D01*
X017087Y012928D01*
X016951Y012872D01*
X016848Y012769D01*
X016792Y012633D01*
X016792Y012487D01*
X016848Y012351D01*
X016920Y012279D01*
X016920Y012194D01*
X016719Y012194D01*
X016614Y012089D01*
X016614Y011231D01*
X016719Y011126D01*
X017337Y011126D01*
X017012Y010800D01*
X015191Y010800D01*
X015516Y011126D01*
X016101Y011126D01*
X016206Y011231D01*
X016206Y012089D01*
X016163Y012132D01*
X016526Y013025D01*
X016664Y013025D01*
X016905Y013125D01*
X017089Y013309D01*
X017189Y013550D01*
X017189Y013810D01*
X017089Y014051D01*
X016905Y014235D01*
X016664Y014335D01*
X016404Y014335D01*
X016163Y014235D01*
X015979Y014051D01*
X015879Y013810D01*
X015879Y013550D01*
X015979Y013309D01*
X016082Y013206D01*
X015670Y012194D01*
X015322Y012194D01*
X015216Y012089D01*
X015216Y011504D01*
X015104Y011392D01*
X015104Y012009D01*
X015216Y012192D01*
X015233Y012192D01*
X015369Y012248D01*
X015472Y012351D01*
X015528Y012487D01*
X015528Y012633D01*
X015472Y012769D01*
X015369Y012872D01*
X015233Y012928D01*
X015087Y012928D01*
X014951Y012872D01*
X014848Y012769D01*
X014792Y012633D01*
X014792Y012487D01*
X014809Y012446D01*
X014655Y012194D01*
X014219Y012194D01*
X014114Y012089D01*
X014114Y011231D01*
X014219Y011126D01*
X014837Y011126D01*
X014712Y011000D01*
X012891Y011000D01*
X013016Y011126D01*
X013601Y011126D01*
X013706Y011231D01*
X013706Y011827D01*
X014862Y013025D01*
X015710Y013025D01*
X015815Y013130D01*
X015815Y014230D01*
X015710Y014335D01*
X014610Y014335D01*
X014505Y014230D01*
X014505Y013347D01*
X013393Y012194D01*
X012822Y012194D01*
X012716Y012089D01*
X012716Y011504D01*
X012604Y011392D01*
X012604Y012089D01*
X012498Y012194D01*
X012100Y012194D01*
X012100Y012279D01*
X012172Y012351D01*
X012228Y012487D01*
X012228Y012633D01*
X012172Y012769D01*
X012069Y012872D01*
X011933Y012928D01*
X011787Y012928D01*
X011651Y012872D01*
X011548Y012769D01*
X011492Y012633D01*
X011492Y012487D01*
X011548Y012351D01*
X011620Y012279D01*
X011620Y012095D01*
X011614Y012089D01*
X011614Y011231D01*
X011645Y011200D01*
X010859Y011200D01*
X010300Y011759D01*
X010300Y012110D01*
X010505Y012110D01*
X010610Y012215D01*
X010610Y013105D01*
X010505Y013210D01*
X009615Y013210D01*
X009510Y013105D01*
X009510Y012988D01*
X009372Y013126D01*
X009169Y013210D01*
X008951Y013210D01*
X008748Y013126D01*
X008594Y012972D01*
X008560Y012890D01*
X008526Y012972D01*
X008372Y013126D01*
X008169Y013210D01*
X007951Y013210D01*
X007748Y013126D01*
X007594Y012972D01*
X007560Y012890D01*
X007526Y012972D01*
X007372Y013126D01*
X007169Y013210D01*
X006951Y013210D01*
X006748Y013126D01*
X006594Y012972D01*
X006560Y012890D01*
X006526Y012972D01*
X006372Y013126D01*
X006169Y013210D01*
X005951Y013210D01*
X005748Y013126D01*
X005594Y012972D01*
X005560Y012890D01*
X005526Y012972D01*
X005372Y013126D01*
X005169Y013210D01*
X004951Y013210D01*
X004748Y013126D01*
X004594Y012972D01*
X004560Y012890D01*
X004526Y012972D01*
X004372Y013126D01*
X004169Y013210D01*
X003951Y013210D01*
X003748Y013126D01*
X003594Y012972D01*
X003560Y012890D01*
X003526Y012972D01*
X003372Y013126D01*
X003169Y013210D01*
X002951Y013210D01*
X002748Y013126D01*
X002594Y012972D01*
X002510Y012769D01*
X002510Y012551D01*
X002594Y012348D01*
X002748Y012194D01*
X002820Y012164D01*
X002820Y012012D01*
X002857Y011924D01*
X005357Y009424D01*
X005424Y009357D01*
X005512Y009320D01*
X026109Y009320D01*
X026954Y008475D01*
X027022Y008408D01*
X027110Y008371D01*
X027626Y008371D01*
X027626Y008222D01*
X027731Y008116D01*
X027629Y008218D02*
X024790Y008218D01*
X024609Y008060D02*
X024609Y003660D01*
X024609Y002729D01*
X023440Y001560D01*
X022860Y001582D02*
X022648Y001582D01*
X022648Y001464D02*
X022860Y001464D01*
X022860Y001345D02*
X022607Y001345D01*
X022555Y001227D02*
X022860Y001227D01*
X022860Y001108D02*
X022436Y001108D01*
X022206Y000990D02*
X022956Y000990D01*
X021930Y000990D02*
X019915Y000990D01*
X019913Y000987D02*
X019934Y001023D01*
X019945Y001064D01*
X019945Y001502D01*
X019368Y001502D01*
X019368Y001618D01*
X019252Y001618D01*
X019252Y001502D01*
X018675Y001502D01*
X018675Y001064D01*
X018686Y001023D01*
X018707Y000987D01*
X018737Y000957D01*
X018773Y000936D01*
X018814Y000925D01*
X019252Y000925D01*
X019252Y001502D01*
X019368Y001502D01*
X019368Y000925D01*
X019806Y000925D01*
X019847Y000936D01*
X019883Y000957D01*
X019913Y000987D01*
X019945Y001108D02*
X020138Y001108D01*
X020141Y001098D02*
X020162Y001062D01*
X020192Y001032D01*
X020228Y001011D01*
X020269Y001000D01*
X020632Y001000D01*
X020632Y001502D01*
X020748Y001502D01*
X020748Y001618D01*
X021250Y001618D01*
X021250Y001981D01*
X021239Y002022D01*
X021218Y002058D01*
X021188Y002088D01*
X021152Y002109D01*
X021111Y002120D01*
X020748Y002120D01*
X020748Y001618D01*
X020632Y001618D01*
X020632Y001502D01*
X020130Y001502D01*
X020130Y001139D01*
X020141Y001098D01*
X020130Y001227D02*
X019945Y001227D01*
X019945Y001345D02*
X020130Y001345D01*
X020130Y001464D02*
X019945Y001464D01*
X019945Y001618D02*
X019368Y001618D01*
X019368Y002195D01*
X019806Y002195D01*
X019847Y002184D01*
X019883Y002163D01*
X019913Y002133D01*
X019934Y002097D01*
X019945Y002056D01*
X020161Y002056D01*
X020162Y002058D02*
X020141Y002022D01*
X020130Y001981D01*
X020130Y001618D01*
X020632Y001618D01*
X020632Y002120D01*
X020269Y002120D01*
X020228Y002109D01*
X020192Y002088D01*
X020162Y002058D01*
X020130Y001938D02*
X019945Y001938D01*
X019945Y002056D02*
X019945Y001618D01*
X019945Y001701D02*
X020130Y001701D01*
X020130Y001819D02*
X019945Y001819D01*
X019368Y001819D02*
X019252Y001819D01*
X019252Y001701D02*
X019368Y001701D01*
X019368Y001582D02*
X020632Y001582D01*
X020748Y001582D02*
X021488Y001582D01*
X021488Y001464D02*
X021250Y001464D01*
X021250Y001502D02*
X020748Y001502D01*
X020748Y001000D01*
X021111Y001000D01*
X021152Y001011D01*
X021188Y001032D01*
X021218Y001062D01*
X021239Y001098D01*
X021250Y001139D01*
X021250Y001502D01*
X021250Y001345D02*
X021529Y001345D01*
X021581Y001227D02*
X021250Y001227D01*
X021242Y001108D02*
X021700Y001108D01*
X022068Y001560D02*
X022109Y003660D01*
X022109Y007660D01*
X012060Y007660D01*
X010360Y005960D01*
X009360Y005960D01*
X009060Y006260D01*
X009060Y006660D01*
X009465Y007033D02*
X009655Y007033D01*
X009570Y006915D02*
X009550Y006915D01*
X009311Y007152D02*
X009809Y007152D01*
X010331Y007270D02*
X000370Y007270D01*
X000370Y007152D02*
X001809Y007152D01*
X001655Y007033D02*
X000370Y007033D01*
X000370Y006915D02*
X001570Y006915D01*
X001521Y006796D02*
X000370Y006796D01*
X000370Y006678D02*
X001510Y006678D01*
X001510Y006559D02*
X000370Y006559D01*
X000370Y006441D02*
X001556Y006441D01*
X001620Y006322D02*
X000370Y006322D01*
X000370Y006204D02*
X001739Y006204D01*
X002381Y006204D02*
X002788Y006204D01*
X002650Y006322D02*
X002500Y006322D01*
X002564Y006441D02*
X002577Y006441D01*
X003020Y006441D02*
X003100Y006441D01*
X003100Y006559D02*
X003020Y006559D01*
X003020Y006322D02*
X003100Y006322D01*
X003100Y006204D02*
X003020Y006204D01*
X003332Y006204D02*
X003739Y006204D01*
X003620Y006322D02*
X003470Y006322D01*
X003543Y006441D02*
X003556Y006441D01*
X003100Y006796D02*
X003020Y006796D01*
X003020Y006915D02*
X003100Y006915D01*
X003100Y007033D02*
X003020Y007033D01*
X003020Y007152D02*
X003100Y007152D01*
X003262Y007152D02*
X003809Y007152D01*
X003655Y007033D02*
X003437Y007033D01*
X003525Y006915D02*
X003570Y006915D01*
X002858Y007152D02*
X002311Y007152D01*
X002465Y007033D02*
X002683Y007033D01*
X002595Y006915D02*
X002550Y006915D01*
X004311Y007152D02*
X004809Y007152D01*
X004655Y007033D02*
X004465Y007033D01*
X004550Y006915D02*
X004570Y006915D01*
X005060Y006660D02*
X005060Y005960D01*
X005460Y005560D01*
X011660Y005560D01*
X012560Y006460D01*
X015960Y006460D01*
X016301Y006322D02*
X016869Y006322D01*
X016869Y006204D02*
X016224Y006204D01*
X016328Y006441D02*
X016869Y006441D01*
X016869Y006559D02*
X016317Y006559D01*
X016263Y006678D02*
X016869Y006678D01*
X016869Y006796D02*
X016111Y006796D01*
X015809Y006796D02*
X012235Y006796D01*
X012117Y006678D02*
X012458Y006678D01*
X012320Y006559D02*
X011998Y006559D01*
X011880Y006441D02*
X012201Y006441D01*
X012083Y006322D02*
X011761Y006322D01*
X011643Y006204D02*
X011964Y006204D01*
X011846Y006085D02*
X011524Y006085D01*
X011406Y005967D02*
X011727Y005967D01*
X011609Y005848D02*
X011287Y005848D01*
X010860Y005760D02*
X012360Y007260D01*
X017109Y007260D01*
X017109Y003660D01*
X016554Y001560D01*
X015952Y001819D02*
X015835Y001819D01*
X015835Y001701D02*
X015903Y001701D01*
X015899Y001582D02*
X015835Y001582D01*
X015835Y001464D02*
X015899Y001464D01*
X015934Y001345D02*
X015835Y001345D01*
X015835Y001227D02*
X015983Y001227D01*
X016080Y001108D02*
X015835Y001108D01*
X015814Y000990D02*
X016220Y000990D01*
X016888Y000990D02*
X017598Y000990D01*
X017561Y001005D02*
X017802Y000905D01*
X018062Y000905D01*
X018303Y001005D01*
X018487Y001189D01*
X018587Y001430D01*
X018587Y001690D01*
X018504Y001891D01*
X019489Y003126D01*
X019998Y003126D01*
X020104Y003231D01*
X020104Y004089D01*
X019998Y004194D01*
X019849Y004194D01*
X019849Y006508D01*
X019812Y006596D01*
X019745Y006663D01*
X019657Y006700D01*
X018541Y006700D01*
X018469Y006772D01*
X018333Y006828D01*
X018187Y006828D01*
X018051Y006772D01*
X017948Y006669D01*
X017892Y006533D01*
X017892Y006387D01*
X017948Y006251D01*
X018051Y006148D01*
X018187Y006092D01*
X018333Y006092D01*
X018469Y006148D01*
X018541Y006220D01*
X019369Y006220D01*
X019369Y004194D01*
X019219Y004194D01*
X019114Y004089D01*
X019114Y003425D01*
X018127Y002188D01*
X018062Y002215D01*
X017802Y002215D01*
X017561Y002115D01*
X017377Y001931D01*
X017277Y001690D01*
X017277Y001430D01*
X017377Y001189D01*
X017561Y001005D01*
X017458Y001108D02*
X017028Y001108D01*
X017125Y001227D02*
X017361Y001227D01*
X017312Y001345D02*
X017174Y001345D01*
X017209Y001464D02*
X017277Y001464D01*
X017277Y001582D02*
X017209Y001582D01*
X017205Y001701D02*
X017281Y001701D01*
X017330Y001819D02*
X017156Y001819D01*
X017103Y001938D02*
X017383Y001938D01*
X017502Y002056D02*
X016984Y002056D01*
X016965Y002175D02*
X017704Y002175D01*
X018210Y002293D02*
X016996Y002293D01*
X017027Y002412D02*
X018305Y002412D01*
X018399Y002530D02*
X017059Y002530D01*
X017090Y002649D02*
X018494Y002649D01*
X018589Y002767D02*
X017121Y002767D01*
X017152Y002886D02*
X018683Y002886D01*
X018778Y003004D02*
X017184Y003004D01*
X017215Y003123D02*
X018873Y003123D01*
X018967Y003241D02*
X018706Y003241D01*
X018706Y003231D02*
X018706Y004089D01*
X018601Y004194D01*
X018500Y004194D01*
X018500Y004279D01*
X018572Y004351D01*
X018628Y004487D01*
X018628Y004633D01*
X018572Y004769D01*
X018469Y004872D01*
X018333Y004928D01*
X018187Y004928D01*
X018051Y004872D01*
X017948Y004769D01*
X017892Y004633D01*
X017892Y004487D01*
X017948Y004351D01*
X018020Y004279D01*
X018020Y004194D01*
X017822Y004194D01*
X017716Y004089D01*
X017716Y003231D01*
X017822Y003126D01*
X018601Y003126D01*
X018706Y003231D01*
X018706Y003360D02*
X019062Y003360D01*
X019114Y003478D02*
X018706Y003478D01*
X018706Y003597D02*
X019114Y003597D01*
X019114Y003715D02*
X018706Y003715D01*
X018706Y003834D02*
X019114Y003834D01*
X019114Y003952D02*
X018706Y003952D01*
X018706Y004071D02*
X019114Y004071D01*
X019214Y004189D02*
X018606Y004189D01*
X018528Y004308D02*
X019369Y004308D01*
X019369Y004426D02*
X018603Y004426D01*
X018628Y004545D02*
X019369Y004545D01*
X019369Y004663D02*
X018616Y004663D01*
X018559Y004782D02*
X019369Y004782D01*
X019369Y004900D02*
X018401Y004900D01*
X018119Y004900D02*
X017349Y004900D01*
X017349Y004782D02*
X017961Y004782D01*
X017904Y004663D02*
X017349Y004663D01*
X017349Y004545D02*
X017892Y004545D01*
X017917Y004426D02*
X017349Y004426D01*
X017349Y004308D02*
X017992Y004308D01*
X017816Y004189D02*
X017504Y004189D01*
X017604Y004071D02*
X017716Y004071D01*
X017716Y003952D02*
X017604Y003952D01*
X017604Y003834D02*
X017716Y003834D01*
X017716Y003715D02*
X017604Y003715D01*
X017604Y003597D02*
X017716Y003597D01*
X017716Y003478D02*
X017604Y003478D01*
X017604Y003360D02*
X017716Y003360D01*
X017716Y003241D02*
X017604Y003241D01*
X018211Y003660D02*
X018260Y003660D01*
X018260Y004560D01*
X017349Y005019D02*
X019369Y005019D01*
X019369Y005137D02*
X017349Y005137D01*
X017349Y005256D02*
X019369Y005256D01*
X019369Y005374D02*
X017349Y005374D01*
X017349Y005493D02*
X019369Y005493D01*
X019369Y005611D02*
X017349Y005611D01*
X017349Y005730D02*
X019369Y005730D01*
X019369Y005848D02*
X017349Y005848D01*
X017349Y005967D02*
X019369Y005967D01*
X019369Y006085D02*
X017349Y006085D01*
X017349Y006204D02*
X017996Y006204D01*
X017919Y006322D02*
X017349Y006322D01*
X017349Y006441D02*
X017892Y006441D01*
X017903Y006559D02*
X017349Y006559D01*
X017349Y006678D02*
X017957Y006678D01*
X018109Y006796D02*
X017349Y006796D01*
X017349Y006915D02*
X021869Y006915D01*
X021869Y007033D02*
X017349Y007033D01*
X017349Y007152D02*
X021869Y007152D01*
X021869Y007270D02*
X017349Y007270D01*
X017315Y007389D02*
X021869Y007389D01*
X022349Y007389D02*
X024369Y007389D01*
X024369Y007507D02*
X022349Y007507D01*
X022349Y007626D02*
X024369Y007626D01*
X024369Y007744D02*
X022334Y007744D01*
X022349Y007270D02*
X024369Y007270D01*
X024369Y007152D02*
X022349Y007152D01*
X022349Y007033D02*
X024369Y007033D01*
X024369Y006915D02*
X022349Y006915D01*
X022349Y006796D02*
X024369Y006796D01*
X024369Y006678D02*
X022349Y006678D01*
X022349Y006559D02*
X024369Y006559D01*
X024369Y006441D02*
X022349Y006441D01*
X022349Y006322D02*
X024369Y006322D01*
X024369Y006204D02*
X022349Y006204D01*
X022349Y006085D02*
X024369Y006085D01*
X024369Y005967D02*
X022349Y005967D01*
X022349Y005848D02*
X024369Y005848D01*
X024369Y005730D02*
X022349Y005730D01*
X022349Y005611D02*
X024369Y005611D01*
X024369Y005493D02*
X022349Y005493D01*
X022349Y005374D02*
X024369Y005374D01*
X024369Y005256D02*
X022349Y005256D01*
X022349Y005137D02*
X024369Y005137D01*
X024369Y005019D02*
X022349Y005019D01*
X022349Y004900D02*
X023019Y004900D01*
X022951Y004872D02*
X022848Y004769D01*
X022792Y004633D01*
X022792Y004487D01*
X022848Y004351D01*
X022920Y004279D01*
X022920Y004194D01*
X022822Y004194D01*
X022716Y004089D01*
X022716Y003231D01*
X022822Y003126D01*
X023601Y003126D01*
X023706Y003231D01*
X023706Y004089D01*
X023601Y004194D01*
X023400Y004194D01*
X023400Y004279D01*
X023472Y004351D01*
X023528Y004487D01*
X023528Y004633D01*
X023472Y004769D01*
X023369Y004872D01*
X023233Y004928D01*
X023087Y004928D01*
X022951Y004872D01*
X022861Y004782D02*
X022349Y004782D01*
X022349Y004663D02*
X022804Y004663D01*
X022792Y004545D02*
X022349Y004545D01*
X022349Y004426D02*
X022817Y004426D01*
X022892Y004308D02*
X022349Y004308D01*
X022504Y004189D02*
X022816Y004189D01*
X022716Y004071D02*
X022604Y004071D01*
X022604Y003952D02*
X022716Y003952D01*
X022716Y003834D02*
X022604Y003834D01*
X022604Y003715D02*
X022716Y003715D01*
X022716Y003597D02*
X022604Y003597D01*
X022604Y003478D02*
X022716Y003478D01*
X022716Y003360D02*
X022604Y003360D01*
X022604Y003241D02*
X022716Y003241D01*
X022338Y003123D02*
X024369Y003123D01*
X024369Y003004D02*
X022336Y003004D01*
X022334Y002886D02*
X024369Y002886D01*
X024308Y002767D02*
X022331Y002767D01*
X022329Y002649D02*
X024189Y002649D01*
X024071Y002530D02*
X022327Y002530D01*
X022325Y002412D02*
X023952Y002412D01*
X023834Y002293D02*
X022322Y002293D01*
X022320Y002175D02*
X023715Y002175D01*
X024157Y001938D02*
X024403Y001938D01*
X024321Y001819D02*
X024038Y001819D01*
X024020Y001701D02*
X024275Y001701D01*
X024275Y002056D02*
X024558Y002056D01*
X024760Y002056D02*
X024876Y002056D01*
X024876Y001938D02*
X024760Y001938D01*
X024760Y001819D02*
X024876Y001819D01*
X024876Y001701D02*
X024760Y001701D01*
X024760Y001464D02*
X024876Y001464D01*
X024876Y001345D02*
X024760Y001345D01*
X024760Y001227D02*
X024876Y001227D01*
X024876Y001108D02*
X024760Y001108D01*
X024453Y001133D02*
X024391Y001195D01*
X022860Y001701D02*
X022638Y001701D01*
X022588Y001819D02*
X022860Y001819D01*
X022860Y001938D02*
X022511Y001938D01*
X022386Y002056D02*
X022881Y002056D01*
X021840Y002175D02*
X019863Y002175D01*
X019368Y002175D02*
X019252Y002175D01*
X019252Y002195D02*
X018814Y002195D01*
X018773Y002184D01*
X018737Y002163D01*
X018707Y002133D01*
X018686Y002097D01*
X018675Y002056D01*
X018635Y002056D01*
X018675Y002056D02*
X018675Y001618D01*
X019252Y001618D01*
X019252Y002195D01*
X019252Y002056D02*
X019368Y002056D01*
X019368Y001938D02*
X019252Y001938D01*
X019252Y001582D02*
X018587Y001582D01*
X018587Y001464D02*
X018675Y001464D01*
X018675Y001345D02*
X018552Y001345D01*
X018503Y001227D02*
X018675Y001227D01*
X018675Y001108D02*
X018406Y001108D01*
X018266Y000990D02*
X018705Y000990D01*
X019252Y000990D02*
X019368Y000990D01*
X019368Y001108D02*
X019252Y001108D01*
X019252Y001227D02*
X019368Y001227D01*
X019368Y001345D02*
X019252Y001345D01*
X019252Y001464D02*
X019368Y001464D01*
X018675Y001701D02*
X018583Y001701D01*
X018534Y001819D02*
X018675Y001819D01*
X018675Y001938D02*
X018541Y001938D01*
X018730Y002175D02*
X018757Y002175D01*
X018824Y002293D02*
X021842Y002293D01*
X021844Y002412D02*
X018919Y002412D01*
X019014Y002530D02*
X021847Y002530D01*
X021849Y002649D02*
X019108Y002649D01*
X019203Y002767D02*
X021851Y002767D01*
X021854Y002886D02*
X019298Y002886D01*
X019392Y003004D02*
X021856Y003004D01*
X021858Y003123D02*
X019487Y003123D01*
X020104Y003241D02*
X020216Y003241D01*
X020216Y003231D02*
X020322Y003126D01*
X021101Y003126D01*
X021206Y003231D01*
X021206Y004089D01*
X021101Y004194D01*
X021000Y004194D01*
X021000Y004279D01*
X021072Y004351D01*
X021128Y004487D01*
X021128Y004633D01*
X021072Y004769D01*
X020969Y004872D01*
X020833Y004928D01*
X020687Y004928D01*
X020551Y004872D01*
X020448Y004769D01*
X020392Y004633D01*
X020392Y004487D01*
X020448Y004351D01*
X020520Y004279D01*
X020520Y004194D01*
X020322Y004194D01*
X020216Y004089D01*
X020216Y003231D01*
X020216Y003360D02*
X020104Y003360D01*
X020104Y003478D02*
X020216Y003478D01*
X020216Y003597D02*
X020104Y003597D01*
X020104Y003715D02*
X020216Y003715D01*
X020216Y003834D02*
X020104Y003834D01*
X020104Y003952D02*
X020216Y003952D01*
X020216Y004071D02*
X020104Y004071D01*
X020004Y004189D02*
X020316Y004189D01*
X020492Y004308D02*
X019849Y004308D01*
X019849Y004426D02*
X020417Y004426D01*
X020392Y004545D02*
X019849Y004545D01*
X019849Y004663D02*
X020404Y004663D01*
X020461Y004782D02*
X019849Y004782D01*
X019849Y004900D02*
X020619Y004900D01*
X020901Y004900D02*
X021869Y004900D01*
X021869Y004782D02*
X021059Y004782D01*
X021116Y004663D02*
X021869Y004663D01*
X021869Y004545D02*
X021128Y004545D01*
X021103Y004426D02*
X021869Y004426D01*
X021869Y004308D02*
X021028Y004308D01*
X021106Y004189D02*
X021714Y004189D01*
X021614Y004071D02*
X021206Y004071D01*
X021206Y003952D02*
X021614Y003952D01*
X021614Y003834D02*
X021206Y003834D01*
X021206Y003715D02*
X021614Y003715D01*
X021614Y003597D02*
X021206Y003597D01*
X021206Y003478D02*
X021614Y003478D01*
X021614Y003360D02*
X021206Y003360D01*
X021206Y003241D02*
X021614Y003241D01*
X020760Y003660D02*
X020760Y004560D01*
X019849Y005019D02*
X021869Y005019D01*
X021869Y005137D02*
X019849Y005137D01*
X019849Y005256D02*
X021869Y005256D01*
X021869Y005374D02*
X019849Y005374D01*
X019849Y005493D02*
X021869Y005493D01*
X021869Y005611D02*
X019849Y005611D01*
X019849Y005730D02*
X021869Y005730D01*
X021869Y005848D02*
X019849Y005848D01*
X019849Y005967D02*
X021869Y005967D01*
X021869Y006085D02*
X019849Y006085D01*
X019849Y006204D02*
X021869Y006204D01*
X021869Y006322D02*
X019849Y006322D01*
X019849Y006441D02*
X021869Y006441D01*
X021869Y006559D02*
X019828Y006559D01*
X019711Y006678D02*
X021869Y006678D01*
X021869Y006796D02*
X018411Y006796D01*
X018260Y006460D02*
X019609Y006460D01*
X019609Y003660D01*
X017932Y001560D01*
X016499Y002293D02*
X015229Y002293D01*
X015197Y002412D02*
X016531Y002412D01*
X016562Y002530D02*
X015165Y002530D01*
X015133Y002649D02*
X016593Y002649D01*
X016625Y002767D02*
X015100Y002767D01*
X015068Y002886D02*
X016656Y002886D01*
X016687Y003004D02*
X015036Y003004D01*
X015004Y003123D02*
X016719Y003123D01*
X016614Y003241D02*
X016206Y003241D01*
X016206Y003231D02*
X016206Y004089D01*
X016101Y004194D01*
X015900Y004194D01*
X015900Y004279D01*
X015972Y004351D01*
X016028Y004487D01*
X016028Y004633D01*
X015972Y004769D01*
X015869Y004872D01*
X015733Y004928D01*
X015587Y004928D01*
X015451Y004872D01*
X015348Y004769D01*
X015292Y004633D01*
X015292Y004487D01*
X015348Y004351D01*
X015420Y004279D01*
X015420Y004194D01*
X015322Y004194D01*
X015216Y004089D01*
X015216Y003231D01*
X015322Y003126D01*
X016101Y003126D01*
X016206Y003231D01*
X016206Y003360D02*
X016614Y003360D01*
X016614Y003478D02*
X016206Y003478D01*
X016206Y003597D02*
X016614Y003597D01*
X016614Y003715D02*
X016206Y003715D01*
X016206Y003834D02*
X016614Y003834D01*
X016614Y003952D02*
X016206Y003952D01*
X016206Y004071D02*
X016614Y004071D01*
X016714Y004189D02*
X016106Y004189D01*
X015928Y004308D02*
X016869Y004308D01*
X016869Y004426D02*
X016003Y004426D01*
X016028Y004545D02*
X016869Y004545D01*
X016869Y004663D02*
X016016Y004663D01*
X015959Y004782D02*
X016869Y004782D01*
X016869Y004900D02*
X015801Y004900D01*
X015519Y004900D02*
X013708Y004900D01*
X013590Y005019D02*
X016869Y005019D01*
X016869Y005137D02*
X013471Y005137D01*
X013353Y005256D02*
X016869Y005256D01*
X016869Y005374D02*
X013234Y005374D01*
X013075Y005493D02*
X016869Y005493D01*
X016869Y005611D02*
X012050Y005611D01*
X012169Y005730D02*
X016869Y005730D01*
X016869Y005848D02*
X012287Y005848D01*
X012406Y005967D02*
X016869Y005967D01*
X016869Y006085D02*
X012524Y006085D01*
X012643Y006204D02*
X015696Y006204D01*
X016869Y006915D02*
X012354Y006915D01*
X010805Y007744D02*
X000370Y007744D01*
X000370Y007626D02*
X010686Y007626D01*
X010568Y007507D02*
X000370Y007507D01*
X000370Y007389D02*
X010449Y007389D01*
X010923Y007863D02*
X000370Y007863D01*
X000370Y007981D02*
X011042Y007981D01*
X011160Y008100D02*
X000370Y008100D01*
X000370Y008218D02*
X011279Y008218D01*
X011460Y008060D02*
X024609Y008060D01*
X024849Y007863D02*
X027626Y007863D01*
X028160Y007509D02*
X030061Y007509D01*
X030160Y007410D01*
X029580Y007152D02*
X028694Y007152D01*
X028608Y007033D02*
X029580Y007033D01*
X029601Y006915D02*
X026554Y006915D01*
X026672Y007033D02*
X027712Y007033D01*
X027626Y007152D02*
X026791Y007152D01*
X026809Y007509D02*
X028160Y007509D01*
X028694Y007863D02*
X029580Y007863D01*
X029676Y007981D02*
X028612Y007981D01*
X028691Y008218D02*
X031350Y008218D01*
X031350Y008337D02*
X030491Y008337D01*
X030525Y008361D02*
X030587Y008423D01*
X030639Y008494D01*
X030679Y008573D01*
X030706Y008657D01*
X030718Y008730D01*
X030218Y008730D01*
X030218Y008846D01*
X030102Y008846D01*
X030102Y009346D01*
X030029Y009334D01*
X029945Y009307D01*
X029866Y009267D01*
X029795Y009215D01*
X029733Y009153D01*
X029681Y009081D01*
X029641Y009003D01*
X029614Y008919D01*
X029602Y008846D01*
X030102Y008846D01*
X030102Y008730D01*
X029602Y008730D01*
X029614Y008657D01*
X029641Y008573D01*
X029681Y008494D01*
X029733Y008423D01*
X029795Y008361D01*
X029866Y008309D01*
X029945Y008269D01*
X030029Y008242D01*
X030102Y008230D01*
X030102Y008730D01*
X030218Y008730D01*
X030218Y008230D01*
X030291Y008242D01*
X030375Y008269D01*
X030454Y008309D01*
X030525Y008361D01*
X030610Y008455D02*
X031350Y008455D01*
X031350Y008574D02*
X030679Y008574D01*
X030712Y008692D02*
X031350Y008692D01*
X031350Y008811D02*
X030218Y008811D01*
X030218Y008846D02*
X030718Y008846D01*
X030706Y008919D01*
X030679Y009003D01*
X030639Y009081D01*
X030587Y009153D01*
X030525Y009215D01*
X030454Y009267D01*
X030375Y009307D01*
X030291Y009334D01*
X030218Y009346D01*
X030218Y008846D01*
X030218Y008929D02*
X030102Y008929D01*
X030102Y008811D02*
X028809Y008811D01*
X028694Y008692D02*
X029608Y008692D01*
X029641Y008574D02*
X028694Y008574D01*
X028694Y008455D02*
X029710Y008455D01*
X029829Y008337D02*
X028694Y008337D01*
X028160Y008611D02*
X027158Y008611D01*
X026209Y009560D01*
X005560Y009560D01*
X003060Y012060D01*
X003060Y012660D01*
X002539Y012840D02*
X000370Y012840D01*
X000370Y012958D02*
X002588Y012958D01*
X002699Y013077D02*
X000370Y013077D01*
X000370Y013195D02*
X002914Y013195D01*
X003206Y013195D02*
X003914Y013195D01*
X003699Y013077D02*
X003421Y013077D01*
X003532Y012958D02*
X003588Y012958D01*
X004060Y012660D02*
X004060Y012060D01*
X006360Y009760D01*
X026709Y009760D01*
X028160Y011211D01*
X030160Y011538D01*
X030740Y011536D02*
X031350Y011536D01*
X031350Y011418D02*
X030738Y011418D01*
X030689Y011299D02*
X031350Y011299D01*
X031350Y011181D02*
X030623Y011181D01*
X030504Y011062D02*
X031350Y011062D01*
X031350Y010944D02*
X028694Y010944D01*
X028694Y010825D02*
X031350Y010825D01*
X031350Y010707D02*
X030668Y010707D01*
X030740Y010588D02*
X031350Y010588D01*
X031350Y010470D02*
X030740Y010470D01*
X030740Y010351D02*
X031350Y010351D01*
X031350Y010233D02*
X030740Y010233D01*
X030740Y010114D02*
X031350Y010114D01*
X031350Y009996D02*
X030740Y009996D01*
X030740Y009877D02*
X031350Y009877D01*
X031350Y009759D02*
X030740Y009759D01*
X030695Y009640D02*
X031350Y009640D01*
X031350Y009522D02*
X029728Y009522D01*
X029574Y009403D02*
X031350Y009403D01*
X031350Y009285D02*
X030419Y009285D01*
X030574Y009166D02*
X031350Y009166D01*
X031350Y009048D02*
X030656Y009048D01*
X030703Y008929D02*
X031350Y008929D01*
X030218Y009048D02*
X030102Y009048D01*
X030102Y009166D02*
X030218Y009166D01*
X030218Y009285D02*
X030102Y009285D01*
X029901Y009285D02*
X029421Y009285D01*
X029268Y009166D02*
X029746Y009166D01*
X029664Y009048D02*
X029115Y009048D01*
X028962Y008929D02*
X029617Y008929D01*
X030102Y008692D02*
X030218Y008692D01*
X030218Y008574D02*
X030102Y008574D01*
X030102Y008455D02*
X030218Y008455D01*
X030218Y008337D02*
X030102Y008337D01*
X028484Y009166D02*
X026942Y009166D01*
X027015Y009285D02*
X026824Y009285D01*
X026927Y009403D02*
X026705Y009403D01*
X026760Y009522D02*
X026892Y009522D01*
X027260Y009560D02*
X027809Y010109D01*
X028160Y010109D01*
X028694Y010114D02*
X029580Y010114D01*
X029580Y010233D02*
X028694Y010233D01*
X028694Y010351D02*
X029580Y010351D01*
X029580Y010470D02*
X028694Y010470D01*
X028605Y010588D02*
X029580Y010588D01*
X029652Y010707D02*
X027995Y010707D01*
X027553Y010944D02*
X025334Y010944D01*
X025453Y011062D02*
X027626Y011062D01*
X027626Y011181D02*
X026156Y011181D01*
X026206Y011299D02*
X027626Y011299D01*
X027626Y011418D02*
X026206Y011418D01*
X026206Y011536D02*
X027626Y011536D01*
X027679Y011655D02*
X026206Y011655D01*
X026206Y011773D02*
X029630Y011773D01*
X029693Y011892D02*
X026252Y011892D01*
X026362Y012010D02*
X029812Y012010D01*
X029385Y011655D02*
X028641Y011655D01*
X028735Y011062D02*
X029816Y011062D01*
X029697Y011181D02*
X029461Y011181D01*
X030740Y011655D02*
X031350Y011655D01*
X031350Y011773D02*
X030690Y011773D01*
X030627Y011892D02*
X031350Y011892D01*
X031350Y012010D02*
X030508Y012010D01*
X031350Y012129D02*
X026471Y012129D01*
X026581Y012247D02*
X031350Y012247D01*
X031350Y012366D02*
X026690Y012366D01*
X026800Y012484D02*
X031350Y012484D01*
X031350Y012603D02*
X026909Y012603D01*
X027019Y012721D02*
X031350Y012721D01*
X031350Y012840D02*
X027128Y012840D01*
X027238Y012958D02*
X031350Y012958D01*
X031350Y013077D02*
X028151Y013077D01*
X028205Y013195D02*
X031350Y013195D01*
X031350Y013314D02*
X028205Y013314D01*
X028205Y013432D02*
X031350Y013432D01*
X031350Y013551D02*
X028205Y013551D01*
X028205Y013669D02*
X030610Y013669D01*
X030356Y013788D02*
X028205Y013788D01*
X028205Y013906D02*
X030237Y013906D01*
X030146Y014025D02*
X028205Y014025D01*
X028205Y014143D02*
X030097Y014143D01*
X030049Y014262D02*
X028173Y014262D01*
X027550Y013680D02*
X027560Y013660D01*
X025711Y011660D01*
X024011Y009960D01*
X007160Y009960D01*
X005060Y012060D01*
X005060Y012660D01*
X004588Y012958D02*
X004532Y012958D01*
X004421Y013077D02*
X004699Y013077D01*
X004914Y013195D02*
X004206Y013195D01*
X005206Y013195D02*
X005914Y013195D01*
X005699Y013077D02*
X005421Y013077D01*
X005532Y012958D02*
X005588Y012958D01*
X006060Y012660D02*
X006060Y012060D01*
X007960Y010160D01*
X021711Y010160D01*
X023211Y011660D01*
X023660Y012109D01*
X023660Y012860D01*
X023760Y012960D01*
X025452Y012960D01*
X026172Y013680D01*
X025566Y013432D02*
X025380Y013432D01*
X025417Y013551D02*
X025517Y013551D01*
X025517Y013669D02*
X024852Y013669D01*
X024852Y013738D02*
X025428Y013738D01*
X025413Y013829D01*
X025383Y013924D01*
X025337Y014013D01*
X025278Y014094D01*
X025208Y014164D01*
X025127Y014223D01*
X025038Y014268D01*
X024943Y014299D01*
X024852Y014314D01*
X024852Y013738D01*
X024852Y013788D02*
X024736Y013788D01*
X024736Y013738D02*
X024736Y014314D01*
X024645Y014299D01*
X024550Y014268D01*
X024461Y014223D01*
X024380Y014164D01*
X024310Y014094D01*
X024251Y014013D01*
X024206Y013924D01*
X024175Y013829D01*
X024160Y013738D01*
X024736Y013738D01*
X024736Y013669D02*
X024075Y013669D01*
X024075Y013551D02*
X024172Y013551D01*
X024208Y013432D02*
X024075Y013432D01*
X024075Y013314D02*
X024275Y013314D01*
X024168Y013788D02*
X024075Y013788D01*
X024075Y013906D02*
X024200Y013906D01*
X024260Y014025D02*
X024075Y014025D01*
X024075Y014143D02*
X024359Y014143D01*
X024537Y014262D02*
X024043Y014262D01*
X024736Y014262D02*
X024852Y014262D01*
X024852Y014143D02*
X024736Y014143D01*
X024736Y014025D02*
X024852Y014025D01*
X024852Y013906D02*
X024736Y013906D01*
X025229Y014143D02*
X025709Y014143D01*
X025606Y014025D02*
X025329Y014025D01*
X025388Y013906D02*
X025557Y013906D01*
X025517Y013788D02*
X025420Y013788D01*
X025051Y014262D02*
X025864Y014262D01*
X026480Y014262D02*
X026927Y014262D01*
X026895Y014143D02*
X026635Y014143D01*
X026738Y014025D02*
X026895Y014025D01*
X026895Y013906D02*
X026787Y013906D01*
X026827Y013788D02*
X026895Y013788D01*
X026895Y013669D02*
X026827Y013669D01*
X026827Y013551D02*
X026895Y013551D01*
X026895Y013432D02*
X026778Y013432D01*
X026729Y013314D02*
X026895Y013314D01*
X026803Y013195D02*
X026613Y013195D01*
X026694Y013077D02*
X026427Y013077D01*
X026584Y012958D02*
X025789Y012958D01*
X025671Y012840D02*
X026475Y012840D01*
X026365Y012721D02*
X025502Y012721D01*
X025028Y012603D02*
X026256Y012603D01*
X026146Y012484D02*
X025027Y012484D01*
X024978Y012366D02*
X026037Y012366D01*
X025927Y012247D02*
X024900Y012247D01*
X025064Y012129D02*
X025256Y012129D01*
X025216Y012010D02*
X025104Y012010D01*
X025104Y011892D02*
X025216Y011892D01*
X025216Y011773D02*
X025104Y011773D01*
X025104Y011655D02*
X025216Y011655D01*
X025216Y011536D02*
X025104Y011536D01*
X025104Y011418D02*
X025129Y011418D01*
X024660Y011660D02*
X024660Y012560D01*
X023420Y012603D02*
X022428Y012603D01*
X022427Y012484D02*
X023420Y012484D01*
X023420Y012366D02*
X022378Y012366D01*
X022300Y012247D02*
X023420Y012247D01*
X022756Y012129D02*
X022564Y012129D01*
X022604Y012010D02*
X022716Y012010D01*
X022716Y011892D02*
X022604Y011892D01*
X022604Y011773D02*
X022716Y011773D01*
X022716Y011655D02*
X022604Y011655D01*
X022604Y011536D02*
X022716Y011536D01*
X022629Y011418D02*
X022604Y011418D01*
X022274Y011062D02*
X020453Y011062D01*
X020334Y010944D02*
X022155Y010944D01*
X022037Y010825D02*
X020216Y010825D01*
X020097Y010707D02*
X021918Y010707D01*
X021800Y010588D02*
X019979Y010588D01*
X019860Y010470D02*
X021681Y010470D01*
X021664Y011181D02*
X021156Y011181D01*
X021206Y011299D02*
X021614Y011299D01*
X021614Y011418D02*
X021206Y011418D01*
X021206Y011536D02*
X021614Y011536D01*
X021614Y011655D02*
X021206Y011655D01*
X021206Y011773D02*
X021614Y011773D01*
X021614Y011892D02*
X021206Y011892D01*
X021206Y012010D02*
X021614Y012010D01*
X021653Y012129D02*
X021167Y012129D01*
X020592Y012247D02*
X021820Y012247D01*
X021742Y012366D02*
X020508Y012366D01*
X020425Y012484D02*
X021693Y012484D01*
X021692Y012603D02*
X020342Y012603D01*
X020258Y012721D02*
X021728Y012721D01*
X021819Y012840D02*
X020175Y012840D01*
X020091Y012958D02*
X023441Y012958D01*
X023420Y012840D02*
X022301Y012840D01*
X022392Y012721D02*
X023420Y012721D01*
X022819Y013077D02*
X022297Y013077D01*
X022413Y013125D02*
X022597Y013309D01*
X022697Y013550D01*
X022697Y013810D01*
X022597Y014051D01*
X022413Y014235D01*
X022172Y014335D01*
X021912Y014335D01*
X021671Y014235D01*
X021487Y014051D01*
X021387Y013810D01*
X021387Y013550D01*
X021487Y013309D01*
X021671Y013125D01*
X021912Y013025D01*
X022172Y013025D01*
X022413Y013125D01*
X022483Y013195D02*
X022765Y013195D01*
X022765Y013314D02*
X022599Y013314D01*
X022648Y013432D02*
X022765Y013432D01*
X022765Y013551D02*
X022697Y013551D01*
X022697Y013669D02*
X022765Y013669D01*
X022765Y013788D02*
X022697Y013788D01*
X022657Y013906D02*
X022765Y013906D01*
X022765Y014025D02*
X022608Y014025D01*
X022505Y014143D02*
X022765Y014143D01*
X022797Y014262D02*
X022350Y014262D01*
X021734Y014262D02*
X020921Y014262D01*
X020908Y014268D02*
X020813Y014299D01*
X020722Y014314D01*
X020722Y013738D01*
X020606Y013738D01*
X020606Y013622D01*
X020030Y013622D01*
X020045Y013531D01*
X020076Y013436D01*
X020121Y013347D01*
X020180Y013266D01*
X020250Y013196D01*
X020331Y013137D01*
X020420Y013092D01*
X020515Y013061D01*
X020606Y013046D01*
X020606Y013622D01*
X020722Y013622D01*
X020722Y013046D01*
X020813Y013061D01*
X020908Y013092D01*
X020997Y013137D01*
X021078Y013196D01*
X021148Y013266D01*
X021207Y013347D01*
X021253Y013436D01*
X021283Y013531D01*
X021298Y013622D01*
X020722Y013622D01*
X020722Y013738D01*
X021298Y013738D01*
X021283Y013829D01*
X021253Y013924D01*
X021207Y014013D01*
X021148Y014094D01*
X021078Y014164D01*
X020997Y014223D01*
X020908Y014268D01*
X020722Y014262D02*
X020606Y014262D01*
X020606Y014314D02*
X020515Y014299D01*
X020420Y014268D01*
X020331Y014223D01*
X020250Y014164D01*
X020180Y014094D01*
X020121Y014013D01*
X020076Y013924D01*
X020045Y013829D01*
X020030Y013738D01*
X020606Y013738D01*
X020606Y014314D01*
X020606Y014143D02*
X020722Y014143D01*
X020722Y014025D02*
X020606Y014025D01*
X020606Y013906D02*
X020722Y013906D01*
X020722Y013788D02*
X020606Y013788D01*
X020606Y013669D02*
X019945Y013669D01*
X019945Y013551D02*
X020042Y013551D01*
X020078Y013432D02*
X019945Y013432D01*
X019945Y013314D02*
X020145Y013314D01*
X020251Y013195D02*
X019945Y013195D01*
X020008Y013077D02*
X020466Y013077D01*
X020606Y013077D02*
X020722Y013077D01*
X020722Y013195D02*
X020606Y013195D01*
X020606Y013314D02*
X020722Y013314D01*
X020722Y013432D02*
X020606Y013432D01*
X020606Y013551D02*
X020722Y013551D01*
X020722Y013669D02*
X021387Y013669D01*
X021387Y013551D02*
X021287Y013551D01*
X021250Y013432D02*
X021436Y013432D01*
X021485Y013314D02*
X021183Y013314D01*
X021077Y013195D02*
X021601Y013195D01*
X021787Y013077D02*
X020862Y013077D01*
X019755Y012603D02*
X019628Y012603D01*
X019627Y012484D02*
X019838Y012484D01*
X019921Y012366D02*
X019578Y012366D01*
X019500Y012247D02*
X020005Y012247D01*
X020064Y012129D02*
X020088Y012129D01*
X020104Y012010D02*
X020171Y012010D01*
X020216Y011892D02*
X020104Y011892D01*
X020104Y011773D02*
X020216Y011773D01*
X020216Y011655D02*
X020104Y011655D01*
X020104Y011536D02*
X020216Y011536D01*
X020129Y011418D02*
X020104Y011418D01*
X019774Y011062D02*
X017953Y011062D01*
X017834Y010944D02*
X019655Y010944D01*
X019537Y010825D02*
X017716Y010825D01*
X017597Y010707D02*
X019418Y010707D01*
X019411Y010360D02*
X020711Y011660D01*
X019290Y013680D01*
X018635Y013669D02*
X018567Y013669D01*
X018567Y013551D02*
X018635Y013551D01*
X018635Y013432D02*
X018518Y013432D01*
X018469Y013314D02*
X018635Y013314D01*
X018635Y013195D02*
X018353Y013195D01*
X018244Y013077D02*
X018689Y013077D01*
X018262Y012958D02*
X019504Y012958D01*
X019501Y012840D02*
X019588Y012840D01*
X019592Y012721D02*
X019671Y012721D01*
X019260Y012560D02*
X019260Y012009D01*
X019609Y011660D01*
X019114Y011655D02*
X018706Y011655D01*
X018706Y011773D02*
X019114Y011773D01*
X019049Y011892D02*
X018706Y011892D01*
X018706Y012010D02*
X019020Y012010D01*
X019020Y012129D02*
X018667Y012129D01*
X018367Y012247D02*
X019020Y012247D01*
X018942Y012366D02*
X018349Y012366D01*
X018332Y012484D02*
X018893Y012484D01*
X018892Y012603D02*
X018314Y012603D01*
X018297Y012721D02*
X018928Y012721D01*
X019019Y012840D02*
X018279Y012840D01*
X017811Y012721D02*
X017492Y012721D01*
X017528Y012603D02*
X017829Y012603D01*
X017847Y012484D02*
X017527Y012484D01*
X017478Y012366D02*
X017864Y012366D01*
X017882Y012247D02*
X017400Y012247D01*
X017564Y012129D02*
X017756Y012129D01*
X017716Y012010D02*
X017604Y012010D01*
X017604Y011892D02*
X017716Y011892D01*
X017716Y011773D02*
X017604Y011773D01*
X017604Y011655D02*
X017716Y011655D01*
X017716Y011536D02*
X017604Y011536D01*
X017604Y011418D02*
X017629Y011418D01*
X017274Y011062D02*
X015453Y011062D01*
X015334Y010944D02*
X017155Y010944D01*
X017037Y010825D02*
X015216Y010825D01*
X014811Y010760D02*
X015711Y011660D01*
X016534Y013680D01*
X015928Y013432D02*
X015815Y013432D01*
X015815Y013314D02*
X015977Y013314D01*
X016077Y013195D02*
X015815Y013195D01*
X015761Y013077D02*
X016029Y013077D01*
X015981Y012958D02*
X014797Y012958D01*
X014683Y012840D02*
X014919Y012840D01*
X014828Y012721D02*
X014568Y012721D01*
X014454Y012603D02*
X014792Y012603D01*
X014793Y012484D02*
X014340Y012484D01*
X014225Y012366D02*
X014759Y012366D01*
X014687Y012247D02*
X014111Y012247D01*
X014153Y012129D02*
X013997Y012129D01*
X013882Y012010D02*
X014114Y012010D01*
X014114Y011892D02*
X013768Y011892D01*
X013706Y011773D02*
X014114Y011773D01*
X014114Y011655D02*
X013706Y011655D01*
X013706Y011536D02*
X014114Y011536D01*
X014114Y011418D02*
X013706Y011418D01*
X013706Y011299D02*
X014114Y011299D01*
X014164Y011181D02*
X013656Y011181D01*
X012953Y011062D02*
X014774Y011062D01*
X014811Y010760D02*
X010560Y010760D01*
X009060Y012260D01*
X009060Y012660D01*
X008588Y012958D02*
X008532Y012958D01*
X008421Y013077D02*
X008699Y013077D01*
X008914Y013195D02*
X008206Y013195D01*
X007914Y013195D02*
X007206Y013195D01*
X007421Y013077D02*
X007699Y013077D01*
X007588Y012958D02*
X007532Y012958D01*
X007060Y012660D02*
X007060Y012060D01*
X008760Y010360D01*
X019411Y010360D01*
X019164Y011181D02*
X018656Y011181D01*
X018706Y011299D02*
X019114Y011299D01*
X019114Y011418D02*
X018706Y011418D01*
X018706Y011536D02*
X019114Y011536D01*
X018211Y011660D02*
X017912Y013680D01*
X017306Y013432D02*
X017140Y013432D01*
X017091Y013314D02*
X017355Y013314D01*
X017471Y013195D02*
X016975Y013195D01*
X016789Y013077D02*
X017657Y013077D01*
X017776Y012958D02*
X016499Y012958D01*
X016451Y012840D02*
X016919Y012840D01*
X016828Y012721D02*
X016403Y012721D01*
X016354Y012603D02*
X016792Y012603D01*
X016793Y012484D02*
X016306Y012484D01*
X016258Y012366D02*
X016842Y012366D01*
X016920Y012247D02*
X016209Y012247D01*
X016167Y012129D02*
X016653Y012129D01*
X016614Y012010D02*
X016206Y012010D01*
X016206Y011892D02*
X016614Y011892D01*
X016614Y011773D02*
X016206Y011773D01*
X016206Y011655D02*
X016614Y011655D01*
X016614Y011536D02*
X016206Y011536D01*
X016206Y011418D02*
X016614Y011418D01*
X016614Y011299D02*
X016206Y011299D01*
X016156Y011181D02*
X016664Y011181D01*
X017109Y011660D02*
X017160Y011711D01*
X017160Y012560D01*
X017401Y012840D02*
X017794Y012840D01*
X017257Y013551D02*
X017189Y013551D01*
X017189Y013669D02*
X017257Y013669D01*
X017257Y013788D02*
X017189Y013788D01*
X017149Y013906D02*
X017297Y013906D01*
X017346Y014025D02*
X017100Y014025D01*
X016997Y014143D02*
X017449Y014143D01*
X017604Y014262D02*
X016842Y014262D01*
X016226Y014262D02*
X015783Y014262D01*
X015815Y014143D02*
X016071Y014143D01*
X015968Y014025D02*
X015815Y014025D01*
X015815Y013906D02*
X015919Y013906D01*
X015879Y013788D02*
X015815Y013788D01*
X015815Y013669D02*
X015879Y013669D01*
X015879Y013551D02*
X015815Y013551D01*
X015160Y013680D02*
X013211Y011660D01*
X012511Y010960D01*
X010760Y010960D01*
X010060Y011660D01*
X010060Y012660D01*
X010610Y012603D02*
X011492Y012603D01*
X011493Y012484D02*
X010610Y012484D01*
X010610Y012366D02*
X011542Y012366D01*
X011620Y012247D02*
X010610Y012247D01*
X010523Y012129D02*
X011620Y012129D01*
X011614Y012010D02*
X010300Y012010D01*
X010300Y011892D02*
X011614Y011892D01*
X011614Y011773D02*
X010300Y011773D01*
X010405Y011655D02*
X011614Y011655D01*
X011614Y011536D02*
X010523Y011536D01*
X010642Y011418D02*
X011614Y011418D01*
X011614Y011299D02*
X010760Y011299D01*
X011860Y011909D02*
X011860Y012560D01*
X012228Y012603D02*
X013787Y012603D01*
X013901Y012721D02*
X012192Y012721D01*
X012101Y012840D02*
X014016Y012840D01*
X014130Y012958D02*
X010610Y012958D01*
X010610Y012840D02*
X011619Y012840D01*
X011528Y012721D02*
X010610Y012721D01*
X010610Y013077D02*
X012149Y013077D01*
X012033Y013125D02*
X012274Y013025D01*
X012534Y013025D01*
X012775Y013125D01*
X012959Y013309D01*
X013059Y013550D01*
X013059Y013810D01*
X012959Y014051D01*
X012775Y014235D01*
X012534Y014335D01*
X012274Y014335D01*
X012033Y014235D01*
X011849Y014051D01*
X011749Y013810D01*
X011749Y013550D01*
X011849Y013309D01*
X012033Y013125D01*
X011963Y013195D02*
X010520Y013195D01*
X010510Y013669D02*
X011749Y013669D01*
X011749Y013551D02*
X000370Y013551D01*
X000370Y013669D02*
X001610Y013669D01*
X001356Y013788D02*
X000370Y013788D01*
X000370Y013906D02*
X001237Y013906D01*
X001146Y014025D02*
X000370Y014025D01*
X000370Y014143D02*
X001097Y014143D01*
X001049Y014262D02*
X000370Y014262D01*
X000370Y014380D02*
X001049Y014380D01*
X001049Y014499D02*
X000370Y014499D01*
X000370Y014617D02*
X001072Y014617D01*
X001121Y014736D02*
X000370Y014736D01*
X000370Y014854D02*
X001178Y014854D01*
X002442Y014854D02*
X009678Y014854D01*
X009621Y014736D02*
X002499Y014736D01*
X002548Y014617D02*
X009572Y014617D01*
X009549Y014499D02*
X002571Y014499D01*
X002571Y014380D02*
X009549Y014380D01*
X009549Y014262D02*
X002571Y014262D01*
X002523Y014143D02*
X009597Y014143D01*
X009646Y014025D02*
X002474Y014025D01*
X002383Y013906D02*
X009737Y013906D01*
X009856Y013788D02*
X002264Y013788D01*
X002010Y013669D02*
X010110Y013669D01*
X010764Y013788D02*
X011749Y013788D01*
X011789Y013906D02*
X010883Y013906D01*
X010974Y014025D02*
X011838Y014025D01*
X011941Y014143D02*
X011023Y014143D01*
X011071Y014262D02*
X012096Y014262D01*
X012712Y014262D02*
X013525Y014262D01*
X013538Y014268D02*
X013449Y014223D01*
X013368Y014164D01*
X013298Y014094D01*
X013239Y014013D01*
X013194Y013924D01*
X013163Y013829D01*
X013148Y013738D01*
X013724Y013738D01*
X013724Y013622D01*
X013148Y013622D01*
X013163Y013531D01*
X013194Y013436D01*
X013239Y013347D01*
X013298Y013266D01*
X013368Y013196D01*
X013449Y013137D01*
X013538Y013092D01*
X013633Y013061D01*
X013724Y013046D01*
X013724Y013622D01*
X013840Y013622D01*
X013840Y013046D01*
X013931Y013061D01*
X014026Y013092D01*
X014115Y013137D01*
X014196Y013196D01*
X014266Y013266D01*
X014325Y013347D01*
X014371Y013436D01*
X014401Y013531D01*
X014416Y013622D01*
X013840Y013622D01*
X013840Y013738D01*
X013724Y013738D01*
X013724Y014314D01*
X013633Y014299D01*
X013538Y014268D01*
X013724Y014262D02*
X013840Y014262D01*
X013840Y014314D02*
X013931Y014299D01*
X014026Y014268D01*
X014115Y014223D01*
X014196Y014164D01*
X014266Y014094D01*
X014325Y014013D01*
X014371Y013924D01*
X014401Y013829D01*
X014416Y013738D01*
X013840Y013738D01*
X013840Y014314D01*
X013840Y014143D02*
X013724Y014143D01*
X013724Y014025D02*
X013840Y014025D01*
X013840Y013906D02*
X013724Y013906D01*
X013724Y013788D02*
X013840Y013788D01*
X013840Y013669D02*
X014505Y013669D01*
X014505Y013551D02*
X014404Y013551D01*
X014368Y013432D02*
X014505Y013432D01*
X014473Y013314D02*
X014301Y013314D01*
X014359Y013195D02*
X014195Y013195D01*
X014244Y013077D02*
X013980Y013077D01*
X013840Y013077D02*
X013724Y013077D01*
X013724Y013195D02*
X013840Y013195D01*
X013840Y013314D02*
X013724Y013314D01*
X013724Y013432D02*
X013840Y013432D01*
X013840Y013551D02*
X013724Y013551D01*
X013724Y013669D02*
X013059Y013669D01*
X013059Y013551D02*
X013160Y013551D01*
X013196Y013432D02*
X013010Y013432D01*
X012961Y013314D02*
X013263Y013314D01*
X013369Y013195D02*
X012845Y013195D01*
X012659Y013077D02*
X013584Y013077D01*
X013673Y012484D02*
X012227Y012484D01*
X012178Y012366D02*
X013558Y012366D01*
X013444Y012247D02*
X012100Y012247D01*
X012564Y012129D02*
X012756Y012129D01*
X012716Y012010D02*
X012604Y012010D01*
X012604Y011892D02*
X012716Y011892D01*
X012716Y011773D02*
X012604Y011773D01*
X012604Y011655D02*
X012716Y011655D01*
X012716Y011536D02*
X012604Y011536D01*
X012604Y011418D02*
X012629Y011418D01*
X012109Y011660D02*
X011860Y011909D01*
X009510Y013077D02*
X009421Y013077D01*
X009600Y013195D02*
X009206Y013195D01*
X008060Y012660D02*
X008060Y012060D01*
X009560Y010560D01*
X017111Y010560D01*
X018211Y011660D01*
X015884Y012721D02*
X015492Y012721D01*
X015528Y012603D02*
X015836Y012603D01*
X015788Y012484D02*
X015527Y012484D01*
X015478Y012366D02*
X015739Y012366D01*
X015691Y012247D02*
X015366Y012247D01*
X015256Y012129D02*
X015177Y012129D01*
X015216Y012010D02*
X015105Y012010D01*
X015104Y011892D02*
X015216Y011892D01*
X015216Y011773D02*
X015104Y011773D01*
X015104Y011655D02*
X015216Y011655D01*
X015216Y011536D02*
X015104Y011536D01*
X015104Y011418D02*
X015129Y011418D01*
X014609Y011660D02*
X015160Y012560D01*
X015401Y012840D02*
X015933Y012840D01*
X014505Y013788D02*
X014408Y013788D01*
X014376Y013906D02*
X014505Y013906D01*
X014505Y014025D02*
X014317Y014025D01*
X014217Y014143D02*
X014505Y014143D01*
X014537Y014262D02*
X014039Y014262D01*
X013347Y014143D02*
X012867Y014143D01*
X012970Y014025D02*
X013247Y014025D01*
X013188Y013906D02*
X013019Y013906D01*
X013059Y013788D02*
X013156Y013788D01*
X011847Y013314D02*
X000370Y013314D01*
X000370Y013432D02*
X011798Y013432D01*
X011071Y014380D02*
X030049Y014380D01*
X030049Y014499D02*
X011071Y014499D01*
X011048Y014617D02*
X030072Y014617D01*
X030121Y014736D02*
X010999Y014736D01*
X010942Y014854D02*
X030178Y014854D01*
X031010Y013669D02*
X031350Y013669D01*
X031350Y013788D02*
X031264Y013788D01*
X025917Y013077D02*
X025908Y013077D01*
X025466Y013314D02*
X025313Y013314D01*
X024660Y011660D02*
X024609Y011660D01*
X025216Y010825D02*
X027434Y010825D01*
X027316Y010707D02*
X025097Y010707D01*
X024979Y010588D02*
X027197Y010588D01*
X027079Y010470D02*
X024860Y010470D01*
X024742Y010351D02*
X026960Y010351D01*
X026842Y010233D02*
X024623Y010233D01*
X024505Y010114D02*
X026723Y010114D01*
X027679Y009640D02*
X027705Y009640D01*
X027628Y009522D02*
X028944Y009522D01*
X029097Y009640D02*
X028615Y009640D01*
X028694Y009759D02*
X029250Y009759D01*
X029403Y009877D02*
X028694Y009877D01*
X028694Y009996D02*
X029556Y009996D01*
X030160Y010160D02*
X028160Y008611D01*
X027626Y008337D02*
X000370Y008337D01*
X000370Y008455D02*
X026974Y008455D01*
X026856Y008574D02*
X000370Y008574D01*
X000370Y008692D02*
X026737Y008692D01*
X026619Y008811D02*
X000370Y008811D01*
X000370Y008929D02*
X026500Y008929D01*
X026382Y009048D02*
X000370Y009048D01*
X000370Y009166D02*
X026263Y009166D01*
X026145Y009285D02*
X000370Y009285D01*
X000370Y009403D02*
X005378Y009403D01*
X005259Y009522D02*
X000370Y009522D01*
X000370Y009640D02*
X005141Y009640D01*
X005022Y009759D02*
X000370Y009759D01*
X000370Y009877D02*
X004904Y009877D01*
X004785Y009996D02*
X000370Y009996D01*
X000370Y010114D02*
X004667Y010114D01*
X004548Y010233D02*
X000370Y010233D01*
X000370Y010351D02*
X004430Y010351D01*
X004311Y010470D02*
X000370Y010470D01*
X000370Y010588D02*
X004193Y010588D01*
X004074Y010707D02*
X000370Y010707D01*
X000370Y010825D02*
X003956Y010825D01*
X003837Y010944D02*
X000370Y010944D01*
X000370Y011062D02*
X003719Y011062D01*
X003600Y011181D02*
X000370Y011181D01*
X000370Y011299D02*
X003482Y011299D01*
X003363Y011418D02*
X000370Y011418D01*
X000370Y011536D02*
X003245Y011536D01*
X003126Y011655D02*
X000370Y011655D01*
X000370Y011773D02*
X003008Y011773D01*
X002889Y011892D02*
X000370Y011892D01*
X000370Y012010D02*
X002821Y012010D01*
X002820Y012129D02*
X000370Y012129D01*
X000370Y012247D02*
X002695Y012247D01*
X002587Y012366D02*
X000370Y012366D01*
X000370Y012484D02*
X002538Y012484D01*
X002510Y012603D02*
X000370Y012603D01*
X000370Y012721D02*
X002510Y012721D01*
X006206Y013195D02*
X006914Y013195D01*
X006699Y013077D02*
X006421Y013077D01*
X006532Y012958D02*
X006588Y012958D01*
X011460Y008060D02*
X010060Y006660D01*
X008809Y007152D02*
X008311Y007152D01*
X008465Y007033D02*
X008655Y007033D01*
X008570Y006915D02*
X008550Y006915D01*
X007809Y007152D02*
X007311Y007152D01*
X007465Y007033D02*
X007655Y007033D01*
X007570Y006915D02*
X007550Y006915D01*
X006809Y007152D02*
X006311Y007152D01*
X006465Y007033D02*
X006655Y007033D01*
X006570Y006915D02*
X006550Y006915D01*
X006060Y006660D02*
X006060Y006060D01*
X006360Y005760D01*
X010860Y005760D01*
X012261Y004782D02*
X008180Y004782D01*
X008180Y004663D02*
X012204Y004663D01*
X012192Y004545D02*
X008180Y004545D01*
X008161Y004426D02*
X012217Y004426D01*
X012292Y004308D02*
X008043Y004308D01*
X007924Y004189D02*
X011714Y004189D01*
X011614Y004071D02*
X000370Y004071D01*
X000370Y004189D02*
X004396Y004189D01*
X004277Y004308D02*
X000370Y004308D01*
X000370Y004426D02*
X004159Y004426D01*
X004140Y004545D02*
X000370Y004545D01*
X000370Y004663D02*
X004140Y004663D01*
X004140Y004782D02*
X000370Y004782D01*
X000370Y004900D02*
X004165Y004900D01*
X004283Y005019D02*
X000370Y005019D01*
X000370Y005137D02*
X004402Y005137D01*
X004918Y005137D02*
X005402Y005137D01*
X005283Y005019D02*
X005037Y005019D01*
X005155Y004900D02*
X005165Y004900D01*
X005918Y005137D02*
X006402Y005137D01*
X006283Y005019D02*
X006037Y005019D01*
X006155Y004900D02*
X006165Y004900D01*
X006660Y004860D02*
X006660Y004660D01*
X006660Y004860D02*
X007060Y005260D01*
X013009Y005260D01*
X014609Y003660D01*
X015180Y001560D01*
X014525Y001582D02*
X014457Y001582D01*
X014457Y001464D02*
X014525Y001464D01*
X014525Y001345D02*
X014422Y001345D01*
X014373Y001227D02*
X014525Y001227D01*
X014525Y001108D02*
X014276Y001108D01*
X014136Y000990D02*
X014546Y000990D01*
X013468Y000990D02*
X012703Y000990D01*
X012668Y000972D02*
X012757Y001017D01*
X012838Y001076D01*
X012908Y001146D01*
X012967Y001227D01*
X013013Y001316D01*
X013043Y001411D01*
X013058Y001502D01*
X012482Y001502D01*
X012482Y000926D01*
X012573Y000941D01*
X012668Y000972D01*
X012482Y000990D02*
X012366Y000990D01*
X012366Y000926D02*
X012366Y001502D01*
X011790Y001502D01*
X011805Y001411D01*
X011836Y001316D01*
X011881Y001227D01*
X011940Y001146D01*
X012010Y001076D01*
X012091Y001017D01*
X012180Y000972D01*
X012275Y000941D01*
X012366Y000926D01*
X012366Y001108D02*
X012482Y001108D01*
X012482Y001227D02*
X012366Y001227D01*
X012366Y001345D02*
X012482Y001345D01*
X012482Y001464D02*
X012366Y001464D01*
X012366Y001502D02*
X012482Y001502D01*
X012482Y001618D01*
X012366Y001618D01*
X012366Y001502D01*
X012366Y001582D02*
X010677Y001582D01*
X010833Y001464D02*
X011796Y001464D01*
X011826Y001345D02*
X010951Y001345D01*
X011003Y001227D02*
X011881Y001227D01*
X011978Y001108D02*
X011052Y001108D01*
X011071Y000990D02*
X012145Y000990D01*
X012870Y001108D02*
X013328Y001108D01*
X013231Y001227D02*
X012967Y001227D01*
X013022Y001345D02*
X013182Y001345D01*
X013147Y001464D02*
X013052Y001464D01*
X013147Y001582D02*
X012482Y001582D01*
X012482Y001618D02*
X013058Y001618D01*
X013043Y001709D01*
X013013Y001804D01*
X012967Y001893D01*
X012908Y001974D01*
X012838Y002044D01*
X012757Y002103D01*
X012668Y002148D01*
X012573Y002179D01*
X012482Y002194D01*
X012482Y001618D01*
X012482Y001701D02*
X012366Y001701D01*
X012366Y001618D02*
X012366Y002194D01*
X012275Y002179D01*
X012180Y002148D01*
X012091Y002103D01*
X012010Y002044D01*
X011940Y001974D01*
X011881Y001893D01*
X011836Y001804D01*
X011805Y001709D01*
X011790Y001618D01*
X012366Y001618D01*
X012366Y001819D02*
X012482Y001819D01*
X012482Y001938D02*
X012366Y001938D01*
X012366Y002056D02*
X012482Y002056D01*
X012482Y002175D02*
X012366Y002175D01*
X012260Y002175D02*
X006881Y002175D01*
X006999Y002056D02*
X007349Y002056D01*
X007230Y001938D02*
X007118Y001938D01*
X007640Y001938D02*
X007680Y001938D01*
X007680Y002056D02*
X007640Y002056D01*
X007971Y002056D02*
X012026Y002056D01*
X011913Y001938D02*
X008090Y001938D01*
X008160Y001819D02*
X011843Y001819D01*
X011803Y001701D02*
X008160Y001701D01*
X008160Y001640D02*
X007680Y001640D01*
X007680Y001160D01*
X007867Y001160D01*
X008160Y001453D01*
X008160Y001640D01*
X008160Y001582D02*
X009943Y001582D01*
X009787Y001464D02*
X008160Y001464D01*
X008052Y001345D02*
X009669Y001345D01*
X009617Y001227D02*
X007934Y001227D01*
X007680Y001227D02*
X007640Y001227D01*
X007640Y001345D02*
X007680Y001345D01*
X007680Y001464D02*
X007640Y001464D01*
X007640Y001582D02*
X007680Y001582D01*
X007680Y001701D02*
X007640Y001701D01*
X007640Y001819D02*
X007680Y001819D01*
X007268Y001345D02*
X007080Y001345D01*
X006962Y001227D02*
X007386Y001227D01*
X006358Y001227D02*
X005962Y001227D01*
X006080Y001345D02*
X006240Y001345D01*
X005660Y001660D02*
X005660Y002960D01*
X006460Y003760D01*
X012009Y003760D01*
X012109Y003660D01*
X013802Y001560D01*
X013200Y001819D02*
X013005Y001819D01*
X013045Y001701D02*
X013151Y001701D01*
X013189Y001938D02*
X012935Y001938D01*
X012822Y002056D02*
X013094Y002056D01*
X012998Y002175D02*
X012588Y002175D01*
X012807Y002412D02*
X005900Y002412D01*
X005900Y002530D02*
X012712Y002530D01*
X012616Y002649D02*
X005900Y002649D01*
X005900Y002767D02*
X012521Y002767D01*
X012425Y002886D02*
X005925Y002886D01*
X006043Y003004D02*
X012329Y003004D01*
X012234Y003123D02*
X006162Y003123D01*
X006280Y003241D02*
X011614Y003241D01*
X011614Y003360D02*
X006399Y003360D01*
X006517Y003478D02*
X011614Y003478D01*
X012850Y003123D02*
X014506Y003123D01*
X014539Y003004D02*
X012946Y003004D01*
X013042Y002886D02*
X014571Y002886D01*
X014603Y002767D02*
X013137Y002767D01*
X013233Y002649D02*
X014635Y002649D01*
X014667Y002530D02*
X013328Y002530D01*
X013424Y002412D02*
X014700Y002412D01*
X014732Y002293D02*
X013519Y002293D01*
X014030Y002175D02*
X014590Y002175D01*
X014525Y002056D02*
X014232Y002056D01*
X014351Y001938D02*
X014525Y001938D01*
X014525Y001819D02*
X014404Y001819D01*
X014453Y001701D02*
X014525Y001701D01*
X015835Y001938D02*
X016005Y001938D01*
X016124Y002056D02*
X015835Y002056D01*
X015770Y002175D02*
X016326Y002175D01*
X015216Y003241D02*
X015104Y003241D01*
X015104Y003360D02*
X015216Y003360D01*
X015216Y003478D02*
X015104Y003478D01*
X015104Y003597D02*
X015216Y003597D01*
X015216Y003715D02*
X015104Y003715D01*
X015104Y003834D02*
X015216Y003834D01*
X015216Y003952D02*
X015104Y003952D01*
X015104Y004071D02*
X015216Y004071D01*
X015316Y004189D02*
X015004Y004189D01*
X015317Y004426D02*
X014182Y004426D01*
X014064Y004545D02*
X015292Y004545D01*
X015304Y004663D02*
X013945Y004663D01*
X013827Y004782D02*
X015361Y004782D01*
X015660Y004560D02*
X015660Y003711D01*
X015711Y003660D01*
X015392Y004308D02*
X014301Y004308D01*
X013859Y004071D02*
X013706Y004071D01*
X013706Y003952D02*
X013977Y003952D01*
X014096Y003834D02*
X013706Y003834D01*
X013706Y003715D02*
X014114Y003715D01*
X014114Y003597D02*
X013706Y003597D01*
X013706Y003478D02*
X014114Y003478D01*
X014114Y003360D02*
X013706Y003360D01*
X013706Y003241D02*
X014114Y003241D01*
X013211Y003660D02*
X013211Y003909D01*
X012560Y004560D01*
X012928Y004545D02*
X013385Y004545D01*
X013266Y004663D02*
X012916Y004663D01*
X012859Y004782D02*
X013148Y004782D01*
X013029Y004900D02*
X012701Y004900D01*
X012911Y005019D02*
X008037Y005019D01*
X008155Y004900D02*
X012419Y004900D01*
X013033Y004426D02*
X013503Y004426D01*
X013622Y004308D02*
X013152Y004308D01*
X013606Y004189D02*
X013740Y004189D01*
X012903Y002293D02*
X005900Y002293D01*
X005900Y002175D02*
X006439Y002175D01*
X006321Y002056D02*
X005999Y002056D01*
X006118Y001938D02*
X006202Y001938D01*
X005420Y002175D02*
X004881Y002175D01*
X004999Y002056D02*
X005321Y002056D01*
X005202Y001938D02*
X005118Y001938D01*
X005420Y002293D02*
X000370Y002293D01*
X000370Y002175D02*
X004439Y002175D01*
X004321Y002056D02*
X000370Y002056D01*
X000370Y001938D02*
X004202Y001938D01*
X004140Y001819D02*
X000370Y001819D01*
X000370Y001701D02*
X004140Y001701D01*
X004962Y001227D02*
X005358Y001227D01*
X005240Y001345D02*
X005080Y001345D01*
X005420Y002412D02*
X000370Y002412D01*
X000370Y002530D02*
X005420Y002530D01*
X005420Y002649D02*
X000370Y002649D01*
X000370Y002767D02*
X005420Y002767D01*
X005420Y002886D02*
X000370Y002886D01*
X000370Y003004D02*
X005420Y003004D01*
X005483Y003123D02*
X000370Y003123D01*
X000370Y003241D02*
X005602Y003241D01*
X005720Y003360D02*
X000370Y003360D01*
X000370Y003478D02*
X005839Y003478D01*
X005957Y003597D02*
X000370Y003597D01*
X000370Y003715D02*
X006076Y003715D01*
X006194Y003834D02*
X000370Y003834D01*
X000370Y003952D02*
X006313Y003952D01*
X006257Y003896D02*
X006257Y003896D01*
X006396Y004189D02*
X005924Y004189D01*
X006043Y004308D02*
X006277Y004308D01*
X006924Y004189D02*
X007396Y004189D01*
X007277Y004308D02*
X007043Y004308D01*
X005396Y004189D02*
X004924Y004189D01*
X005043Y004308D02*
X005277Y004308D01*
X006716Y005256D02*
X000370Y005256D01*
X000370Y005374D02*
X005307Y005374D01*
X005188Y005493D02*
X000370Y005493D01*
X000370Y005611D02*
X005070Y005611D01*
X004951Y005730D02*
X000370Y005730D01*
X000370Y005848D02*
X004847Y005848D01*
X004820Y005967D02*
X000370Y005967D01*
X000370Y006085D02*
X004820Y006085D01*
X004739Y006204D02*
X004381Y006204D01*
X004500Y006322D02*
X004620Y006322D01*
X005550Y006915D02*
X005570Y006915D01*
X005655Y007033D02*
X005465Y007033D01*
X005311Y007152D02*
X005809Y007152D01*
X018524Y006204D02*
X019369Y006204D01*
X023160Y004560D02*
X023160Y003660D01*
X023211Y003660D01*
X023706Y003715D02*
X024114Y003715D01*
X024114Y003597D02*
X023706Y003597D01*
X023706Y003478D02*
X024114Y003478D01*
X024114Y003360D02*
X023706Y003360D01*
X023706Y003241D02*
X024114Y003241D01*
X024114Y003834D02*
X023706Y003834D01*
X023706Y003952D02*
X024114Y003952D01*
X024114Y004071D02*
X023706Y004071D01*
X023606Y004189D02*
X024214Y004189D01*
X024369Y004308D02*
X023428Y004308D01*
X023503Y004426D02*
X024369Y004426D01*
X024369Y004545D02*
X023528Y004545D01*
X023516Y004663D02*
X024369Y004663D01*
X024369Y004782D02*
X023459Y004782D01*
X023301Y004900D02*
X024369Y004900D01*
X025860Y004560D02*
X025860Y003660D01*
X025711Y003660D01*
X021750Y002056D02*
X021219Y002056D01*
X021250Y001938D02*
X021625Y001938D01*
X021547Y001819D02*
X021250Y001819D01*
X021250Y001701D02*
X021498Y001701D01*
X020748Y001701D02*
X020632Y001701D01*
X020632Y001819D02*
X020748Y001819D01*
X020748Y001938D02*
X020632Y001938D01*
X020632Y002056D02*
X020748Y002056D01*
X020748Y001464D02*
X020632Y001464D01*
X020632Y001345D02*
X020748Y001345D01*
X020748Y001227D02*
X020632Y001227D01*
X020632Y001108D02*
X020748Y001108D01*
X020711Y003660D02*
X020760Y003660D01*
X027179Y008929D02*
X027626Y008929D01*
X027672Y009048D02*
X027061Y009048D01*
X027505Y009285D02*
X028638Y009285D01*
X028791Y009403D02*
X027593Y009403D01*
X022109Y011660D02*
X022060Y011709D01*
X022060Y012560D01*
X021387Y013788D02*
X021290Y013788D01*
X021258Y013906D02*
X021427Y013906D01*
X021476Y014025D02*
X021199Y014025D01*
X021099Y014143D02*
X021579Y014143D01*
X020407Y014262D02*
X019913Y014262D01*
X019945Y014143D02*
X020229Y014143D01*
X020130Y014025D02*
X019945Y014025D01*
X019945Y013906D02*
X020070Y013906D01*
X020038Y013788D02*
X019945Y013788D01*
X018635Y013788D02*
X018567Y013788D01*
X018527Y013906D02*
X018635Y013906D01*
X018635Y014025D02*
X018478Y014025D01*
X018375Y014143D02*
X018635Y014143D01*
X018667Y014262D02*
X018220Y014262D01*
D20*
X019260Y012560D03*
X017160Y012560D03*
X015160Y012560D03*
X011860Y012560D03*
X022060Y012560D03*
X024660Y012560D03*
X027260Y009560D03*
X025860Y006560D03*
X025860Y004560D03*
X023160Y004560D03*
X020760Y004560D03*
X018260Y004560D03*
X015660Y004560D03*
X012560Y004560D03*
X015960Y006460D03*
X018260Y006460D03*
M02*
